<svg version="1.1" baseProfile="full" width="1297.8" height="857.0" viewBox="0 0 1297.75 857" xmlns="http://www.w3.org/2000/svg" xmlns:xlink="http://www.w3.org/1999/xlink" xmlns:ev="http://www.w3.org/2001/xml-events">
	<title >CsabaDu_DynamicTestData_Pattern_Composite_Builder</title>
	<desc >#title: CsabaDu_DynamicTestData_Pattern_Composite_Builder
	#direction: down
	#.contract: fill=#DCE8CF title=center,italic,bold body=left,italic visual=class
	#.concrete: fill=#C9DEEF title=center,bold body=left visual=class
	#.abstract: fill=#C9DEEF title=center,bold,italic body=left visual=class
	
	[&lt;contract&gt;
	IDataStrategy |
	ArgsCode ArgsCode
	PropsCode PropsCode]
	
	[&lt;abstract&gt;
	DynamicDataSource&lt;TDataHolder&gt; |
	&apos;# TDataRowHolde DataHolder |
	&apos;# abstract void Add&lt;TTestData&gt;(TTestData)]
	
	[&lt;abstract&gt;
	DynamicDataRowSource&lt;TDataRowHolder, TRow&gt; |
	&apos;# void Add&lt;T1...T9&gt;(string, string, T1?...T9?)
	&apos;# void AddReturns&lt;TStruct, T1...T9&gt;(string, TStruct, T1?...T9?)
	&apos;# void AddThrows&lt;TException, T1...T9&gt;(string, TException, T1?...T9?) |
	&apos;# abstract void InitDataHolder&lt;TTestData&gt;(TTestData)]
	
	[&lt;contract&gt;
	IDataRowHolder |
	IDataStrategy DataStrategy]
	
	[&lt;contract&gt;
	IDataRowHolder&lt;TRow&gt; |
	IDataRowHolder&lt;TRow&gt; GetDataRowHolder(IDataStrategy)]
	
	[&lt;contract&gt;
	IDataRowHolder&lt;TRow, TTestData&gt; |
	void Add(ITestDataRow&lt;TRow, TTestData&gt;)]
	
	[&lt;abstract&gt;
	DataRowHolder&lt;TRow, TTestData&gt; |
	- readonly List&lt;ITestDataRow&lt;TRow, TTestData&gt;&gt; testDataRows]
	
	[&lt;contract&gt;
	ITestDataRow&lt;TRow&gt; |
	TRow Convert(IDataStrategy)]
	
	[&lt;contract&gt;
	ITestDataRow&lt;TRow, TTestData&gt; |
	TTestData TestData]
	
	
	[&lt;concrete&gt;
	TTestData
	(concrete generic records)]
	
	
	[TTestData] has &lt;-+
	[ITestDataRow&lt;TRow, TTestData&gt;]
	[TTestData]
	
	
	[DynamicDataSource&lt;TDataHolder&gt;] uses o-&gt;
	[TTestData]
	
	
	
	[DynamicDataRowSource&lt;TDataRowHolder, TRow&gt;] +-&gt; has
	(generic constraint)
	[IDataRowHolder&lt;TRow&gt;]
	
	[IDataStrategy] &lt;-+ has
	[IDataRowHolder] extends &lt;:-
	[IDataRowHolder&lt;TRow&gt;] &lt;:- extends
	[IDataRowHolder&lt;TRow, TTestData&gt;]
	
	[IDataStrategy] &lt;:-- implements
	[DynamicDataSource&lt;TDataHolder&gt;] &lt;:- extends
	[DynamicDataRowSource&lt;TDataRowHolder, TRow&gt;] uses o-&gt;
	[TTestData]
	
	[IDataStrategy] &lt;-o uses
	[IDataRowHolder&lt;TRow&gt;]
	
	[IDataRowHolder&lt;TRow, TTestData&gt;] &lt;:-- implements
	[DataRowHolder&lt;TRow, TTestData&gt;]
	
	[IDataRowHolder&lt;TRow, TTestData&gt;] uses o-&gt;
	[TTestData]
	
	[DataRowHolder&lt;TRow, TTestData&gt;] has +-&gt;
	[ITestDataRow&lt;TRow, TTestData&gt;]
	
	[IDataStrategy] &lt;-o uses
	[ITestDataRow&lt;TRow&gt;] extends &lt;:-
	[ITestDataRow&lt;TRow, TTestData&gt;]
	
	</desc>
	<g stroke-width="1.0" text-align="left" font="12pt Helvetica, Arial, sans-serif" font-size="12pt" font-family="Helvetica" font-weight="bold" font-style="normal">
		<g font-family="Helvetica" font-size="12pt" font-weight="bold" font-style="normal" stroke-width="3.0" stroke-linejoin="round" stroke-linecap="round" stroke="#33322E">
			<g stroke="transparent" fill="transparent">
				<rect x="0.0" y="0.0" height="857.0" width="1297.8" stroke="none"></rect>
			</g>
			<g transform="translate(8, 8)" fill="#33322E">
				<g transform="translate(20, 20)" fill="#eee8d5" font-family="Helvetica" font-size="12pt" font-weight="normal" font-style="normal">
					<text x="72.7" y="709.0" stroke="none">has</text>
					<path d="M108.0 695.7 L108 717 L658.8843352501415 757.806247055566 L658.9 757.8 " fill="none"></path>
					<g fill="#33322E">
						<path d="M667.8 763.8 L658.9 757.8 L668.6 753.2 L677.5 759.2 Z"></path>
					</g>
					<path d="M113.3 702.3 L108.0 695.7 L102.7 702.3 L108.0 689.0 Z"></path>
					<text x="118.6" y="236.0" stroke="none">uses</text>
					<path d="M96.6 228.4 L88 236 L88 320.5 L88 320.5 L88 405 L88 405 L88 457 L88 457 L88 509 L88 509 L88 561 L88 561 L88 613 L88 613 L96.37603690717165 634.7776959586463 L96.4 634.8 " fill="none"></path>
					<path d="M89.0 630.5 L96.4 634.8 L99.0 626.6 L98.8 641.0 Z"></path>
					<g fill="#eee8d5">
						<path d="M107.1 226.2 L96.6 228.4 L100.1 218.2 L110.6 216.0 Z"></path>
					</g>
					<text x="610.3" y="417.0" stroke="none">has
					(generic constraint)</text>
					<path d="M501.8 395.1 L517 405 L595.7978639930732 423.47796585181425 L595.8 423.5 " fill="none"></path>
					<path d="M588.1 427.1 L595.8 423.5 L590.5 416.8 L602.3 425.0 Z"></path>
					<g fill="#33322E">
						<path d="M496.8 385.6 L501.8 395.1 L491.0 394.5 L486.1 385.0 Z"></path>
					</g>
					<text x="754.7" y="280.5" stroke="none">has</text>
					<path d="M802.8 85.1 L790 100 L790 168 L790 168 L790 236 L790 236 L790 269.8333333333333 L790.0 269.8 " fill="none"></path>
					<g fill="#33322E">
						<path d="M784.7 279.2 L790.0 269.8 L795.3 279.2 L790.0 288.5 Z"></path>
					</g>
					<path d="M802.5 93.6 L802.8 85.1 L794.4 86.6 L807.2 80.0 Z"></path>
					<text x="798.0" y="372.5" stroke="none">extends</text>
					<path d="M790.0 365.8 L790 405 L770.2884615384615 425 L770.3 425.0 " fill="none"></path>
					<path d="M795.3 365.8 L790.0 365.8 L784.7 365.8 L790.0 352.5 Z"></path>
					<text x="670.8" y="521.0" stroke="none">extends</text>
					<path d="M738.8 502.3 L738.75 509 L738.75 529 L738.8 529.0 " fill="none"></path>
					<path d="M744.1 502.3 L738.8 502.3 L733.4 502.3 L738.8 489.0 Z"></path>
					<text x="68.7" y="112.0" stroke="none">implements</text>
					<g stroke-dasharray="6 6">
						<path d="M738.7 49.1 L164.75 100 L164.75 120 L164.8 120.0 " fill="none"></path>
					</g>
					<path d="M739.2 54.4 L738.7 49.1 L738.2 43.8 L752.0 47.9 Z"></path>
					<text x="394.5" y="248.0" stroke="none">extends</text>
					<path d="M334.0 219.9 L386.5 236 L386.5 256 L386.5 256.0 " fill="none"></path>
					<path d="M335.6 214.8 L334.0 219.9 L332.5 225.0 L321.3 216.0 Z"></path>
					<text x="295.8" y="405.0" stroke="none">uses</text>
					<path d="M272.2 395.2 L257.25 405 L257.25 457 L257.25 457 L257.25 509 L257.25 509 L257.25 561 L257.25 561 L257.25 613 L257.25 613 L183.18012174270518 638.8065907496102 L183.2 638.8 " fill="none"></path>
					<path d="M187.7 631.6 L183.2 638.8 L191.2 641.6 L176.9 641.0 Z"></path>
					<g fill="#eee8d5">
						<path d="M282.9 394.6 L272.2 395.2 L277.1 385.6 L287.8 385.0 Z"></path>
					</g>
					<text x="847.1" y="417.0" stroke="none">uses</text>
					<path d="M937.2 79.6 L986.5 100 L986.5 168 L986.5 168 L986.5 236 L986.5 236 L986.5 320.5 L986.5 320.5 L986.5 405 L986.5 405 L909.4801448126462 421.1656204631378 L909.5 421.2 " fill="none"></path>
					<g fill="#eee8d5">
						<path d="M899.3 417.9 L909.5 421.2 L901.4 428.3 L891.2 425.0 Z"></path>
					</g>
					<path d="M945.4 77.2 L937.2 79.6 L941.3 87.1 L931.0 77.0 Z"></path>
					<text x="642.7" y="625.0" stroke="none">implements</text>
					<g stroke-dasharray="6 6">
						<path d="M738.8 606.3 L738.75 613 L738.75 633 L738.8 633.0 " fill="none"></path>
					</g>
					<path d="M744.1 606.3 L738.8 606.3 L733.4 606.3 L738.8 593.0 Z"></path>
					<text x="583.3" y="606.7" stroke="none">uses</text>
					<path d="M556.8 589.6 L407.75 613 L222.5685602777658 645.1248869576519 L222.6 645.1 " fill="none"></path>
					<path d="M228.2 638.7 L222.6 645.1 L230.0 649.2 L216.0 646.3 Z"></path>
					<g fill="#eee8d5">
						<path d="M566.9 593.4 L556.8 589.6 L565.2 582.9 L575.3 586.7 Z"></path>
					</g>
					<text x="703.5" y="717.0" stroke="none">has</text>
					<path d="M738.8 715.7 L738.75 717 L760.7688163436893 733.0698729806575 L760.8 733.1 " fill="none"></path>
					<path d="M752.2 733.4 L760.8 733.1 L758.5 724.8 L766.2 737.0 Z"></path>
					<g fill="#33322E">
						<path d="M744.1 706.3 L738.8 715.7 L733.4 706.3 L738.8 697.0 Z"></path>
					</g>
					<text x="1137.3" y="625.0" stroke="none">uses</text>
					<path d="M937.5 60.0 L1129.25 100 L1129.25 168 L1129.25 168 L1129.25 236 L1129.25 236 L1129.25 320.5 L1129.25 320.5 L1129.25 405 L1129.25 405 L1129.25 457 L1129.25 457 L1129.25 509 L1129.25 509 L1129.25 561 L1129.25 561 L1129.25 613 L1129.25 613 L1129.25 614.3333333333334 L1129.3 614.3 " fill="none"></path>
					<g fill="#eee8d5">
						<path d="M1123.9 623.7 L1129.3 614.3 L1134.6 623.7 L1129.3 633.0 Z"></path>
					</g>
					<path d="M945.1 56.2 L937.5 60.0 L943.0 66.6 L931.0 58.7 Z"></path>
					<text x="1137.3" y="717.0" stroke="none">extends</text>
					<path d="M1129.3 710.3 L1129.25 717 L942.5 747.4181675802663 L942.5 747.4 " fill="none"></path>
					<path d="M1134.6 710.3 L1129.3 710.3 L1123.9 710.3 L1129.3 697.0 Z"></path>
					<g data-name="IDataStrategy">
						<g fill="#DCE8CF" stroke="#33322E" data-name="IDataStrategy">
							<rect x="752.0" y="0.0" height="80.0" width="179.0" data-name="IDataStrategy"></rect>
							<path d="M752.0 32.0 L931.0 32.0" fill="none" data-name="IDataStrategy"></path>
						</g>
						<g transform="translate(752, 0)" font-family="Helvetica" font-size="12pt" font-weight="bold" font-style="italic" data-name="IDataStrategy" data-compartment="0">
							<g transform="translate(8, 8)" fill="#33322E" text-align="center" data-name="IDataStrategy" data-compartment="0">
								<text x="81.5" y="14.1" stroke="none" text-anchor="middle" data-name="IDataStrategy" data-compartment="0">IDataStrategy</text>
								
							</g>
						</g>
						<g transform="translate(752, 32)" font-family="Helvetica" font-size="12pt" font-weight="normal" font-style="italic" data-name="IDataStrategy" data-compartment="1">
							<g transform="translate(8, 8)" fill="#33322E" text-align="left" data-name="IDataStrategy" data-compartment="1">
								<text x="0.0" y="14.1" stroke="none" data-name="IDataStrategy" data-compartment="1">ArgsCode ArgsCode</text>
								<text x="0.0" y="30.3" stroke="none" data-name="IDataStrategy" data-compartment="1">PropsCode PropsCode</text>
								
							</g>
						</g>
					</g>
					<g data-name="DynamicDataSource&lt;TDataHolder&gt;">
						<g fill="#C9DEEF" stroke="#33322E" data-name="DynamicDataSource&lt;TDataHolder&gt;">
							<rect x="0.8" y="120.0" height="96.0" width="328.0" data-name="DynamicDataSource&lt;TDataHolder&gt;"></rect>
							<path d="M0.8 152.0 L328.8 152.0" fill="none" data-name="DynamicDataSource&lt;TDataHolder&gt;"></path>
							<path d="M0.8 184.0 L328.8 184.0" fill="none" data-name="DynamicDataSource&lt;TDataHolder&gt;"></path>
						</g>
						<g transform="translate(0.75, 120)" font-family="Helvetica" font-size="12pt" font-weight="bold" font-style="italic" data-name="DynamicDataSource&lt;TDataHolder&gt;" data-compartment="0">
							<g transform="translate(8, 8)" fill="#33322E" text-align="center" data-name="DynamicDataSource&lt;TDataHolder&gt;" data-compartment="0">
								<text x="156.0" y="14.1" stroke="none" text-anchor="middle" data-name="DynamicDataSource&lt;TDataHolder&gt;" data-compartment="0">DynamicDataSource&lt;TDataHolder&gt;</text>
								
							</g>
						</g>
						<g transform="translate(0.75, 152)" font-family="Helvetica" font-size="12pt" font-weight="normal" font-style="normal" data-name="DynamicDataSource&lt;TDataHolder&gt;" data-compartment="1">
							<g transform="translate(8, 8)" fill="#33322E" text-align="left" data-name="DynamicDataSource&lt;TDataHolder&gt;" data-compartment="1">
								<text x="0.0" y="14.1" stroke="none" data-name="DynamicDataSource&lt;TDataHolder&gt;" data-compartment="1"># TDataRowHolde DataHolder</text>
								
							</g>
						</g>
						<g transform="translate(0.75, 184)" font-family="Helvetica" font-size="12pt" font-weight="normal" font-style="normal" data-name="DynamicDataSource&lt;TDataHolder&gt;" data-compartment="2">
							<g transform="translate(8, 8)" fill="#33322E" text-align="left" data-name="DynamicDataSource&lt;TDataHolder&gt;" data-compartment="2">
								<text x="0.0" y="14.1" stroke="none" data-name="DynamicDataSource&lt;TDataHolder&gt;" data-compartment="2"># abstract void Add&lt;TTestData&gt;(TTestData)</text>
								
							</g>
						</g>
					</g>
					<g data-name="DynamicDataRowSource&lt;TDataRowHolder, TRow&gt;">
						<g fill="#C9DEEF" stroke="#33322E" data-name="DynamicDataRowSource&lt;TDataRowHolder, TRow&gt;">
							<rect x="128.0" y="256.0" height="129.0" width="517.0" data-name="DynamicDataRowSource&lt;TDataRowHolder, TRow&gt;"></rect>
							<path d="M128.0 288.0 L645.0 288.0" fill="none" data-name="DynamicDataRowSource&lt;TDataRowHolder, TRow&gt;"></path>
							<path d="M128.0 353.0 L645.0 353.0" fill="none" data-name="DynamicDataRowSource&lt;TDataRowHolder, TRow&gt;"></path>
						</g>
						<g transform="translate(128, 256)" font-family="Helvetica" font-size="12pt" font-weight="bold" font-style="italic" data-name="DynamicDataRowSource&lt;TDataRowHolder, TRow&gt;" data-compartment="0">
							<g transform="translate(8, 8)" fill="#33322E" text-align="center" data-name="DynamicDataRowSource&lt;TDataRowHolder, TRow&gt;" data-compartment="0">
								<text x="250.5" y="14.1" stroke="none" text-anchor="middle" data-name="DynamicDataRowSource&lt;TDataRowHolder, TRow&gt;" data-compartment="0">DynamicDataRowSource&lt;TDataRowHolder, TRow&gt;</text>
								
							</g>
						</g>
						<g transform="translate(128, 288)" font-family="Helvetica" font-size="12pt" font-weight="normal" font-style="normal" data-name="DynamicDataRowSource&lt;TDataRowHolder, TRow&gt;" data-compartment="1">
							<g transform="translate(8, 8)" fill="#33322E" text-align="left" data-name="DynamicDataRowSource&lt;TDataRowHolder, TRow&gt;" data-compartment="1">
								<text x="0.0" y="14.1" stroke="none" data-name="DynamicDataRowSource&lt;TDataRowHolder, TRow&gt;" data-compartment="1"># void Add&lt;T1...T9&gt;(string, string, T1?...T9?)</text>
								<text x="0.0" y="30.3" stroke="none" data-name="DynamicDataRowSource&lt;TDataRowHolder, TRow&gt;" data-compartment="1"># void AddReturns&lt;TStruct, T1...T9&gt;(string, TStruct, T1?...T9?)</text>
								<text x="0.0" y="46.5" stroke="none" data-name="DynamicDataRowSource&lt;TDataRowHolder, TRow&gt;" data-compartment="1"># void AddThrows&lt;TException, T1...T9&gt;(string, TException, T1?...T9?)</text>
								
							</g>
						</g>
						<g transform="translate(128, 353)" font-family="Helvetica" font-size="12pt" font-weight="normal" font-style="normal" data-name="DynamicDataRowSource&lt;TDataRowHolder, TRow&gt;" data-compartment="2">
							<g transform="translate(8, 8)" fill="#33322E" text-align="left" data-name="DynamicDataRowSource&lt;TDataRowHolder, TRow&gt;" data-compartment="2">
								<text x="0.0" y="14.1" stroke="none" data-name="DynamicDataRowSource&lt;TDataRowHolder, TRow&gt;" data-compartment="2"># abstract void InitDataHolder&lt;TTestData&gt;(TTestData)</text>
								
							</g>
						</g>
					</g>
					<g data-name="IDataRowHolder">
						<g fill="#DCE8CF" stroke="#33322E" data-name="IDataRowHolder">
							<rect x="685.0" y="288.5" height="64.0" width="210.0" data-name="IDataRowHolder"></rect>
							<path d="M685.0 320.5 L895.0 320.5" fill="none" data-name="IDataRowHolder"></path>
						</g>
						<g transform="translate(685, 288.5)" font-family="Helvetica" font-size="12pt" font-weight="bold" font-style="italic" data-name="IDataRowHolder" data-compartment="0">
							<g transform="translate(8, 8)" fill="#33322E" text-align="center" data-name="IDataRowHolder" data-compartment="0">
								<text x="97.0" y="14.1" stroke="none" text-anchor="middle" data-name="IDataRowHolder" data-compartment="0">IDataRowHolder</text>
								
							</g>
						</g>
						<g transform="translate(685, 320.5)" font-family="Helvetica" font-size="12pt" font-weight="normal" font-style="italic" data-name="IDataRowHolder" data-compartment="1">
							<g transform="translate(8, 8)" fill="#33322E" text-align="left" data-name="IDataRowHolder" data-compartment="1">
								<text x="0.0" y="14.1" stroke="none" data-name="IDataRowHolder" data-compartment="1">IDataStrategy DataStrategy</text>
								
							</g>
						</g>
					</g>
					<g data-name="IDataRowHolder&lt;TRow&gt;">
						<g fill="#DCE8CF" stroke="#33322E" data-name="IDataRowHolder&lt;TRow&gt;">
							<rect x="517.8" y="425.0" height="64.0" width="442.0" data-name="IDataRowHolder&lt;TRow&gt;"></rect>
							<path d="M517.8 457.0 L959.8 457.0" fill="none" data-name="IDataRowHolder&lt;TRow&gt;"></path>
						</g>
						<g transform="translate(517.75, 425)" font-family="Helvetica" font-size="12pt" font-weight="bold" font-style="italic" data-name="IDataRowHolder&lt;TRow&gt;" data-compartment="0">
							<g transform="translate(8, 8)" fill="#33322E" text-align="center" data-name="IDataRowHolder&lt;TRow&gt;" data-compartment="0">
								<text x="213.0" y="14.1" stroke="none" text-anchor="middle" data-name="IDataRowHolder&lt;TRow&gt;" data-compartment="0">IDataRowHolder&lt;TRow&gt;</text>
								
							</g>
						</g>
						<g transform="translate(517.75, 457)" font-family="Helvetica" font-size="12pt" font-weight="normal" font-style="italic" data-name="IDataRowHolder&lt;TRow&gt;" data-compartment="1">
							<g transform="translate(8, 8)" fill="#33322E" text-align="left" data-name="IDataRowHolder&lt;TRow&gt;" data-compartment="1">
								<text x="0.0" y="14.1" stroke="none" data-name="IDataRowHolder&lt;TRow&gt;" data-compartment="1">IDataRowHolder&lt;TRow&gt; GetDataRowHolder(IDataStrategy)</text>
								
							</g>
						</g>
					</g>
					<g data-name="IDataRowHolder&lt;TRow, TTestData&gt;">
						<g fill="#DCE8CF" stroke="#33322E" data-name="IDataRowHolder&lt;TRow, TTestData&gt;">
							<rect x="575.3" y="529.0" height="64.0" width="327.0" data-name="IDataRowHolder&lt;TRow, TTestData&gt;"></rect>
							<path d="M575.3 561.0 L902.3 561.0" fill="none" data-name="IDataRowHolder&lt;TRow, TTestData&gt;"></path>
						</g>
						<g transform="translate(575.25, 529)" font-family="Helvetica" font-size="12pt" font-weight="bold" font-style="italic" data-name="IDataRowHolder&lt;TRow, TTestData&gt;" data-compartment="0">
							<g transform="translate(8, 8)" fill="#33322E" text-align="center" data-name="IDataRowHolder&lt;TRow, TTestData&gt;" data-compartment="0">
								<text x="155.5" y="14.1" stroke="none" text-anchor="middle" data-name="IDataRowHolder&lt;TRow, TTestData&gt;" data-compartment="0">IDataRowHolder&lt;TRow, TTestData&gt;</text>
								
							</g>
						</g>
						<g transform="translate(575.25, 561)" font-family="Helvetica" font-size="12pt" font-weight="normal" font-style="italic" data-name="IDataRowHolder&lt;TRow, TTestData&gt;" data-compartment="1">
							<g transform="translate(8, 8)" fill="#33322E" text-align="left" data-name="IDataRowHolder&lt;TRow, TTestData&gt;" data-compartment="1">
								<text x="0.0" y="14.1" stroke="none" data-name="IDataRowHolder&lt;TRow, TTestData&gt;" data-compartment="1">void Add(ITestDataRow&lt;TRow, TTestData&gt;)</text>
								
							</g>
						</g>
					</g>
					<g data-name="DataRowHolder&lt;TRow, TTestData&gt;">
						<g fill="#C9DEEF" stroke="#33322E" data-name="DataRowHolder&lt;TRow, TTestData&gt;">
							<rect x="500.8" y="633.0" height="64.0" width="476.0" data-name="DataRowHolder&lt;TRow, TTestData&gt;"></rect>
							<path d="M500.8 665.0 L976.8 665.0" fill="none" data-name="DataRowHolder&lt;TRow, TTestData&gt;"></path>
						</g>
						<g transform="translate(500.75, 633)" font-family="Helvetica" font-size="12pt" font-weight="bold" font-style="italic" data-name="DataRowHolder&lt;TRow, TTestData&gt;" data-compartment="0">
							<g transform="translate(8, 8)" fill="#33322E" text-align="center" data-name="DataRowHolder&lt;TRow, TTestData&gt;" data-compartment="0">
								<text x="230.0" y="14.1" stroke="none" text-anchor="middle" data-name="DataRowHolder&lt;TRow, TTestData&gt;" data-compartment="0">DataRowHolder&lt;TRow, TTestData&gt;</text>
								
							</g>
						</g>
						<g transform="translate(500.75, 665)" font-family="Helvetica" font-size="12pt" font-weight="normal" font-style="normal" data-name="DataRowHolder&lt;TRow, TTestData&gt;" data-compartment="1">
							<g transform="translate(8, 8)" fill="#33322E" text-align="left" data-name="DataRowHolder&lt;TRow, TTestData&gt;" data-compartment="1">
								<text x="0.0" y="14.1" stroke="none" data-name="DataRowHolder&lt;TRow, TTestData&gt;" data-compartment="1">- readonly List&lt;ITestDataRow&lt;TRow, TTestData&gt;&gt; testDataRows</text>
								
							</g>
						</g>
					</g>
					<g data-name="ITestDataRow&lt;TRow&gt;">
						<g fill="#DCE8CF" stroke="#33322E" data-name="ITestDataRow&lt;TRow&gt;">
							<rect x="1016.8" y="633.0" height="64.0" width="225.0" data-name="ITestDataRow&lt;TRow&gt;"></rect>
							<path d="M1016.8 665.0 L1241.8 665.0" fill="none" data-name="ITestDataRow&lt;TRow&gt;"></path>
						</g>
						<g transform="translate(1016.75, 633)" font-family="Helvetica" font-size="12pt" font-weight="bold" font-style="italic" data-name="ITestDataRow&lt;TRow&gt;" data-compartment="0">
							<g transform="translate(8, 8)" fill="#33322E" text-align="center" data-name="ITestDataRow&lt;TRow&gt;" data-compartment="0">
								<text x="104.5" y="14.1" stroke="none" text-anchor="middle" data-name="ITestDataRow&lt;TRow&gt;" data-compartment="0">ITestDataRow&lt;TRow&gt;</text>
								
							</g>
						</g>
						<g transform="translate(1016.75, 665)" font-family="Helvetica" font-size="12pt" font-weight="normal" font-style="italic" data-name="ITestDataRow&lt;TRow&gt;" data-compartment="1">
							<g transform="translate(8, 8)" fill="#33322E" text-align="left" data-name="ITestDataRow&lt;TRow&gt;" data-compartment="1">
								<text x="0.0" y="14.1" stroke="none" data-name="ITestDataRow&lt;TRow&gt;" data-compartment="1">TRow Convert(IDataStrategy)</text>
								
							</g>
						</g>
					</g>
					<g data-name="ITestDataRow&lt;TRow, TTestData&gt;">
						<g fill="#DCE8CF" stroke="#33322E" data-name="ITestDataRow&lt;TRow, TTestData&gt;">
							<rect x="677.5" y="737.0" height="64.0" width="265.0" data-name="ITestDataRow&lt;TRow, TTestData&gt;"></rect>
							<path d="M677.5 769.0 L942.5 769.0" fill="none" data-name="ITestDataRow&lt;TRow, TTestData&gt;"></path>
						</g>
						<g transform="translate(677.5, 737)" font-family="Helvetica" font-size="12pt" font-weight="bold" font-style="italic" data-name="ITestDataRow&lt;TRow, TTestData&gt;" data-compartment="0">
							<g transform="translate(8, 8)" fill="#33322E" text-align="center" data-name="ITestDataRow&lt;TRow, TTestData&gt;" data-compartment="0">
								<text x="124.5" y="14.1" stroke="none" text-anchor="middle" data-name="ITestDataRow&lt;TRow, TTestData&gt;" data-compartment="0">ITestDataRow&lt;TRow, TTestData&gt;</text>
								
							</g>
						</g>
						<g transform="translate(677.5, 769)" font-family="Helvetica" font-size="12pt" font-weight="normal" font-style="italic" data-name="ITestDataRow&lt;TRow, TTestData&gt;" data-compartment="1">
							<g transform="translate(8, 8)" fill="#33322E" text-align="left" data-name="ITestDataRow&lt;TRow, TTestData&gt;" data-compartment="1">
								<text x="0.0" y="14.1" stroke="none" data-name="ITestDataRow&lt;TRow, TTestData&gt;" data-compartment="1">TTestData TestData</text>
								
							</g>
						</g>
					</g>
					<g data-name="TTestData">
						<g fill="#C9DEEF" stroke="#33322E" data-name="TTestData">
							<rect x="0.0" y="641.0" height="48.0" width="216.0" data-name="TTestData"></rect>
						</g>
						<g transform="translate(0, 641)" font-family="Helvetica" font-size="12pt" font-weight="bold" font-style="normal" data-name="TTestData" data-compartment="0">
							<g transform="translate(8, 8)" fill="#33322E" text-align="center" data-name="TTestData" data-compartment="0">
								<text x="100.0" y="14.1" stroke="none" text-anchor="middle" data-name="TTestData" data-compartment="0">TTestData</text>
								<text x="100.0" y="30.3" stroke="none" text-anchor="middle" data-name="TTestData" data-compartment="0">(concrete generic records)</text>
								
							</g>
						</g>
					</g>
				</g>
			</g>
		</g>
	</g>
</svg>