<svg version="1.1" baseProfile="full" width="1133.0" height="826.0" viewBox="0 0 1133 826" xmlns="http://www.w3.org/2000/svg" xmlns:xlink="http://www.w3.org/1999/xlink" xmlns:ev="http://www.w3.org/2001/xml-events">
	<title >CsabaDu_DynamicTestData_Pattern_Strategy</title>
	<desc >
	
	#title: CsabaDu_DynamicTestData_Pattern_Strategy
	#direction: down
	#.contract: fill=#DCE8CF title=center,italic,bold body=left,italic visual=class
	#.concrete: fill=#C9DEEF title=center,bold body=left visual=class
	#.abstract: fill=#C9DEEF title=center,bold,italic body=left visual=class
	
	[&lt;concrete&gt; DataStrategy |
	+ static IDataStrategy GetStoredDataStrategy(ArgsCode, PropsCode)
	+ static IDataStrategy GetStoredDataStrategy(IDataStrategy)
	+ static IDataStrategy GetStoredDataStrategy(ArgsCode?, IDataStrategy)
	- static readonly HashSet&lt;DataStrategy&gt; DataStrategies]
	
	[&lt;contract&gt; IDataStrategy |
	ArgsCode ArgsCode
	PropsCode PropsCode]
	
	[&lt;abstract&gt; DynamicDataSource]
	[&lt;abstract&gt; DynamicDataRowSource&lt;TDataRowHolder&gt; |
	&apos;# TDataRowHolder DataHolder]
	
	[&lt;contract&gt; IDataRowHolder&lt;TRow&gt; |
	IDataRowHolder&lt;TRow&gt; GetDataRowHolder(IDataStrategy)]
	
	[&lt;contract&gt; IDataRowHolder |
	IDataStrategy DataStrategy]
	
	[IDataStrategy]
	
	[&lt;contract&gt; ITestDataRows |
	IDataStrategy GetDataStrategy(ArgsCode?)
	IDataStrategy GetDataStrategy(ArgsCode?, PropsCode?)
	IEnumerable&lt;ITestDataRow&gt;? GetTestDataRows()]
	
	[&lt;contract&gt; ITestDataRow |
	object?array GetParams(IDataStrategy)]
	
	[&lt;contract&gt; ITestDataRow&lt;TRow&gt; |
	TRow Convert(IDataStrategy)]
	[&lt;abstract&gt; DataRowHolder&lt;TRow&gt;]
	
	[&lt;contract&gt; IRows&lt;TRow&gt; |
	IEnumerable&lt;TRow&gt;? GetRows(ArgsCode?)
	IEnumerable&lt;TRow&gt;? GetRows(ArgsCode?, PropsCode?)]
	
	[&lt;contract&gt;IEquatable&lt;IDataStrategy&gt; |
	bool Equals(IDataStrategy?)]
	
	
	
	[IDataStrategy] &lt;-o returns
	[ITestDataRows]
	
	[IDataRowHolder&lt;TRow&gt;] -:&gt; extends
	[IRows&lt;TRow&gt;]
	
	[DataRowHolder&lt;TRow&gt;] implements --:&gt;
	[IDataRowHolder&lt;TRow&gt;]
	
	[DataRowHolder&lt;TRow&gt;]  o-&gt; uses
	(flyweight pattern)
	[DataStrategy] implements --:&gt;
	[IDataStrategy]
	
	[IEquatable&lt;IDataStrategy&gt;] extends &lt;:- 
	[IDataStrategy]
	
	[IDataStrategy] &lt;-o uses
	[ITestDataRow]
	
	[IDataStrategy] &lt;-o uses
	[ITestDataRow&lt;TRow&gt;]
	
	[ITestDataRow&lt;TRow&gt;] extends -:&gt;
	[ITestDataRow]
	
	[IDataStrategy] &lt;:-- implements
	[DynamicDataSource] &lt;:- extends
	[DynamicDataRowSource&lt;TDataRowHolder&gt;] has
	(generic constraint) +-&gt;
	[IDataRowHolder&lt;TRow&gt;] extends -:&gt;
	[IDataRowHolder]
	
	[IDataStrategy]  &lt;-+ has
	[IDataRowHolder]
	
	[ITestDataRow] &lt;-o returns
	[ITestDataRows]
	
	[ITestDataRows] &lt;:- extends
	[IDataRowHolder]
	
	[IDataRowHolder&lt;TRow&gt;] uses o-&gt;
	[IDataStrategy]
	
	
	
	
	
	
	
	
	
	
	
	</desc>
	<g stroke-width="1.0" text-align="left" font="12pt Helvetica, Arial, sans-serif" font-size="12pt" font-family="Helvetica" font-weight="normal" font-style="normal">
		<g font-family="Helvetica" font-size="12pt" font-weight="bold" font-style="normal" stroke-width="3.0" stroke-linejoin="round" stroke-linecap="round" stroke="#33322E">
			<g stroke="transparent" fill="transparent">
				<rect x="0.0" y="0.0" height="826.0" width="1133.0" stroke="none"></rect>
			</g>
			<g transform="translate(8, 8)" fill="#33322E">
				<g transform="translate(20, 20)" fill="#33322E" font-family="Helvetica" font-size="12pt" font-weight="normal" font-style="normal">
					<text x="728.6" y="545.0" stroke="none">returns</text>
					<path d="M653.2 307.9 L689 325 L689 377 L689 377 L689 429 L689 429 L689 481 L689 481 L689 533 L689 533 L704.8320422622536 543.0184285908949 L704.8 543.0 " fill="none"></path>
					<g fill="#eee8d5">
						<path d="M709.9 552.5 L704.8 543.0 L715.6 543.5 L720.6 553.0 Z"></path>
					</g>
					<path d="M661.5 305.9 L653.2 307.9 L656.9 315.6 L647.2 305.0 Z"></path>
					<text x="152.1" y="682.0" stroke="none">extends</text>
					<path d="M252.7 633.5 L215.5 670 L215.5 676.6666666666666 L215.5 676.7 " fill="none"></path>
					<path d="M210.2 676.7 L215.5 676.7 L220.8 676.7 L215.5 690.0 Z"></path>
					<text x="6.1" y="52.0" stroke="none">implements</text>
					<g stroke-dasharray="6 6">
						<path d="M95.0 32.0 L69.75 52 L69.75 128.5 L69.75 128.5 L69.75 205 L69.75 205 L69.75 265 L69.75 265 L69.75 325 L69.75 325 L69.75 377 L69.75 377 L69.75 429 L69.75 429 L69.75 481 L69.75 481 L69.75 533 L69.75 533 L171.8716290223927 565.4609354433128 L171.9 565.5 " fill="none"></path>
					</g>
					<path d="M170.3 570.5 L171.9 565.5 L173.5 560.4 L184.6 569.5 Z"></path>
					<text x="384.3" y="64.0" stroke="none">uses
					(flyweight pattern)</text>
					<path d="M231.7 32.1 L376.25 52 L376.25 65.33333333333333 L376.3 65.3 " fill="none"></path>
					<path d="M370.9 58.7 L376.3 65.3 L381.6 58.7 L376.3 72.0 Z"></path>
					<g fill="#eee8d5">
						<path d="M223.2 25.5 L231.7 32.1 L221.8 36.1 L213.3 29.5 Z"></path>
					</g>
					<text x="287.3" y="205.0" stroke="none">implements</text>
					<g stroke-dasharray="6 6">
						<path d="M376.3 185.0 L376.25 205 L461.30258701088076 232.253165397345 L461.3 232.3 " fill="none"></path>
					</g>
					<path d="M459.7 237.3 L461.3 232.3 L462.9 227.2 L474.0 236.3 Z"></path>
					<text x="802.3" y="180.5" stroke="none">extends</text>
					<path d="M794.3 173.8 L794.25 205 L653 241.72806067172263 L653.0 241.7 " fill="none"></path>
					<path d="M799.6 173.8 L794.3 173.8 L788.9 173.8 L794.3 160.5 Z"></path>
					<text x="843.6" y="441.0" stroke="none">uses</text>
					<path d="M659.5 289.1 L802.75 325 L802.75 377 L802.75 377 L802.75 429 L802.75 429 L819.6859747457388 439.30024195062475 L819.7 439.3 " fill="none"></path>
					<g fill="#eee8d5">
						<path d="M824.9 448.7 L819.7 439.3 L830.4 439.6 L835.6 449.0 Z"></path>
					</g>
					<path d="M667.2 285.5 L659.5 289.1 L664.6 295.9 L653.0 287.4 Z"></path>
					<text x="972.5" y="337.0" stroke="none">uses</text>
					<path d="M659.6 279.4 L964.5 325 L964.5 326.3333333333333 L964.5 326.3 " fill="none"></path>
					<g fill="#eee8d5">
						<path d="M959.2 335.7 L964.5 326.3 L969.8 335.7 L964.5 345.0 Z"></path>
					</g>
					<path d="M667.0 275.1 L659.6 279.4 L665.4 285.6 L653.0 278.4 Z"></path>
					<text x="972.5" y="429.0" stroke="none">extends</text>
					<path d="M964.5 409.0 L964.5 429 L946.188677331284 441.48772168882925 L946.2 441.5 " fill="none"></path>
					<path d="M943.2 437.1 L946.2 441.5 L949.2 445.9 L935.2 449.0 Z"></path>
					<text x="196.3" y="353.0" stroke="none">implements</text>
					<g stroke-dasharray="6 6">
						<path d="M461.0 287.1 L285.25 325 L285.25 361 L285.3 361.0 " fill="none"></path>
					</g>
					<path d="M462.1 292.3 L461.0 287.1 L459.8 281.9 L474.0 284.3 Z"></path>
					<text x="221.8" y="441.0" stroke="none">extends</text>
					<path d="M285.3 406.3 L285.25 429 L285.25 449 L285.3 449.0 " fill="none"></path>
					<path d="M290.6 406.3 L285.3 406.3 L279.9 406.3 L285.3 393.0 Z"></path>
					<text x="293.3" y="533.0" stroke="none">has
					(generic constraint)</text>
					<path d="M285.3 531.7 L285.25 533 L285.25 562.8333333333334 L285.3 562.8 " fill="none"></path>
					<path d="M279.9 556.2 L285.3 562.8 L290.6 556.2 L285.3 569.5 Z"></path>
					<g fill="#33322E">
						<path d="M290.6 522.3 L285.3 531.7 L279.9 522.3 L285.3 513.0 Z"></path>
					</g>
					<text x="272.2" y="653.5" stroke="none">extends</text>
					<path d="M335.6 633.5 L393 670 L523.5391090233874 701.518497148504 L523.5 701.5 " fill="none"></path>
					<path d="M522.3 706.7 L523.5 701.5 L524.8 696.3 L536.5 704.6 Z"></path>
					<text x="598.7" y="690.0" stroke="none">has</text>
					<path d="M550.2 311.4 L546.25 325 L546.25 377 L546.25 377 L546.25 429 L546.25 429 L546.25 481 L546.25 481 L546.25 533 L546.25 533 L546.25 601.5 L546.25 601.5 L546.25 670 L546.25 670 L574.9057308069548 688.050854051625 L574.9 688.1 " fill="none"></path>
					<g fill="#33322E">
						<path d="M580.0 697.5 L574.9 688.1 L585.6 688.5 L590.7 698.0 Z"></path>
					</g>
					<path d="M553.4 319.3 L550.2 311.4 L543.2 316.3 L552.0 305.0 Z"></path>
					<text x="804.4" y="545.0" stroke="none">returns</text>
					<path d="M888.3 519.7 L888.25 533 L876.5943009021977 541.7737954747193 L876.6 541.8 " fill="none"></path>
					<g fill="#eee8d5">
						<path d="M865.9 543.1 L876.6 541.8 L872.3 551.6 L861.7 553.0 Z"></path>
					</g>
					<path d="M893.6 526.3 L888.3 519.7 L882.9 526.3 L888.3 513.0 Z"></path>
					<text x="661.2" y="690.0" stroke="none">extends</text>
					<path d="M797.3 663.3 L797.25 670 L724.5666666666666 698 L724.6 698.0 " fill="none"></path>
					<path d="M802.6 663.3 L797.3 663.3 L791.9 663.3 L797.3 650.0 Z"></path>
					<text x="344.5" y="561.5" stroke="none">uses</text>
					<path d="M403.7 563.8 L500.75 533 L500.75 481 L500.75 481 L500.75 429 L500.75 429 L500.75 377 L500.75 377 L500.75 325 L500.75 325 L516.8482205364677 309.60727916831775 L516.8 309.6 " fill="none"></path>
					<path d="M515.7 318.1 L516.8 309.6 L508.3 310.4 L521.7 305.0 Z"></path>
					<g fill="#eee8d5">
						<path d="M393.2 561.6 L403.7 563.8 L396.4 571.8 L385.9 569.5 Z"></path>
					</g>
					<g data-name="DataStrategy">
						<g fill="#C9DEEF" stroke="#33322E" data-name="DataStrategy">
							<rect x="109.8" y="72.0" height="113.0" width="533.0" data-name="DataStrategy"></rect>
							<path d="M109.8 104.0 L642.8 104.0" fill="none" data-name="DataStrategy"></path>
						</g>
						<g transform="translate(109.75, 72)" font-family="Helvetica" font-size="12pt" font-weight="bold" font-style="normal" data-name="DataStrategy" data-compartment="0">
							<g transform="translate(8, 8)" fill="#33322E" text-align="center" data-name="DataStrategy" data-compartment="0">
								<text x="258.5" y="14.1" stroke="none" text-anchor="middle" data-name="DataStrategy" data-compartment="0">DataStrategy</text>
								
							</g>
						</g>
						<g transform="translate(109.75, 104)" font-family="Helvetica" font-size="12pt" font-weight="normal" font-style="normal" data-name="DataStrategy" data-compartment="1">
							<g transform="translate(8, 8)" fill="#33322E" text-align="left" data-name="DataStrategy" data-compartment="1">
								<text x="0.0" y="14.1" stroke="none" data-name="DataStrategy" data-compartment="1">+ static IDataStrategy GetStoredDataStrategy(ArgsCode, PropsCode)</text>
								<text x="0.0" y="30.3" stroke="none" data-name="DataStrategy" data-compartment="1">+ static IDataStrategy GetStoredDataStrategy(IDataStrategy)</text>
								<text x="0.0" y="46.5" stroke="none" data-name="DataStrategy" data-compartment="1">+ static IDataStrategy GetStoredDataStrategy(ArgsCode?, IDataStrategy)</text>
								<text x="0.0" y="62.7" stroke="none" data-name="DataStrategy" data-compartment="1">- static readonly HashSet&lt;DataStrategy&gt; DataStrategies</text>
								
							</g>
						</g>
					</g>
					<g data-name="IDataStrategy">
						<g fill="#DCE8CF" stroke="#33322E" data-name="IDataStrategy">
							<rect x="474.0" y="225.0" height="80.0" width="179.0" data-name="IDataStrategy"></rect>
							<path d="M474.0 257.0 L653.0 257.0" fill="none" data-name="IDataStrategy"></path>
						</g>
						<g transform="translate(474, 225)" font-family="Helvetica" font-size="12pt" font-weight="bold" font-style="italic" data-name="IDataStrategy" data-compartment="0">
							<g transform="translate(8, 8)" fill="#33322E" text-align="center" data-name="IDataStrategy" data-compartment="0">
								<text x="81.5" y="14.1" stroke="none" text-anchor="middle" data-name="IDataStrategy" data-compartment="0">IDataStrategy</text>
								
							</g>
						</g>
						<g transform="translate(474, 257)" font-family="Helvetica" font-size="12pt" font-weight="normal" font-style="italic" data-name="IDataStrategy" data-compartment="1">
							<g transform="translate(8, 8)" fill="#33322E" text-align="left" data-name="IDataStrategy" data-compartment="1">
								<text x="0.0" y="14.1" stroke="none" data-name="IDataStrategy" data-compartment="1">ArgsCode ArgsCode</text>
								<text x="0.0" y="30.3" stroke="none" data-name="IDataStrategy" data-compartment="1">PropsCode PropsCode</text>
								
							</g>
						</g>
					</g>
					<g data-name="DynamicDataSource">
						<g fill="#C9DEEF" stroke="#33322E" data-name="DynamicDataSource">
							<rect x="200.3" y="361.0" height="32.0" width="170.0" data-name="DynamicDataSource"></rect>
						</g>
						<g transform="translate(200.25, 361)" font-family="Helvetica" font-size="12pt" font-weight="bold" font-style="italic" data-name="DynamicDataSource" data-compartment="0">
							<g transform="translate(8, 8)" fill="#33322E" text-align="center" data-name="DynamicDataSource" data-compartment="0">
								<text x="77.0" y="14.1" stroke="none" text-anchor="middle" data-name="DynamicDataSource" data-compartment="0">DynamicDataSource</text>
								
							</g>
						</g>
					</g>
					<g data-name="DynamicDataRowSource&lt;TDataRowHolder&gt;">
						<g fill="#C9DEEF" stroke="#33322E" data-name="DynamicDataRowSource&lt;TDataRowHolder&gt;">
							<rect x="109.8" y="449.0" height="64.0" width="351.0" data-name="DynamicDataRowSource&lt;TDataRowHolder&gt;"></rect>
							<path d="M109.8 481.0 L460.8 481.0" fill="none" data-name="DynamicDataRowSource&lt;TDataRowHolder&gt;"></path>
						</g>
						<g transform="translate(109.75, 449)" font-family="Helvetica" font-size="12pt" font-weight="bold" font-style="italic" data-name="DynamicDataRowSource&lt;TDataRowHolder&gt;" data-compartment="0">
							<g transform="translate(8, 8)" fill="#33322E" text-align="center" data-name="DynamicDataRowSource&lt;TDataRowHolder&gt;" data-compartment="0">
								<text x="167.5" y="14.1" stroke="none" text-anchor="middle" data-name="DynamicDataRowSource&lt;TDataRowHolder&gt;" data-compartment="0">DynamicDataRowSource&lt;TDataRowHolder&gt;</text>
								
							</g>
						</g>
						<g transform="translate(109.75, 481)" font-family="Helvetica" font-size="12pt" font-weight="normal" font-style="normal" data-name="DynamicDataRowSource&lt;TDataRowHolder&gt;" data-compartment="1">
							<g transform="translate(8, 8)" fill="#33322E" text-align="left" data-name="DynamicDataRowSource&lt;TDataRowHolder&gt;" data-compartment="1">
								<text x="0.0" y="14.1" stroke="none" data-name="DynamicDataRowSource&lt;TDataRowHolder&gt;" data-compartment="1"># TDataRowHolder DataHolder</text>
								
							</g>
						</g>
					</g>
					<g data-name="IDataRowHolder&lt;TRow&gt;">
						<g fill="#DCE8CF" stroke="#33322E" data-name="IDataRowHolder&lt;TRow&gt;">
							<rect x="64.3" y="569.5" height="64.0" width="442.0" data-name="IDataRowHolder&lt;TRow&gt;"></rect>
							<path d="M64.3 601.5 L506.3 601.5" fill="none" data-name="IDataRowHolder&lt;TRow&gt;"></path>
						</g>
						<g transform="translate(64.25, 569.5)" font-family="Helvetica" font-size="12pt" font-weight="bold" font-style="italic" data-name="IDataRowHolder&lt;TRow&gt;" data-compartment="0">
							<g transform="translate(8, 8)" fill="#33322E" text-align="center" data-name="IDataRowHolder&lt;TRow&gt;" data-compartment="0">
								<text x="213.0" y="14.1" stroke="none" text-anchor="middle" data-name="IDataRowHolder&lt;TRow&gt;" data-compartment="0">IDataRowHolder&lt;TRow&gt;</text>
								
							</g>
						</g>
						<g transform="translate(64.25, 601.5)" font-family="Helvetica" font-size="12pt" font-weight="normal" font-style="italic" data-name="IDataRowHolder&lt;TRow&gt;" data-compartment="1">
							<g transform="translate(8, 8)" fill="#33322E" text-align="left" data-name="IDataRowHolder&lt;TRow&gt;" data-compartment="1">
								<text x="0.0" y="14.1" stroke="none" data-name="IDataRowHolder&lt;TRow&gt;" data-compartment="1">IDataRowHolder&lt;TRow&gt; GetDataRowHolder(IDataStrategy)</text>
								
							</g>
						</g>
					</g>
					<g data-name="IDataRowHolder">
						<g fill="#DCE8CF" stroke="#33322E" data-name="IDataRowHolder">
							<rect x="536.5" y="698.0" height="64.0" width="210.0" data-name="IDataRowHolder"></rect>
							<path d="M536.5 730.0 L746.5 730.0" fill="none" data-name="IDataRowHolder"></path>
						</g>
						<g transform="translate(536.5, 698)" font-family="Helvetica" font-size="12pt" font-weight="bold" font-style="italic" data-name="IDataRowHolder" data-compartment="0">
							<g transform="translate(8, 8)" fill="#33322E" text-align="center" data-name="IDataRowHolder" data-compartment="0">
								<text x="97.0" y="14.1" stroke="none" text-anchor="middle" data-name="IDataRowHolder" data-compartment="0">IDataRowHolder</text>
								
							</g>
						</g>
						<g transform="translate(536.5, 730)" font-family="Helvetica" font-size="12pt" font-weight="normal" font-style="italic" data-name="IDataRowHolder" data-compartment="1">
							<g transform="translate(8, 8)" fill="#33322E" text-align="left" data-name="IDataRowHolder" data-compartment="1">
								<text x="0.0" y="14.1" stroke="none" data-name="IDataRowHolder" data-compartment="1">IDataStrategy DataStrategy</text>
								
							</g>
						</g>
					</g>
					<g data-name="ITestDataRows">
						<g fill="#DCE8CF" stroke="#33322E" data-name="ITestDataRows">
							<rect x="586.3" y="553.0" height="97.0" width="422.0" data-name="ITestDataRows"></rect>
							<path d="M586.3 585.0 L1008.3 585.0" fill="none" data-name="ITestDataRows"></path>
						</g>
						<g transform="translate(586.25, 553)" font-family="Helvetica" font-size="12pt" font-weight="bold" font-style="italic" data-name="ITestDataRows" data-compartment="0">
							<g transform="translate(8, 8)" fill="#33322E" text-align="center" data-name="ITestDataRows" data-compartment="0">
								<text x="203.0" y="14.1" stroke="none" text-anchor="middle" data-name="ITestDataRows" data-compartment="0">ITestDataRows</text>
								
							</g>
						</g>
						<g transform="translate(586.25, 585)" font-family="Helvetica" font-size="12pt" font-weight="normal" font-style="italic" data-name="ITestDataRows" data-compartment="1">
							<g transform="translate(8, 8)" fill="#33322E" text-align="left" data-name="ITestDataRows" data-compartment="1">
								<text x="0.0" y="14.1" stroke="none" data-name="ITestDataRows" data-compartment="1">IDataStrategy GetDataStrategy(ArgsCode?)</text>
								<text x="0.0" y="30.3" stroke="none" data-name="ITestDataRows" data-compartment="1">IDataStrategy GetDataStrategy(ArgsCode?, PropsCode?)</text>
								<text x="0.0" y="46.5" stroke="none" data-name="ITestDataRows" data-compartment="1">IEnumerable&lt;ITestDataRow&gt;? GetTestDataRows()</text>
								
							</g>
						</g>
					</g>
					<g data-name="ITestDataRow">
						<g fill="#DCE8CF" stroke="#33322E" data-name="ITestDataRow">
							<rect x="740.8" y="449.0" height="64.0" width="295.0" data-name="ITestDataRow"></rect>
							<path d="M740.8 481.0 L1035.8 481.0" fill="none" data-name="ITestDataRow"></path>
						</g>
						<g transform="translate(740.75, 449)" font-family="Helvetica" font-size="12pt" font-weight="bold" font-style="italic" data-name="ITestDataRow" data-compartment="0">
							<g transform="translate(8, 8)" fill="#33322E" text-align="center" data-name="ITestDataRow" data-compartment="0">
								<text x="139.5" y="14.1" stroke="none" text-anchor="middle" data-name="ITestDataRow" data-compartment="0">ITestDataRow</text>
								
							</g>
						</g>
						<g transform="translate(740.75, 481)" font-family="Helvetica" font-size="12pt" font-weight="normal" font-style="italic" data-name="ITestDataRow" data-compartment="1">
							<g transform="translate(8, 8)" fill="#33322E" text-align="left" data-name="ITestDataRow" data-compartment="1">
								<text x="0.0" y="14.1" stroke="none" data-name="ITestDataRow" data-compartment="1">object?array GetParams(IDataStrategy)</text>
								
							</g>
						</g>
					</g>
					<g data-name="ITestDataRow&lt;TRow&gt;">
						<g fill="#DCE8CF" stroke="#33322E" data-name="ITestDataRow&lt;TRow&gt;">
							<rect x="852.0" y="345.0" height="64.0" width="225.0" data-name="ITestDataRow&lt;TRow&gt;"></rect>
							<path d="M852.0 377.0 L1077.0 377.0" fill="none" data-name="ITestDataRow&lt;TRow&gt;"></path>
						</g>
						<g transform="translate(852, 345)" font-family="Helvetica" font-size="12pt" font-weight="bold" font-style="italic" data-name="ITestDataRow&lt;TRow&gt;" data-compartment="0">
							<g transform="translate(8, 8)" fill="#33322E" text-align="center" data-name="ITestDataRow&lt;TRow&gt;" data-compartment="0">
								<text x="104.5" y="14.1" stroke="none" text-anchor="middle" data-name="ITestDataRow&lt;TRow&gt;" data-compartment="0">ITestDataRow&lt;TRow&gt;</text>
								
							</g>
						</g>
						<g transform="translate(852, 377)" font-family="Helvetica" font-size="12pt" font-weight="normal" font-style="italic" data-name="ITestDataRow&lt;TRow&gt;" data-compartment="1">
							<g transform="translate(8, 8)" fill="#33322E" text-align="left" data-name="ITestDataRow&lt;TRow&gt;" data-compartment="1">
								<text x="0.0" y="14.1" stroke="none" data-name="ITestDataRow&lt;TRow&gt;" data-compartment="1">TRow Convert(IDataStrategy)</text>
								
							</g>
						</g>
					</g>
					<g data-name="DataRowHolder&lt;TRow&gt;">
						<g fill="#C9DEEF" stroke="#33322E" data-name="DataRowHolder&lt;TRow&gt;">
							<rect x="17.3" y="0.0" height="32.0" width="196.0" data-name="DataRowHolder&lt;TRow&gt;"></rect>
						</g>
						<g transform="translate(17.25, 0)" font-family="Helvetica" font-size="12pt" font-weight="bold" font-style="italic" data-name="DataRowHolder&lt;TRow&gt;" data-compartment="0">
							<g transform="translate(8, 8)" fill="#33322E" text-align="center" data-name="DataRowHolder&lt;TRow&gt;" data-compartment="0">
								<text x="90.0" y="14.1" stroke="none" text-anchor="middle" data-name="DataRowHolder&lt;TRow&gt;" data-compartment="0">DataRowHolder&lt;TRow&gt;</text>
								
							</g>
						</g>
					</g>
					<g data-name="IRows&lt;TRow&gt;">
						<g fill="#DCE8CF" stroke="#33322E" data-name="IRows&lt;TRow&gt;">
							<rect x="0.0" y="690.0" height="80.0" width="431.0" data-name="IRows&lt;TRow&gt;"></rect>
							<path d="M0.0 722.0 L431.0 722.0" fill="none" data-name="IRows&lt;TRow&gt;"></path>
						</g>
						<g transform="translate(0, 690)" font-family="Helvetica" font-size="12pt" font-weight="bold" font-style="italic" data-name="IRows&lt;TRow&gt;" data-compartment="0">
							<g transform="translate(8, 8)" fill="#33322E" text-align="center" data-name="IRows&lt;TRow&gt;" data-compartment="0">
								<text x="207.5" y="14.1" stroke="none" text-anchor="middle" data-name="IRows&lt;TRow&gt;" data-compartment="0">IRows&lt;TRow&gt;</text>
								
							</g>
						</g>
						<g transform="translate(0, 722)" font-family="Helvetica" font-size="12pt" font-weight="normal" font-style="italic" data-name="IRows&lt;TRow&gt;" data-compartment="1">
							<g transform="translate(8, 8)" fill="#33322E" text-align="left" data-name="IRows&lt;TRow&gt;" data-compartment="1">
								<text x="0.0" y="14.1" stroke="none" data-name="IRows&lt;TRow&gt;" data-compartment="1">IEnumerable&lt;TRow&gt;? GetRows(ArgsCode?)</text>
								<text x="0.0" y="30.3" stroke="none" data-name="IRows&lt;TRow&gt;" data-compartment="1">IEnumerable&lt;TRow&gt;? GetRows(ArgsCode?, PropsCode?)</text>
								
							</g>
						</g>
					</g>
					<g data-name="IEquatable&lt;IDataStrategy&gt;">
						<g fill="#DCE8CF" stroke="#33322E" data-name="IEquatable&lt;IDataStrategy&gt;">
							<rect x="685.8" y="96.5" height="64.0" width="217.0" data-name="IEquatable&lt;IDataStrategy&gt;"></rect>
							<path d="M685.8 128.5 L902.8 128.5" fill="none" data-name="IEquatable&lt;IDataStrategy&gt;"></path>
						</g>
						<g transform="translate(685.75, 96.5)" font-family="Helvetica" font-size="12pt" font-weight="bold" font-style="italic" data-name="IEquatable&lt;IDataStrategy&gt;" data-compartment="0">
							<g transform="translate(8, 8)" fill="#33322E" text-align="center" data-name="IEquatable&lt;IDataStrategy&gt;" data-compartment="0">
								<text x="100.5" y="14.1" stroke="none" text-anchor="middle" data-name="IEquatable&lt;IDataStrategy&gt;" data-compartment="0">IEquatable&lt;IDataStrategy&gt;</text>
								
							</g>
						</g>
						<g transform="translate(685.75, 128.5)" font-family="Helvetica" font-size="12pt" font-weight="normal" font-style="italic" data-name="IEquatable&lt;IDataStrategy&gt;" data-compartment="1">
							<g transform="translate(8, 8)" fill="#33322E" text-align="left" data-name="IEquatable&lt;IDataStrategy&gt;" data-compartment="1">
								<text x="0.0" y="14.1" stroke="none" data-name="IEquatable&lt;IDataStrategy&gt;" data-compartment="1">bool Equals(IDataStrategy?)</text>
								
							</g>
						</g>
					</g>
				</g>
			</g>
		</g>
	</g>
</svg>