<svg version="1.1" baseProfile="full" width="2482.7" height="1024.0" viewBox="0 0 2482.6875 1024" xmlns="http://www.w3.org/2000/svg" xmlns:xlink="http://www.w3.org/1999/xlink" xmlns:ev="http://www.w3.org/2001/xml-events">
	<title >CsabaDu_DynamicTestData_ExtensionPoints_simplified</title>
	<desc >#title: CsabaDu_DynamicTestData_ExtensionPoints_simplified
	#direction: down
	#.contract: fill=#DCE8CF title=center,italic,bold body=left,italic visual=class
	#.concrete: fill=#C9DEEF title=center,bold body=left visual=class
	#.abstract: fill=#C9DEEF title=center,bold,italic body=left visual=class
	
	
	
	[&lt;contract&gt;
	ITestDataRows]
	
	[&lt;abstract&gt;
	DynamicNamedDataRowSource&lt;TRow&gt;]
	
	[&lt;abstract&gt;
	DynamicDataSource]
	
	[&lt;contract&gt;
	ITestDataRow&lt;TRow, TTestData&gt;]
	
	[&lt;contract&gt;
	INamedTestDataRow&lt;TRow&gt;]
	
	[&lt;abstract&gt;
	TestDataRow&lt;TRow, TTestData&gt;]
	
	[&lt;contract&gt;
	ITestDataRow&lt;TRow&gt;]
	
	[&lt;abstract&gt;
	DynamicDataRowSource&lt;TRow&gt;]
	
	[&lt;abstract&gt;
	DynamicDataRowSource&lt;TDataRowHolder, TRow&gt;]
	
	[&lt;contract&gt;
	IDataRowHolder]
	
	[&lt;contract&gt;
	INamedDataRowHolder&lt;TRow&gt;]
	
	[&lt;contract&gt;
	IDataRowHolder&lt;TRow, TTestData&gt;]
	
	[&lt;contract&gt;
	IReadonlyCollection&lt;ITestDataRow&gt;]
	
	[&lt;abstract&gt;
	NamedDataRowHolder&lt;TRow, TTestData&gt;]
	
	[&lt;abstract&gt;
	DataRowHolder&lt;TRow, TTestData&gt;]
	
	[&lt;contract&gt;
	IDataRowHolder&lt;TRow&gt;]
	
	[&lt;contract&gt;
	ITestDataRow]
	
	[&lt;contract&gt;
	IRows&lt;TRow&gt;]
	
	[&lt;abstract&gt;
	DynamicExpectedObjectArrayRowSource]
	
	[&lt;abstract&gt;
	DynamicDataSource&lt;TDataHolder&gt;]
	
	[&lt;contract&gt;
	INamedRows&lt;TRow&gt;]
	
	[&lt;abstract&gt;
	DynamicDataSource |
	[&lt;concrete&gt;DataStrategyMemento]]
	
	[&lt;abstract&gt;
	DynamicObjectArrayRowSource]
	
	[&lt;abstract&gt;
	DynamicObjectArraySource]
	
	[&lt;abstract&gt;
	DynamicExpectedObjectArraySource]
	
	[&lt;concrete&gt;
	ObjectArrayRowHolder&lt;TTestData&gt;]
	
	[&lt;concrete&gt;
	ObjectArrayRow&lt;TTestData&gt;]
	
	
	
	[ITestDataRows] &lt;:--
	[DynamicDataRowSource&lt;TDataRowHolder, TRow&gt;]
	
	[DynamicDataRowSource&lt;TRow&gt;] &lt;:-
	[DynamicObjectArrayRowSource]
	
	[DynamicDataRowSource&lt;TRow&gt;]-&gt;
	[&lt;usecase&gt; 7]
	
	[ITestDataRow] &lt;-o
	[IReadonlyCollection&lt;ITestDataRow&gt;]
	
	[ITestDataRows] &lt;:-
	[IDataRowHolder]
	
	[ITestDataRow] &lt;:-
	[ITestDataRow&lt;TRow&gt;]
	
	
	
	[INamedRows&lt;TRow&gt;] &lt;:--
	[DynamicNamedDataRowSource&lt;TRow&gt;] -:&gt;
	[DynamicDataRowSource&lt;TDataRowHolder, TRow&gt;]
	
	[DynamicDataSource&lt;TDataHolder&gt;] -&gt;
	[&lt;usecase&gt; 4]
	
	[DynamicDataRowSource&lt;TDataRowHolder, TRow&gt;] -:&gt;
	[DynamicDataSource&lt;TDataHolder&gt;] -:&gt;
	[DynamicDataSource]
	
	[DynamicDataSource] -&gt;
	[&lt;usecase&gt; 3]
	
	[DynamicObjectArraySource] -&gt;
	[&lt;usecase&gt; 2]
	
	[DynamicObjectArraySource] &lt;:-
	[DynamicExpectedObjectArraySource]
	
	[DynamicExpectedObjectArraySource] -&gt;
	[&lt;usecase&gt; 1]
	
	
	[ITestDataRows] o-&gt;
	[ITestDataRow]
	
	[DynamicDataRowSource&lt;TDataRowHolder, TRow&gt;] &lt;:-
	[DynamicDataRowSource&lt;TRow&gt;]
	
	[DynamicNamedDataRowSource&lt;TRow&gt;] -&gt;
	[&lt;usecase&gt; 11]
	
	[IDataRowHolder&lt;TRow&gt;] -:&gt;
	[IRows&lt;TRow&gt;]
	
	[IDataRowHolder] &lt;:-
	[IDataRowHolder&lt;TRow&gt;]
	
	[IDataRowHolder&lt;TRow&gt;] &lt;-+
	[DynamicDataRowSource&lt;TDataRowHolder, TRow&gt;]
	
	[IDataRowHolder&lt;TRow&gt;] -&gt;
	[&lt;usecase&gt; 16]
	
	[IDataRowHolder&lt;TRow&gt;] &lt;:-
	[INamedDataRowHolder&lt;TRow&gt;] 
	
	[DynamicDataSource] &lt;:-
	[DynamicObjectArraySource]
	
	[INamedDataRowHolder&lt;TRow&gt;] -:&gt;
	[INamedRows&lt;TRow&gt;]
	
	[IDataRowHolder&lt;TRow&gt;] &lt;:-
	[IDataRowHolder&lt;TRow, TTestData&gt;]
	
	[INamedDataRowHolder&lt;TRow&gt;] -&gt;
	[&lt;usecase&gt; 15]
	
	[INamedDataRowHolder&lt;TRow&gt;] &lt;:--
	[NamedDataRowHolder&lt;TRow, TTestData&gt;]
	
	[NamedDataRowHolder&lt;TRow, TTestData&gt;] -&gt;
	[&lt;usecase&gt; 10]
	
	[DataRowHolder&lt;TRow, TTestData&gt;] &lt;:-
	[NamedDataRowHolder&lt;TRow, TTestData&gt;]
	
	[DataRowHolder&lt;TRow, TTestData&gt;] -&gt;
	[&lt;usecase&gt; 14]
	
	[DataRowHolder&lt;TRow, TTestData&gt;] &lt;:-
	[ObjectArrayRowHolder&lt;TTestData&gt;] -&gt;
	[&lt;usecase&gt; 9]
	
	[IReadonlyCollection&lt;ITestDataRow&gt;] &lt;:-
	[IDataRowHolder&lt;TRow, TTestData&gt;]
	
	[IDataRowHolder&lt;TRow, TTestData&gt;] &lt;:--
	[DataRowHolder&lt;TRow, TTestData&gt;]
	
	[ITestDataRow&lt;TRow, TTestData&gt;] &lt;-+
	[DataRowHolder&lt;TRow, TTestData&gt;]
	
	[ITestDataRow&lt;TRow&gt;] &lt;:-
	[ITestDataRow&lt;TRow, TTestData&gt;]&lt;:--
	[TestDataRow&lt;TRow, TTestData&gt;] &lt;:-
	[ObjectArrayRow&lt;TTestData&gt;] -&gt;
	[&lt;usecase&gt; 8]
	
	[TestDataRow&lt;TRow, TTestData&gt;] -&gt;
	[&lt;usecase&gt; 13]
	
	[IRows&lt;TRow&gt;] &lt;:--
	[DynamicDataRowSource&lt;TDataRowHolder, TRow&gt;]
	
	[ITestDataRow&lt;TRow&gt;] &lt;:-
	[INamedTestDataRow&lt;TRow&gt;]
	
	[INamedTestDataRow&lt;TRow&gt;] -&gt;
	[&lt;usecase&gt; 12]
	
	[DynamicObjectArrayRowSource] &lt;:-
	[DynamicExpectedObjectArrayRowSource] -&gt;
	[&lt;usecase&gt; 5]
	
	[DynamicObjectArrayRowSource] -&gt;
	[&lt;usecase&gt; 6]
	
	</desc>
	<g stroke-width="1.0" text-align="left" font="12pt Helvetica, Arial, sans-serif" font-size="12pt" font-family="Helvetica" font-weight="bold" font-style="normal">
		<g font-family="Helvetica" font-size="12pt" font-weight="bold" font-style="normal" stroke-width="3.0" stroke-linejoin="round" stroke-linecap="round" stroke="#33322E">
			<g stroke="transparent" fill="transparent">
				<rect x="0.0" y="0.0" height="1024.0" width="2482.7" stroke="none"></rect>
			</g>
			<g transform="translate(8, 8)" fill="#33322E">
				<g transform="translate(20, 20)" fill="#33322E" font-family="Helvetica" font-size="12pt" font-weight="normal" font-style="normal">
					<g stroke-dasharray="6 6">
						<path d="M700.2 23.4 L401.875 52 L401.875 88 L401.875 88 L401.875 124 L401.875 124 L401.875 160 L401.875 160 L401.875 196 L401.875 196 L401.875 236 L401.875 236 L401.875 276 L401.875 276 L401.875 316 L401.875 316 L401.875 356 L401.875 356 L401.875 396 L401.875 396 L401.875 436 L401.875 436 L463.375 460 L463.4 460.0 " fill="none"></path>
					</g>
					<path d="M700.7 28.8 L700.2 23.4 L699.7 18.1 L713.4 22.2 Z"></path>
					<path d="M827.2 572.8 L788.0625 588 L788.0625 652 L788.1 652.0 " fill="none"></path>
					<path d="M829.1 577.8 L827.2 572.8 L825.3 567.8 L839.6 568.0 Z"></path>
					<path d="M922.1 568.0 L973.6875 588 L973.6875 641.3333333333334 L973.7 641.3 " fill="none"></path>
					<path d="M968.4 634.7 L973.7 641.3 L979.0 634.7 L973.7 648.0 Z"></path>
					<path d="M1959.3 92.3 L1467.5625 124 L1467.5625 125.33333333333334 L1467.6 125.3 " fill="none"></path>
					<g fill="#eee8d5">
						<path d="M1462.2 134.7 L1467.6 125.3 L1472.9 134.7 L1467.6 144.0 Z"></path>
					</g>
					<path d="M1953.0 98.0 L1959.3 92.3 L1952.3 87.4 L1965.9 91.9 Z"></path>
					<path d="M812.7 39.5 L831.1875 52 L831.1875 72 L831.2 72.0 " fill="none"></path>
					<path d="M815.6 35.0 L812.7 39.5 L809.7 43.9 L801.6 32.0 Z"></path>
					<path d="M2098.8 107.0 L2164.1875 124 L2164.1875 144 L2164.2 144.0 " fill="none"></path>
					<path d="M2100.2 101.8 L2098.8 107.0 L2097.5 112.1 L2085.9 103.6 Z"></path>
					<g stroke-dasharray="6 6">
						<path d="M837.4 345.3 L837.4375 356 L837.4375 380 L837.4 380.0 " fill="none"></path>
					</g>
					<path d="M842.8 345.3 L837.4 345.3 L832.1 345.3 L837.4 332.0 Z"></path>
					<path d="M793.1 412.0 L726.625 436 L606.3974957883134 457.6382459773564 L606.4 457.6 " fill="none"></path>
					<path d="M605.5 452.4 L606.4 457.6 L607.3 462.9 L593.3 460.0 Z"></path>
					<path d="M102.5 568.0 L53.6875 588 L53.6875 641.3333333333334 L53.7 641.3 " fill="none"></path>
					<path d="M48.4 634.7 L53.7 641.3 L59.0 634.7 L53.7 648.0 Z"></path>
					<path d="M359.2 492.0 L141.5 516 L141.5 522.6666666666666 L141.5 522.7 " fill="none"></path>
					<path d="M136.2 522.7 L141.5 522.7 L146.8 522.7 L141.5 536.0 Z"></path>
					<path d="M180.5 568.0 L229.3125 588 L229.3125 594.6666666666666 L229.3 594.7 " fill="none"></path>
					<path d="M224.0 594.7 L229.3 594.7 L234.6 594.7 L229.3 608.0 Z"></path>
					<path d="M165.9 728.0 L144.75 748 L144.75 761.3333333333334 L144.8 761.3 " fill="none"></path>
					<path d="M139.4 754.7 L144.8 761.3 L150.1 754.7 L144.8 768.0 Z"></path>
					<path d="M273.1 804.0 L211.8125 828 L211.8125 841.3333333333334 L211.8 841.3 " fill="none"></path>
					<path d="M206.5 834.7 L211.8 841.3 L217.1 834.7 L211.8 848.0 Z"></path>
					<path d="M367.1 808.9 L415.9375 828 L415.9375 852 L415.9 852.0 " fill="none"></path>
					<path d="M369.1 803.9 L367.1 808.9 L365.2 813.8 L354.7 804.0 Z"></path>
					<path d="M415.9 884.0 L415.9375 908 L415.9375 921.3333333333334 L415.9 921.3 " fill="none"></path>
					<path d="M410.6 914.7 L415.9 921.3 L421.3 914.7 L415.9 928.0 Z"></path>
					<path d="M861.1 18.4 L2025.9375 52 L2025.9375 65.33333333333333 L2025.9 65.3 " fill="none"></path>
					<path d="M2020.6 58.7 L2025.9 65.3 L2031.3 58.7 L2025.9 72.0 Z"></path>
					<g fill="#eee8d5">
						<path d="M851.9 12.8 L861.1 18.4 L851.6 23.5 L842.4 17.9 Z"></path>
					</g>
					<path d="M668.2 493.4 L880.875 516 L880.875 536 L880.9 536.0 " fill="none"></path>
					<path d="M668.8 488.1 L668.2 493.4 L667.7 498.7 L655.0 492.0 Z"></path>
					<path d="M894.3 412.0 L979.5 436 L979.5 449.3333333333333 L979.5 449.3 " fill="none"></path>
					<path d="M974.2 442.7 L979.5 449.3 L984.8 442.7 L979.5 456.0 Z"></path>
					<path d="M730.7 171.1 L504.375 196 L504.375 236 L504.375 236 L504.375 276 L504.375 276 L504.375 316 L504.375 316 L504.375 356 L504.375 356 L504.375 366.6666666666667 L504.4 366.7 " fill="none"></path>
					<path d="M499.0 366.7 L504.4 366.7 L509.7 366.7 L504.4 380.0 Z"></path>
					<path d="M831.2 117.3 L831.1875 124 L831.1875 144 L831.2 144.0 " fill="none"></path>
					<path d="M836.5 117.3 L831.2 117.3 L825.9 117.3 L831.2 104.0 Z"></path>
					<path d="M724.9 177.1 L606.875 196 L606.875 236 L606.875 236 L606.875 276 L606.875 276 L606.875 316 L606.875 316 L606.875 356 L606.875 356 L606.875 396 L606.875 396 L606.875 436 L606.875 436 L562.7644488970544 453.2138736011495 L562.8 453.2 " fill="none"></path>
					<g fill="#33322E">
						<path d="M552.1 451.6 L562.8 453.2 L556.0 461.6 L545.4 460.0 Z"></path>
					</g>
					<path d="M719.2 183.4 L724.9 177.1 L717.5 172.8 L731.5 176.0 Z"></path>
					<path d="M767.2 176.0 L687.125 196 L687.125 209.33333333333334 L687.1 209.3 " fill="none"></path>
					<path d="M681.8 202.7 L687.1 209.3 L692.5 202.7 L687.1 216.0 Z"></path>
					<path d="M913.5 179.0 L987.1875 196 L987.1875 220 L987.2 220.0 " fill="none"></path>
					<path d="M914.7 173.8 L913.5 179.0 L912.3 184.2 L900.5 176.0 Z"></path>
					<path d="M302.4 737.2 L313.875 748 L313.875 772 L313.9 772.0 " fill="none"></path>
					<path d="M306.1 733.3 L302.4 737.2 L298.8 741.0 L292.7 728.0 Z"></path>
					<path d="M927.3 252.0 L837.4375 276 L837.4375 286.6666666666667 L837.4 286.7 " fill="none"></path>
					<path d="M832.1 286.7 L837.4 286.7 L842.8 286.7 L837.4 300.0 Z"></path>
					<path d="M945.0 169.6 L1260.0625 196 L1345.8625 220 L1345.9 220.0 " fill="none"></path>
					<path d="M945.4 164.2 L945.0 169.6 L944.5 174.9 L931.7 168.4 Z"></path>
					<path d="M1014.3 252.0 L1054.9375 276 L1054.9375 289.3333333333333 L1054.9 289.3 " fill="none"></path>
					<path d="M1049.6 282.7 L1054.9 289.3 L1060.3 282.7 L1054.9 296.0 Z"></path>
					<g stroke-dasharray="6 6">
						<path d="M1055.6 255.7 L1126.1875 276 L1126.1875 316 L1126.1875 316 L1126.1875 356 L1126.1875 356 L1172.5375 380 L1172.5 380.0 " fill="none"></path>
					</g>
					<path d="M1057.1 250.6 L1055.6 255.7 L1054.1 260.8 L1042.8 252.0 Z"></path>
					<path d="M1203.4 412.0 L1203.4375 436 L1203.4375 449.3333333333333 L1203.4 449.3 " fill="none"></path>
					<path d="M1198.1 442.7 L1203.4 449.3 L1208.8 442.7 L1203.4 456.0 Z"></path>
					<path d="M1425.6 334.2 L1297.3125 356 L1240.9875 380 L1241.0 380.0 " fill="none"></path>
					<path d="M1426.5 339.5 L1425.6 334.2 L1424.7 329.0 L1438.8 332.0 Z"></path>
					<path d="M1492.3 332.0 L1431.1875 356 L1431.1875 369.3333333333333 L1431.2 369.3 " fill="none"></path>
					<path d="M1425.9 362.7 L1431.2 369.3 L1436.5 362.7 L1431.2 376.0 Z"></path>
					<path d="M1586.2 336.9 L1634.9375 356 L1634.9375 380 L1634.9 380.0 " fill="none"></path>
					<path d="M1588.2 331.9 L1586.2 336.9 L1584.3 341.8 L1573.8 332.0 Z"></path>
					<path d="M1634.9 412.0 L1634.9375 436 L1634.9375 449.3333333333333 L1634.9 449.3 " fill="none"></path>
					<path d="M1629.6 442.7 L1634.9 449.3 L1640.3 442.7 L1634.9 456.0 Z"></path>
					<path d="M1467.6 189.3 L1467.5625 196 L1428.8625 220 L1428.9 220.0 " fill="none"></path>
					<path d="M1472.9 189.3 L1467.6 189.3 L1462.2 189.3 L1467.6 176.0 Z"></path>
					<g stroke-dasharray="6 6">
						<path d="M1403.1 265.3 L1403.0625 276 L1481.0625 300 L1481.1 300.0 " fill="none"></path>
					</g>
					<path d="M1408.4 265.3 L1403.1 265.3 L1397.7 265.3 L1403.1 252.0 Z"></path>
					<path d="M1899.2 252.9 L1735.8125 276 L1632.476164028088 296.38694667756585 L1632.5 296.4 " fill="none"></path>
					<g fill="#33322E">
						<path d="M1622.3 293.0 L1632.5 296.4 L1624.4 303.4 L1614.2 300.0 Z"></path>
					</g>
					<path d="M1893.4 259.1 L1899.2 252.9 L1891.9 248.6 L1905.8 252.0 Z"></path>
					<path d="M2086.8 179.2 L2019.1875 196 L2019.1875 220 L2019.2 220.0 " fill="none"></path>
					<path d="M2088.1 184.4 L2086.8 179.2 L2085.5 174.0 L2099.7 176.0 Z"></path>
					<g stroke-dasharray="6 6">
						<path d="M2022.9 265.2 L2024.3125 276 L2024.3125 300 L2024.3 300.0 " fill="none"></path>
					</g>
					<path d="M2028.2 264.5 L2022.9 265.2 L2017.6 265.9 L2021.2 252.0 Z"></path>
					<path d="M1976.4 337.4 L1934.9375 356 L1934.9375 380 L1934.9 380.0 " fill="none"></path>
					<path d="M1978.6 342.3 L1976.4 337.4 L1974.2 332.6 L1988.6 332.0 Z"></path>
					<path d="M1934.9 412.0 L1934.9375 436 L1934.9375 449.3333333333333 L1934.9 449.3 " fill="none"></path>
					<path d="M1929.6 442.7 L1934.9 449.3 L1940.3 442.7 L1934.9 456.0 Z"></path>
					<path d="M2060.1 332.0 L2113.6875 356 L2113.6875 369.3333333333333 L2113.7 369.3 " fill="none"></path>
					<path d="M2108.4 362.7 L2113.7 369.3 L2119.0 362.7 L2113.7 376.0 Z"></path>
					<g stroke-dasharray="6 6">
						<path d="M504.4 425.3 L504.375 436 L504.375 460 L504.4 460.0 " fill="none"></path>
					</g>
					<path d="M509.7 425.3 L504.4 425.3 L499.0 425.3 L504.4 412.0 Z"></path>
					<path d="M2241.6 179.2 L2309.1875 196 L2309.1875 220 L2309.2 220.0 " fill="none"></path>
					<path d="M2242.9 174.0 L2241.6 179.2 L2240.3 184.4 L2228.6 176.0 Z"></path>
					<path d="M2309.2 252.0 L2309.1875 276 L2309.1875 289.3333333333333 L2309.2 289.3 " fill="none"></path>
					<path d="M2303.9 282.7 L2309.2 289.3 L2314.5 282.7 L2309.2 296.0 Z"></path>
					<path d="M755.1 691.8 L677.5 748 L677.5 772 L677.5 772.0 " fill="none"></path>
					<path d="M758.3 696.1 L755.1 691.8 L752.0 687.5 L766.0 684.0 Z"></path>
					<path d="M677.5 804.0 L677.5 828 L677.5 841.3333333333334 L677.5 841.3 " fill="none"></path>
					<path d="M672.2 834.7 L677.5 841.3 L682.8 834.7 L677.5 848.0 Z"></path>
					<path d="M810.2 684.0 L898.625 748 L898.625 761.3333333333334 L898.6 761.3 " fill="none"></path>
					<path d="M893.3 754.7 L898.6 761.3 L904.0 754.7 L898.6 768.0 Z"></path>
					<g data-name="ITestDataRows">
						<g fill="#DCE8CF" stroke="#33322E" data-name="ITestDataRows">
							<rect x="713.4" y="0.0" height="32.0" width="129.0" data-name="ITestDataRows"></rect>
						</g>
						<g transform="translate(713.4375, 0)" font-family="Helvetica" font-size="12pt" font-weight="bold" font-style="italic" data-name="ITestDataRows" data-compartment="0">
							<g transform="translate(8, 8)" fill="#33322E" text-align="center" data-name="ITestDataRows" data-compartment="0">
								<text x="56.5" y="14.1" stroke="none" text-anchor="middle" data-name="ITestDataRows" data-compartment="0">ITestDataRows</text>
								
							</g>
						</g>
					</g>
					<g data-name="DynamicNamedDataRowSource&lt;TRow&gt;">
						<g fill="#C9DEEF" stroke="#33322E" data-name="DynamicNamedDataRowSource&lt;TRow&gt;">
							<rect x="677.9" y="380.0" height="32.0" width="319.0" data-name="DynamicNamedDataRowSource&lt;TRow&gt;"></rect>
						</g>
						<g transform="translate(677.9375, 380)" font-family="Helvetica" font-size="12pt" font-weight="bold" font-style="italic" data-name="DynamicNamedDataRowSource&lt;TRow&gt;" data-compartment="0">
							<g transform="translate(8, 8)" fill="#33322E" text-align="center" data-name="DynamicNamedDataRowSource&lt;TRow&gt;" data-compartment="0">
								<text x="151.5" y="14.1" stroke="none" text-anchor="middle" data-name="DynamicNamedDataRowSource&lt;TRow&gt;" data-compartment="0">DynamicNamedDataRowSource&lt;TRow&gt;</text>
								
							</g>
						</g>
					</g>
					<g data-name="DynamicDataSource">
						<g fill="#C9DEEF" stroke="#33322E" data-name="DynamicDataSource">
							<rect x="109.3" y="608.0" height="120.0" width="240.0" data-name="DynamicDataSource"></rect>
							<path d="M109.3 640.0 L349.3 640.0" fill="none" data-name="DynamicDataSource"></path>
						</g>
						<g transform="translate(109.3125, 608)" font-family="Helvetica" font-size="12pt" font-weight="bold" font-style="italic" data-name="DynamicDataSource" data-compartment="0">
							<g transform="translate(8, 8)" fill="#33322E" text-align="center" data-name="DynamicDataSource" data-compartment="0">
								<text x="112.0" y="14.1" stroke="none" text-anchor="middle" data-name="DynamicDataSource" data-compartment="0">DynamicDataSource</text>
								
							</g>
						</g>
						<g transform="translate(109.3125, 640)" font-family="Helvetica" font-size="12pt" font-weight="normal" font-style="normal" data-name="DynamicDataSource" data-compartment="1">
							<g transform="translate(8, 8)" fill="#33322E" data-name="DynamicDataSource" data-compartment="1">
								<g transform="translate(20, 20)" data-name="DynamicDataSource" data-compartment="1">
									<g data-name="DataStrategyMemento">
										<g fill="#C9DEEF" stroke="#33322E" data-name="DataStrategyMemento">
											<rect x="0.0" y="0.0" height="32.0" width="184.0" data-name="DataStrategyMemento"></rect>
										</g>
										<g transform="translate(0, 0)" font-family="Helvetica" font-size="12pt" font-weight="bold" font-style="normal" data-name="DataStrategyMemento" data-compartment="0">
											<g transform="translate(8, 8)" fill="#33322E" text-align="center" data-name="DataStrategyMemento" data-compartment="0">
												<text x="84.0" y="14.1" stroke="none" text-anchor="middle" data-name="DataStrategyMemento" data-compartment="0">DataStrategyMemento</text>
												
											</g>
										</g>
									</g>
								</g>
							</g>
						</g>
					</g>
					<g data-name="ITestDataRow&lt;TRow, TTestData&gt;">
						<g fill="#DCE8CF" stroke="#33322E" data-name="ITestDataRow&lt;TRow, TTestData&gt;">
							<rect x="1886.7" y="220.0" height="32.0" width="265.0" data-name="ITestDataRow&lt;TRow, TTestData&gt;"></rect>
						</g>
						<g transform="translate(1886.6875, 220)" font-family="Helvetica" font-size="12pt" font-weight="bold" font-style="italic" data-name="ITestDataRow&lt;TRow, TTestData&gt;" data-compartment="0">
							<g transform="translate(8, 8)" fill="#33322E" text-align="center" data-name="ITestDataRow&lt;TRow, TTestData&gt;" data-compartment="0">
								<text x="124.5" y="14.1" stroke="none" text-anchor="middle" data-name="ITestDataRow&lt;TRow, TTestData&gt;" data-compartment="0">ITestDataRow&lt;TRow, TTestData&gt;</text>
								
							</g>
						</g>
					</g>
					<g data-name="INamedTestDataRow&lt;TRow&gt;">
						<g fill="#DCE8CF" stroke="#33322E" data-name="INamedTestDataRow&lt;TRow&gt;">
							<rect x="2191.7" y="220.0" height="32.0" width="235.0" data-name="INamedTestDataRow&lt;TRow&gt;"></rect>
						</g>
						<g transform="translate(2191.6875, 220)" font-family="Helvetica" font-size="12pt" font-weight="bold" font-style="italic" data-name="INamedTestDataRow&lt;TRow&gt;" data-compartment="0">
							<g transform="translate(8, 8)" fill="#33322E" text-align="center" data-name="INamedTestDataRow&lt;TRow&gt;" data-compartment="0">
								<text x="109.5" y="14.1" stroke="none" text-anchor="middle" data-name="INamedTestDataRow&lt;TRow&gt;" data-compartment="0">INamedTestDataRow&lt;TRow&gt;</text>
								
							</g>
						</g>
					</g>
					<g data-name="TestDataRow&lt;TRow, TTestData&gt;">
						<g fill="#C9DEEF" stroke="#33322E" data-name="TestDataRow&lt;TRow, TTestData&gt;">
							<rect x="1893.8" y="300.0" height="32.0" width="261.0" data-name="TestDataRow&lt;TRow, TTestData&gt;"></rect>
						</g>
						<g transform="translate(1893.8125, 300)" font-family="Helvetica" font-size="12pt" font-weight="bold" font-style="italic" data-name="TestDataRow&lt;TRow, TTestData&gt;" data-compartment="0">
							<g transform="translate(8, 8)" fill="#33322E" text-align="center" data-name="TestDataRow&lt;TRow, TTestData&gt;" data-compartment="0">
								<text x="122.5" y="14.1" stroke="none" text-anchor="middle" data-name="TestDataRow&lt;TRow, TTestData&gt;" data-compartment="0">TestDataRow&lt;TRow, TTestData&gt;</text>
								
							</g>
						</g>
					</g>
					<g data-name="ITestDataRow&lt;TRow&gt;">
						<g fill="#DCE8CF" stroke="#33322E" data-name="ITestDataRow&lt;TRow&gt;">
							<rect x="2073.2" y="144.0" height="32.0" width="182.0" data-name="ITestDataRow&lt;TRow&gt;"></rect>
						</g>
						<g transform="translate(2073.1875, 144)" font-family="Helvetica" font-size="12pt" font-weight="bold" font-style="italic" data-name="ITestDataRow&lt;TRow&gt;" data-compartment="0">
							<g transform="translate(8, 8)" fill="#33322E" text-align="center" data-name="ITestDataRow&lt;TRow&gt;" data-compartment="0">
								<text x="83.0" y="14.1" stroke="none" text-anchor="middle" data-name="ITestDataRow&lt;TRow&gt;" data-compartment="0">ITestDataRow&lt;TRow&gt;</text>
								
							</g>
						</g>
					</g>
					<g data-name="DynamicDataRowSource&lt;TRow&gt;">
						<g fill="#C9DEEF" stroke="#33322E" data-name="DynamicDataRowSource&lt;TRow&gt;">
							<rect x="747.9" y="536.0" height="32.0" width="266.0" data-name="DynamicDataRowSource&lt;TRow&gt;"></rect>
						</g>
						<g transform="translate(747.875, 536)" font-family="Helvetica" font-size="12pt" font-weight="bold" font-style="italic" data-name="DynamicDataRowSource&lt;TRow&gt;" data-compartment="0">
							<g transform="translate(8, 8)" fill="#33322E" text-align="center" data-name="DynamicDataRowSource&lt;TRow&gt;" data-compartment="0">
								<text x="125.0" y="14.1" stroke="none" text-anchor="middle" data-name="DynamicDataRowSource&lt;TRow&gt;" data-compartment="0">DynamicDataRowSource&lt;TRow&gt;</text>
								
							</g>
						</g>
					</g>
					<g data-name="DynamicDataRowSource&lt;TDataRowHolder, TRow&gt;">
						<g fill="#C9DEEF" stroke="#33322E" data-name="DynamicDataRowSource&lt;TDataRowHolder, TRow&gt;">
							<rect x="303.4" y="460.0" height="32.0" width="402.0" data-name="DynamicDataRowSource&lt;TDataRowHolder, TRow&gt;"></rect>
						</g>
						<g transform="translate(303.375, 460)" font-family="Helvetica" font-size="12pt" font-weight="bold" font-style="italic" data-name="DynamicDataRowSource&lt;TDataRowHolder, TRow&gt;" data-compartment="0">
							<g transform="translate(8, 8)" fill="#33322E" text-align="center" data-name="DynamicDataRowSource&lt;TDataRowHolder, TRow&gt;" data-compartment="0">
								<text x="193.0" y="14.1" stroke="none" text-anchor="middle" data-name="DynamicDataRowSource&lt;TDataRowHolder, TRow&gt;" data-compartment="0">DynamicDataRowSource&lt;TDataRowHolder, TRow&gt;</text>
								
							</g>
						</g>
					</g>
					<g data-name="IDataRowHolder">
						<g fill="#DCE8CF" stroke="#33322E" data-name="IDataRowHolder">
							<rect x="761.7" y="72.0" height="32.0" width="139.0" data-name="IDataRowHolder"></rect>
						</g>
						<g transform="translate(761.6875, 72)" font-family="Helvetica" font-size="12pt" font-weight="bold" font-style="italic" data-name="IDataRowHolder" data-compartment="0">
							<g transform="translate(8, 8)" fill="#33322E" text-align="center" data-name="IDataRowHolder" data-compartment="0">
								<text x="61.5" y="14.1" stroke="none" text-anchor="middle" data-name="IDataRowHolder" data-compartment="0">IDataRowHolder</text>
								
							</g>
						</g>
					</g>
					<g data-name="INamedDataRowHolder&lt;TRow&gt;">
						<g fill="#DCE8CF" stroke="#33322E" data-name="INamedDataRowHolder&lt;TRow&gt;">
							<rect x="860.2" y="220.0" height="32.0" width="254.0" data-name="INamedDataRowHolder&lt;TRow&gt;"></rect>
						</g>
						<g transform="translate(860.1875, 220)" font-family="Helvetica" font-size="12pt" font-weight="bold" font-style="italic" data-name="INamedDataRowHolder&lt;TRow&gt;" data-compartment="0">
							<g transform="translate(8, 8)" fill="#33322E" text-align="center" data-name="INamedDataRowHolder&lt;TRow&gt;" data-compartment="0">
								<text x="119.0" y="14.1" stroke="none" text-anchor="middle" data-name="INamedDataRowHolder&lt;TRow&gt;" data-compartment="0">INamedDataRowHolder&lt;TRow&gt;</text>
								
							</g>
						</g>
					</g>
					<g data-name="IDataRowHolder&lt;TRow, TTestData&gt;">
						<g fill="#DCE8CF" stroke="#33322E" data-name="IDataRowHolder&lt;TRow, TTestData&gt;">
							<rect x="1261.1" y="220.0" height="32.0" width="284.0" data-name="IDataRowHolder&lt;TRow, TTestData&gt;"></rect>
						</g>
						<g transform="translate(1261.0625, 220)" font-family="Helvetica" font-size="12pt" font-weight="bold" font-style="italic" data-name="IDataRowHolder&lt;TRow, TTestData&gt;" data-compartment="0">
							<g transform="translate(8, 8)" fill="#33322E" text-align="center" data-name="IDataRowHolder&lt;TRow, TTestData&gt;" data-compartment="0">
								<text x="134.0" y="14.1" stroke="none" text-anchor="middle" data-name="IDataRowHolder&lt;TRow, TTestData&gt;" data-compartment="0">IDataRowHolder&lt;TRow, TTestData&gt;</text>
								
							</g>
						</g>
					</g>
					<g data-name="IReadonlyCollection&lt;ITestDataRow&gt;">
						<g fill="#DCE8CF" stroke="#33322E" data-name="IReadonlyCollection&lt;ITestDataRow&gt;">
							<rect x="1322.1" y="144.0" height="32.0" width="291.0" data-name="IReadonlyCollection&lt;ITestDataRow&gt;"></rect>
						</g>
						<g transform="translate(1322.0625, 144)" font-family="Helvetica" font-size="12pt" font-weight="bold" font-style="italic" data-name="IReadonlyCollection&lt;ITestDataRow&gt;" data-compartment="0">
							<g transform="translate(8, 8)" fill="#33322E" text-align="center" data-name="IReadonlyCollection&lt;ITestDataRow&gt;" data-compartment="0">
								<text x="137.5" y="14.1" stroke="none" text-anchor="middle" data-name="IReadonlyCollection&lt;ITestDataRow&gt;" data-compartment="0">IReadonlyCollection&lt;ITestDataRow&gt;</text>
								
							</g>
						</g>
					</g>
					<g data-name="NamedDataRowHolder&lt;TRow, TTestData&gt;">
						<g fill="#C9DEEF" stroke="#33322E" data-name="NamedDataRowHolder&lt;TRow, TTestData&gt;">
							<rect x="1036.9" y="380.0" height="32.0" width="333.0" data-name="NamedDataRowHolder&lt;TRow, TTestData&gt;"></rect>
						</g>
						<g transform="translate(1036.9375, 380)" font-family="Helvetica" font-size="12pt" font-weight="bold" font-style="italic" data-name="NamedDataRowHolder&lt;TRow, TTestData&gt;" data-compartment="0">
							<g transform="translate(8, 8)" fill="#33322E" text-align="center" data-name="NamedDataRowHolder&lt;TRow, TTestData&gt;" data-compartment="0">
								<text x="158.5" y="14.1" stroke="none" text-anchor="middle" data-name="NamedDataRowHolder&lt;TRow, TTestData&gt;" data-compartment="0">NamedDataRowHolder&lt;TRow, TTestData&gt;</text>
								
							</g>
						</g>
					</g>
					<g data-name="DataRowHolder&lt;TRow, TTestData&gt;">
						<g fill="#C9DEEF" stroke="#33322E" data-name="DataRowHolder&lt;TRow, TTestData&gt;">
							<rect x="1393.1" y="300.0" height="32.0" width="280.0" data-name="DataRowHolder&lt;TRow, TTestData&gt;"></rect>
						</g>
						<g transform="translate(1393.0625, 300)" font-family="Helvetica" font-size="12pt" font-weight="bold" font-style="italic" data-name="DataRowHolder&lt;TRow, TTestData&gt;" data-compartment="0">
							<g transform="translate(8, 8)" fill="#33322E" text-align="center" data-name="DataRowHolder&lt;TRow, TTestData&gt;" data-compartment="0">
								<text x="132.0" y="14.1" stroke="none" text-anchor="middle" data-name="DataRowHolder&lt;TRow, TTestData&gt;" data-compartment="0">DataRowHolder&lt;TRow, TTestData&gt;</text>
								
							</g>
						</g>
					</g>
					<g data-name="IDataRowHolder&lt;TRow&gt;">
						<g fill="#DCE8CF" stroke="#33322E" data-name="IDataRowHolder&lt;TRow&gt;">
							<rect x="730.7" y="144.0" height="32.0" width="201.0" data-name="IDataRowHolder&lt;TRow&gt;"></rect>
						</g>
						<g transform="translate(730.6875, 144)" font-family="Helvetica" font-size="12pt" font-weight="bold" font-style="italic" data-name="IDataRowHolder&lt;TRow&gt;" data-compartment="0">
							<g transform="translate(8, 8)" fill="#33322E" text-align="center" data-name="IDataRowHolder&lt;TRow&gt;" data-compartment="0">
								<text x="92.5" y="14.1" stroke="none" text-anchor="middle" data-name="IDataRowHolder&lt;TRow&gt;" data-compartment="0">IDataRowHolder&lt;TRow&gt;</text>
								
							</g>
						</g>
					</g>
					<g data-name="ITestDataRow">
						<g fill="#DCE8CF" stroke="#33322E" data-name="ITestDataRow">
							<rect x="1965.9" y="72.0" height="32.0" width="120.0" data-name="ITestDataRow"></rect>
						</g>
						<g transform="translate(1965.9375, 72)" font-family="Helvetica" font-size="12pt" font-weight="bold" font-style="italic" data-name="ITestDataRow" data-compartment="0">
							<g transform="translate(8, 8)" fill="#33322E" text-align="center" data-name="ITestDataRow" data-compartment="0">
								<text x="52.0" y="14.1" stroke="none" text-anchor="middle" data-name="ITestDataRow" data-compartment="0">ITestDataRow</text>
								
							</g>
						</g>
					</g>
					<g data-name="IRows&lt;TRow&gt;">
						<g fill="#DCE8CF" stroke="#33322E" data-name="IRows&lt;TRow&gt;">
							<rect x="441.9" y="380.0" height="32.0" width="125.0" data-name="IRows&lt;TRow&gt;"></rect>
						</g>
						<g transform="translate(441.875, 380)" font-family="Helvetica" font-size="12pt" font-weight="bold" font-style="italic" data-name="IRows&lt;TRow&gt;" data-compartment="0">
							<g transform="translate(8, 8)" fill="#33322E" text-align="center" data-name="IRows&lt;TRow&gt;" data-compartment="0">
								<text x="54.5" y="14.1" stroke="none" text-anchor="middle" data-name="IRows&lt;TRow&gt;" data-compartment="0">IRows&lt;TRow&gt;</text>
								
							</g>
						</g>
					</g>
					<g data-name="DynamicExpectedObjectArrayRowSource">
						<g fill="#C9DEEF" stroke="#33322E" data-name="DynamicExpectedObjectArrayRowSource">
							<rect x="512.0" y="772.0" height="32.0" width="331.0" data-name="DynamicExpectedObjectArrayRowSource"></rect>
						</g>
						<g transform="translate(512, 772)" font-family="Helvetica" font-size="12pt" font-weight="bold" font-style="italic" data-name="DynamicExpectedObjectArrayRowSource" data-compartment="0">
							<g transform="translate(8, 8)" fill="#33322E" text-align="center" data-name="DynamicExpectedObjectArrayRowSource" data-compartment="0">
								<text x="157.5" y="14.1" stroke="none" text-anchor="middle" data-name="DynamicExpectedObjectArrayRowSource" data-compartment="0">DynamicExpectedObjectArrayRowSource</text>
								
							</g>
						</g>
					</g>
					<g data-name="DynamicDataSource&lt;TDataHolder&gt;">
						<g fill="#C9DEEF" stroke="#33322E" data-name="DynamicDataSource&lt;TDataHolder&gt;">
							<rect x="0.0" y="536.0" height="32.0" width="283.0" data-name="DynamicDataSource&lt;TDataHolder&gt;"></rect>
						</g>
						<g transform="translate(0, 536)" font-family="Helvetica" font-size="12pt" font-weight="bold" font-style="italic" data-name="DynamicDataSource&lt;TDataHolder&gt;" data-compartment="0">
							<g transform="translate(8, 8)" fill="#33322E" text-align="center" data-name="DynamicDataSource&lt;TDataHolder&gt;" data-compartment="0">
								<text x="133.5" y="14.1" stroke="none" text-anchor="middle" data-name="DynamicDataSource&lt;TDataHolder&gt;" data-compartment="0">DynamicDataSource&lt;TDataHolder&gt;</text>
								
							</g>
						</g>
					</g>
					<g data-name="INamedRows&lt;TRow&gt;">
						<g fill="#DCE8CF" stroke="#33322E" data-name="INamedRows&lt;TRow&gt;">
							<rect x="748.4" y="300.0" height="32.0" width="178.0" data-name="INamedRows&lt;TRow&gt;"></rect>
						</g>
						<g transform="translate(748.4375, 300)" font-family="Helvetica" font-size="12pt" font-weight="bold" font-style="italic" data-name="INamedRows&lt;TRow&gt;" data-compartment="0">
							<g transform="translate(8, 8)" fill="#33322E" text-align="center" data-name="INamedRows&lt;TRow&gt;" data-compartment="0">
								<text x="81.0" y="14.1" stroke="none" text-anchor="middle" data-name="INamedRows&lt;TRow&gt;" data-compartment="0">INamedRows&lt;TRow&gt;</text>
								
							</g>
						</g>
					</g>
					<g data-name="DynamicObjectArrayRowSource">
						<g fill="#C9DEEF" stroke="#33322E" data-name="DynamicObjectArrayRowSource">
							<rect x="658.1" y="652.0" height="32.0" width="260.0" data-name="DynamicObjectArrayRowSource"></rect>
						</g>
						<g transform="translate(658.0625, 652)" font-family="Helvetica" font-size="12pt" font-weight="bold" font-style="italic" data-name="DynamicObjectArrayRowSource" data-compartment="0">
							<g transform="translate(8, 8)" fill="#33322E" text-align="center" data-name="DynamicObjectArrayRowSource" data-compartment="0">
								<text x="122.0" y="14.1" stroke="none" text-anchor="middle" data-name="DynamicObjectArrayRowSource" data-compartment="0">DynamicObjectArrayRowSource</text>
								
							</g>
						</g>
					</g>
					<g data-name="DynamicObjectArraySource">
						<g fill="#C9DEEF" stroke="#33322E" data-name="DynamicObjectArraySource">
							<rect x="200.4" y="772.0" height="32.0" width="227.0" data-name="DynamicObjectArraySource"></rect>
						</g>
						<g transform="translate(200.375, 772)" font-family="Helvetica" font-size="12pt" font-weight="bold" font-style="italic" data-name="DynamicObjectArraySource" data-compartment="0">
							<g transform="translate(8, 8)" fill="#33322E" text-align="center" data-name="DynamicObjectArraySource" data-compartment="0">
								<text x="105.5" y="14.1" stroke="none" text-anchor="middle" data-name="DynamicObjectArraySource" data-compartment="0">DynamicObjectArraySource</text>
								
							</g>
						</g>
					</g>
					<g data-name="DynamicExpectedObjectArraySource">
						<g fill="#C9DEEF" stroke="#33322E" data-name="DynamicExpectedObjectArraySource">
							<rect x="267.4" y="852.0" height="32.0" width="297.0" data-name="DynamicExpectedObjectArraySource"></rect>
						</g>
						<g transform="translate(267.4375, 852)" font-family="Helvetica" font-size="12pt" font-weight="bold" font-style="italic" data-name="DynamicExpectedObjectArraySource" data-compartment="0">
							<g transform="translate(8, 8)" fill="#33322E" text-align="center" data-name="DynamicExpectedObjectArraySource" data-compartment="0">
								<text x="140.5" y="14.1" stroke="none" text-anchor="middle" data-name="DynamicExpectedObjectArraySource" data-compartment="0">DynamicExpectedObjectArraySource</text>
								
							</g>
						</g>
					</g>
					<g data-name="ObjectArrayRowHolder&lt;TTestData&gt;">
						<g fill="#C9DEEF" stroke="#33322E" data-name="ObjectArrayRowHolder&lt;TTestData&gt;">
							<rect x="1492.4" y="380.0" height="32.0" width="285.0" data-name="ObjectArrayRowHolder&lt;TTestData&gt;"></rect>
						</g>
						<g transform="translate(1492.4375, 380)" font-family="Helvetica" font-size="12pt" font-weight="bold" font-style="normal" data-name="ObjectArrayRowHolder&lt;TTestData&gt;" data-compartment="0">
							<g transform="translate(8, 8)" fill="#33322E" text-align="center" data-name="ObjectArrayRowHolder&lt;TTestData&gt;" data-compartment="0">
								<text x="134.5" y="14.1" stroke="none" text-anchor="middle" data-name="ObjectArrayRowHolder&lt;TTestData&gt;" data-compartment="0">ObjectArrayRowHolder&lt;TTestData&gt;</text>
								
							</g>
						</g>
					</g>
					<g data-name="ObjectArrayRow&lt;TTestData&gt;">
						<g fill="#C9DEEF" stroke="#33322E" data-name="ObjectArrayRow&lt;TTestData&gt;">
							<rect x="1817.4" y="380.0" height="32.0" width="235.0" data-name="ObjectArrayRow&lt;TTestData&gt;"></rect>
						</g>
						<g transform="translate(1817.4375, 380)" font-family="Helvetica" font-size="12pt" font-weight="bold" font-style="normal" data-name="ObjectArrayRow&lt;TTestData&gt;" data-compartment="0">
							<g transform="translate(8, 8)" fill="#33322E" text-align="center" data-name="ObjectArrayRow&lt;TTestData&gt;" data-compartment="0">
								<text x="109.5" y="14.1" stroke="none" text-anchor="middle" data-name="ObjectArrayRow&lt;TTestData&gt;" data-compartment="0">ObjectArrayRow&lt;TTestData&gt;</text>
								
							</g>
						</g>
					</g>
					<g data-name="7">
						<g fill="#eee8d5" stroke="#33322E" data-name="7">
							<ellipse cx="973.7" cy="668.0" rx="15.6" ry="20.0" data-name="7"></ellipse>
						</g>
						<g transform="translate(961.1875, 652)" font-family="Helvetica" font-size="12pt" font-weight="normal" font-style="normal" data-name="7" data-compartment="0">
							<g transform="translate(8, 8)" fill="#33322E" text-align="center" data-name="7" data-compartment="0">
								<text x="4.5" y="14.1" stroke="none" text-anchor="middle" data-name="7" data-compartment="0">7</text>
								
							</g>
						</g>
					</g>
					<g data-name="4">
						<g fill="#eee8d5" stroke="#33322E" data-name="4">
							<ellipse cx="53.7" cy="668.0" rx="15.6" ry="20.0" data-name="4"></ellipse>
						</g>
						<g transform="translate(41.1875, 652)" font-family="Helvetica" font-size="12pt" font-weight="normal" font-style="normal" data-name="4" data-compartment="0">
							<g transform="translate(8, 8)" fill="#33322E" text-align="center" data-name="4" data-compartment="0">
								<text x="4.5" y="14.1" stroke="none" text-anchor="middle" data-name="4" data-compartment="0">4</text>
								
							</g>
						</g>
					</g>
					<g data-name="3">
						<g fill="#eee8d5" stroke="#33322E" data-name="3">
							<ellipse cx="144.8" cy="788.0" rx="15.6" ry="20.0" data-name="3"></ellipse>
						</g>
						<g transform="translate(132.25, 772)" font-family="Helvetica" font-size="12pt" font-weight="normal" font-style="normal" data-name="3" data-compartment="0">
							<g transform="translate(8, 8)" fill="#33322E" text-align="center" data-name="3" data-compartment="0">
								<text x="4.5" y="14.1" stroke="none" text-anchor="middle" data-name="3" data-compartment="0">3</text>
								
							</g>
						</g>
					</g>
					<g data-name="2">
						<g fill="#eee8d5" stroke="#33322E" data-name="2">
							<ellipse cx="211.8" cy="868.0" rx="15.6" ry="20.0" data-name="2"></ellipse>
						</g>
						<g transform="translate(199.3125, 852)" font-family="Helvetica" font-size="12pt" font-weight="normal" font-style="normal" data-name="2" data-compartment="0">
							<g transform="translate(8, 8)" fill="#33322E" text-align="center" data-name="2" data-compartment="0">
								<text x="4.5" y="14.1" stroke="none" text-anchor="middle" data-name="2" data-compartment="0">2</text>
								
							</g>
						</g>
					</g>
					<g data-name="1">
						<g fill="#eee8d5" stroke="#33322E" data-name="1">
							<ellipse cx="415.9" cy="948.0" rx="15.6" ry="20.0" data-name="1"></ellipse>
						</g>
						<g transform="translate(403.4375, 932)" font-family="Helvetica" font-size="12pt" font-weight="normal" font-style="normal" data-name="1" data-compartment="0">
							<g transform="translate(8, 8)" fill="#33322E" text-align="center" data-name="1" data-compartment="0">
								<text x="4.5" y="14.1" stroke="none" text-anchor="middle" data-name="1" data-compartment="0">1</text>
								
							</g>
						</g>
					</g>
					<g data-name="11">
						<g fill="#eee8d5" stroke="#33322E" data-name="11">
							<ellipse cx="979.5" cy="476.0" rx="20.6" ry="20.0" data-name="11"></ellipse>
						</g>
						<g transform="translate(963, 460)" font-family="Helvetica" font-size="12pt" font-weight="normal" font-style="normal" data-name="11" data-compartment="0">
							<g transform="translate(8, 8)" fill="#33322E" text-align="center" data-name="11" data-compartment="0">
								<text x="8.5" y="14.1" stroke="none" text-anchor="middle" data-name="11" data-compartment="0">11</text>
								
							</g>
						</g>
					</g>
					<g data-name="16">
						<g fill="#eee8d5" stroke="#33322E" data-name="16">
							<ellipse cx="687.1" cy="236.0" rx="21.3" ry="20.0" data-name="16"></ellipse>
						</g>
						<g transform="translate(670.125, 220)" font-family="Helvetica" font-size="12pt" font-weight="normal" font-style="normal" data-name="16" data-compartment="0">
							<g transform="translate(8, 8)" fill="#33322E" text-align="center" data-name="16" data-compartment="0">
								<text x="9.0" y="14.1" stroke="none" text-anchor="middle" data-name="16" data-compartment="0">16</text>
								
							</g>
						</g>
					</g>
					<g data-name="15">
						<g fill="#eee8d5" stroke="#33322E" data-name="15">
							<ellipse cx="1054.9" cy="316.0" rx="21.3" ry="20.0" data-name="15"></ellipse>
						</g>
						<g transform="translate(1037.9375, 300)" font-family="Helvetica" font-size="12pt" font-weight="normal" font-style="normal" data-name="15" data-compartment="0">
							<g transform="translate(8, 8)" fill="#33322E" text-align="center" data-name="15" data-compartment="0">
								<text x="9.0" y="14.1" stroke="none" text-anchor="middle" data-name="15" data-compartment="0">15</text>
								
							</g>
						</g>
					</g>
					<g data-name="10">
						<g fill="#eee8d5" stroke="#33322E" data-name="10">
							<ellipse cx="1203.4" cy="476.0" rx="21.3" ry="20.0" data-name="10"></ellipse>
						</g>
						<g transform="translate(1186.4375, 460)" font-family="Helvetica" font-size="12pt" font-weight="normal" font-style="normal" data-name="10" data-compartment="0">
							<g transform="translate(8, 8)" fill="#33322E" text-align="center" data-name="10" data-compartment="0">
								<text x="9.0" y="14.1" stroke="none" text-anchor="middle" data-name="10" data-compartment="0">10</text>
								
							</g>
						</g>
					</g>
					<g data-name="14">
						<g fill="#eee8d5" stroke="#33322E" data-name="14">
							<ellipse cx="1431.2" cy="396.0" rx="21.3" ry="20.0" data-name="14"></ellipse>
						</g>
						<g transform="translate(1414.1875, 380)" font-family="Helvetica" font-size="12pt" font-weight="normal" font-style="normal" data-name="14" data-compartment="0">
							<g transform="translate(8, 8)" fill="#33322E" text-align="center" data-name="14" data-compartment="0">
								<text x="9.0" y="14.1" stroke="none" text-anchor="middle" data-name="14" data-compartment="0">14</text>
								
							</g>
						</g>
					</g>
					<g data-name="9">
						<g fill="#eee8d5" stroke="#33322E" data-name="9">
							<ellipse cx="1634.9" cy="476.0" rx="15.6" ry="20.0" data-name="9"></ellipse>
						</g>
						<g transform="translate(1622.4375, 460)" font-family="Helvetica" font-size="12pt" font-weight="normal" font-style="normal" data-name="9" data-compartment="0">
							<g transform="translate(8, 8)" fill="#33322E" text-align="center" data-name="9" data-compartment="0">
								<text x="4.5" y="14.1" stroke="none" text-anchor="middle" data-name="9" data-compartment="0">9</text>
								
							</g>
						</g>
					</g>
					<g data-name="8">
						<g fill="#eee8d5" stroke="#33322E" data-name="8">
							<ellipse cx="1934.9" cy="476.0" rx="15.6" ry="20.0" data-name="8"></ellipse>
						</g>
						<g transform="translate(1922.4375, 460)" font-family="Helvetica" font-size="12pt" font-weight="normal" font-style="normal" data-name="8" data-compartment="0">
							<g transform="translate(8, 8)" fill="#33322E" text-align="center" data-name="8" data-compartment="0">
								<text x="4.5" y="14.1" stroke="none" text-anchor="middle" data-name="8" data-compartment="0">8</text>
								
							</g>
						</g>
					</g>
					<g data-name="13">
						<g fill="#eee8d5" stroke="#33322E" data-name="13">
							<ellipse cx="2113.7" cy="396.0" rx="21.3" ry="20.0" data-name="13"></ellipse>
						</g>
						<g transform="translate(2096.6875, 380)" font-family="Helvetica" font-size="12pt" font-weight="normal" font-style="normal" data-name="13" data-compartment="0">
							<g transform="translate(8, 8)" fill="#33322E" text-align="center" data-name="13" data-compartment="0">
								<text x="9.0" y="14.1" stroke="none" text-anchor="middle" data-name="13" data-compartment="0">13</text>
								
							</g>
						</g>
					</g>
					<g data-name="12">
						<g fill="#eee8d5" stroke="#33322E" data-name="12">
							<ellipse cx="2309.2" cy="316.0" rx="21.3" ry="20.0" data-name="12"></ellipse>
						</g>
						<g transform="translate(2292.1875, 300)" font-family="Helvetica" font-size="12pt" font-weight="normal" font-style="normal" data-name="12" data-compartment="0">
							<g transform="translate(8, 8)" fill="#33322E" text-align="center" data-name="12" data-compartment="0">
								<text x="9.0" y="14.1" stroke="none" text-anchor="middle" data-name="12" data-compartment="0">12</text>
								
							</g>
						</g>
					</g>
					<g data-name="5">
						<g fill="#eee8d5" stroke="#33322E" data-name="5">
							<ellipse cx="677.5" cy="868.0" rx="15.6" ry="20.0" data-name="5"></ellipse>
						</g>
						<g transform="translate(665, 852)" font-family="Helvetica" font-size="12pt" font-weight="normal" font-style="normal" data-name="5" data-compartment="0">
							<g transform="translate(8, 8)" fill="#33322E" text-align="center" data-name="5" data-compartment="0">
								<text x="4.5" y="14.1" stroke="none" text-anchor="middle" data-name="5" data-compartment="0">5</text>
								
							</g>
						</g>
					</g>
					<g data-name="6">
						<g fill="#eee8d5" stroke="#33322E" data-name="6">
							<ellipse cx="898.6" cy="788.0" rx="15.6" ry="20.0" data-name="6"></ellipse>
						</g>
						<g transform="translate(886.125, 772)" font-family="Helvetica" font-size="12pt" font-weight="normal" font-style="normal" data-name="6" data-compartment="0">
							<g transform="translate(8, 8)" fill="#33322E" text-align="center" data-name="6" data-compartment="0">
								<text x="4.5" y="14.1" stroke="none" text-anchor="middle" data-name="6" data-compartment="0">6</text>
								
							</g>
						</g>
					</g>
				</g>
			</g>
		</g>
	</g>
</svg>