<svg version="1.1" baseProfile="full" width="3556.3" height="876.0" viewBox="0 0 3556.25 876" xmlns="http://www.w3.org/2000/svg" xmlns:xlink="http://www.w3.org/1999/xlink" xmlns:ev="http://www.w3.org/2001/xml-events">
	<title >CsabaDu_DynamicTestData_ExtensionPoints_simplified_horizontal</title>
	<desc >#title: CsabaDu_DynamicTestData_ExtensionPoints_simplified_horizontal
	#direction: right
	#.contract: fill=#DCE8CF title=center,italic,bold body=left,italic visual=class
	#.concrete: fill=#C9DEEF title=center,bold body=left visual=class
	#.abstract: fill=#C9DEEF title=center,bold,italic body=left visual=class
	
	
	
	[&lt;contract&gt;
	ITestDataRows]
	
	[&lt;abstract&gt;
	DynamicNamedDataRowSource&lt;TRow&gt;]
	
	[&lt;abstract&gt;
	DynamicDataSource]
	
	[&lt;contract&gt;
	ITestDataRow&lt;TRow, TTestData&gt;]
	
	[&lt;contract&gt;
	INamedTestDataRow&lt;TRow&gt;]
	
	[&lt;abstract&gt;
	TestDataRow&lt;TRow, TTestData&gt;]
	
	[&lt;contract&gt;
	ITestDataRow&lt;TRow&gt;]
	
	[&lt;abstract&gt;
	DynamicDataRowSource&lt;TRow&gt;]
	
	[&lt;abstract&gt;
	DynamicDataRowSource&lt;TDataRowHolder, TRow&gt;]
	
	[&lt;contract&gt;
	IDataRowHolder]
	
	[&lt;contract&gt;
	INamedDataRowHolder&lt;TRow&gt;]
	
	[&lt;contract&gt;
	IDataRowHolder&lt;TRow, TTestData&gt;]
	
	[&lt;contract&gt;
	IReadonlyCollection&lt;ITestDataRow&gt;]
	
	[&lt;abstract&gt;
	NamedDataRowHolder&lt;TRow, TTestData&gt;]
	
	[&lt;abstract&gt;
	DataRowHolder&lt;TRow, TTestData&gt;]
	
	[&lt;contract&gt;
	IDataRowHolder&lt;TRow&gt;]
	
	[&lt;contract&gt;
	ITestDataRow]
	
	[&lt;contract&gt;
	IRows&lt;TRow&gt;]
	
	[&lt;abstract&gt;
	DynamicExpectedObjectArrayRowSource]
	
	[&lt;abstract&gt;
	DynamicDataSource&lt;TDataHolder&gt;]
	
	[&lt;contract&gt;
	INamedRows&lt;TRow&gt;]
	
	[&lt;abstract&gt;
	DynamicDataSource]
	
	[&lt;abstract&gt;
	DynamicObjectArrayRowSource]
	
	[&lt;abstract&gt;
	DynamicObjectArraySource]
	
	[&lt;abstract&gt;
	DynamicExpectedObjectArraySource]
	
	[&lt;concrete&gt;
	ObjectArrayRowHolder&lt;TTestData&gt;]
	
	[&lt;concrete&gt;
	ObjectArrayRow&lt;TTestData&gt;]
	
	
	
	[ITestDataRows] &lt;:--
	[DynamicDataRowSource&lt;TDataRowHolder, TRow&gt;]
	
	[DynamicDataRowSource&lt;TRow&gt;] &lt;:-
	[DynamicObjectArrayRowSource]
	
	[DynamicDataRowSource&lt;TRow&gt;]-&gt;
	[&lt;usecase&gt; 7]
	
	[ITestDataRow] &lt;-o
	[IReadonlyCollection&lt;ITestDataRow&gt;]
	
	[ITestDataRows] &lt;:-
	[IDataRowHolder]
	
	[ITestDataRow] &lt;:-
	[ITestDataRow&lt;TRow&gt;]
	
	
	
	[INamedRows&lt;TRow&gt;] &lt;:--
	[DynamicNamedDataRowSource&lt;TRow&gt;] -:&gt;
	[DynamicDataRowSource&lt;TDataRowHolder, TRow&gt;]
	
	[DynamicDataSource&lt;TDataHolder&gt;] -&gt;
	[&lt;usecase&gt; 4]
	
	[DynamicDataRowSource&lt;TDataRowHolder, TRow&gt;] -:&gt;
	[DynamicDataSource&lt;TDataHolder&gt;] -:&gt;
	[DynamicDataSource]
	
	[DynamicDataSource] -&gt;
	[&lt;usecase&gt; 3]
	
	[DynamicObjectArraySource] -&gt;
	[&lt;usecase&gt; 2]
	
	[DynamicObjectArraySource] &lt;:-
	[DynamicExpectedObjectArraySource]
	
	[DynamicExpectedObjectArraySource] -&gt;
	[&lt;usecase&gt; 1]
	
	
	[ITestDataRows] o-&gt;
	[ITestDataRow]
	
	[DynamicDataRowSource&lt;TDataRowHolder, TRow&gt;] &lt;:-
	[DynamicDataRowSource&lt;TRow&gt;]
	
	[DynamicNamedDataRowSource&lt;TRow&gt;] -&gt;
	[&lt;usecase&gt; 11]
	
	[IDataRowHolder&lt;TRow&gt;] -:&gt;
	[IRows&lt;TRow&gt;]
	
	[IDataRowHolder] &lt;:-
	[IDataRowHolder&lt;TRow&gt;]
	
	[IDataRowHolder&lt;TRow&gt;] &lt;-+
	[DynamicDataRowSource&lt;TDataRowHolder, TRow&gt;]
	
	[IDataRowHolder&lt;TRow&gt;] -&gt;
	[&lt;usecase&gt; 16]
	
	[IDataRowHolder&lt;TRow&gt;] &lt;:-
	[INamedDataRowHolder&lt;TRow&gt;] 
	
	[DynamicDataSource] &lt;:-
	[DynamicObjectArraySource]
	
	[INamedDataRowHolder&lt;TRow&gt;] -:&gt;
	[INamedRows&lt;TRow&gt;]
	
	[IDataRowHolder&lt;TRow&gt;] &lt;:-
	[IDataRowHolder&lt;TRow, TTestData&gt;]
	
	[INamedDataRowHolder&lt;TRow&gt;] -&gt;
	[&lt;usecase&gt; 15]
	
	[INamedDataRowHolder&lt;TRow&gt;] &lt;:--
	[NamedDataRowHolder&lt;TRow, TTestData&gt;]
	
	[NamedDataRowHolder&lt;TRow, TTestData&gt;] -&gt;
	[&lt;usecase&gt; 10]
	
	[DataRowHolder&lt;TRow, TTestData&gt;] &lt;:-
	[NamedDataRowHolder&lt;TRow, TTestData&gt;]
	
	[DataRowHolder&lt;TRow, TTestData&gt;] -&gt;
	[&lt;usecase&gt; 14]
	
	[DataRowHolder&lt;TRow, TTestData&gt;] &lt;:-
	[ObjectArrayRowHolder&lt;TTestData&gt;] -&gt;
	[&lt;usecase&gt; 9]
	
	[IReadonlyCollection&lt;ITestDataRow&gt;] &lt;:-
	[IDataRowHolder&lt;TRow, TTestData&gt;]
	
	[IDataRowHolder&lt;TRow, TTestData&gt;] &lt;:--
	[DataRowHolder&lt;TRow, TTestData&gt;]
	
	[ITestDataRow&lt;TRow, TTestData&gt;] &lt;-+
	[DataRowHolder&lt;TRow, TTestData&gt;]
	
	[ITestDataRow&lt;TRow&gt;] &lt;:-
	[ITestDataRow&lt;TRow, TTestData&gt;]&lt;:--
	[TestDataRow&lt;TRow, TTestData&gt;] &lt;:-
	[ObjectArrayRow&lt;TTestData&gt;] -&gt;
	[&lt;usecase&gt; 8]
	
	[TestDataRow&lt;TRow, TTestData&gt;] -&gt;
	[&lt;usecase&gt; 13]
	
	[IRows&lt;TRow&gt;] &lt;:--
	[DynamicDataRowSource&lt;TDataRowHolder, TRow&gt;]
	
	[ITestDataRow&lt;TRow&gt;] &lt;:-
	[INamedTestDataRow&lt;TRow&gt;]
	
	[INamedTestDataRow&lt;TRow&gt;] -&gt;
	[&lt;usecase&gt; 12]
	
	[DynamicObjectArrayRowSource] &lt;:-
	[DynamicExpectedObjectArrayRowSource] -&gt;
	[&lt;usecase&gt; 5]
	
	[DynamicObjectArrayRowSource] -&gt;
	[&lt;usecase&gt; 6]
	
	</desc>
	<g stroke-width="1.0" text-align="left" font="12pt Helvetica, Arial, sans-serif" font-size="12pt" font-family="Helvetica" font-weight="bold" font-style="normal">
		<g font-family="Helvetica" font-size="12pt" font-weight="bold" font-style="normal" stroke-width="3.0" stroke-linejoin="round" stroke-linecap="round" stroke="#33322E">
			<g stroke="transparent" fill="transparent">
				<rect x="0.0" y="0.0" height="876.0" width="3556.3" stroke="none"></rect>
			</g>
			<g transform="translate(8, 8)" fill="#33322E">
				<g transform="translate(20, 20)" fill="#33322E" font-family="Helvetica" font-size="12pt" font-weight="normal" font-style="normal">
					<g stroke-dasharray="6 6">
						<path d="M79.7 240.3 L149 114 L238.5 114 L238.5 114 L328 114 L328 114 L493.5 114 L493.5 114 L659 114 L659 114 L821 114 L821 114 L983 114 L983 114 L1143 114 L1143 114 L1303 114 L1303 114 L1489.5 114 L1489.5 114 L1676 114 L1676 114 L1836.0344827586207 156 L1836.0 156.0 " fill="none"></path>
					</g>
					<path d="M75.0 237.7 L79.7 240.3 L84.4 242.9 L73.3 252.0 Z"></path>
					<path d="M2360.5 304.9 L2441 286 L2461 286 L2461.0 286.0 " fill="none"></path>
					<path d="M2359.3 299.8 L2360.5 304.9 L2361.7 310.1 L2347.5 308.0 Z"></path>
					<path d="M2347.5 340.0 L2441 362 L2568.7083333333335 362 L2568.7 362.0 " fill="none"></path>
					<path d="M2562.0 367.3 L2568.7 362.0 L2562.0 356.7 L2575.4 362.0 Z"></path>
					<path d="M248.3 729.9 L328 550 L329.3333333333333 550 L329.3 550.0 " fill="none"></path>
					<g fill="#eee8d5">
						<path d="M338.7 555.3 L329.3 550.0 L338.7 544.7 L348.0 550.0 Z"></path>
					</g>
					<path d="M246.1 721.6 L248.3 729.9 L255.9 726.0 L245.6 736.0 Z"></path>
					<path d="M129.2 287.9 L149 294 L169 294 L169.0 294.0 " fill="none"></path>
					<path d="M130.8 282.8 L129.2 287.9 L127.7 293.0 L116.5 284.0 Z"></path>
					<path d="M290.6 773.0 L328 788 L402.5 788 L402.5 788.0 " fill="none"></path>
					<path d="M292.6 768.0 L290.6 773.0 L288.7 777.9 L278.3 768.0 Z"></path>
					<g stroke-dasharray="6 6">
						<path d="M1245.3 296.0 L1303 296 L1330 296 L1330.0 296.0 " fill="none"></path>
					</g>
					<path d="M1245.3 290.7 L1245.3 296.0 L1245.3 301.3 L1232.0 296.0 Z"></path>
					<path d="M1638.7 280.0 L1676 276 L1850.93575063732 193.67729381773174 L1850.9 193.7 " fill="none"></path>
					<path d="M1853.2 198.5 L1850.9 193.7 L1848.7 188.9 L1863.0 188.0 Z"></path>
					<path d="M2347.5 42.0 L2441 20 L2568.7083333333335 20 L2568.7 20.0 " fill="none"></path>
					<path d="M2562.0 25.3 L2568.7 20.0 L2562.0 14.7 L2575.4 20.0 Z"></path>
					<path d="M1928.0 156.0 L2118 58 L2124.6666666666665 58 L2124.7 58.0 " fill="none"></path>
					<path d="M2124.7 63.3 L2124.7 58.0 L2124.7 52.7 L2138.0 58.0 Z"></path>
					<path d="M2347.5 74.0 L2441 96 L2492.6666666666665 96 L2492.7 96.0 " fill="none"></path>
					<path d="M2492.7 101.3 L2492.7 96.0 L2492.7 90.7 L2506.0 96.0 Z"></path>
					<path d="M2654.2 80.0 L2741 58 L2904.2083333333335 58 L2904.2 58.0 " fill="none"></path>
					<path d="M2897.5 63.3 L2904.2 58.0 L2897.5 52.7 L2910.9 58.0 Z"></path>
					<path d="M3004.6 118.0 L3112 96 L3258.2083333333335 96 L3258.2 96.0 " fill="none"></path>
					<path d="M3251.5 101.3 L3258.2 96.0 L3251.5 90.7 L3264.9 96.0 Z"></path>
					<path d="M3017.7 152.7 L3112 172 L3132 172 L3132.0 172.0 " fill="none"></path>
					<path d="M3018.7 147.5 L3017.7 152.7 L3016.6 157.9 L3004.6 150.0 Z"></path>
					<path d="M3429.0 172.0 L3449 172 L3462.3333333333335 172 L3462.3 172.0 " fill="none"></path>
					<path d="M3455.7 177.3 L3462.3 172.0 L3455.7 166.7 L3469.0 172.0 Z"></path>
					<path d="M70.5 302.4 L149 752 L171.83333333333334 752 L171.8 752.0 " fill="none"></path>
					<path d="M165.2 757.3 L171.8 752.0 L165.2 746.7 L178.5 752.0 Z"></path>
					<g fill="#eee8d5">
						<path d="M74.2 292.3 L70.5 302.4 L63.6 294.1 L67.3 284.0 Z"></path>
					</g>
					<path d="M1931.2 195.6 L2118 324 L2146.5 324 L2146.5 324.0 " fill="none"></path>
					<path d="M1934.3 191.2 L1931.2 195.6 L1928.2 200.0 L1920.3 188.0 Z"></path>
					<path d="M1596.1 312.0 L1676 324 L1869.7083333333333 324 L1869.7 324.0 " fill="none"></path>
					<path d="M1863.0 329.3 L1869.7 324.0 L1863.0 318.7 L1876.4 324.0 Z"></path>
					<path d="M514.9 278.0 L659 170 L821 170 L821 170 L983 170 L983 170 L1143 170 L1143 170 L1303 170 L1303 170 L1413.6666666666667 170 L1413.7 170.0 " fill="none"></path>
					<path d="M1413.7 175.3 L1413.7 170.0 L1413.7 164.7 L1427.0 170.0 Z"></path>
					<path d="M321.3 294.0 L328 294 L393 294 L393.0 294.0 " fill="none"></path>
					<path d="M321.3 288.7 L321.3 294.0 L321.3 299.3 L308.0 294.0 Z"></path>
					<path d="M538.6 275.5 L659 226 L821 226 L821 226 L983 226 L983 226 L1143 226 L1143 226 L1303 226 L1303 226 L1489.5 226 L1489.5 226 L1676 226 L1676 226 L1813.3853165688556 192.43073712797192 L1813.4 192.4 " fill="none"></path>
					<g fill="#33322E">
						<path d="M1823.7 195.4 L1813.4 192.4 L1821.2 185.0 L1831.5 188.0 Z"></path>
					</g>
					<path d="M542.7 268.0 L538.6 275.5 L546.8 277.9 L532.4 278.0 Z"></path>
					<path d="M594.0 289.1 L659 286 L793.0833333333334 286 L793.1 286.0 " fill="none"></path>
					<path d="M786.4 291.3 L793.1 286.0 L786.4 280.7 L799.8 286.0 Z"></path>
					<path d="M529.2 317.3 L659 402 L694 402 L694.0 402.0 " fill="none"></path>
					<path d="M532.1 312.8 L529.2 317.3 L526.3 321.8 L518.0 310.0 Z"></path>
					<path d="M2667.1 115.3 L2741 134 L2813 134 L2813.0 134.0 " fill="none"></path>
					<path d="M2668.4 110.1 L2667.1 115.3 L2665.8 120.4 L2654.2 112.0 Z"></path>
					<path d="M845.5 386.0 L983 296 L1040.6666666666667 296 L1040.7 296.0 " fill="none"></path>
					<path d="M1040.7 301.3 L1040.7 296.0 L1040.7 290.7 L1054.0 296.0 Z"></path>
					<path d="M515.4 320.2 L659 492 L749 512 L749.0 512.0 " fill="none"></path>
					<path d="M519.5 316.8 L515.4 320.2 L511.3 323.7 L506.9 310.0 Z"></path>
					<path d="M907.4 386.0 L983 372 L1115.0833333333333 372 L1115.1 372.0 " fill="none"></path>
					<path d="M1108.4 377.3 L1115.1 372.0 L1108.4 366.7 L1121.8 372.0 Z"></path>
					<g stroke-dasharray="6 6">
						<path d="M920.5 420.4 L983 432 L1143 432 L1143 432 L1303 432 L1303 432 L1340.3 436 L1340.3 436.0 " fill="none"></path>
					</g>
					<path d="M921.5 415.2 L920.5 420.4 L919.5 425.7 L907.4 418.0 Z"></path>
					<path d="M1656.0 452.0 L1676 452 L1869.0833333333333 452 L1869.1 452.0 " fill="none"></path>
					<path d="M1862.4 457.3 L1869.1 452.0 L1862.4 446.7 L1875.8 452.0 Z"></path>
					<path d="M1181.1 545.1 L1303 472 L1340.3 468 L1340.3 468.0 " fill="none"></path>
					<path d="M1178.4 540.6 L1181.1 545.1 L1183.8 549.7 L1169.7 552.0 Z"></path>
					<path d="M1210.4 552.0 L1303 530 L1461.5833333333333 530 L1461.6 530.0 " fill="none"></path>
					<path d="M1454.9 535.3 L1461.6 530.0 L1454.9 524.7 L1468.3 530.0 Z"></path>
					<path d="M1223.3 587.1 L1303 606 L1347 606 L1347.0 606.0 " fill="none"></path>
					<path d="M1224.6 581.9 L1223.3 587.1 L1222.1 592.3 L1210.4 584.0 Z"></path>
					<path d="M1632.0 606.0 L1676 606 L1874.7083333333333 606 L1874.7 606.0 " fill="none"></path>
					<path d="M1868.0 611.3 L1874.7 606.0 L1868.0 600.7 L1881.4 606.0 Z"></path>
					<path d="M652.3 550.0 L659 550 L703.1818181818182 544 L703.2 544.0 " fill="none"></path>
					<path d="M652.3 544.7 L652.3 550.0 L652.3 555.3 L639.0 550.0 Z"></path>
					<g stroke-dasharray="6 6">
						<path d="M976.3 528.0 L983 528 L1079 552 L1079.0 552.0 " fill="none"></path>
					</g>
					<path d="M976.3 522.7 L976.3 528.0 L976.3 533.3 L963.0 528.0 Z"></path>
					<path d="M853.2 704.5 L983 626 L1081.3128624158176 590.3615873742662 L1081.3 590.4 " fill="none"></path>
					<g fill="#33322E">
						<path d="M1091.9 592.2 L1081.3 590.4 L1088.3 582.2 L1098.9 584.0 Z"></path>
					</g>
					<path d="M856.1 696.5 L853.2 704.5 L861.6 705.7 L847.4 708.0 Z"></path>
					<path d="M547.3 767.2 L659 724 L688.5 724 L688.5 724.0 " fill="none"></path>
					<path d="M545.4 762.2 L547.3 767.2 L549.2 772.2 L534.9 772.0 Z"></path>
					<g stroke-dasharray="6 6">
						<path d="M966.8 724.0 L983 724 L1012.5 724 L1012.5 724.0 " fill="none"></path>
					</g>
					<path d="M966.8 718.7 L966.8 724.0 L966.8 729.3 L953.5 724.0 Z"></path>
					<path d="M1223.3 704.9 L1303 686 L1372 686 L1372.0 686.0 " fill="none"></path>
					<path d="M1222.1 699.7 L1223.3 704.9 L1224.6 710.1 L1210.4 708.0 Z"></path>
					<path d="M1607.0 686.0 L1676 686 L1874.7083333333333 686 L1874.7 686.0 " fill="none"></path>
					<path d="M1868.0 691.3 L1874.7 686.0 L1868.0 680.7 L1881.4 686.0 Z"></path>
					<path d="M1210.4 740.0 L1303 762 L1461.5833333333333 762 L1461.6 762.0 " fill="none"></path>
					<path d="M1454.9 767.3 L1461.6 762.0 L1454.9 756.7 L1468.3 762.0 Z"></path>
					<g stroke-dasharray="6 6">
						<path d="M1565.3 170.0 L1676 170 L1696 170.18099547511312 L1696.0 170.2 " fill="none"></path>
					</g>
					<path d="M1565.3 164.7 L1565.3 170.0 L1565.3 175.3 L1552.0 170.0 Z"></path>
					<path d="M597.8 795.6 L659 800 L703.5 800 L703.5 800.0 " fill="none"></path>
					<path d="M598.2 790.2 L597.8 795.6 L597.4 800.9 L584.5 794.6 Z"></path>
					<path d="M938.5 800.0 L983 800 L1115.0833333333333 800 L1115.1 800.0 " fill="none"></path>
					<path d="M1108.4 805.3 L1115.1 800.0 L1108.4 794.7 L1121.8 800.0 Z"></path>
					<path d="M2667.1 266.7 L2741 248 L2761 248 L2761.0 248.0 " fill="none"></path>
					<path d="M2665.8 261.6 L2667.1 266.7 L2668.4 271.9 L2654.2 270.0 Z"></path>
					<path d="M3092.0 248.0 L3112 248 L3258.2083333333335 248 L3258.2 248.0 " fill="none"></path>
					<path d="M3251.5 253.3 L3258.2 248.0 L3251.5 242.7 L3264.9 248.0 Z"></path>
					<path d="M2654.2 302.0 L2741 324 L2904.2083333333335 324 L2904.2 324.0 " fill="none"></path>
					<path d="M2897.5 329.3 L2904.2 324.0 L2897.5 318.7 L2910.9 324.0 Z"></path>
					<g data-name="ITestDataRows">
						<g fill="#DCE8CF" stroke="#33322E" data-name="ITestDataRows">
							<rect x="0.0" y="252.0" height="32.0" width="129.0" data-name="ITestDataRows"></rect>
						</g>
						<g transform="translate(0, 252)" font-family="Helvetica" font-size="12pt" font-weight="bold" font-style="italic" data-name="ITestDataRows" data-compartment="0">
							<g transform="translate(8, 8)" fill="#33322E" text-align="center" data-name="ITestDataRows" data-compartment="0">
								<text x="56.5" y="14.1" stroke="none" text-anchor="middle" data-name="ITestDataRows" data-compartment="0">ITestDataRows</text>
								
							</g>
						</g>
					</g>
					<g data-name="DynamicNamedDataRowSource&lt;TRow&gt;">
						<g fill="#C9DEEF" stroke="#33322E" data-name="DynamicNamedDataRowSource&lt;TRow&gt;">
							<rect x="1330.0" y="280.0" height="32.0" width="319.0" data-name="DynamicNamedDataRowSource&lt;TRow&gt;"></rect>
						</g>
						<g transform="translate(1330, 280)" font-family="Helvetica" font-size="12pt" font-weight="bold" font-style="italic" data-name="DynamicNamedDataRowSource&lt;TRow&gt;" data-compartment="0">
							<g transform="translate(8, 8)" fill="#33322E" text-align="center" data-name="DynamicNamedDataRowSource&lt;TRow&gt;" data-compartment="0">
								<text x="151.5" y="14.1" stroke="none" text-anchor="middle" data-name="DynamicNamedDataRowSource&lt;TRow&gt;" data-compartment="0">DynamicNamedDataRowSource&lt;TRow&gt;</text>
								
							</g>
						</g>
					</g>
					<g data-name="DynamicDataSource">
						<g fill="#C9DEEF" stroke="#33322E" data-name="DynamicDataSource">
							<rect x="2506.0" y="80.0" height="32.0" width="170.0" data-name="DynamicDataSource"></rect>
						</g>
						<g transform="translate(2506, 80)" font-family="Helvetica" font-size="12pt" font-weight="bold" font-style="italic" data-name="DynamicDataSource" data-compartment="0">
							<g transform="translate(8, 8)" fill="#33322E" text-align="center" data-name="DynamicDataSource" data-compartment="0">
								<text x="77.0" y="14.1" stroke="none" text-anchor="middle" data-name="DynamicDataSource" data-compartment="0">DynamicDataSource</text>
								
							</g>
						</g>
					</g>
					<g data-name="ITestDataRow&lt;TRow, TTestData&gt;">
						<g fill="#DCE8CF" stroke="#33322E" data-name="ITestDataRow&lt;TRow, TTestData&gt;">
							<rect x="688.5" y="708.0" height="32.0" width="265.0" data-name="ITestDataRow&lt;TRow, TTestData&gt;"></rect>
						</g>
						<g transform="translate(688.5, 708)" font-family="Helvetica" font-size="12pt" font-weight="bold" font-style="italic" data-name="ITestDataRow&lt;TRow, TTestData&gt;" data-compartment="0">
							<g transform="translate(8, 8)" fill="#33322E" text-align="center" data-name="ITestDataRow&lt;TRow, TTestData&gt;" data-compartment="0">
								<text x="124.5" y="14.1" stroke="none" text-anchor="middle" data-name="ITestDataRow&lt;TRow, TTestData&gt;" data-compartment="0">ITestDataRow&lt;TRow, TTestData&gt;</text>
								
							</g>
						</g>
					</g>
					<g data-name="INamedTestDataRow&lt;TRow&gt;">
						<g fill="#DCE8CF" stroke="#33322E" data-name="INamedTestDataRow&lt;TRow&gt;">
							<rect x="703.5" y="784.0" height="32.0" width="235.0" data-name="INamedTestDataRow&lt;TRow&gt;"></rect>
						</g>
						<g transform="translate(703.5, 784)" font-family="Helvetica" font-size="12pt" font-weight="bold" font-style="italic" data-name="INamedTestDataRow&lt;TRow&gt;" data-compartment="0">
							<g transform="translate(8, 8)" fill="#33322E" text-align="center" data-name="INamedTestDataRow&lt;TRow&gt;" data-compartment="0">
								<text x="109.5" y="14.1" stroke="none" text-anchor="middle" data-name="INamedTestDataRow&lt;TRow&gt;" data-compartment="0">INamedTestDataRow&lt;TRow&gt;</text>
								
							</g>
						</g>
					</g>
					<g data-name="TestDataRow&lt;TRow, TTestData&gt;">
						<g fill="#C9DEEF" stroke="#33322E" data-name="TestDataRow&lt;TRow, TTestData&gt;">
							<rect x="1012.5" y="708.0" height="32.0" width="261.0" data-name="TestDataRow&lt;TRow, TTestData&gt;"></rect>
						</g>
						<g transform="translate(1012.5, 708)" font-family="Helvetica" font-size="12pt" font-weight="bold" font-style="italic" data-name="TestDataRow&lt;TRow, TTestData&gt;" data-compartment="0">
							<g transform="translate(8, 8)" fill="#33322E" text-align="center" data-name="TestDataRow&lt;TRow, TTestData&gt;" data-compartment="0">
								<text x="122.5" y="14.1" stroke="none" text-anchor="middle" data-name="TestDataRow&lt;TRow, TTestData&gt;" data-compartment="0">TestDataRow&lt;TRow, TTestData&gt;</text>
								
							</g>
						</g>
					</g>
					<g data-name="ITestDataRow&lt;TRow&gt;">
						<g fill="#DCE8CF" stroke="#33322E" data-name="ITestDataRow&lt;TRow&gt;">
							<rect x="402.5" y="772.0" height="32.0" width="182.0" data-name="ITestDataRow&lt;TRow&gt;"></rect>
						</g>
						<g transform="translate(402.5, 772)" font-family="Helvetica" font-size="12pt" font-weight="bold" font-style="italic" data-name="ITestDataRow&lt;TRow&gt;" data-compartment="0">
							<g transform="translate(8, 8)" fill="#33322E" text-align="center" data-name="ITestDataRow&lt;TRow&gt;" data-compartment="0">
								<text x="83.0" y="14.1" stroke="none" text-anchor="middle" data-name="ITestDataRow&lt;TRow&gt;" data-compartment="0">ITestDataRow&lt;TRow&gt;</text>
								
							</g>
						</g>
					</g>
					<g data-name="DynamicDataRowSource&lt;TRow&gt;">
						<g fill="#C9DEEF" stroke="#33322E" data-name="DynamicDataRowSource&lt;TRow&gt;">
							<rect x="2146.5" y="308.0" height="32.0" width="266.0" data-name="DynamicDataRowSource&lt;TRow&gt;"></rect>
						</g>
						<g transform="translate(2146.5, 308)" font-family="Helvetica" font-size="12pt" font-weight="bold" font-style="italic" data-name="DynamicDataRowSource&lt;TRow&gt;" data-compartment="0">
							<g transform="translate(8, 8)" fill="#33322E" text-align="center" data-name="DynamicDataRowSource&lt;TRow&gt;" data-compartment="0">
								<text x="125.0" y="14.1" stroke="none" text-anchor="middle" data-name="DynamicDataRowSource&lt;TRow&gt;" data-compartment="0">DynamicDataRowSource&lt;TRow&gt;</text>
								
							</g>
						</g>
					</g>
					<g data-name="DynamicDataRowSource&lt;TDataRowHolder, TRow&gt;">
						<g fill="#C9DEEF" stroke="#33322E" data-name="DynamicDataRowSource&lt;TDataRowHolder, TRow&gt;">
							<rect x="1696.0" y="156.0" height="32.0" width="402.0" data-name="DynamicDataRowSource&lt;TDataRowHolder, TRow&gt;"></rect>
						</g>
						<g transform="translate(1696, 156)" font-family="Helvetica" font-size="12pt" font-weight="bold" font-style="italic" data-name="DynamicDataRowSource&lt;TDataRowHolder, TRow&gt;" data-compartment="0">
							<g transform="translate(8, 8)" fill="#33322E" text-align="center" data-name="DynamicDataRowSource&lt;TDataRowHolder, TRow&gt;" data-compartment="0">
								<text x="193.0" y="14.1" stroke="none" text-anchor="middle" data-name="DynamicDataRowSource&lt;TDataRowHolder, TRow&gt;" data-compartment="0">DynamicDataRowSource&lt;TDataRowHolder, TRow&gt;</text>
								
							</g>
						</g>
					</g>
					<g data-name="IDataRowHolder">
						<g fill="#DCE8CF" stroke="#33322E" data-name="IDataRowHolder">
							<rect x="169.0" y="278.0" height="32.0" width="139.0" data-name="IDataRowHolder"></rect>
						</g>
						<g transform="translate(169, 278)" font-family="Helvetica" font-size="12pt" font-weight="bold" font-style="italic" data-name="IDataRowHolder" data-compartment="0">
							<g transform="translate(8, 8)" fill="#33322E" text-align="center" data-name="IDataRowHolder" data-compartment="0">
								<text x="61.5" y="14.1" stroke="none" text-anchor="middle" data-name="IDataRowHolder" data-compartment="0">IDataRowHolder</text>
								
							</g>
						</g>
					</g>
					<g data-name="INamedDataRowHolder&lt;TRow&gt;">
						<g fill="#DCE8CF" stroke="#33322E" data-name="INamedDataRowHolder&lt;TRow&gt;">
							<rect x="694.0" y="386.0" height="32.0" width="254.0" data-name="INamedDataRowHolder&lt;TRow&gt;"></rect>
						</g>
						<g transform="translate(694, 386)" font-family="Helvetica" font-size="12pt" font-weight="bold" font-style="italic" data-name="INamedDataRowHolder&lt;TRow&gt;" data-compartment="0">
							<g transform="translate(8, 8)" fill="#33322E" text-align="center" data-name="INamedDataRowHolder&lt;TRow&gt;" data-compartment="0">
								<text x="119.0" y="14.1" stroke="none" text-anchor="middle" data-name="INamedDataRowHolder&lt;TRow&gt;" data-compartment="0">INamedDataRowHolder&lt;TRow&gt;</text>
								
							</g>
						</g>
					</g>
					<g data-name="IDataRowHolder&lt;TRow, TTestData&gt;">
						<g fill="#DCE8CF" stroke="#33322E" data-name="IDataRowHolder&lt;TRow, TTestData&gt;">
							<rect x="679.0" y="512.0" height="32.0" width="284.0" data-name="IDataRowHolder&lt;TRow, TTestData&gt;"></rect>
						</g>
						<g transform="translate(679, 512)" font-family="Helvetica" font-size="12pt" font-weight="bold" font-style="italic" data-name="IDataRowHolder&lt;TRow, TTestData&gt;" data-compartment="0">
							<g transform="translate(8, 8)" fill="#33322E" text-align="center" data-name="IDataRowHolder&lt;TRow, TTestData&gt;" data-compartment="0">
								<text x="134.0" y="14.1" stroke="none" text-anchor="middle" data-name="IDataRowHolder&lt;TRow, TTestData&gt;" data-compartment="0">IDataRowHolder&lt;TRow, TTestData&gt;</text>
								
							</g>
						</g>
					</g>
					<g data-name="IReadonlyCollection&lt;ITestDataRow&gt;">
						<g fill="#DCE8CF" stroke="#33322E" data-name="IReadonlyCollection&lt;ITestDataRow&gt;">
							<rect x="348.0" y="534.0" height="32.0" width="291.0" data-name="IReadonlyCollection&lt;ITestDataRow&gt;"></rect>
						</g>
						<g transform="translate(348, 534)" font-family="Helvetica" font-size="12pt" font-weight="bold" font-style="italic" data-name="IReadonlyCollection&lt;ITestDataRow&gt;" data-compartment="0">
							<g transform="translate(8, 8)" fill="#33322E" text-align="center" data-name="IReadonlyCollection&lt;ITestDataRow&gt;" data-compartment="0">
								<text x="137.5" y="14.1" stroke="none" text-anchor="middle" data-name="IReadonlyCollection&lt;ITestDataRow&gt;" data-compartment="0">IReadonlyCollection&lt;ITestDataRow&gt;</text>
								
							</g>
						</g>
					</g>
					<g data-name="NamedDataRowHolder&lt;TRow, TTestData&gt;">
						<g fill="#C9DEEF" stroke="#33322E" data-name="NamedDataRowHolder&lt;TRow, TTestData&gt;">
							<rect x="1323.0" y="436.0" height="32.0" width="333.0" data-name="NamedDataRowHolder&lt;TRow, TTestData&gt;"></rect>
						</g>
						<g transform="translate(1323, 436)" font-family="Helvetica" font-size="12pt" font-weight="bold" font-style="italic" data-name="NamedDataRowHolder&lt;TRow, TTestData&gt;" data-compartment="0">
							<g transform="translate(8, 8)" fill="#33322E" text-align="center" data-name="NamedDataRowHolder&lt;TRow, TTestData&gt;" data-compartment="0">
								<text x="158.5" y="14.1" stroke="none" text-anchor="middle" data-name="NamedDataRowHolder&lt;TRow, TTestData&gt;" data-compartment="0">NamedDataRowHolder&lt;TRow, TTestData&gt;</text>
								
							</g>
						</g>
					</g>
					<g data-name="DataRowHolder&lt;TRow, TTestData&gt;">
						<g fill="#C9DEEF" stroke="#33322E" data-name="DataRowHolder&lt;TRow, TTestData&gt;">
							<rect x="1003.0" y="552.0" height="32.0" width="280.0" data-name="DataRowHolder&lt;TRow, TTestData&gt;"></rect>
						</g>
						<g transform="translate(1003, 552)" font-family="Helvetica" font-size="12pt" font-weight="bold" font-style="italic" data-name="DataRowHolder&lt;TRow, TTestData&gt;" data-compartment="0">
							<g transform="translate(8, 8)" fill="#33322E" text-align="center" data-name="DataRowHolder&lt;TRow, TTestData&gt;" data-compartment="0">
								<text x="132.0" y="14.1" stroke="none" text-anchor="middle" data-name="DataRowHolder&lt;TRow, TTestData&gt;" data-compartment="0">DataRowHolder&lt;TRow, TTestData&gt;</text>
								
							</g>
						</g>
					</g>
					<g data-name="IDataRowHolder&lt;TRow&gt;">
						<g fill="#DCE8CF" stroke="#33322E" data-name="IDataRowHolder&lt;TRow&gt;">
							<rect x="393.0" y="278.0" height="32.0" width="201.0" data-name="IDataRowHolder&lt;TRow&gt;"></rect>
						</g>
						<g transform="translate(393, 278)" font-family="Helvetica" font-size="12pt" font-weight="bold" font-style="italic" data-name="IDataRowHolder&lt;TRow&gt;" data-compartment="0">
							<g transform="translate(8, 8)" fill="#33322E" text-align="center" data-name="IDataRowHolder&lt;TRow&gt;" data-compartment="0">
								<text x="92.5" y="14.1" stroke="none" text-anchor="middle" data-name="IDataRowHolder&lt;TRow&gt;" data-compartment="0">IDataRowHolder&lt;TRow&gt;</text>
								
							</g>
						</g>
					</g>
					<g data-name="ITestDataRow">
						<g fill="#DCE8CF" stroke="#33322E" data-name="ITestDataRow">
							<rect x="178.5" y="736.0" height="32.0" width="120.0" data-name="ITestDataRow"></rect>
						</g>
						<g transform="translate(178.5, 736)" font-family="Helvetica" font-size="12pt" font-weight="bold" font-style="italic" data-name="ITestDataRow" data-compartment="0">
							<g transform="translate(8, 8)" fill="#33322E" text-align="center" data-name="ITestDataRow" data-compartment="0">
								<text x="52.0" y="14.1" stroke="none" text-anchor="middle" data-name="ITestDataRow" data-compartment="0">ITestDataRow</text>
								
							</g>
						</g>
					</g>
					<g data-name="IRows&lt;TRow&gt;">
						<g fill="#DCE8CF" stroke="#33322E" data-name="IRows&lt;TRow&gt;">
							<rect x="1427.0" y="154.0" height="32.0" width="125.0" data-name="IRows&lt;TRow&gt;"></rect>
						</g>
						<g transform="translate(1427, 154)" font-family="Helvetica" font-size="12pt" font-weight="bold" font-style="italic" data-name="IRows&lt;TRow&gt;" data-compartment="0">
							<g transform="translate(8, 8)" fill="#33322E" text-align="center" data-name="IRows&lt;TRow&gt;" data-compartment="0">
								<text x="54.5" y="14.1" stroke="none" text-anchor="middle" data-name="IRows&lt;TRow&gt;" data-compartment="0">IRows&lt;TRow&gt;</text>
								
							</g>
						</g>
					</g>
					<g data-name="DynamicExpectedObjectArrayRowSource">
						<g fill="#C9DEEF" stroke="#33322E" data-name="DynamicExpectedObjectArrayRowSource">
							<rect x="2761.0" y="232.0" height="32.0" width="331.0" data-name="DynamicExpectedObjectArrayRowSource"></rect>
						</g>
						<g transform="translate(2761, 232)" font-family="Helvetica" font-size="12pt" font-weight="bold" font-style="italic" data-name="DynamicExpectedObjectArrayRowSource" data-compartment="0">
							<g transform="translate(8, 8)" fill="#33322E" text-align="center" data-name="DynamicExpectedObjectArrayRowSource" data-compartment="0">
								<text x="157.5" y="14.1" stroke="none" text-anchor="middle" data-name="DynamicExpectedObjectArrayRowSource" data-compartment="0">DynamicExpectedObjectArrayRowSource</text>
								
							</g>
						</g>
					</g>
					<g data-name="DynamicDataSource&lt;TDataHolder&gt;">
						<g fill="#C9DEEF" stroke="#33322E" data-name="DynamicDataSource&lt;TDataHolder&gt;">
							<rect x="2138.0" y="42.0" height="32.0" width="283.0" data-name="DynamicDataSource&lt;TDataHolder&gt;"></rect>
						</g>
						<g transform="translate(2138, 42)" font-family="Helvetica" font-size="12pt" font-weight="bold" font-style="italic" data-name="DynamicDataSource&lt;TDataHolder&gt;" data-compartment="0">
							<g transform="translate(8, 8)" fill="#33322E" text-align="center" data-name="DynamicDataSource&lt;TDataHolder&gt;" data-compartment="0">
								<text x="133.5" y="14.1" stroke="none" text-anchor="middle" data-name="DynamicDataSource&lt;TDataHolder&gt;" data-compartment="0">DynamicDataSource&lt;TDataHolder&gt;</text>
								
							</g>
						</g>
					</g>
					<g data-name="INamedRows&lt;TRow&gt;">
						<g fill="#DCE8CF" stroke="#33322E" data-name="INamedRows&lt;TRow&gt;">
							<rect x="1054.0" y="280.0" height="32.0" width="178.0" data-name="INamedRows&lt;TRow&gt;"></rect>
						</g>
						<g transform="translate(1054, 280)" font-family="Helvetica" font-size="12pt" font-weight="bold" font-style="italic" data-name="INamedRows&lt;TRow&gt;" data-compartment="0">
							<g transform="translate(8, 8)" fill="#33322E" text-align="center" data-name="INamedRows&lt;TRow&gt;" data-compartment="0">
								<text x="81.0" y="14.1" stroke="none" text-anchor="middle" data-name="INamedRows&lt;TRow&gt;" data-compartment="0">INamedRows&lt;TRow&gt;</text>
								
							</g>
						</g>
					</g>
					<g data-name="DynamicObjectArrayRowSource">
						<g fill="#C9DEEF" stroke="#33322E" data-name="DynamicObjectArrayRowSource">
							<rect x="2461.0" y="270.0" height="32.0" width="260.0" data-name="DynamicObjectArrayRowSource"></rect>
						</g>
						<g transform="translate(2461, 270)" font-family="Helvetica" font-size="12pt" font-weight="bold" font-style="italic" data-name="DynamicObjectArrayRowSource" data-compartment="0">
							<g transform="translate(8, 8)" fill="#33322E" text-align="center" data-name="DynamicObjectArrayRowSource" data-compartment="0">
								<text x="122.0" y="14.1" stroke="none" text-anchor="middle" data-name="DynamicObjectArrayRowSource" data-compartment="0">DynamicObjectArrayRowSource</text>
								
							</g>
						</g>
					</g>
					<g data-name="DynamicObjectArraySource">
						<g fill="#C9DEEF" stroke="#33322E" data-name="DynamicObjectArraySource">
							<rect x="2813.0" y="118.0" height="32.0" width="227.0" data-name="DynamicObjectArraySource"></rect>
						</g>
						<g transform="translate(2813, 118)" font-family="Helvetica" font-size="12pt" font-weight="bold" font-style="italic" data-name="DynamicObjectArraySource" data-compartment="0">
							<g transform="translate(8, 8)" fill="#33322E" text-align="center" data-name="DynamicObjectArraySource" data-compartment="0">
								<text x="105.5" y="14.1" stroke="none" text-anchor="middle" data-name="DynamicObjectArraySource" data-compartment="0">DynamicObjectArraySource</text>
								
							</g>
						</g>
					</g>
					<g data-name="DynamicExpectedObjectArraySource">
						<g fill="#C9DEEF" stroke="#33322E" data-name="DynamicExpectedObjectArraySource">
							<rect x="3132.0" y="156.0" height="32.0" width="297.0" data-name="DynamicExpectedObjectArraySource"></rect>
						</g>
						<g transform="translate(3132, 156)" font-family="Helvetica" font-size="12pt" font-weight="bold" font-style="italic" data-name="DynamicExpectedObjectArraySource" data-compartment="0">
							<g transform="translate(8, 8)" fill="#33322E" text-align="center" data-name="DynamicExpectedObjectArraySource" data-compartment="0">
								<text x="140.5" y="14.1" stroke="none" text-anchor="middle" data-name="DynamicExpectedObjectArraySource" data-compartment="0">DynamicExpectedObjectArraySource</text>
								
							</g>
						</g>
					</g>
					<g data-name="ObjectArrayRowHolder&lt;TTestData&gt;">
						<g fill="#C9DEEF" stroke="#33322E" data-name="ObjectArrayRowHolder&lt;TTestData&gt;">
							<rect x="1347.0" y="590.0" height="32.0" width="285.0" data-name="ObjectArrayRowHolder&lt;TTestData&gt;"></rect>
						</g>
						<g transform="translate(1347, 590)" font-family="Helvetica" font-size="12pt" font-weight="bold" font-style="normal" data-name="ObjectArrayRowHolder&lt;TTestData&gt;" data-compartment="0">
							<g transform="translate(8, 8)" fill="#33322E" text-align="center" data-name="ObjectArrayRowHolder&lt;TTestData&gt;" data-compartment="0">
								<text x="134.5" y="14.1" stroke="none" text-anchor="middle" data-name="ObjectArrayRowHolder&lt;TTestData&gt;" data-compartment="0">ObjectArrayRowHolder&lt;TTestData&gt;</text>
								
							</g>
						</g>
					</g>
					<g data-name="ObjectArrayRow&lt;TTestData&gt;">
						<g fill="#C9DEEF" stroke="#33322E" data-name="ObjectArrayRow&lt;TTestData&gt;">
							<rect x="1372.0" y="670.0" height="32.0" width="235.0" data-name="ObjectArrayRow&lt;TTestData&gt;"></rect>
						</g>
						<g transform="translate(1372, 670)" font-family="Helvetica" font-size="12pt" font-weight="bold" font-style="normal" data-name="ObjectArrayRow&lt;TTestData&gt;" data-compartment="0">
							<g transform="translate(8, 8)" fill="#33322E" text-align="center" data-name="ObjectArrayRow&lt;TTestData&gt;" data-compartment="0">
								<text x="109.5" y="14.1" stroke="none" text-anchor="middle" data-name="ObjectArrayRow&lt;TTestData&gt;" data-compartment="0">ObjectArrayRow&lt;TTestData&gt;</text>
								
							</g>
						</g>
					</g>
					<g data-name="7">
						<g fill="#eee8d5" stroke="#33322E" data-name="7">
							<ellipse cx="2591.0" cy="362.0" rx="15.6" ry="20.0" data-name="7"></ellipse>
						</g>
						<g transform="translate(2578.5, 346)" font-family="Helvetica" font-size="12pt" font-weight="normal" font-style="normal" data-name="7" data-compartment="0">
							<g transform="translate(8, 8)" fill="#33322E" text-align="center" data-name="7" data-compartment="0">
								<text x="4.5" y="14.1" stroke="none" text-anchor="middle" data-name="7" data-compartment="0">7</text>
								
							</g>
						</g>
					</g>
					<g data-name="4">
						<g fill="#eee8d5" stroke="#33322E" data-name="4">
							<ellipse cx="2591.0" cy="20.0" rx="15.6" ry="20.0" data-name="4"></ellipse>
						</g>
						<g transform="translate(2578.5, 4)" font-family="Helvetica" font-size="12pt" font-weight="normal" font-style="normal" data-name="4" data-compartment="0">
							<g transform="translate(8, 8)" fill="#33322E" text-align="center" data-name="4" data-compartment="0">
								<text x="4.5" y="14.1" stroke="none" text-anchor="middle" data-name="4" data-compartment="0">4</text>
								
							</g>
						</g>
					</g>
					<g data-name="3">
						<g fill="#eee8d5" stroke="#33322E" data-name="3">
							<ellipse cx="2926.5" cy="58.0" rx="15.6" ry="20.0" data-name="3"></ellipse>
						</g>
						<g transform="translate(2914, 42)" font-family="Helvetica" font-size="12pt" font-weight="normal" font-style="normal" data-name="3" data-compartment="0">
							<g transform="translate(8, 8)" fill="#33322E" text-align="center" data-name="3" data-compartment="0">
								<text x="4.5" y="14.1" stroke="none" text-anchor="middle" data-name="3" data-compartment="0">3</text>
								
							</g>
						</g>
					</g>
					<g data-name="2">
						<g fill="#eee8d5" stroke="#33322E" data-name="2">
							<ellipse cx="3280.5" cy="96.0" rx="15.6" ry="20.0" data-name="2"></ellipse>
						</g>
						<g transform="translate(3268, 80)" font-family="Helvetica" font-size="12pt" font-weight="normal" font-style="normal" data-name="2" data-compartment="0">
							<g transform="translate(8, 8)" fill="#33322E" text-align="center" data-name="2" data-compartment="0">
								<text x="4.5" y="14.1" stroke="none" text-anchor="middle" data-name="2" data-compartment="0">2</text>
								
							</g>
						</g>
					</g>
					<g data-name="1">
						<g fill="#eee8d5" stroke="#33322E" data-name="1">
							<ellipse cx="3484.6" cy="172.0" rx="15.6" ry="20.0" data-name="1"></ellipse>
						</g>
						<g transform="translate(3472.125, 156)" font-family="Helvetica" font-size="12pt" font-weight="normal" font-style="normal" data-name="1" data-compartment="0">
							<g transform="translate(8, 8)" fill="#33322E" text-align="center" data-name="1" data-compartment="0">
								<text x="4.5" y="14.1" stroke="none" text-anchor="middle" data-name="1" data-compartment="0">1</text>
								
							</g>
						</g>
					</g>
					<g data-name="11">
						<g fill="#eee8d5" stroke="#33322E" data-name="11">
							<ellipse cx="1897.0" cy="324.0" rx="20.6" ry="20.0" data-name="11"></ellipse>
						</g>
						<g transform="translate(1880.5, 308)" font-family="Helvetica" font-size="12pt" font-weight="normal" font-style="normal" data-name="11" data-compartment="0">
							<g transform="translate(8, 8)" fill="#33322E" text-align="center" data-name="11" data-compartment="0">
								<text x="8.5" y="14.1" stroke="none" text-anchor="middle" data-name="11" data-compartment="0">11</text>
								
							</g>
						</g>
					</g>
					<g data-name="16">
						<g fill="#eee8d5" stroke="#33322E" data-name="16">
							<ellipse cx="821.0" cy="286.0" rx="21.3" ry="20.0" data-name="16"></ellipse>
						</g>
						<g transform="translate(804, 270)" font-family="Helvetica" font-size="12pt" font-weight="normal" font-style="normal" data-name="16" data-compartment="0">
							<g transform="translate(8, 8)" fill="#33322E" text-align="center" data-name="16" data-compartment="0">
								<text x="9.0" y="14.1" stroke="none" text-anchor="middle" data-name="16" data-compartment="0">16</text>
								
							</g>
						</g>
					</g>
					<g data-name="15">
						<g fill="#eee8d5" stroke="#33322E" data-name="15">
							<ellipse cx="1143.0" cy="372.0" rx="21.3" ry="20.0" data-name="15"></ellipse>
						</g>
						<g transform="translate(1126, 356)" font-family="Helvetica" font-size="12pt" font-weight="normal" font-style="normal" data-name="15" data-compartment="0">
							<g transform="translate(8, 8)" fill="#33322E" text-align="center" data-name="15" data-compartment="0">
								<text x="9.0" y="14.1" stroke="none" text-anchor="middle" data-name="15" data-compartment="0">15</text>
								
							</g>
						</g>
					</g>
					<g data-name="10">
						<g fill="#eee8d5" stroke="#33322E" data-name="10">
							<ellipse cx="1897.0" cy="452.0" rx="21.3" ry="20.0" data-name="10"></ellipse>
						</g>
						<g transform="translate(1880, 436)" font-family="Helvetica" font-size="12pt" font-weight="normal" font-style="normal" data-name="10" data-compartment="0">
							<g transform="translate(8, 8)" fill="#33322E" text-align="center" data-name="10" data-compartment="0">
								<text x="9.0" y="14.1" stroke="none" text-anchor="middle" data-name="10" data-compartment="0">10</text>
								
							</g>
						</g>
					</g>
					<g data-name="14">
						<g fill="#eee8d5" stroke="#33322E" data-name="14">
							<ellipse cx="1489.5" cy="530.0" rx="21.3" ry="20.0" data-name="14"></ellipse>
						</g>
						<g transform="translate(1472.5, 514)" font-family="Helvetica" font-size="12pt" font-weight="normal" font-style="normal" data-name="14" data-compartment="0">
							<g transform="translate(8, 8)" fill="#33322E" text-align="center" data-name="14" data-compartment="0">
								<text x="9.0" y="14.1" stroke="none" text-anchor="middle" data-name="14" data-compartment="0">14</text>
								
							</g>
						</g>
					</g>
					<g data-name="9">
						<g fill="#eee8d5" stroke="#33322E" data-name="9">
							<ellipse cx="1897.0" cy="606.0" rx="15.6" ry="20.0" data-name="9"></ellipse>
						</g>
						<g transform="translate(1884.5, 590)" font-family="Helvetica" font-size="12pt" font-weight="normal" font-style="normal" data-name="9" data-compartment="0">
							<g transform="translate(8, 8)" fill="#33322E" text-align="center" data-name="9" data-compartment="0">
								<text x="4.5" y="14.1" stroke="none" text-anchor="middle" data-name="9" data-compartment="0">9</text>
								
							</g>
						</g>
					</g>
					<g data-name="8">
						<g fill="#eee8d5" stroke="#33322E" data-name="8">
							<ellipse cx="1897.0" cy="686.0" rx="15.6" ry="20.0" data-name="8"></ellipse>
						</g>
						<g transform="translate(1884.5, 670)" font-family="Helvetica" font-size="12pt" font-weight="normal" font-style="normal" data-name="8" data-compartment="0">
							<g transform="translate(8, 8)" fill="#33322E" text-align="center" data-name="8" data-compartment="0">
								<text x="4.5" y="14.1" stroke="none" text-anchor="middle" data-name="8" data-compartment="0">8</text>
								
							</g>
						</g>
					</g>
					<g data-name="13">
						<g fill="#eee8d5" stroke="#33322E" data-name="13">
							<ellipse cx="1489.5" cy="762.0" rx="21.3" ry="20.0" data-name="13"></ellipse>
						</g>
						<g transform="translate(1472.5, 746)" font-family="Helvetica" font-size="12pt" font-weight="normal" font-style="normal" data-name="13" data-compartment="0">
							<g transform="translate(8, 8)" fill="#33322E" text-align="center" data-name="13" data-compartment="0">
								<text x="9.0" y="14.1" stroke="none" text-anchor="middle" data-name="13" data-compartment="0">13</text>
								
							</g>
						</g>
					</g>
					<g data-name="12">
						<g fill="#eee8d5" stroke="#33322E" data-name="12">
							<ellipse cx="1143.0" cy="800.0" rx="21.3" ry="20.0" data-name="12"></ellipse>
						</g>
						<g transform="translate(1126, 784)" font-family="Helvetica" font-size="12pt" font-weight="normal" font-style="normal" data-name="12" data-compartment="0">
							<g transform="translate(8, 8)" fill="#33322E" text-align="center" data-name="12" data-compartment="0">
								<text x="9.0" y="14.1" stroke="none" text-anchor="middle" data-name="12" data-compartment="0">12</text>
								
							</g>
						</g>
					</g>
					<g data-name="5">
						<g fill="#eee8d5" stroke="#33322E" data-name="5">
							<ellipse cx="3280.5" cy="248.0" rx="15.6" ry="20.0" data-name="5"></ellipse>
						</g>
						<g transform="translate(3268, 232)" font-family="Helvetica" font-size="12pt" font-weight="normal" font-style="normal" data-name="5" data-compartment="0">
							<g transform="translate(8, 8)" fill="#33322E" text-align="center" data-name="5" data-compartment="0">
								<text x="4.5" y="14.1" stroke="none" text-anchor="middle" data-name="5" data-compartment="0">5</text>
								
							</g>
						</g>
					</g>
					<g data-name="6">
						<g fill="#eee8d5" stroke="#33322E" data-name="6">
							<ellipse cx="2926.5" cy="324.0" rx="15.6" ry="20.0" data-name="6"></ellipse>
						</g>
						<g transform="translate(2914, 308)" font-family="Helvetica" font-size="12pt" font-weight="normal" font-style="normal" data-name="6" data-compartment="0">
							<g transform="translate(8, 8)" fill="#33322E" text-align="center" data-name="6" data-compartment="0">
								<text x="4.5" y="14.1" stroke="none" text-anchor="middle" data-name="6" data-compartment="0">6</text>
								
							</g>
						</g>
					</g>
				</g>
			</g>
		</g>
	</g>
</svg>