<svg version="1.1" baseProfile="full" width="1667.0" height="873.0" viewBox="0 0 1667 873" xmlns="http://www.w3.org/2000/svg" xmlns:xlink="http://www.w3.org/1999/xlink" xmlns:ev="http://www.w3.org/2001/xml-events">
	<title >CsabaDu_DynamicTestData_Pattern_Composite</title>
	<desc >
	
	#title: CsabaDu_DynamicTestData_Pattern_Composite
	#direction: down
	#.contract: fill=#DCE8CF title=center,italic,bold body=left,italic visual=class
	#.concrete: fill=#C9DEEF title=center,bold body=left visual=class
	#.abstract: fill=#C9DEEF title=center,bold,italic body=left visual=class
	
	
	[&lt;concrete&gt;
	DataStrategy |
	- static readonly HashSet&lt;DataStrategy&gt; DataStrategies |
	+ int GetHashCode()
	+ static IDataStrategy GetStoredDataStrategy(ArgsCode, PropsCode)
	+ static IDataStrategy GetStoredDataStrategy(IDataStrategy)
	+ static IDataStrategy GetStoredDataStrategy(ArgsCode?, IDataStrategy)]
	
	[&lt;contract&gt;
	IDataStrategy |
	ArgsCode ArgsCode
	PropsCode PropsCode]
	
	[&lt;abstract&gt;
	DynamicDataRowSource&lt;TDataRowHolder, TRow&gt; |
	&apos;# TDataRowHolde DataHolder |
	
	&apos;# void InitDataHolder&lt;TTestData&gt;(TTestData)]
	
	[&lt;contract&gt;
	IAddTestData&lt;TTestData&gt; |
	void Add(TTestData)]
	
	[&lt;contract&gt;
	IDataRowHolder&lt;TRow, TTestData&gt; |
	IDataRowHolder&lt;TRow&gt; GetDataRowHolder(IDataStrategy)]
	
	[&lt;abstract&gt;
	DataRowHolder&lt;TRow, TTestData&gt; |
	- readonly List&lt;ITestDataRow&lt;TRow, TTestData&gt;&gt; testDataRows]
	
	[&lt;contract&gt;
	ITestDataRow&lt;TRow, TTestData&gt; |
	TTestData TestData]
	
	[&lt;abstract&gt;
	TestDataRow&lt;TRow, TTestData&gt;]
	
	[&lt;concrete&gt;
	TTestData
	(concrete generic records)]
	
	[&lt;contract&gt;
	IReadonlyCollection&lt;ITestDataRow&gt; |
	int Count |
	IEnumerator&lt;ITestDataRow&gt; GetEnumerator()
	IEnumerator GetEnumerator()]
	
	[&lt;contract&gt; ITestDataRow |
	object?array GetParams(IDataStrategy)
	ITestData GetTestData()]
	
	
	
	[IDataStrategy] &lt;-o returns, uses
	[DataRowHolder&lt;TRow, TTestData&gt;]
	[IDataStrategy] &lt;-o uses
	[ITestDataRow]
	
	[IDataStrategy] &lt;-- implements
	[DataStrategy] uses (as DataStrategy cache) &lt;-o
	[IDataRowHolder&lt;TRow, TTestData&gt;]
	
	[DynamicDataRowSource&lt;TDataRowHolder, TRow&gt;] has
	(generic constraint) +-&gt;
	[IDataRowHolder&lt;TRow, TTestData&gt;]
	
	[IDataStrategy] &lt;-+ has
	[IDataRowHolder&lt;TRow, TTestData&gt;]
	
	[IDataStrategy] &lt;:-- implements
	[DynamicDataRowSource&lt;TDataRowHolder, TRow&gt;] o-&gt; uses
	[TTestData]
	
	[DataRowHolder&lt;TRow, TTestData&gt;]
	[IDataRowHolder&lt;TRow, TTestData&gt;] &lt;:-- implements
	[DataRowHolder&lt;TRow, TTestData&gt;]
	
	[IReadonlyCollection&lt;ITestDataRow&gt;]
	[IDataRowHolder&lt;TRow, TTestData&gt;] extends -:&gt;
	[IReadonlyCollection&lt;ITestDataRow&gt;] uses (generic constraint) o-&gt;
	[ITestDataRow] &lt;:- extends
	[ITestDataRow&lt;TRow, TTestData&gt;]
	
	[IDataRowHolder&lt;TRow, TTestData&gt;] uses o-&gt;
	[TTestData]
	
	[IAddTestData&lt;TTestData&gt;]
	[IDataRowHolder&lt;TRow, TTestData&gt;] -:&gt; extends
	[IAddTestData&lt;TTestData&gt;]
	
	[IAddTestData&lt;TTestData&gt;] uses o-&gt;
	[TTestData]
	
	[TestDataRow&lt;TRow, TTestData&gt;]
	[ITestDataRow&lt;TRow, TTestData&gt;] &lt;:-- implements
	[TestDataRow&lt;TRow, TTestData&gt;]
	
	[TTestData] has &lt;-+
	[ITestDataRow&lt;TRow, TTestData&gt;]
	[TTestData]
	
	[DataRowHolder&lt;TRow, TTestData&gt;] has +-&gt;
	[ITestDataRow&lt;TRow, TTestData&gt;]
	
	</desc>
	<g stroke-width="1.0" text-align="left" font="12pt Helvetica, Arial, sans-serif" font-size="12pt" font-family="Helvetica" font-weight="normal" font-style="normal">
		<g font-family="Helvetica" font-size="12pt" font-weight="bold" font-style="normal" stroke-width="3.0" stroke-linejoin="round" stroke-linecap="round" stroke="#33322E">
			<g stroke="transparent" fill="transparent">
				<rect x="0.0" y="0.0" height="873.0" width="1667.0" stroke="none"></rect>
			</g>
			<g transform="translate(8, 8)" fill="#33322E">
				<g transform="translate(20, 20)" fill="#33322E" font-family="Helvetica" font-size="12pt" font-weight="normal" font-style="normal">
					<text x="138.5" y="425.0" stroke="none">returns, uses</text>
					<path d="M701.4 50.3 L238 100 L238 192.5 L238 192.5 L238 285 L238 285 L238 337 L238 337 L238 389 L238 389 L238 414.3333333333333 L238.0 414.3 " fill="none"></path>
					<g fill="#eee8d5">
						<path d="M232.7 423.7 L238.0 414.3 L243.3 423.7 L238.0 433.0 Z"></path>
					</g>
					<path d="M695.3 56.3 L701.4 50.3 L694.2 45.7 L708.0 49.6 Z"></path>
					<text x="501.6" y="553.0" stroke="none">uses</text>
					<path d="M701.5 60.5 L516 100 L516 192.5 L516 192.5 L516 285 L516 285 L516 337 L516 337 L516 389 L516 389 L516 465 L516 465 L516 541 L516 541 L528.0002657242314 549.8890857216529 L528.0 549.9 " fill="none"></path>
					<g fill="#eee8d5">
						<path d="M532.3 559.7 L528.0 549.9 L538.7 551.2 L543.0 561.0 Z"></path>
					</g>
					<path d="M696.1 67.1 L701.5 60.5 L693.8 56.6 L708.0 59.1 Z"></path>
					<text x="830.5" y="112.0" stroke="none">implements</text>
					<g stroke-dasharray="6 6">
						<path d="M816.7 86.2 L822.5 100 L822.5 120 L822.5 120.0 " fill="none"></path>
					</g>
					<path d="M824.2 90.3 L816.7 86.2 L814.4 94.4 L814.2 80.0 Z"></path>
					<text x="605.9" y="285.0" stroke="none">uses (as DataStrategy cache)</text>
					<path d="M822.5 271.7 L822.5 285 L920.0664591272791 301.82738266871814 L920.1 301.8 " fill="none"></path>
					<g fill="#eee8d5">
						<path d="M928.4 308.7 L920.1 301.8 L930.2 298.2 L938.5 305.0 Z"></path>
					</g>
					<path d="M827.8 278.3 L822.5 271.7 L817.2 278.3 L822.5 265.0 Z"></path>
					<text x="1350.3" y="260.5" stroke="none">has
					(generic constraint)</text>
					<path d="M1327.1 251.3 L1279.5 285 L1226.01482710756 302.88571698010855 L1226.0 302.9 " fill="none"></path>
					<path d="M1230.6 295.7 L1226.0 302.9 L1234.0 305.8 L1219.7 305.0 Z"></path>
					<g fill="#33322E">
						<path d="M1337.8 250.2 L1327.1 251.3 L1331.6 241.5 L1342.3 240.5 Z"></path>
					</g>
					<text x="1135.1" y="297.0" stroke="none">has</text>
					<path d="M893.6 57.4 L1129 100 L1129 192.5 L1129 192.5 L1129 285 L1129 285 L1128.863554667616 286.41903145679476 L1128.9 286.4 " fill="none"></path>
					<g fill="#33322E">
						<path d="M1122.7 295.2 L1128.9 286.4 L1133.3 296.2 L1127.1 305.0 Z"></path>
					</g>
					<path d="M901.1 53.3 L893.6 57.4 L899.2 63.8 L887.0 56.2 Z"></path>
					<text x="1418.0" y="136.5" stroke="none">implements</text>
					<g stroke-dasharray="6 6">
						<path d="M900.3 50.1 L1410 100 L1410 144.5 L1410.0 144.5 " fill="none"></path>
					</g>
					<path d="M900.8 44.8 L900.3 50.1 L899.7 55.4 L887.0 48.8 Z"></path>
					<text x="1290.3" y="569.0" stroke="none">uses</text>
					<path d="M1410.0 259.2 L1410 285 L1410 337 L1410 337 L1410 389 L1410 389 L1410 465 L1410 465 L1410 541 L1410 541 L1337.7571315686557 574.2151119224571 L1337.8 574.2 " fill="none"></path>
					<path d="M1341.6 566.6 L1337.8 574.2 L1346.0 576.3 L1331.7 577.0 Z"></path>
					<g fill="#eee8d5">
						<path d="M1415.3 249.8 L1410.0 259.2 L1404.7 249.8 L1410.0 240.5 Z"></path>
					</g>
					<text x="334.9" y="425.0" stroke="none">implements</text>
					<g stroke-dasharray="6 6">
						<path d="M889.8 364.4 L679.25 389 L423.7894736842105 433 L423.8 433.0 " fill="none"></path>
					</g>
					<path d="M890.4 369.7 L889.8 364.4 L889.1 359.1 L903.0 362.8 Z"></path>
					<text x="923.5" y="389.0" stroke="none">extends</text>
					<path d="M915.5 369.0 L785.25 389 L785.25 395.6666666666667 L785.3 395.7 " fill="none"></path>
					<path d="M779.9 395.7 L785.3 395.7 L790.6 395.7 L785.3 409.0 Z"></path>
					<text x="793.3" y="541.0" stroke="none">uses (generic constraint)</text>
					<path d="M785.3 539.7 L785.25 541 L728.8518407082331 558.9755089376149 L728.9 559.0 " fill="none"></path>
					<path d="M733.6 551.9 L728.9 559.0 L736.8 562.0 L722.5 561.0 Z"></path>
					<g fill="#eee8d5">
						<path d="M790.6 530.3 L785.3 539.7 L779.9 530.3 L785.3 521.0 Z"></path>
					</g>
					<text x="618.5" y="673.0" stroke="none">extends</text>
					<path d="M597.0 654.3 L597 661 L610.4615384615385 681 L610.5 681.0 " fill="none"></path>
					<path d="M602.3 654.3 L597.0 654.3 L591.7 654.3 L597.0 641.0 Z"></path>
					<text x="1079.5" y="389.0" stroke="none">uses</text>
					<path d="M1119.1 387.6 L1119 389 L1119 465 L1119 465 L1119 541 L1119 541 L1209.0554103764466 574.6655739725034 L1209.1 574.7 " fill="none"></path>
					<path d="M1200.9 577.3 L1209.1 574.7 L1204.7 567.3 L1215.3 577.0 Z"></path>
					<g fill="#eee8d5">
						<path d="M1125.3 378.8 L1119.1 387.6 L1114.7 377.8 L1120.9 369.0 Z"></path>
					</g>
					<text x="1272.5" y="425.0" stroke="none">extends</text>
					<path d="M1210.5 369.0 L1264.5 389 L1264.5 419.6666666666667 L1264.5 419.7 " fill="none"></path>
					<path d="M1259.2 419.7 L1264.5 419.7 L1269.8 419.7 L1264.5 433.0 Z"></path>
					<text x="1223.1" y="517.0" stroke="none">uses</text>
					<path d="M1264.5 515.7 L1264.5 541 L1271.8830958330911 570.5323833323645 L1271.9 570.5 " fill="none"></path>
					<path d="M1265.1 565.4 L1271.9 570.5 L1275.4 562.8 L1273.5 577.0 Z"></path>
					<g fill="#eee8d5">
						<path d="M1269.8 506.3 L1264.5 515.7 L1259.2 506.3 L1264.5 497.0 Z"></path>
					</g>
					<text x="543.1" y="777.0" stroke="none">implements</text>
					<g stroke-dasharray="6 6">
						<path d="M632.0 758.3 L632 765 L632 785 L632.0 785.0 " fill="none"></path>
					</g>
					<path d="M637.3 758.3 L632.0 758.3 L626.7 758.3 L632.0 745.0 Z"></path>
					<text x="1287.5" y="645.0" stroke="none">has</text>
					<path d="M1279.5 631.7 L1279.5 661 L783.1067607992645 700.8647852331093 L783.1 700.9 " fill="none"></path>
					<g fill="#33322E">
						<path d="M773.4 696.3 L783.1 700.9 L774.2 706.9 L764.5 702.4 Z"></path>
					</g>
					<path d="M1284.8 638.3 L1279.5 631.7 L1274.2 638.3 L1279.5 625.0 Z"></path>
					<text x="204.5" y="517.0" stroke="none">has</text>
					<path d="M238.0 515.7 L238 541 L238 601 L238 601 L238 661 L238 661 L492.89064778927457 694.640390063559 L492.9 694.6 " fill="none"></path>
					<path d="M485.6 699.1 L492.9 694.6 L487.0 688.5 L499.5 695.5 Z"></path>
					<g fill="#33322E">
						<path d="M243.3 506.3 L238.0 515.7 L232.7 506.3 L238.0 497.0 Z"></path>
					</g>
					<g data-name="DataStrategy">
						<g fill="#C9DEEF" stroke="#33322E" data-name="DataStrategy">
							<rect x="556.0" y="120.0" height="145.0" width="533.0" data-name="DataStrategy"></rect>
							<path d="M556.0 152.0 L1089.0 152.0" fill="none" data-name="DataStrategy"></path>
							<path d="M556.0 184.0 L1089.0 184.0" fill="none" data-name="DataStrategy"></path>
						</g>
						<g transform="translate(556, 120)" font-family="Helvetica" font-size="12pt" font-weight="bold" font-style="normal" data-name="DataStrategy" data-compartment="0">
							<g transform="translate(8, 8)" fill="#33322E" text-align="center" data-name="DataStrategy" data-compartment="0">
								<text x="258.5" y="14.1" stroke="none" text-anchor="middle" data-name="DataStrategy" data-compartment="0">DataStrategy</text>
								
							</g>
						</g>
						<g transform="translate(556, 152)" font-family="Helvetica" font-size="12pt" font-weight="normal" font-style="normal" data-name="DataStrategy" data-compartment="1">
							<g transform="translate(8, 8)" fill="#33322E" text-align="left" data-name="DataStrategy" data-compartment="1">
								<text x="0.0" y="14.1" stroke="none" data-name="DataStrategy" data-compartment="1">- static readonly HashSet&lt;DataStrategy&gt; DataStrategies</text>
								
							</g>
						</g>
						<g transform="translate(556, 184)" font-family="Helvetica" font-size="12pt" font-weight="normal" font-style="normal" data-name="DataStrategy" data-compartment="2">
							<g transform="translate(8, 8)" fill="#33322E" text-align="left" data-name="DataStrategy" data-compartment="2">
								<text x="0.0" y="14.1" stroke="none" data-name="DataStrategy" data-compartment="2">+ int GetHashCode()</text>
								<text x="0.0" y="30.3" stroke="none" data-name="DataStrategy" data-compartment="2">+ static IDataStrategy GetStoredDataStrategy(ArgsCode, PropsCode)</text>
								<text x="0.0" y="46.5" stroke="none" data-name="DataStrategy" data-compartment="2">+ static IDataStrategy GetStoredDataStrategy(IDataStrategy)</text>
								<text x="0.0" y="62.7" stroke="none" data-name="DataStrategy" data-compartment="2">+ static IDataStrategy GetStoredDataStrategy(ArgsCode?, IDataStrategy)</text>
								
							</g>
						</g>
					</g>
					<g data-name="IDataStrategy">
						<g fill="#DCE8CF" stroke="#33322E" data-name="IDataStrategy">
							<rect x="708.0" y="0.0" height="80.0" width="179.0" data-name="IDataStrategy"></rect>
							<path d="M708.0 32.0 L887.0 32.0" fill="none" data-name="IDataStrategy"></path>
						</g>
						<g transform="translate(708, 0)" font-family="Helvetica" font-size="12pt" font-weight="bold" font-style="italic" data-name="IDataStrategy" data-compartment="0">
							<g transform="translate(8, 8)" fill="#33322E" text-align="center" data-name="IDataStrategy" data-compartment="0">
								<text x="81.5" y="14.1" stroke="none" text-anchor="middle" data-name="IDataStrategy" data-compartment="0">IDataStrategy</text>
								
							</g>
						</g>
						<g transform="translate(708, 32)" font-family="Helvetica" font-size="12pt" font-weight="normal" font-style="italic" data-name="IDataStrategy" data-compartment="1">
							<g transform="translate(8, 8)" fill="#33322E" text-align="left" data-name="IDataStrategy" data-compartment="1">
								<text x="0.0" y="14.1" stroke="none" data-name="IDataStrategy" data-compartment="1">ArgsCode ArgsCode</text>
								<text x="0.0" y="30.3" stroke="none" data-name="IDataStrategy" data-compartment="1">PropsCode PropsCode</text>
								
							</g>
						</g>
					</g>
					<g data-name="DynamicDataRowSource&lt;TDataRowHolder, TRow&gt;">
						<g fill="#C9DEEF" stroke="#33322E" data-name="DynamicDataRowSource&lt;TDataRowHolder, TRow&gt;">
							<rect x="1209.0" y="144.5" height="96.0" width="402.0" data-name="DynamicDataRowSource&lt;TDataRowHolder, TRow&gt;"></rect>
							<path d="M1209.0 176.5 L1611.0 176.5" fill="none" data-name="DynamicDataRowSource&lt;TDataRowHolder, TRow&gt;"></path>
							<path d="M1209.0 208.5 L1611.0 208.5" fill="none" data-name="DynamicDataRowSource&lt;TDataRowHolder, TRow&gt;"></path>
						</g>
						<g transform="translate(1209, 144.5)" font-family="Helvetica" font-size="12pt" font-weight="bold" font-style="italic" data-name="DynamicDataRowSource&lt;TDataRowHolder, TRow&gt;" data-compartment="0">
							<g transform="translate(8, 8)" fill="#33322E" text-align="center" data-name="DynamicDataRowSource&lt;TDataRowHolder, TRow&gt;" data-compartment="0">
								<text x="193.0" y="14.1" stroke="none" text-anchor="middle" data-name="DynamicDataRowSource&lt;TDataRowHolder, TRow&gt;" data-compartment="0">DynamicDataRowSource&lt;TDataRowHolder, TRow&gt;</text>
								
							</g>
						</g>
						<g transform="translate(1209, 176.5)" font-family="Helvetica" font-size="12pt" font-weight="normal" font-style="normal" data-name="DynamicDataRowSource&lt;TDataRowHolder, TRow&gt;" data-compartment="1">
							<g transform="translate(8, 8)" fill="#33322E" text-align="left" data-name="DynamicDataRowSource&lt;TDataRowHolder, TRow&gt;" data-compartment="1">
								<text x="0.0" y="14.1" stroke="none" data-name="DynamicDataRowSource&lt;TDataRowHolder, TRow&gt;" data-compartment="1"># TDataRowHolde DataHolder</text>
								
							</g>
						</g>
						<g transform="translate(1209, 208.5)" font-family="Helvetica" font-size="12pt" font-weight="normal" font-style="normal" data-name="DynamicDataRowSource&lt;TDataRowHolder, TRow&gt;" data-compartment="2">
							<g transform="translate(8, 8)" fill="#33322E" text-align="left" data-name="DynamicDataRowSource&lt;TDataRowHolder, TRow&gt;" data-compartment="2">
								<text x="0.0" y="14.1" stroke="none" data-name="DynamicDataRowSource&lt;TDataRowHolder, TRow&gt;" data-compartment="2"># void InitDataHolder&lt;TTestData&gt;(TTestData)</text>
								
							</g>
						</g>
					</g>
					<g data-name="IAddTestData&lt;TTestData&gt;">
						<g fill="#DCE8CF" stroke="#33322E" data-name="IAddTestData&lt;TTestData&gt;">
							<rect x="1159.0" y="433.0" height="64.0" width="211.0" data-name="IAddTestData&lt;TTestData&gt;"></rect>
							<path d="M1159.0 465.0 L1370.0 465.0" fill="none" data-name="IAddTestData&lt;TTestData&gt;"></path>
						</g>
						<g transform="translate(1159, 433)" font-family="Helvetica" font-size="12pt" font-weight="bold" font-style="italic" data-name="IAddTestData&lt;TTestData&gt;" data-compartment="0">
							<g transform="translate(8, 8)" fill="#33322E" text-align="center" data-name="IAddTestData&lt;TTestData&gt;" data-compartment="0">
								<text x="97.5" y="14.1" stroke="none" text-anchor="middle" data-name="IAddTestData&lt;TTestData&gt;" data-compartment="0">IAddTestData&lt;TTestData&gt;</text>
								
							</g>
						</g>
						<g transform="translate(1159, 465)" font-family="Helvetica" font-size="12pt" font-weight="normal" font-style="italic" data-name="IAddTestData&lt;TTestData&gt;" data-compartment="1">
							<g transform="translate(8, 8)" fill="#33322E" text-align="left" data-name="IAddTestData&lt;TTestData&gt;" data-compartment="1">
								<text x="0.0" y="14.1" stroke="none" data-name="IAddTestData&lt;TTestData&gt;" data-compartment="1">void Add(TTestData)</text>
								
							</g>
						</g>
					</g>
					<g data-name="IDataRowHolder&lt;TRow, TTestData&gt;">
						<g fill="#DCE8CF" stroke="#33322E" data-name="IDataRowHolder&lt;TRow, TTestData&gt;">
							<rect x="903.0" y="305.0" height="64.0" width="442.0" data-name="IDataRowHolder&lt;TRow, TTestData&gt;"></rect>
							<path d="M903.0 337.0 L1345.0 337.0" fill="none" data-name="IDataRowHolder&lt;TRow, TTestData&gt;"></path>
						</g>
						<g transform="translate(903, 305)" font-family="Helvetica" font-size="12pt" font-weight="bold" font-style="italic" data-name="IDataRowHolder&lt;TRow, TTestData&gt;" data-compartment="0">
							<g transform="translate(8, 8)" fill="#33322E" text-align="center" data-name="IDataRowHolder&lt;TRow, TTestData&gt;" data-compartment="0">
								<text x="213.0" y="14.1" stroke="none" text-anchor="middle" data-name="IDataRowHolder&lt;TRow, TTestData&gt;" data-compartment="0">IDataRowHolder&lt;TRow, TTestData&gt;</text>
								
							</g>
						</g>
						<g transform="translate(903, 337)" font-family="Helvetica" font-size="12pt" font-weight="normal" font-style="italic" data-name="IDataRowHolder&lt;TRow, TTestData&gt;" data-compartment="1">
							<g transform="translate(8, 8)" fill="#33322E" text-align="left" data-name="IDataRowHolder&lt;TRow, TTestData&gt;" data-compartment="1">
								<text x="0.0" y="14.1" stroke="none" data-name="IDataRowHolder&lt;TRow, TTestData&gt;" data-compartment="1">IDataRowHolder&lt;TRow&gt; GetDataRowHolder(IDataStrategy)</text>
								
							</g>
						</g>
					</g>
					<g data-name="DataRowHolder&lt;TRow, TTestData&gt;">
						<g fill="#C9DEEF" stroke="#33322E" data-name="DataRowHolder&lt;TRow, TTestData&gt;">
							<rect x="0.0" y="433.0" height="64.0" width="476.0" data-name="DataRowHolder&lt;TRow, TTestData&gt;"></rect>
							<path d="M0.0 465.0 L476.0 465.0" fill="none" data-name="DataRowHolder&lt;TRow, TTestData&gt;"></path>
						</g>
						<g transform="translate(0, 433)" font-family="Helvetica" font-size="12pt" font-weight="bold" font-style="italic" data-name="DataRowHolder&lt;TRow, TTestData&gt;" data-compartment="0">
							<g transform="translate(8, 8)" fill="#33322E" text-align="center" data-name="DataRowHolder&lt;TRow, TTestData&gt;" data-compartment="0">
								<text x="230.0" y="14.1" stroke="none" text-anchor="middle" data-name="DataRowHolder&lt;TRow, TTestData&gt;" data-compartment="0">DataRowHolder&lt;TRow, TTestData&gt;</text>
								
							</g>
						</g>
						<g transform="translate(0, 465)" font-family="Helvetica" font-size="12pt" font-weight="normal" font-style="normal" data-name="DataRowHolder&lt;TRow, TTestData&gt;" data-compartment="1">
							<g transform="translate(8, 8)" fill="#33322E" text-align="left" data-name="DataRowHolder&lt;TRow, TTestData&gt;" data-compartment="1">
								<text x="0.0" y="14.1" stroke="none" data-name="DataRowHolder&lt;TRow, TTestData&gt;" data-compartment="1">- readonly List&lt;ITestDataRow&lt;TRow, TTestData&gt;&gt; testDataRows</text>
								
							</g>
						</g>
					</g>
					<g data-name="ITestDataRow&lt;TRow, TTestData&gt;">
						<g fill="#DCE8CF" stroke="#33322E" data-name="ITestDataRow&lt;TRow, TTestData&gt;">
							<rect x="499.5" y="681.0" height="64.0" width="265.0" data-name="ITestDataRow&lt;TRow, TTestData&gt;"></rect>
							<path d="M499.5 713.0 L764.5 713.0" fill="none" data-name="ITestDataRow&lt;TRow, TTestData&gt;"></path>
						</g>
						<g transform="translate(499.5, 681)" font-family="Helvetica" font-size="12pt" font-weight="bold" font-style="italic" data-name="ITestDataRow&lt;TRow, TTestData&gt;" data-compartment="0">
							<g transform="translate(8, 8)" fill="#33322E" text-align="center" data-name="ITestDataRow&lt;TRow, TTestData&gt;" data-compartment="0">
								<text x="124.5" y="14.1" stroke="none" text-anchor="middle" data-name="ITestDataRow&lt;TRow, TTestData&gt;" data-compartment="0">ITestDataRow&lt;TRow, TTestData&gt;</text>
								
							</g>
						</g>
						<g transform="translate(499.5, 713)" font-family="Helvetica" font-size="12pt" font-weight="normal" font-style="italic" data-name="ITestDataRow&lt;TRow, TTestData&gt;" data-compartment="1">
							<g transform="translate(8, 8)" fill="#33322E" text-align="left" data-name="ITestDataRow&lt;TRow, TTestData&gt;" data-compartment="1">
								<text x="0.0" y="14.1" stroke="none" data-name="ITestDataRow&lt;TRow, TTestData&gt;" data-compartment="1">TTestData TestData</text>
								
							</g>
						</g>
					</g>
					<g data-name="TestDataRow&lt;TRow, TTestData&gt;">
						<g fill="#C9DEEF" stroke="#33322E" data-name="TestDataRow&lt;TRow, TTestData&gt;">
							<rect x="501.5" y="785.0" height="32.0" width="261.0" data-name="TestDataRow&lt;TRow, TTestData&gt;"></rect>
						</g>
						<g transform="translate(501.5, 785)" font-family="Helvetica" font-size="12pt" font-weight="bold" font-style="italic" data-name="TestDataRow&lt;TRow, TTestData&gt;" data-compartment="0">
							<g transform="translate(8, 8)" fill="#33322E" text-align="center" data-name="TestDataRow&lt;TRow, TTestData&gt;" data-compartment="0">
								<text x="122.5" y="14.1" stroke="none" text-anchor="middle" data-name="TestDataRow&lt;TRow, TTestData&gt;" data-compartment="0">TestDataRow&lt;TRow, TTestData&gt;</text>
								
							</g>
						</g>
					</g>
					<g data-name="TTestData">
						<g fill="#C9DEEF" stroke="#33322E" data-name="TTestData">
							<rect x="1171.5" y="577.0" height="48.0" width="216.0" data-name="TTestData"></rect>
						</g>
						<g transform="translate(1171.5, 577)" font-family="Helvetica" font-size="12pt" font-weight="bold" font-style="normal" data-name="TTestData" data-compartment="0">
							<g transform="translate(8, 8)" fill="#33322E" text-align="center" data-name="TTestData" data-compartment="0">
								<text x="100.0" y="14.1" stroke="none" text-anchor="middle" data-name="TTestData" data-compartment="0">TTestData</text>
								<text x="100.0" y="30.3" stroke="none" text-anchor="middle" data-name="TTestData" data-compartment="0">(concrete generic records)</text>
								
							</g>
						</g>
					</g>
					<g data-name="IReadonlyCollection&lt;ITestDataRow&gt;">
						<g fill="#DCE8CF" stroke="#33322E" data-name="IReadonlyCollection&lt;ITestDataRow&gt;">
							<rect x="613.3" y="409.0" height="112.0" width="344.0" data-name="IReadonlyCollection&lt;ITestDataRow&gt;"></rect>
							<path d="M613.3 441.0 L957.3 441.0" fill="none" data-name="IReadonlyCollection&lt;ITestDataRow&gt;"></path>
							<path d="M613.3 473.0 L957.3 473.0" fill="none" data-name="IReadonlyCollection&lt;ITestDataRow&gt;"></path>
						</g>
						<g transform="translate(613.25, 409)" font-family="Helvetica" font-size="12pt" font-weight="bold" font-style="italic" data-name="IReadonlyCollection&lt;ITestDataRow&gt;" data-compartment="0">
							<g transform="translate(8, 8)" fill="#33322E" text-align="center" data-name="IReadonlyCollection&lt;ITestDataRow&gt;" data-compartment="0">
								<text x="164.0" y="14.1" stroke="none" text-anchor="middle" data-name="IReadonlyCollection&lt;ITestDataRow&gt;" data-compartment="0">IReadonlyCollection&lt;ITestDataRow&gt;</text>
								
							</g>
						</g>
						<g transform="translate(613.25, 441)" font-family="Helvetica" font-size="12pt" font-weight="normal" font-style="italic" data-name="IReadonlyCollection&lt;ITestDataRow&gt;" data-compartment="1">
							<g transform="translate(8, 8)" fill="#33322E" text-align="left" data-name="IReadonlyCollection&lt;ITestDataRow&gt;" data-compartment="1">
								<text x="0.0" y="14.1" stroke="none" data-name="IReadonlyCollection&lt;ITestDataRow&gt;" data-compartment="1">int Count</text>
								
							</g>
						</g>
						<g transform="translate(613.25, 473)" font-family="Helvetica" font-size="12pt" font-weight="normal" font-style="italic" data-name="IReadonlyCollection&lt;ITestDataRow&gt;" data-compartment="2">
							<g transform="translate(8, 8)" fill="#33322E" text-align="left" data-name="IReadonlyCollection&lt;ITestDataRow&gt;" data-compartment="2">
								<text x="0.0" y="14.1" stroke="none" data-name="IReadonlyCollection&lt;ITestDataRow&gt;" data-compartment="2">IEnumerator&lt;ITestDataRow&gt; GetEnumerator()</text>
								<text x="0.0" y="30.3" stroke="none" data-name="IReadonlyCollection&lt;ITestDataRow&gt;" data-compartment="2">IEnumerator GetEnumerator()</text>
								
							</g>
						</g>
					</g>
					<g data-name="ITestDataRow">
						<g fill="#DCE8CF" stroke="#33322E" data-name="ITestDataRow">
							<rect x="449.5" y="561.0" height="80.0" width="295.0" data-name="ITestDataRow"></rect>
							<path d="M449.5 593.0 L744.5 593.0" fill="none" data-name="ITestDataRow"></path>
						</g>
						<g transform="translate(449.5, 561)" font-family="Helvetica" font-size="12pt" font-weight="bold" font-style="italic" data-name="ITestDataRow" data-compartment="0">
							<g transform="translate(8, 8)" fill="#33322E" text-align="center" data-name="ITestDataRow" data-compartment="0">
								<text x="139.5" y="14.1" stroke="none" text-anchor="middle" data-name="ITestDataRow" data-compartment="0">ITestDataRow</text>
								
							</g>
						</g>
						<g transform="translate(449.5, 593)" font-family="Helvetica" font-size="12pt" font-weight="normal" font-style="italic" data-name="ITestDataRow" data-compartment="1">
							<g transform="translate(8, 8)" fill="#33322E" text-align="left" data-name="ITestDataRow" data-compartment="1">
								<text x="0.0" y="14.1" stroke="none" data-name="ITestDataRow" data-compartment="1">object?array GetParams(IDataStrategy)</text>
								<text x="0.0" y="30.3" stroke="none" data-name="ITestDataRow" data-compartment="1">ITestData GetTestData()</text>
								
							</g>
						</g>
					</g>
				</g>
			</g>
		</g>
	</g>
</svg>