<svg version="1.1" baseProfile="full" width="1490.3" height="873.0" viewBox="0 0 1490.25 873" xmlns="http://www.w3.org/2000/svg" xmlns:xlink="http://www.w3.org/1999/xlink" xmlns:ev="http://www.w3.org/2001/xml-events">
	<title >CsabaDu_DynamicTestData_Pattern-_Composite</title>
	<desc >
	
	#title: CsabaDu_DynamicTestData_Pattern-_Composite
	#direction: down
	#.contract: fill=#DCE8CF title=center,italic,bold body=left,italic visual=class
	#.concrete: fill=#C9DEEF title=center,bold body=left visual=class
	#.abstract: fill=#C9DEEF title=center,bold,italic body=left visual=class
	
	
	[&lt;concrete&gt;
	DataStrategy |
	- static readonly HashSet&lt;DataStrategy&gt; DataStrategies |
	+ int GetHashCode()
	+ static IDataStrategy GetStoredDataStrategy(ArgsCode, PropsCode)
	+ static IDataStrategy GetStoredDataStrategy(IDataStrategy)
	+ static IDataStrategy GetStoredDataStrategy(ArgsCode?, IDataStrategy)]
	
	[&lt;contract&gt;
	IDataStrategy |
	ArgsCode ArgsCode
	PropsCode PropsCode]
	
	[&lt;abstract&gt;
	DynamicDataRowSource&lt;TDataRowHolder, TRow&gt; |
	&apos;# TDataRowHolde DataHolder |
	
	&apos;# void InitDataHolder&lt;TTestData&gt;(TTestData)]
	
	[&lt;contract&gt;
	IAddTestData&lt;TTestData&gt; |
	void Add(TTestData)]
	
	[&lt;contract&gt;
	IDataRowHolder&lt;TRow, TTestData&gt; |
	IDataRowHolder&lt;TRow&gt; GetDataRowHolder(IDataStrategy)]
	
	[&lt;abstract&gt;
	DataRowHolder&lt;TRow, TTestData&gt; |
	- readonly List&lt;ITestDataRow&lt;TRow, TTestData&gt;&gt; testDataRows]
	
	[&lt;contract&gt;
	ITestDataRow&lt;TRow, TTestData&gt; |
	TTestData TestData]
	
	[&lt;abstract&gt;
	TestDataRow&lt;TRow, TTestData&gt;]
	
	[&lt;concrete&gt;
	TTestData
	(concrete generic records)]
	
	[&lt;contract&gt;
	IReadonlyCollection&lt;ITestDataRow&gt; |
	int Count |
	IEnumerator&lt;ITestDataRow&gt; GetEnumerator()
	IEnumerator GetEnumerator()]
	
	[&lt;contract&gt; ITestDataRow |
	object?array GetParams(IDataStrategy)
	ITestData GetTestData()]
	
	
	
	[IDataStrategy] &lt;-o returns, uses
	[DataRowHolder&lt;TRow, TTestData&gt;]
	[IDataStrategy]
	
	[IDataStrategy] &lt;-- implements
	[DataStrategy] uses (as DataStrategy cache) &lt;-o
	[IDataRowHolder&lt;TRow, TTestData&gt;]
	
	[DynamicDataRowSource&lt;TDataRowHolder, TRow&gt;] has
	(generic constraint) +-&gt;
	[IDataRowHolder&lt;TRow, TTestData&gt;]
	
	[IDataStrategy] &lt;-+ has
	[IDataRowHolder&lt;TRow, TTestData&gt;]
	
	[IDataStrategy] &lt;:-- implements
	[DynamicDataRowSource&lt;TDataRowHolder, TRow&gt;] o-&gt; uses
	[TTestData]
	
	[IDataRowHolder&lt;TRow, TTestData&gt;] &lt;:-- implements
	[DataRowHolder&lt;TRow, TTestData&gt;]
	
	[IReadonlyCollection&lt;ITestDataRow&gt;]
	[IDataRowHolder&lt;TRow, TTestData&gt;] &lt;:- extends
	[IReadonlyCollection&lt;ITestDataRow&gt;] uses (generic constraint) o-&gt;
	[ITestDataRow] &lt;:- extends
	[ITestDataRow&lt;TRow, TTestData&gt;]
	
	[IDataRowHolder&lt;TRow, TTestData&gt;] uses o-&gt;
	[TTestData]
	
	[IAddTestData&lt;TTestData&gt;]
	[IDataRowHolder&lt;TRow, TTestData&gt;] -:&gt; extends
	[IAddTestData&lt;TTestData&gt;]
	
	[IAddTestData&lt;TTestData&gt;] uses o-&gt;
	[TTestData]
	
	[TestDataRow&lt;TRow, TTestData&gt;]
	[ITestDataRow&lt;TRow, TTestData&gt;] &lt;:-- implements
	[TestDataRow&lt;TRow, TTestData&gt;]
	
	[TTestData] has &lt;-+
	[ITestDataRow&lt;TRow, TTestData&gt;]
	[TTestData]
	
	[DataRowHolder&lt;TRow, TTestData&gt;] has +-&gt;
	[ITestDataRow&lt;TRow, TTestData&gt;]
	
	</desc>
	<g stroke-width="1.0" text-align="left" font="12pt Helvetica, Arial, sans-serif" font-size="12pt" font-family="Helvetica" font-weight="normal" font-style="normal">
		<g font-family="Helvetica" font-size="12pt" font-weight="bold" font-style="normal" stroke-width="3.0" stroke-linejoin="round" stroke-linecap="round" stroke="#33322E">
			<g stroke="transparent" fill="transparent">
				<rect x="0.0" y="0.0" height="873.0" width="1490.3" stroke="none"></rect>
			</g>
			<g transform="translate(8, 8)" fill="#33322E">
				<g transform="translate(20, 20)" fill="#33322E" font-family="Helvetica" font-size="12pt" font-weight="normal" font-style="normal">
					<text x="138.5" y="425.0" stroke="none">returns, uses</text>
					<path d="M673.4 50.9 L238 100 L238 192.5 L238 192.5 L238 285 L238 285 L238 337 L238 337 L238 389 L238 389 L238 414.3333333333333 L238.0 414.3 " fill="none"></path>
					<g fill="#eee8d5">
						<path d="M232.7 423.7 L238.0 414.3 L243.3 423.7 L238.0 433.0 Z"></path>
					</g>
					<path d="M667.3 56.9 L673.4 50.9 L666.2 46.3 L680.0 50.1 Z"></path>
					<text x="455.6" y="112.0" stroke="none">implements</text>
					<g stroke-dasharray="6 6">
						<path d="M673.6 65.6 L544.5 100 L544.5 120 L544.5 120.0 " fill="none"></path>
					</g>
					<path d="M668.5 72.5 L673.6 65.6 L665.7 62.1 L680.0 63.9 Z"></path>
					<text x="327.9" y="285.0" stroke="none">uses (as DataStrategy cache)</text>
					<path d="M544.5 271.7 L544.5 285 L661.0348687027277 302.2644249929967 L661.0 302.3 " fill="none"></path>
					<g fill="#eee8d5">
						<path d="M669.5 308.9 L661.0 302.3 L671.0 298.4 L679.5 305.0 Z"></path>
					</g>
					<path d="M549.8 278.3 L544.5 271.7 L539.2 278.3 L544.5 265.0 Z"></path>
					<text x="1183.9" y="260.5" stroke="none">has
					(generic constraint)</text>
					<path d="M1161.6 252.5 L1122.75 285 L1041.8448554026252 303.5129483787172 L1041.8 303.5 " fill="none"></path>
					<path d="M1047.2 296.8 L1041.8 303.5 L1049.5 307.2 L1035.3 305.0 Z"></path>
					<g fill="#33322E">
						<path d="M1172.2 250.6 L1161.6 252.5 L1165.3 242.4 L1175.9 240.5 Z"></path>
					</g>
					<text x="912.7" y="297.0" stroke="none">has</text>
					<path d="M865.1 80.7 L910.5 100 L910.5 192.5 L910.5 192.5 L910.5 285 L910.5 285 L909.9044347217433 287.06462629795664 L909.9 287.1 " fill="none"></path>
					<g fill="#33322E">
						<path d="M902.2 294.6 L909.9 287.1 L912.4 297.5 L904.7 305.0 Z"></path>
					</g>
					<path d="M873.4 78.4 L865.1 80.7 L869.2 88.2 L859.0 78.1 Z"></path>
					<text x="1241.3" y="136.5" stroke="none">implements</text>
					<g stroke-dasharray="6 6">
						<path d="M872.2 53.3 L1233.25 100 L1233.25 144.5 L1233.3 144.5 " fill="none"></path>
					</g>
					<path d="M872.9 48.0 L872.2 53.3 L871.5 58.6 L859.0 51.6 Z"></path>
					<text x="1124.5" y="569.0" stroke="none">uses</text>
					<path d="M1247.6 258.7 L1253.25 285 L1253.25 337 L1253.25 337 L1253.25 389 L1253.25 389 L1253.25 465 L1253.25 465 L1253.25 541 L1253.25 541 L1172.1132039485938 574.458472598518 L1172.1 574.5 " fill="none"></path>
					<path d="M1176.2 567.0 L1172.1 574.5 L1180.3 576.8 L1166.0 577.0 Z"></path>
					<g fill="#eee8d5">
						<path d="M1250.8 248.5 L1247.6 258.7 L1240.4 250.7 L1243.6 240.5 Z"></path>
					</g>
					<text x="243.8" y="425.0" stroke="none">implements</text>
					<g stroke-dasharray="6 6">
						<path d="M661.3 365.2 L463 389 L332.7368421052632 433 L332.7 433.0 " fill="none"></path>
					</g>
					<path d="M661.9 370.5 L661.3 365.2 L660.6 359.9 L674.5 363.6 Z"></path>
					<text x="644.6" y="401.0" stroke="none">extends</text>
					<path d="M767.3 372.6 L708 389 L708 409 L708.0 409.0 " fill="none"></path>
					<path d="M768.7 377.7 L767.3 372.6 L765.8 367.4 L780.1 369.0 Z"></path>
					<text x="716.0" y="541.0" stroke="none">uses (generic constraint)</text>
					<path d="M708.0 539.7 L708 541 L708 554.3333333333334 L708.0 554.3 " fill="none"></path>
					<path d="M702.7 547.7 L708.0 554.3 L713.3 547.7 L708.0 561.0 Z"></path>
					<g fill="#eee8d5">
						<path d="M713.3 530.3 L708.0 539.7 L702.7 530.3 L708.0 521.0 Z"></path>
					</g>
					<text x="732.8" y="673.0" stroke="none">extends</text>
					<path d="M708.0 654.3 L708 661 L724.8269230769231 681 L724.8 681.0 " fill="none"></path>
					<path d="M713.3 654.3 L708.0 654.3 L702.7 654.3 L708.0 641.0 Z"></path>
					<text x="895.2" y="389.0" stroke="none">uses</text>
					<path d="M951.3 380.5 L962.25 389 L962.25 465 L962.25 465 L962.25 541 L962.25 541 L1043.3867960514062 574.458472598518 L1043.4 574.5 " fill="none"></path>
					<path d="M1035.2 576.8 L1043.4 574.5 L1039.3 567.0 L1049.5 577.0 Z"></path>
					<g fill="#eee8d5">
						<path d="M947.2 370.5 L951.3 380.5 L940.7 378.9 L936.6 369.0 Z"></path>
					</g>
					<text x="1115.8" y="425.0" stroke="none">extends</text>
					<path d="M1026.1 369.0 L1107.75 389 L1107.75 419.6666666666667 L1107.8 419.7 " fill="none"></path>
					<path d="M1102.4 419.7 L1107.8 419.7 L1113.1 419.7 L1107.8 433.0 Z"></path>
					<text x="1115.8" y="517.0" stroke="none">uses</text>
					<path d="M1107.8 515.7 L1107.75 541 L1107.75 570.3333333333334 L1107.8 570.3 " fill="none"></path>
					<path d="M1102.4 563.7 L1107.8 570.3 L1113.1 563.7 L1107.8 577.0 Z"></path>
					<g fill="#eee8d5">
						<path d="M1113.1 506.3 L1107.8 515.7 L1102.4 506.3 L1107.8 497.0 Z"></path>
					</g>
					<text x="662.8" y="777.0" stroke="none">implements</text>
					<g stroke-dasharray="6 6">
						<path d="M751.8 758.3 L751.75 765 L751.75 785 L751.8 785.0 " fill="none"></path>
					</g>
					<path d="M757.1 758.3 L751.8 758.3 L746.4 758.3 L751.8 745.0 Z"></path>
					<text x="1115.8" y="645.0" stroke="none">has</text>
					<path d="M1107.8 631.7 L1107.75 661 L902.7206644251662 690.948105196324 L902.7 690.9 " fill="none"></path>
					<g fill="#33322E">
						<path d="M892.7 687.0 L902.7 690.9 L894.3 697.6 L884.3 693.6 Z"></path>
					</g>
					<path d="M1113.1 638.3 L1107.8 631.7 L1102.4 638.3 L1107.8 625.0 Z"></path>
					<text x="204.5" y="517.0" stroke="none">has</text>
					<path d="M238.0 515.7 L238 541 L238 601 L238 601 L238 661 L238 661 L612.6172224608988 698.917460959546 L612.6 698.9 " fill="none"></path>
					<path d="M605.4 703.6 L612.6 698.9 L606.5 692.9 L619.3 699.6 Z"></path>
					<g fill="#33322E">
						<path d="M243.3 506.3 L238.0 515.7 L232.7 506.3 L238.0 497.0 Z"></path>
					</g>
					<g data-name="DataStrategy">
						<g fill="#C9DEEF" stroke="#33322E" data-name="DataStrategy">
							<rect x="278.0" y="120.0" height="145.0" width="533.0" data-name="DataStrategy"></rect>
							<path d="M278.0 152.0 L811.0 152.0" fill="none" data-name="DataStrategy"></path>
							<path d="M278.0 184.0 L811.0 184.0" fill="none" data-name="DataStrategy"></path>
						</g>
						<g transform="translate(278, 120)" font-family="Helvetica" font-size="12pt" font-weight="bold" font-style="normal" data-name="DataStrategy" data-compartment="0">
							<g transform="translate(8, 8)" fill="#33322E" text-align="center" data-name="DataStrategy" data-compartment="0">
								<text x="258.5" y="14.1" stroke="none" text-anchor="middle" data-name="DataStrategy" data-compartment="0">DataStrategy</text>
								
							</g>
						</g>
						<g transform="translate(278, 152)" font-family="Helvetica" font-size="12pt" font-weight="normal" font-style="normal" data-name="DataStrategy" data-compartment="1">
							<g transform="translate(8, 8)" fill="#33322E" text-align="left" data-name="DataStrategy" data-compartment="1">
								<text x="0.0" y="14.1" stroke="none" data-name="DataStrategy" data-compartment="1">- static readonly HashSet&lt;DataStrategy&gt; DataStrategies</text>
								
							</g>
						</g>
						<g transform="translate(278, 184)" font-family="Helvetica" font-size="12pt" font-weight="normal" font-style="normal" data-name="DataStrategy" data-compartment="2">
							<g transform="translate(8, 8)" fill="#33322E" text-align="left" data-name="DataStrategy" data-compartment="2">
								<text x="0.0" y="14.1" stroke="none" data-name="DataStrategy" data-compartment="2">+ int GetHashCode()</text>
								<text x="0.0" y="30.3" stroke="none" data-name="DataStrategy" data-compartment="2">+ static IDataStrategy GetStoredDataStrategy(ArgsCode, PropsCode)</text>
								<text x="0.0" y="46.5" stroke="none" data-name="DataStrategy" data-compartment="2">+ static IDataStrategy GetStoredDataStrategy(IDataStrategy)</text>
								<text x="0.0" y="62.7" stroke="none" data-name="DataStrategy" data-compartment="2">+ static IDataStrategy GetStoredDataStrategy(ArgsCode?, IDataStrategy)</text>
								
							</g>
						</g>
					</g>
					<g data-name="IDataStrategy">
						<g fill="#DCE8CF" stroke="#33322E" data-name="IDataStrategy">
							<rect x="680.0" y="0.0" height="80.0" width="179.0" data-name="IDataStrategy"></rect>
							<path d="M680.0 32.0 L859.0 32.0" fill="none" data-name="IDataStrategy"></path>
						</g>
						<g transform="translate(680, 0)" font-family="Helvetica" font-size="12pt" font-weight="bold" font-style="italic" data-name="IDataStrategy" data-compartment="0">
							<g transform="translate(8, 8)" fill="#33322E" text-align="center" data-name="IDataStrategy" data-compartment="0">
								<text x="81.5" y="14.1" stroke="none" text-anchor="middle" data-name="IDataStrategy" data-compartment="0">IDataStrategy</text>
								
							</g>
						</g>
						<g transform="translate(680, 32)" font-family="Helvetica" font-size="12pt" font-weight="normal" font-style="italic" data-name="IDataStrategy" data-compartment="1">
							<g transform="translate(8, 8)" fill="#33322E" text-align="left" data-name="IDataStrategy" data-compartment="1">
								<text x="0.0" y="14.1" stroke="none" data-name="IDataStrategy" data-compartment="1">ArgsCode ArgsCode</text>
								<text x="0.0" y="30.3" stroke="none" data-name="IDataStrategy" data-compartment="1">PropsCode PropsCode</text>
								
							</g>
						</g>
					</g>
					<g data-name="DynamicDataRowSource&lt;TDataRowHolder, TRow&gt;">
						<g fill="#C9DEEF" stroke="#33322E" data-name="DynamicDataRowSource&lt;TDataRowHolder, TRow&gt;">
							<rect x="1032.3" y="144.5" height="96.0" width="402.0" data-name="DynamicDataRowSource&lt;TDataRowHolder, TRow&gt;"></rect>
							<path d="M1032.3 176.5 L1434.3 176.5" fill="none" data-name="DynamicDataRowSource&lt;TDataRowHolder, TRow&gt;"></path>
							<path d="M1032.3 208.5 L1434.3 208.5" fill="none" data-name="DynamicDataRowSource&lt;TDataRowHolder, TRow&gt;"></path>
						</g>
						<g transform="translate(1032.25, 144.5)" font-family="Helvetica" font-size="12pt" font-weight="bold" font-style="italic" data-name="DynamicDataRowSource&lt;TDataRowHolder, TRow&gt;" data-compartment="0">
							<g transform="translate(8, 8)" fill="#33322E" text-align="center" data-name="DynamicDataRowSource&lt;TDataRowHolder, TRow&gt;" data-compartment="0">
								<text x="193.0" y="14.1" stroke="none" text-anchor="middle" data-name="DynamicDataRowSource&lt;TDataRowHolder, TRow&gt;" data-compartment="0">DynamicDataRowSource&lt;TDataRowHolder, TRow&gt;</text>
								
							</g>
						</g>
						<g transform="translate(1032.25, 176.5)" font-family="Helvetica" font-size="12pt" font-weight="normal" font-style="normal" data-name="DynamicDataRowSource&lt;TDataRowHolder, TRow&gt;" data-compartment="1">
							<g transform="translate(8, 8)" fill="#33322E" text-align="left" data-name="DynamicDataRowSource&lt;TDataRowHolder, TRow&gt;" data-compartment="1">
								<text x="0.0" y="14.1" stroke="none" data-name="DynamicDataRowSource&lt;TDataRowHolder, TRow&gt;" data-compartment="1"># TDataRowHolde DataHolder</text>
								
							</g>
						</g>
						<g transform="translate(1032.25, 208.5)" font-family="Helvetica" font-size="12pt" font-weight="normal" font-style="normal" data-name="DynamicDataRowSource&lt;TDataRowHolder, TRow&gt;" data-compartment="2">
							<g transform="translate(8, 8)" fill="#33322E" text-align="left" data-name="DynamicDataRowSource&lt;TDataRowHolder, TRow&gt;" data-compartment="2">
								<text x="0.0" y="14.1" stroke="none" data-name="DynamicDataRowSource&lt;TDataRowHolder, TRow&gt;" data-compartment="2"># void InitDataHolder&lt;TTestData&gt;(TTestData)</text>
								
							</g>
						</g>
					</g>
					<g data-name="IAddTestData&lt;TTestData&gt;">
						<g fill="#DCE8CF" stroke="#33322E" data-name="IAddTestData&lt;TTestData&gt;">
							<rect x="1002.3" y="433.0" height="64.0" width="211.0" data-name="IAddTestData&lt;TTestData&gt;"></rect>
							<path d="M1002.3 465.0 L1213.3 465.0" fill="none" data-name="IAddTestData&lt;TTestData&gt;"></path>
						</g>
						<g transform="translate(1002.25, 433)" font-family="Helvetica" font-size="12pt" font-weight="bold" font-style="italic" data-name="IAddTestData&lt;TTestData&gt;" data-compartment="0">
							<g transform="translate(8, 8)" fill="#33322E" text-align="center" data-name="IAddTestData&lt;TTestData&gt;" data-compartment="0">
								<text x="97.5" y="14.1" stroke="none" text-anchor="middle" data-name="IAddTestData&lt;TTestData&gt;" data-compartment="0">IAddTestData&lt;TTestData&gt;</text>
								
							</g>
						</g>
						<g transform="translate(1002.25, 465)" font-family="Helvetica" font-size="12pt" font-weight="normal" font-style="italic" data-name="IAddTestData&lt;TTestData&gt;" data-compartment="1">
							<g transform="translate(8, 8)" fill="#33322E" text-align="left" data-name="IAddTestData&lt;TTestData&gt;" data-compartment="1">
								<text x="0.0" y="14.1" stroke="none" data-name="IAddTestData&lt;TTestData&gt;" data-compartment="1">void Add(TTestData)</text>
								
							</g>
						</g>
					</g>
					<g data-name="IDataRowHolder&lt;TRow, TTestData&gt;">
						<g fill="#DCE8CF" stroke="#33322E" data-name="IDataRowHolder&lt;TRow, TTestData&gt;">
							<rect x="674.5" y="305.0" height="64.0" width="442.0" data-name="IDataRowHolder&lt;TRow, TTestData&gt;"></rect>
							<path d="M674.5 337.0 L1116.5 337.0" fill="none" data-name="IDataRowHolder&lt;TRow, TTestData&gt;"></path>
						</g>
						<g transform="translate(674.5, 305)" font-family="Helvetica" font-size="12pt" font-weight="bold" font-style="italic" data-name="IDataRowHolder&lt;TRow, TTestData&gt;" data-compartment="0">
							<g transform="translate(8, 8)" fill="#33322E" text-align="center" data-name="IDataRowHolder&lt;TRow, TTestData&gt;" data-compartment="0">
								<text x="213.0" y="14.1" stroke="none" text-anchor="middle" data-name="IDataRowHolder&lt;TRow, TTestData&gt;" data-compartment="0">IDataRowHolder&lt;TRow, TTestData&gt;</text>
								
							</g>
						</g>
						<g transform="translate(674.5, 337)" font-family="Helvetica" font-size="12pt" font-weight="normal" font-style="italic" data-name="IDataRowHolder&lt;TRow, TTestData&gt;" data-compartment="1">
							<g transform="translate(8, 8)" fill="#33322E" text-align="left" data-name="IDataRowHolder&lt;TRow, TTestData&gt;" data-compartment="1">
								<text x="0.0" y="14.1" stroke="none" data-name="IDataRowHolder&lt;TRow, TTestData&gt;" data-compartment="1">IDataRowHolder&lt;TRow&gt; GetDataRowHolder(IDataStrategy)</text>
								
							</g>
						</g>
					</g>
					<g data-name="DataRowHolder&lt;TRow, TTestData&gt;">
						<g fill="#C9DEEF" stroke="#33322E" data-name="DataRowHolder&lt;TRow, TTestData&gt;">
							<rect x="0.0" y="433.0" height="64.0" width="476.0" data-name="DataRowHolder&lt;TRow, TTestData&gt;"></rect>
							<path d="M0.0 465.0 L476.0 465.0" fill="none" data-name="DataRowHolder&lt;TRow, TTestData&gt;"></path>
						</g>
						<g transform="translate(0, 433)" font-family="Helvetica" font-size="12pt" font-weight="bold" font-style="italic" data-name="DataRowHolder&lt;TRow, TTestData&gt;" data-compartment="0">
							<g transform="translate(8, 8)" fill="#33322E" text-align="center" data-name="DataRowHolder&lt;TRow, TTestData&gt;" data-compartment="0">
								<text x="230.0" y="14.1" stroke="none" text-anchor="middle" data-name="DataRowHolder&lt;TRow, TTestData&gt;" data-compartment="0">DataRowHolder&lt;TRow, TTestData&gt;</text>
								
							</g>
						</g>
						<g transform="translate(0, 465)" font-family="Helvetica" font-size="12pt" font-weight="normal" font-style="normal" data-name="DataRowHolder&lt;TRow, TTestData&gt;" data-compartment="1">
							<g transform="translate(8, 8)" fill="#33322E" text-align="left" data-name="DataRowHolder&lt;TRow, TTestData&gt;" data-compartment="1">
								<text x="0.0" y="14.1" stroke="none" data-name="DataRowHolder&lt;TRow, TTestData&gt;" data-compartment="1">- readonly List&lt;ITestDataRow&lt;TRow, TTestData&gt;&gt; testDataRows</text>
								
							</g>
						</g>
					</g>
					<g data-name="ITestDataRow&lt;TRow, TTestData&gt;">
						<g fill="#DCE8CF" stroke="#33322E" data-name="ITestDataRow&lt;TRow, TTestData&gt;">
							<rect x="619.3" y="681.0" height="64.0" width="265.0" data-name="ITestDataRow&lt;TRow, TTestData&gt;"></rect>
							<path d="M619.3 713.0 L884.3 713.0" fill="none" data-name="ITestDataRow&lt;TRow, TTestData&gt;"></path>
						</g>
						<g transform="translate(619.25, 681)" font-family="Helvetica" font-size="12pt" font-weight="bold" font-style="italic" data-name="ITestDataRow&lt;TRow, TTestData&gt;" data-compartment="0">
							<g transform="translate(8, 8)" fill="#33322E" text-align="center" data-name="ITestDataRow&lt;TRow, TTestData&gt;" data-compartment="0">
								<text x="124.5" y="14.1" stroke="none" text-anchor="middle" data-name="ITestDataRow&lt;TRow, TTestData&gt;" data-compartment="0">ITestDataRow&lt;TRow, TTestData&gt;</text>
								
							</g>
						</g>
						<g transform="translate(619.25, 713)" font-family="Helvetica" font-size="12pt" font-weight="normal" font-style="italic" data-name="ITestDataRow&lt;TRow, TTestData&gt;" data-compartment="1">
							<g transform="translate(8, 8)" fill="#33322E" text-align="left" data-name="ITestDataRow&lt;TRow, TTestData&gt;" data-compartment="1">
								<text x="0.0" y="14.1" stroke="none" data-name="ITestDataRow&lt;TRow, TTestData&gt;" data-compartment="1">TTestData TestData</text>
								
							</g>
						</g>
					</g>
					<g data-name="TestDataRow&lt;TRow, TTestData&gt;">
						<g fill="#C9DEEF" stroke="#33322E" data-name="TestDataRow&lt;TRow, TTestData&gt;">
							<rect x="621.3" y="785.0" height="32.0" width="261.0" data-name="TestDataRow&lt;TRow, TTestData&gt;"></rect>
						</g>
						<g transform="translate(621.25, 785)" font-family="Helvetica" font-size="12pt" font-weight="bold" font-style="italic" data-name="TestDataRow&lt;TRow, TTestData&gt;" data-compartment="0">
							<g transform="translate(8, 8)" fill="#33322E" text-align="center" data-name="TestDataRow&lt;TRow, TTestData&gt;" data-compartment="0">
								<text x="122.5" y="14.1" stroke="none" text-anchor="middle" data-name="TestDataRow&lt;TRow, TTestData&gt;" data-compartment="0">TestDataRow&lt;TRow, TTestData&gt;</text>
								
							</g>
						</g>
					</g>
					<g data-name="TTestData">
						<g fill="#C9DEEF" stroke="#33322E" data-name="TTestData">
							<rect x="999.8" y="577.0" height="48.0" width="216.0" data-name="TTestData"></rect>
						</g>
						<g transform="translate(999.75, 577)" font-family="Helvetica" font-size="12pt" font-weight="bold" font-style="normal" data-name="TTestData" data-compartment="0">
							<g transform="translate(8, 8)" fill="#33322E" text-align="center" data-name="TTestData" data-compartment="0">
								<text x="100.0" y="14.1" stroke="none" text-anchor="middle" data-name="TTestData" data-compartment="0">TTestData</text>
								<text x="100.0" y="30.3" stroke="none" text-anchor="middle" data-name="TTestData" data-compartment="0">(concrete generic records)</text>
								
							</g>
						</g>
					</g>
					<g data-name="IReadonlyCollection&lt;ITestDataRow&gt;">
						<g fill="#DCE8CF" stroke="#33322E" data-name="IReadonlyCollection&lt;ITestDataRow&gt;">
							<rect x="536.0" y="409.0" height="112.0" width="344.0" data-name="IReadonlyCollection&lt;ITestDataRow&gt;"></rect>
							<path d="M536.0 441.0 L880.0 441.0" fill="none" data-name="IReadonlyCollection&lt;ITestDataRow&gt;"></path>
							<path d="M536.0 473.0 L880.0 473.0" fill="none" data-name="IReadonlyCollection&lt;ITestDataRow&gt;"></path>
						</g>
						<g transform="translate(536, 409)" font-family="Helvetica" font-size="12pt" font-weight="bold" font-style="italic" data-name="IReadonlyCollection&lt;ITestDataRow&gt;" data-compartment="0">
							<g transform="translate(8, 8)" fill="#33322E" text-align="center" data-name="IReadonlyCollection&lt;ITestDataRow&gt;" data-compartment="0">
								<text x="164.0" y="14.1" stroke="none" text-anchor="middle" data-name="IReadonlyCollection&lt;ITestDataRow&gt;" data-compartment="0">IReadonlyCollection&lt;ITestDataRow&gt;</text>
								
							</g>
						</g>
						<g transform="translate(536, 441)" font-family="Helvetica" font-size="12pt" font-weight="normal" font-style="italic" data-name="IReadonlyCollection&lt;ITestDataRow&gt;" data-compartment="1">
							<g transform="translate(8, 8)" fill="#33322E" text-align="left" data-name="IReadonlyCollection&lt;ITestDataRow&gt;" data-compartment="1">
								<text x="0.0" y="14.1" stroke="none" data-name="IReadonlyCollection&lt;ITestDataRow&gt;" data-compartment="1">int Count</text>
								
							</g>
						</g>
						<g transform="translate(536, 473)" font-family="Helvetica" font-size="12pt" font-weight="normal" font-style="italic" data-name="IReadonlyCollection&lt;ITestDataRow&gt;" data-compartment="2">
							<g transform="translate(8, 8)" fill="#33322E" text-align="left" data-name="IReadonlyCollection&lt;ITestDataRow&gt;" data-compartment="2">
								<text x="0.0" y="14.1" stroke="none" data-name="IReadonlyCollection&lt;ITestDataRow&gt;" data-compartment="2">IEnumerator&lt;ITestDataRow&gt; GetEnumerator()</text>
								<text x="0.0" y="30.3" stroke="none" data-name="IReadonlyCollection&lt;ITestDataRow&gt;" data-compartment="2">IEnumerator GetEnumerator()</text>
								
							</g>
						</g>
					</g>
					<g data-name="ITestDataRow">
						<g fill="#DCE8CF" stroke="#33322E" data-name="ITestDataRow">
							<rect x="560.5" y="561.0" height="80.0" width="295.0" data-name="ITestDataRow"></rect>
							<path d="M560.5 593.0 L855.5 593.0" fill="none" data-name="ITestDataRow"></path>
						</g>
						<g transform="translate(560.5, 561)" font-family="Helvetica" font-size="12pt" font-weight="bold" font-style="italic" data-name="ITestDataRow" data-compartment="0">
							<g transform="translate(8, 8)" fill="#33322E" text-align="center" data-name="ITestDataRow" data-compartment="0">
								<text x="139.5" y="14.1" stroke="none" text-anchor="middle" data-name="ITestDataRow" data-compartment="0">ITestDataRow</text>
								
							</g>
						</g>
						<g transform="translate(560.5, 593)" font-family="Helvetica" font-size="12pt" font-weight="normal" font-style="italic" data-name="ITestDataRow" data-compartment="1">
							<g transform="translate(8, 8)" fill="#33322E" text-align="left" data-name="ITestDataRow" data-compartment="1">
								<text x="0.0" y="14.1" stroke="none" data-name="ITestDataRow" data-compartment="1">object?array GetParams(IDataStrategy)</text>
								<text x="0.0" y="30.3" stroke="none" data-name="ITestDataRow" data-compartment="1">ITestData GetTestData()</text>
								
							</g>
						</g>
					</g>
				</g>
			</g>
		</g>
	</g>
</svg>