<svg version="1.1" baseProfile="full" width="1141.3" height="842.0" viewBox="0 0 1141.25 842" xmlns="http://www.w3.org/2000/svg" xmlns:xlink="http://www.w3.org/1999/xlink" xmlns:ev="http://www.w3.org/2001/xml-events">
	<title >CsabaDu_DynamicTestData_Pattern_Strategy</title>
	<desc >
	
	#title: CsabaDu_DynamicTestData_Pattern_Strategy
	#direction: down
	#.contract: fill=#DCE8CF title=center,italic,bold body=left,italic visual=class
	#.concrete: fill=#C9DEEF title=center,bold body=left visual=class
	#.abstract: fill=#C9DEEF title=center,bold,italic body=left visual=class
	
	[&lt;concrete&gt;
	DataStrategy |
	+ static IDataStrategy GetStoredDataStrategy(ArgsCode, PropsCode)
	+ static IDataStrategy GetStoredDataStrategy(IDataStrategy)
	+ static IDataStrategy GetStoredDataStrategy(ArgsCode?, IDataStrategy)
	- static readonly HashSet&lt;DataStrategy&gt; DataStrategies]
	
	[&lt;contract&gt;
	IDataStrategy |
	ArgsCode ArgsCode
	PropsCode PropsCode]
	
	[&lt;abstract&gt;
	DynamicDataSource]
	[&lt;abstract&gt; DynamicDataRowSource&lt;TDataRowHolder&gt; |
	&apos;# TDataRowHolder DataHolder]
	
	[&lt;contract&gt;
	IDataRowHolder&lt;TRow&gt; |
	IDataRowHolder&lt;TRow&gt; GetDataRowHolder(IDataStrategy)]
	
	[&lt;contract&gt;
	IDataRowHolder |
	IDataStrategy DataStrategy]
	
	[&lt;contract&gt;
	ITestDataRows |
	IDataStrategy GetDataStrategy(ArgsCode?)
	IDataStrategy GetDataStrategy(ArgsCode?, PropsCode?)
	IEnumerable&lt;ITestDataRow&gt;? GetTestDataRows()]
	
	[&lt;contract&gt;
	ITestDataRow |
	object?array GetParams(IDataStrategy)
	ITestData GetTestData()]
	
	[&lt;contract&gt;
	ITestDataRow&lt;TRow&gt; |
	TRow Convert(IDataStrategy)]
	[&lt;abstract&gt; DataRowHolder&lt;TRow&gt;]
	
	[&lt;contract&gt;
	IRows&lt;TRow&gt; |
	IEnumerable&lt;TRow&gt;? GetRows(ArgsCode?)
	IEnumerable&lt;TRow&gt;? GetRows(ArgsCode?, PropsCode?)]
	
	[&lt;contract&gt;
	IEquatable&lt;IDataStrategy&gt; |
	bool Equals(IDataStrategy?)]
	
	
	
	[IDataStrategy] &lt;-o returns
	[ITestDataRows]
	
	[IDataRowHolder&lt;TRow&gt;] -:&gt; extends
	[IRows&lt;TRow&gt;]
	
	[DataRowHolder&lt;TRow&gt;] implements --:&gt;
	[IDataRowHolder&lt;TRow&gt;]
	
	[DataRowHolder&lt;TRow&gt;]  o-&gt; uses
	(flyweight pattern)
	[DataStrategy] implements --:&gt;
	[IDataStrategy]
	
	[IEquatable&lt;IDataStrategy&gt;] extends &lt;:- 
	[IDataStrategy]
	
	[IDataStrategy] &lt;-o uses
	[ITestDataRow]
	
	[IDataStrategy] &lt;-o uses
	[ITestDataRow&lt;TRow&gt;]
	
	[ITestDataRow&lt;TRow&gt;] extends -:&gt;
	[ITestDataRow]
	
	[IDataStrategy] &lt;:-- implements
	[DynamicDataSource] &lt;:- extends
	[DynamicDataRowSource&lt;TDataRowHolder&gt;] has
	(generic constraint) +-&gt;
	[IDataRowHolder&lt;TRow&gt;] extends -:&gt;
	[IDataRowHolder]
	
	[IDataStrategy]  &lt;-+ has
	[IDataRowHolder]
	
	[ITestDataRow] &lt;-o returns
	[ITestDataRows]
	
	[ITestDataRows] &lt;:- extends
	[IDataRowHolder]
	
	[IDataRowHolder&lt;TRow&gt;] uses o-&gt;
	[IDataStrategy]
	
	
	
	
	
	
	
	
	
	
	
	</desc>
	<g stroke-width="1.0" text-align="left" font="12pt Helvetica, Arial, sans-serif" font-size="12pt" font-family="Helvetica" font-weight="normal" font-style="normal">
		<g font-family="Helvetica" font-size="12pt" font-weight="bold" font-style="normal" stroke-width="3.0" stroke-linejoin="round" stroke-linecap="round" stroke="#33322E">
			<g stroke="transparent" fill="transparent">
				<rect x="0.0" y="0.0" height="842.0" width="1141.3" stroke="none"></rect>
			</g>
			<g transform="translate(8, 8)" fill="#33322E">
				<g transform="translate(20, 20)" fill="#33322E" font-family="Helvetica" font-size="12pt" font-weight="normal" font-style="normal">
					<text x="734.0" y="561.0" stroke="none">returns</text>
					<path d="M657.9 307.9 L694 325 L694 377 L694 377 L694 429 L694 429 L694 489 L694 489 L694 549 L694 549 L710.2084174720327 559.1164154609042 L710.2 559.1 " fill="none"></path>
					<g fill="#eee8d5">
						<path d="M715.3 568.6 L710.2 559.1 L720.9 559.5 L726.0 569.0 Z"></path>
					</g>
					<path d="M666.2 305.9 L657.9 307.9 L661.6 315.5 L651.8 305.0 Z"></path>
					<text x="153.5" y="698.0" stroke="none">extends</text>
					<path d="M254.9 649.5 L217.5 686 L217.5 692.6666666666666 L217.5 692.7 " fill="none"></path>
					<path d="M212.2 692.7 L217.5 692.7 L222.8 692.7 L217.5 706.0 Z"></path>
					<text x="7.1" y="52.0" stroke="none">implements</text>
					<g stroke-dasharray="6 6">
						<path d="M96.9 32.0 L71.25 52 L71.25 128.5 L71.25 128.5 L71.25 205 L71.25 205 L71.25 265 L71.25 265 L71.25 325 L71.25 325 L71.25 377 L71.25 377 L71.25 429 L71.25 429 L71.25 489 L71.25 489 L71.25 549 L71.25 549 L173.89909879815875 581.4778903818654 L173.9 581.5 " fill="none"></path>
					</g>
					<path d="M172.3 586.6 L173.9 581.5 L175.5 576.4 L186.6 585.5 Z"></path>
					<text x="388.3" y="64.0" stroke="none">uses
					(flyweight pattern)</text>
					<path d="M234.5 32.0 L380.25 52 L380.25 65.33333333333333 L380.3 65.3 " fill="none"></path>
					<path d="M374.9 58.7 L380.3 65.3 L385.6 58.7 L380.3 72.0 Z"></path>
					<g fill="#eee8d5">
						<path d="M226.0 25.5 L234.5 32.0 L224.5 36.0 L216.0 29.5 Z"></path>
					</g>
					<text x="290.4" y="205.0" stroke="none">implements</text>
					<g stroke-dasharray="6 6">
						<path d="M380.3 185.0 L380.25 205 L464.30258701088076 231.9327381610299 L464.3 231.9 " fill="none"></path>
					</g>
					<path d="M462.7 237.0 L464.3 231.9 L465.9 226.9 L477.0 236.0 Z"></path>
					<text x="809.3" y="180.5" stroke="none">extends</text>
					<path d="M801.3 173.8 L801.25 205 L658 241.77005347593584 L658.0 241.8 " fill="none"></path>
					<path d="M806.6 173.8 L801.3 173.8 L795.9 173.8 L801.3 160.5 Z"></path>
					<text x="845.3" y="441.0" stroke="none">uses</text>
					<path d="M664.5 289.1 L808.5 325 L808.5 377 L808.5 377 L808.5 429 L808.5 429 L821.9953271594288 438.36092057301425 L822.0 438.4 " fill="none"></path>
					<g fill="#eee8d5">
						<path d="M826.6 448.1 L822.0 438.4 L832.7 439.3 L837.3 449.0 Z"></path>
					</g>
					<path d="M672.2 285.6 L664.5 289.1 L669.6 295.9 L658.0 287.5 Z"></path>
					<text x="979.8" y="337.0" stroke="none">uses</text>
					<path d="M664.6 279.4 L971.75 325 L971.75 326.3333333333333 L971.8 326.3 " fill="none"></path>
					<g fill="#eee8d5">
						<path d="M966.4 335.7 L971.8 326.3 L977.1 335.7 L971.8 345.0 Z"></path>
					</g>
					<path d="M672.0 275.1 L664.6 279.4 L670.4 285.7 L658.0 278.4 Z"></path>
					<text x="979.8" y="429.0" stroke="none">extends</text>
					<path d="M971.8 409.0 L971.75 429 L956.6710640775782 440.7880932292548 L956.7 440.8 " fill="none"></path>
					<path d="M953.4 436.6 L956.7 440.8 L960.0 445.0 L946.2 449.0 Z"></path>
					<text x="197.9" y="353.0" stroke="none">implements</text>
					<g stroke-dasharray="6 6">
						<path d="M464.0 287.2 L287.75 325 L287.75 361 L287.8 361.0 " fill="none"></path>
					</g>
					<path d="M465.1 292.4 L464.0 287.2 L462.8 282.0 L477.0 284.4 Z"></path>
					<text x="223.7" y="449.0" stroke="none">extends</text>
					<path d="M287.8 406.3 L287.75 429 L287.75 457 L287.8 457.0 " fill="none"></path>
					<path d="M293.1 406.3 L287.8 406.3 L282.4 406.3 L287.8 393.0 Z"></path>
					<text x="295.8" y="541.0" stroke="none">has
					(generic constraint)</text>
					<path d="M287.8 539.7 L287.75 549 L287.75 578.8333333333334 L287.8 578.8 " fill="none"></path>
					<path d="M282.4 572.2 L287.8 578.8 L293.1 572.2 L287.8 585.5 Z"></path>
					<g fill="#33322E">
						<path d="M293.1 530.3 L287.8 539.7 L282.4 530.3 L287.8 521.0 Z"></path>
					</g>
					<text x="274.3" y="669.5" stroke="none">extends</text>
					<path d="M338.3 649.5 L396 686 L528.2813302518836 717.5895714034349 L528.3 717.6 " fill="none"></path>
					<path d="M527.0 722.8 L528.3 717.6 L529.5 712.4 L541.3 720.7 Z"></path>
					<text x="603.8" y="706.0" stroke="none">has</text>
					<path d="M554.5 311.4 L550.75 325 L550.75 377 L550.75 377 L550.75 429 L550.75 429 L550.75 489 L550.75 489 L550.75 549 L550.75 549 L550.75 617.5 L550.75 617.5 L550.75 686 L550.75 686 L579.9310026729269 704.1436286049286 L579.9 704.1 " fill="none"></path>
					<g fill="#33322E">
						<path d="M585.0 713.6 L579.9 704.1 L590.7 704.5 L595.8 714.0 Z"></path>
					</g>
					<path d="M557.9 319.3 L554.5 311.4 L547.6 316.4 L556.3 305.0 Z"></path>
					<text x="810.6" y="561.0" stroke="none">returns</text>
					<path d="M895.0 535.7 L895 549 L883.2860881580986 557.7934571087151 L883.3 557.8 " fill="none"></path>
					<g fill="#eee8d5">
						<path d="M872.6 559.1 L883.3 557.8 L879.0 567.7 L868.4 569.0 Z"></path>
					</g>
					<path d="M900.3 542.3 L895.0 535.7 L889.7 542.3 L895.0 529.0 Z"></path>
					<text x="666.7" y="706.0" stroke="none">extends</text>
					<path d="M803.8 679.3 L803.75 686 L730.7166666666667 714 L730.7 714.0 " fill="none"></path>
					<path d="M809.1 679.3 L803.8 679.3 L798.4 679.3 L803.8 666.0 Z"></path>
					<text x="347.1" y="577.5" stroke="none">uses</text>
					<path d="M406.7 579.9 L504.25 549 L504.25 489 L504.25 489 L504.25 429 L504.25 429 L504.25 377 L504.25 377 L504.25 325 L504.25 325 L520.4966639295054 309.58814488900674 L520.5 309.6 " fill="none"></path>
					<path d="M519.3 318.0 L520.5 309.6 L512.0 310.3 L525.3 305.0 Z"></path>
					<g fill="#eee8d5">
						<path d="M396.2 577.6 L406.7 579.9 L399.4 587.8 L388.9 585.5 Z"></path>
					</g>
					<g data-name="DataStrategy">
						<g fill="#C9DEEF" stroke="#33322E" data-name="DataStrategy">
							<rect x="111.3" y="72.0" height="113.0" width="538.0" data-name="DataStrategy"></rect>
							<path d="M111.3 104.0 L649.3 104.0" fill="none" data-name="DataStrategy"></path>
						</g>
						<g transform="translate(111.25, 72)" font-family="Helvetica" font-size="12pt" font-weight="bold" font-style="normal" data-name="DataStrategy" data-compartment="0">
							<g transform="translate(8, 8)" fill="#33322E" text-align="center" data-name="DataStrategy" data-compartment="0">
								<text x="261.0" y="14.1" stroke="none" text-anchor="middle" data-name="DataStrategy" data-compartment="0">DataStrategy</text>
								
							</g>
						</g>
						<g transform="translate(111.25, 104)" font-family="Helvetica" font-size="12pt" font-weight="normal" font-style="normal" data-name="DataStrategy" data-compartment="1">
							<g transform="translate(8, 8)" fill="#33322E" text-align="left" data-name="DataStrategy" data-compartment="1">
								<text x="0.0" y="14.1" stroke="none" data-name="DataStrategy" data-compartment="1">+ static IDataStrategy GetStoredDataStrategy(ArgsCode, PropsCode)</text>
								<text x="0.0" y="30.3" stroke="none" data-name="DataStrategy" data-compartment="1">+ static IDataStrategy GetStoredDataStrategy(IDataStrategy)</text>
								<text x="0.0" y="46.5" stroke="none" data-name="DataStrategy" data-compartment="1">+ static IDataStrategy GetStoredDataStrategy(ArgsCode?, IDataStrategy)</text>
								<text x="0.0" y="62.7" stroke="none" data-name="DataStrategy" data-compartment="1">- static readonly HashSet&lt;DataStrategy&gt; DataStrategies</text>
								
							</g>
						</g>
					</g>
					<g data-name="IDataStrategy">
						<g fill="#DCE8CF" stroke="#33322E" data-name="IDataStrategy">
							<rect x="477.0" y="225.0" height="80.0" width="181.0" data-name="IDataStrategy"></rect>
							<path d="M477.0 257.0 L658.0 257.0" fill="none" data-name="IDataStrategy"></path>
						</g>
						<g transform="translate(477, 225)" font-family="Helvetica" font-size="12pt" font-weight="bold" font-style="italic" data-name="IDataStrategy" data-compartment="0">
							<g transform="translate(8, 8)" fill="#33322E" text-align="center" data-name="IDataStrategy" data-compartment="0">
								<text x="82.5" y="14.1" stroke="none" text-anchor="middle" data-name="IDataStrategy" data-compartment="0">IDataStrategy</text>
								
							</g>
						</g>
						<g transform="translate(477, 257)" font-family="Helvetica" font-size="12pt" font-weight="normal" font-style="italic" data-name="IDataStrategy" data-compartment="1">
							<g transform="translate(8, 8)" fill="#33322E" text-align="left" data-name="IDataStrategy" data-compartment="1">
								<text x="0.0" y="14.1" stroke="none" data-name="IDataStrategy" data-compartment="1">ArgsCode ArgsCode</text>
								<text x="0.0" y="30.3" stroke="none" data-name="IDataStrategy" data-compartment="1">PropsCode PropsCode</text>
								
							</g>
						</g>
					</g>
					<g data-name="DynamicDataSource">
						<g fill="#C9DEEF" stroke="#33322E" data-name="DynamicDataSource">
							<rect x="201.8" y="361.0" height="32.0" width="172.0" data-name="DynamicDataSource"></rect>
						</g>
						<g transform="translate(201.75, 361)" font-family="Helvetica" font-size="12pt" font-weight="bold" font-style="italic" data-name="DynamicDataSource" data-compartment="0">
							<g transform="translate(8, 8)" fill="#33322E" text-align="center" data-name="DynamicDataSource" data-compartment="0">
								<text x="78.0" y="14.1" stroke="none" text-anchor="middle" data-name="DynamicDataSource" data-compartment="0">DynamicDataSource</text>
								
							</g>
						</g>
					</g>
					<g data-name="DynamicDataRowSource&lt;TDataRowHolder&gt;">
						<g fill="#C9DEEF" stroke="#33322E" data-name="DynamicDataRowSource&lt;TDataRowHolder&gt;">
							<rect x="111.3" y="457.0" height="64.0" width="353.0" data-name="DynamicDataRowSource&lt;TDataRowHolder&gt;"></rect>
							<path d="M111.3 489.0 L464.3 489.0" fill="none" data-name="DynamicDataRowSource&lt;TDataRowHolder&gt;"></path>
						</g>
						<g transform="translate(111.25, 457)" font-family="Helvetica" font-size="12pt" font-weight="bold" font-style="italic" data-name="DynamicDataRowSource&lt;TDataRowHolder&gt;" data-compartment="0">
							<g transform="translate(8, 8)" fill="#33322E" text-align="center" data-name="DynamicDataRowSource&lt;TDataRowHolder&gt;" data-compartment="0">
								<text x="168.5" y="14.1" stroke="none" text-anchor="middle" data-name="DynamicDataRowSource&lt;TDataRowHolder&gt;" data-compartment="0">DynamicDataRowSource&lt;TDataRowHolder&gt;</text>
								
							</g>
						</g>
						<g transform="translate(111.25, 489)" font-family="Helvetica" font-size="12pt" font-weight="normal" font-style="normal" data-name="DynamicDataRowSource&lt;TDataRowHolder&gt;" data-compartment="1">
							<g transform="translate(8, 8)" fill="#33322E" text-align="left" data-name="DynamicDataRowSource&lt;TDataRowHolder&gt;" data-compartment="1">
								<text x="0.0" y="14.1" stroke="none" data-name="DynamicDataRowSource&lt;TDataRowHolder&gt;" data-compartment="1">&apos;# TDataRowHolder DataHolder</text>
								
							</g>
						</g>
					</g>
					<g data-name="IDataRowHolder&lt;TRow&gt;">
						<g fill="#DCE8CF" stroke="#33322E" data-name="IDataRowHolder&lt;TRow&gt;">
							<rect x="64.8" y="585.5" height="64.0" width="446.0" data-name="IDataRowHolder&lt;TRow&gt;"></rect>
							<path d="M64.8 617.5 L510.8 617.5" fill="none" data-name="IDataRowHolder&lt;TRow&gt;"></path>
						</g>
						<g transform="translate(64.75, 585.5)" font-family="Helvetica" font-size="12pt" font-weight="bold" font-style="italic" data-name="IDataRowHolder&lt;TRow&gt;" data-compartment="0">
							<g transform="translate(8, 8)" fill="#33322E" text-align="center" data-name="IDataRowHolder&lt;TRow&gt;" data-compartment="0">
								<text x="215.0" y="14.1" stroke="none" text-anchor="middle" data-name="IDataRowHolder&lt;TRow&gt;" data-compartment="0">IDataRowHolder&lt;TRow&gt;</text>
								
							</g>
						</g>
						<g transform="translate(64.75, 617.5)" font-family="Helvetica" font-size="12pt" font-weight="normal" font-style="italic" data-name="IDataRowHolder&lt;TRow&gt;" data-compartment="1">
							<g transform="translate(8, 8)" fill="#33322E" text-align="left" data-name="IDataRowHolder&lt;TRow&gt;" data-compartment="1">
								<text x="0.0" y="14.1" stroke="none" data-name="IDataRowHolder&lt;TRow&gt;" data-compartment="1">IDataRowHolder&lt;TRow&gt; GetDataRowHolder(IDataStrategy)</text>
								
							</g>
						</g>
					</g>
					<g data-name="IDataRowHolder">
						<g fill="#DCE8CF" stroke="#33322E" data-name="IDataRowHolder">
							<rect x="541.3" y="714.0" height="64.0" width="212.0" data-name="IDataRowHolder"></rect>
							<path d="M541.3 746.0 L753.3 746.0" fill="none" data-name="IDataRowHolder"></path>
						</g>
						<g transform="translate(541.25, 714)" font-family="Helvetica" font-size="12pt" font-weight="bold" font-style="italic" data-name="IDataRowHolder" data-compartment="0">
							<g transform="translate(8, 8)" fill="#33322E" text-align="center" data-name="IDataRowHolder" data-compartment="0">
								<text x="98.0" y="14.1" stroke="none" text-anchor="middle" data-name="IDataRowHolder" data-compartment="0">IDataRowHolder</text>
								
							</g>
						</g>
						<g transform="translate(541.25, 746)" font-family="Helvetica" font-size="12pt" font-weight="normal" font-style="italic" data-name="IDataRowHolder" data-compartment="1">
							<g transform="translate(8, 8)" fill="#33322E" text-align="left" data-name="IDataRowHolder" data-compartment="1">
								<text x="0.0" y="14.1" stroke="none" data-name="IDataRowHolder" data-compartment="1">IDataStrategy DataStrategy</text>
								
							</g>
						</g>
					</g>
					<g data-name="ITestDataRows">
						<g fill="#DCE8CF" stroke="#33322E" data-name="ITestDataRows">
							<rect x="590.8" y="569.0" height="97.0" width="426.0" data-name="ITestDataRows"></rect>
							<path d="M590.8 601.0 L1016.8 601.0" fill="none" data-name="ITestDataRows"></path>
						</g>
						<g transform="translate(590.75, 569)" font-family="Helvetica" font-size="12pt" font-weight="bold" font-style="italic" data-name="ITestDataRows" data-compartment="0">
							<g transform="translate(8, 8)" fill="#33322E" text-align="center" data-name="ITestDataRows" data-compartment="0">
								<text x="205.0" y="14.1" stroke="none" text-anchor="middle" data-name="ITestDataRows" data-compartment="0">ITestDataRows</text>
								
							</g>
						</g>
						<g transform="translate(590.75, 601)" font-family="Helvetica" font-size="12pt" font-weight="normal" font-style="italic" data-name="ITestDataRows" data-compartment="1">
							<g transform="translate(8, 8)" fill="#33322E" text-align="left" data-name="ITestDataRows" data-compartment="1">
								<text x="0.0" y="14.1" stroke="none" data-name="ITestDataRows" data-compartment="1">IDataStrategy GetDataStrategy(ArgsCode?)</text>
								<text x="0.0" y="30.3" stroke="none" data-name="ITestDataRows" data-compartment="1">IDataStrategy GetDataStrategy(ArgsCode?, PropsCode?)</text>
								<text x="0.0" y="46.5" stroke="none" data-name="ITestDataRows" data-compartment="1">IEnumerable&lt;ITestDataRow&gt;? GetTestDataRows()</text>
								
							</g>
						</g>
					</g>
					<g data-name="ITestDataRow">
						<g fill="#DCE8CF" stroke="#33322E" data-name="ITestDataRow">
							<rect x="746.0" y="449.0" height="80.0" width="298.0" data-name="ITestDataRow"></rect>
							<path d="M746.0 481.0 L1044.0 481.0" fill="none" data-name="ITestDataRow"></path>
						</g>
						<g transform="translate(746, 449)" font-family="Helvetica" font-size="12pt" font-weight="bold" font-style="italic" data-name="ITestDataRow" data-compartment="0">
							<g transform="translate(8, 8)" fill="#33322E" text-align="center" data-name="ITestDataRow" data-compartment="0">
								<text x="141.0" y="14.1" stroke="none" text-anchor="middle" data-name="ITestDataRow" data-compartment="0">ITestDataRow</text>
								
							</g>
						</g>
						<g transform="translate(746, 481)" font-family="Helvetica" font-size="12pt" font-weight="normal" font-style="italic" data-name="ITestDataRow" data-compartment="1">
							<g transform="translate(8, 8)" fill="#33322E" text-align="left" data-name="ITestDataRow" data-compartment="1">
								<text x="0.0" y="14.1" stroke="none" data-name="ITestDataRow" data-compartment="1">object?array GetParams(IDataStrategy)</text>
								<text x="0.0" y="30.3" stroke="none" data-name="ITestDataRow" data-compartment="1">ITestData GetTestData()</text>
								
							</g>
						</g>
					</g>
					<g data-name="ITestDataRow&lt;TRow&gt;">
						<g fill="#DCE8CF" stroke="#33322E" data-name="ITestDataRow&lt;TRow&gt;">
							<rect x="858.3" y="345.0" height="64.0" width="227.0" data-name="ITestDataRow&lt;TRow&gt;"></rect>
							<path d="M858.3 377.0 L1085.3 377.0" fill="none" data-name="ITestDataRow&lt;TRow&gt;"></path>
						</g>
						<g transform="translate(858.25, 345)" font-family="Helvetica" font-size="12pt" font-weight="bold" font-style="italic" data-name="ITestDataRow&lt;TRow&gt;" data-compartment="0">
							<g transform="translate(8, 8)" fill="#33322E" text-align="center" data-name="ITestDataRow&lt;TRow&gt;" data-compartment="0">
								<text x="105.5" y="14.1" stroke="none" text-anchor="middle" data-name="ITestDataRow&lt;TRow&gt;" data-compartment="0">ITestDataRow&lt;TRow&gt;</text>
								
							</g>
						</g>
						<g transform="translate(858.25, 377)" font-family="Helvetica" font-size="12pt" font-weight="normal" font-style="italic" data-name="ITestDataRow&lt;TRow&gt;" data-compartment="1">
							<g transform="translate(8, 8)" fill="#33322E" text-align="left" data-name="ITestDataRow&lt;TRow&gt;" data-compartment="1">
								<text x="0.0" y="14.1" stroke="none" data-name="ITestDataRow&lt;TRow&gt;" data-compartment="1">TRow Convert(IDataStrategy)</text>
								
							</g>
						</g>
					</g>
					<g data-name="DataRowHolder&lt;TRow&gt;">
						<g fill="#C9DEEF" stroke="#33322E" data-name="DataRowHolder&lt;TRow&gt;">
							<rect x="19.0" y="0.0" height="32.0" width="197.0" data-name="DataRowHolder&lt;TRow&gt;"></rect>
						</g>
						<g transform="translate(19, 0)" font-family="Helvetica" font-size="12pt" font-weight="bold" font-style="italic" data-name="DataRowHolder&lt;TRow&gt;" data-compartment="0">
							<g transform="translate(8, 8)" fill="#33322E" text-align="center" data-name="DataRowHolder&lt;TRow&gt;" data-compartment="0">
								<text x="90.5" y="14.1" stroke="none" text-anchor="middle" data-name="DataRowHolder&lt;TRow&gt;" data-compartment="0">DataRowHolder&lt;TRow&gt;</text>
								
							</g>
						</g>
					</g>
					<g data-name="IRows&lt;TRow&gt;">
						<g fill="#DCE8CF" stroke="#33322E" data-name="IRows&lt;TRow&gt;">
							<rect x="0.0" y="706.0" height="80.0" width="435.0" data-name="IRows&lt;TRow&gt;"></rect>
							<path d="M0.0 738.0 L435.0 738.0" fill="none" data-name="IRows&lt;TRow&gt;"></path>
						</g>
						<g transform="translate(0, 706)" font-family="Helvetica" font-size="12pt" font-weight="bold" font-style="italic" data-name="IRows&lt;TRow&gt;" data-compartment="0">
							<g transform="translate(8, 8)" fill="#33322E" text-align="center" data-name="IRows&lt;TRow&gt;" data-compartment="0">
								<text x="209.5" y="14.1" stroke="none" text-anchor="middle" data-name="IRows&lt;TRow&gt;" data-compartment="0">IRows&lt;TRow&gt;</text>
								
							</g>
						</g>
						<g transform="translate(0, 738)" font-family="Helvetica" font-size="12pt" font-weight="normal" font-style="italic" data-name="IRows&lt;TRow&gt;" data-compartment="1">
							<g transform="translate(8, 8)" fill="#33322E" text-align="left" data-name="IRows&lt;TRow&gt;" data-compartment="1">
								<text x="0.0" y="14.1" stroke="none" data-name="IRows&lt;TRow&gt;" data-compartment="1">IEnumerable&lt;TRow&gt;? GetRows(ArgsCode?)</text>
								<text x="0.0" y="30.3" stroke="none" data-name="IRows&lt;TRow&gt;" data-compartment="1">IEnumerable&lt;TRow&gt;? GetRows(ArgsCode?, PropsCode?)</text>
								
							</g>
						</g>
					</g>
					<g data-name="IEquatable&lt;IDataStrategy&gt;">
						<g fill="#DCE8CF" stroke="#33322E" data-name="IEquatable&lt;IDataStrategy&gt;">
							<rect x="691.8" y="96.5" height="64.0" width="219.0" data-name="IEquatable&lt;IDataStrategy&gt;"></rect>
							<path d="M691.8 128.5 L910.8 128.5" fill="none" data-name="IEquatable&lt;IDataStrategy&gt;"></path>
						</g>
						<g transform="translate(691.75, 96.5)" font-family="Helvetica" font-size="12pt" font-weight="bold" font-style="italic" data-name="IEquatable&lt;IDataStrategy&gt;" data-compartment="0">
							<g transform="translate(8, 8)" fill="#33322E" text-align="center" data-name="IEquatable&lt;IDataStrategy&gt;" data-compartment="0">
								<text x="101.5" y="14.1" stroke="none" text-anchor="middle" data-name="IEquatable&lt;IDataStrategy&gt;" data-compartment="0">IEquatable&lt;IDataStrategy&gt;</text>
								
							</g>
						</g>
						<g transform="translate(691.75, 128.5)" font-family="Helvetica" font-size="12pt" font-weight="normal" font-style="italic" data-name="IEquatable&lt;IDataStrategy&gt;" data-compartment="1">
							<g transform="translate(8, 8)" fill="#33322E" text-align="left" data-name="IEquatable&lt;IDataStrategy&gt;" data-compartment="1">
								<text x="0.0" y="14.1" stroke="none" data-name="IEquatable&lt;IDataStrategy&gt;" data-compartment="1">bool Equals(IDataStrategy?)</text>
								
							</g>
						</g>
					</g>
				</g>
			</g>
		</g>
	</g>
</svg>