<svg version="1.1" baseProfile="full" width="3405.0" height="760.0" viewBox="0 0 3405 760" xmlns="http://www.w3.org/2000/svg" xmlns:xlink="http://www.w3.org/1999/xlink" xmlns:ev="http://www.w3.org/2001/xml-events">
	<title >CsabaDu_DynamicTestData_Associations_simplified_horizontal</title>
	<desc >
	
	#title: CsabaDu_DynamicTestData_Associations_simplified_horizontal
	#direction: right
	#.contract: fill=#DCE8CF title=center,italic,bold body=left,italic visual=class
	#.concrete: fill=#C9DEEF title=center,bold body=left visual=class
	#.abstract: fill=#C9DEEF title=center,bold,italic body=left visual=class
	
	
	[&lt;concrete&gt;
	DataStrategy]
	
	[&lt;contract&gt;
	IEquatable&lt;INamedTestCase&gt;]
	
	
	[&lt;contract&gt;
	IEquatable&lt;IDataStrategy&gt;]
	
	[&lt;contract&gt;
	IDataStrategy]
	
	[&lt;abstract&gt;
	DynamicDataSource]
	
	[&lt;abstract&gt;
	DynamicDataSource&lt;TDataHolder&gt;]
	
	[&lt;abstract&gt;
	DynamicDataRowSource&lt;TDataRowHolder, TRow&gt;]
	
	[&lt;abstract&gt;
	DynamicDataSource]
	
	[&lt;contract&gt;
	IDataRowHolder&lt;TRow&gt;]
	
	[&lt;contract&gt;
	IAddTestData&lt;TTestData&gt;]
	
	[&lt;contract&gt;
	IDataRowHolder&lt;TRow, TTestData&gt;]
	
	[&lt;contract&gt;
	IDataRowHolder]
	
	[&lt;contract&gt;
	ITestDataRows]
	
	[&lt;contract&gt;
	ITestDataRow]
	
	[&lt;contract&gt;
	ITestDataRow&lt;TRow&gt;]
	
	[&lt;abstract&gt;
	DataRowHolder&lt;TRow&gt;]
	
	[&lt;abstract&gt;
	DataRowHolder&lt;TRow, TTestData&gt;]
	
	[&lt;contract&gt;
	IRows&lt;TRow&gt;]
	
	[&lt;contract&gt;
	ITestDataRowFactory&lt;TRow, TTestData&gt;]
	
	[&lt;contract&gt;
	ITestDataRow&lt;TRow, TTestData&gt;]
	
	[&lt;abstract&gt;
	TestDataRow&lt;TRow&gt;]
	
	[&lt;abstract&gt;
	TestDataRow&lt;TRow, TTestData&gt;]
	
	[&lt;contract&gt;
	INamedTestCase]
	
	[&lt;contract&gt;
	ITestData]
	
	[&lt;concrete&gt;
	TTestData
	(concrete generic records)]
	
	[&lt;contract&gt;
	ITestDataRow&lt;TRow&gt;]
	
	[&lt;contract&gt;
	IReadonlyCollection&lt;ITestDataRow&gt;]
	
	[IDataStrategy] &lt;-o returns, uses
	[DataRowHolder&lt;TRow&gt;]
	[IDataStrategy]
	
	
	
	[IDataStrategy] &lt;-- implements
	[DataStrategy] uses (as DataStrategy cache) &lt;-o
	[DataRowHolder&lt;TRow&gt;]
	
	
	[DynamicDataRowSource&lt;TDataRowHolder, TRow&gt;] has
	(generic constraint) +-&gt;
	[IDataRowHolder]
	
	
	[IDataStrategy] has &lt;-+
	[IDataRowHolder]
	[IEquatable&lt;IDataStrategy&gt;] &lt;:- extends
	[IDataStrategy] &lt;:-- implements
	[DynamicDataSource] &lt;:- extends
	[DynamicDataSource&lt;TDataHolder&gt;] &lt;:- extends
	[DynamicDataRowSource&lt;TDataRowHolder, TRow&gt;] o-&gt; uses
	[TTestData]
	
	
	
	
	[IDataRowHolder] extends &lt;:-
	[IDataRowHolder&lt;TRow&gt;]
	
	
	
	[IDataRowHolder&lt;TRow&gt;] &lt;:-- implements
	[DataRowHolder&lt;TRow&gt;] extends &lt;:-
	[DataRowHolder&lt;TRow, TTestData&gt;]
	
	[IDataRowHolder&lt;TRow&gt;] &lt;:- extends
	[IDataRowHolder&lt;TRow, TTestData&gt;] implements &lt;:--
	[DataRowHolder&lt;TRow, TTestData&gt;]
	
	[ITestDataRows] extends &lt;:-
	[IDataRowHolder]
	
	
	
	
	[IDataRowHolder&lt;TRow, TTestData&gt;] -:&gt; extends
	[IReadonlyCollection&lt;ITestDataRow&gt;]
	[IDataRowHolder&lt;TRow, TTestData&gt;]
	
	
	
	[IDataRowHolder&lt;TRow, TTestData&gt;] extends &lt;:-
	[ITestDataRowFactory&lt;TRow, TTestData&gt;]
	
	[DynamicDataSource&lt;TDataHolder&gt;] uses o-&gt;
	[TTestData]
	
	[IDataRowHolder&lt;TRow, TTestData&gt;] o-&gt; uses
	[TTestData]
	
	
	[IDataStrategy] &lt;-o returns
	[ITestDataRows]
	
	[ITestDataRows] o-&gt; returns
	[ITestDataRow]
	
	
	
	[IRows&lt;TRow&gt;]
	[IDataRowHolder&lt;TRow&gt;] -:&gt; extends
	[IRows&lt;TRow&gt;]
	
	[INamedTestCase] -:&gt; extends
	[IEquatable&lt;INamedTestCase&gt;]
	
	
	[ITestDataRow] extends -:&gt;
	[INamedTestCase] &lt;:- extends
	[ITestData]
	
	[ITestData] implements &lt;:--
	[TTestData]
	
	
	
	
	[ITestDataRow] &lt;:- extends
	[ITestDataRow&lt;TRow&gt;] extends &lt;:-
	[ITestDataRow&lt;TRow, TTestData&gt;]
	
	
	[ITestDataRowFactory&lt;TRow, TTestData&gt;] returns o-&gt;
	[ITestDataRow&lt;TRow, TTestData&gt;]
	[ITestDataRowFactory&lt;TRow, TTestData&gt;]
	
	
	[IDataStrategy] &lt;-o uses
	[ITestDataRow]
	
	[TestDataRow&lt;TRow&gt;]
	[ITestDataRow&lt;TRow&gt;] &lt;:-- implements
	[TestDataRow&lt;TRow&gt;]
	
	
	[IAddTestData&lt;TTestData&gt;]
	[IDataRowHolder&lt;TRow, TTestData&gt;] -:&gt; extends
	[IAddTestData&lt;TTestData&gt;]
	
	
	[IAddTestData&lt;TTestData&gt;] uses o-&gt;
	[TTestData]
	
	[TestDataRow&lt;TRow, TTestData&gt;] implements --:&gt;
	[ITestDataRow&lt;TRow, TTestData&gt;]
	[TestDataRow&lt;TRow, TTestData&gt;]
	
	[TestDataRow&lt;TRow&gt;] &lt;:- extends
	[TestDataRow&lt;TRow, TTestData&gt;]
	
	[TTestData] &lt;-o uses
	[ITestDataRowFactory&lt;TRow, TTestData&gt;]
	
	[TTestData] &lt;-+ has
	[ITestDataRow&lt;TRow, TTestData&gt;]
	[TTestData]
	
	
	[DataRowHolder&lt;TRow, TTestData&gt;] has +-&gt;
	[ITestDataRow&lt;TRow, TTestData&gt;]
	
	
	</desc>
	<g stroke-width="1.0" text-align="left" font="12pt Helvetica, Arial, sans-serif" font-size="12pt" font-family="Helvetica" font-weight="bold" font-style="normal">
		<g font-family="Helvetica" font-size="12pt" font-weight="bold" font-style="normal" stroke-width="3.0" stroke-linejoin="round" stroke-linecap="round" stroke="#33322E">
			<g stroke="transparent" fill="transparent">
				<rect x="0.0" y="0.0" height="760.0" width="3405.0" stroke="none"></rect>
			</g>
			<g transform="translate(8, 40)" fill="#33322E">
				<g transform="translate(20, 20)" fill="#33322E" font-family="Helvetica" font-size="12pt" font-weight="normal" font-style="normal">
					<text x="1906.0" y="-8.0" stroke="none">returns, uses</text>
					<path d="M321.8 249.5 L395 -32 L500 -32 L500 -32 L605 -32 L605 -32 L766.5 -32 L766.5 -32 L928 -32 L928 -32 L1149 -32 L1149 -32 L1370 -32 L1370 -32 L1459.5 -32 L1459.5 -32 L1549 -32 L1549 -32 L1669.5 -32 L1669.5 -32 L1790 -32 L1790 -32 L1880.1024352294435 -5.302982154238981 L1880.1 -5.3 " fill="none"></path>
					<g fill="#eee8d5">
						<path d="M1887.5 2.5 L1880.1 -5.3 L1890.6 -7.8 L1898.0 0.0 Z"></path>
					</g>
					<path d="M318.3 241.8 L321.8 249.5 L328.7 244.4 L320.2 256.0 Z"></path>
					<text x="1516.4" y="16.0" stroke="none">implements</text>
					<g stroke-dasharray="6 6">
						<path d="M323.1 249.6 L395 24 L500 24 L500 24 L605 24 L605 24 L766.5 24 L766.5 24 L928 24 L928 24 L1149 24 L1149 24 L1370 24 L1370 24 L1459.5 24 L1459.5 24 L1549 24 L1549 24 L1612.5 24 L1612.5 24.0 " fill="none"></path>
					</g>
					<path d="M320.1 241.7 L323.1 249.6 L330.2 244.9 L321.1 256.0 Z"></path>
					<text x="1734.5" y="44.0" stroke="none">uses (as DataStrategy cache)</text>
					<path d="M1733.2 24.0 L1790 24 L1835.35605254658 21.76019493597136 L1835.4 21.8 " fill="none"></path>
					<g fill="#eee8d5">
						<path d="M1844.9 26.6 L1835.4 21.8 L1844.4 16.0 L1854.0 20.8 Z"></path>
					</g>
					<path d="M1739.8 18.7 L1733.2 24.0 L1739.8 29.3 L1726.5 24.0 Z"></path>
					<text x="1007.7" y="288.0" stroke="none">has
					(generic constraint)</text>
					<path d="M1213.2 289.9 L1370 236 L1430.0958683801439 195.71226700772482 L1430.1 195.7 " fill="none"></path>
					<path d="M1427.5 203.9 L1430.1 195.7 L1421.6 195.0 L1435.6 192.0 Z"></path>
					<g fill="#33322E">
						<path d="M1202.6 287.9 L1213.2 289.9 L1206.1 298.0 L1195.5 296.0 Z"></path>
					</g>
					<text x="286.8" y="248.0" stroke="none">has</text>
					<path d="M324.4 249.8 L395 64 L500 64 L500 64 L605 64 L605 64 L766.5 64 L766.5 64 L928 64 L928 64 L1149 64 L1149 64 L1370 64 L1370 64 L1435.0612523381828 145.41743309359174 L1435.1 145.4 " fill="none"></path>
					<g fill="#33322E">
						<path d="M1436.7 156.0 L1435.1 145.4 L1445.1 149.4 L1446.7 160.0 Z"></path>
					</g>
					<path d="M321.8 241.6 L324.4 249.8 L331.8 245.4 L322.1 256.0 Z"></path>
					<text x="189.1" y="264.0" stroke="none">extends</text>
					<path d="M230.3 272.0 L237 272 L257 272 L257.0 272.0 " fill="none"></path>
					<path d="M230.3 266.7 L230.3 272.0 L230.3 277.3 L217.0 272.0 Z"></path>
					<text x="318.9" y="360.0" stroke="none">implements</text>
					<g stroke-dasharray="6 6">
						<path d="M344.7 296.7 L395 340 L415 340 L415.0 340.0 " fill="none"></path>
					</g>
					<path d="M348.2 292.7 L344.7 296.7 L341.2 300.7 L334.6 288.0 Z"></path>
					<text x="557.1" y="332.0" stroke="none">extends</text>
					<path d="M598.3 340.0 L605 340 L625 340 L625.0 340.0 " fill="none"></path>
					<path d="M598.3 334.7 L598.3 340.0 L598.3 345.3 L585.0 340.0 Z"></path>
					<text x="880.1" y="304.0" stroke="none">extends</text>
					<path d="M871.9 321.7 L928 312 L948 312 L948.0 312.0 " fill="none"></path>
					<path d="M871.0 316.5 L871.9 321.7 L872.8 327.0 L858.8 324.0 Z"></path>
					<text x="2517.0" y="376.0" stroke="none">uses</text>
					<path d="M1240.9 332.0 L1370 360 L1459.5 360 L1459.5 360 L1549 360 L1549 360 L1669.5 360 L1669.5 360 L1790 360 L1790 360 L1952 360 L1952 360 L2114 360 L2114 360 L2279.5 360 L2279.5 360 L2445 360 L2445 360 L2502.757805482873 381.6591770560774 L2502.8 381.7 " fill="none"></path>
					<path d="M2494.6 384.3 L2502.8 381.7 L2498.4 374.3 L2509.0 384.0 Z"></path>
					<g fill="#eee8d5">
						<path d="M1232.9 324.8 L1240.9 332.0 L1230.7 335.2 L1222.7 328.0 Z"></path>
					</g>
					<text x="1537.0" y="196.0" stroke="none">extends</text>
					<path d="M1542.3 176.0 L1549 176 L1569 176 L1569.0 176.0 " fill="none"></path>
					<path d="M1542.3 170.7 L1542.3 176.0 L1542.3 181.3 L1529.0 176.0 Z"></path>
					<text x="1906.0" y="52.0" stroke="none">implements</text>
					<g stroke-dasharray="6 6">
						<path d="M1696.5 150.9 L1790 64 L1898 32 L1898.0 32.0 " fill="none"></path>
					</g>
					<path d="M1692.8 147.0 L1696.5 150.9 L1700.1 154.8 L1686.7 160.0 Z"></path>
					<text x="2058.0" y="8.0" stroke="none">extends</text>
					<path d="M2063.3 16.0 L2114 16 L2169.1666666666665 24 L2169.2 24.0 " fill="none"></path>
					<path d="M2063.3 10.7 L2063.3 16.0 L2063.3 21.3 L2050.0 16.0 Z"></path>
					<text x="1742.1" y="216.0" stroke="none">extends</text>
					<path d="M1779.1 194.2 L1790 196 L1810 196 L1810.0 196.0 " fill="none"></path>
					<path d="M1779.9 188.9 L1779.1 194.2 L1778.2 199.4 L1765.9 192.0 Z"></path>
					<text x="1874.4" y="172.0" stroke="none">implements</text>
					<g stroke-dasharray="6 6">
						<path d="M1980.6 171.3 L2114 56 L2139.5 53.53474320241692 L2139.5 53.5 " fill="none"></path>
					</g>
					<path d="M1977.1 167.2 L1980.6 171.3 L1984.1 175.3 L1970.5 180.0 Z"></path>
					<text x="1145.6" y="476.3" stroke="none">extends</text>
					<path d="M1226.6 482.0 L1370 456 L1454.3857142857144 192 L1454.4 192.0 " fill="none"></path>
					<path d="M1225.7 476.7 L1226.6 482.0 L1227.6 487.2 L1213.5 484.3 Z"></path>
					<text x="2066.1" y="108.0" stroke="none">extends</text>
					<path d="M1984.4 180.0 L2114 116 L2120.6666666666665 116 L2120.7 116.0 " fill="none"></path>
					<path d="M2120.7 121.3 L2120.7 116.0 L2120.7 110.7 L2134.0 116.0 Z"></path>
					<text x="1992.1" y="172.0" stroke="none">extends</text>
					<path d="M2073.2 178.0 L2114 172 L2279.5 172 L2279.5 172 L2445 172 L2445 172 L2573 172 L2573 172 L2701 172 L2701 172 L2809.9 196 L2809.9 196.0 " fill="none"></path>
					<path d="M2072.4 172.8 L2073.2 178.0 L2074.0 183.3 L2060.0 180.0 Z"></path>
					<text x="756.4" y="376.0" stroke="none">uses</text>
					<path d="M817.4 363.9 L928 416 L1149 416 L1149 416 L1370 416 L1370 416 L1459.5 416 L1459.5 416 L1549 416 L1549 416 L1669.5 416 L1669.5 416 L1790 416 L1790 416 L1952 416 L1952 416 L2114 416 L2114 416 L2279.5 416 L2279.5 416 L2445 416 L2445 416 L2458.3463161434474 415.16585524103454 L2458.3 415.2 " fill="none"></path>
					<path d="M2452.0 420.9 L2458.3 415.2 L2451.4 410.3 L2465.0 414.8 Z"></path>
					<g fill="#eee8d5">
						<path d="M811.2 355.1 L817.4 363.9 L806.7 364.8 L800.5 356.0 Z"></path>
					</g>
					<text x="2564.7" y="376.0" stroke="none">uses</text>
					<path d="M2078.5 214.7 L2114 220 L2279.5 220 L2279.5 220 L2445 220 L2445 220 L2552.9076346208712 378.4893383494052 L2552.9 378.5 " fill="none"></path>
					<path d="M2544.7 376.0 L2552.9 378.5 L2553.6 370.0 L2556.7 384.0 Z"></path>
					<g fill="#eee8d5">
						<path d="M2070.0 208.1 L2078.5 214.7 L2068.5 218.6 L2060.0 212.0 Z"></path>
					</g>
					<text x="1021.8" y="516.0" stroke="none">returns</text>
					<path d="M323.9 294.3 L395 496 L500 496 L500 496 L605 496 L605 496 L766.5 496 L766.5 496 L928 496 L928 496 L1065.8333333333333 496 L1065.8 496.0 " fill="none"></path>
					<g fill="#eee8d5">
						<path d="M1075.2 501.3 L1065.8 496.0 L1075.2 490.7 L1084.5 496.0 Z"></path>
					</g>
					<path d="M331.1 298.8 L323.9 294.3 L321.0 302.3 L321.6 288.0 Z"></path>
					<text x="1661.4" y="592.0" stroke="none">returns</text>
					<path d="M1232.2 496.0 L1370 496 L1459.5 496 L1459.5 496 L1549 496 L1549 496 L1648.7094978244224 595.2957654683045 L1648.7 595.3 " fill="none"></path>
					<path d="M1640.2 594.4 L1648.7 595.3 L1647.7 586.8 L1653.4 600.0 Z"></path>
					<g fill="#eee8d5">
						<path d="M1222.8 490.7 L1232.2 496.0 L1222.8 501.3 L1213.5 496.0 Z"></path>
					</g>
					<text x="1821.6" y="312.0" stroke="none">extends</text>
					<path d="M1686.1 192.0 L1790 292 L1876.1666666666667 292 L1876.2 292.0 " fill="none"></path>
					<path d="M1876.2 297.3 L1876.2 292.0 L1876.2 286.7 L1889.5 292.0 Z"></path>
					<text x="2091.1" y="464.0" stroke="none">extends</text>
					<path d="M1988.0 528.0 L2114 472 L2145.6666666666665 472 L2145.7 472.0 " fill="none"></path>
					<path d="M2145.7 477.3 L2145.7 472.0 L2145.7 466.7 L2159.0 472.0 Z"></path>
					<text x="1628.4" y="592.0" stroke="none">extends</text>
					<path d="M1696.3 600.0 L1790 544 L1867.1666666666667 544 L1867.2 544.0 " fill="none"></path>
					<path d="M1867.2 549.3 L1867.2 544.0 L1867.2 538.7 L1880.5 544.0 Z"></path>
					<text x="2168.6" y="536.0" stroke="none">extends</text>
					<path d="M2036.8 544.0 L2114 544 L2236.5 544 L2236.5 544.0 " fill="none"></path>
					<path d="M2036.8 538.7 L2036.8 544.0 L2036.8 549.3 L2023.5 544.0 Z"></path>
					<text x="2330.5" y="564.0" stroke="none">implements</text>
					<g stroke-dasharray="6 6">
						<path d="M2335.8 544.0 L2445 544 L2550.4117647058824 432 L2550.4 432.0 " fill="none"></path>
					</g>
					<path d="M2335.8 538.7 L2335.8 544.0 L2335.8 549.3 L2322.5 544.0 Z"></path>
					<text x="2120.6" y="672.0" stroke="none">extends</text>
					<path d="M1735.8 635.8 L1790 652 L1952 652 L1952 652 L2114 652 L2114 652 L2188.5 652 L2188.5 652.0 " fill="none"></path>
					<path d="M1737.4 630.7 L1735.8 635.8 L1734.3 640.9 L1723.1 632.0 Z"></path>
					<text x="2258.9" y="628.0" stroke="none">extends</text>
					<path d="M2339.4 631.7 L2445 596 L2573 596 L2573 596 L2701 596 L2701 596 L2882.5 596 L2882.5 596 L3064 596 L3064 596 L3187.4523809523807 528 L3187.5 528.0 " fill="none"></path>
					<path d="M2337.7 626.7 L2339.4 631.7 L2341.1 636.8 L2326.8 636.0 Z"></path>
					<text x="3052.0" y="204.0" stroke="none">returns</text>
					<path d="M3062.7 212.0 L3064 212 L3205.3456891313476 490.0570933731429 L3205.3 490.1 " fill="none"></path>
					<path d="M3197.6 486.5 L3205.3 490.1 L3207.1 481.7 L3208.4 496.0 Z"></path>
					<g fill="#eee8d5">
						<path d="M3053.3 206.7 L3062.7 212.0 L3053.3 217.3 L3044.0 212.0 Z"></path>
					</g>
					<text x="1617.5" y="646.0" stroke="none">uses</text>
					<path d="M320.9 294.5 L395 636 L500 636 L500 636 L605 636 L605 636 L766.5 636 L766.5 636 L928 636 L928 636 L1149 636 L1149 636 L1370 636 L1370 636 L1459.5 636 L1459.5 636 L1549 636 L1549 636 L1591.0852524628378 629.0148958567904 L1591.1 629.0 " fill="none"></path>
					<g fill="#eee8d5">
						<path d="M1601.2 632.7 L1591.1 629.0 L1599.4 622.2 L1609.5 626.0 Z"></path>
					</g>
					<path d="M327.5 299.9 L320.9 294.5 L317.1 302.2 L319.5 288.0 Z"></path>
					<text x="2388.4" y="644.0" stroke="none">implements</text>
					<g stroke-dasharray="6 6">
						<path d="M2383.8 652.0 L2445 652 L2484.5 652 L2484.5 652.0 " fill="none"></path>
					</g>
					<path d="M2383.8 646.7 L2383.8 652.0 L2383.8 657.3 L2370.5 652.0 Z"></path>
					<text x="2106.1" y="296.0" stroke="none">extends</text>
					<path d="M1984.4 212.0 L2114 276 L2160.6666666666665 276 L2160.7 276.0 " fill="none"></path>
					<path d="M2160.7 281.3 L2160.7 276.0 L2160.7 270.7 L2174.0 276.0 Z"></path>
					<text x="2393.0" y="268.0" stroke="none">uses</text>
					<path d="M2403.7 276.0 L2445 276 L2545.086300486781 379.21399737699295 L2545.1 379.2 " fill="none"></path>
					<path d="M2536.6 378.1 L2545.1 379.2 L2544.3 370.7 L2549.7 384.0 Z"></path>
					<g fill="#eee8d5">
						<path d="M2394.3 270.7 L2403.7 276.0 L2394.3 281.3 L2385.0 276.0 Z"></path>
					</g>
					<text x="3021.0" y="672.0" stroke="none">implements</text>
					<g stroke-dasharray="6 6">
						<path d="M3013.0 652.0 L3064 652 L3189.2493931300537 537.016950569131 L3189.2 537.0 " fill="none"></path>
					</g>
					<path d="M3192.9 540.9 L3189.2 537.0 L3185.6 533.1 L3199.1 528.0 Z"></path>
					<text x="2684.1" y="644.0" stroke="none">extends</text>
					<path d="M2674.8 652.0 L2701 652 L2752 652 L2752.0 652.0 " fill="none"></path>
					<path d="M2674.8 646.7 L2674.8 652.0 L2674.8 657.3 L2661.5 652.0 Z"></path>
					<text x="2729.0" y="239.1" stroke="none">uses</text>
					<path d="M2593.1 378.5 L2701 220 L2702.3514396973014 219.9404324100363 L2702.4 219.9 " fill="none"></path>
					<g fill="#eee8d5">
						<path d="M2711.9 224.9 L2702.4 219.9 L2711.4 214.2 L2721.0 219.1 Z"></path>
					</g>
					<path d="M2592.4 370.0 L2593.1 378.5 L2601.3 376.0 L2589.3 384.0 Z"></path>
					<text x="3148.3" y="548.0" stroke="none">has</text>
					<path d="M2600.2 436.9 L2701 544 L2882.5 544 L2882.5 544 L3064 544 L3064 544 L3121.981199260181 531.8334532699948 L3122.0 531.8 " fill="none"></path>
					<g fill="#33322E">
						<path d="M3132.2 535.1 L3122.0 531.8 L3130.0 524.7 L3140.3 528.0 Z"></path>
					</g>
					<path d="M2608.6 438.1 L2600.2 436.9 L2600.8 445.4 L2595.6 432.0 Z"></path>
					<text x="2427.5" y="32.0" stroke="none">has</text>
					<path d="M2438.2 40.0 L2445 40 L2573 40 L2573 40 L2701 40 L2701 40 L2882.5 40 L2882.5 40 L3064 40 L3064 40 L3209.280878306159 489.6562266262768 L3209.3 489.7 " fill="none"></path>
					<path d="M3202.2 485.0 L3209.3 489.7 L3212.3 481.7 L3211.3 496.0 Z"></path>
					<g fill="#33322E">
						<path d="M2428.8 34.7 L2438.2 40.0 L2428.8 45.3 L2419.5 40.0 Z"></path>
					</g>
					<g data-name="DataStrategy">
						<g fill="#C9DEEF" stroke="#33322E" data-name="DataStrategy">
							<rect x="1612.5" y="8.0" height="32.0" width="114.0" data-name="DataStrategy"></rect>
						</g>
						<g transform="translate(1612.5, 8)" font-family="Helvetica" font-size="12pt" font-weight="bold" font-style="normal" data-name="DataStrategy" data-compartment="0">
							<g transform="translate(8, 8)" fill="#33322E" text-align="center" data-name="DataStrategy" data-compartment="0">
								<text x="49.0" y="14.1" stroke="none" text-anchor="middle" data-name="DataStrategy" data-compartment="0">DataStrategy</text>
								
							</g>
						</g>
					</g>
					<g data-name="IEquatable&lt;INamedTestCase&gt;">
						<g fill="#DCE8CF" stroke="#33322E" data-name="IEquatable&lt;INamedTestCase&gt;">
							<rect x="2159.0" y="456.0" height="32.0" width="241.0" data-name="IEquatable&lt;INamedTestCase&gt;"></rect>
						</g>
						<g transform="translate(2159, 456)" font-family="Helvetica" font-size="12pt" font-weight="bold" font-style="italic" data-name="IEquatable&lt;INamedTestCase&gt;" data-compartment="0">
							<g transform="translate(8, 8)" fill="#33322E" text-align="center" data-name="IEquatable&lt;INamedTestCase&gt;" data-compartment="0">
								<text x="112.5" y="14.1" stroke="none" text-anchor="middle" data-name="IEquatable&lt;INamedTestCase&gt;" data-compartment="0">IEquatable&lt;INamedTestCase&gt;</text>
								
							</g>
						</g>
					</g>
					<g data-name="IEquatable&lt;IDataStrategy&gt;">
						<g fill="#DCE8CF" stroke="#33322E" data-name="IEquatable&lt;IDataStrategy&gt;">
							<rect x="0.0" y="256.0" height="32.0" width="217.0" data-name="IEquatable&lt;IDataStrategy&gt;"></rect>
						</g>
						<g transform="translate(0, 256)" font-family="Helvetica" font-size="12pt" font-weight="bold" font-style="italic" data-name="IEquatable&lt;IDataStrategy&gt;" data-compartment="0">
							<g transform="translate(8, 8)" fill="#33322E" text-align="center" data-name="IEquatable&lt;IDataStrategy&gt;" data-compartment="0">
								<text x="100.5" y="14.1" stroke="none" text-anchor="middle" data-name="IEquatable&lt;IDataStrategy&gt;" data-compartment="0">IEquatable&lt;IDataStrategy&gt;</text>
								
							</g>
						</g>
					</g>
					<g data-name="IDataStrategy">
						<g fill="#DCE8CF" stroke="#33322E" data-name="IDataStrategy">
							<rect x="257.0" y="256.0" height="32.0" width="118.0" data-name="IDataStrategy"></rect>
						</g>
						<g transform="translate(257, 256)" font-family="Helvetica" font-size="12pt" font-weight="bold" font-style="italic" data-name="IDataStrategy" data-compartment="0">
							<g transform="translate(8, 8)" fill="#33322E" text-align="center" data-name="IDataStrategy" data-compartment="0">
								<text x="51.0" y="14.1" stroke="none" text-anchor="middle" data-name="IDataStrategy" data-compartment="0">IDataStrategy</text>
								
							</g>
						</g>
					</g>
					<g data-name="DynamicDataSource">
						<g fill="#C9DEEF" stroke="#33322E" data-name="DynamicDataSource">
							<rect x="415.0" y="324.0" height="32.0" width="170.0" data-name="DynamicDataSource"></rect>
						</g>
						<g transform="translate(415, 324)" font-family="Helvetica" font-size="12pt" font-weight="bold" font-style="italic" data-name="DynamicDataSource" data-compartment="0">
							<g transform="translate(8, 8)" fill="#33322E" text-align="center" data-name="DynamicDataSource" data-compartment="0">
								<text x="77.0" y="14.1" stroke="none" text-anchor="middle" data-name="DynamicDataSource" data-compartment="0">DynamicDataSource</text>
								
							</g>
						</g>
					</g>
					<g data-name="DynamicDataSource&lt;TDataHolder&gt;">
						<g fill="#C9DEEF" stroke="#33322E" data-name="DynamicDataSource&lt;TDataHolder&gt;">
							<rect x="625.0" y="324.0" height="32.0" width="283.0" data-name="DynamicDataSource&lt;TDataHolder&gt;"></rect>
						</g>
						<g transform="translate(625, 324)" font-family="Helvetica" font-size="12pt" font-weight="bold" font-style="italic" data-name="DynamicDataSource&lt;TDataHolder&gt;" data-compartment="0">
							<g transform="translate(8, 8)" fill="#33322E" text-align="center" data-name="DynamicDataSource&lt;TDataHolder&gt;" data-compartment="0">
								<text x="133.5" y="14.1" stroke="none" text-anchor="middle" data-name="DynamicDataSource&lt;TDataHolder&gt;" data-compartment="0">DynamicDataSource&lt;TDataHolder&gt;</text>
								
							</g>
						</g>
					</g>
					<g data-name="DynamicDataRowSource&lt;TDataRowHolder, TRow&gt;">
						<g fill="#C9DEEF" stroke="#33322E" data-name="DynamicDataRowSource&lt;TDataRowHolder, TRow&gt;">
							<rect x="948.0" y="296.0" height="32.0" width="402.0" data-name="DynamicDataRowSource&lt;TDataRowHolder, TRow&gt;"></rect>
						</g>
						<g transform="translate(948, 296)" font-family="Helvetica" font-size="12pt" font-weight="bold" font-style="italic" data-name="DynamicDataRowSource&lt;TDataRowHolder, TRow&gt;" data-compartment="0">
							<g transform="translate(8, 8)" fill="#33322E" text-align="center" data-name="DynamicDataRowSource&lt;TDataRowHolder, TRow&gt;" data-compartment="0">
								<text x="193.0" y="14.1" stroke="none" text-anchor="middle" data-name="DynamicDataRowSource&lt;TDataRowHolder, TRow&gt;" data-compartment="0">DynamicDataRowSource&lt;TDataRowHolder, TRow&gt;</text>
								
							</g>
						</g>
					</g>
					<g data-name="IDataRowHolder&lt;TRow&gt;">
						<g fill="#DCE8CF" stroke="#33322E" data-name="IDataRowHolder&lt;TRow&gt;">
							<rect x="1569.0" y="160.0" height="32.0" width="201.0" data-name="IDataRowHolder&lt;TRow&gt;"></rect>
						</g>
						<g transform="translate(1569, 160)" font-family="Helvetica" font-size="12pt" font-weight="bold" font-style="italic" data-name="IDataRowHolder&lt;TRow&gt;" data-compartment="0">
							<g transform="translate(8, 8)" fill="#33322E" text-align="center" data-name="IDataRowHolder&lt;TRow&gt;" data-compartment="0">
								<text x="92.5" y="14.1" stroke="none" text-anchor="middle" data-name="IDataRowHolder&lt;TRow&gt;" data-compartment="0">IDataRowHolder&lt;TRow&gt;</text>
								
							</g>
						</g>
					</g>
					<g data-name="IAddTestData&lt;TTestData&gt;">
						<g fill="#DCE8CF" stroke="#33322E" data-name="IAddTestData&lt;TTestData&gt;">
							<rect x="2174.0" y="260.0" height="32.0" width="211.0" data-name="IAddTestData&lt;TTestData&gt;"></rect>
						</g>
						<g transform="translate(2174, 260)" font-family="Helvetica" font-size="12pt" font-weight="bold" font-style="italic" data-name="IAddTestData&lt;TTestData&gt;" data-compartment="0">
							<g transform="translate(8, 8)" fill="#33322E" text-align="center" data-name="IAddTestData&lt;TTestData&gt;" data-compartment="0">
								<text x="97.5" y="14.1" stroke="none" text-anchor="middle" data-name="IAddTestData&lt;TTestData&gt;" data-compartment="0">IAddTestData&lt;TTestData&gt;</text>
								
							</g>
						</g>
					</g>
					<g data-name="IDataRowHolder&lt;TRow, TTestData&gt;">
						<g fill="#DCE8CF" stroke="#33322E" data-name="IDataRowHolder&lt;TRow, TTestData&gt;">
							<rect x="1810.0" y="180.0" height="32.0" width="284.0" data-name="IDataRowHolder&lt;TRow, TTestData&gt;"></rect>
						</g>
						<g transform="translate(1810, 180)" font-family="Helvetica" font-size="12pt" font-weight="bold" font-style="italic" data-name="IDataRowHolder&lt;TRow, TTestData&gt;" data-compartment="0">
							<g transform="translate(8, 8)" fill="#33322E" text-align="center" data-name="IDataRowHolder&lt;TRow, TTestData&gt;" data-compartment="0">
								<text x="134.0" y="14.1" stroke="none" text-anchor="middle" data-name="IDataRowHolder&lt;TRow, TTestData&gt;" data-compartment="0">IDataRowHolder&lt;TRow, TTestData&gt;</text>
								
							</g>
						</g>
					</g>
					<g data-name="IDataRowHolder">
						<g fill="#DCE8CF" stroke="#33322E" data-name="IDataRowHolder">
							<rect x="1390.0" y="160.0" height="32.0" width="139.0" data-name="IDataRowHolder"></rect>
						</g>
						<g transform="translate(1390, 160)" font-family="Helvetica" font-size="12pt" font-weight="bold" font-style="italic" data-name="IDataRowHolder" data-compartment="0">
							<g transform="translate(8, 8)" fill="#33322E" text-align="center" data-name="IDataRowHolder" data-compartment="0">
								<text x="61.5" y="14.1" stroke="none" text-anchor="middle" data-name="IDataRowHolder" data-compartment="0">IDataRowHolder</text>
								
							</g>
						</g>
					</g>
					<g data-name="ITestDataRows">
						<g fill="#DCE8CF" stroke="#33322E" data-name="ITestDataRows">
							<rect x="1084.5" y="480.0" height="32.0" width="129.0" data-name="ITestDataRows"></rect>
						</g>
						<g transform="translate(1084.5, 480)" font-family="Helvetica" font-size="12pt" font-weight="bold" font-style="italic" data-name="ITestDataRows" data-compartment="0">
							<g transform="translate(8, 8)" fill="#33322E" text-align="center" data-name="ITestDataRows" data-compartment="0">
								<text x="56.5" y="14.1" stroke="none" text-anchor="middle" data-name="ITestDataRows" data-compartment="0">ITestDataRows</text>
								
							</g>
						</g>
					</g>
					<g data-name="ITestDataRow">
						<g fill="#DCE8CF" stroke="#33322E" data-name="ITestDataRow">
							<rect x="1609.5" y="600.0" height="32.0" width="120.0" data-name="ITestDataRow"></rect>
						</g>
						<g transform="translate(1609.5, 600)" font-family="Helvetica" font-size="12pt" font-weight="bold" font-style="italic" data-name="ITestDataRow" data-compartment="0">
							<g transform="translate(8, 8)" fill="#33322E" text-align="center" data-name="ITestDataRow" data-compartment="0">
								<text x="52.0" y="14.1" stroke="none" text-anchor="middle" data-name="ITestDataRow" data-compartment="0">ITestDataRow</text>
								
							</g>
						</g>
					</g>
					<g data-name="ITestDataRow&lt;TRow&gt;">
						<g fill="#DCE8CF" stroke="#33322E" data-name="ITestDataRow&lt;TRow&gt;">
							<rect x="2188.5" y="636.0" height="32.0" width="182.0" data-name="ITestDataRow&lt;TRow&gt;"></rect>
						</g>
						<g transform="translate(2188.5, 636)" font-family="Helvetica" font-size="12pt" font-weight="bold" font-style="italic" data-name="ITestDataRow&lt;TRow&gt;" data-compartment="0">
							<g transform="translate(8, 8)" fill="#33322E" text-align="center" data-name="ITestDataRow&lt;TRow&gt;" data-compartment="0">
								<text x="83.0" y="14.1" stroke="none" text-anchor="middle" data-name="ITestDataRow&lt;TRow&gt;" data-compartment="0">ITestDataRow&lt;TRow&gt;</text>
								
							</g>
						</g>
					</g>
					<g data-name="DataRowHolder&lt;TRow&gt;">
						<g fill="#C9DEEF" stroke="#33322E" data-name="DataRowHolder&lt;TRow&gt;">
							<rect x="1854.0" y="0.0" height="32.0" width="196.0" data-name="DataRowHolder&lt;TRow&gt;"></rect>
						</g>
						<g transform="translate(1854, 0)" font-family="Helvetica" font-size="12pt" font-weight="bold" font-style="italic" data-name="DataRowHolder&lt;TRow&gt;" data-compartment="0">
							<g transform="translate(8, 8)" fill="#33322E" text-align="center" data-name="DataRowHolder&lt;TRow&gt;" data-compartment="0">
								<text x="90.0" y="14.1" stroke="none" text-anchor="middle" data-name="DataRowHolder&lt;TRow&gt;" data-compartment="0">DataRowHolder&lt;TRow&gt;</text>
								
							</g>
						</g>
					</g>
					<g data-name="DataRowHolder&lt;TRow, TTestData&gt;">
						<g fill="#C9DEEF" stroke="#33322E" data-name="DataRowHolder&lt;TRow, TTestData&gt;">
							<rect x="2139.5" y="24.0" height="32.0" width="280.0" data-name="DataRowHolder&lt;TRow, TTestData&gt;"></rect>
						</g>
						<g transform="translate(2139.5, 24)" font-family="Helvetica" font-size="12pt" font-weight="bold" font-style="italic" data-name="DataRowHolder&lt;TRow, TTestData&gt;" data-compartment="0">
							<g transform="translate(8, 8)" fill="#33322E" text-align="center" data-name="DataRowHolder&lt;TRow, TTestData&gt;" data-compartment="0">
								<text x="132.0" y="14.1" stroke="none" text-anchor="middle" data-name="DataRowHolder&lt;TRow, TTestData&gt;" data-compartment="0">DataRowHolder&lt;TRow, TTestData&gt;</text>
								
							</g>
						</g>
					</g>
					<g data-name="IRows&lt;TRow&gt;">
						<g fill="#DCE8CF" stroke="#33322E" data-name="IRows&lt;TRow&gt;">
							<rect x="1889.5" y="276.0" height="32.0" width="125.0" data-name="IRows&lt;TRow&gt;"></rect>
						</g>
						<g transform="translate(1889.5, 276)" font-family="Helvetica" font-size="12pt" font-weight="bold" font-style="italic" data-name="IRows&lt;TRow&gt;" data-compartment="0">
							<g transform="translate(8, 8)" fill="#33322E" text-align="center" data-name="IRows&lt;TRow&gt;" data-compartment="0">
								<text x="54.5" y="14.1" stroke="none" text-anchor="middle" data-name="IRows&lt;TRow&gt;" data-compartment="0">IRows&lt;TRow&gt;</text>
								
							</g>
						</g>
					</g>
					<g data-name="ITestDataRowFactory&lt;TRow, TTestData&gt;">
						<g fill="#DCE8CF" stroke="#33322E" data-name="ITestDataRowFactory&lt;TRow, TTestData&gt;">
							<rect x="2721.0" y="196.0" height="32.0" width="323.0" data-name="ITestDataRowFactory&lt;TRow, TTestData&gt;"></rect>
						</g>
						<g transform="translate(2721, 196)" font-family="Helvetica" font-size="12pt" font-weight="bold" font-style="italic" data-name="ITestDataRowFactory&lt;TRow, TTestData&gt;" data-compartment="0">
							<g transform="translate(8, 8)" fill="#33322E" text-align="center" data-name="ITestDataRowFactory&lt;TRow, TTestData&gt;" data-compartment="0">
								<text x="153.5" y="14.1" stroke="none" text-anchor="middle" data-name="ITestDataRowFactory&lt;TRow, TTestData&gt;" data-compartment="0">ITestDataRowFactory&lt;TRow, TTestData&gt;</text>
								
							</g>
						</g>
					</g>
					<g data-name="ITestDataRow&lt;TRow, TTestData&gt;">
						<g fill="#DCE8CF" stroke="#33322E" data-name="ITestDataRow&lt;TRow, TTestData&gt;">
							<rect x="3084.0" y="496.0" height="32.0" width="265.0" data-name="ITestDataRow&lt;TRow, TTestData&gt;"></rect>
						</g>
						<g transform="translate(3084, 496)" font-family="Helvetica" font-size="12pt" font-weight="bold" font-style="italic" data-name="ITestDataRow&lt;TRow, TTestData&gt;" data-compartment="0">
							<g transform="translate(8, 8)" fill="#33322E" text-align="center" data-name="ITestDataRow&lt;TRow, TTestData&gt;" data-compartment="0">
								<text x="124.5" y="14.1" stroke="none" text-anchor="middle" data-name="ITestDataRow&lt;TRow, TTestData&gt;" data-compartment="0">ITestDataRow&lt;TRow, TTestData&gt;</text>
								
							</g>
						</g>
					</g>
					<g data-name="TestDataRow&lt;TRow&gt;">
						<g fill="#C9DEEF" stroke="#33322E" data-name="TestDataRow&lt;TRow&gt;">
							<rect x="2484.5" y="636.0" height="32.0" width="177.0" data-name="TestDataRow&lt;TRow&gt;"></rect>
						</g>
						<g transform="translate(2484.5, 636)" font-family="Helvetica" font-size="12pt" font-weight="bold" font-style="italic" data-name="TestDataRow&lt;TRow&gt;" data-compartment="0">
							<g transform="translate(8, 8)" fill="#33322E" text-align="center" data-name="TestDataRow&lt;TRow&gt;" data-compartment="0">
								<text x="80.5" y="14.1" stroke="none" text-anchor="middle" data-name="TestDataRow&lt;TRow&gt;" data-compartment="0">TestDataRow&lt;TRow&gt;</text>
								
							</g>
						</g>
					</g>
					<g data-name="TestDataRow&lt;TRow, TTestData&gt;">
						<g fill="#C9DEEF" stroke="#33322E" data-name="TestDataRow&lt;TRow, TTestData&gt;">
							<rect x="2752.0" y="636.0" height="32.0" width="261.0" data-name="TestDataRow&lt;TRow, TTestData&gt;"></rect>
						</g>
						<g transform="translate(2752, 636)" font-family="Helvetica" font-size="12pt" font-weight="bold" font-style="italic" data-name="TestDataRow&lt;TRow, TTestData&gt;" data-compartment="0">
							<g transform="translate(8, 8)" fill="#33322E" text-align="center" data-name="TestDataRow&lt;TRow, TTestData&gt;" data-compartment="0">
								<text x="122.5" y="14.1" stroke="none" text-anchor="middle" data-name="TestDataRow&lt;TRow, TTestData&gt;" data-compartment="0">TestDataRow&lt;TRow, TTestData&gt;</text>
								
							</g>
						</g>
					</g>
					<g data-name="INamedTestCase">
						<g fill="#DCE8CF" stroke="#33322E" data-name="INamedTestCase">
							<rect x="1880.5" y="528.0" height="32.0" width="143.0" data-name="INamedTestCase"></rect>
						</g>
						<g transform="translate(1880.5, 528)" font-family="Helvetica" font-size="12pt" font-weight="bold" font-style="italic" data-name="INamedTestCase" data-compartment="0">
							<g transform="translate(8, 8)" fill="#33322E" text-align="center" data-name="INamedTestCase" data-compartment="0">
								<text x="63.5" y="14.1" stroke="none" text-anchor="middle" data-name="INamedTestCase" data-compartment="0">INamedTestCase</text>
								
							</g>
						</g>
					</g>
					<g data-name="ITestData">
						<g fill="#DCE8CF" stroke="#33322E" data-name="ITestData">
							<rect x="2236.5" y="528.0" height="32.0" width="86.0" data-name="ITestData"></rect>
						</g>
						<g transform="translate(2236.5, 528)" font-family="Helvetica" font-size="12pt" font-weight="bold" font-style="italic" data-name="ITestData" data-compartment="0">
							<g transform="translate(8, 8)" fill="#33322E" text-align="center" data-name="ITestData" data-compartment="0">
								<text x="35.0" y="14.1" stroke="none" text-anchor="middle" data-name="ITestData" data-compartment="0">ITestData</text>
								
							</g>
						</g>
					</g>
					<g data-name="TTestData">
						<g fill="#C9DEEF" stroke="#33322E" data-name="TTestData">
							<rect x="2465.0" y="384.0" height="48.0" width="216.0" data-name="TTestData"></rect>
						</g>
						<g transform="translate(2465, 384)" font-family="Helvetica" font-size="12pt" font-weight="bold" font-style="normal" data-name="TTestData" data-compartment="0">
							<g transform="translate(8, 8)" fill="#33322E" text-align="center" data-name="TTestData" data-compartment="0">
								<text x="100.0" y="14.1" stroke="none" text-anchor="middle" data-name="TTestData" data-compartment="0">TTestData</text>
								<text x="100.0" y="30.3" stroke="none" text-anchor="middle" data-name="TTestData" data-compartment="0">(concrete generic records)</text>
								
							</g>
						</g>
					</g>
					<g data-name="IReadonlyCollection&lt;ITestDataRow&gt;">
						<g fill="#DCE8CF" stroke="#33322E" data-name="IReadonlyCollection&lt;ITestDataRow&gt;">
							<rect x="2134.0" y="100.0" height="32.0" width="291.0" data-name="IReadonlyCollection&lt;ITestDataRow&gt;"></rect>
						</g>
						<g transform="translate(2134, 100)" font-family="Helvetica" font-size="12pt" font-weight="bold" font-style="italic" data-name="IReadonlyCollection&lt;ITestDataRow&gt;" data-compartment="0">
							<g transform="translate(8, 8)" fill="#33322E" text-align="center" data-name="IReadonlyCollection&lt;ITestDataRow&gt;" data-compartment="0">
								<text x="137.5" y="14.1" stroke="none" text-anchor="middle" data-name="IReadonlyCollection&lt;ITestDataRow&gt;" data-compartment="0">IReadonlyCollection&lt;ITestDataRow&gt;</text>
								
							</g>
						</g>
					</g>
				</g>
			</g>
		</g>
	</g>
</svg>