<svg version="1.1" baseProfile="full" width="1193.3" height="826.0" viewBox="0 0 1193.25 826" xmlns="http://www.w3.org/2000/svg" xmlns:xlink="http://www.w3.org/1999/xlink" xmlns:ev="http://www.w3.org/2001/xml-events">
	<title >CsabaDu_DynamicTestData_Pattern_Strategy</title>
	<desc >
	
	#title: CsabaDu_DynamicTestData_Pattern_Strategy
	#direction: down
	#.contract: fill=#DCE8CF title=center,italic,bold body=left,italic visual=class
	#.concrete: fill=#C9DEEF title=center,bold body=left visual=class
	#.abstract: fill=#C9DEEF title=center,bold,italic body=left visual=class
	
	[&lt;concrete&gt; DataStrategy |
	+ static IDataStrategy GetStoredDataStrategy(ArgsCode, PropsCode)
	+ static IDataStrategy GetStoredDataStrategy(IDataStrategy)
	+ static IDataStrategy GetStoredDataStrategy(ArgsCode?, IDataStrategy)
	- static readonly HashSet&lt;DataStrategy&gt; DataStrategies]
	[&lt;contract&gt; IDataStrategy |
	ArgsCode ArgsCode
	PropsCode PropsCode]
	[&lt;abstract&gt; DynamicDataSource]
	[&lt;abstract&gt; DynamicDataRowSource&lt;TDataRowHolder&gt; |
	&apos;# TDataRowHolder DataHolder]
	[&lt;contract&gt; IDataRowHolder&lt;TRow&gt; |
	IDataRowHolder&lt;TRow&gt; GetDataRowHolder(IDataStrategy)]
	[&lt;contract&gt; IDataRowHolder |
	IDataStrategy DataStrategy]
	[IDataStrategy]
	[&lt;contract&gt; ITestDataRows |
	IDataStrategy GetDataStrategy(ArgsCode?)
	IDataStrategy GetDataStrategy(ArgsCode?, PropsCode?)
	IEnumerable&lt;ITestDataRow&gt;? GetTestDataRows()]
	[&lt;contract&gt; ITestDataRow |
	object?array GetParams(IDataStrategy)]
	[&lt;contract&gt; ITestDataRow&lt;TRow&gt; |
	TRow Convert(IDataStrategy)]
	[&lt;abstract&gt; DataRowHolder&lt;TRow&gt;]
	[&lt;contract&gt; IRows&lt;TRow&gt; |
	IEnumerable&lt;TRow&gt;? GetRows(ArgsCode?)
	IEnumerable&lt;TRow&gt;? GetRows(ArgsCode?, PropsCode?)]
	[&lt;contract&gt;IEquatable&lt;IDataStrategy&gt; |
	bool Equals(IDataStrategy?)]
	
	
	[IDataRowHolder&lt;TRow&gt;] -:&gt; extends
	[IRows&lt;TRow&gt;]
	
	[DataRowHolder&lt;TRow&gt;] implements --:&gt;
	[IDataRowHolder&lt;TRow&gt;]
	
	[DataRowHolder&lt;TRow&gt;]  -&gt; uses (Flyweight pattern)
	[DataStrategy] implements --:&gt;
	[IDataStrategy]
	
	[IEquatable&lt;IDataStrategy&gt;] extends &lt;:-
	[IDataStrategy]
	[IDataStrategy] &lt;- uses
	[ITestDataRow]
	[IDataStrategy] &lt;- uses
	[ITestDataRow&lt;TRow&gt;]
	
	[ITestDataRows] returns -&gt;
	[IDataStrategy]
	
	[IDataStrategy] &lt;:-- implements
	[DynamicDataSource] &lt;:- extends
	[DynamicDataRowSource&lt;TDataRowHolder&gt;] generic
	constraint  -&gt;
	[IDataRowHolder&lt;TRow&gt;] extends -:&gt;
	[IDataRowHolder]
	
	[IDataStrategy]  &lt;- has
	[IDataRowHolder]
	
	[ITestDataRow&lt;TRow&gt;] extends -:&gt;
	[ITestDataRow]
	
	
	[ITestDataRow] &lt;- returns
	[ITestDataRows]
	
	
	[ITestDataRows] extends &lt;:- 
	[IDataRowHolder]
	
	[IDataRowHolder&lt;TRow&gt;] uses -&gt;
	[IDataStrategy]
	
	
	
	
	
	
	
	
	
	
	
	</desc>
	<g stroke-width="1.0" text-align="left" font="12pt Helvetica, Arial, sans-serif" font-size="12pt" font-family="Helvetica" font-weight="normal" font-style="normal">
		<g font-family="Helvetica" font-size="12pt" font-weight="bold" font-style="normal" stroke-width="3.0" stroke-linejoin="round" stroke-linecap="round" stroke="#33322E">
			<g stroke="transparent" fill="transparent">
				<rect x="0.0" y="0.0" height="826.0" width="1193.3" stroke="none"></rect>
			</g>
			<g transform="translate(8, 8)" fill="#33322E">
				<g transform="translate(20, 20)" fill="#33322E" font-family="Helvetica" font-size="12pt" font-weight="normal" font-style="normal">
					<text x="152.1" y="682.0" stroke="none">extends</text>
					<path d="M252.7 633.5 L215.5 670 L215.5 676.6666666666666 L215.5 676.7 " fill="none"></path>
					<path d="M210.2 676.7 L215.5 676.7 L220.8 676.7 L215.5 690.0 Z"></path>
					<text x="6.1" y="52.0" stroke="none">implements</text>
					<g stroke-dasharray="6 6">
						<path d="M95.0 32.0 L69.75 52 L69.75 128.5 L69.75 128.5 L69.75 205 L69.75 205 L69.75 265 L69.75 265 L69.75 325 L69.75 325 L69.75 377 L69.75 377 L69.75 429 L69.75 429 L69.75 481 L69.75 481 L69.75 533 L69.75 533 L171.8716290223927 565.4609354433128 L171.9 565.5 " fill="none"></path>
					</g>
					<path d="M170.3 570.5 L171.9 565.5 L173.5 560.4 L184.6 569.5 Z"></path>
					<text x="384.3" y="64.0" stroke="none">uses (Flyweight pattern)</text>
					<path d="M213.3 29.5 L376.25 52 L376.25 65.33333333333333 L376.3 65.3 " fill="none"></path>
					<path d="M370.9 58.7 L376.3 65.3 L381.6 58.7 L376.3 72.0 Z"></path>
					<text x="287.3" y="205.0" stroke="none">implements</text>
					<g stroke-dasharray="6 6">
						<path d="M376.3 185.0 L376.25 205 L461.30258701088076 232.253165397345 L461.3 232.3 " fill="none"></path>
					</g>
					<path d="M459.7 237.3 L461.3 232.3 L462.9 227.2 L474.0 236.3 Z"></path>
					<text x="866.8" y="180.5" stroke="none">extends</text>
					<path d="M858.8 173.8 L858.75 205 L653 246.81202370872143 L653.0 246.8 " fill="none"></path>
					<path d="M864.1 173.8 L858.8 173.8 L853.4 173.8 L858.8 160.5 Z"></path>
					<text x="726.3" y="441.0" stroke="none">uses</text>
					<path d="M653.2 307.9 L689 325 L689 377 L689 377 L689 429 L689 429 L718.3269230769231 449 L718.3 449.0 " fill="none"></path>
					<path d="M661.5 305.9 L653.2 307.9 L656.9 315.6 L647.2 305.0 Z"></path>
					<text x="849.5" y="337.0" stroke="none">uses</text>
					<path d="M659.5 285.7 L841.5 325 L841.5 345 L841.5 345.0 " fill="none"></path>
					<path d="M667.2 281.9 L659.5 285.7 L664.9 292.3 L653.0 284.3 Z"></path>
					<text x="994.6" y="545.0" stroke="none">returns</text>
					<path d="M986.6 553.0 L1011.5 533 L1011.5 481 L1011.5 481 L1011.5 429 L1011.5 429 L1011.5 377 L1011.5 377 L1011.5 325 L1011.5 325 L659.6076696165192 277.87156289506953 L659.6 277.9 " fill="none"></path>
					<path d="M666.9 273.5 L659.6 277.9 L665.5 284.0 L653.0 277.0 Z"></path>
					<text x="196.3" y="353.0" stroke="none">implements</text>
					<g stroke-dasharray="6 6">
						<path d="M461.0 287.1 L285.25 325 L285.25 361 L285.3 361.0 " fill="none"></path>
					</g>
					<path d="M462.1 292.3 L461.0 287.1 L459.8 281.9 L474.0 284.3 Z"></path>
					<text x="221.8" y="441.0" stroke="none">extends</text>
					<path d="M285.3 406.3 L285.25 429 L285.25 449 L285.3 449.0 " fill="none"></path>
					<path d="M290.6 406.3 L285.3 406.3 L279.9 406.3 L285.3 393.0 Z"></path>
					<text x="293.3" y="533.0" stroke="none">generic
					constraint</text>
					<path d="M285.3 513.0 L285.25 533 L285.25 562.8333333333334 L285.3 562.8 " fill="none"></path>
					<path d="M279.9 556.2 L285.3 562.8 L290.6 556.2 L285.3 569.5 Z"></path>
					<text x="272.2" y="653.5" stroke="none">extends</text>
					<path d="M335.6 633.5 L393 670 L523.5391090233874 701.518497148504 L523.5 701.5 " fill="none"></path>
					<path d="M522.3 706.7 L523.5 701.5 L524.8 696.3 L536.5 704.6 Z"></path>
					<text x="598.7" y="690.0" stroke="none">has</text>
					<path d="M550.2 311.4 L546.25 325 L546.25 377 L546.25 377 L546.25 429 L546.25 429 L546.25 481 L546.25 481 L546.25 533 L546.25 533 L546.25 601.5 L546.25 601.5 L546.25 670 L546.25 670 L590.7 698 L590.7 698.0 " fill="none"></path>
					<path d="M553.4 319.3 L550.2 311.4 L543.2 316.3 L552.0 305.0 Z"></path>
					<text x="849.5" y="429.0" stroke="none">extends</text>
					<path d="M841.5 409.0 L841.5 429 L823.188677331284 441.48772168882925 L823.2 441.5 " fill="none"></path>
					<path d="M820.2 437.1 L823.2 441.5 L826.2 445.9 L812.2 449.0 Z"></path>
					<text x="820.3" y="545.0" stroke="none">returns</text>
					<path d="M765.3 519.7 L765.25 533 L812.257299270073 553 L812.3 553.0 " fill="none"></path>
					<path d="M770.6 526.3 L765.3 519.7 L759.9 526.3 L765.3 513.0 Z"></path>
					<text x="934.3" y="670.0" stroke="none">extends</text>
					<path d="M926.3 663.3 L926.25 670 L746.5 707.8753292361721 L746.5 707.9 " fill="none"></path>
					<path d="M931.6 663.3 L926.3 663.3 L920.9 663.3 L926.3 650.0 Z"></path>
					<text x="344.5" y="561.5" stroke="none">uses</text>
					<path d="M385.9 569.5 L500.75 533 L500.75 481 L500.75 481 L500.75 429 L500.75 429 L500.75 377 L500.75 377 L500.75 325 L500.75 325 L516.8482205364677 309.60727916831775 L516.8 309.6 " fill="none"></path>
					<path d="M515.7 318.1 L516.8 309.6 L508.3 310.4 L521.7 305.0 Z"></path>
					<g data-name="DataStrategy">
						<g fill="#C9DEEF" stroke="#33322E" data-name="DataStrategy">
							<rect x="109.8" y="72.0" height="113.0" width="533.0" data-name="DataStrategy"></rect>
							<path d="M109.8 104.0 L642.8 104.0" fill="none" data-name="DataStrategy"></path>
						</g>
						<g transform="translate(109.75, 72)" font-family="Helvetica" font-size="12pt" font-weight="bold" font-style="normal" data-name="DataStrategy" data-compartment="0">
							<g transform="translate(8, 8)" fill="#33322E" text-align="center" data-name="DataStrategy" data-compartment="0">
								<text x="258.5" y="14.1" stroke="none" text-anchor="middle" data-name="DataStrategy" data-compartment="0">DataStrategy</text>
								
							</g>
						</g>
						<g transform="translate(109.75, 104)" font-family="Helvetica" font-size="12pt" font-weight="normal" font-style="normal" data-name="DataStrategy" data-compartment="1">
							<g transform="translate(8, 8)" fill="#33322E" text-align="left" data-name="DataStrategy" data-compartment="1">
								<text x="0.0" y="14.1" stroke="none" data-name="DataStrategy" data-compartment="1">+ static IDataStrategy GetStoredDataStrategy(ArgsCode, PropsCode)</text>
								<text x="0.0" y="30.3" stroke="none" data-name="DataStrategy" data-compartment="1">+ static IDataStrategy GetStoredDataStrategy(IDataStrategy)</text>
								<text x="0.0" y="46.5" stroke="none" data-name="DataStrategy" data-compartment="1">+ static IDataStrategy GetStoredDataStrategy(ArgsCode?, IDataStrategy)</text>
								<text x="0.0" y="62.7" stroke="none" data-name="DataStrategy" data-compartment="1">- static readonly HashSet&lt;DataStrategy&gt; DataStrategies</text>
								
							</g>
						</g>
					</g>
					<g data-name="IDataStrategy">
						<g fill="#DCE8CF" stroke="#33322E" data-name="IDataStrategy">
							<rect x="474.0" y="225.0" height="80.0" width="179.0" data-name="IDataStrategy"></rect>
							<path d="M474.0 257.0 L653.0 257.0" fill="none" data-name="IDataStrategy"></path>
						</g>
						<g transform="translate(474, 225)" font-family="Helvetica" font-size="12pt" font-weight="bold" font-style="italic" data-name="IDataStrategy" data-compartment="0">
							<g transform="translate(8, 8)" fill="#33322E" text-align="center" data-name="IDataStrategy" data-compartment="0">
								<text x="81.5" y="14.1" stroke="none" text-anchor="middle" data-name="IDataStrategy" data-compartment="0">IDataStrategy</text>
								
							</g>
						</g>
						<g transform="translate(474, 257)" font-family="Helvetica" font-size="12pt" font-weight="normal" font-style="italic" data-name="IDataStrategy" data-compartment="1">
							<g transform="translate(8, 8)" fill="#33322E" text-align="left" data-name="IDataStrategy" data-compartment="1">
								<text x="0.0" y="14.1" stroke="none" data-name="IDataStrategy" data-compartment="1">ArgsCode ArgsCode</text>
								<text x="0.0" y="30.3" stroke="none" data-name="IDataStrategy" data-compartment="1">PropsCode PropsCode</text>
								
							</g>
						</g>
					</g>
					<g data-name="DynamicDataSource">
						<g fill="#C9DEEF" stroke="#33322E" data-name="DynamicDataSource">
							<rect x="200.3" y="361.0" height="32.0" width="170.0" data-name="DynamicDataSource"></rect>
						</g>
						<g transform="translate(200.25, 361)" font-family="Helvetica" font-size="12pt" font-weight="bold" font-style="italic" data-name="DynamicDataSource" data-compartment="0">
							<g transform="translate(8, 8)" fill="#33322E" text-align="center" data-name="DynamicDataSource" data-compartment="0">
								<text x="77.0" y="14.1" stroke="none" text-anchor="middle" data-name="DynamicDataSource" data-compartment="0">DynamicDataSource</text>
								
							</g>
						</g>
					</g>
					<g data-name="DynamicDataRowSource&lt;TDataRowHolder&gt;">
						<g fill="#C9DEEF" stroke="#33322E" data-name="DynamicDataRowSource&lt;TDataRowHolder&gt;">
							<rect x="109.8" y="449.0" height="64.0" width="351.0" data-name="DynamicDataRowSource&lt;TDataRowHolder&gt;"></rect>
							<path d="M109.8 481.0 L460.8 481.0" fill="none" data-name="DynamicDataRowSource&lt;TDataRowHolder&gt;"></path>
						</g>
						<g transform="translate(109.75, 449)" font-family="Helvetica" font-size="12pt" font-weight="bold" font-style="italic" data-name="DynamicDataRowSource&lt;TDataRowHolder&gt;" data-compartment="0">
							<g transform="translate(8, 8)" fill="#33322E" text-align="center" data-name="DynamicDataRowSource&lt;TDataRowHolder&gt;" data-compartment="0">
								<text x="167.5" y="14.1" stroke="none" text-anchor="middle" data-name="DynamicDataRowSource&lt;TDataRowHolder&gt;" data-compartment="0">DynamicDataRowSource&lt;TDataRowHolder&gt;</text>
								
							</g>
						</g>
						<g transform="translate(109.75, 481)" font-family="Helvetica" font-size="12pt" font-weight="normal" font-style="normal" data-name="DynamicDataRowSource&lt;TDataRowHolder&gt;" data-compartment="1">
							<g transform="translate(8, 8)" fill="#33322E" text-align="left" data-name="DynamicDataRowSource&lt;TDataRowHolder&gt;" data-compartment="1">
								<text x="0.0" y="14.1" stroke="none" data-name="DynamicDataRowSource&lt;TDataRowHolder&gt;" data-compartment="1">&apos;# TDataRowHolder DataHolder</text>
								
							</g>
						</g>
					</g>
					<g data-name="IDataRowHolder&lt;TRow&gt;">
						<g fill="#DCE8CF" stroke="#33322E" data-name="IDataRowHolder&lt;TRow&gt;">
							<rect x="64.3" y="569.5" height="64.0" width="442.0" data-name="IDataRowHolder&lt;TRow&gt;"></rect>
							<path d="M64.3 601.5 L506.3 601.5" fill="none" data-name="IDataRowHolder&lt;TRow&gt;"></path>
						</g>
						<g transform="translate(64.25, 569.5)" font-family="Helvetica" font-size="12pt" font-weight="bold" font-style="italic" data-name="IDataRowHolder&lt;TRow&gt;" data-compartment="0">
							<g transform="translate(8, 8)" fill="#33322E" text-align="center" data-name="IDataRowHolder&lt;TRow&gt;" data-compartment="0">
								<text x="213.0" y="14.1" stroke="none" text-anchor="middle" data-name="IDataRowHolder&lt;TRow&gt;" data-compartment="0">IDataRowHolder&lt;TRow&gt;</text>
								
							</g>
						</g>
						<g transform="translate(64.25, 601.5)" font-family="Helvetica" font-size="12pt" font-weight="normal" font-style="italic" data-name="IDataRowHolder&lt;TRow&gt;" data-compartment="1">
							<g transform="translate(8, 8)" fill="#33322E" text-align="left" data-name="IDataRowHolder&lt;TRow&gt;" data-compartment="1">
								<text x="0.0" y="14.1" stroke="none" data-name="IDataRowHolder&lt;TRow&gt;" data-compartment="1">IDataRowHolder&lt;TRow&gt; GetDataRowHolder(IDataStrategy)</text>
								
							</g>
						</g>
					</g>
					<g data-name="IDataRowHolder">
						<g fill="#DCE8CF" stroke="#33322E" data-name="IDataRowHolder">
							<rect x="536.5" y="698.0" height="64.0" width="210.0" data-name="IDataRowHolder"></rect>
							<path d="M536.5 730.0 L746.5 730.0" fill="none" data-name="IDataRowHolder"></path>
						</g>
						<g transform="translate(536.5, 698)" font-family="Helvetica" font-size="12pt" font-weight="bold" font-style="italic" data-name="IDataRowHolder" data-compartment="0">
							<g transform="translate(8, 8)" fill="#33322E" text-align="center" data-name="IDataRowHolder" data-compartment="0">
								<text x="97.0" y="14.1" stroke="none" text-anchor="middle" data-name="IDataRowHolder" data-compartment="0">IDataRowHolder</text>
								
							</g>
						</g>
						<g transform="translate(536.5, 730)" font-family="Helvetica" font-size="12pt" font-weight="normal" font-style="italic" data-name="IDataRowHolder" data-compartment="1">
							<g transform="translate(8, 8)" fill="#33322E" text-align="left" data-name="IDataRowHolder" data-compartment="1">
								<text x="0.0" y="14.1" stroke="none" data-name="IDataRowHolder" data-compartment="1">IDataStrategy DataStrategy</text>
								
							</g>
						</g>
					</g>
					<g data-name="ITestDataRows">
						<g fill="#DCE8CF" stroke="#33322E" data-name="ITestDataRows">
							<rect x="715.3" y="553.0" height="97.0" width="422.0" data-name="ITestDataRows"></rect>
							<path d="M715.3 585.0 L1137.3 585.0" fill="none" data-name="ITestDataRows"></path>
						</g>
						<g transform="translate(715.25, 553)" font-family="Helvetica" font-size="12pt" font-weight="bold" font-style="italic" data-name="ITestDataRows" data-compartment="0">
							<g transform="translate(8, 8)" fill="#33322E" text-align="center" data-name="ITestDataRows" data-compartment="0">
								<text x="203.0" y="14.1" stroke="none" text-anchor="middle" data-name="ITestDataRows" data-compartment="0">ITestDataRows</text>
								
							</g>
						</g>
						<g transform="translate(715.25, 585)" font-family="Helvetica" font-size="12pt" font-weight="normal" font-style="italic" data-name="ITestDataRows" data-compartment="1">
							<g transform="translate(8, 8)" fill="#33322E" text-align="left" data-name="ITestDataRows" data-compartment="1">
								<text x="0.0" y="14.1" stroke="none" data-name="ITestDataRows" data-compartment="1">IDataStrategy GetDataStrategy(ArgsCode?)</text>
								<text x="0.0" y="30.3" stroke="none" data-name="ITestDataRows" data-compartment="1">IDataStrategy GetDataStrategy(ArgsCode?, PropsCode?)</text>
								<text x="0.0" y="46.5" stroke="none" data-name="ITestDataRows" data-compartment="1">IEnumerable&lt;ITestDataRow&gt;? GetTestDataRows()</text>
								
							</g>
						</g>
					</g>
					<g data-name="ITestDataRow">
						<g fill="#DCE8CF" stroke="#33322E" data-name="ITestDataRow">
							<rect x="617.8" y="449.0" height="64.0" width="295.0" data-name="ITestDataRow"></rect>
							<path d="M617.8 481.0 L912.8 481.0" fill="none" data-name="ITestDataRow"></path>
						</g>
						<g transform="translate(617.75, 449)" font-family="Helvetica" font-size="12pt" font-weight="bold" font-style="italic" data-name="ITestDataRow" data-compartment="0">
							<g transform="translate(8, 8)" fill="#33322E" text-align="center" data-name="ITestDataRow" data-compartment="0">
								<text x="139.5" y="14.1" stroke="none" text-anchor="middle" data-name="ITestDataRow" data-compartment="0">ITestDataRow</text>
								
							</g>
						</g>
						<g transform="translate(617.75, 481)" font-family="Helvetica" font-size="12pt" font-weight="normal" font-style="italic" data-name="ITestDataRow" data-compartment="1">
							<g transform="translate(8, 8)" fill="#33322E" text-align="left" data-name="ITestDataRow" data-compartment="1">
								<text x="0.0" y="14.1" stroke="none" data-name="ITestDataRow" data-compartment="1">object?array GetParams(IDataStrategy)</text>
								
							</g>
						</g>
					</g>
					<g data-name="ITestDataRow&lt;TRow&gt;">
						<g fill="#DCE8CF" stroke="#33322E" data-name="ITestDataRow&lt;TRow&gt;">
							<rect x="729.0" y="345.0" height="64.0" width="225.0" data-name="ITestDataRow&lt;TRow&gt;"></rect>
							<path d="M729.0 377.0 L954.0 377.0" fill="none" data-name="ITestDataRow&lt;TRow&gt;"></path>
						</g>
						<g transform="translate(729, 345)" font-family="Helvetica" font-size="12pt" font-weight="bold" font-style="italic" data-name="ITestDataRow&lt;TRow&gt;" data-compartment="0">
							<g transform="translate(8, 8)" fill="#33322E" text-align="center" data-name="ITestDataRow&lt;TRow&gt;" data-compartment="0">
								<text x="104.5" y="14.1" stroke="none" text-anchor="middle" data-name="ITestDataRow&lt;TRow&gt;" data-compartment="0">ITestDataRow&lt;TRow&gt;</text>
								
							</g>
						</g>
						<g transform="translate(729, 377)" font-family="Helvetica" font-size="12pt" font-weight="normal" font-style="italic" data-name="ITestDataRow&lt;TRow&gt;" data-compartment="1">
							<g transform="translate(8, 8)" fill="#33322E" text-align="left" data-name="ITestDataRow&lt;TRow&gt;" data-compartment="1">
								<text x="0.0" y="14.1" stroke="none" data-name="ITestDataRow&lt;TRow&gt;" data-compartment="1">TRow Convert(IDataStrategy)</text>
								
							</g>
						</g>
					</g>
					<g data-name="DataRowHolder&lt;TRow&gt;">
						<g fill="#C9DEEF" stroke="#33322E" data-name="DataRowHolder&lt;TRow&gt;">
							<rect x="17.3" y="0.0" height="32.0" width="196.0" data-name="DataRowHolder&lt;TRow&gt;"></rect>
						</g>
						<g transform="translate(17.25, 0)" font-family="Helvetica" font-size="12pt" font-weight="bold" font-style="italic" data-name="DataRowHolder&lt;TRow&gt;" data-compartment="0">
							<g transform="translate(8, 8)" fill="#33322E" text-align="center" data-name="DataRowHolder&lt;TRow&gt;" data-compartment="0">
								<text x="90.0" y="14.1" stroke="none" text-anchor="middle" data-name="DataRowHolder&lt;TRow&gt;" data-compartment="0">DataRowHolder&lt;TRow&gt;</text>
								
							</g>
						</g>
					</g>
					<g data-name="IRows&lt;TRow&gt;">
						<g fill="#DCE8CF" stroke="#33322E" data-name="IRows&lt;TRow&gt;">
							<rect x="0.0" y="690.0" height="80.0" width="431.0" data-name="IRows&lt;TRow&gt;"></rect>
							<path d="M0.0 722.0 L431.0 722.0" fill="none" data-name="IRows&lt;TRow&gt;"></path>
						</g>
						<g transform="translate(0, 690)" font-family="Helvetica" font-size="12pt" font-weight="bold" font-style="italic" data-name="IRows&lt;TRow&gt;" data-compartment="0">
							<g transform="translate(8, 8)" fill="#33322E" text-align="center" data-name="IRows&lt;TRow&gt;" data-compartment="0">
								<text x="207.5" y="14.1" stroke="none" text-anchor="middle" data-name="IRows&lt;TRow&gt;" data-compartment="0">IRows&lt;TRow&gt;</text>
								
							</g>
						</g>
						<g transform="translate(0, 722)" font-family="Helvetica" font-size="12pt" font-weight="normal" font-style="italic" data-name="IRows&lt;TRow&gt;" data-compartment="1">
							<g transform="translate(8, 8)" fill="#33322E" text-align="left" data-name="IRows&lt;TRow&gt;" data-compartment="1">
								<text x="0.0" y="14.1" stroke="none" data-name="IRows&lt;TRow&gt;" data-compartment="1">IEnumerable&lt;TRow&gt;? GetRows(ArgsCode?)</text>
								<text x="0.0" y="30.3" stroke="none" data-name="IRows&lt;TRow&gt;" data-compartment="1">IEnumerable&lt;TRow&gt;? GetRows(ArgsCode?, PropsCode?)</text>
								
							</g>
						</g>
					</g>
					<g data-name="IEquatable&lt;IDataStrategy&gt;">
						<g fill="#DCE8CF" stroke="#33322E" data-name="IEquatable&lt;IDataStrategy&gt;">
							<rect x="750.3" y="96.5" height="64.0" width="217.0" data-name="IEquatable&lt;IDataStrategy&gt;"></rect>
							<path d="M750.3 128.5 L967.3 128.5" fill="none" data-name="IEquatable&lt;IDataStrategy&gt;"></path>
						</g>
						<g transform="translate(750.25, 96.5)" font-family="Helvetica" font-size="12pt" font-weight="bold" font-style="italic" data-name="IEquatable&lt;IDataStrategy&gt;" data-compartment="0">
							<g transform="translate(8, 8)" fill="#33322E" text-align="center" data-name="IEquatable&lt;IDataStrategy&gt;" data-compartment="0">
								<text x="100.5" y="14.1" stroke="none" text-anchor="middle" data-name="IEquatable&lt;IDataStrategy&gt;" data-compartment="0">IEquatable&lt;IDataStrategy&gt;</text>
								
							</g>
						</g>
						<g transform="translate(750.25, 128.5)" font-family="Helvetica" font-size="12pt" font-weight="normal" font-style="italic" data-name="IEquatable&lt;IDataStrategy&gt;" data-compartment="1">
							<g transform="translate(8, 8)" fill="#33322E" text-align="left" data-name="IEquatable&lt;IDataStrategy&gt;" data-compartment="1">
								<text x="0.0" y="14.1" stroke="none" data-name="IEquatable&lt;IDataStrategy&gt;" data-compartment="1">bool Equals(IDataStrategy?)</text>
								
							</g>
						</g>
					</g>
				</g>
			</g>
		</g>
	</g>
</svg>