<svg version="1.1" baseProfile="full" width="1379.0" height="1194.0" viewBox="0 0 1379 1194" xmlns="http://www.w3.org/2000/svg" xmlns:xlink="http://www.w3.org/1999/xlink" xmlns:ev="http://www.w3.org/2001/xml-events">
	<title >CsabaDu_DynamicTestData_Pattern_Composite</title>
	<desc >
	
	#title: CsabaDu_DynamicTestData_Pattern_Composite
	#direction: down
	#.contract: fill=#DCE8CF title=center,italic,bold body=left,italic
	#.concrete: fill=#C9DEEF title=center,bold body=left
	#.abstract: fill=#C9DEEF title=center,bold,italic body=left
	
	[&lt;concrete&gt;
	DataStrategy |
	- static readonly HashSet&lt;DataStrategy&gt; DataStrategies |
	+ int GetHashCode()
	+ static IDataStrategy GetStoredDataStrategy(ArgsCode, PropsCode)
	+ static IDataStrategy GetStoredDataStrategy(IDataStrategy)
	+ static IDataStrategy GetStoredDataStrategy(ArgsCode?, IDataStrategy)]
	
	[&lt;contract&gt;
	IDataStrategy |
	ArgsCode ArgsCode
	PropsCode PropsCode]
	
	[&lt;abstract&gt;
	DynamicDataSource&lt;TDataHolder&gt; |
	&apos;# TDataHolde DataHolder |
	&apos;# abstract void Add&lt;TTestData&gt;(TTestData)]
	
	[&lt;abstract&gt;
	DynamicDataRowSource&lt;TDataRowHolder, TRow&gt; |
	&apos;# void Add&lt;T1...T9&gt;(string, string, T1?...T9?)
	&apos;# void AddReturns&lt;TStruct, T1...T9&gt;(string, TStruct, T1?...T9?)
	&apos;# void AddThrows&lt;TException, T1...T9&gt;(string, TException, T1?...T9?) |
	&apos;# abstract void InitDataHolder&lt;TTestData&gt;(TTestData)]
	
	[&lt;contract&gt;
	IAddTestData&lt;TTestData&gt; |
	void Add(TTestData)]
	
	[&lt;contract&gt;
	IDataRowHolder |
	IDataStrategy DataStrategy]
	
	
	[&lt;contract&gt;
	IDataRowHolder&lt;TRow, TTestData&gt; |
	IDataRowHolder&lt;TRow&gt; GetDataRowHolder(IDataStrategy)]
	
	[&lt;abstract&gt;
	DataRowHolder&lt;TRow, TTestData&gt; |
	- readonly List&lt;ITestDataRow&lt;TRow, TTestData&gt;&gt; testDataRows]
	
	[&lt;contract&gt;
	ITestDataRow&lt;TRow, TTestData&gt; |
	TTestData TestData]
	
	[&lt;abstract&gt;
	TestDataRow&lt;TRow, TTestData&gt;]
	
	[&lt;concrete&gt;
	TTestData
	(concrete generic records)]
	
	[&lt;contract&gt;
	IReadonlyCollection&lt;ITestDataRow&gt; |
	int Count |
	IEnumerator&lt;ITestDataRow&gt; GetEnumerator()
	IEnumerator GetEnumerator()]
	
	[&lt;contract&gt; ITestDataRow |
	object?array GetParams(IDataStrategy)
	ITestData GetTestData()]
	
	
	
	[IDataStrategy] &lt;-o returns, uses
	[DataRowHolder&lt;TRow, TTestData&gt;]
	[IDataStrategy] &lt;-o uses
	[ITestDataRow]
	
	[DataStrategy] --:&gt; implements
	[IDataStrategy]
	[DataStrategy]
	
	[DataRowHolder&lt;TRow, TTestData&gt;]
	[DataStrategy] uses (as DataStrategy cache) &lt;-o
	[DataRowHolder&lt;TRow, TTestData&gt;]
	
	[DynamicDataRowSource&lt;TDataRowHolder, TRow&gt;] +-&gt; has
	(generic constraint)
	[IDataRowHolder&lt;TRow, TTestData&gt;]
	
	[IDataStrategy] &lt;-+ has
	[IDataRowHolder] extends &lt;:-
	[IDataRowHolder&lt;TRow, TTestData&gt;]
	
	[IDataStrategy] &lt;:-- implements
	[DynamicDataSource&lt;TDataHolder&gt;] &lt;:- extends
	[DynamicDataRowSource&lt;TDataRowHolder, TRow&gt;] uses o-&gt;
	[TTestData]
	
	[DataRowHolder&lt;TRow, TTestData&gt;] implements --:&gt;
	[IDataRowHolder&lt;TRow, TTestData&gt;]
	[DataRowHolder&lt;TRow, TTestData&gt;]
	
	[IDataRowHolder&lt;TRow, TTestData&gt;] extends -:&gt;
	[IReadonlyCollection&lt;ITestDataRow&gt;]
	[IDataRowHolder&lt;TRow, TTestData&gt;]
	
	[ITestDataRow]
	[IReadonlyCollection&lt;ITestDataRow&gt;] uses (generic constraint) o-&gt;
	[ITestDataRow]
	
	[IDataRowHolder&lt;TRow, TTestData&gt;] uses o-&gt;
	[TTestData]
	
	[IAddTestData&lt;TTestData&gt;]
	[IDataRowHolder&lt;TRow, TTestData&gt;] -:&gt; extends
	[IAddTestData&lt;TTestData&gt;]
	
	[IAddTestData&lt;TTestData&gt;] uses o-&gt;
	[TTestData]
	
	[TestDataRow&lt;TRow, TTestData&gt;]
	[ITestDataRow&lt;TRow, TTestData&gt;] &lt;:-- implements
	[TestDataRow&lt;TRow, TTestData&gt;]
	
	[TTestData] &lt;-+ has
	[ITestDataRow&lt;TRow, TTestData&gt;]
	[TTestData]
	
	[DataRowHolder&lt;TRow, TTestData&gt;] +-&gt; has
	[ITestDataRow&lt;TRow, TTestData&gt;]
	
	[ITestDataRow]
	[ITestDataRow&lt;TRow, TTestData&gt;] -:&gt; extends
	[ITestDataRow]
	
	
	</desc>
	<g stroke-width="1.0" text-align="left" font="12pt Helvetica, Arial, sans-serif" font-size="12pt" font-family="Helvetica" font-weight="normal" font-style="normal">
		<g font-family="Helvetica" font-size="12pt" font-weight="bold" font-style="normal" stroke-width="3.0" stroke-linejoin="round" stroke-linecap="round" stroke="#33322E">
			<g stroke="transparent" fill="transparent">
				<rect x="0.0" y="0.0" height="1194.0" width="1379.0" stroke="none"></rect>
			</g>
			<g transform="translate(48, 8)" fill="#33322E">
				<g transform="translate(20, 20)" fill="#eee8d5" font-family="Helvetica" font-size="12pt" font-weight="normal" font-style="normal">
					<text x="988.1" y="465.5" stroke="none">returns, uses</text>
					<path d="M685.3 245.3 L873.5 285 L873.5 353 L873.5 353 L873.5 421 L873.5 421 L963.3087478842976 465.2497912316219 L963.3 465.2 " fill="none"></path>
					<g fill="#eee8d5">
						<path d="M969.3 474.2 L963.3 465.2 L974.0 464.6 L980.1 473.5 Z"></path>
					</g>
					<path d="M692.9 241.4 L685.3 245.3 L690.7 251.9 L678.8 243.9 Z"></path>
					<text x="3.1" y="1051.9" stroke="none">uses</text>
					<path d="M493.1 234.2 L-40 285 L-40 353 L-40 353 L-40 421 L-40 421 L-40 505.5 L-40 505.5 L-40 590 L-40 590 L-40 642 L-40 642 L-40 694 L-40 694 L-40 746 L-40 746 L-40 798 L-40 798 L-40 842 L-40 842 L-40 886 L-40 886 L-40 962 L-40 962 L-40 1038 L-40 1038 L26.427924316583447 1055.1796355991164 L26.4 1055.2 " fill="none"></path>
					<g fill="#eee8d5">
						<path d="M34.1 1062.7 L26.4 1055.2 L36.8 1052.4 L44.5 1059.9 Z"></path>
					</g>
					<path d="M487.0 240.1 L493.1 234.2 L486.0 229.5 L499.8 233.5 Z"></path>
					<text x="500.3" y="177.0" stroke="none">implements</text>
					<g stroke-dasharray="6 6">
						<path d="M630.7 145.0 L589.25 165 L589.25 171.66666666666666 L589.3 171.7 " fill="none"></path>
					</g>
					<path d="M583.9 171.7 L589.3 171.7 L594.6 171.7 L589.3 185.0 Z"></path>
					<text x="786.9" y="165.0" stroke="none">uses (as DataStrategy cache)</text>
					<path d="M1009.9 147.1 L1065 165 L1065 225 L1065 225 L1065 285 L1065 285 L1065 353 L1065 353 L1065 421 L1065 421 L1056.8733253256687 455.3352004990501 L1056.9 455.3 " fill="none"></path>
					<g fill="#eee8d5">
						<path d="M1049.5 463.2 L1056.9 455.3 L1059.9 465.6 L1052.6 473.5 Z"></path>
					</g>
					<path d="M1017.9 144.1 L1009.9 147.1 L1014.6 154.2 L1003.5 145.0 Z"></path>
					<text x="541.2" y="602.0" stroke="none">has
					(generic constraint)</text>
					<path d="M414.2 577.9 L440.25 590 L526.7131734148686 608.5980765980275 L526.7 608.6 " fill="none"></path>
					<path d="M519.1 612.4 L526.7 608.6 L521.3 602.0 L533.2 610.0 Z"></path>
					<g fill="#33322E">
						<path d="M407.9 569.1 L414.2 577.9 L403.4 578.8 L397.2 570.0 Z"></path>
					</g>
					<text x="670.0" y="465.5" stroke="none">has</text>
					<path d="M642.9 269.2 L662 285 L662 353 L662 353 L662 421 L662 421 L662 454.8333333333333 L662.0 454.8 " fill="none"></path>
					<g fill="#33322E">
						<path d="M656.7 464.2 L662.0 454.8 L667.3 464.2 L662.0 473.5 Z"></path>
					</g>
					<path d="M651.4 269.4 L642.9 269.2 L644.6 277.6 L637.8 265.0 Z"></path>
					<text x="598.6" y="557.5" stroke="none">extends</text>
					<path d="M662.0 550.8 L662 590 L669.6923076923077 610 L669.7 610.0 " fill="none"></path>
					<path d="M667.3 550.8 L662.0 550.8 L656.7 550.8 L662.0 537.5 Z"></path>
					<text x="169.6" y="297.0" stroke="none">implements</text>
					<g stroke-dasharray="6 6">
						<path d="M486.6 243.6 L258.5 285 L258.5 305 L258.5 305.0 " fill="none"></path>
					</g>
					<path d="M487.6 248.9 L486.6 243.6 L485.7 238.4 L499.8 241.2 Z"></path>
					<text x="195.1" y="433.0" stroke="none">extends</text>
					<path d="M258.5 414.3 L258.5 421 L258.5 441 L258.5 441.0 " fill="none"></path>
					<path d="M263.8 414.3 L258.5 414.3 L253.2 414.3 L258.5 401.0 Z"></path>
					<text x="199.4" y="590.0" stroke="none">uses</text>
					<path d="M235.8 588.0 L235.25 590 L235.25 642 L235.25 642 L235.25 694 L235.25 694 L235.25 746 L235.25 746 L235.25 798 L235.25 798 L474.6342407213776 827.7539734229961 L474.6 827.8 " fill="none"></path>
					<path d="M467.4 832.2 L474.6 827.8 L468.7 821.6 L481.3 828.6 Z"></path>
					<g fill="#eee8d5">
						<path d="M243.4 580.4 L235.8 588.0 L233.1 577.6 L240.8 570.0 Z"></path>
					</g>
					<text x="988.1" y="557.5" stroke="none">implements</text>
					<g stroke-dasharray="6 6">
						<path d="M980.1 537.5 L873.5 590 L812.7135401068848 606.5059838874255 L812.7 606.5 " fill="none"></path>
					</g>
					<path d="M811.3 601.4 L812.7 606.5 L814.1 611.7 L799.8 610.0 Z"></path>
					<text x="469.0" y="684.5" stroke="none">extends</text>
					<path d="M461.0 664.5 L172 694 L172 746 L172 746 L172 798 L172 798 L172 842 L172 842 L172 886 L172 886 L172 892.6666666666666 L172.0 892.7 " fill="none"></path>
					<path d="M166.7 892.7 L172.0 892.7 L177.3 892.7 L172.0 906.0 Z"></path>
					<text x="-9.3" y="1038.0" stroke="none">uses (generic constraint)</text>
					<path d="M172.0 1036.7 L172 1038 L176.55848155988775 1051.6754446796633 L176.6 1051.7 " fill="none"></path>
					<path d="M169.4 1047.0 L176.6 1051.7 L179.5 1043.7 L178.7 1058.0 Z"></path>
					<g fill="#eee8d5">
						<path d="M177.3 1027.3 L172.0 1036.7 L166.7 1027.3 L172.0 1018.0 Z"></path>
					</g>
					<text x="690.0" y="694.0" stroke="none">uses</text>
					<path d="M682.0 692.7 L682 694 L682 746 L682 746 L682 798 L682 798 L645.8641740997915 815.1426020443038 L645.9 815.1 " fill="none"></path>
					<path d="M649.6 807.5 L645.9 815.1 L654.2 817.1 L639.8 818.0 Z"></path>
					<g fill="#eee8d5">
						<path d="M687.3 683.3 L682.0 692.7 L676.7 683.3 L682.0 674.0 Z"></path>
					</g>
					<text x="901.5" y="706.0" stroke="none">extends</text>
					<path d="M812.2 674.0 L893.5 694 L893.5 700.6666666666666 L893.5 700.7 " fill="none"></path>
					<path d="M888.2 700.7 L893.5 700.7 L898.8 700.7 L893.5 714.0 Z"></path>
					<text x="901.5" y="798.0" stroke="none">uses</text>
					<path d="M893.5 796.7 L893.5 798 L703.8480270054002 825.4270725119552 L703.8 825.4 " fill="none"></path>
					<path d="M709.7 819.2 L703.8 825.4 L711.2 829.8 L697.3 826.4 Z"></path>
					<g fill="#eee8d5">
						<path d="M898.8 787.3 L893.5 796.7 L888.2 787.3 L893.5 778.0 Z"></path>
					</g>
					<text x="881.5" y="1074.0" stroke="none">implements</text>
					<g stroke-dasharray="6 6">
						<path d="M865.3 1006.9 L873.5 1038 L873.5 1082 L873.5 1082.0 " fill="none"></path>
					</g>
					<path d="M870.5 1005.5 L865.3 1006.9 L860.2 1008.3 L861.9 994.0 Z"></path>
					<text x="750.2" y="922.0" stroke="none">has</text>
					<path d="M589.3 872.7 L589.25 886 L724.2973888823227 924.8404978431656 L724.3 924.8 " fill="none"></path>
					<g fill="#33322E">
						<path d="M731.8 932.5 L724.3 924.8 L734.7 922.3 L742.2 930.0 Z"></path>
					</g>
					<path d="M594.6 879.3 L589.3 872.7 L583.9 879.3 L589.3 866.0 Z"></path>
					<text x="909.1" y="922.0" stroke="none">has</text>
					<path d="M1056.9 555.7 L1065 590 L1065 642 L1065 642 L1065 694 L1065 694 L1065 746 L1065 746 L1065 798 L1065 798 L1065 842 L1065 842 L1065 886 L1065 886 L948.8265367762305 927.7455470685886 L948.8 927.7 " fill="none"></path>
					<path d="M953.3 920.5 L948.8 927.7 L956.9 930.5 L942.6 930.0 Z"></path>
					<g fill="#33322E">
						<path d="M1059.9 545.4 L1056.9 555.7 L1049.5 547.8 L1052.6 537.5 Z"></path>
					</g>
					<text x="243.4" y="1050.0" stroke="none">extends</text>
					<path d="M721.0 982.6 L364.25 1038 L319.4246503601958 1053.6140550269274 L319.4 1053.6 " fill="none"></path>
					<path d="M317.7 1048.6 L319.4 1053.6 L321.2 1058.7 L306.8 1058.0 Z"></path>
					<g data-name="DataStrategy">
						<g fill="#C9DEEF" stroke="#33322E" data-name="DataStrategy">
							<rect x="514.3" y="0.0" height="145.0" width="533.0" data-name="DataStrategy"></rect>
							<path d="M514.3 32.0 L1047.3 32.0" fill="none" data-name="DataStrategy"></path>
							<path d="M514.3 64.0 L1047.3 64.0" fill="none" data-name="DataStrategy"></path>
						</g>
						<g transform="translate(514.25, 0)" font-family="Helvetica" font-size="12pt" font-weight="bold" font-style="normal" data-name="DataStrategy" data-compartment="0">
							<g transform="translate(8, 8)" fill="#33322E" text-align="center" data-name="DataStrategy" data-compartment="0">
								<text x="258.5" y="14.1" stroke="none" text-anchor="middle" data-name="DataStrategy" data-compartment="0">DataStrategy</text>
								
							</g>
						</g>
						<g transform="translate(514.25, 32)" font-family="Helvetica" font-size="12pt" font-weight="normal" font-style="normal" data-name="DataStrategy" data-compartment="1">
							<g transform="translate(8, 8)" fill="#33322E" text-align="left" data-name="DataStrategy" data-compartment="1">
								<text x="0.0" y="14.1" stroke="none" data-name="DataStrategy" data-compartment="1">- static readonly HashSet&lt;DataStrategy&gt; DataStrategies</text>
								
							</g>
						</g>
						<g transform="translate(514.25, 64)" font-family="Helvetica" font-size="12pt" font-weight="normal" font-style="normal" data-name="DataStrategy" data-compartment="2">
							<g transform="translate(8, 8)" fill="#33322E" text-align="left" data-name="DataStrategy" data-compartment="2">
								<text x="0.0" y="14.1" stroke="none" data-name="DataStrategy" data-compartment="2">+ int GetHashCode()</text>
								<text x="0.0" y="30.3" stroke="none" data-name="DataStrategy" data-compartment="2">+ static IDataStrategy GetStoredDataStrategy(ArgsCode, PropsCode)</text>
								<text x="0.0" y="46.5" stroke="none" data-name="DataStrategy" data-compartment="2">+ static IDataStrategy GetStoredDataStrategy(IDataStrategy)</text>
								<text x="0.0" y="62.7" stroke="none" data-name="DataStrategy" data-compartment="2">+ static IDataStrategy GetStoredDataStrategy(ArgsCode?, IDataStrategy)</text>
								
							</g>
						</g>
					</g>
					<g data-name="IDataStrategy">
						<g fill="#DCE8CF" stroke="#33322E" data-name="IDataStrategy">
							<rect x="499.8" y="185.0" height="80.0" width="179.0" data-name="IDataStrategy"></rect>
							<path d="M499.8 217.0 L678.8 217.0" fill="none" data-name="IDataStrategy"></path>
						</g>
						<g transform="translate(499.75, 185)" font-family="Helvetica" font-size="12pt" font-weight="bold" font-style="italic" data-name="IDataStrategy" data-compartment="0">
							<g transform="translate(8, 8)" fill="#33322E" text-align="center" data-name="IDataStrategy" data-compartment="0">
								<text x="81.5" y="14.1" stroke="none" text-anchor="middle" data-name="IDataStrategy" data-compartment="0">IDataStrategy</text>
								
							</g>
						</g>
						<g transform="translate(499.75, 217)" font-family="Helvetica" font-size="12pt" font-weight="normal" font-style="italic" data-name="IDataStrategy" data-compartment="1">
							<g transform="translate(8, 8)" fill="#33322E" text-align="left" data-name="IDataStrategy" data-compartment="1">
								<text x="0.0" y="14.1" stroke="none" data-name="IDataStrategy" data-compartment="1">ArgsCode ArgsCode</text>
								<text x="0.0" y="30.3" stroke="none" data-name="IDataStrategy" data-compartment="1">PropsCode PropsCode</text>
								
							</g>
						</g>
					</g>
					<g data-name="DynamicDataSource&lt;TDataHolder&gt;">
						<g fill="#C9DEEF" stroke="#33322E" data-name="DynamicDataSource&lt;TDataHolder&gt;">
							<rect x="94.5" y="305.0" height="96.0" width="328.0" data-name="DynamicDataSource&lt;TDataHolder&gt;"></rect>
							<path d="M94.5 337.0 L422.5 337.0" fill="none" data-name="DynamicDataSource&lt;TDataHolder&gt;"></path>
							<path d="M94.5 369.0 L422.5 369.0" fill="none" data-name="DynamicDataSource&lt;TDataHolder&gt;"></path>
						</g>
						<g transform="translate(94.5, 305)" font-family="Helvetica" font-size="12pt" font-weight="bold" font-style="italic" data-name="DynamicDataSource&lt;TDataHolder&gt;" data-compartment="0">
							<g transform="translate(8, 8)" fill="#33322E" text-align="center" data-name="DynamicDataSource&lt;TDataHolder&gt;" data-compartment="0">
								<text x="156.0" y="14.1" stroke="none" text-anchor="middle" data-name="DynamicDataSource&lt;TDataHolder&gt;" data-compartment="0">DynamicDataSource&lt;TDataHolder&gt;</text>
								
							</g>
						</g>
						<g transform="translate(94.5, 337)" font-family="Helvetica" font-size="12pt" font-weight="normal" font-style="normal" data-name="DynamicDataSource&lt;TDataHolder&gt;" data-compartment="1">
							<g transform="translate(8, 8)" fill="#33322E" text-align="left" data-name="DynamicDataSource&lt;TDataHolder&gt;" data-compartment="1">
								<text x="0.0" y="14.1" stroke="none" data-name="DynamicDataSource&lt;TDataHolder&gt;" data-compartment="1"># TDataHolde DataHolder</text>
								
							</g>
						</g>
						<g transform="translate(94.5, 369)" font-family="Helvetica" font-size="12pt" font-weight="normal" font-style="normal" data-name="DynamicDataSource&lt;TDataHolder&gt;" data-compartment="2">
							<g transform="translate(8, 8)" fill="#33322E" text-align="left" data-name="DynamicDataSource&lt;TDataHolder&gt;" data-compartment="2">
								<text x="0.0" y="14.1" stroke="none" data-name="DynamicDataSource&lt;TDataHolder&gt;" data-compartment="2"># abstract void Add&lt;TTestData&gt;(TTestData)</text>
								
							</g>
						</g>
					</g>
					<g data-name="DynamicDataRowSource&lt;TDataRowHolder, TRow&gt;">
						<g fill="#C9DEEF" stroke="#33322E" data-name="DynamicDataRowSource&lt;TDataRowHolder, TRow&gt;">
							<rect x="0.0" y="441.0" height="129.0" width="517.0" data-name="DynamicDataRowSource&lt;TDataRowHolder, TRow&gt;"></rect>
							<path d="M0.0 473.0 L517.0 473.0" fill="none" data-name="DynamicDataRowSource&lt;TDataRowHolder, TRow&gt;"></path>
							<path d="M0.0 538.0 L517.0 538.0" fill="none" data-name="DynamicDataRowSource&lt;TDataRowHolder, TRow&gt;"></path>
						</g>
						<g transform="translate(0, 441)" font-family="Helvetica" font-size="12pt" font-weight="bold" font-style="italic" data-name="DynamicDataRowSource&lt;TDataRowHolder, TRow&gt;" data-compartment="0">
							<g transform="translate(8, 8)" fill="#33322E" text-align="center" data-name="DynamicDataRowSource&lt;TDataRowHolder, TRow&gt;" data-compartment="0">
								<text x="250.5" y="14.1" stroke="none" text-anchor="middle" data-name="DynamicDataRowSource&lt;TDataRowHolder, TRow&gt;" data-compartment="0">DynamicDataRowSource&lt;TDataRowHolder, TRow&gt;</text>
								
							</g>
						</g>
						<g transform="translate(0, 473)" font-family="Helvetica" font-size="12pt" font-weight="normal" font-style="normal" data-name="DynamicDataRowSource&lt;TDataRowHolder, TRow&gt;" data-compartment="1">
							<g transform="translate(8, 8)" fill="#33322E" text-align="left" data-name="DynamicDataRowSource&lt;TDataRowHolder, TRow&gt;" data-compartment="1">
								<text x="0.0" y="14.1" stroke="none" data-name="DynamicDataRowSource&lt;TDataRowHolder, TRow&gt;" data-compartment="1"># void Add&lt;T1...T9&gt;(string, string, T1?...T9?)</text>
								<text x="0.0" y="30.3" stroke="none" data-name="DynamicDataRowSource&lt;TDataRowHolder, TRow&gt;" data-compartment="1"># void AddReturns&lt;TStruct, T1...T9&gt;(string, TStruct, T1?...T9?)</text>
								<text x="0.0" y="46.5" stroke="none" data-name="DynamicDataRowSource&lt;TDataRowHolder, TRow&gt;" data-compartment="1"># void AddThrows&lt;TException, T1...T9&gt;(string, TException, T1?...T9?)</text>
								
							</g>
						</g>
						<g transform="translate(0, 538)" font-family="Helvetica" font-size="12pt" font-weight="normal" font-style="normal" data-name="DynamicDataRowSource&lt;TDataRowHolder, TRow&gt;" data-compartment="2">
							<g transform="translate(8, 8)" fill="#33322E" text-align="left" data-name="DynamicDataRowSource&lt;TDataRowHolder, TRow&gt;" data-compartment="2">
								<text x="0.0" y="14.1" stroke="none" data-name="DynamicDataRowSource&lt;TDataRowHolder, TRow&gt;" data-compartment="2"># abstract void InitDataHolder&lt;TTestData&gt;(TTestData)</text>
								
							</g>
						</g>
					</g>
					<g data-name="IAddTestData&lt;TTestData&gt;">
						<g fill="#DCE8CF" stroke="#33322E" data-name="IAddTestData&lt;TTestData&gt;">
							<rect x="788.0" y="714.0" height="64.0" width="211.0" data-name="IAddTestData&lt;TTestData&gt;"></rect>
							<path d="M788.0 746.0 L999.0 746.0" fill="none" data-name="IAddTestData&lt;TTestData&gt;"></path>
						</g>
						<g transform="translate(788, 714)" font-family="Helvetica" font-size="12pt" font-weight="bold" font-style="italic" data-name="IAddTestData&lt;TTestData&gt;" data-compartment="0">
							<g transform="translate(8, 8)" fill="#33322E" text-align="center" data-name="IAddTestData&lt;TTestData&gt;" data-compartment="0">
								<text x="97.5" y="14.1" stroke="none" text-anchor="middle" data-name="IAddTestData&lt;TTestData&gt;" data-compartment="0">IAddTestData&lt;TTestData&gt;</text>
								
							</g>
						</g>
						<g transform="translate(788, 746)" font-family="Helvetica" font-size="12pt" font-weight="normal" font-style="italic" data-name="IAddTestData&lt;TTestData&gt;" data-compartment="1">
							<g transform="translate(8, 8)" fill="#33322E" text-align="left" data-name="IAddTestData&lt;TTestData&gt;" data-compartment="1">
								<text x="0.0" y="14.1" stroke="none" data-name="IAddTestData&lt;TTestData&gt;" data-compartment="1">void Add(TTestData)</text>
								
							</g>
						</g>
					</g>
					<g data-name="IDataRowHolder">
						<g fill="#DCE8CF" stroke="#33322E" data-name="IDataRowHolder">
							<rect x="557.0" y="473.5" height="64.0" width="210.0" data-name="IDataRowHolder"></rect>
							<path d="M557.0 505.5 L767.0 505.5" fill="none" data-name="IDataRowHolder"></path>
						</g>
						<g transform="translate(557, 473.5)" font-family="Helvetica" font-size="12pt" font-weight="bold" font-style="italic" data-name="IDataRowHolder" data-compartment="0">
							<g transform="translate(8, 8)" fill="#33322E" text-align="center" data-name="IDataRowHolder" data-compartment="0">
								<text x="97.0" y="14.1" stroke="none" text-anchor="middle" data-name="IDataRowHolder" data-compartment="0">IDataRowHolder</text>
								
							</g>
						</g>
						<g transform="translate(557, 505.5)" font-family="Helvetica" font-size="12pt" font-weight="normal" font-style="italic" data-name="IDataRowHolder" data-compartment="1">
							<g transform="translate(8, 8)" fill="#33322E" text-align="left" data-name="IDataRowHolder" data-compartment="1">
								<text x="0.0" y="14.1" stroke="none" data-name="IDataRowHolder" data-compartment="1">IDataStrategy DataStrategy</text>
								
							</g>
						</g>
					</g>
					<g data-name="IDataRowHolder&lt;TRow, TTestData&gt;">
						<g fill="#DCE8CF" stroke="#33322E" data-name="IDataRowHolder&lt;TRow, TTestData&gt;">
							<rect x="461.0" y="610.0" height="64.0" width="442.0" data-name="IDataRowHolder&lt;TRow, TTestData&gt;"></rect>
							<path d="M461.0 642.0 L903.0 642.0" fill="none" data-name="IDataRowHolder&lt;TRow, TTestData&gt;"></path>
						</g>
						<g transform="translate(461, 610)" font-family="Helvetica" font-size="12pt" font-weight="bold" font-style="italic" data-name="IDataRowHolder&lt;TRow, TTestData&gt;" data-compartment="0">
							<g transform="translate(8, 8)" fill="#33322E" text-align="center" data-name="IDataRowHolder&lt;TRow, TTestData&gt;" data-compartment="0">
								<text x="213.0" y="14.1" stroke="none" text-anchor="middle" data-name="IDataRowHolder&lt;TRow, TTestData&gt;" data-compartment="0">IDataRowHolder&lt;TRow, TTestData&gt;</text>
								
							</g>
						</g>
						<g transform="translate(461, 642)" font-family="Helvetica" font-size="12pt" font-weight="normal" font-style="italic" data-name="IDataRowHolder&lt;TRow, TTestData&gt;" data-compartment="1">
							<g transform="translate(8, 8)" fill="#33322E" text-align="left" data-name="IDataRowHolder&lt;TRow, TTestData&gt;" data-compartment="1">
								<text x="0.0" y="14.1" stroke="none" data-name="IDataRowHolder&lt;TRow, TTestData&gt;" data-compartment="1">IDataRowHolder&lt;TRow&gt; GetDataRowHolder(IDataStrategy)</text>
								
							</g>
						</g>
					</g>
					<g data-name="DataRowHolder&lt;TRow, TTestData&gt;">
						<g fill="#C9DEEF" stroke="#33322E" data-name="DataRowHolder&lt;TRow, TTestData&gt;">
							<rect x="807.0" y="473.5" height="64.0" width="476.0" data-name="DataRowHolder&lt;TRow, TTestData&gt;"></rect>
							<path d="M807.0 505.5 L1283.0 505.5" fill="none" data-name="DataRowHolder&lt;TRow, TTestData&gt;"></path>
						</g>
						<g transform="translate(807, 473.5)" font-family="Helvetica" font-size="12pt" font-weight="bold" font-style="italic" data-name="DataRowHolder&lt;TRow, TTestData&gt;" data-compartment="0">
							<g transform="translate(8, 8)" fill="#33322E" text-align="center" data-name="DataRowHolder&lt;TRow, TTestData&gt;" data-compartment="0">
								<text x="230.0" y="14.1" stroke="none" text-anchor="middle" data-name="DataRowHolder&lt;TRow, TTestData&gt;" data-compartment="0">DataRowHolder&lt;TRow, TTestData&gt;</text>
								
							</g>
						</g>
						<g transform="translate(807, 505.5)" font-family="Helvetica" font-size="12pt" font-weight="normal" font-style="normal" data-name="DataRowHolder&lt;TRow, TTestData&gt;" data-compartment="1">
							<g transform="translate(8, 8)" fill="#33322E" text-align="left" data-name="DataRowHolder&lt;TRow, TTestData&gt;" data-compartment="1">
								<text x="0.0" y="14.1" stroke="none" data-name="DataRowHolder&lt;TRow, TTestData&gt;" data-compartment="1">- readonly List&lt;ITestDataRow&lt;TRow, TTestData&gt;&gt; testDataRows</text>
								
							</g>
						</g>
					</g>
					<g data-name="ITestDataRow&lt;TRow, TTestData&gt;">
						<g fill="#DCE8CF" stroke="#33322E" data-name="ITestDataRow&lt;TRow, TTestData&gt;">
							<rect x="721.0" y="930.0" height="64.0" width="265.0" data-name="ITestDataRow&lt;TRow, TTestData&gt;"></rect>
							<path d="M721.0 962.0 L986.0 962.0" fill="none" data-name="ITestDataRow&lt;TRow, TTestData&gt;"></path>
						</g>
						<g transform="translate(721, 930)" font-family="Helvetica" font-size="12pt" font-weight="bold" font-style="italic" data-name="ITestDataRow&lt;TRow, TTestData&gt;" data-compartment="0">
							<g transform="translate(8, 8)" fill="#33322E" text-align="center" data-name="ITestDataRow&lt;TRow, TTestData&gt;" data-compartment="0">
								<text x="124.5" y="14.1" stroke="none" text-anchor="middle" data-name="ITestDataRow&lt;TRow, TTestData&gt;" data-compartment="0">ITestDataRow&lt;TRow, TTestData&gt;</text>
								
							</g>
						</g>
						<g transform="translate(721, 962)" font-family="Helvetica" font-size="12pt" font-weight="normal" font-style="italic" data-name="ITestDataRow&lt;TRow, TTestData&gt;" data-compartment="1">
							<g transform="translate(8, 8)" fill="#33322E" text-align="left" data-name="ITestDataRow&lt;TRow, TTestData&gt;" data-compartment="1">
								<text x="0.0" y="14.1" stroke="none" data-name="ITestDataRow&lt;TRow, TTestData&gt;" data-compartment="1">TTestData TestData</text>
								
							</g>
						</g>
					</g>
					<g data-name="TestDataRow&lt;TRow, TTestData&gt;">
						<g fill="#C9DEEF" stroke="#33322E" data-name="TestDataRow&lt;TRow, TTestData&gt;">
							<rect x="743.0" y="1082.0" height="32.0" width="261.0" data-name="TestDataRow&lt;TRow, TTestData&gt;"></rect>
						</g>
						<g transform="translate(743, 1082)" font-family="Helvetica" font-size="12pt" font-weight="bold" font-style="italic" data-name="TestDataRow&lt;TRow, TTestData&gt;" data-compartment="0">
							<g transform="translate(8, 8)" fill="#33322E" text-align="center" data-name="TestDataRow&lt;TRow, TTestData&gt;" data-compartment="0">
								<text x="122.5" y="14.1" stroke="none" text-anchor="middle" data-name="TestDataRow&lt;TRow, TTestData&gt;" data-compartment="0">TestDataRow&lt;TRow, TTestData&gt;</text>
								
							</g>
						</g>
					</g>
					<g data-name="TTestData">
						<g fill="#C9DEEF" stroke="#33322E" data-name="TTestData">
							<rect x="481.3" y="818.0" height="48.0" width="216.0" data-name="TTestData"></rect>
						</g>
						<g transform="translate(481.25, 818)" font-family="Helvetica" font-size="12pt" font-weight="bold" font-style="normal" data-name="TTestData" data-compartment="0">
							<g transform="translate(8, 8)" fill="#33322E" text-align="center" data-name="TTestData" data-compartment="0">
								<text x="100.0" y="14.1" stroke="none" text-anchor="middle" data-name="TTestData" data-compartment="0">TTestData</text>
								<text x="100.0" y="30.3" stroke="none" text-anchor="middle" data-name="TTestData" data-compartment="0">(concrete generic records)</text>
								
							</g>
						</g>
					</g>
					<g data-name="IReadonlyCollection&lt;ITestDataRow&gt;">
						<g fill="#DCE8CF" stroke="#33322E" data-name="IReadonlyCollection&lt;ITestDataRow&gt;">
							<rect x="0.0" y="906.0" height="112.0" width="344.0" data-name="IReadonlyCollection&lt;ITestDataRow&gt;"></rect>
							<path d="M0.0 938.0 L344.0 938.0" fill="none" data-name="IReadonlyCollection&lt;ITestDataRow&gt;"></path>
							<path d="M0.0 970.0 L344.0 970.0" fill="none" data-name="IReadonlyCollection&lt;ITestDataRow&gt;"></path>
						</g>
						<g transform="translate(0, 906)" font-family="Helvetica" font-size="12pt" font-weight="bold" font-style="italic" data-name="IReadonlyCollection&lt;ITestDataRow&gt;" data-compartment="0">
							<g transform="translate(8, 8)" fill="#33322E" text-align="center" data-name="IReadonlyCollection&lt;ITestDataRow&gt;" data-compartment="0">
								<text x="164.0" y="14.1" stroke="none" text-anchor="middle" data-name="IReadonlyCollection&lt;ITestDataRow&gt;" data-compartment="0">IReadonlyCollection&lt;ITestDataRow&gt;</text>
								
							</g>
						</g>
						<g transform="translate(0, 938)" font-family="Helvetica" font-size="12pt" font-weight="normal" font-style="italic" data-name="IReadonlyCollection&lt;ITestDataRow&gt;" data-compartment="1">
							<g transform="translate(8, 8)" fill="#33322E" text-align="left" data-name="IReadonlyCollection&lt;ITestDataRow&gt;" data-compartment="1">
								<text x="0.0" y="14.1" stroke="none" data-name="IReadonlyCollection&lt;ITestDataRow&gt;" data-compartment="1">int Count</text>
								
							</g>
						</g>
						<g transform="translate(0, 970)" font-family="Helvetica" font-size="12pt" font-weight="normal" font-style="italic" data-name="IReadonlyCollection&lt;ITestDataRow&gt;" data-compartment="2">
							<g transform="translate(8, 8)" fill="#33322E" text-align="left" data-name="IReadonlyCollection&lt;ITestDataRow&gt;" data-compartment="2">
								<text x="0.0" y="14.1" stroke="none" data-name="IReadonlyCollection&lt;ITestDataRow&gt;" data-compartment="2">IEnumerator&lt;ITestDataRow&gt; GetEnumerator()</text>
								<text x="0.0" y="30.3" stroke="none" data-name="IReadonlyCollection&lt;ITestDataRow&gt;" data-compartment="2">IEnumerator GetEnumerator()</text>
								
							</g>
						</g>
					</g>
					<g data-name="ITestDataRow">
						<g fill="#DCE8CF" stroke="#33322E" data-name="ITestDataRow">
							<rect x="44.5" y="1058.0" height="80.0" width="295.0" data-name="ITestDataRow"></rect>
							<path d="M44.5 1090.0 L339.5 1090.0" fill="none" data-name="ITestDataRow"></path>
						</g>
						<g transform="translate(44.5, 1058)" font-family="Helvetica" font-size="12pt" font-weight="bold" font-style="italic" data-name="ITestDataRow" data-compartment="0">
							<g transform="translate(8, 8)" fill="#33322E" text-align="center" data-name="ITestDataRow" data-compartment="0">
								<text x="139.5" y="14.1" stroke="none" text-anchor="middle" data-name="ITestDataRow" data-compartment="0">ITestDataRow</text>
								
							</g>
						</g>
						<g transform="translate(44.5, 1090)" font-family="Helvetica" font-size="12pt" font-weight="normal" font-style="italic" data-name="ITestDataRow" data-compartment="1">
							<g transform="translate(8, 8)" fill="#33322E" text-align="left" data-name="ITestDataRow" data-compartment="1">
								<text x="0.0" y="14.1" stroke="none" data-name="ITestDataRow" data-compartment="1">object?array GetParams(IDataStrategy)</text>
								<text x="0.0" y="30.3" stroke="none" data-name="ITestDataRow" data-compartment="1">ITestData GetTestData()</text>
								
							</g>
						</g>
					</g>
				</g>
			</g>
		</g>
	</g>
</svg>