<svg version="1.1" baseProfile="full" width="1347.8" height="978.0" viewBox="0 0 1347.75 978" xmlns="http://www.w3.org/2000/svg" xmlns:xlink="http://www.w3.org/1999/xlink" xmlns:ev="http://www.w3.org/2001/xml-events">
	<title >CsabaDu_DynamicTestData_Pattern_Strategy</title>
	<desc >
	
	#title: CsabaDu_DynamicTestData_Pattern_Strategy
	#direction: down
	#.contract: fill=#DCE8CF title=center,italic,bold body=left,italic visual=class
	#.concrete: fill=#C9DEEF title=center,bold body=left visual=class
	#.abstract: fill=#C9DEEF title=center,bold,italic body=left visual=class
	
	[&lt;concrete&gt;
	DataStrategy |
	- static readonly HashSet&lt;DataStrategy&gt; DataStrategies |
	+ static IDataStrategy GetStoredDataStrategy(ArgsCode, PropsCode)
	+ static IDataStrategy GetStoredDataStrategy(IDataStrategy)
	+ static IDataStrategy GetStoredDataStrategy(ArgsCode?, IDataStrategy)]
	
	[&lt;contract&gt;
	IDataStrategy |
	ArgsCode ArgsCode
	PropsCode PropsCode]
	
	[&lt;abstract&gt;
	DynamicDataSource |
	&apos;# T WithOptionalDataStrategy&lt;T&gt;(Func&lt;T&gt;, string, ArgsCode?, PropsCode?) |
	[&lt;concrete&gt;DataStrategyMemento]]
	
	[&lt;abstract&gt;
	DynamicDataRowSource&lt;TDataRowHolder, TRow&gt; |
	&apos;# TDataRowHolder DataHolder]
	
	[&lt;contract&gt;
	IDataRowHolder&lt;TRow&gt; |
	IDataRowHolder&lt;TRow&gt; GetDataRowHolder(IDataStrategy)]
	
	[&lt;contract&gt;
	IDataRowHolder |
	IDataStrategy DataStrategy]
	
	[&lt;contract&gt;
	ITestDataRows |
	IDataStrategy GetDataStrategy(ArgsCode?)
	IDataStrategy GetDataStrategy(ArgsCode?, PropsCode?)
	IEnumerable&lt;ITestDataRow&gt;? GetTestDataRows()]
	
	[&lt;contract&gt;
	ITestDataRow |
	object?array GetParams(IDataStrategy)
	ITestData GetTestData()]
	
	[&lt;contract&gt;
	ITestDataRow&lt;TRow&gt; |
	TRow Convert(IDataStrategy)]
	
	[&lt;abstract&gt;
	DataRowHolder&lt;TRow&gt; |
	- IEnumerable&lt;TRow&gt;? GetRows(IDataStrategy)]
	
	[&lt;contract&gt;
	IRows&lt;TRow&gt; |
	IEnumerable&lt;TRow&gt;? GetRows(ArgsCode?)
	IEnumerable&lt;TRow&gt;? GetRows(ArgsCode?, PropsCode?)]
	
	[&lt;contract&gt;
	IEquatable&lt;IDataStrategy&gt; |
	bool Equals(IDataStrategy?)]
	
	
	
	[IDataStrategy] &lt;-o returns
	[ITestDataRows]
	
	[IDataRowHolder&lt;TRow&gt;] -:&gt; extends
	[IRows&lt;TRow&gt;]
	
	[DataRowHolder&lt;TRow&gt;] --:&gt; implements
	[IDataRowHolder&lt;TRow&gt;]
	
	[DataRowHolder&lt;TRow&gt;] o-&gt; uses
	(as DataStrategy cache)
	[DataStrategy] implements --:&gt;
	[IDataStrategy]
	
	[DataRowHolder&lt;TRow&gt;] uses, returns o-&gt;
	[IDataStrategy]
	
	[IEquatable&lt;IDataStrategy&gt;] extends &lt;:- 
	[IDataStrategy]
	
	[IDataStrategy] &lt;-o uses
	[ITestDataRow]
	
	[IDataStrategy] &lt;-o uses
	[ITestDataRow&lt;TRow&gt;]
	
	[ITestDataRow&lt;TRow&gt;] extends -:&gt;
	[ITestDataRow]
	
	[IDataStrategy] &lt;:-- implements
	[DynamicDataSource] &lt;:- extends
	[DynamicDataRowSource&lt;TDataRowHolder, TRow&gt;] has
	(generic constraint) +-&gt;
	[IDataRowHolder&lt;TRow&gt;] extends -:&gt;
	[IDataRowHolder]
	
	[IDataStrategy]  &lt;-+ has
	[IDataRowHolder]
	
	[ITestDataRow] &lt;-o returns
	[ITestDataRows]
	
	[ITestDataRows] &lt;:- extends
	[IDataRowHolder]
	
	[IDataRowHolder&lt;TRow&gt;] uses o-&gt;
	[IDataStrategy]
	
	
	
	
	
	
	
	
	
	
	
	</desc>
	<g stroke-width="1.0" text-align="left" font="12pt Helvetica, Arial, sans-serif" font-size="12pt" font-family="Helvetica" font-weight="normal" font-style="normal">
		<g font-family="Helvetica" font-size="12pt" font-weight="bold" font-style="normal" stroke-width="3.0" stroke-linejoin="round" stroke-linecap="round" stroke="#33322E">
			<g stroke="transparent" fill="transparent">
				<rect x="0.0" y="0.0" height="978.0" width="1347.8" stroke="none"></rect>
			</g>
			<g transform="translate(48, 8)" fill="#33322E">
				<g transform="translate(20, 20)" fill="#33322E" font-family="Helvetica" font-size="12pt" font-weight="normal" font-style="normal">
					<text x="902.6" y="697.0" stroke="none">returns</text>
					<path d="M827.9 355.9 L863.75 373 L863.75 469 L863.75 469 L863.75 565 L863.75 565 L863.75 625 L863.75 625 L863.75 685 L863.75 685 L878.8968884497817 694.8347095621806 L878.9 694.8 " fill="none"></path>
					<g fill="#eee8d5">
						<path d="M883.8 704.4 L878.9 694.8 L889.6 695.4 L894.6 705.0 Z"></path>
					</g>
					<path d="M836.2 353.9 L827.9 355.9 L831.6 363.6 L821.9 353.0 Z"></path>
					<text x="303.3" y="834.0" stroke="none">extends</text>
					<path d="M388.1 785.5 L366.75 822 L366.75 828.6666666666666 L366.8 828.7 " fill="none"></path>
					<path d="M361.4 828.7 L366.8 828.7 L372.1 828.7 L366.8 842.0 Z"></path>
					<text x="109.1" y="713.5" stroke="none">implements</text>
					<g stroke-dasharray="6 6">
						<path d="M238.0 52.5 L-40 84 L-40 168.5 L-40 168.5 L-40 253 L-40 253 L-40 313 L-40 313 L-40 373 L-40 373 L-40 469 L-40 469 L-40 565 L-40 565 L-40 625 L-40 625 L-40 685 L-40 685 L184.8699593132239 719.4792215175285 L184.9 719.5 " fill="none"></path>
					</g>
					<path d="M184.1 724.8 L184.9 719.5 L185.7 714.2 L198.0 721.5 Z"></path>
					<text x="49.9" y="96.0" stroke="none">uses
					(as DataStrategy cache)</text>
					<path d="M307.5 70.0 L266.5 84 L266.5 97.33333333333333 L266.5 97.3 " fill="none"></path>
					<path d="M261.2 90.7 L266.5 97.3 L271.8 90.7 L266.5 104.0 Z"></path>
					<g fill="#eee8d5">
						<path d="M318.0 72.1 L307.5 70.0 L314.6 62.0 L325.2 64.0 Z"></path>
					</g>
					<text x="177.6" y="253.0" stroke="none">implements</text>
					<g stroke-dasharray="6 6">
						<path d="M266.5 233.0 L266.5 253 L635.5232175707577 299.93459047004865 L635.5 299.9 " fill="none"></path>
					</g>
					<path d="M634.9 305.2 L635.5 299.9 L636.2 294.6 L648.8 301.6 Z"></path>
					<text x="500.5" y="81.9" stroke="none">uses, returns</text>
					<path d="M618.4 64.9 L734 84 L734 168.5 L734 168.5 L734 253 L734 253 L734.9456246598284 266.3499951975778 L734.9 266.3 " fill="none"></path>
					<path d="M729.2 260.1 L734.9 266.3 L739.8 259.3 L735.4 273.0 Z"></path>
					<g fill="#eee8d5">
						<path d="M610.1 58.1 L618.4 64.9 L608.3 68.7 L600.0 61.9 Z"></path>
					</g>
					<text x="946.0" y="220.5" stroke="none">extends</text>
					<path d="M938.0 213.8 L938 253 L827.75 286.11639549436796 L827.8 286.1 " fill="none"></path>
					<path d="M943.3 213.8 L938.0 213.8 L932.7 213.8 L938.0 200.5 Z"></path>
					<text x="1014.0" y="577.0" stroke="none">uses</text>
					<path d="M834.2 337.1 L977.5 373 L977.5 469 L977.5 469 L977.5 565 L977.5 565 L990.7202750740349 574.2773860168667 L990.7 574.3 " fill="none"></path>
					<g fill="#eee8d5">
						<path d="M995.3 584.0 L990.7 574.3 L1001.4 575.3 L1006.0 585.0 Z"></path>
					</g>
					<path d="M842.0 333.5 L834.2 337.1 L839.4 343.9 L827.8 335.4 Z"></path>
					<text x="1147.3" y="429.0" stroke="none">uses</text>
					<path d="M834.3 327.4 L1139.25 373 L1139.25 418.3333333333333 L1139.3 418.3 " fill="none"></path>
					<g fill="#eee8d5">
						<path d="M1133.9 427.7 L1139.3 418.3 L1144.6 427.7 L1139.3 437.0 Z"></path>
					</g>
					<path d="M841.7 323.1 L834.3 327.4 L840.1 333.6 L827.8 326.4 Z"></path>
					<text x="1147.3" y="521.0" stroke="none">extends</text>
					<path d="M1139.3 501.0 L1139.25 565 L1124.3116144561202 576.7547951820694 L1124.3 576.8 " fill="none"></path>
					<path d="M1121.0 572.6 L1124.3 576.8 L1127.6 580.9 L1113.8 585.0 Z"></path>
					<text x="193.1" y="385.0" stroke="none">implements</text>
					<g stroke-dasharray="6 6">
						<path d="M635.5 326.5 L282 373 L282 393 L282.0 393.0 " fill="none"></path>
					</g>
					<path d="M636.2 331.8 L635.5 326.5 L634.8 321.2 L648.8 324.8 Z"></path>
					<text x="218.6" y="585.0" stroke="none">extends</text>
					<path d="M282.0 558.3 L282 565 L282 593 L282.0 593.0 " fill="none"></path>
					<path d="M287.3 558.3 L282.0 558.3 L276.7 558.3 L282.0 545.0 Z"></path>
					<text x="108.6" y="677.0" stroke="none">has
					(generic constraint)</text>
					<path d="M282.0 675.7 L282 685 L342.6289644803165 718.2912550453041 L342.6 718.3 " fill="none"></path>
					<path d="M334.2 719.8 L342.6 718.3 L339.4 710.4 L348.5 721.5 Z"></path>
					<g fill="#33322E">
						<path d="M287.3 666.3 L282.0 675.7 L276.7 666.3 L282.0 657.0 Z"></path>
					</g>
					<text x="418.6" y="805.5" stroke="none">extends</text>
					<path d="M482.0 785.5 L567.75 822 L671.6294763703678 850.1071863910803 L671.6 850.1 " fill="none"></path>
					<path d="M670.2 855.3 L671.6 850.1 L673.0 845.0 L684.5 853.6 Z"></path>
					<text x="759.5" y="842.0" stroke="none">has</text>
					<path d="M722.8 359.3 L718.25 373 L718.25 469 L718.25 469 L718.25 565 L718.25 565 L718.25 625 L718.25 625 L718.25 685 L718.25 685 L718.25 753.5 L718.25 753.5 L718.25 822 L718.25 822 L737.2216576351484 837.9761327453881 L737.2 838.0 " fill="none"></path>
					<g fill="#33322E">
						<path d="M740.9 848.1 L737.2 838.0 L747.8 839.9 L751.5 850.0 Z"></path>
					</g>
					<path d="M725.8 367.3 L722.8 359.3 L715.6 364.0 L724.9 353.0 Z"></path>
					<text x="978.3" y="697.0" stroke="none">returns</text>
					<path d="M1063.0 671.7 L1063 685 L1050.6997745443828 693.9873647329043 L1050.7 694.0 " fill="none"></path>
					<g fill="#eee8d5">
						<path d="M1040.0 695.2 L1050.7 694.0 L1046.3 703.8 L1035.6 705.0 Z"></path>
					</g>
					<path d="M1068.3 678.3 L1063.0 671.7 L1057.7 678.3 L1063.0 665.0 Z"></path>
					<text x="822.0" y="842.0" stroke="none">extends</text>
					<path d="M969.3 815.3 L969.25 822 L885.3666666666667 850 L885.4 850.0 " fill="none"></path>
					<path d="M974.6 815.3 L969.3 815.3 L963.9 815.3 L969.3 802.0 Z"></path>
					<text x="457.5" y="713.5" stroke="none">uses</text>
					<path d="M516.5 715.4 L604 685 L604 625 L604 625 L604 565 L604 565 L604 469 L604 469 L604 373 L604 373 L642.6635447465534 355.72020346522754 L642.7 355.7 " fill="none"></path>
					<path d="M638.8 363.3 L642.7 355.7 L634.4 353.6 L648.8 353.0 Z"></path>
					<g fill="#eee8d5">
						<path d="M506.0 713.4 L516.5 715.4 L509.5 723.5 L498.9 721.5 Z"></path>
					</g>
					<g data-name="DataStrategy">
						<g fill="#C9DEEF" stroke="#33322E" data-name="DataStrategy">
							<rect x="0.0" y="104.0" height="129.0" width="533.0" data-name="DataStrategy"></rect>
							<path d="M0.0 136.0 L533.0 136.0" fill="none" data-name="DataStrategy"></path>
							<path d="M0.0 168.0 L533.0 168.0" fill="none" data-name="DataStrategy"></path>
						</g>
						<g transform="translate(0, 104)" font-family="Helvetica" font-size="12pt" font-weight="bold" font-style="normal" data-name="DataStrategy" data-compartment="0">
							<g transform="translate(8, 8)" fill="#33322E" text-align="center" data-name="DataStrategy" data-compartment="0">
								<text x="258.5" y="14.1" stroke="none" text-anchor="middle" data-name="DataStrategy" data-compartment="0">DataStrategy</text>
								
							</g>
						</g>
						<g transform="translate(0, 136)" font-family="Helvetica" font-size="12pt" font-weight="normal" font-style="normal" data-name="DataStrategy" data-compartment="1">
							<g transform="translate(8, 8)" fill="#33322E" text-align="left" data-name="DataStrategy" data-compartment="1">
								<text x="0.0" y="14.1" stroke="none" data-name="DataStrategy" data-compartment="1">- static readonly HashSet&lt;DataStrategy&gt; DataStrategies</text>
								
							</g>
						</g>
						<g transform="translate(0, 168)" font-family="Helvetica" font-size="12pt" font-weight="normal" font-style="normal" data-name="DataStrategy" data-compartment="2">
							<g transform="translate(8, 8)" fill="#33322E" text-align="left" data-name="DataStrategy" data-compartment="2">
								<text x="0.0" y="14.1" stroke="none" data-name="DataStrategy" data-compartment="2">+ static IDataStrategy GetStoredDataStrategy(ArgsCode, PropsCode)</text>
								<text x="0.0" y="30.3" stroke="none" data-name="DataStrategy" data-compartment="2">+ static IDataStrategy GetStoredDataStrategy(IDataStrategy)</text>
								<text x="0.0" y="46.5" stroke="none" data-name="DataStrategy" data-compartment="2">+ static IDataStrategy GetStoredDataStrategy(ArgsCode?, IDataStrategy)</text>
								
							</g>
						</g>
					</g>
					<g data-name="IDataStrategy">
						<g fill="#DCE8CF" stroke="#33322E" data-name="IDataStrategy">
							<rect x="648.8" y="273.0" height="80.0" width="179.0" data-name="IDataStrategy"></rect>
							<path d="M648.8 305.0 L827.8 305.0" fill="none" data-name="IDataStrategy"></path>
						</g>
						<g transform="translate(648.75, 273)" font-family="Helvetica" font-size="12pt" font-weight="bold" font-style="italic" data-name="IDataStrategy" data-compartment="0">
							<g transform="translate(8, 8)" fill="#33322E" text-align="center" data-name="IDataStrategy" data-compartment="0">
								<text x="81.5" y="14.1" stroke="none" text-anchor="middle" data-name="IDataStrategy" data-compartment="0">IDataStrategy</text>
								
							</g>
						</g>
						<g transform="translate(648.75, 305)" font-family="Helvetica" font-size="12pt" font-weight="normal" font-style="italic" data-name="IDataStrategy" data-compartment="1">
							<g transform="translate(8, 8)" fill="#33322E" text-align="left" data-name="IDataStrategy" data-compartment="1">
								<text x="0.0" y="14.1" stroke="none" data-name="IDataStrategy" data-compartment="1">ArgsCode ArgsCode</text>
								<text x="0.0" y="30.3" stroke="none" data-name="IDataStrategy" data-compartment="1">PropsCode PropsCode</text>
								
							</g>
						</g>
					</g>
					<g data-name="DynamicDataSource">
						<g fill="#C9DEEF" stroke="#33322E" data-name="DynamicDataSource">
							<rect x="0.0" y="393.0" height="152.0" width="564.0" data-name="DynamicDataSource"></rect>
							<path d="M0.0 425.0 L564.0 425.0" fill="none" data-name="DynamicDataSource"></path>
							<path d="M0.0 457.0 L564.0 457.0" fill="none" data-name="DynamicDataSource"></path>
						</g>
						<g transform="translate(0, 393)" font-family="Helvetica" font-size="12pt" font-weight="bold" font-style="italic" data-name="DynamicDataSource" data-compartment="0">
							<g transform="translate(8, 8)" fill="#33322E" text-align="center" data-name="DynamicDataSource" data-compartment="0">
								<text x="274.0" y="14.1" stroke="none" text-anchor="middle" data-name="DynamicDataSource" data-compartment="0">DynamicDataSource</text>
								
							</g>
						</g>
						<g transform="translate(0, 425)" font-family="Helvetica" font-size="12pt" font-weight="normal" font-style="normal" data-name="DynamicDataSource" data-compartment="1">
							<g transform="translate(8, 8)" fill="#33322E" text-align="left" data-name="DynamicDataSource" data-compartment="1">
								<text x="0.0" y="14.1" stroke="none" data-name="DynamicDataSource" data-compartment="1"># T WithOptionalDataStrategy&lt;T&gt;(Func&lt;T&gt;, string, ArgsCode?, PropsCode?)</text>
								
							</g>
						</g>
						<g transform="translate(0, 457)" font-family="Helvetica" font-size="12pt" font-weight="normal" font-style="normal" data-name="DynamicDataSource" data-compartment="2">
							<g transform="translate(8, 8)" fill="#33322E" data-name="DynamicDataSource" data-compartment="2">
								<g transform="translate(20, 20)" data-name="DynamicDataSource" data-compartment="2">
									<g data-name="DataStrategyMemento">
										<g fill="#C9DEEF" stroke="#33322E" data-name="DataStrategyMemento">
											<rect x="0.0" y="0.0" height="32.0" width="184.0" data-name="DataStrategyMemento"></rect>
										</g>
										<g transform="translate(0, 0)" font-family="Helvetica" font-size="12pt" font-weight="bold" font-style="normal" data-name="DataStrategyMemento" data-compartment="0">
											<g transform="translate(8, 8)" fill="#33322E" text-align="center" data-name="DataStrategyMemento" data-compartment="0">
												<text x="84.0" y="14.1" stroke="none" text-anchor="middle" data-name="DataStrategyMemento" data-compartment="0">DataStrategyMemento</text>
												
											</g>
										</g>
									</g>
								</g>
							</g>
						</g>
					</g>
					<g data-name="DynamicDataRowSource&lt;TDataRowHolder, TRow&gt;">
						<g fill="#C9DEEF" stroke="#33322E" data-name="DynamicDataRowSource&lt;TDataRowHolder, TRow&gt;">
							<rect x="81.0" y="593.0" height="64.0" width="402.0" data-name="DynamicDataRowSource&lt;TDataRowHolder, TRow&gt;"></rect>
							<path d="M81.0 625.0 L483.0 625.0" fill="none" data-name="DynamicDataRowSource&lt;TDataRowHolder, TRow&gt;"></path>
						</g>
						<g transform="translate(81, 593)" font-family="Helvetica" font-size="12pt" font-weight="bold" font-style="italic" data-name="DynamicDataRowSource&lt;TDataRowHolder, TRow&gt;" data-compartment="0">
							<g transform="translate(8, 8)" fill="#33322E" text-align="center" data-name="DynamicDataRowSource&lt;TDataRowHolder, TRow&gt;" data-compartment="0">
								<text x="193.0" y="14.1" stroke="none" text-anchor="middle" data-name="DynamicDataRowSource&lt;TDataRowHolder, TRow&gt;" data-compartment="0">DynamicDataRowSource&lt;TDataRowHolder, TRow&gt;</text>
								
							</g>
						</g>
						<g transform="translate(81, 625)" font-family="Helvetica" font-size="12pt" font-weight="normal" font-style="normal" data-name="DynamicDataRowSource&lt;TDataRowHolder, TRow&gt;" data-compartment="1">
							<g transform="translate(8, 8)" fill="#33322E" text-align="left" data-name="DynamicDataRowSource&lt;TDataRowHolder, TRow&gt;" data-compartment="1">
								<text x="0.0" y="14.1" stroke="none" data-name="DynamicDataRowSource&lt;TDataRowHolder, TRow&gt;" data-compartment="1"># TDataRowHolder DataHolder</text>
								
							</g>
						</g>
					</g>
					<g data-name="IDataRowHolder&lt;TRow&gt;">
						<g fill="#DCE8CF" stroke="#33322E" data-name="IDataRowHolder&lt;TRow&gt;">
							<rect x="185.8" y="721.5" height="64.0" width="442.0" data-name="IDataRowHolder&lt;TRow&gt;"></rect>
							<path d="M185.8 753.5 L627.8 753.5" fill="none" data-name="IDataRowHolder&lt;TRow&gt;"></path>
						</g>
						<g transform="translate(185.75, 721.5)" font-family="Helvetica" font-size="12pt" font-weight="bold" font-style="italic" data-name="IDataRowHolder&lt;TRow&gt;" data-compartment="0">
							<g transform="translate(8, 8)" fill="#33322E" text-align="center" data-name="IDataRowHolder&lt;TRow&gt;" data-compartment="0">
								<text x="213.0" y="14.1" stroke="none" text-anchor="middle" data-name="IDataRowHolder&lt;TRow&gt;" data-compartment="0">IDataRowHolder&lt;TRow&gt;</text>
								
							</g>
						</g>
						<g transform="translate(185.75, 753.5)" font-family="Helvetica" font-size="12pt" font-weight="normal" font-style="italic" data-name="IDataRowHolder&lt;TRow&gt;" data-compartment="1">
							<g transform="translate(8, 8)" fill="#33322E" text-align="left" data-name="IDataRowHolder&lt;TRow&gt;" data-compartment="1">
								<text x="0.0" y="14.1" stroke="none" data-name="IDataRowHolder&lt;TRow&gt;" data-compartment="1">IDataRowHolder&lt;TRow&gt; GetDataRowHolder(IDataStrategy)</text>
								
							</g>
						</g>
					</g>
					<g data-name="IDataRowHolder">
						<g fill="#DCE8CF" stroke="#33322E" data-name="IDataRowHolder">
							<rect x="684.5" y="850.0" height="64.0" width="210.0" data-name="IDataRowHolder"></rect>
							<path d="M684.5 882.0 L894.5 882.0" fill="none" data-name="IDataRowHolder"></path>
						</g>
						<g transform="translate(684.5, 850)" font-family="Helvetica" font-size="12pt" font-weight="bold" font-style="italic" data-name="IDataRowHolder" data-compartment="0">
							<g transform="translate(8, 8)" fill="#33322E" text-align="center" data-name="IDataRowHolder" data-compartment="0">
								<text x="97.0" y="14.1" stroke="none" text-anchor="middle" data-name="IDataRowHolder" data-compartment="0">IDataRowHolder</text>
								
							</g>
						</g>
						<g transform="translate(684.5, 882)" font-family="Helvetica" font-size="12pt" font-weight="normal" font-style="italic" data-name="IDataRowHolder" data-compartment="1">
							<g transform="translate(8, 8)" fill="#33322E" text-align="left" data-name="IDataRowHolder" data-compartment="1">
								<text x="0.0" y="14.1" stroke="none" data-name="IDataRowHolder" data-compartment="1">IDataStrategy DataStrategy</text>
								
							</g>
						</g>
					</g>
					<g data-name="ITestDataRows">
						<g fill="#DCE8CF" stroke="#33322E" data-name="ITestDataRows">
							<rect x="758.3" y="705.0" height="97.0" width="422.0" data-name="ITestDataRows"></rect>
							<path d="M758.3 737.0 L1180.3 737.0" fill="none" data-name="ITestDataRows"></path>
						</g>
						<g transform="translate(758.25, 705)" font-family="Helvetica" font-size="12pt" font-weight="bold" font-style="italic" data-name="ITestDataRows" data-compartment="0">
							<g transform="translate(8, 8)" fill="#33322E" text-align="center" data-name="ITestDataRows" data-compartment="0">
								<text x="203.0" y="14.1" stroke="none" text-anchor="middle" data-name="ITestDataRows" data-compartment="0">ITestDataRows</text>
								
							</g>
						</g>
						<g transform="translate(758.25, 737)" font-family="Helvetica" font-size="12pt" font-weight="normal" font-style="italic" data-name="ITestDataRows" data-compartment="1">
							<g transform="translate(8, 8)" fill="#33322E" text-align="left" data-name="ITestDataRows" data-compartment="1">
								<text x="0.0" y="14.1" stroke="none" data-name="ITestDataRows" data-compartment="1">IDataStrategy GetDataStrategy(ArgsCode?)</text>
								<text x="0.0" y="30.3" stroke="none" data-name="ITestDataRows" data-compartment="1">IDataStrategy GetDataStrategy(ArgsCode?, PropsCode?)</text>
								<text x="0.0" y="46.5" stroke="none" data-name="ITestDataRows" data-compartment="1">IEnumerable&lt;ITestDataRow&gt;? GetTestDataRows()</text>
								
							</g>
						</g>
					</g>
					<g data-name="ITestDataRow">
						<g fill="#DCE8CF" stroke="#33322E" data-name="ITestDataRow">
							<rect x="915.5" y="585.0" height="80.0" width="295.0" data-name="ITestDataRow"></rect>
							<path d="M915.5 617.0 L1210.5 617.0" fill="none" data-name="ITestDataRow"></path>
						</g>
						<g transform="translate(915.5, 585)" font-family="Helvetica" font-size="12pt" font-weight="bold" font-style="italic" data-name="ITestDataRow" data-compartment="0">
							<g transform="translate(8, 8)" fill="#33322E" text-align="center" data-name="ITestDataRow" data-compartment="0">
								<text x="139.5" y="14.1" stroke="none" text-anchor="middle" data-name="ITestDataRow" data-compartment="0">ITestDataRow</text>
								
							</g>
						</g>
						<g transform="translate(915.5, 617)" font-family="Helvetica" font-size="12pt" font-weight="normal" font-style="italic" data-name="ITestDataRow" data-compartment="1">
							<g transform="translate(8, 8)" fill="#33322E" text-align="left" data-name="ITestDataRow" data-compartment="1">
								<text x="0.0" y="14.1" stroke="none" data-name="ITestDataRow" data-compartment="1">object?array GetParams(IDataStrategy)</text>
								<text x="0.0" y="30.3" stroke="none" data-name="ITestDataRow" data-compartment="1">ITestData GetTestData()</text>
								
							</g>
						</g>
					</g>
					<g data-name="ITestDataRow&lt;TRow&gt;">
						<g fill="#DCE8CF" stroke="#33322E" data-name="ITestDataRow&lt;TRow&gt;">
							<rect x="1026.8" y="437.0" height="64.0" width="225.0" data-name="ITestDataRow&lt;TRow&gt;"></rect>
							<path d="M1026.8 469.0 L1251.8 469.0" fill="none" data-name="ITestDataRow&lt;TRow&gt;"></path>
						</g>
						<g transform="translate(1026.75, 437)" font-family="Helvetica" font-size="12pt" font-weight="bold" font-style="italic" data-name="ITestDataRow&lt;TRow&gt;" data-compartment="0">
							<g transform="translate(8, 8)" fill="#33322E" text-align="center" data-name="ITestDataRow&lt;TRow&gt;" data-compartment="0">
								<text x="104.5" y="14.1" stroke="none" text-anchor="middle" data-name="ITestDataRow&lt;TRow&gt;" data-compartment="0">ITestDataRow&lt;TRow&gt;</text>
								
							</g>
						</g>
						<g transform="translate(1026.75, 469)" font-family="Helvetica" font-size="12pt" font-weight="normal" font-style="italic" data-name="ITestDataRow&lt;TRow&gt;" data-compartment="1">
							<g transform="translate(8, 8)" fill="#33322E" text-align="left" data-name="ITestDataRow&lt;TRow&gt;" data-compartment="1">
								<text x="0.0" y="14.1" stroke="none" data-name="ITestDataRow&lt;TRow&gt;" data-compartment="1">TRow Convert(IDataStrategy)</text>
								
							</g>
						</g>
					</g>
					<g data-name="DataRowHolder&lt;TRow&gt;">
						<g fill="#C9DEEF" stroke="#33322E" data-name="DataRowHolder&lt;TRow&gt;">
							<rect x="238.0" y="0.0" height="64.0" width="362.0" data-name="DataRowHolder&lt;TRow&gt;"></rect>
							<path d="M238.0 32.0 L600.0 32.0" fill="none" data-name="DataRowHolder&lt;TRow&gt;"></path>
						</g>
						<g transform="translate(238, 0)" font-family="Helvetica" font-size="12pt" font-weight="bold" font-style="italic" data-name="DataRowHolder&lt;TRow&gt;" data-compartment="0">
							<g transform="translate(8, 8)" fill="#33322E" text-align="center" data-name="DataRowHolder&lt;TRow&gt;" data-compartment="0">
								<text x="173.0" y="14.1" stroke="none" text-anchor="middle" data-name="DataRowHolder&lt;TRow&gt;" data-compartment="0">DataRowHolder&lt;TRow&gt;</text>
								
							</g>
						</g>
						<g transform="translate(238, 32)" font-family="Helvetica" font-size="12pt" font-weight="normal" font-style="normal" data-name="DataRowHolder&lt;TRow&gt;" data-compartment="1">
							<g transform="translate(8, 8)" fill="#33322E" text-align="left" data-name="DataRowHolder&lt;TRow&gt;" data-compartment="1">
								<text x="0.0" y="14.1" stroke="none" data-name="DataRowHolder&lt;TRow&gt;" data-compartment="1">- IEnumerable&lt;TRow&gt;? GetRows(IDataStrategy)</text>
								
							</g>
						</g>
					</g>
					<g data-name="IRows&lt;TRow&gt;">
						<g fill="#DCE8CF" stroke="#33322E" data-name="IRows&lt;TRow&gt;">
							<rect x="151.3" y="842.0" height="80.0" width="431.0" data-name="IRows&lt;TRow&gt;"></rect>
							<path d="M151.3 874.0 L582.3 874.0" fill="none" data-name="IRows&lt;TRow&gt;"></path>
						</g>
						<g transform="translate(151.25, 842)" font-family="Helvetica" font-size="12pt" font-weight="bold" font-style="italic" data-name="IRows&lt;TRow&gt;" data-compartment="0">
							<g transform="translate(8, 8)" fill="#33322E" text-align="center" data-name="IRows&lt;TRow&gt;" data-compartment="0">
								<text x="207.5" y="14.1" stroke="none" text-anchor="middle" data-name="IRows&lt;TRow&gt;" data-compartment="0">IRows&lt;TRow&gt;</text>
								
							</g>
						</g>
						<g transform="translate(151.25, 874)" font-family="Helvetica" font-size="12pt" font-weight="normal" font-style="italic" data-name="IRows&lt;TRow&gt;" data-compartment="1">
							<g transform="translate(8, 8)" fill="#33322E" text-align="left" data-name="IRows&lt;TRow&gt;" data-compartment="1">
								<text x="0.0" y="14.1" stroke="none" data-name="IRows&lt;TRow&gt;" data-compartment="1">IEnumerable&lt;TRow&gt;? GetRows(ArgsCode?)</text>
								<text x="0.0" y="30.3" stroke="none" data-name="IRows&lt;TRow&gt;" data-compartment="1">IEnumerable&lt;TRow&gt;? GetRows(ArgsCode?, PropsCode?)</text>
								
							</g>
						</g>
					</g>
					<g data-name="IEquatable&lt;IDataStrategy&gt;">
						<g fill="#DCE8CF" stroke="#33322E" data-name="IEquatable&lt;IDataStrategy&gt;">
							<rect x="829.5" y="136.5" height="64.0" width="217.0" data-name="IEquatable&lt;IDataStrategy&gt;"></rect>
							<path d="M829.5 168.5 L1046.5 168.5" fill="none" data-name="IEquatable&lt;IDataStrategy&gt;"></path>
						</g>
						<g transform="translate(829.5, 136.5)" font-family="Helvetica" font-size="12pt" font-weight="bold" font-style="italic" data-name="IEquatable&lt;IDataStrategy&gt;" data-compartment="0">
							<g transform="translate(8, 8)" fill="#33322E" text-align="center" data-name="IEquatable&lt;IDataStrategy&gt;" data-compartment="0">
								<text x="100.5" y="14.1" stroke="none" text-anchor="middle" data-name="IEquatable&lt;IDataStrategy&gt;" data-compartment="0">IEquatable&lt;IDataStrategy&gt;</text>
								
							</g>
						</g>
						<g transform="translate(829.5, 168.5)" font-family="Helvetica" font-size="12pt" font-weight="normal" font-style="italic" data-name="IEquatable&lt;IDataStrategy&gt;" data-compartment="1">
							<g transform="translate(8, 8)" fill="#33322E" text-align="left" data-name="IEquatable&lt;IDataStrategy&gt;" data-compartment="1">
								<text x="0.0" y="14.1" stroke="none" data-name="IEquatable&lt;IDataStrategy&gt;" data-compartment="1">bool Equals(IDataStrategy?)</text>
								
							</g>
						</g>
					</g>
				</g>
			</g>
		</g>
	</g>
</svg>