<svg version="1.1" baseProfile="full" width="1309.3" height="768.0" viewBox="0 0 1309.25 768" xmlns="http://www.w3.org/2000/svg" xmlns:xlink="http://www.w3.org/1999/xlink" xmlns:ev="http://www.w3.org/2001/xml-events">
	<title >CsabaDu_DynamicTestData_4LayeredTestData</title>
	<desc >#title: CsabaDu_DynamicTestData_4LayeredTestData
	#direction: down
	
	#.foundabstract: fill=#ccffff title=center,bold
	#.coreabstract: fill=#ccffcc title=center,italic,bold
	#.markerabstract: fill=#ffffcc title=center,italic,bold
	#.markergenabstract: fill=#ffff99 title=center,italic,bold
	#.specabstract: fill=#ffcccc title=center,italic,bold
	#.spec: fill=#ffcccc title=center,bold
	
	[&lt;foundabstract&gt;IEquatable&lt;INamedTestCase&gt;]
	
	[&lt;foundabstract&gt;INamedTestCase]
	
	[&lt;coreabstract&gt; ITestData]
	
	[&lt;foundabstract&gt;NamedTestCase]
	
	[&lt;coreabstract&gt;TestDataBase]
	
	[&lt;specabstract&gt;TestData]
	
	[&lt;spec&gt;TestData&lt;T1&gt;]
	
	[&lt;spec&gt;TestData&lt;T1, T2&gt;]
	
	[&lt;spec&gt;TestData&lt;T1, T2, ..., T9&gt;]
	
	[&lt;specabstract&gt;TestDataReturns&lt;TStruct&gt;]
	
	
	[&lt;specabstract&gt;TestDataThrows&lt;TException&gt;]
	
	[&lt;markerabstract&gt;TestDataExpected&lt;TResult&gt; ]
	
	[&lt;markerabstract&gt; IExpected]
	
	[&lt;markerabstract&gt; IReturns]
	
	
	[&lt;markerabstract&gt; IExpected&lt;out TResult&gt;
	where TResult: notnull]
	
	[&lt;markerabstract&gt;IThrows]
	
	[&lt;markerabstract&gt; IReturns&lt;out TStruct&gt;
	where TStruct: struct]
	
	[&lt;markerabstract&gt; IThrows&lt;out TException&gt;
	where TException: Exception]
	
	
	[&lt;spec&gt;TestDataReturns&lt;TStruct, T1&gt;]
	
	[&lt;spec&gt;TestDataThrows&lt;TException, T1&gt;]
	
	[&lt;spec&gt;TestDataReturns&lt;TStruct, T1, T2&gt;]
	
	[&lt;spec&gt;TestDataThrows&lt;TException, T1, T2&gt;]
	
	[&lt;spec&gt;TestDataReturns&lt;TStruct, T1, T2, ..., T9&gt;]
	
	[&lt;spec&gt;TestDataThrows&lt;TException, T1, T2, ..., T9&gt;]
	
	
	// diagram
	
	
	[
	TestData&lt;T1, T2, ..., T9&gt;
	] -:&gt; [
	TestData&lt;T1, T2&gt;
	]
	
	[
	IEquatable&lt;INamedTestCase&gt;
	] &lt;:- [
	INamedTestCase
	]
	
	[
	TestData&lt;T1, T2&gt;
	] -:&gt; [
	TestData&lt;T1&gt;
	]
	
	[
	TestData&lt;T1&gt;
	] -:&gt; [
	TestData
	]
	
	[
	TestData
	] -:&gt; [
	TestDataBase
	]
	
	[
	INamedTestCase
	] &lt;:-- [
	NamedTestCase
	]
	
	[
	INamedTestCase
	] &lt;:- [
	ITestData
	]
	
	[
	ITestData
	] &lt;:-- [
	TestDataBase
	]
	
	[
	NamedTestCase
	] &lt;:- [
	TestDataBase
	]
	
	[
	TestDataBase
	] &lt;:- [
	TestDataExpected&lt;TResult&gt;
	]
	
	[
	TestDataExpected&lt;TResult&gt;
	] &lt;:- [
	TestDataReturns&lt;TStruct&gt;
	]
	
	[
	TestDataExpected&lt;TResult&gt;
	] --:&gt; [
	IExpected&lt;out TResult&gt;
	]
	
	
	
	[
	TestDataExpected&lt;TResult&gt;
	] &lt;:- [
	TestDataThrows&lt;TException&gt;
	]
	
	[
	TestDataReturns&lt;TStruct&gt;
	] &lt;:- [
	TestDataReturns&lt;TStruct, T1&gt;
	]
	
	[
	TestDataReturns&lt;TStruct&gt;
	] --:&gt; [
	IReturns&lt;out TStruct&gt;
	]
	
	[
	IReturns&lt;out TStruct&gt;
	] -:&gt; [
	IReturns
	]
	
	[
	IReturns&lt;out TStruct&gt;
	] -:&gt;
	[
	IExpected&lt;out TResult&gt;
	]
	
	[
	IExpected&lt;out TResult&gt;
	] -:&gt; [
	IExpected
	]
	
	[
	IThrows&lt;out TException&gt;
	] -:&gt;
	[
	IExpected&lt;out TResult&gt;
	]
	
	[
	TestDataThrows&lt;TException&gt;
	] --:&gt; [
	IThrows&lt;out TException&gt;
	]
	
	[
	TestDataThrows&lt;TException&gt;
	] &lt;:- [
	TestDataThrows&lt;TException, T1&gt;
	]
	
	[
	TestDataReturns&lt;TStruct, T1&gt;
	] &lt;:- [
	TestDataReturns&lt;TStruct, T1, T2&gt;
	]
	
	[
	IReturns
	] -:&gt; [
	IExpected
	]
	
	[
	IThrows
	] -:&gt; [
	IExpected
	]
	
	[
	IThrows&lt;out TException&gt;
	] -:&gt; [
	IThrows
	]
	
	[
	TestDataThrows&lt;TException, T1&gt;
	] &lt;:- [
	TestDataThrows&lt;TException, T1, T2&gt;
	]
	
	[
	TestDataReturns&lt;TStruct, T1, T2&gt;
	] &lt;:- [
	TestDataReturns&lt;TStruct, T1, T2, ..., T9&gt;
	]
	
	[
	TestDataThrows&lt;TException, T1, T2&gt;
	] &lt;:- [
	TestDataThrows&lt;TException, T1, T2, ..., T9&gt;
	]
	
	</desc>
	<g stroke-width="1.0" text-align="left" font="12pt Helvetica, Arial, sans-serif" font-size="12pt" font-family="Helvetica" font-weight="bold" font-style="normal">
		<g font-family="Helvetica" font-size="12pt" font-weight="bold" font-style="normal" stroke-width="3.0" stroke-linejoin="round" stroke-linecap="round" stroke="#33322E">
			<g stroke="transparent" fill="transparent">
				<rect x="0.0" y="0.0" height="768.0" width="1309.3" stroke="none"></rect>
			</g>
			<g transform="translate(8, 8)" fill="#33322E">
				<g transform="translate(20, 20)" fill="#eee8d5" font-family="Helvetica" font-size="12pt" font-weight="normal" font-style="normal">
					<path d="M735.8 32.0 L735.75 52 L735.75 58.66666666666667 L735.8 58.7 " fill="none"></path>
					<path d="M730.4 58.7 L735.8 58.7 L741.1 58.7 L735.8 72.0 Z"></path>
					<path d="M481.0 117.3 L481 124 L481 144 L481.0 144.0 " fill="none"></path>
					<path d="M486.3 117.3 L481.0 117.3 L475.7 117.3 L481.0 104.0 Z"></path>
					<path d="M735.8 104.0 L735.75 124 L735.75 130.66666666666666 L735.8 130.7 " fill="none"></path>
					<path d="M730.4 130.7 L735.8 130.7 L741.1 130.7 L735.8 144.0 Z"></path>
					<path d="M735.8 176.0 L735.75 196 L735.75 202.66666666666666 L735.8 202.7 " fill="none"></path>
					<path d="M730.4 202.7 L735.8 202.7 L741.1 202.7 L735.8 216.0 Z"></path>
					<path d="M735.8 248.0 L735.75 268 L670.651563631958 284.98220079166316 L670.7 285.0 " fill="none"></path>
					<path d="M669.3 279.8 L670.7 285.0 L672.0 290.1 L657.8 288.3 Z"></path>
					<g stroke-dasharray="6 6">
						<path d="M435.2 181.7 L405 196 L405 216 L405.0 216.0 " fill="none"></path>
					</g>
					<path d="M437.5 186.5 L435.2 181.7 L432.9 176.9 L447.2 176.0 Z"></path>
					<path d="M526.8 181.7 L557 196 L557 216 L557.0 216.0 " fill="none"></path>
					<path d="M529.1 176.9 L526.8 181.7 L524.5 186.5 L514.8 176.0 Z"></path>
					<g stroke-dasharray="6 6">
						<path d="M557.0 261.3 L557 268 L579.6388888888889 288 L579.6 288.0 " fill="none"></path>
					</g>
					<path d="M562.3 261.3 L557.0 261.3 L551.7 261.3 L557.0 248.0 Z"></path>
					<path d="M405.0 261.3 L405 268 L537.75 292.79377431906613 L537.8 292.8 " fill="none"></path>
					<path d="M410.3 261.3 L405.0 261.3 L399.7 261.3 L405.0 248.0 Z"></path>
					<path d="M597.8 333.3 L597.75 340 L597.75 360 L597.8 360.0 " fill="none"></path>
					<path d="M603.1 333.3 L597.8 333.3 L592.4 333.3 L597.8 320.0 Z"></path>
					<path d="M470.0 389.9 L267 412 L267 432 L267.0 432.0 " fill="none"></path>
					<path d="M470.6 395.2 L470.0 389.9 L469.4 384.6 L483.3 388.5 Z"></path>
					<g stroke-dasharray="6 6">
						<path d="M597.8 392.0 L597.75 412 L597.75 448 L597.75 448 L597.75 484 L597.75 484 L597.75 528 L597.75 528 L597.75 572 L597.75 572 L597.75 578.6666666666666 L597.8 578.7 " fill="none"></path>
					</g>
					<path d="M592.4 578.7 L597.8 578.7 L603.1 578.7 L597.8 592.0 Z"></path>
					<path d="M725.5 392.7 L872.75 412 L872.75 432 L872.8 432.0 " fill="none"></path>
					<path d="M726.2 387.4 L725.5 392.7 L724.8 398.0 L712.3 391.0 Z"></path>
					<path d="M206.8 468.3 L160 484 L160 512 L160.0 512.0 " fill="none"></path>
					<path d="M208.5 473.3 L206.8 468.3 L205.1 463.2 L219.4 464.0 Z"></path>
					<g stroke-dasharray="6 6">
						<path d="M332.6 464.0 L414.5 484 L414.5 490.6666666666667 L414.5 490.7 " fill="none"></path>
					</g>
					<path d="M409.2 490.7 L414.5 490.7 L419.8 490.7 L414.5 504.0 Z"></path>
					<path d="M403.6 552.0 L394.5 572 L394.5 586.6666666666666 L394.5 586.7 " fill="none"></path>
					<path d="M389.2 586.7 L394.5 586.7 L399.8 586.7 L394.5 600.0 Z"></path>
					<path d="M463.2 552.0 L503.75 572 L534.4014030398268 586.347465252685 L534.4 586.3 " fill="none"></path>
					<path d="M532.1 591.2 L534.4 586.3 L536.7 581.5 L546.5 592.0 Z"></path>
					<path d="M597.8 640.0 L597.75 660 L593.4178927052194 668.2082032953738 L593.4 668.2 " fill="none"></path>
					<path d="M588.7 665.7 L593.4 668.2 L598.1 670.7 L587.2 680.0 Z"></path>
					<path d="M738.5 552.0 L698.25 572 L664.7822178967639 586.6525613188297 L664.8 586.7 " fill="none"></path>
					<path d="M662.6 581.8 L664.8 586.7 L666.9 591.5 L652.6 592.0 Z"></path>
					<g stroke-dasharray="6 6">
						<path d="M834.5 464.0 L786.75 484 L786.75 490.6666666666667 L786.8 490.7 " fill="none"></path>
					</g>
					<path d="M781.4 490.7 L786.8 490.7 L792.1 490.7 L786.8 504.0 Z"></path>
					<path d="M978.1 466.3 L1080.25 484 L1080.25 512 L1080.3 512.0 " fill="none"></path>
					<path d="M979.0 461.0 L978.1 466.3 L977.2 471.5 L965.0 464.0 Z"></path>
					<path d="M160.0 557.3 L160 572 L160 600 L160.0 600.0 " fill="none"></path>
					<path d="M165.3 557.3 L160.0 557.3 L154.7 557.3 L160.0 544.0 Z"></path>
					<path d="M394.5 632.0 L394.5 660 L520.164110407432 684.5530961990098 L520.2 684.6 " fill="none"></path>
					<path d="M519.1 689.8 L520.2 684.6 L521.2 679.3 L533.3 687.1 Z"></path>
					<path d="M820.0 632.0 L820 660 L637.4373177800055 687.2425142380096 L637.4 687.2 " fill="none"></path>
					<path d="M636.7 682.0 L637.4 687.2 L638.2 692.5 L624.3 689.2 Z"></path>
					<path d="M804.9 552.0 L820 572 L820 586.6666666666666 L820.0 586.7 " fill="none"></path>
					<path d="M814.7 586.7 L820.0 586.7 L825.3 586.7 L820.0 600.0 Z"></path>
					<path d="M1080.3 557.3 L1080.25 572 L1080.25 600 L1080.3 600.0 " fill="none"></path>
					<path d="M1085.6 557.3 L1080.3 557.3 L1074.9 557.3 L1080.3 544.0 Z"></path>
					<path d="M160.0 645.3 L160 660 L160 680 L160.0 680.0 " fill="none"></path>
					<path d="M165.3 645.3 L160.0 645.3 L154.7 645.3 L160.0 632.0 Z"></path>
					<path d="M1080.3 645.3 L1080.25 660 L1080.25 680 L1080.3 680.0 " fill="none"></path>
					<path d="M1085.6 645.3 L1080.3 645.3 L1074.9 645.3 L1080.3 632.0 Z"></path>
					<g data-name="IEquatable&lt;INamedTestCase&gt;">
						<g fill="#ccffff" stroke="#33322E" data-name="IEquatable&lt;INamedTestCase&gt;">
							<rect x="360.5" y="72.0" height="32.0" width="241.0" data-name="IEquatable&lt;INamedTestCase&gt;"></rect>
						</g>
						<g transform="translate(360.5, 72)" font-family="Helvetica" font-size="12pt" font-weight="bold" font-style="normal" data-name="IEquatable&lt;INamedTestCase&gt;" data-compartment="0">
							<g transform="translate(8, 8)" fill="#33322E" text-align="center" data-name="IEquatable&lt;INamedTestCase&gt;" data-compartment="0">
								<text x="112.5" y="14.1" stroke="none" text-anchor="middle" data-name="IEquatable&lt;INamedTestCase&gt;" data-compartment="0">IEquatable&lt;INamedTestCase&gt;</text>
								
							</g>
						</g>
					</g>
					<g data-name="INamedTestCase">
						<g fill="#ccffff" stroke="#33322E" data-name="INamedTestCase">
							<rect x="409.5" y="144.0" height="32.0" width="143.0" data-name="INamedTestCase"></rect>
						</g>
						<g transform="translate(409.5, 144)" font-family="Helvetica" font-size="12pt" font-weight="bold" font-style="normal" data-name="INamedTestCase" data-compartment="0">
							<g transform="translate(8, 8)" fill="#33322E" text-align="center" data-name="INamedTestCase" data-compartment="0">
								<text x="63.5" y="14.1" stroke="none" text-anchor="middle" data-name="INamedTestCase" data-compartment="0">INamedTestCase</text>
								
							</g>
						</g>
					</g>
					<g data-name="ITestData">
						<g fill="#ccffcc" stroke="#33322E" data-name="ITestData">
							<rect x="514.0" y="216.0" height="32.0" width="86.0" data-name="ITestData"></rect>
						</g>
						<g transform="translate(514, 216)" font-family="Helvetica" font-size="12pt" font-weight="bold" font-style="italic" data-name="ITestData" data-compartment="0">
							<g transform="translate(8, 8)" fill="#33322E" text-align="center" data-name="ITestData" data-compartment="0">
								<text x="35.0" y="14.1" stroke="none" text-anchor="middle" data-name="ITestData" data-compartment="0">ITestData</text>
								
							</g>
						</g>
					</g>
					<g data-name="NamedTestCase">
						<g fill="#ccffff" stroke="#33322E" data-name="NamedTestCase">
							<rect x="336.0" y="216.0" height="32.0" width="138.0" data-name="NamedTestCase"></rect>
						</g>
						<g transform="translate(336, 216)" font-family="Helvetica" font-size="12pt" font-weight="bold" font-style="normal" data-name="NamedTestCase" data-compartment="0">
							<g transform="translate(8, 8)" fill="#33322E" text-align="center" data-name="NamedTestCase" data-compartment="0">
								<text x="61.0" y="14.1" stroke="none" text-anchor="middle" data-name="NamedTestCase" data-compartment="0">NamedTestCase</text>
								
							</g>
						</g>
					</g>
					<g data-name="TestDataBase">
						<g fill="#ccffcc" stroke="#33322E" data-name="TestDataBase">
							<rect x="537.8" y="288.0" height="32.0" width="120.0" data-name="TestDataBase"></rect>
						</g>
						<g transform="translate(537.75, 288)" font-family="Helvetica" font-size="12pt" font-weight="bold" font-style="italic" data-name="TestDataBase" data-compartment="0">
							<g transform="translate(8, 8)" fill="#33322E" text-align="center" data-name="TestDataBase" data-compartment="0">
								<text x="52.0" y="14.1" stroke="none" text-anchor="middle" data-name="TestDataBase" data-compartment="0">TestDataBase</text>
								
							</g>
						</g>
					</g>
					<g data-name="TestData">
						<g fill="#ffcccc" stroke="#33322E" data-name="TestData">
							<rect x="694.8" y="216.0" height="32.0" width="82.0" data-name="TestData"></rect>
						</g>
						<g transform="translate(694.75, 216)" font-family="Helvetica" font-size="12pt" font-weight="bold" font-style="italic" data-name="TestData" data-compartment="0">
							<g transform="translate(8, 8)" fill="#33322E" text-align="center" data-name="TestData" data-compartment="0">
								<text x="33.0" y="14.1" stroke="none" text-anchor="middle" data-name="TestData" data-compartment="0">TestData</text>
								
							</g>
						</g>
					</g>
					<g data-name="TestData&lt;T1&gt;">
						<g fill="#ffcccc" stroke="#33322E" data-name="TestData&lt;T1&gt;">
							<rect x="676.3" y="144.0" height="32.0" width="119.0" data-name="TestData&lt;T1&gt;"></rect>
						</g>
						<g transform="translate(676.25, 144)" font-family="Helvetica" font-size="12pt" font-weight="bold" font-style="normal" data-name="TestData&lt;T1&gt;" data-compartment="0">
							<g transform="translate(8, 8)" fill="#33322E" text-align="center" data-name="TestData&lt;T1&gt;" data-compartment="0">
								<text x="51.5" y="14.1" stroke="none" text-anchor="middle" data-name="TestData&lt;T1&gt;" data-compartment="0">TestData&lt;T1&gt;</text>
								
							</g>
						</g>
					</g>
					<g data-name="TestData&lt;T1, T2&gt;">
						<g fill="#ffcccc" stroke="#33322E" data-name="TestData&lt;T1, T2&gt;">
							<rect x="662.8" y="72.0" height="32.0" width="146.0" data-name="TestData&lt;T1, T2&gt;"></rect>
						</g>
						<g transform="translate(662.75, 72)" font-family="Helvetica" font-size="12pt" font-weight="bold" font-style="normal" data-name="TestData&lt;T1, T2&gt;" data-compartment="0">
							<g transform="translate(8, 8)" fill="#33322E" text-align="center" data-name="TestData&lt;T1, T2&gt;" data-compartment="0">
								<text x="65.0" y="14.1" stroke="none" text-anchor="middle" data-name="TestData&lt;T1, T2&gt;" data-compartment="0">TestData&lt;T1, T2&gt;</text>
								
							</g>
						</g>
					</g>
					<g data-name="TestData&lt;T1, T2, ..., T9&gt;">
						<g fill="#ffcccc" stroke="#33322E" data-name="TestData&lt;T1, T2, ..., T9&gt;">
							<rect x="637.8" y="0.0" height="32.0" width="196.0" data-name="TestData&lt;T1, T2, ..., T9&gt;"></rect>
						</g>
						<g transform="translate(637.75, 0)" font-family="Helvetica" font-size="12pt" font-weight="bold" font-style="normal" data-name="TestData&lt;T1, T2, ..., T9&gt;" data-compartment="0">
							<g transform="translate(8, 8)" fill="#33322E" text-align="center" data-name="TestData&lt;T1, T2, ..., T9&gt;" data-compartment="0">
								<text x="90.0" y="14.1" stroke="none" text-anchor="middle" data-name="TestData&lt;T1, T2, ..., T9&gt;" data-compartment="0">TestData&lt;T1, T2, ..., T9&gt;</text>
								
							</g>
						</g>
					</g>
					<g data-name="TestDataReturns&lt;TStruct&gt;">
						<g fill="#ffcccc" stroke="#33322E" data-name="TestDataReturns&lt;TStruct&gt;">
							<rect x="159.0" y="432.0" height="32.0" width="216.0" data-name="TestDataReturns&lt;TStruct&gt;"></rect>
						</g>
						<g transform="translate(159, 432)" font-family="Helvetica" font-size="12pt" font-weight="bold" font-style="italic" data-name="TestDataReturns&lt;TStruct&gt;" data-compartment="0">
							<g transform="translate(8, 8)" fill="#33322E" text-align="center" data-name="TestDataReturns&lt;TStruct&gt;" data-compartment="0">
								<text x="100.0" y="14.1" stroke="none" text-anchor="middle" data-name="TestDataReturns&lt;TStruct&gt;" data-compartment="0">TestDataReturns&lt;TStruct&gt;</text>
								
							</g>
						</g>
					</g>
					<g data-name="TestDataThrows&lt;TException&gt;">
						<g fill="#ffcccc" stroke="#33322E" data-name="TestDataThrows&lt;TException&gt;">
							<rect x="751.8" y="432.0" height="32.0" width="242.0" data-name="TestDataThrows&lt;TException&gt;"></rect>
						</g>
						<g transform="translate(751.75, 432)" font-family="Helvetica" font-size="12pt" font-weight="bold" font-style="italic" data-name="TestDataThrows&lt;TException&gt;" data-compartment="0">
							<g transform="translate(8, 8)" fill="#33322E" text-align="center" data-name="TestDataThrows&lt;TException&gt;" data-compartment="0">
								<text x="113.0" y="14.1" stroke="none" text-anchor="middle" data-name="TestDataThrows&lt;TException&gt;" data-compartment="0">TestDataThrows&lt;TException&gt;</text>
								
							</g>
						</g>
					</g>
					<g data-name="TestDataExpected&lt;TResult&gt;">
						<g fill="#ffffcc" stroke="#33322E" data-name="TestDataExpected&lt;TResult&gt;">
							<rect x="483.3" y="360.0" height="32.0" width="229.0" data-name="TestDataExpected&lt;TResult&gt;"></rect>
						</g>
						<g transform="translate(483.25, 360)" font-family="Helvetica" font-size="12pt" font-weight="bold" font-style="italic" data-name="TestDataExpected&lt;TResult&gt;" data-compartment="0">
							<g transform="translate(8, 8)" fill="#33322E" text-align="center" data-name="TestDataExpected&lt;TResult&gt;" data-compartment="0">
								<text x="106.5" y="14.1" stroke="none" text-anchor="middle" data-name="TestDataExpected&lt;TResult&gt;" data-compartment="0">TestDataExpected&lt;TResult&gt;</text>
								
							</g>
						</g>
					</g>
					<g data-name="IExpected">
						<g fill="#ffffcc" stroke="#33322E" data-name="IExpected">
							<rect x="533.3" y="680.0" height="32.0" width="91.0" data-name="IExpected"></rect>
						</g>
						<g transform="translate(533.25, 680)" font-family="Helvetica" font-size="12pt" font-weight="bold" font-style="italic" data-name="IExpected" data-compartment="0">
							<g transform="translate(8, 8)" fill="#33322E" text-align="center" data-name="IExpected" data-compartment="0">
								<text x="37.5" y="14.1" stroke="none" text-anchor="middle" data-name="IExpected" data-compartment="0">IExpected</text>
								
							</g>
						</g>
					</g>
					<g data-name="IReturns">
						<g fill="#ffffcc" stroke="#33322E" data-name="IReturns">
							<rect x="354.5" y="600.0" height="32.0" width="80.0" data-name="IReturns"></rect>
						</g>
						<g transform="translate(354.5, 600)" font-family="Helvetica" font-size="12pt" font-weight="bold" font-style="italic" data-name="IReturns" data-compartment="0">
							<g transform="translate(8, 8)" fill="#33322E" text-align="center" data-name="IReturns" data-compartment="0">
								<text x="32.0" y="14.1" stroke="none" text-anchor="middle" data-name="IReturns" data-compartment="0">IReturns</text>
								
							</g>
						</g>
					</g>
					<g data-name="IExpected&lt;out TResult&gt;">
						<g fill="#ffffcc" stroke="#33322E" data-name="IExpected&lt;out TResult&gt;">
							<rect x="499.3" y="592.0" height="48.0" width="197.0" data-name="IExpected&lt;out TResult&gt;"></rect>
						</g>
						<g transform="translate(499.25, 592)" font-family="Helvetica" font-size="12pt" font-weight="bold" font-style="italic" data-name="IExpected&lt;out TResult&gt;" data-compartment="0">
							<g transform="translate(8, 8)" fill="#33322E" text-align="center" data-name="IExpected&lt;out TResult&gt;" data-compartment="0">
								<text x="90.5" y="14.1" stroke="none" text-anchor="middle" data-name="IExpected&lt;out TResult&gt;" data-compartment="0">IExpected&lt;out TResult&gt;</text>
								<text x="90.5" y="30.3" stroke="none" text-anchor="middle" data-name="IExpected&lt;out TResult&gt;" data-compartment="0">where TResult: notnull</text>
								
							</g>
						</g>
					</g>
					<g data-name="IThrows">
						<g fill="#ffffcc" stroke="#33322E" data-name="IThrows">
							<rect x="781.5" y="600.0" height="32.0" width="77.0" data-name="IThrows"></rect>
						</g>
						<g transform="translate(781.5, 600)" font-family="Helvetica" font-size="12pt" font-weight="bold" font-style="italic" data-name="IThrows" data-compartment="0">
							<g transform="translate(8, 8)" fill="#33322E" text-align="center" data-name="IThrows" data-compartment="0">
								<text x="30.5" y="14.1" stroke="none" text-anchor="middle" data-name="IThrows" data-compartment="0">IThrows</text>
								
							</g>
						</g>
					</g>
					<g data-name="IReturns&lt;out TStruct&gt;">
						<g fill="#ffffcc" stroke="#33322E" data-name="IReturns&lt;out TStruct&gt;">
							<rect x="322.5" y="504.0" height="48.0" width="184.0" data-name="IReturns&lt;out TStruct&gt;"></rect>
						</g>
						<g transform="translate(322.5, 504)" font-family="Helvetica" font-size="12pt" font-weight="bold" font-style="italic" data-name="IReturns&lt;out TStruct&gt;" data-compartment="0">
							<g transform="translate(8, 8)" fill="#33322E" text-align="center" data-name="IReturns&lt;out TStruct&gt;" data-compartment="0">
								<text x="84.0" y="14.1" stroke="none" text-anchor="middle" data-name="IReturns&lt;out TStruct&gt;" data-compartment="0">IReturns&lt;out TStruct&gt;</text>
								<text x="84.0" y="30.3" stroke="none" text-anchor="middle" data-name="IReturns&lt;out TStruct&gt;" data-compartment="0">where TStruct: struct</text>
								
							</g>
						</g>
					</g>
					<g data-name="IThrows&lt;out TException&gt;">
						<g fill="#ffffcc" stroke="#33322E" data-name="IThrows&lt;out TException&gt;">
							<rect x="668.3" y="504.0" height="48.0" width="237.0" data-name="IThrows&lt;out TException&gt;"></rect>
						</g>
						<g transform="translate(668.25, 504)" font-family="Helvetica" font-size="12pt" font-weight="bold" font-style="italic" data-name="IThrows&lt;out TException&gt;" data-compartment="0">
							<g transform="translate(8, 8)" fill="#33322E" text-align="center" data-name="IThrows&lt;out TException&gt;" data-compartment="0">
								<text x="110.5" y="14.1" stroke="none" text-anchor="middle" data-name="IThrows&lt;out TException&gt;" data-compartment="0">IThrows&lt;out TException&gt;</text>
								<text x="110.5" y="30.3" stroke="none" text-anchor="middle" data-name="IThrows&lt;out TException&gt;" data-compartment="0">where TException: Exception</text>
								
							</g>
						</g>
					</g>
					<g data-name="TestDataReturns&lt;TStruct, T1&gt;">
						<g fill="#ffcccc" stroke="#33322E" data-name="TestDataReturns&lt;TStruct, T1&gt;">
							<rect x="38.5" y="512.0" height="32.0" width="243.0" data-name="TestDataReturns&lt;TStruct, T1&gt;"></rect>
						</g>
						<g transform="translate(38.5, 512)" font-family="Helvetica" font-size="12pt" font-weight="bold" font-style="normal" data-name="TestDataReturns&lt;TStruct, T1&gt;" data-compartment="0">
							<g transform="translate(8, 8)" fill="#33322E" text-align="center" data-name="TestDataReturns&lt;TStruct, T1&gt;" data-compartment="0">
								<text x="113.5" y="14.1" stroke="none" text-anchor="middle" data-name="TestDataReturns&lt;TStruct, T1&gt;" data-compartment="0">TestDataReturns&lt;TStruct, T1&gt;</text>
								
							</g>
						</g>
					</g>
					<g data-name="TestDataThrows&lt;TException, T1&gt;">
						<g fill="#ffcccc" stroke="#33322E" data-name="TestDataThrows&lt;TException, T1&gt;">
							<rect x="945.3" y="512.0" height="32.0" width="270.0" data-name="TestDataThrows&lt;TException, T1&gt;"></rect>
						</g>
						<g transform="translate(945.25, 512)" font-family="Helvetica" font-size="12pt" font-weight="bold" font-style="normal" data-name="TestDataThrows&lt;TException, T1&gt;" data-compartment="0">
							<g transform="translate(8, 8)" fill="#33322E" text-align="center" data-name="TestDataThrows&lt;TException, T1&gt;" data-compartment="0">
								<text x="127.0" y="14.1" stroke="none" text-anchor="middle" data-name="TestDataThrows&lt;TException, T1&gt;" data-compartment="0">TestDataThrows&lt;TException, T1&gt;</text>
								
							</g>
						</g>
					</g>
					<g data-name="TestDataReturns&lt;TStruct, T1, T2&gt;">
						<g fill="#ffcccc" stroke="#33322E" data-name="TestDataReturns&lt;TStruct, T1, T2&gt;">
							<rect x="24.5" y="600.0" height="32.0" width="271.0" data-name="TestDataReturns&lt;TStruct, T1, T2&gt;"></rect>
						</g>
						<g transform="translate(24.5, 600)" font-family="Helvetica" font-size="12pt" font-weight="bold" font-style="normal" data-name="TestDataReturns&lt;TStruct, T1, T2&gt;" data-compartment="0">
							<g transform="translate(8, 8)" fill="#33322E" text-align="center" data-name="TestDataReturns&lt;TStruct, T1, T2&gt;" data-compartment="0">
								<text x="127.5" y="14.1" stroke="none" text-anchor="middle" data-name="TestDataReturns&lt;TStruct, T1, T2&gt;" data-compartment="0">TestDataReturns&lt;TStruct, T1, T2&gt;</text>
								
							</g>
						</g>
					</g>
					<g data-name="TestDataThrows&lt;TException, T1, T2&gt;">
						<g fill="#ffcccc" stroke="#33322E" data-name="TestDataThrows&lt;TException, T1, T2&gt;">
							<rect x="931.8" y="600.0" height="32.0" width="297.0" data-name="TestDataThrows&lt;TException, T1, T2&gt;"></rect>
						</g>
						<g transform="translate(931.75, 600)" font-family="Helvetica" font-size="12pt" font-weight="bold" font-style="normal" data-name="TestDataThrows&lt;TException, T1, T2&gt;" data-compartment="0">
							<g transform="translate(8, 8)" fill="#33322E" text-align="center" data-name="TestDataThrows&lt;TException, T1, T2&gt;" data-compartment="0">
								<text x="140.5" y="14.1" stroke="none" text-anchor="middle" data-name="TestDataThrows&lt;TException, T1, T2&gt;" data-compartment="0">TestDataThrows&lt;TException, T1, T2&gt;</text>
								
							</g>
						</g>
					</g>
					<g data-name="TestDataReturns&lt;TStruct, T1, T2, ..., T9&gt;">
						<g fill="#ffcccc" stroke="#33322E" data-name="TestDataReturns&lt;TStruct, T1, T2, ..., T9&gt;">
							<rect x="0.0" y="680.0" height="32.0" width="320.0" data-name="TestDataReturns&lt;TStruct, T1, T2, ..., T9&gt;"></rect>
						</g>
						<g transform="translate(0, 680)" font-family="Helvetica" font-size="12pt" font-weight="bold" font-style="normal" data-name="TestDataReturns&lt;TStruct, T1, T2, ..., T9&gt;" data-compartment="0">
							<g transform="translate(8, 8)" fill="#33322E" text-align="center" data-name="TestDataReturns&lt;TStruct, T1, T2, ..., T9&gt;" data-compartment="0">
								<text x="152.0" y="14.1" stroke="none" text-anchor="middle" data-name="TestDataReturns&lt;TStruct, T1, T2, ..., T9&gt;" data-compartment="0">TestDataReturns&lt;TStruct, T1, T2, ..., T9&gt;</text>
								
							</g>
						</g>
					</g>
					<g data-name="TestDataThrows&lt;TException, T1, T2, ..., T9&gt;">
						<g fill="#ffcccc" stroke="#33322E" data-name="TestDataThrows&lt;TException, T1, T2, ..., T9&gt;">
							<rect x="907.3" y="680.0" height="32.0" width="346.0" data-name="TestDataThrows&lt;TException, T1, T2, ..., T9&gt;"></rect>
						</g>
						<g transform="translate(907.25, 680)" font-family="Helvetica" font-size="12pt" font-weight="bold" font-style="normal" data-name="TestDataThrows&lt;TException, T1, T2, ..., T9&gt;" data-compartment="0">
							<g transform="translate(8, 8)" fill="#33322E" text-align="center" data-name="TestDataThrows&lt;TException, T1, T2, ..., T9&gt;" data-compartment="0">
								<text x="165.0" y="14.1" stroke="none" text-anchor="middle" data-name="TestDataThrows&lt;TException, T1, T2, ..., T9&gt;" data-compartment="0">TestDataThrows&lt;TException, T1, T2, ..., T9&gt;</text>
								
							</g>
						</g>
					</g>
				</g>
			</g>
		</g>
	</g>
</svg>