<svg version="1.1" baseProfile="full" width="747.1" height="791.5" viewBox="0 0 747.125 791.5" xmlns="http://www.w3.org/2000/svg" xmlns:xlink="http://www.w3.org/1999/xlink" xmlns:ev="http://www.w3.org/2001/xml-events">
	<title >CsabaDu_DynamicTestData_UseWhen</title>
	<desc >#title: CsabaDu_DynamicTestData_UseWhen
	#direction: down
	#.simpler: fill=#EEC2C2 title=center,italic,bold
	#.evaluate: fill=#FFFFAA title=center,italic,bold
	#.use: fill=#BBFFAA title=center,bold
	#.spec: title=center,italic visual=rhomb
	
	[&lt;spec&gt; Are your
	test inputs dynamic
	or reusable?] yes -&gt;
	
	[&lt;spec&gt; Do you
	need type or thread
	safety?] no -&gt;
	[&lt;evaluate&gt; Evaluate trade-offs
	before choosing]
	
	[&lt;spec&gt; Do you need
	descriptive or traceable
	test names?] no -&gt;
	[Evaluate trade-offs]
	
	[&lt;spec&gt; Will you assert
	exception details, or return value
	validation?] no -&gt;
	[Evaluate trade-offs]
	
	[&lt;spec&gt; Do you want to
	support multiple test frameworks
	with shared logic?] no -&gt;
	[Evaluate trade-offs]
	
	
	
	
	[Do you] yes -&gt;
	[Do you need] yes -&gt;
	[Will you assert] yes -&gt;
	[Do you want to] yes -&gt;
	
	[&lt;use&gt; Use
	CsabaDu.DynamicTestData]
	
	[&lt;spec&gt; Are your
	test inputs dynamic
	or reusable?] no -&gt;
	[&lt;simpler&gt; Use simpler
	static test patterns]
	</desc>
	<g stroke-width="1.0" text-align="left" font="12pt Helvetica, Arial, sans-serif" font-size="12pt" font-family="Helvetica" font-weight="bold" font-style="normal">
		<g font-family="Helvetica" font-size="12pt" font-weight="bold" font-style="normal" stroke-width="3.0" stroke-linejoin="round" stroke-linecap="round" stroke="#33322E">
			<g stroke="transparent" fill="transparent">
				<rect x="0.0" y="0.0" height="791.5" width="747.1" stroke="none"></rect>
			</g>
			<g transform="translate(13.25, 8)" fill="#33322E">
				<g transform="translate(20, 20)" fill="#33322E" font-family="Helvetica" font-size="12pt" font-weight="normal" font-style="normal">
					<text x="197.5" y="117.5" stroke="none">yes</text>
					<path d="M189.5 97.5 L154.5 117.5 L154.5 130.83333333333334 L154.5 130.8 " fill="none"></path>
					<path d="M149.2 124.2 L154.5 130.8 L159.8 124.2 L154.5 137.5 Z"></path>
					<text x="49.2" y="255.0" stroke="none">no</text>
					<path d="M41.2 235.0 L-5.25 255 L-5.25 323.75 L-5.25 323.75 L-5.25 392.5 L-5.25 392.5 L-5.25 461.25 L-5.25 461.25 L-5.25 530 L-5.25 530 L-5.25 598.75 L-5.25 598.75 L-5.25 667.5 L-5.25 667.5 L27.355949496657797 684.4281625705362 L27.4 684.4 " fill="none"></path>
					<path d="M19.0 686.1 L27.4 684.4 L23.9 676.6 L33.3 687.5 Z"></path>
					<text x="156.2" y="392.5" stroke="none">no</text>
					<path d="M148.2 372.5 L107.5 392.5 L107.5 461.25 L107.5 461.25 L107.5 530 L107.5 530 L107.5 598.75 L107.5 598.75 L107.5 667.5 L107.5 667.5 L98.35189722068168 681.875590081786 L98.4 681.9 " fill="none"></path>
					<path d="M97.4 673.4 L98.4 681.9 L106.4 679.1 L94.8 687.5 Z"></path>
					<text x="289.7" y="530.0" stroke="none">no</text>
					<path d="M281.7 510.0 L246.875 530 L246.875 598.75 L246.875 598.75 L246.875 667.5 L246.875 667.5 L165.4475999828612 688.9058587050283 L165.4 688.9 " fill="none"></path>
					<path d="M170.5 682.1 L165.4 688.9 L173.3 692.4 L159.0 690.6 Z"></path>
					<text x="423.6" y="667.5" stroke="none">no</text>
					<path d="M415.6 647.5 L386.625 667.5 L165.59928673843098 699.1650594497648 L165.6 699.2 " fill="none"></path>
					<path d="M171.4 692.9 L165.6 699.2 L173.0 703.5 L159.0 700.1 Z"></path>
					<text x="185.9" y="255.0" stroke="none">yes</text>
					<path d="M220.3 235.0 L247.25 255 L247.25 268.3333333333333 L247.3 268.3 " fill="none"></path>
					<path d="M241.9 261.7 L247.3 268.3 L252.6 261.7 L247.3 275.0 Z"></path>
					<text x="297.5" y="392.5" stroke="none">yes</text>
					<path d="M331.9 372.5 L366.625 392.5 L366.625 405.8333333333333 L366.6 405.8 " fill="none"></path>
					<path d="M361.3 399.2 L366.6 405.8 L372.0 399.2 L366.6 412.5 Z"></path>
					<text x="417.1" y="530.0" stroke="none">yes</text>
					<path d="M451.5 510.0 L486.375 530 L486.375 543.3333333333334 L486.4 543.3 " fill="none"></path>
					<path d="M481.0 536.7 L486.4 543.3 L491.7 536.7 L486.4 550.0 Z"></path>
					<text x="466.2" y="667.5" stroke="none">yes</text>
					<path d="M500.6 647.5 L506.375 667.5 L506.375 680.8333333333334 L506.4 680.8 " fill="none"></path>
					<path d="M501.0 674.2 L506.4 680.8 L511.7 674.2 L506.4 687.5 Z"></path>
					<text x="332.8" y="117.5" stroke="none">no</text>
					<path d="M360.2 97.5 L395.25 117.5 L395.25 155.58333333333334 L395.3 155.6 " fill="none"></path>
					<path d="M389.9 148.9 L395.3 155.6 L400.6 148.9 L395.3 162.3 Z"></path>
					<g data-name="Are your">
						<g fill="#eee8d5" stroke="#33322E" data-name="Are your">
							<path d="M274.9 0.0 L398.6 48.8 L274.9 97.5 L151.1 48.8 Z" data-name="Are your"></path>
						</g>
						<g transform="translate(192.375, 16.25)" font-family="Helvetica" font-size="12pt" font-weight="normal" font-style="italic" data-name="Are your" data-compartment="0">
							<g transform="translate(8, 8)" fill="#33322E" text-align="center" data-name="Are your" data-compartment="0">
								<text x="74.5" y="14.1" stroke="none" text-anchor="middle" data-name="Are your" data-compartment="0">Are your</text>
								<text x="74.5" y="30.3" stroke="none" text-anchor="middle" data-name="Are your" data-compartment="0">test inputs dynamic</text>
								<text x="74.5" y="46.5" stroke="none" text-anchor="middle" data-name="Are your" data-compartment="0">or reusable?</text>
								
							</g>
						</g>
					</g>
					<g data-name="Do you">
						<g fill="#eee8d5" stroke="#33322E" data-name="Do you">
							<path d="M154.5 137.5 L276.8 186.3 L154.5 235.0 L32.3 186.3 Z" data-name="Do you"></path>
						</g>
						<g transform="translate(73, 153.75)" font-family="Helvetica" font-size="12pt" font-weight="normal" font-style="italic" data-name="Do you" data-compartment="0">
							<g transform="translate(8, 8)" fill="#33322E" text-align="center" data-name="Do you" data-compartment="0">
								<text x="73.5" y="14.1" stroke="none" text-anchor="middle" data-name="Do you" data-compartment="0">Do you</text>
								<text x="73.5" y="30.3" stroke="none" text-anchor="middle" data-name="Do you" data-compartment="0">need type or thread</text>
								<text x="73.5" y="46.5" stroke="none" text-anchor="middle" data-name="Do you" data-compartment="0">safety?</text>
								
							</g>
						</g>
					</g>
					<g data-name="Evaluate trade-offs">
						<g fill="#FFFFAA" stroke="#33322E" data-name="Evaluate trade-offs">
							<rect x="0.0" y="687.5" height="48.0" width="159.0" data-name="Evaluate trade-offs"></rect>
						</g>
						<g transform="translate(0, 687.5)" font-family="Helvetica" font-size="12pt" font-weight="bold" font-style="italic" data-name="Evaluate trade-offs" data-compartment="0">
							<g transform="translate(8, 8)" fill="#33322E" text-align="center" data-name="Evaluate trade-offs" data-compartment="0">
								<text x="71.5" y="14.1" stroke="none" text-anchor="middle" data-name="Evaluate trade-offs" data-compartment="0">Evaluate trade-offs</text>
								<text x="71.5" y="30.3" stroke="none" text-anchor="middle" data-name="Evaluate trade-offs" data-compartment="0">before choosing</text>
								
							</g>
						</g>
					</g>
					<g data-name="Do you need">
						<g fill="#eee8d5" stroke="#33322E" data-name="Do you need">
							<path d="M247.3 275.0 L392.8 323.8 L247.3 372.5 L101.8 323.8 Z" data-name="Do you need"></path>
						</g>
						<g transform="translate(150.25, 291.25)" font-family="Helvetica" font-size="12pt" font-weight="normal" font-style="italic" data-name="Do you need" data-compartment="0">
							<g transform="translate(8, 8)" fill="#33322E" text-align="center" data-name="Do you need" data-compartment="0">
								<text x="89.0" y="14.1" stroke="none" text-anchor="middle" data-name="Do you need" data-compartment="0">Do you need</text>
								<text x="89.0" y="30.3" stroke="none" text-anchor="middle" data-name="Do you need" data-compartment="0">descriptive or traceable</text>
								<text x="89.0" y="46.5" stroke="none" text-anchor="middle" data-name="Do you need" data-compartment="0">test names?</text>
								
							</g>
						</g>
					</g>
					<g data-name="Will you assert">
						<g fill="#eee8d5" stroke="#33322E" data-name="Will you assert">
							<path d="M366.6 412.5 L565.4 461.3 L366.6 510.0 L167.9 461.3 Z" data-name="Will you assert"></path>
						</g>
						<g transform="translate(234.125, 428.75)" font-family="Helvetica" font-size="12pt" font-weight="normal" font-style="italic" data-name="Will you assert" data-compartment="0">
							<g transform="translate(8, 8)" fill="#33322E" text-align="center" data-name="Will you assert" data-compartment="0">
								<text x="124.5" y="14.1" stroke="none" text-anchor="middle" data-name="Will you assert" data-compartment="0">Will you assert</text>
								<text x="124.5" y="30.3" stroke="none" text-anchor="middle" data-name="Will you assert" data-compartment="0">exception details, or return value</text>
								<text x="124.5" y="46.5" stroke="none" text-anchor="middle" data-name="Will you assert" data-compartment="0">validation?</text>
								
							</g>
						</g>
					</g>
					<g data-name="Do you want to">
						<g fill="#eee8d5" stroke="#33322E" data-name="Do you want to">
							<path d="M486.4 550.0 L685.9 598.8 L486.4 647.5 L286.9 598.8 Z" data-name="Do you want to"></path>
						</g>
						<g transform="translate(353.375, 566.25)" font-family="Helvetica" font-size="12pt" font-weight="normal" font-style="italic" data-name="Do you want to" data-compartment="0">
							<g transform="translate(8, 8)" fill="#33322E" text-align="center" data-name="Do you want to" data-compartment="0">
								<text x="125.0" y="14.1" stroke="none" text-anchor="middle" data-name="Do you want to" data-compartment="0">Do you want to</text>
								<text x="125.0" y="30.3" stroke="none" text-anchor="middle" data-name="Do you want to" data-compartment="0">support multiple test frameworks</text>
								<text x="125.0" y="46.5" stroke="none" text-anchor="middle" data-name="Do you want to" data-compartment="0">with shared logic?</text>
								
							</g>
						</g>
					</g>
					<g data-name="Use">
						<g fill="#BBFFAA" stroke="#33322E" data-name="Use">
							<rect x="395.9" y="687.5" height="48.0" width="221.0" data-name="Use"></rect>
						</g>
						<g transform="translate(395.875, 687.5)" font-family="Helvetica" font-size="12pt" font-weight="bold" font-style="normal" data-name="Use" data-compartment="0">
							<g transform="translate(8, 8)" fill="#33322E" text-align="center" data-name="Use" data-compartment="0">
								<text x="102.5" y="14.1" stroke="none" text-anchor="middle" data-name="Use" data-compartment="0">Use</text>
								<text x="102.5" y="30.3" stroke="none" text-anchor="middle" data-name="Use" data-compartment="0">CsabaDu.DynamicTestData</text>
								
							</g>
						</g>
					</g>
					<g data-name="Use simpler">
						<g fill="#EEC2C2" stroke="#33322E" data-name="Use simpler">
							<rect x="316.8" y="162.3" height="48.0" width="157.0" data-name="Use simpler"></rect>
						</g>
						<g transform="translate(316.75, 162.25)" font-family="Helvetica" font-size="12pt" font-weight="bold" font-style="italic" data-name="Use simpler" data-compartment="0">
							<g transform="translate(8, 8)" fill="#33322E" text-align="center" data-name="Use simpler" data-compartment="0">
								<text x="70.5" y="14.1" stroke="none" text-anchor="middle" data-name="Use simpler" data-compartment="0">Use simpler</text>
								<text x="70.5" y="30.3" stroke="none" text-anchor="middle" data-name="Use simpler" data-compartment="0">static test patterns</text>
								
							</g>
						</g>
					</g>
				</g>
			</g>
		</g>
	</g>
</svg>