<svg version="1.1" baseProfile="full" width="2096.8" height="896.0" viewBox="0 0 2096.7944429185654 896" xmlns="http://www.w3.org/2000/svg" xmlns:xlink="http://www.w3.org/1999/xlink" xmlns:ev="http://www.w3.org/2001/xml-events">
	<title >CsabaDu_DynamicTestData_Associations_simplified</title>
	<desc >
	
	#title: CsabaDu_DynamicTestData_Associations_simplified
	#direction: down
	#.contract: fill=#DCE8CF title=center,italic,bold body=left,italic visual=class
	#.concrete: fill=#C9DEEF title=center,bold body=left visual=class
	#.abstract: fill=#C9DEEF title=center,bold,italic body=left visual=class
	
	
	[&lt;concrete&gt;
	DataStrategy]
	
	[&lt;contract&gt;
	IEquatable&lt;INamedTestCase&gt;]
	
	
	[&lt;contract&gt;
	IEquatable&lt;IDataStrategy&gt;]
	
	[&lt;contract&gt;
	IDataStrategy]
	
	[&lt;abstract&gt;
	DynamicDataSource]
	
	[&lt;abstract&gt;
	DynamicDataSource&lt;TDataHolder&gt;]
	
	[&lt;abstract&gt;
	DynamicDataRowSource&lt;TDataRowHolder, TRow&gt;]
	
	[&lt;abstract&gt;
	DynamicDataSource]
	
	[&lt;contract&gt;
	IDataRowHolder&lt;TRow&gt;]
	
	[&lt;contract&gt;
	IAddTestData&lt;TTestData&gt;]
	
	[&lt;contract&gt;
	IDataRowHolder&lt;TRow, TTestData&gt;]
	
	[&lt;contract&gt;
	IDataRowHolder]
	
	[&lt;contract&gt;
	ITestDataRows]
	
	[&lt;contract&gt;
	ITestDataRow]
	
	[&lt;contract&gt;
	ITestDataRow&lt;TRow&gt;]
	
	[&lt;abstract&gt;
	DataRowHolder&lt;TRow&gt;]
	
	[&lt;abstract&gt;
	DataRowHolder&lt;TRow, TTestData&gt;]
	
	[&lt;contract&gt;
	IRows&lt;TRow&gt;]
	
	[&lt;contract&gt;
	ITestDataRowFactory&lt;TRow, TTestData&gt;]
	
	[&lt;contract&gt;
	ITestDataRow&lt;TRow, TTestData&gt;]
	
	[&lt;abstract&gt;
	TestDataRow&lt;TRow&gt;]
	
	[&lt;abstract&gt;
	TestDataRow&lt;TRow, TTestData&gt;]
	
	[&lt;contract&gt;
	INamedTestCase]
	
	[&lt;contract&gt;
	ITestData]
	
	[&lt;concrete&gt;
	TTestData
	(concrete generic records)]
	
	[&lt;contract&gt;
	ITestDataRow&lt;TRow&gt;]
	
	[&lt;contract&gt;
	IReadonlyCollection&lt;ITestDataRow&gt;]
	
	[IDataStrategy] &lt;-o returns, uses
	[DataRowHolder&lt;TRow&gt;]
	[IDataStrategy]
	
	
	
	[IDataStrategy] &lt;-- implements
	[DataStrategy] uses (as DataStrategy cache) &lt;-o
	[DataRowHolder&lt;TRow&gt;]
	
	
	[DynamicDataRowSource&lt;TDataRowHolder, TRow&gt;] has
	(generic constraint) +-&gt;
	[IDataRowHolder]
	
	
	[IDataStrategy] has &lt;-+
	[IDataRowHolder]
	[IEquatable&lt;IDataStrategy&gt;] &lt;:- extends
	[IDataStrategy] &lt;:-- implements
	[DynamicDataSource] &lt;:- extends
	[DynamicDataSource&lt;TDataHolder&gt;] &lt;:- extends
	[DynamicDataRowSource&lt;TDataRowHolder, TRow&gt;] o-&gt; uses
	[TTestData]
	
	
	
	
	[IDataRowHolder] extends &lt;:-
	[IDataRowHolder&lt;TRow&gt;]
	
	
	
	[IDataRowHolder&lt;TRow&gt;] &lt;:-- implements
	[DataRowHolder&lt;TRow&gt;] extends &lt;:-
	[DataRowHolder&lt;TRow, TTestData&gt;]
	
	[IDataRowHolder&lt;TRow&gt;] &lt;:- extends
	[IDataRowHolder&lt;TRow, TTestData&gt;] implements &lt;:--
	[DataRowHolder&lt;TRow, TTestData&gt;]
	
	[ITestDataRows] extends &lt;:-
	[IDataRowHolder]
	
	
	
	
	[IDataRowHolder&lt;TRow, TTestData&gt;] -:&gt; extends
	[IReadonlyCollection&lt;ITestDataRow&gt;]
	[IDataRowHolder&lt;TRow, TTestData&gt;]
	
	
	
	[IDataRowHolder&lt;TRow, TTestData&gt;] extends &lt;:-
	[ITestDataRowFactory&lt;TRow, TTestData&gt;]
	
	[DynamicDataSource&lt;TDataHolder&gt;] uses o-&gt;
	[TTestData]
	
	[IDataRowHolder&lt;TRow, TTestData&gt;] o-&gt; uses
	[TTestData]
	
	
	[IDataStrategy] &lt;-o returns
	[ITestDataRows]
	
	[ITestDataRows] o-&gt; returns
	[ITestDataRow]
	
	
	
	[IRows&lt;TRow&gt;]
	[IDataRowHolder&lt;TRow&gt;] -:&gt; extends
	[IRows&lt;TRow&gt;]
	
	[INamedTestCase] -:&gt; extends
	[IEquatable&lt;INamedTestCase&gt;]
	
	
	[ITestDataRow] extends -:&gt;
	[INamedTestCase] &lt;:- extends
	[ITestData]
	
	[ITestData] implements &lt;:--
	[TTestData]
	
	
	
	
	[ITestDataRow] &lt;:- extends
	[ITestDataRow&lt;TRow&gt;] extends &lt;:-
	[ITestDataRow&lt;TRow, TTestData&gt;]
	
	
	[ITestDataRowFactory&lt;TRow, TTestData&gt;] returns o-&gt;
	[ITestDataRow&lt;TRow, TTestData&gt;]
	[ITestDataRowFactory&lt;TRow, TTestData&gt;]
	
	
	[IDataStrategy] &lt;-o uses
	[ITestDataRow]
	
	[TestDataRow&lt;TRow&gt;]
	[ITestDataRow&lt;TRow&gt;] &lt;:-- implements
	[TestDataRow&lt;TRow&gt;]
	
	
	[IAddTestData&lt;TTestData&gt;]
	[IDataRowHolder&lt;TRow, TTestData&gt;] -:&gt; extends
	[IAddTestData&lt;TTestData&gt;]
	
	
	[IAddTestData&lt;TTestData&gt;] uses o-&gt;
	[TTestData]
	
	[TestDataRow&lt;TRow, TTestData&gt;] implements --:&gt;
	[ITestDataRow&lt;TRow, TTestData&gt;]
	[TestDataRow&lt;TRow, TTestData&gt;]
	
	[TestDataRow&lt;TRow&gt;] &lt;:- extends
	[TestDataRow&lt;TRow, TTestData&gt;]
	
	[TTestData] &lt;-o uses
	[ITestDataRowFactory&lt;TRow, TTestData&gt;]
	
	[TTestData] &lt;-+ has
	[ITestDataRow&lt;TRow, TTestData&gt;]
	[TTestData]
	
	
	[DataRowHolder&lt;TRow, TTestData&gt;] has +-&gt;
	[ITestDataRow&lt;TRow, TTestData&gt;]
	
	
	</desc>
	<g stroke-width="1.0" text-align="left" font="12pt Helvetica, Arial, sans-serif" font-size="12pt" font-family="Helvetica" font-weight="bold" font-style="normal">
		<g font-family="Helvetica" font-size="12pt" font-weight="bold" font-style="normal" stroke-width="3.0" stroke-linejoin="round" stroke-linecap="round" stroke="#33322E">
			<g stroke="transparent" fill="transparent">
				<rect x="0.0" y="0.0" height="896.0" width="2096.8" stroke="none"></rect>
			</g>
			<g transform="translate(26.044442918565537, 8)" fill="#33322E">
				<g transform="translate(20, 20)" fill="#33322E" font-family="Helvetica" font-size="12pt" font-weight="normal" font-style="normal">
					<text x="-18.0" y="496.0" stroke="none">returns, uses</text>
					<path d="M879.3 90.6 L51.5 124 L51.5 160 L51.5 160 L51.5 196 L51.5 196 L51.5 232 L51.5 232 L51.5 268 L51.5 268 L51.5 304 L51.5 304 L51.5 340 L51.5 340 L51.5 376 L51.5 376 L51.5 412 L51.5 412 L51.5 448 L51.5 448 L51.5 484 L51.5 484 L73.03185248283575 495.31601006397204 L73.0 495.3 " fill="none"></path>
					<g fill="#eee8d5">
						<path d="M78.8 504.4 L73.0 495.3 L83.8 494.9 L89.6 504.0 Z"></path>
					</g>
					<path d="M872.9 96.2 L879.3 90.6 L872.5 85.6 L886.0 90.4 Z"></path>
					<text x="52.4" y="424.0" stroke="none">implements</text>
					<g stroke-dasharray="6 6">
						<path d="M879.3 91.0 L148.5 124 L148.5 160 L148.5 160 L148.5 196 L148.5 196 L148.5 232 L148.5 232 L148.5 268 L148.5 268 L148.5 304 L148.5 304 L148.5 340 L148.5 340 L148.5 376 L148.5 376 L148.5 412 L148.5 412 L148.5 432 L148.5 432.0 " fill="none"></path>
					</g>
					<path d="M872.9 96.6 L879.3 91.0 L872.4 85.9 L886.0 90.7 Z"></path>
					<text x="156.5" y="484.0" stroke="none">uses (as DataStrategy cache)</text>
					<path d="M148.5 470.7 L148.5 484 L144.25312162815715 489.36447794338045 L144.3 489.4 " fill="none"></path>
					<g fill="#eee8d5">
						<path d="M134.3 493.4 L144.3 489.4 L142.6 500.0 L132.7 504.0 Z"></path>
					</g>
					<path d="M153.8 477.3 L148.5 470.7 L143.2 477.3 L148.5 464.0 Z"></path>
					<text x="875.9" y="340.0" stroke="none">has
					(generic constraint)</text>
					<path d="M849.6 323.8 L771.5 340 L710.9432484388352 358.09164361993305 L710.9 358.1 " fill="none"></path>
					<path d="M715.8 351.1 L710.9 358.1 L718.9 361.3 L704.6 360.0 Z"></path>
					<g fill="#33322E">
						<path d="M859.8 327.1 L849.6 323.8 L857.7 316.7 L867.9 320.0 Z"></path>
					</g>
					<text x="894.0" y="110.8" stroke="none">has</text>
					<path d="M879.3 91.1 L188.5 124 L188.5 160 L188.5 160 L188.5 196 L188.5 196 L188.5 232 L188.5 232 L188.5 268 L188.5 268 L188.5 304 L188.5 304 L188.5 340 L188.5 340 L562.8896258038023 369.14167898148514 L562.9 369.1 " fill="none"></path>
					<g fill="#33322E">
						<path d="M571.8 375.2 L562.9 369.1 L572.6 364.5 L581.5 370.6 Z"></path>
					</g>
					<path d="M872.9 96.8 L879.3 91.1 L872.4 86.1 L886.0 90.8 Z"></path>
					<text x="877.1" y="64.0" stroke="none">extends</text>
					<path d="M945.0 45.3 L945 52 L945 72 L945.0 72.0 " fill="none"></path>
					<path d="M950.3 45.3 L945.0 45.3 L939.7 45.3 L945.0 32.0 Z"></path>
					<text x="1073.5" y="136.0" stroke="none">implements</text>
					<g stroke-dasharray="6 6">
						<path d="M1011.3 107.8 L1065.5 124 L1065.5 144 L1065.5 144.0 " fill="none"></path>
					</g>
					<path d="M1012.9 102.7 L1011.3 107.8 L1009.8 112.9 L998.6 104.0 Z"></path>
					<text x="997.6" y="208.0" stroke="none">extends</text>
					<path d="M1065.5 189.3 L1065.5 196 L1065.5 216 L1065.5 216.0 " fill="none"></path>
					<path d="M1070.8 189.3 L1065.5 189.3 L1060.2 189.3 L1065.5 176.0 Z"></path>
					<text x="877.1" y="280.0" stroke="none">extends</text>
					<path d="M999.2 251.8 L945 268 L945 288 L945.0 288.0 " fill="none"></path>
					<path d="M1000.7 256.9 L999.2 251.8 L997.6 246.7 L1011.9 248.0 Z"></path>
					<text x="1112.4" y="640.0" stroke="none">uses</text>
					<path d="M1031.8 324.2 L1099.5 340 L1099.5 376 L1099.5 376 L1099.5 412 L1099.5 412 L1099.5 448 L1099.5 448 L1099.5 484 L1099.5 484 L1099.5 520 L1099.5 520 L1099.5 556 L1099.5 556 L1099.5 592 L1099.5 592 L1099.5 628 L1099.5 628 L1102.8041146390026 641.5238180573124 L1102.8 641.5 " fill="none"></path>
					<path d="M1096.0 636.3 L1102.8 641.5 L1106.4 633.8 L1104.4 648.0 Z"></path>
					<g fill="#eee8d5">
						<path d="M1024.0 316.9 L1031.8 324.2 L1021.5 327.3 L1013.7 320.0 Z"></path>
					</g>
					<text x="659.0" y="412.0" stroke="none">extends</text>
					<path d="M651.0 405.3 L651 412 L651 432 L651.0 432.0 " fill="none"></path>
					<path d="M656.3 405.3 L651.0 405.3 L645.7 405.3 L651.0 392.0 Z"></path>
					<text x="107.9" y="496.0" stroke="none">implements</text>
					<g stroke-dasharray="6 6">
						<path d="M537.2 460.0 L309 484 L204 504 L204.0 504.0 " fill="none"></path>
					</g>
					<path d="M537.8 465.3 L537.2 460.0 L536.7 454.7 L550.5 458.6 Z"></path>
					<text x="52.1" y="556.0" stroke="none">extends</text>
					<path d="M120.0 549.3 L120 556 L131.11111111111111 576 L131.1 576.0 " fill="none"></path>
					<path d="M125.3 549.3 L120.0 549.3 L114.7 549.3 L120.0 536.0 Z"></path>
					<text x="583.1" y="496.0" stroke="none">extends</text>
					<path d="M651.0 477.3 L651 484 L651 504 L651.0 504.0 " fill="none"></path>
					<path d="M656.3 477.3 L651.0 477.3 L645.7 477.3 L651.0 464.0 Z"></path>
					<text x="517.0" y="553.9" stroke="none">implements</text>
					<g stroke-dasharray="6 6">
						<path d="M495.7 535.2 L282.75 556 L203.44444444444446 576 L203.4 576.0 " fill="none"></path>
					</g>
					<path d="M496.2 540.5 L495.7 535.2 L495.2 529.9 L509.0 533.9 Z"></path>
					<text x="1320.1" y="340.0" stroke="none">extends</text>
					<path d="M1300.5 326.7 L1277.5 340 L720.5 372.0063846767757 L720.5 372.0 " fill="none"></path>
					<path d="M1303.2 331.3 L1300.5 326.7 L1297.9 322.1 L1312.1 320.0 Z"></path>
					<text x="397.6" y="568.0" stroke="none">extends</text>
					<path d="M568.6 536.0 L465.5 556 L465.5 562.6666666666666 L465.5 562.7 " fill="none"></path>
					<path d="M460.2 562.7 L465.5 562.7 L470.8 562.7 L465.5 576.0 Z"></path>
					<text x="583.1" y="556.0" stroke="none">extends</text>
					<path d="M651.0 549.3 L651 556 L651 592 L651 592 L651 628 L651 628 L651 672 L651 672 L651 716 L651 716 L662.1111111111111 736 L662.1 736.0 " fill="none"></path>
					<path d="M656.3 549.3 L651.0 549.3 L645.7 549.3 L651.0 536.0 Z"></path>
					<text x="1079.7" y="268.0" stroke="none">uses</text>
					<path d="M1141.8 252.9 L1196.75 268 L1196.75 304 L1196.75 304 L1196.75 340 L1196.75 340 L1196.75 376 L1196.75 376 L1196.75 412 L1196.75 412 L1196.75 448 L1196.75 448 L1196.75 484 L1196.75 484 L1196.75 520 L1196.75 520 L1196.75 556 L1196.75 556 L1196.75 592 L1196.75 592 L1196.75 628 L1196.75 628 L1163.3739152398373 644.9774303982331 L1163.4 645.0 " fill="none"></path>
					<path d="M1166.9 637.2 L1163.4 645.0 L1171.7 646.7 L1157.4 648.0 Z"></path>
					<g fill="#eee8d5">
						<path d="M1134.2 245.3 L1141.8 252.9 L1131.4 255.6 L1123.8 248.0 Z"></path>
					</g>
					<text x="1010.3" y="650.9" stroke="none">uses</text>
					<path d="M710.9 542.6 L746.5 556 L746.5 592 L746.5 592 L746.5 628 L746.5 628 L995.6315773946999 658.1355035199088 L995.6 658.1 " fill="none"></path>
					<path d="M988.4 662.6 L995.6 658.1 L989.7 652.0 L1002.3 658.9 Z"></path>
					<g fill="#eee8d5">
						<path d="M704.1 534.3 L710.9 542.6 L700.3 544.3 L693.4 536.0 Z"></path>
					</g>
					<text x="1347.8" y="280.0" stroke="none">returns</text>
					<path d="M1010.6 94.0 L1339.75 124 L1339.75 160 L1339.75 160 L1339.75 196 L1339.75 196 L1339.75 232 L1339.75 232 L1339.75 268 L1339.75 268 L1339.75 269.3333333333333 L1339.8 269.3 " fill="none"></path>
					<g fill="#eee8d5">
						<path d="M1334.4 278.7 L1339.8 269.3 L1345.1 278.7 L1339.8 288.0 Z"></path>
					</g>
					<path d="M1017.8 89.3 L1010.6 94.0 L1016.8 99.9 L1004.0 93.4 Z"></path>
					<text x="1566.3" y="431.4" stroke="none">returns</text>
					<path d="M1363.7 334.7 L1367.75 340 L1367.75 376 L1367.75 376 L1367.75 412 L1367.75 412 L1551.6511293113595 438.42890481121333 L1551.7 438.4 " fill="none"></path>
					<path d="M1544.3 442.8 L1551.7 438.4 L1545.8 432.2 L1558.3 439.4 Z"></path>
					<g fill="#eee8d5">
						<path d="M1362.1 324.1 L1363.7 334.7 L1353.7 330.6 L1352.2 320.0 Z"></path>
					</g>
					<text x="986.0" y="496.0" stroke="none">extends</text>
					<path d="M751.5 459.1 L978 484 L978 490.6666666666667 L978.0 490.7 " fill="none"></path>
					<path d="M972.7 490.7 L978.0 490.7 L983.3 490.7 L978.0 504.0 Z"></path>
					<text x="1289.3" y="568.0" stroke="none">extends</text>
					<path d="M1413.8 536.0 L1357.25 556 L1357.25 562.6666666666666 L1357.3 562.7 " fill="none"></path>
					<path d="M1351.9 562.7 L1357.3 562.7 L1362.6 562.7 L1357.3 576.0 Z"></path>
					<text x="1566.3" y="481.6" stroke="none">extends</text>
					<path d="M1558.3 461.6 L1459 484 L1459 490.6666666666667 L1459.0 490.7 " fill="none"></path>
					<path d="M1453.7 490.7 L1459.0 490.7 L1464.3 490.7 L1459.0 504.0 Z"></path>
					<text x="1568.8" y="568.0" stroke="none">extends</text>
					<path d="M1516.8 540.4 L1560.75 556 L1560.75 576 L1560.8 576.0 " fill="none"></path>
					<path d="M1518.6 535.4 L1516.8 540.4 L1515.0 545.5 L1504.2 536.0 Z"></path>
					<text x="1568.8" y="628.0" stroke="none">implements</text>
					<g stroke-dasharray="6 6">
						<path d="M1560.8 621.3 L1560.75 628 L1218.25 661.4517203107658 L1218.3 661.5 " fill="none"></path>
					</g>
					<path d="M1566.1 621.3 L1560.8 621.3 L1555.4 621.3 L1560.8 608.0 Z"></path>
					<text x="1815.0" y="568.0" stroke="none">extends</text>
					<path d="M1691.3 461.9 L1807 484 L1807 520 L1807 520 L1807 556 L1807 556 L1807 576 L1807.0 576.0 " fill="none"></path>
					<path d="M1692.3 456.7 L1691.3 461.9 L1690.3 467.2 L1678.3 459.4 Z"></path>
					<text x="1777.1" y="628.0" stroke="none">extends</text>
					<path d="M1756.8 613.2 L1721.75 628 L1721.75 672 L1721.75 672 L1721.75 716 L1721.75 716 L1721.75 752 L1721.75 752 L1721.75 788 L1721.75 788 L1511.75 810.07299270073 L1511.8 810.1 " fill="none"></path>
					<path d="M1758.9 618.1 L1756.8 613.2 L1754.8 608.3 L1769.1 608.0 Z"></path>
					<text x="608.3" y="788.0" stroke="none">returns</text>
					<path d="M671.0 786.7 L671 788 L1240.0919288112761 816.9266635188224 L1240.1 816.9 " fill="none"></path>
					<path d="M1233.2 821.9 L1240.1 816.9 L1233.7 811.3 L1246.8 817.3 Z"></path>
					<g fill="#eee8d5">
						<path d="M676.3 777.3 L671.0 786.7 L665.7 777.3 L671.0 768.0 Z"></path>
					</g>
					<text x="1637.0" y="424.0" stroke="none">uses</text>
					<path d="M1010.7 91.4 L1642.5 124 L1642.5 160 L1642.5 160 L1642.5 196 L1642.5 196 L1642.5 232 L1642.5 232 L1642.5 268 L1642.5 268 L1642.5 304 L1642.5 304 L1642.5 340 L1642.5 340 L1642.5 376 L1642.5 376 L1642.5 412 L1642.5 412 L1639.4564943002354 416.51819402851646 L1639.5 416.5 " fill="none"></path>
					<g fill="#eee8d5">
						<path d="M1629.8 421.3 L1639.5 416.5 L1638.7 427.2 L1629.0 432.0 Z"></path>
					</g>
					<path d="M1017.6 86.4 L1010.7 91.4 L1017.0 97.1 L1004.0 91.0 Z"></path>
					<text x="1900.3" y="648.0" stroke="none">implements</text>
					<g stroke-dasharray="6 6">
						<path d="M1857.2 613.2 L1892.25 628 L1892.25 656 L1892.3 656.0 " fill="none"></path>
					</g>
					<path d="M1859.2 608.3 L1857.2 613.2 L1855.1 618.1 L1844.9 608.0 Z"></path>
					<text x="900.0" y="568.0" stroke="none">extends</text>
					<path d="M758.1 536.0 L892 556 L892 562.6666666666666 L892.0 562.7 " fill="none"></path>
					<path d="M886.7 562.7 L892.0 562.7 L897.3 562.7 L892.0 576.0 Z"></path>
					<text x="847.9" y="628.0" stroke="none">uses</text>
					<path d="M892.0 626.7 L892 628 L995.7148186941313 648.9092876176026 L995.7 648.9 " fill="none"></path>
					<path d="M988.1 652.8 L995.7 648.9 L990.2 642.4 L1002.3 650.2 Z"></path>
					<g fill="#eee8d5">
						<path d="M897.3 617.3 L892.0 626.7 L886.7 617.3 L892.0 608.0 Z"></path>
					</g>
					<text x="1900.3" y="788.0" stroke="none">implements</text>
					<g stroke-dasharray="6 6">
						<path d="M1892.3 768.0 L1892.25 788 L1525.0506234813388 813.7683772995551 L1525.1 813.8 " fill="none"></path>
					</g>
					<path d="M1524.7 808.4 L1525.1 813.8 L1525.4 819.1 L1511.8 814.7 Z"></path>
					<text x="1824.3" y="728.0" stroke="none">extends</text>
					<path d="M1892.3 701.3 L1892.25 716 L1892.25 736 L1892.3 736.0 " fill="none"></path>
					<path d="M1897.6 701.3 L1892.3 701.3 L1886.9 701.3 L1892.3 688.0 Z"></path>
					<text x="660.5" y="728.0" stroke="none">uses</text>
					<path d="M995.6 685.9 L746.5 716 L721.4048245581039 727.9659114689836 L721.4 728.0 " fill="none"></path>
					<g fill="#eee8d5">
						<path d="M710.7 727.2 L721.4 728.0 L715.3 736.8 L704.6 736.0 Z"></path>
					</g>
					<path d="M989.7 692.0 L995.6 685.9 L988.4 681.4 L1002.3 685.1 Z"></path>
					<text x="1492.9" y="800.0" stroke="none">has</text>
					<path d="M1224.9 682.0 L1617 716 L1617 752 L1617 752 L1617 788 L1617 788 L1503.3729506499044 805.2053576302984 L1503.4 805.2 " fill="none"></path>
					<g fill="#33322E">
						<path d="M1493.3 801.3 L1503.4 805.2 L1494.9 811.9 L1484.9 808.0 Z"></path>
					</g>
					<path d="M1232.0 677.2 L1224.9 682.0 L1231.1 687.8 L1218.3 681.4 Z"></path>
					<text x="104.7" y="628.0" stroke="none">has</text>
					<path d="M140.0 626.7 L140 628 L140 672 L140 672 L140 716 L140 716 L140 752 L140 752 L140 788 L140 788 L1240.0861445293224 819.9573138616547 L1240.1 820.0 " fill="none"></path>
					<path d="M1233.3 825.1 L1240.1 820.0 L1233.6 814.4 L1246.8 820.2 Z"></path>
					<g fill="#33322E">
						<path d="M145.3 617.3 L140.0 626.7 L134.7 617.3 L140.0 608.0 Z"></path>
					</g>
					<g data-name="DataStrategy">
						<g fill="#C9DEEF" stroke="#33322E" data-name="DataStrategy">
							<rect x="91.5" y="432.0" height="32.0" width="114.0" data-name="DataStrategy"></rect>
						</g>
						<g transform="translate(91.5, 432)" font-family="Helvetica" font-size="12pt" font-weight="bold" font-style="normal" data-name="DataStrategy" data-compartment="0">
							<g transform="translate(8, 8)" fill="#33322E" text-align="center" data-name="DataStrategy" data-compartment="0">
								<text x="49.0" y="14.1" stroke="none" text-anchor="middle" data-name="DataStrategy" data-compartment="0">DataStrategy</text>
								
							</g>
						</g>
					</g>
					<g data-name="IEquatable&lt;INamedTestCase&gt;">
						<g fill="#DCE8CF" stroke="#33322E" data-name="IEquatable&lt;INamedTestCase&gt;">
							<rect x="1236.8" y="576.0" height="32.0" width="241.0" data-name="IEquatable&lt;INamedTestCase&gt;"></rect>
						</g>
						<g transform="translate(1236.75, 576)" font-family="Helvetica" font-size="12pt" font-weight="bold" font-style="italic" data-name="IEquatable&lt;INamedTestCase&gt;" data-compartment="0">
							<g transform="translate(8, 8)" fill="#33322E" text-align="center" data-name="IEquatable&lt;INamedTestCase&gt;" data-compartment="0">
								<text x="112.5" y="14.1" stroke="none" text-anchor="middle" data-name="IEquatable&lt;INamedTestCase&gt;" data-compartment="0">IEquatable&lt;INamedTestCase&gt;</text>
								
							</g>
						</g>
					</g>
					<g data-name="IEquatable&lt;IDataStrategy&gt;">
						<g fill="#DCE8CF" stroke="#33322E" data-name="IEquatable&lt;IDataStrategy&gt;">
							<rect x="836.5" y="0.0" height="32.0" width="217.0" data-name="IEquatable&lt;IDataStrategy&gt;"></rect>
						</g>
						<g transform="translate(836.5, 0)" font-family="Helvetica" font-size="12pt" font-weight="bold" font-style="italic" data-name="IEquatable&lt;IDataStrategy&gt;" data-compartment="0">
							<g transform="translate(8, 8)" fill="#33322E" text-align="center" data-name="IEquatable&lt;IDataStrategy&gt;" data-compartment="0">
								<text x="100.5" y="14.1" stroke="none" text-anchor="middle" data-name="IEquatable&lt;IDataStrategy&gt;" data-compartment="0">IEquatable&lt;IDataStrategy&gt;</text>
								
							</g>
						</g>
					</g>
					<g data-name="IDataStrategy">
						<g fill="#DCE8CF" stroke="#33322E" data-name="IDataStrategy">
							<rect x="886.0" y="72.0" height="32.0" width="118.0" data-name="IDataStrategy"></rect>
						</g>
						<g transform="translate(886, 72)" font-family="Helvetica" font-size="12pt" font-weight="bold" font-style="italic" data-name="IDataStrategy" data-compartment="0">
							<g transform="translate(8, 8)" fill="#33322E" text-align="center" data-name="IDataStrategy" data-compartment="0">
								<text x="51.0" y="14.1" stroke="none" text-anchor="middle" data-name="IDataStrategy" data-compartment="0">IDataStrategy</text>
								
							</g>
						</g>
					</g>
					<g data-name="DynamicDataSource">
						<g fill="#C9DEEF" stroke="#33322E" data-name="DynamicDataSource">
							<rect x="980.5" y="144.0" height="32.0" width="170.0" data-name="DynamicDataSource"></rect>
						</g>
						<g transform="translate(980.5, 144)" font-family="Helvetica" font-size="12pt" font-weight="bold" font-style="italic" data-name="DynamicDataSource" data-compartment="0">
							<g transform="translate(8, 8)" fill="#33322E" text-align="center" data-name="DynamicDataSource" data-compartment="0">
								<text x="77.0" y="14.1" stroke="none" text-anchor="middle" data-name="DynamicDataSource" data-compartment="0">DynamicDataSource</text>
								
							</g>
						</g>
					</g>
					<g data-name="DynamicDataSource&lt;TDataHolder&gt;">
						<g fill="#C9DEEF" stroke="#33322E" data-name="DynamicDataSource&lt;TDataHolder&gt;">
							<rect x="924.0" y="216.0" height="32.0" width="283.0" data-name="DynamicDataSource&lt;TDataHolder&gt;"></rect>
						</g>
						<g transform="translate(924, 216)" font-family="Helvetica" font-size="12pt" font-weight="bold" font-style="italic" data-name="DynamicDataSource&lt;TDataHolder&gt;" data-compartment="0">
							<g transform="translate(8, 8)" fill="#33322E" text-align="center" data-name="DynamicDataSource&lt;TDataHolder&gt;" data-compartment="0">
								<text x="133.5" y="14.1" stroke="none" text-anchor="middle" data-name="DynamicDataSource&lt;TDataHolder&gt;" data-compartment="0">DynamicDataSource&lt;TDataHolder&gt;</text>
								
							</g>
						</g>
					</g>
					<g data-name="DynamicDataRowSource&lt;TDataRowHolder, TRow&gt;">
						<g fill="#C9DEEF" stroke="#33322E" data-name="DynamicDataRowSource&lt;TDataRowHolder, TRow&gt;">
							<rect x="744.0" y="288.0" height="32.0" width="402.0" data-name="DynamicDataRowSource&lt;TDataRowHolder, TRow&gt;"></rect>
						</g>
						<g transform="translate(744, 288)" font-family="Helvetica" font-size="12pt" font-weight="bold" font-style="italic" data-name="DynamicDataRowSource&lt;TDataRowHolder, TRow&gt;" data-compartment="0">
							<g transform="translate(8, 8)" fill="#33322E" text-align="center" data-name="DynamicDataRowSource&lt;TDataRowHolder, TRow&gt;" data-compartment="0">
								<text x="193.0" y="14.1" stroke="none" text-anchor="middle" data-name="DynamicDataRowSource&lt;TDataRowHolder, TRow&gt;" data-compartment="0">DynamicDataRowSource&lt;TDataRowHolder, TRow&gt;</text>
								
							</g>
						</g>
					</g>
					<g data-name="IDataRowHolder&lt;TRow&gt;">
						<g fill="#DCE8CF" stroke="#33322E" data-name="IDataRowHolder&lt;TRow&gt;">
							<rect x="550.5" y="432.0" height="32.0" width="201.0" data-name="IDataRowHolder&lt;TRow&gt;"></rect>
						</g>
						<g transform="translate(550.5, 432)" font-family="Helvetica" font-size="12pt" font-weight="bold" font-style="italic" data-name="IDataRowHolder&lt;TRow&gt;" data-compartment="0">
							<g transform="translate(8, 8)" fill="#33322E" text-align="center" data-name="IDataRowHolder&lt;TRow&gt;" data-compartment="0">
								<text x="92.5" y="14.1" stroke="none" text-anchor="middle" data-name="IDataRowHolder&lt;TRow&gt;" data-compartment="0">IDataRowHolder&lt;TRow&gt;</text>
								
							</g>
						</g>
					</g>
					<g data-name="IAddTestData&lt;TTestData&gt;">
						<g fill="#DCE8CF" stroke="#33322E" data-name="IAddTestData&lt;TTestData&gt;">
							<rect x="786.5" y="576.0" height="32.0" width="211.0" data-name="IAddTestData&lt;TTestData&gt;"></rect>
						</g>
						<g transform="translate(786.5, 576)" font-family="Helvetica" font-size="12pt" font-weight="bold" font-style="italic" data-name="IAddTestData&lt;TTestData&gt;" data-compartment="0">
							<g transform="translate(8, 8)" fill="#33322E" text-align="center" data-name="IAddTestData&lt;TTestData&gt;" data-compartment="0">
								<text x="97.5" y="14.1" stroke="none" text-anchor="middle" data-name="IAddTestData&lt;TTestData&gt;" data-compartment="0">IAddTestData&lt;TTestData&gt;</text>
								
							</g>
						</g>
					</g>
					<g data-name="IDataRowHolder&lt;TRow, TTestData&gt;">
						<g fill="#DCE8CF" stroke="#33322E" data-name="IDataRowHolder&lt;TRow, TTestData&gt;">
							<rect x="509.0" y="504.0" height="32.0" width="284.0" data-name="IDataRowHolder&lt;TRow, TTestData&gt;"></rect>
						</g>
						<g transform="translate(509, 504)" font-family="Helvetica" font-size="12pt" font-weight="bold" font-style="italic" data-name="IDataRowHolder&lt;TRow, TTestData&gt;" data-compartment="0">
							<g transform="translate(8, 8)" fill="#33322E" text-align="center" data-name="IDataRowHolder&lt;TRow, TTestData&gt;" data-compartment="0">
								<text x="134.0" y="14.1" stroke="none" text-anchor="middle" data-name="IDataRowHolder&lt;TRow, TTestData&gt;" data-compartment="0">IDataRowHolder&lt;TRow, TTestData&gt;</text>
								
							</g>
						</g>
					</g>
					<g data-name="IDataRowHolder">
						<g fill="#DCE8CF" stroke="#33322E" data-name="IDataRowHolder">
							<rect x="581.5" y="360.0" height="32.0" width="139.0" data-name="IDataRowHolder"></rect>
						</g>
						<g transform="translate(581.5, 360)" font-family="Helvetica" font-size="12pt" font-weight="bold" font-style="italic" data-name="IDataRowHolder" data-compartment="0">
							<g transform="translate(8, 8)" fill="#33322E" text-align="center" data-name="IDataRowHolder" data-compartment="0">
								<text x="61.5" y="14.1" stroke="none" text-anchor="middle" data-name="IDataRowHolder" data-compartment="0">IDataRowHolder</text>
								
							</g>
						</g>
					</g>
					<g data-name="ITestDataRows">
						<g fill="#DCE8CF" stroke="#33322E" data-name="ITestDataRows">
							<rect x="1275.3" y="288.0" height="32.0" width="129.0" data-name="ITestDataRows"></rect>
						</g>
						<g transform="translate(1275.25, 288)" font-family="Helvetica" font-size="12pt" font-weight="bold" font-style="italic" data-name="ITestDataRows" data-compartment="0">
							<g transform="translate(8, 8)" fill="#33322E" text-align="center" data-name="ITestDataRows" data-compartment="0">
								<text x="56.5" y="14.1" stroke="none" text-anchor="middle" data-name="ITestDataRows" data-compartment="0">ITestDataRows</text>
								
							</g>
						</g>
					</g>
					<g data-name="ITestDataRow">
						<g fill="#DCE8CF" stroke="#33322E" data-name="ITestDataRow">
							<rect x="1558.3" y="432.0" height="32.0" width="120.0" data-name="ITestDataRow"></rect>
						</g>
						<g transform="translate(1558.25, 432)" font-family="Helvetica" font-size="12pt" font-weight="bold" font-style="italic" data-name="ITestDataRow" data-compartment="0">
							<g transform="translate(8, 8)" fill="#33322E" text-align="center" data-name="ITestDataRow" data-compartment="0">
								<text x="52.0" y="14.1" stroke="none" text-anchor="middle" data-name="ITestDataRow" data-compartment="0">ITestDataRow</text>
								
							</g>
						</g>
					</g>
					<g data-name="ITestDataRow&lt;TRow&gt;">
						<g fill="#DCE8CF" stroke="#33322E" data-name="ITestDataRow&lt;TRow&gt;">
							<rect x="1716.0" y="576.0" height="32.0" width="182.0" data-name="ITestDataRow&lt;TRow&gt;"></rect>
						</g>
						<g transform="translate(1716, 576)" font-family="Helvetica" font-size="12pt" font-weight="bold" font-style="italic" data-name="ITestDataRow&lt;TRow&gt;" data-compartment="0">
							<g transform="translate(8, 8)" fill="#33322E" text-align="center" data-name="ITestDataRow&lt;TRow&gt;" data-compartment="0">
								<text x="83.0" y="14.1" stroke="none" text-anchor="middle" data-name="ITestDataRow&lt;TRow&gt;" data-compartment="0">ITestDataRow&lt;TRow&gt;</text>
								
							</g>
						</g>
					</g>
					<g data-name="DataRowHolder&lt;TRow&gt;">
						<g fill="#C9DEEF" stroke="#33322E" data-name="DataRowHolder&lt;TRow&gt;">
							<rect x="22.0" y="504.0" height="32.0" width="196.0" data-name="DataRowHolder&lt;TRow&gt;"></rect>
						</g>
						<g transform="translate(22, 504)" font-family="Helvetica" font-size="12pt" font-weight="bold" font-style="italic" data-name="DataRowHolder&lt;TRow&gt;" data-compartment="0">
							<g transform="translate(8, 8)" fill="#33322E" text-align="center" data-name="DataRowHolder&lt;TRow&gt;" data-compartment="0">
								<text x="90.0" y="14.1" stroke="none" text-anchor="middle" data-name="DataRowHolder&lt;TRow&gt;" data-compartment="0">DataRowHolder&lt;TRow&gt;</text>
								
							</g>
						</g>
					</g>
					<g data-name="DataRowHolder&lt;TRow, TTestData&gt;">
						<g fill="#C9DEEF" stroke="#33322E" data-name="DataRowHolder&lt;TRow, TTestData&gt;">
							<rect x="0.0" y="576.0" height="32.0" width="280.0" data-name="DataRowHolder&lt;TRow, TTestData&gt;"></rect>
						</g>
						<g transform="translate(0, 576)" font-family="Helvetica" font-size="12pt" font-weight="bold" font-style="italic" data-name="DataRowHolder&lt;TRow, TTestData&gt;" data-compartment="0">
							<g transform="translate(8, 8)" fill="#33322E" text-align="center" data-name="DataRowHolder&lt;TRow, TTestData&gt;" data-compartment="0">
								<text x="132.0" y="14.1" stroke="none" text-anchor="middle" data-name="DataRowHolder&lt;TRow, TTestData&gt;" data-compartment="0">DataRowHolder&lt;TRow, TTestData&gt;</text>
								
							</g>
						</g>
					</g>
					<g data-name="IRows&lt;TRow&gt;">
						<g fill="#DCE8CF" stroke="#33322E" data-name="IRows&lt;TRow&gt;">
							<rect x="915.5" y="504.0" height="32.0" width="125.0" data-name="IRows&lt;TRow&gt;"></rect>
						</g>
						<g transform="translate(915.5, 504)" font-family="Helvetica" font-size="12pt" font-weight="bold" font-style="italic" data-name="IRows&lt;TRow&gt;" data-compartment="0">
							<g transform="translate(8, 8)" fill="#33322E" text-align="center" data-name="IRows&lt;TRow&gt;" data-compartment="0">
								<text x="54.5" y="14.1" stroke="none" text-anchor="middle" data-name="IRows&lt;TRow&gt;" data-compartment="0">IRows&lt;TRow&gt;</text>
								
							</g>
						</g>
					</g>
					<g data-name="ITestDataRowFactory&lt;TRow, TTestData&gt;">
						<g fill="#DCE8CF" stroke="#33322E" data-name="ITestDataRowFactory&lt;TRow, TTestData&gt;">
							<rect x="509.5" y="736.0" height="32.0" width="323.0" data-name="ITestDataRowFactory&lt;TRow, TTestData&gt;"></rect>
						</g>
						<g transform="translate(509.5, 736)" font-family="Helvetica" font-size="12pt" font-weight="bold" font-style="italic" data-name="ITestDataRowFactory&lt;TRow, TTestData&gt;" data-compartment="0">
							<g transform="translate(8, 8)" fill="#33322E" text-align="center" data-name="ITestDataRowFactory&lt;TRow, TTestData&gt;" data-compartment="0">
								<text x="153.5" y="14.1" stroke="none" text-anchor="middle" data-name="ITestDataRowFactory&lt;TRow, TTestData&gt;" data-compartment="0">ITestDataRowFactory&lt;TRow, TTestData&gt;</text>
								
							</g>
						</g>
					</g>
					<g data-name="ITestDataRow&lt;TRow, TTestData&gt;">
						<g fill="#DCE8CF" stroke="#33322E" data-name="ITestDataRow&lt;TRow, TTestData&gt;">
							<rect x="1246.8" y="808.0" height="32.0" width="265.0" data-name="ITestDataRow&lt;TRow, TTestData&gt;"></rect>
						</g>
						<g transform="translate(1246.75, 808)" font-family="Helvetica" font-size="12pt" font-weight="bold" font-style="italic" data-name="ITestDataRow&lt;TRow, TTestData&gt;" data-compartment="0">
							<g transform="translate(8, 8)" fill="#33322E" text-align="center" data-name="ITestDataRow&lt;TRow, TTestData&gt;" data-compartment="0">
								<text x="124.5" y="14.1" stroke="none" text-anchor="middle" data-name="ITestDataRow&lt;TRow, TTestData&gt;" data-compartment="0">ITestDataRow&lt;TRow, TTestData&gt;</text>
								
							</g>
						</g>
					</g>
					<g data-name="TestDataRow&lt;TRow&gt;">
						<g fill="#C9DEEF" stroke="#33322E" data-name="TestDataRow&lt;TRow&gt;">
							<rect x="1803.8" y="656.0" height="32.0" width="177.0" data-name="TestDataRow&lt;TRow&gt;"></rect>
						</g>
						<g transform="translate(1803.75, 656)" font-family="Helvetica" font-size="12pt" font-weight="bold" font-style="italic" data-name="TestDataRow&lt;TRow&gt;" data-compartment="0">
							<g transform="translate(8, 8)" fill="#33322E" text-align="center" data-name="TestDataRow&lt;TRow&gt;" data-compartment="0">
								<text x="80.5" y="14.1" stroke="none" text-anchor="middle" data-name="TestDataRow&lt;TRow&gt;" data-compartment="0">TestDataRow&lt;TRow&gt;</text>
								
							</g>
						</g>
					</g>
					<g data-name="TestDataRow&lt;TRow, TTestData&gt;">
						<g fill="#C9DEEF" stroke="#33322E" data-name="TestDataRow&lt;TRow, TTestData&gt;">
							<rect x="1761.8" y="736.0" height="32.0" width="261.0" data-name="TestDataRow&lt;TRow, TTestData&gt;"></rect>
						</g>
						<g transform="translate(1761.75, 736)" font-family="Helvetica" font-size="12pt" font-weight="bold" font-style="italic" data-name="TestDataRow&lt;TRow, TTestData&gt;" data-compartment="0">
							<g transform="translate(8, 8)" fill="#33322E" text-align="center" data-name="TestDataRow&lt;TRow, TTestData&gt;" data-compartment="0">
								<text x="122.5" y="14.1" stroke="none" text-anchor="middle" data-name="TestDataRow&lt;TRow, TTestData&gt;" data-compartment="0">TestDataRow&lt;TRow, TTestData&gt;</text>
								
							</g>
						</g>
					</g>
					<g data-name="INamedTestCase">
						<g fill="#DCE8CF" stroke="#33322E" data-name="INamedTestCase">
							<rect x="1387.5" y="504.0" height="32.0" width="143.0" data-name="INamedTestCase"></rect>
						</g>
						<g transform="translate(1387.5, 504)" font-family="Helvetica" font-size="12pt" font-weight="bold" font-style="italic" data-name="INamedTestCase" data-compartment="0">
							<g transform="translate(8, 8)" fill="#33322E" text-align="center" data-name="INamedTestCase" data-compartment="0">
								<text x="63.5" y="14.1" stroke="none" text-anchor="middle" data-name="INamedTestCase" data-compartment="0">INamedTestCase</text>
								
							</g>
						</g>
					</g>
					<g data-name="ITestData">
						<g fill="#DCE8CF" stroke="#33322E" data-name="ITestData">
							<rect x="1517.8" y="576.0" height="32.0" width="86.0" data-name="ITestData"></rect>
						</g>
						<g transform="translate(1517.75, 576)" font-family="Helvetica" font-size="12pt" font-weight="bold" font-style="italic" data-name="ITestData" data-compartment="0">
							<g transform="translate(8, 8)" fill="#33322E" text-align="center" data-name="ITestData" data-compartment="0">
								<text x="35.0" y="14.1" stroke="none" text-anchor="middle" data-name="ITestData" data-compartment="0">ITestData</text>
								
							</g>
						</g>
					</g>
					<g data-name="TTestData">
						<g fill="#C9DEEF" stroke="#33322E" data-name="TTestData">
							<rect x="1002.3" y="648.0" height="48.0" width="216.0" data-name="TTestData"></rect>
						</g>
						<g transform="translate(1002.25, 648)" font-family="Helvetica" font-size="12pt" font-weight="bold" font-style="normal" data-name="TTestData" data-compartment="0">
							<g transform="translate(8, 8)" fill="#33322E" text-align="center" data-name="TTestData" data-compartment="0">
								<text x="100.0" y="14.1" stroke="none" text-anchor="middle" data-name="TTestData" data-compartment="0">TTestData</text>
								<text x="100.0" y="30.3" stroke="none" text-anchor="middle" data-name="TTestData" data-compartment="0">(concrete generic records)</text>
								
							</g>
						</g>
					</g>
					<g data-name="IReadonlyCollection&lt;ITestDataRow&gt;">
						<g fill="#DCE8CF" stroke="#33322E" data-name="IReadonlyCollection&lt;ITestDataRow&gt;">
							<rect x="320.0" y="576.0" height="32.0" width="291.0" data-name="IReadonlyCollection&lt;ITestDataRow&gt;"></rect>
						</g>
						<g transform="translate(320, 576)" font-family="Helvetica" font-size="12pt" font-weight="bold" font-style="italic" data-name="IReadonlyCollection&lt;ITestDataRow&gt;" data-compartment="0">
							<g transform="translate(8, 8)" fill="#33322E" text-align="center" data-name="IReadonlyCollection&lt;ITestDataRow&gt;" data-compartment="0">
								<text x="137.5" y="14.1" stroke="none" text-anchor="middle" data-name="IReadonlyCollection&lt;ITestDataRow&gt;" data-compartment="0">IReadonlyCollection&lt;ITestDataRow&gt;</text>
								
							</g>
						</g>
					</g>
				</g>
			</g>
		</g>
	</g>
</svg>