<svg version="1.1" baseProfile="full" width="847.0" height="256.0" viewBox="0 0 847.0454545454545 256" xmlns="http://www.w3.org/2000/svg" xmlns:xlink="http://www.w3.org/1999/xlink" xmlns:ev="http://www.w3.org/2001/xml-events">
	<title >CsabaDu_DynamicTestData_ConversionPipeline_Association</title>
	<desc >
	#title: CsabaDu_DynamicTestData_ConversionPipeline_Association
	#direction: right
	#.enum: fill=#e3ccff title=center,
	#.contract: fill=#DCE8CF title=center,italic body=left,italic
	#.static: fill=#C9DEEF title=center,bold,underline
	#.returned: fill=#ffffcc
	
	[&lt;static&gt;CollectionConverter]
	[&lt;enum&gt;ArgsCode]
	[&lt;enum&gt;PropsCode]
	[&lt;contract&gt;ITestData]
	[&lt;returned&gt;IEnumerable&lt;object?array&gt;]
	[&lt;returned&gt;IEnumerable&lt;TRow&gt;]
	
	// diagram
	
	[ITestData] calls &apos;ToParams&apos; &lt;- converts
	[CollectionConverter]
	[ITestData]
	
	[ArgsCode] passes &lt;-
	[CollectionConverter]
	[ArgsCode]
	
	[ITestData] -&gt; uses
	[ArgsCode]
	[ITestData]
	
	
	[PropsCode] passes &lt;-
	[CollectionConverter]
	[PropsCode]
	
	[ITestData] filter for &lt;-
	[PropsCode]
	[ITestData]
	
	[ITestData] -&gt; uses
	[PropsCode]
	[ITestData]
	
	[CollectionConverter] -&gt; returns
	[IEnumerable&lt;object?array&gt;]
	
	[CollectionConverter] -&gt; returns
	[IEnumerable&lt;TRow&gt;]
	
	[ITestData] generic constraint &lt;--
	[CollectionConverter]
	[ITestData]
	</desc>
	<g stroke-width="1.0" text-align="left" font="12pt Helvetica, Arial, sans-serif" font-size="12pt" font-family="Helvetica" font-weight="bold" font-style="normal">
		<g font-family="Helvetica" font-size="12pt" font-weight="bold" font-style="normal" stroke-width="3.0" stroke-linejoin="round" stroke-linecap="round" stroke="#33322E">
			<g stroke="transparent" fill="transparent">
				<rect x="0.0" y="0.0" height="256.0" width="847.0" stroke="none"></rect>
			</g>
			<g transform="translate(99.04545454545455, 48)" fill="#33322E">
				<g transform="translate(20, 20)" fill="#33322E" font-family="Helvetica" font-size="12pt" font-weight="normal" font-style="normal">
					<text x="-78.7" y="48.0" stroke="none">calls &apos;ToParams&apos;</text>
					<text x="341.7" y="32.0" stroke="none">converts</text>
					<path d="M55.3 50.2 L106 -40 L176.5 -40 L176.5 -40 L247 -40 L247 -40 L333.6666666666667 40 L333.7 40.0 " fill="none"></path>
					<path d="M53.9 41.8 L55.3 50.2 L63.2 47.0 L52.0 56.0 Z"></path>
					<text x="230.5" y="8.0" stroke="none">passes</text>
					<path d="M229.2 16.0 L247 16 L309.4 40 L309.4 40.0 " fill="none"></path>
					<path d="M235.8 10.7 L229.2 16.0 L235.8 21.3 L222.5 16.0 Z"></path>
					<text x="86.4" y="8.0" stroke="none">uses</text>
					<path d="M61.0 56.0 L106 16 L123.83333333333333 16 L123.8 16.0 " fill="none"></path>
					<path d="M117.2 21.3 L123.8 16.0 L117.2 10.7 L130.5 16.0 Z"></path>
					<text x="235.0" y="112.0" stroke="none">passes</text>
					<path d="M233.7 92.0 L247 92 L304.77777777777777 72 L304.8 72.0 " fill="none"></path>
					<path d="M240.3 86.7 L233.7 92.0 L240.3 97.3 L227.0 92.0 Z"></path>
					<text x="94.0" y="64.0" stroke="none">filter for</text>
					<path d="M92.7 72.0 L106 72 L126 77.67375886524823 L126.0 77.7 " fill="none"></path>
					<path d="M99.3 66.7 L92.7 72.0 L99.3 77.3 L86.0 72.0 Z"></path>
					<text x="134.0" y="126.3" stroke="none">uses</text>
					<path d="M68.2 88.0 L106 112 L119.58641867457727 108.14569682990715 L119.6 108.1 " fill="none"></path>
					<path d="M114.6 115.1 L119.6 108.1 L111.7 104.8 L126.0 106.3 Z"></path>
					<text x="412.3" y="12.0" stroke="none">returns</text>
					<path d="M397.2 40.0 L455 20 L468.3333333333333 20 L468.3 20.0 " fill="none"></path>
					<path d="M461.7 25.3 L468.3 20.0 L461.7 14.7 L475.0 20.0 Z"></path>
					<text x="438.3" y="112.0" stroke="none">returns</text>
					<path d="M397.2 72.0 L455 92 L494.3333333333333 92 L494.3 92.0 " fill="none"></path>
					<path d="M487.7 97.3 L494.3 92.0 L487.7 86.7 L501.0 92.0 Z"></path>
					<text x="-91.0" y="108.0" stroke="none">generic constraint</text>
					<g stroke-dasharray="6 6">
						<path d="M58.3 93.4 L106 160 L176.5 160 L176.5 160 L247 160 L247 160 L335 72 L335.0 72.0 " fill="none"></path>
					</g>
					<path d="M66.6 95.7 L58.3 93.4 L57.9 101.9 L54.5 88.0 Z"></path>
					<g data-name="CollectionConverter">
						<g fill="#C9DEEF" stroke="#33322E" data-name="CollectionConverter">
							<rect x="267.0" y="40.0" height="32.0" width="168.0" data-name="CollectionConverter"></rect>
						</g>
						<g transform="translate(267, 40)" font-family="Helvetica" font-size="12pt" font-weight="bold" font-style="normal" data-name="CollectionConverter" data-compartment="0">
							<g transform="translate(8, 8)" fill="#33322E" text-align="center" stroke-width="3.0" data-name="CollectionConverter" data-compartment="0">
								<text x="76.0" y="14.1" stroke="none" text-anchor="middle" data-name="CollectionConverter" data-compartment="0">CollectionConverter</text>
								<path d="M0.2 16.6 L151.8 16.6" fill="none" data-name="CollectionConverter" data-compartment="0"></path>
								
							</g>
						</g>
					</g>
					<g data-name="ArgsCode">
						<g fill="#e3ccff" stroke="#33322E" data-name="ArgsCode">
							<rect x="130.5" y="0.0" height="32.0" width="92.0" data-name="ArgsCode"></rect>
						</g>
						<g transform="translate(130.5, 0)" font-family="Helvetica" font-size="12pt" font-weight="normal" font-style="normal" data-name="ArgsCode" data-compartment="0">
							<g transform="translate(8, 8)" fill="#33322E" text-align="center" data-name="ArgsCode" data-compartment="0">
								<text x="38.0" y="14.1" stroke="none" text-anchor="middle" data-name="ArgsCode" data-compartment="0">ArgsCode</text>
								
							</g>
						</g>
					</g>
					<g data-name="PropsCode">
						<g fill="#e3ccff" stroke="#33322E" data-name="PropsCode">
							<rect x="126.0" y="76.0" height="32.0" width="101.0" data-name="PropsCode"></rect>
						</g>
						<g transform="translate(126, 76)" font-family="Helvetica" font-size="12pt" font-weight="normal" font-style="normal" data-name="PropsCode" data-compartment="0">
							<g transform="translate(8, 8)" fill="#33322E" text-align="center" data-name="PropsCode" data-compartment="0">
								<text x="42.5" y="14.1" stroke="none" text-anchor="middle" data-name="PropsCode" data-compartment="0">PropsCode</text>
								
							</g>
						</g>
					</g>
					<g data-name="ITestData">
						<g fill="#DCE8CF" stroke="#33322E" data-name="ITestData">
							<rect x="0.0" y="56.0" height="32.0" width="86.0" data-name="ITestData"></rect>
						</g>
						<g transform="translate(0, 56)" font-family="Helvetica" font-size="12pt" font-weight="normal" font-style="italic" data-name="ITestData" data-compartment="0">
							<g transform="translate(8, 8)" fill="#33322E" text-align="center" data-name="ITestData" data-compartment="0">
								<text x="35.0" y="14.1" stroke="none" text-anchor="middle" data-name="ITestData" data-compartment="0">ITestData</text>
								
							</g>
						</g>
					</g>
					<g data-name="IEnumerable&lt;object?array&gt;">
						<g fill="#ffffcc" stroke="#33322E" data-name="IEnumerable&lt;object?array&gt;">
							<rect x="475.0" y="4.0" height="32.0" width="225.0" data-name="IEnumerable&lt;object?array&gt;"></rect>
						</g>
						<g transform="translate(475, 4)" font-family="Helvetica" font-size="12pt" font-weight="normal" font-style="normal" data-name="IEnumerable&lt;object?array&gt;" data-compartment="0">
							<g transform="translate(8, 8)" fill="#33322E" text-align="center" data-name="IEnumerable&lt;object?array&gt;" data-compartment="0">
								<text x="104.5" y="14.1" stroke="none" text-anchor="middle" data-name="IEnumerable&lt;object?array&gt;" data-compartment="0">IEnumerable&lt;object?array&gt;</text>
								
							</g>
						</g>
					</g>
					<g data-name="IEnumerable&lt;TRow&gt;">
						<g fill="#ffffcc" stroke="#33322E" data-name="IEnumerable&lt;TRow&gt;">
							<rect x="501.0" y="76.0" height="32.0" width="173.0" data-name="IEnumerable&lt;TRow&gt;"></rect>
						</g>
						<g transform="translate(501, 76)" font-family="Helvetica" font-size="12pt" font-weight="normal" font-style="normal" data-name="IEnumerable&lt;TRow&gt;" data-compartment="0">
							<g transform="translate(8, 8)" fill="#33322E" text-align="center" data-name="IEnumerable&lt;TRow&gt;" data-compartment="0">
								<text x="78.5" y="14.1" stroke="none" text-anchor="middle" data-name="IEnumerable&lt;TRow&gt;" data-compartment="0">IEnumerable&lt;TRow&gt;</text>
								
							</g>
						</g>
					</g>
				</g>
			</g>
		</g>
	</g>
</svg>