<svg version="1.1" baseProfile="full" width="1176.7" height="842.0" viewBox="0 0 1176.650001525879 842" xmlns="http://www.w3.org/2000/svg" xmlns:xlink="http://www.w3.org/1999/xlink" xmlns:ev="http://www.w3.org/2001/xml-events">
	<title >CsabaDu_DynamicTestData_Pattern_Strategy</title>
	<desc >
	
	#title: CsabaDu_DynamicTestData_Pattern_Strategy
	#direction: down
	#.contract: fill=#DCE8CF title=center,italic,bold body=left,italic visual=class
	#.concrete: fill=#C9DEEF title=center,bold body=left visual=class
	#.abstract: fill=#C9DEEF title=center,bold,italic body=left visual=class
	
	[&lt;concrete&gt;
	DataStrategy |
	+ static IDataStrategy GetStoredDataStrategy(ArgsCode, PropsCode)
	+ static IDataStrategy GetStoredDataStrategy(IDataStrategy)
	+ static IDataStrategy GetStoredDataStrategy(ArgsCode?, IDataStrategy)
	- static readonly HashSet&lt;DataStrategy&gt; DataStrategies]
	
	[&lt;contract&gt;
	IDataStrategy |
	ArgsCode ArgsCode
	PropsCode PropsCode]
	
	[&lt;abstract&gt;
	DynamicDataSource]
	[&lt;abstract&gt; DynamicDataRowSource&lt;TDataRowHolder, TRow&gt; |
	&apos;# TDataRowHolder DataHolder]
	
	[&lt;contract&gt;
	IDataRowHolder&lt;TRow&gt; |
	IDataRowHolder&lt;TRow&gt; GetDataRowHolder(IDataStrategy)]
	
	[&lt;contract&gt;
	IDataRowHolder |
	IDataStrategy DataStrategy]
	
	[&lt;contract&gt;
	ITestDataRows |
	IDataStrategy GetDataStrategy(ArgsCode?)
	IDataStrategy GetDataStrategy(ArgsCode?, PropsCode?)
	IEnumerable&lt;ITestDataRow&gt;? GetTestDataRows()]
	
	[&lt;contract&gt;
	ITestDataRow |
	object?array GetParams(IDataStrategy)
	ITestData GetTestData()]
	
	[&lt;contract&gt;
	ITestDataRow&lt;TRow&gt; |
	TRow Convert(IDataStrategy)]
	[&lt;abstract&gt; DataRowHolder&lt;TRow&gt;]
	
	[&lt;contract&gt;
	IRows&lt;TRow&gt; |
	IEnumerable&lt;TRow&gt;? GetRows(ArgsCode?)
	IEnumerable&lt;TRow&gt;? GetRows(ArgsCode?, PropsCode?)]
	
	[&lt;contract&gt;
	IEquatable&lt;IDataStrategy&gt; |
	bool Equals(IDataStrategy?)]
	
	
	
	[IDataStrategy] &lt;-o returns
	[ITestDataRows]
	
	[IDataRowHolder&lt;TRow&gt;] -:&gt; extends
	[IRows&lt;TRow&gt;]
	
	[DataRowHolder&lt;TRow&gt;] implements --:&gt;
	[IDataRowHolder&lt;TRow&gt;]
	
	[DataRowHolder&lt;TRow&gt;]  o-&gt; uses
	(flyweight pattern)
	[DataStrategy] implements --:&gt;
	[IDataStrategy]
	
	[IEquatable&lt;IDataStrategy&gt;] extends &lt;:- 
	[IDataStrategy]
	
	[IDataStrategy] &lt;-o uses
	[ITestDataRow]
	
	[IDataStrategy] &lt;-o uses
	[ITestDataRow&lt;TRow&gt;]
	
	[ITestDataRow&lt;TRow&gt;] extends -:&gt;
	[ITestDataRow]
	
	[IDataStrategy] &lt;:-- implements
	[DynamicDataSource] &lt;:- extends
	[DynamicDataRowSource&lt;TDataRowHolder, TRow&gt;] has
	(generic constraint) +-&gt;
	[IDataRowHolder&lt;TRow&gt;] extends -:&gt;
	[IDataRowHolder]
	
	[IDataStrategy]  &lt;-+ has
	[IDataRowHolder]
	
	[ITestDataRow] &lt;-o returns
	[ITestDataRows]
	
	[ITestDataRows] &lt;:- extends
	[IDataRowHolder]
	
	[IDataRowHolder&lt;TRow&gt;] uses o-&gt;
	[IDataStrategy]
	
	
	
	
	
	
	
	
	
	
	
	</desc>
	<g stroke-width="1.0" text-align="left" font="12pt Helvetica, Arial, sans-serif" font-size="12pt" font-family="Helvetica" font-weight="normal" font-style="normal">
		<g font-family="Helvetica" font-size="12pt" font-weight="bold" font-style="normal" stroke-width="3.0" stroke-linejoin="round" stroke-linecap="round" stroke="#33322E">
			<g stroke="transparent" fill="transparent">
				<rect x="0.0" y="0.0" height="842.0" width="1176.7" stroke="none"></rect>
			</g>
			<g transform="translate(17.900001525878906, 8)" fill="#33322E">
				<g transform="translate(20, 20)" fill="#33322E" font-family="Helvetica" font-size="12pt" font-weight="normal" font-style="normal">
					<text x="761.6" y="561.0" stroke="none">returns</text>
					<path d="M686.9 307.9 L722.75 325 L722.75 377 L722.75 377 L722.75 429 L722.75 429 L722.75 489 L722.75 489 L722.75 549 L722.75 549 L737.8968884497817 558.8347095621806 L737.9 558.8 " fill="none"></path>
					<g fill="#eee8d5">
						<path d="M742.8 568.4 L737.9 558.8 L748.6 559.4 L753.6 569.0 Z"></path>
					</g>
					<path d="M695.2 305.9 L686.9 307.9 L690.6 315.6 L680.9 305.0 Z"></path>
					<text x="183.1" y="698.0" stroke="none">extends</text>
					<path d="M278.3 649.5 L246.5 686 L246.5 692.6666666666666 L246.5 692.7 " fill="none"></path>
					<path d="M241.2 692.7 L246.5 692.7 L251.8 692.7 L246.5 706.0 Z"></path>
					<text x="-9.9" y="52.0" stroke="none">implements</text>
					<g stroke-dasharray="6 6">
						<path d="M79.0 32.0 L55.25 52 L55.25 128.5 L55.25 128.5 L55.25 205 L55.25 205 L55.25 265 L55.25 265 L55.25 325 L55.25 325 L55.25 377 L55.25 377 L55.25 429 L55.25 429 L55.25 489 L55.25 489 L55.25 549 L55.25 549 L176.1315994219404 581.9895998422427 L176.1 582.0 " fill="none"></path>
					</g>
					<path d="M174.7 587.1 L176.1 582.0 L177.5 576.8 L189.0 585.5 Z"></path>
					<text x="369.8" y="64.0" stroke="none">uses
					(flyweight pattern)</text>
					<path d="M214.5 31.9 L361.75 52 L361.75 65.33333333333333 L361.8 65.3 " fill="none"></path>
					<path d="M356.4 58.7 L361.8 65.3 L367.1 58.7 L361.8 72.0 Z"></path>
					<g fill="#eee8d5">
						<path d="M206.0 25.4 L214.5 31.9 L204.5 35.9 L196.0 29.4 Z"></path>
					</g>
					<text x="272.8" y="205.0" stroke="none">implements</text>
					<g stroke-dasharray="6 6">
						<path d="M361.8 185.0 L361.75 205 L494.8294200545456 238.90558472727275 L494.8 238.9 " fill="none"></path>
					</g>
					<path d="M493.5 244.1 L494.8 238.9 L496.1 233.7 L507.8 242.2 Z"></path>
					<text x="810.5" y="180.5" stroke="none">extends</text>
					<path d="M802.5 173.8 L802.5 205 L686.75 238.836784409257 L686.8 238.8 " fill="none"></path>
					<path d="M807.8 173.8 L802.5 173.8 L797.2 173.8 L802.5 160.5 Z"></path>
					<text x="873.0" y="441.0" stroke="none">uses</text>
					<path d="M693.2 289.1 L836.5 325 L836.5 377 L836.5 377 L836.5 429 L836.5 429 L849.7202750740349 438.2773860168666 L849.7 438.3 " fill="none"></path>
					<g fill="#eee8d5">
						<path d="M854.3 448.0 L849.7 438.3 L860.4 439.3 L865.0 449.0 Z"></path>
					</g>
					<path d="M701.0 285.5 L693.2 289.1 L698.4 295.9 L686.8 287.4 Z"></path>
					<text x="1006.3" y="337.0" stroke="none">uses</text>
					<path d="M693.3 279.4 L998.25 325 L998.25 326.3333333333333 L998.3 326.3 " fill="none"></path>
					<g fill="#eee8d5">
						<path d="M992.9 335.7 L998.3 326.3 L1003.6 335.7 L998.3 345.0 Z"></path>
					</g>
					<path d="M700.7 275.1 L693.3 279.4 L699.1 285.6 L686.8 278.4 Z"></path>
					<text x="1006.3" y="429.0" stroke="none">extends</text>
					<path d="M998.3 409.0 L998.25 429 L983.3116144561202 440.75479518206936 L983.3 440.8 " fill="none"></path>
					<path d="M980.0 436.6 L983.3 440.8 L986.6 444.9 L972.8 449.0 Z"></path>
					<text x="207.3" y="353.0" stroke="none">implements</text>
					<g stroke-dasharray="6 6">
						<path d="M494.7 285.4 L296.25 325 L296.25 361 L296.3 361.0 " fill="none"></path>
					</g>
					<path d="M495.7 290.7 L494.7 285.4 L493.6 280.2 L507.8 282.8 Z"></path>
					<text x="232.8" y="449.0" stroke="none">extends</text>
					<path d="M296.3 406.3 L296.25 429 L296.25 457 L296.3 457.0 " fill="none"></path>
					<path d="M301.6 406.3 L296.3 406.3 L290.9 406.3 L296.3 393.0 Z"></path>
					<text x="122.9" y="541.0" stroke="none">has
					(generic constraint)</text>
					<path d="M296.3 539.7 L296.25 549 L300.61543894592285 578.9032567795715 L300.6 578.9 " fill="none"></path>
					<path d="M294.4 573.1 L300.6 578.9 L304.9 571.5 L301.6 585.5 Z"></path>
					<g fill="#33322E">
						<path d="M301.6 530.3 L296.3 539.7 L290.9 530.3 L296.3 521.0 Z"></path>
					</g>
					<text x="299.1" y="669.5" stroke="none">extends</text>
					<path d="M362.5 649.5 L426.75 686 L531.8745659219368 714.2846365709247 L531.9 714.3 " fill="none"></path>
					<path d="M530.5 719.4 L531.9 714.3 L533.3 709.1 L544.8 717.7 Z"></path>
					<text x="619.1" y="706.0" stroke="none">has</text>
					<path d="M581.8 311.3 L577.25 325 L577.25 377 L577.25 377 L577.25 429 L577.25 429 L577.25 489 L577.25 489 L577.25 549 L577.25 549 L577.25 617.5 L577.25 617.5 L577.25 686 L577.25 686 L596.7026393390058 702.0987360046945 L596.7 702.1 " fill="none"></path>
					<g fill="#33322E">
						<path d="M600.5 712.2 L596.7 702.1 L607.3 703.9 L611.1 714.0 Z"></path>
					</g>
					<path d="M584.8 319.3 L581.8 311.3 L574.6 316.0 L583.9 305.0 Z"></path>
					<text x="837.3" y="561.0" stroke="none">returns</text>
					<path d="M922.0 535.7 L922 549 L909.6997745443829 557.9873647329042 L909.7 558.0 " fill="none"></path>
					<g fill="#eee8d5">
						<path d="M899.0 559.2 L909.7 558.0 L905.3 567.8 L894.6 569.0 Z"></path>
					</g>
					<path d="M927.3 542.3 L922.0 535.7 L916.7 542.3 L922.0 529.0 Z"></path>
					<text x="681.5" y="706.0" stroke="none">extends</text>
					<path d="M828.3 679.3 L828.25 686 L744.95 714 L745.0 714.0 " fill="none"></path>
					<path d="M833.6 679.3 L828.3 679.3 L822.9 679.3 L828.3 666.0 Z"></path>
					<text x="372.8" y="577.5" stroke="none">uses</text>
					<path d="M432.1 580.2 L537.25 549 L537.25 489 L537.25 489 L537.25 429 L537.25 429 L537.25 377 L537.25 377 L537.25 325 L537.25 325 L552.5359547920897 309.7140452079103 L552.5 309.7 " fill="none"></path>
					<path d="M551.6 318.2 L552.5 309.7 L544.1 310.7 L557.3 305.0 Z"></path>
					<g fill="#eee8d5">
						<path d="M421.6 577.7 L432.1 580.2 L424.6 588.0 L414.2 585.5 Z"></path>
					</g>
					<g data-name="DataStrategy">
						<g fill="#C9DEEF" stroke="#33322E" data-name="DataStrategy">
							<rect x="95.3" y="72.0" height="113.0" width="533.0" data-name="DataStrategy"></rect>
							<path d="M95.3 104.0 L628.3 104.0" fill="none" data-name="DataStrategy"></path>
						</g>
						<g transform="translate(95.25, 72)" font-family="Helvetica" font-size="12pt" font-weight="bold" font-style="normal" data-name="DataStrategy" data-compartment="0">
							<g transform="translate(8, 8)" fill="#33322E" text-align="center" data-name="DataStrategy" data-compartment="0">
								<text x="258.5" y="14.1" stroke="none" text-anchor="middle" data-name="DataStrategy" data-compartment="0">DataStrategy</text>
								
							</g>
						</g>
						<g transform="translate(95.25, 104)" font-family="Helvetica" font-size="12pt" font-weight="normal" font-style="normal" data-name="DataStrategy" data-compartment="1">
							<g transform="translate(8, 8)" fill="#33322E" text-align="left" data-name="DataStrategy" data-compartment="1">
								<text x="0.0" y="14.1" stroke="none" data-name="DataStrategy" data-compartment="1">+ static IDataStrategy GetStoredDataStrategy(ArgsCode, PropsCode)</text>
								<text x="0.0" y="30.3" stroke="none" data-name="DataStrategy" data-compartment="1">+ static IDataStrategy GetStoredDataStrategy(IDataStrategy)</text>
								<text x="0.0" y="46.5" stroke="none" data-name="DataStrategy" data-compartment="1">+ static IDataStrategy GetStoredDataStrategy(ArgsCode?, IDataStrategy)</text>
								<text x="0.0" y="62.7" stroke="none" data-name="DataStrategy" data-compartment="1">- static readonly HashSet&lt;DataStrategy&gt; DataStrategies</text>
								
							</g>
						</g>
					</g>
					<g data-name="IDataStrategy">
						<g fill="#DCE8CF" stroke="#33322E" data-name="IDataStrategy">
							<rect x="507.8" y="225.0" height="80.0" width="179.0" data-name="IDataStrategy"></rect>
							<path d="M507.8 257.0 L686.8 257.0" fill="none" data-name="IDataStrategy"></path>
						</g>
						<g transform="translate(507.75, 225)" font-family="Helvetica" font-size="12pt" font-weight="bold" font-style="italic" data-name="IDataStrategy" data-compartment="0">
							<g transform="translate(8, 8)" fill="#33322E" text-align="center" data-name="IDataStrategy" data-compartment="0">
								<text x="81.5" y="14.1" stroke="none" text-anchor="middle" data-name="IDataStrategy" data-compartment="0">IDataStrategy</text>
								
							</g>
						</g>
						<g transform="translate(507.75, 257)" font-family="Helvetica" font-size="12pt" font-weight="normal" font-style="italic" data-name="IDataStrategy" data-compartment="1">
							<g transform="translate(8, 8)" fill="#33322E" text-align="left" data-name="IDataStrategy" data-compartment="1">
								<text x="0.0" y="14.1" stroke="none" data-name="IDataStrategy" data-compartment="1">ArgsCode ArgsCode</text>
								<text x="0.0" y="30.3" stroke="none" data-name="IDataStrategy" data-compartment="1">PropsCode PropsCode</text>
								
							</g>
						</g>
					</g>
					<g data-name="DynamicDataSource">
						<g fill="#C9DEEF" stroke="#33322E" data-name="DynamicDataSource">
							<rect x="211.3" y="361.0" height="32.0" width="170.0" data-name="DynamicDataSource"></rect>
						</g>
						<g transform="translate(211.25, 361)" font-family="Helvetica" font-size="12pt" font-weight="bold" font-style="italic" data-name="DynamicDataSource" data-compartment="0">
							<g transform="translate(8, 8)" fill="#33322E" text-align="center" data-name="DynamicDataSource" data-compartment="0">
								<text x="77.0" y="14.1" stroke="none" text-anchor="middle" data-name="DynamicDataSource" data-compartment="0">DynamicDataSource</text>
								
							</g>
						</g>
					</g>
					<g data-name="DynamicDataRowSource&lt;TDataRowHolder, TRow&gt;">
						<g fill="#C9DEEF" stroke="#33322E" data-name="DynamicDataRowSource&lt;TDataRowHolder, TRow&gt;">
							<rect x="95.3" y="457.0" height="64.0" width="402.0" data-name="DynamicDataRowSource&lt;TDataRowHolder, TRow&gt;"></rect>
							<path d="M95.3 489.0 L497.3 489.0" fill="none" data-name="DynamicDataRowSource&lt;TDataRowHolder, TRow&gt;"></path>
						</g>
						<g transform="translate(95.25, 457)" font-family="Helvetica" font-size="12pt" font-weight="bold" font-style="italic" data-name="DynamicDataRowSource&lt;TDataRowHolder, TRow&gt;" data-compartment="0">
							<g transform="translate(8, 8)" fill="#33322E" text-align="center" data-name="DynamicDataRowSource&lt;TDataRowHolder, TRow&gt;" data-compartment="0">
								<text x="193.0" y="14.1" stroke="none" text-anchor="middle" data-name="DynamicDataRowSource&lt;TDataRowHolder, TRow&gt;" data-compartment="0">DynamicDataRowSource&lt;TDataRowHolder, TRow&gt;</text>
								
							</g>
						</g>
						<g transform="translate(95.25, 489)" font-family="Helvetica" font-size="12pt" font-weight="normal" font-style="normal" data-name="DynamicDataRowSource&lt;TDataRowHolder, TRow&gt;" data-compartment="1">
							<g transform="translate(8, 8)" fill="#33322E" text-align="left" data-name="DynamicDataRowSource&lt;TDataRowHolder, TRow&gt;" data-compartment="1">
								<text x="0.0" y="14.1" stroke="none" data-name="DynamicDataRowSource&lt;TDataRowHolder, TRow&gt;" data-compartment="1">&apos;# TDataRowHolder DataHolder</text>
								
							</g>
						</g>
					</g>
					<g data-name="IDataRowHolder&lt;TRow&gt;">
						<g fill="#DCE8CF" stroke="#33322E" data-name="IDataRowHolder&lt;TRow&gt;">
							<rect x="85.3" y="585.5" height="64.0" width="442.0" data-name="IDataRowHolder&lt;TRow&gt;"></rect>
							<path d="M85.3 617.5 L527.3 617.5" fill="none" data-name="IDataRowHolder&lt;TRow&gt;"></path>
						</g>
						<g transform="translate(85.25, 585.5)" font-family="Helvetica" font-size="12pt" font-weight="bold" font-style="italic" data-name="IDataRowHolder&lt;TRow&gt;" data-compartment="0">
							<g transform="translate(8, 8)" fill="#33322E" text-align="center" data-name="IDataRowHolder&lt;TRow&gt;" data-compartment="0">
								<text x="213.0" y="14.1" stroke="none" text-anchor="middle" data-name="IDataRowHolder&lt;TRow&gt;" data-compartment="0">IDataRowHolder&lt;TRow&gt;</text>
								
							</g>
						</g>
						<g transform="translate(85.25, 617.5)" font-family="Helvetica" font-size="12pt" font-weight="normal" font-style="italic" data-name="IDataRowHolder&lt;TRow&gt;" data-compartment="1">
							<g transform="translate(8, 8)" fill="#33322E" text-align="left" data-name="IDataRowHolder&lt;TRow&gt;" data-compartment="1">
								<text x="0.0" y="14.1" stroke="none" data-name="IDataRowHolder&lt;TRow&gt;" data-compartment="1">IDataRowHolder&lt;TRow&gt; GetDataRowHolder(IDataStrategy)</text>
								
							</g>
						</g>
					</g>
					<g data-name="IDataRowHolder">
						<g fill="#DCE8CF" stroke="#33322E" data-name="IDataRowHolder">
							<rect x="544.8" y="714.0" height="64.0" width="210.0" data-name="IDataRowHolder"></rect>
							<path d="M544.8 746.0 L754.8 746.0" fill="none" data-name="IDataRowHolder"></path>
						</g>
						<g transform="translate(544.75, 714)" font-family="Helvetica" font-size="12pt" font-weight="bold" font-style="italic" data-name="IDataRowHolder" data-compartment="0">
							<g transform="translate(8, 8)" fill="#33322E" text-align="center" data-name="IDataRowHolder" data-compartment="0">
								<text x="97.0" y="14.1" stroke="none" text-anchor="middle" data-name="IDataRowHolder" data-compartment="0">IDataRowHolder</text>
								
							</g>
						</g>
						<g transform="translate(544.75, 746)" font-family="Helvetica" font-size="12pt" font-weight="normal" font-style="italic" data-name="IDataRowHolder" data-compartment="1">
							<g transform="translate(8, 8)" fill="#33322E" text-align="left" data-name="IDataRowHolder" data-compartment="1">
								<text x="0.0" y="14.1" stroke="none" data-name="IDataRowHolder" data-compartment="1">IDataStrategy DataStrategy</text>
								
							</g>
						</g>
					</g>
					<g data-name="ITestDataRows">
						<g fill="#DCE8CF" stroke="#33322E" data-name="ITestDataRows">
							<rect x="617.3" y="569.0" height="97.0" width="422.0" data-name="ITestDataRows"></rect>
							<path d="M617.3 601.0 L1039.3 601.0" fill="none" data-name="ITestDataRows"></path>
						</g>
						<g transform="translate(617.25, 569)" font-family="Helvetica" font-size="12pt" font-weight="bold" font-style="italic" data-name="ITestDataRows" data-compartment="0">
							<g transform="translate(8, 8)" fill="#33322E" text-align="center" data-name="ITestDataRows" data-compartment="0">
								<text x="203.0" y="14.1" stroke="none" text-anchor="middle" data-name="ITestDataRows" data-compartment="0">ITestDataRows</text>
								
							</g>
						</g>
						<g transform="translate(617.25, 601)" font-family="Helvetica" font-size="12pt" font-weight="normal" font-style="italic" data-name="ITestDataRows" data-compartment="1">
							<g transform="translate(8, 8)" fill="#33322E" text-align="left" data-name="ITestDataRows" data-compartment="1">
								<text x="0.0" y="14.1" stroke="none" data-name="ITestDataRows" data-compartment="1">IDataStrategy GetDataStrategy(ArgsCode?)</text>
								<text x="0.0" y="30.3" stroke="none" data-name="ITestDataRows" data-compartment="1">IDataStrategy GetDataStrategy(ArgsCode?, PropsCode?)</text>
								<text x="0.0" y="46.5" stroke="none" data-name="ITestDataRows" data-compartment="1">IEnumerable&lt;ITestDataRow&gt;? GetTestDataRows()</text>
								
							</g>
						</g>
					</g>
					<g data-name="ITestDataRow">
						<g fill="#DCE8CF" stroke="#33322E" data-name="ITestDataRow">
							<rect x="774.5" y="449.0" height="80.0" width="295.0" data-name="ITestDataRow"></rect>
							<path d="M774.5 481.0 L1069.5 481.0" fill="none" data-name="ITestDataRow"></path>
						</g>
						<g transform="translate(774.5, 449)" font-family="Helvetica" font-size="12pt" font-weight="bold" font-style="italic" data-name="ITestDataRow" data-compartment="0">
							<g transform="translate(8, 8)" fill="#33322E" text-align="center" data-name="ITestDataRow" data-compartment="0">
								<text x="139.5" y="14.1" stroke="none" text-anchor="middle" data-name="ITestDataRow" data-compartment="0">ITestDataRow</text>
								
							</g>
						</g>
						<g transform="translate(774.5, 481)" font-family="Helvetica" font-size="12pt" font-weight="normal" font-style="italic" data-name="ITestDataRow" data-compartment="1">
							<g transform="translate(8, 8)" fill="#33322E" text-align="left" data-name="ITestDataRow" data-compartment="1">
								<text x="0.0" y="14.1" stroke="none" data-name="ITestDataRow" data-compartment="1">object?array GetParams(IDataStrategy)</text>
								<text x="0.0" y="30.3" stroke="none" data-name="ITestDataRow" data-compartment="1">ITestData GetTestData()</text>
								
							</g>
						</g>
					</g>
					<g data-name="ITestDataRow&lt;TRow&gt;">
						<g fill="#DCE8CF" stroke="#33322E" data-name="ITestDataRow&lt;TRow&gt;">
							<rect x="885.8" y="345.0" height="64.0" width="225.0" data-name="ITestDataRow&lt;TRow&gt;"></rect>
							<path d="M885.8 377.0 L1110.8 377.0" fill="none" data-name="ITestDataRow&lt;TRow&gt;"></path>
						</g>
						<g transform="translate(885.75, 345)" font-family="Helvetica" font-size="12pt" font-weight="bold" font-style="italic" data-name="ITestDataRow&lt;TRow&gt;" data-compartment="0">
							<g transform="translate(8, 8)" fill="#33322E" text-align="center" data-name="ITestDataRow&lt;TRow&gt;" data-compartment="0">
								<text x="104.5" y="14.1" stroke="none" text-anchor="middle" data-name="ITestDataRow&lt;TRow&gt;" data-compartment="0">ITestDataRow&lt;TRow&gt;</text>
								
							</g>
						</g>
						<g transform="translate(885.75, 377)" font-family="Helvetica" font-size="12pt" font-weight="normal" font-style="italic" data-name="ITestDataRow&lt;TRow&gt;" data-compartment="1">
							<g transform="translate(8, 8)" fill="#33322E" text-align="left" data-name="ITestDataRow&lt;TRow&gt;" data-compartment="1">
								<text x="0.0" y="14.1" stroke="none" data-name="ITestDataRow&lt;TRow&gt;" data-compartment="1">TRow Convert(IDataStrategy)</text>
								
							</g>
						</g>
					</g>
					<g data-name="DataRowHolder&lt;TRow&gt;">
						<g fill="#C9DEEF" stroke="#33322E" data-name="DataRowHolder&lt;TRow&gt;">
							<rect x="0.0" y="0.0" height="32.0" width="196.0" data-name="DataRowHolder&lt;TRow&gt;"></rect>
						</g>
						<g transform="translate(0, 0)" font-family="Helvetica" font-size="12pt" font-weight="bold" font-style="italic" data-name="DataRowHolder&lt;TRow&gt;" data-compartment="0">
							<g transform="translate(8, 8)" fill="#33322E" text-align="center" data-name="DataRowHolder&lt;TRow&gt;" data-compartment="0">
								<text x="90.0" y="14.1" stroke="none" text-anchor="middle" data-name="DataRowHolder&lt;TRow&gt;" data-compartment="0">DataRowHolder&lt;TRow&gt;</text>
								
							</g>
						</g>
					</g>
					<g data-name="IRows&lt;TRow&gt;">
						<g fill="#DCE8CF" stroke="#33322E" data-name="IRows&lt;TRow&gt;">
							<rect x="31.0" y="706.0" height="80.0" width="431.0" data-name="IRows&lt;TRow&gt;"></rect>
							<path d="M31.0 738.0 L462.0 738.0" fill="none" data-name="IRows&lt;TRow&gt;"></path>
						</g>
						<g transform="translate(31, 706)" font-family="Helvetica" font-size="12pt" font-weight="bold" font-style="italic" data-name="IRows&lt;TRow&gt;" data-compartment="0">
							<g transform="translate(8, 8)" fill="#33322E" text-align="center" data-name="IRows&lt;TRow&gt;" data-compartment="0">
								<text x="207.5" y="14.1" stroke="none" text-anchor="middle" data-name="IRows&lt;TRow&gt;" data-compartment="0">IRows&lt;TRow&gt;</text>
								
							</g>
						</g>
						<g transform="translate(31, 738)" font-family="Helvetica" font-size="12pt" font-weight="normal" font-style="italic" data-name="IRows&lt;TRow&gt;" data-compartment="1">
							<g transform="translate(8, 8)" fill="#33322E" text-align="left" data-name="IRows&lt;TRow&gt;" data-compartment="1">
								<text x="0.0" y="14.1" stroke="none" data-name="IRows&lt;TRow&gt;" data-compartment="1">IEnumerable&lt;TRow&gt;? GetRows(ArgsCode?)</text>
								<text x="0.0" y="30.3" stroke="none" data-name="IRows&lt;TRow&gt;" data-compartment="1">IEnumerable&lt;TRow&gt;? GetRows(ArgsCode?, PropsCode?)</text>
								
							</g>
						</g>
					</g>
					<g data-name="IEquatable&lt;IDataStrategy&gt;">
						<g fill="#DCE8CF" stroke="#33322E" data-name="IEquatable&lt;IDataStrategy&gt;">
							<rect x="694.0" y="96.5" height="64.0" width="217.0" data-name="IEquatable&lt;IDataStrategy&gt;"></rect>
							<path d="M694.0 128.5 L911.0 128.5" fill="none" data-name="IEquatable&lt;IDataStrategy&gt;"></path>
						</g>
						<g transform="translate(694, 96.5)" font-family="Helvetica" font-size="12pt" font-weight="bold" font-style="italic" data-name="IEquatable&lt;IDataStrategy&gt;" data-compartment="0">
							<g transform="translate(8, 8)" fill="#33322E" text-align="center" data-name="IEquatable&lt;IDataStrategy&gt;" data-compartment="0">
								<text x="100.5" y="14.1" stroke="none" text-anchor="middle" data-name="IEquatable&lt;IDataStrategy&gt;" data-compartment="0">IEquatable&lt;IDataStrategy&gt;</text>
								
							</g>
						</g>
						<g transform="translate(694, 128.5)" font-family="Helvetica" font-size="12pt" font-weight="normal" font-style="italic" data-name="IEquatable&lt;IDataStrategy&gt;" data-compartment="1">
							<g transform="translate(8, 8)" fill="#33322E" text-align="left" data-name="IEquatable&lt;IDataStrategy&gt;" data-compartment="1">
								<text x="0.0" y="14.1" stroke="none" data-name="IEquatable&lt;IDataStrategy&gt;" data-compartment="1">bool Equals(IDataStrategy?)</text>
								
							</g>
						</g>
					</g>
				</g>
			</g>
		</g>
	</g>
</svg>