<svg version="1.1" baseProfile="full" width="2025.0" height="1561.0" viewBox="0 0 2025 1561" xmlns="http://www.w3.org/2000/svg" xmlns:xlink="http://www.w3.org/1999/xlink" xmlns:ev="http://www.w3.org/2001/xml-events">
	<title >CsabaDu_DynamicTestData_Pattern_Composite</title>
	<desc >
	
	#title: CsabaDu_DynamicTestData_Pattern_Composite
	#direction: down
	#.contract: fill=#DCE8CF title=center,italic,bold body=left,italic visual=class
	#.concrete: fill=#C9DEEF title=center,bold body=left visual=class
	#.abstract: fill=#C9DEEF title=center,bold,italic body=left visual=class
	
	
	
	[&lt;contract&gt;
	IEquatable&lt;IDataStrategy&gt; |
	bool Equals(INamedTestCase?)]
	
	[&lt;contract&gt;
	ITestDataRow&lt;TRow, TTestData&gt; |
	TTestData TestData]
	
	[&lt;abstract&gt;
	TestDataRow&lt;TRow, TTestData&gt;]
	
	[&lt;contract&gt;
	ITestData |
	string Definition |
	object?array ToArgs(ArgsCode)
	object?array ToParams(ArgsCode, PropsCode)]
	
	[&lt;concrete&gt;
	DataStrategy |
	- static readonly HashSet&lt;DataStrategy&gt; DataStrategies |
	+ int GetHashCode()
	+ static IDataStrategy GetStoredDataStrategy(ArgsCode, PropsCode)
	+ static IDataStrategy GetStoredDataStrategy(IDataStrategy)
	+ static IDataStrategy GetStoredDataStrategy(ArgsCode?, IDataStrategy)]
	
	[&lt;contract&gt;
	IDataStrategy |
	ArgsCode ArgsCode
	PropsCode PropsCode]
	
	[&lt;abstract&gt;
	DynamicDataSource&lt;TDataHolder&gt; |
	&apos;# TDataRowHolde DataHolder |
	&apos;# abstract void Add&lt;TTestData&gt;(TTestData)]
	
	[&lt;abstract&gt;
	DynamicDataRowSource&lt;TDataRowHolder, TRow&gt; |
	&apos;# void Add&lt;T1...T9&gt;(string, string, T1?...T9?)
	&apos;# void AddReturns&lt;TStruct, T1...T9&gt;(string, TStruct, T1?...T9?)
	&apos;# void AddThrows&lt;TException, T1...T9&gt;(string, TException, T1?...T9?) |
	&apos;# abstract void InitDataHolder&lt;TTestData&gt;(TTestData)]
	
	[&lt;contract&gt;
	INamedTestCase |
	string GetTestCaseName()]
	
	[&lt;contract&gt;
	IReadonlyCollection&lt;ITestDataRow&gt; |
	int Count |
	IEnumerator&lt;ITestDataRow&gt; GetEnumerator()
	IEnumerator GetEnumerator()]
	
	[&lt;contract&gt;
	IAddTestData&lt;TTestData&gt; |
	void Add(TTestData)]
	
	[&lt;contract&gt;
	IDataRowHolder |
	IDataStrategy DataStrategy]
	
	[&lt;contract&gt;
	IDataRowHolder&lt;TRow&gt; |
	IDataRowHolder&lt;TRow&gt; GetDataRowHolder(IDataStrategy)]
	
	[&lt;contract&gt;
	IDataRowHolder&lt;TRow, TTestData&gt; |
	void Add(ITestDataRow&lt;TRow, TTestData&gt;)]
	
	[&lt;abstract&gt;
	DataRowHolder&lt;TRow, TTestData&gt; |
	- readonly List&lt;ITestDataRow&lt;TRow, TTestData&gt;&gt; testDataRows]
	
	[&lt;contract&gt;
	IEquatable&lt;INamedTestCase&gt; |
	bool Equals(INamedTestCase?)]
	
	[&lt;contract&gt;
	ITestDataRow&lt;TRow&gt; |
	TRow Convert(IDataStrategy)]
	
	[&lt;concrete&gt;
	TTestData
	(concrete generic records)]
	
	[&lt;contract&gt; ITestDataRow |
	object?array GetParams(IDataStrategy)
	ITestData GetTestData()]
	
	
	
	
	[IDataRowHolder&lt;TRow, TTestData&gt;] -:&gt; extends
	[IReadonlyCollection&lt;ITestDataRow&gt;] uses (generic constraint) o-&gt;
	[ITestDataRow]
	
	[TTestData] &lt;-+ has
	[ITestDataRow&lt;TRow, TTestData&gt;]
	
	[DataRowHolder&lt;TRow, TTestData&gt;] has +-&gt;
	[ITestDataRow&lt;TRow, TTestData&gt;]
	
	[DynamicDataSource&lt;TDataHolder&gt;] uses o-&gt;
	[TTestData]
	
	[IEquatable&lt;INamedTestCase&gt;] extends &lt;:-
	[INamedTestCase]
	
	[ITestDataRow] -:&gt; extends
	[INamedTestCase] extends &lt;:-
	[ITestData]
	
	
	[ITestDataRow] extends &lt;:-
	[ITestDataRow&lt;TRow&gt;] &lt;:- extends
	[ITestDataRow&lt;TRow, TTestData&gt;]
	
	[IEquatable&lt;IDataStrategy&gt;] &lt;:- extends
	[IDataStrategy] &lt;-o uses
	[ITestDataRow&lt;TRow&gt;]
	
	[IDataStrategy] &lt;-o uses
	[ITestDataRow]
	
	[IDataStrategy] &lt;:-- implements
	[DataStrategy]
	
	[DataStrategy] &lt;-o uses (as DataStrategy cache)
	[DataRowHolder&lt;TRow, TTestData&gt;]
	
	[IDataRowHolder&lt;TRow&gt;]
	[DynamicDataRowSource&lt;TDataRowHolder, TRow&gt;] has
	(generic constraint) +-&gt;
	[IDataRowHolder&lt;TRow&gt;]
	
	[IDataStrategy] &lt;-+ has
	[IDataRowHolder] &lt;:- extends
	[IDataRowHolder&lt;TRow&gt;] extends &lt;:-
	[IDataRowHolder&lt;TRow, TTestData&gt;]
	
	[IDataStrategy] &lt;:-- implements
	[DynamicDataSource&lt;TDataHolder&gt;] &lt;:- extends
	[DynamicDataRowSource&lt;TDataRowHolder, TRow&gt;] uses o-&gt;
	[TTestData]
	
	[IDataStrategy] &lt;-o uses
	[IDataRowHolder&lt;TRow&gt;]
	
	[DataRowHolder&lt;TRow, TTestData&gt;] --:&gt; implements
	[IDataRowHolder&lt;TRow, TTestData&gt;]
	
	[IDataRowHolder&lt;TRow, TTestData&gt;] o-&gt; uses
	[TTestData]
	
	[IDataRowHolder&lt;TRow, TTestData&gt;] extends -:&gt;
	[IAddTestData&lt;TTestData&gt;]
	
	[IAddTestData&lt;TTestData&gt;] uses o-&gt;
	[TTestData]
	
	[ITestDataRow&lt;TRow, TTestData&gt;] &lt;:-- implements
	[TestDataRow&lt;TRow, TTestData&gt;]
	
	[ITestData] implements &lt;:--
	[TTestData]
	
	[ITestDataRow] returns o-&gt;
	[ITestData]
	</desc>
	<g stroke-width="1.0" text-align="left" font="12pt Helvetica, Arial, sans-serif" font-size="12pt" font-family="Helvetica" font-weight="normal" font-style="normal">
		<g font-family="Helvetica" font-size="12pt" font-weight="bold" font-style="normal" stroke-width="3.0" stroke-linejoin="round" stroke-linecap="round" stroke="#33322E">
			<g stroke="transparent" fill="transparent">
				<rect x="0.0" y="0.0" height="1561.0" width="2025.0" stroke="none"></rect>
			</g>
			<g transform="translate(8, 8)" fill="#33322E">
				<g transform="translate(20, 20)" fill="#33322E" font-family="Helvetica" font-size="12pt" font-weight="normal" font-style="normal">
					<text x="1330.8" y="745.0" stroke="none">extends</text>
					<path d="M1107.3 703.4 L1322.75 733 L1322.75 739.6666666666666 L1322.8 739.7 " fill="none"></path>
					<path d="M1317.4 739.7 L1322.8 739.7 L1328.1 739.7 L1322.8 753.0 Z"></path>
					<text x="1141.4" y="885.0" stroke="none">uses (generic constraint)</text>
					<path d="M1322.8 883.7 L1322.75 885 L1372.2249101078992 902.7488466754795 L1372.2 902.7 " fill="none"></path>
					<path d="M1364.1 905.5 L1372.2 902.7 L1367.8 895.5 L1378.5 905.0 Z"></path>
					<g fill="#eee8d5">
						<path d="M1328.1 874.3 L1322.8 883.7 L1317.4 874.3 L1322.8 865.0 Z"></path>
					</g>
					<text x="1655.8" y="1387.6" stroke="none">has</text>
					<path d="M515.0 1335.7 L515 1349 L1629.0990782738422 1394.7879091643863 L1629.1 1394.8 " fill="none"></path>
					<g fill="#33322E">
						<path d="M1638.2 1400.5 L1629.1 1394.8 L1638.6 1389.8 L1647.8 1395.6 Z"></path>
					</g>
					<path d="M520.3 1342.3 L515.0 1335.7 L509.7 1342.3 L515.0 1329.0 Z"></path>
					<text x="1455.0" y="624.3" stroke="none">has</text>
					<path d="M1507.0 606.4 L1704 629 L1704 681 L1704 681 L1704 733 L1704 733 L1704 809 L1704 809 L1704 885 L1704 885 L1704 945 L1704 945 L1704 1005 L1704 1005 L1704 1057 L1704 1057 L1704 1109 L1704 1109 L1704 1185 L1704 1185 L1704 1261 L1704 1261 L1704 1305 L1704 1305 L1704 1349 L1704 1349 L1727.8191228728197 1365.2438608444147 L1727.8 1365.2 " fill="none"></path>
					<path d="M1719.3 1365.9 L1727.8 1365.2 L1725.3 1357.1 L1733.3 1369.0 Z"></path>
					<g fill="#33322E">
						<path d="M1498.4 600.1 L1507.0 606.4 L1497.2 610.7 L1488.5 604.3 Z"></path>
					</g>
					<text x="58.5" y="340.0" stroke="none">uses</text>
					<path d="M85.0 331.2 L73.25 340 L73.25 432.5 L73.25 432.5 L73.25 525 L73.25 525 L73.25 577 L73.25 577 L73.25 629 L73.25 629 L73.25 681 L73.25 681 L73.25 733 L73.25 733 L73.25 809 L73.25 809 L73.25 885 L73.25 885 L73.25 945 L73.25 945 L73.25 1005 L73.25 1005 L73.25 1057 L73.25 1057 L73.25 1109 L73.25 1109 L73.25 1185 L73.25 1185 L73.25 1261 L73.25 1261 L400.36615904351163 1293.5820282918269 L400.4 1293.6 " fill="none"></path>
					<path d="M393.2 1298.2 L400.4 1293.6 L394.3 1287.6 L407.0 1294.2 Z"></path>
					<g fill="#eee8d5">
						<path d="M95.7 329.9 L85.0 331.2 L89.3 321.3 L99.9 320.0 Z"></path>
					</g>
					<text x="1079.6" y="997.0" stroke="none">extends</text>
					<path d="M1143.0 990.3 L1143 1005 L1150.6923076923076 1025 L1150.7 1025.0 " fill="none"></path>
					<path d="M1148.3 990.3 L1143.0 990.3 L1137.7 990.3 L1143.0 977.0 Z"></path>
					<text x="1182.1" y="1017.0" stroke="none">extends</text>
					<path d="M1361.3 985.0 L1297 1005 L1257.8917459017882 1020.1763374112464 L1257.9 1020.2 " fill="none"></path>
					<path d="M1256.0 1015.2 L1257.9 1020.2 L1259.8 1025.1 L1245.5 1025.0 Z"></path>
					<text x="1099.6" y="1109.0" stroke="none">extends</text>
					<path d="M1163.0 1102.3 L1163 1109 L1236.5 1131.569696969697 L1236.5 1131.6 " fill="none"></path>
					<path d="M1168.3 1102.3 L1163.0 1102.3 L1157.7 1102.3 L1163.0 1089.0 Z"></path>
					<text x="1574.1" y="995.5" stroke="none">extends</text>
					<path d="M1650.6 978.2 L1780.25 1005 L1809.576923076923 1025 L1809.6 1025.0 " fill="none"></path>
					<path d="M1651.6 973.0 L1650.6 978.2 L1649.5 983.4 L1637.5 975.5 Z"></path>
					<text x="1763.8" y="1361.0" stroke="none">extends</text>
					<path d="M1856.5 1102.3 L1856.5 1109 L1856.5 1185 L1856.5 1185 L1856.5 1261 L1856.5 1261 L1856.5 1305 L1856.5 1305 L1856.5 1349 L1856.5 1349 L1827.173076923077 1369 L1827.2 1369.0 " fill="none"></path>
					<path d="M1861.8 1102.3 L1856.5 1102.3 L1851.2 1102.3 L1856.5 1089.0 Z"></path>
					<text x="952.8" y="96.0" stroke="none">extends</text>
					<path d="M1016.3 77.3 L1016.25 84 L1016.25 104 L1016.3 104.0 " fill="none"></path>
					<path d="M1021.6 77.3 L1016.3 77.3 L1010.9 77.3 L1016.3 64.0 Z"></path>
					<text x="1864.5" y="1017.0" stroke="none">uses</text>
					<path d="M1112.4 150.9 L1856.5 204 L1856.5 272 L1856.5 272 L1856.5 340 L1856.5 340 L1856.5 432.5 L1856.5 432.5 L1856.5 525 L1856.5 525 L1856.5 577 L1856.5 577 L1856.5 629 L1856.5 629 L1856.5 681 L1856.5 681 L1856.5 733 L1856.5 733 L1856.5 809 L1856.5 809 L1856.5 885 L1856.5 885 L1856.5 945 L1856.5 945 L1856.5 1005 L1856.5 1005 L1856.5 1006.3333333333334 L1856.5 1006.3 " fill="none"></path>
					<g fill="#eee8d5">
						<path d="M1851.2 1015.7 L1856.5 1006.3 L1861.8 1015.7 L1856.5 1025.0 Z"></path>
					</g>
					<path d="M1119.4 146.0 L1112.4 150.9 L1118.7 156.7 L1105.8 150.4 Z"></path>
					<text x="1542.7" y="897.0" stroke="none">uses</text>
					<path d="M1112.4 154.7 L1557 204 L1557 272 L1557 272 L1557 340 L1557 340 L1557 432.5 L1557 432.5 L1557 525 L1557 525 L1557 577 L1557 577 L1557 629 L1557 629 L1557 681 L1557 681 L1557 733 L1557 733 L1557 809 L1557 809 L1557 885 L1557 885 L1548.5724083410894 892.5470970079797 L1548.6 892.5 " fill="none"></path>
					<g fill="#eee8d5">
						<path d="M1538.1 894.8 L1548.6 892.5 L1545.2 902.7 L1534.7 905.0 Z"></path>
					</g>
					<path d="M1119.6 150.1 L1112.4 154.7 L1118.4 160.7 L1105.8 153.9 Z"></path>
					<text x="1258.5" y="352.0" stroke="none">implements</text>
					<g stroke-dasharray="6 6">
						<path d="M1118.7 170.2 L1250.5 204 L1250.5 272 L1250.5 272 L1250.5 340 L1250.5 340 L1250.5 360 L1250.5 360.0 " fill="none"></path>
					</g>
					<path d="M1120.0 165.1 L1118.7 170.2 L1117.3 175.4 L1105.8 166.9 Z"></path>
					<text x="1033.9" y="537.0" stroke="none">uses (as DataStrategy cache)</text>
					<path d="M1250.5 511.7 L1250.5 525 L1250.5 526.3333333333334 L1250.5 526.3 " fill="none"></path>
					<g fill="#eee8d5">
						<path d="M1245.2 535.7 L1250.5 526.3 L1255.8 535.7 L1250.5 545.0 Z"></path>
					</g>
					<path d="M1255.8 518.3 L1250.5 511.7 L1245.2 518.3 L1250.5 505.0 Z"></path>
					<text x="310.6" y="517.0" stroke="none">has
					(generic constraint)</text>
					<path d="M500.2 506.3 L532.75 525 L603.8904724907215 543.3360821289592 L603.9 543.3 " fill="none"></path>
					<path d="M596.1 546.8 L603.9 543.3 L598.8 536.5 L610.3 545.0 Z"></path>
					<g fill="#33322E">
						<path d="M494.8 497.0 L500.2 506.3 L489.5 506.3 L484.0 497.0 Z"></path>
					</g>
					<text x="741.8" y="392.5" stroke="none">has</text>
					<path d="M920.3 167.9 L775.25 204 L775.25 272 L775.25 272 L775.25 340 L775.25 340 L775.25 381.8333333333333 L775.3 381.8 " fill="none"></path>
					<g fill="#33322E">
						<path d="M769.9 391.2 L775.3 381.8 L780.6 391.2 L775.3 400.5 Z"></path>
					</g>
					<path d="M915.1 174.7 L920.3 167.9 L912.5 164.3 L926.8 166.3 Z"></path>
					<text x="696.2" y="537.0" stroke="none">extends</text>
					<path d="M775.3 477.8 L775.25 525 L759.5769230769231 545 L759.6 545.0 " fill="none"></path>
					<path d="M780.6 477.8 L775.3 477.8 L769.9 477.8 L775.3 464.5 Z"></path>
					<text x="671.1" y="629.0" stroke="none">extends</text>
					<path d="M734.5 622.3 L734.5 629 L814.9807692307693 649 L815.0 649.0 " fill="none"></path>
					<path d="M739.8 622.3 L734.5 622.3 L729.2 622.3 L734.5 609.0 Z"></path>
					<text x="75.1" y="216.0" stroke="none">implements</text>
					<g stroke-dasharray="6 6">
						<path d="M913.4 151.2 L164 204 L164 224 L164.0 224.0 " fill="none"></path>
					</g>
					<path d="M913.8 156.6 L913.4 151.2 L913.1 145.9 L926.8 150.3 Z"></path>
					<text x="379.8" y="360.0" stroke="none">extends</text>
					<path d="M323.3 324.1 L371.75 340 L371.75 368 L371.8 368.0 " fill="none"></path>
					<path d="M325.0 319.1 L323.3 324.1 L321.7 329.2 L310.6 320.0 Z"></path>
					<text x="240.2" y="517.0" stroke="none">uses</text>
					<path d="M266.4 507.9 L242.5 525 L242.5 577 L242.5 577 L242.5 629 L242.5 629 L242.5 681 L242.5 681 L242.5 733 L242.5 733 L242.5 809 L242.5 809 L242.5 885 L242.5 885 L242.5 945 L242.5 945 L242.5 1005 L242.5 1005 L242.5 1057 L242.5 1057 L242.5 1109 L242.5 1109 L242.5 1185 L242.5 1185 L242.5 1261 L242.5 1261 L400.4185763392112 1286.4987792988084 L400.4 1286.5 " fill="none"></path>
					<path d="M393.0 1290.7 L400.4 1286.5 L394.7 1280.2 L407.0 1287.6 Z"></path>
					<g fill="#eee8d5">
						<path d="M277.1 506.8 L266.4 507.9 L270.9 498.1 L281.6 497.0 Z"></path>
					</g>
					<text x="807.4" y="537.0" stroke="none">uses</text>
					<path d="M946.6 187.5 L920.25 204 L920.25 272 L920.25 272 L920.25 340 L920.25 340 L920.25 432.5 L920.25 432.5 L920.25 525 L920.25 525 L866.7832719184265 539.9678054387177 L866.8 540.0 " fill="none"></path>
					<g fill="#eee8d5">
						<path d="M856.4 537.3 L866.8 540.0 L859.2 547.6 L848.8 545.0 Z"></path>
					</g>
					<path d="M943.8 195.6 L946.6 187.5 L938.1 186.5 L952.3 184.0 Z"></path>
					<text x="1018.3" y="645.3" stroke="none">implements</text>
					<g stroke-dasharray="6 6">
						<path d="M1250.5 609.0 L1250.5 629 L1120.3957875936735 651.0551558113415 L1120.4 651.1 " fill="none"></path>
					</g>
					<path d="M1119.5 645.8 L1120.4 651.1 L1121.3 656.3 L1107.3 653.3 Z"></path>
					<text x="384.0" y="1273.0" stroke="none">uses</text>
					<path d="M761.7 697.0 L350.75 733 L350.75 809 L350.75 809 L350.75 885 L350.75 885 L350.75 945 L350.75 945 L350.75 1005 L350.75 1005 L350.75 1057 L350.75 1057 L350.75 1109 L350.75 1109 L350.75 1185 L350.75 1185 L350.75 1261 L350.75 1261 L418.9694809783168 1279.2749294553787 L419.0 1279.3 " fill="none"></path>
					<path d="M411.1 1282.7 L419.0 1279.3 L413.9 1272.4 L425.4 1281.0 Z"></path>
					<g fill="#eee8d5">
						<path d="M771.4 701.5 L761.7 697.0 L770.5 690.8 L780.3 695.3 Z"></path>
					</g>
					<text x="923.6" y="733.0" stroke="none">extends</text>
					<path d="M915.6 713.0 L898 733 L898 809 L898 809 L898 885 L898 885 L898 945 L898 945 L898 1005 L898 1005 L898 1057 L898 1057 L898 1109 L898 1109 L898 1139.6666666666667 L898.0 1139.7 " fill="none"></path>
					<path d="M892.7 1139.7 L898.0 1139.7 L903.3 1139.7 L898.0 1153.0 Z"></path>
					<text x="906.0" y="1237.0" stroke="none">uses</text>
					<path d="M898.0 1235.7 L898 1261 L629.6231040982652 1291.8318104952384 L629.6 1291.8 " fill="none"></path>
					<path d="M635.6 1285.8 L629.6 1291.8 L636.9 1296.4 L623.0 1292.6 Z"></path>
					<g fill="#eee8d5">
						<path d="M903.3 1226.3 L898.0 1235.7 L892.7 1226.3 L898.0 1217.0 Z"></path>
					</g>
					<text x="1691.3" y="1465.0" stroke="none">implements</text>
					<g stroke-dasharray="6 6">
						<path d="M1780.3 1446.3 L1780.25 1453 L1780.25 1473 L1780.3 1473.0 " fill="none"></path>
					</g>
					<path d="M1785.6 1446.3 L1780.3 1446.3 L1774.9 1446.3 L1780.3 1433.0 Z"></path>
					<text x="1418.5" y="1261.0" stroke="none">implements</text>
					<g stroke-dasharray="6 6">
						<path d="M1410.5 1254.3 L1410.5 1261 L623 1299.6934673366834 L623.0 1299.7 " fill="none"></path>
					</g>
					<path d="M1415.8 1254.3 L1410.5 1254.3 L1405.2 1254.3 L1410.5 1241.0 Z"></path>
					<text x="1498.0" y="1005.0" stroke="none">returns</text>
					<path d="M1490.0 1003.7 L1490 1005 L1490 1057 L1490 1057 L1490 1109 L1490 1109 L1473.8978759792737 1124.3932254789333 L1473.9 1124.4 " fill="none"></path>
					<path d="M1475.0 1115.9 L1473.9 1124.4 L1482.4 1123.6 L1469.1 1129.0 Z"></path>
					<g fill="#eee8d5">
						<path d="M1495.3 994.3 L1490.0 1003.7 L1484.7 994.3 L1490.0 985.0 Z"></path>
					</g>
					<g data-name="IEquatable&lt;IDataStrategy&gt;">
						<g fill="#DCE8CF" stroke="#33322E" data-name="IEquatable&lt;IDataStrategy&gt;">
							<rect x="896.3" y="0.0" height="64.0" width="240.0" data-name="IEquatable&lt;IDataStrategy&gt;"></rect>
							<path d="M896.3 32.0 L1136.3 32.0" fill="none" data-name="IEquatable&lt;IDataStrategy&gt;"></path>
						</g>
						<g transform="translate(896.25, 0)" font-family="Helvetica" font-size="12pt" font-weight="bold" font-style="italic" data-name="IEquatable&lt;IDataStrategy&gt;" data-compartment="0">
							<g transform="translate(8, 8)" fill="#33322E" text-align="center" data-name="IEquatable&lt;IDataStrategy&gt;" data-compartment="0">
								<text x="112.0" y="14.1" stroke="none" text-anchor="middle" data-name="IEquatable&lt;IDataStrategy&gt;" data-compartment="0">IEquatable&lt;IDataStrategy&gt;</text>
								
							</g>
						</g>
						<g transform="translate(896.25, 32)" font-family="Helvetica" font-size="12pt" font-weight="normal" font-style="italic" data-name="IEquatable&lt;IDataStrategy&gt;" data-compartment="1">
							<g transform="translate(8, 8)" fill="#33322E" text-align="left" data-name="IEquatable&lt;IDataStrategy&gt;" data-compartment="1">
								<text x="0.0" y="14.1" stroke="none" data-name="IEquatable&lt;IDataStrategy&gt;" data-compartment="1">bool Equals(INamedTestCase?)</text>
								
							</g>
						</g>
					</g>
					<g data-name="ITestDataRow&lt;TRow, TTestData&gt;">
						<g fill="#DCE8CF" stroke="#33322E" data-name="ITestDataRow&lt;TRow, TTestData&gt;">
							<rect x="1647.8" y="1369.0" height="64.0" width="265.0" data-name="ITestDataRow&lt;TRow, TTestData&gt;"></rect>
							<path d="M1647.8 1401.0 L1912.8 1401.0" fill="none" data-name="ITestDataRow&lt;TRow, TTestData&gt;"></path>
						</g>
						<g transform="translate(1647.75, 1369)" font-family="Helvetica" font-size="12pt" font-weight="bold" font-style="italic" data-name="ITestDataRow&lt;TRow, TTestData&gt;" data-compartment="0">
							<g transform="translate(8, 8)" fill="#33322E" text-align="center" data-name="ITestDataRow&lt;TRow, TTestData&gt;" data-compartment="0">
								<text x="124.5" y="14.1" stroke="none" text-anchor="middle" data-name="ITestDataRow&lt;TRow, TTestData&gt;" data-compartment="0">ITestDataRow&lt;TRow, TTestData&gt;</text>
								
							</g>
						</g>
						<g transform="translate(1647.75, 1401)" font-family="Helvetica" font-size="12pt" font-weight="normal" font-style="italic" data-name="ITestDataRow&lt;TRow, TTestData&gt;" data-compartment="1">
							<g transform="translate(8, 8)" fill="#33322E" text-align="left" data-name="ITestDataRow&lt;TRow, TTestData&gt;" data-compartment="1">
								<text x="0.0" y="14.1" stroke="none" data-name="ITestDataRow&lt;TRow, TTestData&gt;" data-compartment="1">TTestData TestData</text>
								
							</g>
						</g>
					</g>
					<g data-name="TestDataRow&lt;TRow, TTestData&gt;">
						<g fill="#C9DEEF" stroke="#33322E" data-name="TestDataRow&lt;TRow, TTestData&gt;">
							<rect x="1649.8" y="1473.0" height="32.0" width="261.0" data-name="TestDataRow&lt;TRow, TTestData&gt;"></rect>
						</g>
						<g transform="translate(1649.75, 1473)" font-family="Helvetica" font-size="12pt" font-weight="bold" font-style="italic" data-name="TestDataRow&lt;TRow, TTestData&gt;" data-compartment="0">
							<g transform="translate(8, 8)" fill="#33322E" text-align="center" data-name="TestDataRow&lt;TRow, TTestData&gt;" data-compartment="0">
								<text x="122.5" y="14.1" stroke="none" text-anchor="middle" data-name="TestDataRow&lt;TRow, TTestData&gt;" data-compartment="0">TestDataRow&lt;TRow, TTestData&gt;</text>
								
							</g>
						</g>
					</g>
					<g data-name="ITestData">
						<g fill="#DCE8CF" stroke="#33322E" data-name="ITestData">
							<rect x="1236.5" y="1129.0" height="112.0" width="348.0" data-name="ITestData"></rect>
							<path d="M1236.5 1161.0 L1584.5 1161.0" fill="none" data-name="ITestData"></path>
							<path d="M1236.5 1193.0 L1584.5 1193.0" fill="none" data-name="ITestData"></path>
						</g>
						<g transform="translate(1236.5, 1129)" font-family="Helvetica" font-size="12pt" font-weight="bold" font-style="italic" data-name="ITestData" data-compartment="0">
							<g transform="translate(8, 8)" fill="#33322E" text-align="center" data-name="ITestData" data-compartment="0">
								<text x="166.0" y="14.1" stroke="none" text-anchor="middle" data-name="ITestData" data-compartment="0">ITestData</text>
								
							</g>
						</g>
						<g transform="translate(1236.5, 1161)" font-family="Helvetica" font-size="12pt" font-weight="normal" font-style="italic" data-name="ITestData" data-compartment="1">
							<g transform="translate(8, 8)" fill="#33322E" text-align="left" data-name="ITestData" data-compartment="1">
								<text x="0.0" y="14.1" stroke="none" data-name="ITestData" data-compartment="1">string Definition</text>
								
							</g>
						</g>
						<g transform="translate(1236.5, 1193)" font-family="Helvetica" font-size="12pt" font-weight="normal" font-style="italic" data-name="ITestData" data-compartment="2">
							<g transform="translate(8, 8)" fill="#33322E" text-align="left" data-name="ITestData" data-compartment="2">
								<text x="0.0" y="14.1" stroke="none" data-name="ITestData" data-compartment="2">object?array ToArgs(ArgsCode)</text>
								<text x="0.0" y="30.3" stroke="none" data-name="ITestData" data-compartment="2">object?array ToParams(ArgsCode, PropsCode)</text>
								
							</g>
						</g>
					</g>
					<g data-name="DataStrategy">
						<g fill="#C9DEEF" stroke="#33322E" data-name="DataStrategy">
							<rect x="984.0" y="360.0" height="145.0" width="533.0" data-name="DataStrategy"></rect>
							<path d="M984.0 392.0 L1517.0 392.0" fill="none" data-name="DataStrategy"></path>
							<path d="M984.0 424.0 L1517.0 424.0" fill="none" data-name="DataStrategy"></path>
						</g>
						<g transform="translate(984, 360)" font-family="Helvetica" font-size="12pt" font-weight="bold" font-style="normal" data-name="DataStrategy" data-compartment="0">
							<g transform="translate(8, 8)" fill="#33322E" text-align="center" data-name="DataStrategy" data-compartment="0">
								<text x="258.5" y="14.1" stroke="none" text-anchor="middle" data-name="DataStrategy" data-compartment="0">DataStrategy</text>
								
							</g>
						</g>
						<g transform="translate(984, 392)" font-family="Helvetica" font-size="12pt" font-weight="normal" font-style="normal" data-name="DataStrategy" data-compartment="1">
							<g transform="translate(8, 8)" fill="#33322E" text-align="left" data-name="DataStrategy" data-compartment="1">
								<text x="0.0" y="14.1" stroke="none" data-name="DataStrategy" data-compartment="1">- static readonly HashSet&lt;DataStrategy&gt; DataStrategies</text>
								
							</g>
						</g>
						<g transform="translate(984, 424)" font-family="Helvetica" font-size="12pt" font-weight="normal" font-style="normal" data-name="DataStrategy" data-compartment="2">
							<g transform="translate(8, 8)" fill="#33322E" text-align="left" data-name="DataStrategy" data-compartment="2">
								<text x="0.0" y="14.1" stroke="none" data-name="DataStrategy" data-compartment="2">+ int GetHashCode()</text>
								<text x="0.0" y="30.3" stroke="none" data-name="DataStrategy" data-compartment="2">+ static IDataStrategy GetStoredDataStrategy(ArgsCode, PropsCode)</text>
								<text x="0.0" y="46.5" stroke="none" data-name="DataStrategy" data-compartment="2">+ static IDataStrategy GetStoredDataStrategy(IDataStrategy)</text>
								<text x="0.0" y="62.7" stroke="none" data-name="DataStrategy" data-compartment="2">+ static IDataStrategy GetStoredDataStrategy(ArgsCode?, IDataStrategy)</text>
								
							</g>
						</g>
					</g>
					<g data-name="IDataStrategy">
						<g fill="#DCE8CF" stroke="#33322E" data-name="IDataStrategy">
							<rect x="926.8" y="104.0" height="80.0" width="179.0" data-name="IDataStrategy"></rect>
							<path d="M926.8 136.0 L1105.8 136.0" fill="none" data-name="IDataStrategy"></path>
						</g>
						<g transform="translate(926.75, 104)" font-family="Helvetica" font-size="12pt" font-weight="bold" font-style="italic" data-name="IDataStrategy" data-compartment="0">
							<g transform="translate(8, 8)" fill="#33322E" text-align="center" data-name="IDataStrategy" data-compartment="0">
								<text x="81.5" y="14.1" stroke="none" text-anchor="middle" data-name="IDataStrategy" data-compartment="0">IDataStrategy</text>
								
							</g>
						</g>
						<g transform="translate(926.75, 136)" font-family="Helvetica" font-size="12pt" font-weight="normal" font-style="italic" data-name="IDataStrategy" data-compartment="1">
							<g transform="translate(8, 8)" fill="#33322E" text-align="left" data-name="IDataStrategy" data-compartment="1">
								<text x="0.0" y="14.1" stroke="none" data-name="IDataStrategy" data-compartment="1">ArgsCode ArgsCode</text>
								<text x="0.0" y="30.3" stroke="none" data-name="IDataStrategy" data-compartment="1">PropsCode PropsCode</text>
								
							</g>
						</g>
					</g>
					<g data-name="DynamicDataSource&lt;TDataHolder&gt;">
						<g fill="#C9DEEF" stroke="#33322E" data-name="DynamicDataSource&lt;TDataHolder&gt;">
							<rect x="0.0" y="224.0" height="96.0" width="328.0" data-name="DynamicDataSource&lt;TDataHolder&gt;"></rect>
							<path d="M0.0 256.0 L328.0 256.0" fill="none" data-name="DynamicDataSource&lt;TDataHolder&gt;"></path>
							<path d="M0.0 288.0 L328.0 288.0" fill="none" data-name="DynamicDataSource&lt;TDataHolder&gt;"></path>
						</g>
						<g transform="translate(0, 224)" font-family="Helvetica" font-size="12pt" font-weight="bold" font-style="italic" data-name="DynamicDataSource&lt;TDataHolder&gt;" data-compartment="0">
							<g transform="translate(8, 8)" fill="#33322E" text-align="center" data-name="DynamicDataSource&lt;TDataHolder&gt;" data-compartment="0">
								<text x="156.0" y="14.1" stroke="none" text-anchor="middle" data-name="DynamicDataSource&lt;TDataHolder&gt;" data-compartment="0">DynamicDataSource&lt;TDataHolder&gt;</text>
								
							</g>
						</g>
						<g transform="translate(0, 256)" font-family="Helvetica" font-size="12pt" font-weight="normal" font-style="normal" data-name="DynamicDataSource&lt;TDataHolder&gt;" data-compartment="1">
							<g transform="translate(8, 8)" fill="#33322E" text-align="left" data-name="DynamicDataSource&lt;TDataHolder&gt;" data-compartment="1">
								<text x="0.0" y="14.1" stroke="none" data-name="DynamicDataSource&lt;TDataHolder&gt;" data-compartment="1"># TDataRowHolde DataHolder</text>
								
							</g>
						</g>
						<g transform="translate(0, 288)" font-family="Helvetica" font-size="12pt" font-weight="normal" font-style="normal" data-name="DynamicDataSource&lt;TDataHolder&gt;" data-compartment="2">
							<g transform="translate(8, 8)" fill="#33322E" text-align="left" data-name="DynamicDataSource&lt;TDataHolder&gt;" data-compartment="2">
								<text x="0.0" y="14.1" stroke="none" data-name="DynamicDataSource&lt;TDataHolder&gt;" data-compartment="2"># abstract void Add&lt;TTestData&gt;(TTestData)</text>
								
							</g>
						</g>
					</g>
					<g data-name="DynamicDataRowSource&lt;TDataRowHolder, TRow&gt;">
						<g fill="#C9DEEF" stroke="#33322E" data-name="DynamicDataRowSource&lt;TDataRowHolder, TRow&gt;">
							<rect x="113.3" y="368.0" height="129.0" width="517.0" data-name="DynamicDataRowSource&lt;TDataRowHolder, TRow&gt;"></rect>
							<path d="M113.3 400.0 L630.3 400.0" fill="none" data-name="DynamicDataRowSource&lt;TDataRowHolder, TRow&gt;"></path>
							<path d="M113.3 465.0 L630.3 465.0" fill="none" data-name="DynamicDataRowSource&lt;TDataRowHolder, TRow&gt;"></path>
						</g>
						<g transform="translate(113.25, 368)" font-family="Helvetica" font-size="12pt" font-weight="bold" font-style="italic" data-name="DynamicDataRowSource&lt;TDataRowHolder, TRow&gt;" data-compartment="0">
							<g transform="translate(8, 8)" fill="#33322E" text-align="center" data-name="DynamicDataRowSource&lt;TDataRowHolder, TRow&gt;" data-compartment="0">
								<text x="250.5" y="14.1" stroke="none" text-anchor="middle" data-name="DynamicDataRowSource&lt;TDataRowHolder, TRow&gt;" data-compartment="0">DynamicDataRowSource&lt;TDataRowHolder, TRow&gt;</text>
								
							</g>
						</g>
						<g transform="translate(113.25, 400)" font-family="Helvetica" font-size="12pt" font-weight="normal" font-style="normal" data-name="DynamicDataRowSource&lt;TDataRowHolder, TRow&gt;" data-compartment="1">
							<g transform="translate(8, 8)" fill="#33322E" text-align="left" data-name="DynamicDataRowSource&lt;TDataRowHolder, TRow&gt;" data-compartment="1">
								<text x="0.0" y="14.1" stroke="none" data-name="DynamicDataRowSource&lt;TDataRowHolder, TRow&gt;" data-compartment="1"># void Add&lt;T1...T9&gt;(string, string, T1?...T9?)</text>
								<text x="0.0" y="30.3" stroke="none" data-name="DynamicDataRowSource&lt;TDataRowHolder, TRow&gt;" data-compartment="1"># void AddReturns&lt;TStruct, T1...T9&gt;(string, TStruct, T1?...T9?)</text>
								<text x="0.0" y="46.5" stroke="none" data-name="DynamicDataRowSource&lt;TDataRowHolder, TRow&gt;" data-compartment="1"># void AddThrows&lt;TException, T1...T9&gt;(string, TException, T1?...T9?)</text>
								
							</g>
						</g>
						<g transform="translate(113.25, 465)" font-family="Helvetica" font-size="12pt" font-weight="normal" font-style="normal" data-name="DynamicDataRowSource&lt;TDataRowHolder, TRow&gt;" data-compartment="2">
							<g transform="translate(8, 8)" fill="#33322E" text-align="left" data-name="DynamicDataRowSource&lt;TDataRowHolder, TRow&gt;" data-compartment="2">
								<text x="0.0" y="14.1" stroke="none" data-name="DynamicDataRowSource&lt;TDataRowHolder, TRow&gt;" data-compartment="2"># abstract void InitDataHolder&lt;TTestData&gt;(TTestData)</text>
								
							</g>
						</g>
					</g>
					<g data-name="INamedTestCase">
						<g fill="#DCE8CF" stroke="#33322E" data-name="INamedTestCase">
							<rect x="1061.0" y="1025.0" height="64.0" width="204.0" data-name="INamedTestCase"></rect>
							<path d="M1061.0 1057.0 L1265.0 1057.0" fill="none" data-name="INamedTestCase"></path>
						</g>
						<g transform="translate(1061, 1025)" font-family="Helvetica" font-size="12pt" font-weight="bold" font-style="italic" data-name="INamedTestCase" data-compartment="0">
							<g transform="translate(8, 8)" fill="#33322E" text-align="center" data-name="INamedTestCase" data-compartment="0">
								<text x="94.0" y="14.1" stroke="none" text-anchor="middle" data-name="INamedTestCase" data-compartment="0">INamedTestCase</text>
								
							</g>
						</g>
						<g transform="translate(1061, 1057)" font-family="Helvetica" font-size="12pt" font-weight="normal" font-style="italic" data-name="INamedTestCase" data-compartment="1">
							<g transform="translate(8, 8)" fill="#33322E" text-align="left" data-name="INamedTestCase" data-compartment="1">
								<text x="0.0" y="14.1" stroke="none" data-name="INamedTestCase" data-compartment="1">string GetTestCaseName()</text>
								
							</g>
						</g>
					</g>
					<g data-name="IReadonlyCollection&lt;ITestDataRow&gt;">
						<g fill="#DCE8CF" stroke="#33322E" data-name="IReadonlyCollection&lt;ITestDataRow&gt;">
							<rect x="1150.8" y="753.0" height="112.0" width="344.0" data-name="IReadonlyCollection&lt;ITestDataRow&gt;"></rect>
							<path d="M1150.8 785.0 L1494.8 785.0" fill="none" data-name="IReadonlyCollection&lt;ITestDataRow&gt;"></path>
							<path d="M1150.8 817.0 L1494.8 817.0" fill="none" data-name="IReadonlyCollection&lt;ITestDataRow&gt;"></path>
						</g>
						<g transform="translate(1150.75, 753)" font-family="Helvetica" font-size="12pt" font-weight="bold" font-style="italic" data-name="IReadonlyCollection&lt;ITestDataRow&gt;" data-compartment="0">
							<g transform="translate(8, 8)" fill="#33322E" text-align="center" data-name="IReadonlyCollection&lt;ITestDataRow&gt;" data-compartment="0">
								<text x="164.0" y="14.1" stroke="none" text-anchor="middle" data-name="IReadonlyCollection&lt;ITestDataRow&gt;" data-compartment="0">IReadonlyCollection&lt;ITestDataRow&gt;</text>
								
							</g>
						</g>
						<g transform="translate(1150.75, 785)" font-family="Helvetica" font-size="12pt" font-weight="normal" font-style="italic" data-name="IReadonlyCollection&lt;ITestDataRow&gt;" data-compartment="1">
							<g transform="translate(8, 8)" fill="#33322E" text-align="left" data-name="IReadonlyCollection&lt;ITestDataRow&gt;" data-compartment="1">
								<text x="0.0" y="14.1" stroke="none" data-name="IReadonlyCollection&lt;ITestDataRow&gt;" data-compartment="1">int Count</text>
								
							</g>
						</g>
						<g transform="translate(1150.75, 817)" font-family="Helvetica" font-size="12pt" font-weight="normal" font-style="italic" data-name="IReadonlyCollection&lt;ITestDataRow&gt;" data-compartment="2">
							<g transform="translate(8, 8)" fill="#33322E" text-align="left" data-name="IReadonlyCollection&lt;ITestDataRow&gt;" data-compartment="2">
								<text x="0.0" y="14.1" stroke="none" data-name="IReadonlyCollection&lt;ITestDataRow&gt;" data-compartment="2">IEnumerator&lt;ITestDataRow&gt; GetEnumerator()</text>
								<text x="0.0" y="30.3" stroke="none" data-name="IReadonlyCollection&lt;ITestDataRow&gt;" data-compartment="2">IEnumerator GetEnumerator()</text>
								
							</g>
						</g>
					</g>
					<g data-name="IAddTestData&lt;TTestData&gt;">
						<g fill="#DCE8CF" stroke="#33322E" data-name="IAddTestData&lt;TTestData&gt;">
							<rect x="792.5" y="1153.0" height="64.0" width="211.0" data-name="IAddTestData&lt;TTestData&gt;"></rect>
							<path d="M792.5 1185.0 L1003.5 1185.0" fill="none" data-name="IAddTestData&lt;TTestData&gt;"></path>
						</g>
						<g transform="translate(792.5, 1153)" font-family="Helvetica" font-size="12pt" font-weight="bold" font-style="italic" data-name="IAddTestData&lt;TTestData&gt;" data-compartment="0">
							<g transform="translate(8, 8)" fill="#33322E" text-align="center" data-name="IAddTestData&lt;TTestData&gt;" data-compartment="0">
								<text x="97.5" y="14.1" stroke="none" text-anchor="middle" data-name="IAddTestData&lt;TTestData&gt;" data-compartment="0">IAddTestData&lt;TTestData&gt;</text>
								
							</g>
						</g>
						<g transform="translate(792.5, 1185)" font-family="Helvetica" font-size="12pt" font-weight="normal" font-style="italic" data-name="IAddTestData&lt;TTestData&gt;" data-compartment="1">
							<g transform="translate(8, 8)" fill="#33322E" text-align="left" data-name="IAddTestData&lt;TTestData&gt;" data-compartment="1">
								<text x="0.0" y="14.1" stroke="none" data-name="IAddTestData&lt;TTestData&gt;" data-compartment="1">void Add(TTestData)</text>
								
							</g>
						</g>
					</g>
					<g data-name="IDataRowHolder">
						<g fill="#DCE8CF" stroke="#33322E" data-name="IDataRowHolder">
							<rect x="670.3" y="400.5" height="64.0" width="210.0" data-name="IDataRowHolder"></rect>
							<path d="M670.3 432.5 L880.3 432.5" fill="none" data-name="IDataRowHolder"></path>
						</g>
						<g transform="translate(670.25, 400.5)" font-family="Helvetica" font-size="12pt" font-weight="bold" font-style="italic" data-name="IDataRowHolder" data-compartment="0">
							<g transform="translate(8, 8)" fill="#33322E" text-align="center" data-name="IDataRowHolder" data-compartment="0">
								<text x="97.0" y="14.1" stroke="none" text-anchor="middle" data-name="IDataRowHolder" data-compartment="0">IDataRowHolder</text>
								
							</g>
						</g>
						<g transform="translate(670.25, 432.5)" font-family="Helvetica" font-size="12pt" font-weight="normal" font-style="italic" data-name="IDataRowHolder" data-compartment="1">
							<g transform="translate(8, 8)" fill="#33322E" text-align="left" data-name="IDataRowHolder" data-compartment="1">
								<text x="0.0" y="14.1" stroke="none" data-name="IDataRowHolder" data-compartment="1">IDataStrategy DataStrategy</text>
								
							</g>
						</g>
					</g>
					<g data-name="IDataRowHolder&lt;TRow&gt;">
						<g fill="#DCE8CF" stroke="#33322E" data-name="IDataRowHolder&lt;TRow&gt;">
							<rect x="513.5" y="545.0" height="64.0" width="442.0" data-name="IDataRowHolder&lt;TRow&gt;"></rect>
							<path d="M513.5 577.0 L955.5 577.0" fill="none" data-name="IDataRowHolder&lt;TRow&gt;"></path>
						</g>
						<g transform="translate(513.5, 545)" font-family="Helvetica" font-size="12pt" font-weight="bold" font-style="italic" data-name="IDataRowHolder&lt;TRow&gt;" data-compartment="0">
							<g transform="translate(8, 8)" fill="#33322E" text-align="center" data-name="IDataRowHolder&lt;TRow&gt;" data-compartment="0">
								<text x="213.0" y="14.1" stroke="none" text-anchor="middle" data-name="IDataRowHolder&lt;TRow&gt;" data-compartment="0">IDataRowHolder&lt;TRow&gt;</text>
								
							</g>
						</g>
						<g transform="translate(513.5, 577)" font-family="Helvetica" font-size="12pt" font-weight="normal" font-style="italic" data-name="IDataRowHolder&lt;TRow&gt;" data-compartment="1">
							<g transform="translate(8, 8)" fill="#33322E" text-align="left" data-name="IDataRowHolder&lt;TRow&gt;" data-compartment="1">
								<text x="0.0" y="14.1" stroke="none" data-name="IDataRowHolder&lt;TRow&gt;" data-compartment="1">IDataRowHolder&lt;TRow&gt; GetDataRowHolder(IDataStrategy)</text>
								
							</g>
						</g>
					</g>
					<g data-name="IDataRowHolder&lt;TRow, TTestData&gt;">
						<g fill="#DCE8CF" stroke="#33322E" data-name="IDataRowHolder&lt;TRow, TTestData&gt;">
							<rect x="780.3" y="649.0" height="64.0" width="327.0" data-name="IDataRowHolder&lt;TRow, TTestData&gt;"></rect>
							<path d="M780.3 681.0 L1107.3 681.0" fill="none" data-name="IDataRowHolder&lt;TRow, TTestData&gt;"></path>
						</g>
						<g transform="translate(780.25, 649)" font-family="Helvetica" font-size="12pt" font-weight="bold" font-style="italic" data-name="IDataRowHolder&lt;TRow, TTestData&gt;" data-compartment="0">
							<g transform="translate(8, 8)" fill="#33322E" text-align="center" data-name="IDataRowHolder&lt;TRow, TTestData&gt;" data-compartment="0">
								<text x="155.5" y="14.1" stroke="none" text-anchor="middle" data-name="IDataRowHolder&lt;TRow, TTestData&gt;" data-compartment="0">IDataRowHolder&lt;TRow, TTestData&gt;</text>
								
							</g>
						</g>
						<g transform="translate(780.25, 681)" font-family="Helvetica" font-size="12pt" font-weight="normal" font-style="italic" data-name="IDataRowHolder&lt;TRow, TTestData&gt;" data-compartment="1">
							<g transform="translate(8, 8)" fill="#33322E" text-align="left" data-name="IDataRowHolder&lt;TRow, TTestData&gt;" data-compartment="1">
								<text x="0.0" y="14.1" stroke="none" data-name="IDataRowHolder&lt;TRow, TTestData&gt;" data-compartment="1">void Add(ITestDataRow&lt;TRow, TTestData&gt;)</text>
								
							</g>
						</g>
					</g>
					<g data-name="DataRowHolder&lt;TRow, TTestData&gt;">
						<g fill="#C9DEEF" stroke="#33322E" data-name="DataRowHolder&lt;TRow, TTestData&gt;">
							<rect x="1012.5" y="545.0" height="64.0" width="476.0" data-name="DataRowHolder&lt;TRow, TTestData&gt;"></rect>
							<path d="M1012.5 577.0 L1488.5 577.0" fill="none" data-name="DataRowHolder&lt;TRow, TTestData&gt;"></path>
						</g>
						<g transform="translate(1012.5, 545)" font-family="Helvetica" font-size="12pt" font-weight="bold" font-style="italic" data-name="DataRowHolder&lt;TRow, TTestData&gt;" data-compartment="0">
							<g transform="translate(8, 8)" fill="#33322E" text-align="center" data-name="DataRowHolder&lt;TRow, TTestData&gt;" data-compartment="0">
								<text x="230.0" y="14.1" stroke="none" text-anchor="middle" data-name="DataRowHolder&lt;TRow, TTestData&gt;" data-compartment="0">DataRowHolder&lt;TRow, TTestData&gt;</text>
								
							</g>
						</g>
						<g transform="translate(1012.5, 577)" font-family="Helvetica" font-size="12pt" font-weight="normal" font-style="normal" data-name="DataRowHolder&lt;TRow, TTestData&gt;" data-compartment="1">
							<g transform="translate(8, 8)" fill="#33322E" text-align="left" data-name="DataRowHolder&lt;TRow, TTestData&gt;" data-compartment="1">
								<text x="0.0" y="14.1" stroke="none" data-name="DataRowHolder&lt;TRow, TTestData&gt;" data-compartment="1">- readonly List&lt;ITestDataRow&lt;TRow, TTestData&gt;&gt; testDataRows</text>
								
							</g>
						</g>
					</g>
					<g data-name="IEquatable&lt;INamedTestCase&gt;">
						<g fill="#DCE8CF" stroke="#33322E" data-name="IEquatable&lt;INamedTestCase&gt;">
							<rect x="1022.5" y="913.0" height="64.0" width="241.0" data-name="IEquatable&lt;INamedTestCase&gt;"></rect>
							<path d="M1022.5 945.0 L1263.5 945.0" fill="none" data-name="IEquatable&lt;INamedTestCase&gt;"></path>
						</g>
						<g transform="translate(1022.5, 913)" font-family="Helvetica" font-size="12pt" font-weight="bold" font-style="italic" data-name="IEquatable&lt;INamedTestCase&gt;" data-compartment="0">
							<g transform="translate(8, 8)" fill="#33322E" text-align="center" data-name="IEquatable&lt;INamedTestCase&gt;" data-compartment="0">
								<text x="112.5" y="14.1" stroke="none" text-anchor="middle" data-name="IEquatable&lt;INamedTestCase&gt;" data-compartment="0">IEquatable&lt;INamedTestCase&gt;</text>
								
							</g>
						</g>
						<g transform="translate(1022.5, 945)" font-family="Helvetica" font-size="12pt" font-weight="normal" font-style="italic" data-name="IEquatable&lt;INamedTestCase&gt;" data-compartment="1">
							<g transform="translate(8, 8)" fill="#33322E" text-align="left" data-name="IEquatable&lt;INamedTestCase&gt;" data-compartment="1">
								<text x="0.0" y="14.1" stroke="none" data-name="IEquatable&lt;INamedTestCase&gt;" data-compartment="1">bool Equals(INamedTestCase?)</text>
								
							</g>
						</g>
					</g>
					<g data-name="ITestDataRow&lt;TRow&gt;">
						<g fill="#DCE8CF" stroke="#33322E" data-name="ITestDataRow&lt;TRow&gt;">
							<rect x="1744.0" y="1025.0" height="64.0" width="225.0" data-name="ITestDataRow&lt;TRow&gt;"></rect>
							<path d="M1744.0 1057.0 L1969.0 1057.0" fill="none" data-name="ITestDataRow&lt;TRow&gt;"></path>
						</g>
						<g transform="translate(1744, 1025)" font-family="Helvetica" font-size="12pt" font-weight="bold" font-style="italic" data-name="ITestDataRow&lt;TRow&gt;" data-compartment="0">
							<g transform="translate(8, 8)" fill="#33322E" text-align="center" data-name="ITestDataRow&lt;TRow&gt;" data-compartment="0">
								<text x="104.5" y="14.1" stroke="none" text-anchor="middle" data-name="ITestDataRow&lt;TRow&gt;" data-compartment="0">ITestDataRow&lt;TRow&gt;</text>
								
							</g>
						</g>
						<g transform="translate(1744, 1057)" font-family="Helvetica" font-size="12pt" font-weight="normal" font-style="italic" data-name="ITestDataRow&lt;TRow&gt;" data-compartment="1">
							<g transform="translate(8, 8)" fill="#33322E" text-align="left" data-name="ITestDataRow&lt;TRow&gt;" data-compartment="1">
								<text x="0.0" y="14.1" stroke="none" data-name="ITestDataRow&lt;TRow&gt;" data-compartment="1">TRow Convert(IDataStrategy)</text>
								
							</g>
						</g>
					</g>
					<g data-name="TTestData">
						<g fill="#C9DEEF" stroke="#33322E" data-name="TTestData">
							<rect x="407.0" y="1281.0" height="48.0" width="216.0" data-name="TTestData"></rect>
						</g>
						<g transform="translate(407, 1281)" font-family="Helvetica" font-size="12pt" font-weight="bold" font-style="normal" data-name="TTestData" data-compartment="0">
							<g transform="translate(8, 8)" fill="#33322E" text-align="center" data-name="TTestData" data-compartment="0">
								<text x="100.0" y="14.1" stroke="none" text-anchor="middle" data-name="TTestData" data-compartment="0">TTestData</text>
								<text x="100.0" y="30.3" stroke="none" text-anchor="middle" data-name="TTestData" data-compartment="0">(concrete generic records)</text>
								
							</g>
						</g>
					</g>
					<g data-name="ITestDataRow">
						<g fill="#DCE8CF" stroke="#33322E" data-name="ITestDataRow">
							<rect x="1342.5" y="905.0" height="80.0" width="295.0" data-name="ITestDataRow"></rect>
							<path d="M1342.5 937.0 L1637.5 937.0" fill="none" data-name="ITestDataRow"></path>
						</g>
						<g transform="translate(1342.5, 905)" font-family="Helvetica" font-size="12pt" font-weight="bold" font-style="italic" data-name="ITestDataRow" data-compartment="0">
							<g transform="translate(8, 8)" fill="#33322E" text-align="center" data-name="ITestDataRow" data-compartment="0">
								<text x="139.5" y="14.1" stroke="none" text-anchor="middle" data-name="ITestDataRow" data-compartment="0">ITestDataRow</text>
								
							</g>
						</g>
						<g transform="translate(1342.5, 937)" font-family="Helvetica" font-size="12pt" font-weight="normal" font-style="italic" data-name="ITestDataRow" data-compartment="1">
							<g transform="translate(8, 8)" fill="#33322E" text-align="left" data-name="ITestDataRow" data-compartment="1">
								<text x="0.0" y="14.1" stroke="none" data-name="ITestDataRow" data-compartment="1">object?array GetParams(IDataStrategy)</text>
								<text x="0.0" y="30.3" stroke="none" data-name="ITestDataRow" data-compartment="1">ITestData GetTestData()</text>
								
							</g>
						</g>
					</g>
				</g>
			</g>
		</g>
	</g>
</svg>