<svg version="1.1" baseProfile="full" width="3405.0" height="740.0" viewBox="0 0 3405 740" xmlns="http://www.w3.org/2000/svg" xmlns:xlink="http://www.w3.org/1999/xlink" xmlns:ev="http://www.w3.org/2001/xml-events">
	<title >CsabaDu_DynamicTestData_Associations_simplified_horizontal</title>
	<desc >
	
	#title: CsabaDu_DynamicTestData_Associations_simplified_horizontal
	#direction: right
	#.contract: fill=#DCE8CF title=center,italic,bold body=left,italic visual=class
	#.concrete: fill=#C9DEEF title=center,bold body=left visual=class
	#.abstract: fill=#C9DEEF title=center,bold,italic body=left visual=class
	
	
	[&lt;concrete&gt;
	DataStrategy]
	
	[&lt;contract&gt;
	IEquatable&lt;INamedTestCase&gt;]
	
	
	[&lt;contract&gt;
	IEquatable&lt;IDataStrategy&gt;]
	
	[&lt;contract&gt;
	IDataStrategy]
	
	[&lt;abstract&gt;
	DynamicDataSource]
	
	[&lt;abstract&gt;
	DynamicDataSource&lt;TDataHolder&gt;]
	
	[&lt;abstract&gt;
	DynamicDataRowSource&lt;TDataRowHolder, TRow&gt;]
	
	[&lt;abstract&gt;
	DynamicDataSource]
	
	[&lt;contract&gt;
	IDataRowHolder&lt;TRow&gt;]
	
	[&lt;contract&gt;
	IAddTestData&lt;TTestData&gt;]
	
	[&lt;contract&gt;
	IDataRowHolder&lt;TRow, TTestData&gt;]
	
	[&lt;contract&gt;
	IDataRowHolder]
	
	[&lt;contract&gt;
	ITestDataRows]
	
	[&lt;contract&gt;
	ITestDataRow]
	
	[&lt;contract&gt;
	ITestDataRow&lt;TRow&gt;]
	
	[&lt;abstract&gt;
	DataRowHolder&lt;TRow&gt;]
	
	[&lt;abstract&gt;
	DataRowHolder&lt;TRow, TTestData&gt;]
	
	[&lt;contract&gt;
	IRows&lt;TRow&gt;]
	
	[&lt;contract&gt;
	ITestDataRowFactory&lt;TRow, TTestData&gt;]
	
	[&lt;contract&gt;
	ITestDataRow&lt;TRow, TTestData&gt;]
	
	[&lt;abstract&gt;
	TestDataRow&lt;TRow&gt;]
	
	[&lt;abstract&gt;
	TestDataRow&lt;TRow, TTestData&gt;]
	
	[&lt;contract&gt;
	INamedTestCase]
	
	[&lt;contract&gt;
	ITestData]
	
	[&lt;concrete&gt;
	TTestData
	(concrete generic records)]
	
	[&lt;contract&gt;
	ITestDataRow&lt;TRow&gt;]
	
	[&lt;contract&gt;
	IReadonlyCollection&lt;ITestDataRow&gt;]
	
	
	
	[IRows&lt;TRow&gt;] &lt;:- extends
	[IDataRowHolder&lt;TRow&gt;]
	[IRows&lt;TRow&gt;]
	
	[IDataStrategy] &lt;-- implements
	[DataStrategy] uses (as DataStrategy cache) &lt;-o
	[DataRowHolder&lt;TRow&gt;]
	
	[DynamicDataRowSource&lt;TDataRowHolder, TRow&gt;] has
	(generic constraint) +-&gt;
	[IDataRowHolder]
	
	
	[IDataStrategy] &lt;-+ has
	[IDataRowHolder]
	[IEquatable&lt;IDataStrategy&gt;] &lt;:- extends
	[IDataStrategy] &lt;:-- implements
	[DynamicDataSource] &lt;:- extends
	[DynamicDataSource&lt;TDataHolder&gt;] &lt;:- extends
	[DynamicDataRowSource&lt;TDataRowHolder, TRow&gt;] o-&gt; uses
	[TTestData]
	
	
	
	
	[IDataRowHolder] extends &lt;:-
	[IDataRowHolder&lt;TRow&gt;]
	
	
	
	[IDataRowHolder&lt;TRow&gt;] &lt;:-- implements
	[DataRowHolder&lt;TRow&gt;] extends &lt;:-
	[DataRowHolder&lt;TRow, TTestData&gt;]
	
	[IDataRowHolder&lt;TRow&gt;] &lt;:- extends
	[IDataRowHolder&lt;TRow, TTestData&gt;] &lt;:-- implements
	[DataRowHolder&lt;TRow, TTestData&gt;]
	
	[ITestDataRows] &lt;:- extends
	[IDataRowHolder]
	
	
	
	
	[IDataRowHolder&lt;TRow, TTestData&gt;] -:&gt; extends
	[IReadonlyCollection&lt;ITestDataRow&gt;]
	[IDataRowHolder&lt;TRow, TTestData&gt;]
	
	
	
	[IDataRowHolder&lt;TRow, TTestData&gt;] extends &lt;:-
	[ITestDataRowFactory&lt;TRow, TTestData&gt;]
	
	[DynamicDataSource&lt;TDataHolder&gt;] uses o-&gt;
	[TTestData]
	
	[IDataRowHolder&lt;TRow, TTestData&gt;] o-&gt; uses
	[TTestData]
	
	
	[IDataStrategy] &lt;-o returns
	[ITestDataRows]
	
	[ITestDataRows] o-&gt; returns
	[ITestDataRow]
	
	
	
	
	[INamedTestCase] extends -:&gt;
	[IEquatable&lt;INamedTestCase&gt;]
	
	
	[ITestDataRow] -:&gt; extends
	[INamedTestCase] &lt;:- extends
	[ITestData]
	
	[ITestData] implements &lt;:--
	[TTestData]
	
	
	
	
	[ITestDataRow] &lt;:- extends
	[ITestDataRow&lt;TRow&gt;] extends &lt;:-
	[ITestDataRow&lt;TRow, TTestData&gt;]
	
	
	[ITestDataRowFactory&lt;TRow, TTestData&gt;] returns o-&gt;
	[ITestDataRow&lt;TRow, TTestData&gt;]
	[ITestDataRowFactory&lt;TRow, TTestData&gt;]
	
	
	[IDataStrategy] &lt;-o uses
	[ITestDataRow]
	
	[TestDataRow&lt;TRow&gt;]
	[ITestDataRow&lt;TRow&gt;] &lt;:-- implements
	[TestDataRow&lt;TRow&gt;]
	
	
	[IAddTestData&lt;TTestData&gt;]
	[IDataRowHolder&lt;TRow, TTestData&gt;] -:&gt; extends
	[IAddTestData&lt;TTestData&gt;]
	
	
	[IAddTestData&lt;TTestData&gt;] uses o-&gt;
	[TTestData]
	
	[TestDataRow&lt;TRow, TTestData&gt;] implements --:&gt;
	[ITestDataRow&lt;TRow, TTestData&gt;]
	[TestDataRow&lt;TRow, TTestData&gt;]
	
	[TestDataRow&lt;TRow&gt;] &lt;:- extends
	[TestDataRow&lt;TRow, TTestData&gt;]
	
	[TTestData] &lt;-o uses
	[ITestDataRowFactory&lt;TRow, TTestData&gt;]
	
	[TTestData] has &lt;-+
	[ITestDataRow&lt;TRow, TTestData&gt;]
	[TTestData]
	
	
	[DataRowHolder&lt;TRow, TTestData&gt;] has +-&gt;
	[ITestDataRow&lt;TRow, TTestData&gt;]
	
	
	</desc>
	<g stroke-width="1.0" text-align="left" font="12pt Helvetica, Arial, sans-serif" font-size="12pt" font-family="Helvetica" font-weight="bold" font-style="normal">
		<g font-family="Helvetica" font-size="12pt" font-weight="bold" font-style="normal" stroke-width="3.0" stroke-linejoin="round" stroke-linecap="round" stroke="#33322E">
			<g stroke="transparent" fill="transparent">
				<rect x="0.0" y="0.0" height="740.0" width="3405.0" stroke="none"></rect>
			</g>
			<g transform="translate(8, 12)" fill="#33322E">
				<g transform="translate(20, 20)" fill="#33322E" font-family="Helvetica" font-size="12pt" font-weight="normal" font-style="normal">
					<text x="1652.1" y="132.0" stroke="none">extends</text>
					<path d="M1535.3 80.0 L1549 80 L1644.1315789473683 140 L1644.1 140.0 " fill="none"></path>
					<path d="M1535.3 74.7 L1535.3 80.0 L1535.3 85.3 L1522.0 80.0 Z"></path>
					<text x="1516.4" y="8.0" stroke="none">implements</text>
					<g stroke-dasharray="6 6">
						<path d="M321.4 325.5 L395 16 L500 16 L500 16 L605 16 L605 16 L766.5 16 L766.5 16 L928 16 L928 16 L1149 16 L1149 16 L1370 16 L1370 16 L1459.5 16 L1459.5 16 L1549 16 L1549 16 L1612.5 16 L1612.5 16.0 " fill="none"></path>
					</g>
					<path d="M317.7 317.8 L321.4 325.5 L328.1 320.3 L319.8 332.0 Z"></path>
					<text x="1734.5" y="8.0" stroke="none">uses (as DataStrategy cache)</text>
					<path d="M1733.2 16.0 L1790 16 L1835.35605254658 18.23980506402864 L1835.4 18.2 " fill="none"></path>
					<g fill="#eee8d5">
						<path d="M1844.4 24.0 L1835.4 18.2 L1844.9 13.4 L1854.0 19.2 Z"></path>
					</g>
					<path d="M1739.8 10.7 L1733.2 16.0 L1739.8 21.3 L1726.5 16.0 Z"></path>
					<text x="1071.7" y="312.0" stroke="none">has
					(generic constraint)</text>
					<path d="M1278.0 317.3 L1370 304 L1401.9945757999542 293.9905237720814 L1402.0 294.0 " fill="none"></path>
					<path d="M1397.2 301.1 L1402.0 294.0 L1394.0 290.9 L1408.4 292.0 Z"></path>
					<g fill="#33322E">
						<path d="M1268.0 313.4 L1278.0 317.3 L1269.5 323.9 L1259.5 320.0 Z"></path>
					</g>
					<text x="1456.7" y="252.0" stroke="none">has</text>
					<path d="M324.6 325.8 L395 144 L500 144 L500 144 L605 144 L605 144 L766.5 144 L766.5 144 L928 144 L928 144 L1149 144 L1149 144 L1370 144 L1370 144 L1438.1758805924912 244.54990210289188 L1438.2 244.5 " fill="none"></path>
					<g fill="#33322E">
						<path d="M1439.0 255.3 L1438.2 244.5 L1447.8 249.3 L1448.7 260.0 Z"></path>
					</g>
					<path d="M322.0 317.6 L324.6 325.8 L332.0 321.5 L322.2 332.0 Z"></path>
					<text x="189.1" y="340.0" stroke="none">extends</text>
					<path d="M230.3 348.0 L237 348 L257 348 L257.0 348.0 " fill="none"></path>
					<path d="M230.3 342.7 L230.3 348.0 L230.3 353.3 L217.0 348.0 Z"></path>
					<text x="318.9" y="384.0" stroke="none">implements</text>
					<g stroke-dasharray="6 6">
						<path d="M388.1 362.6 L395 364 L415 364 L415.0 364.0 " fill="none"></path>
					</g>
					<path d="M389.1 357.4 L388.1 362.6 L387.0 367.8 L375.0 359.9 Z"></path>
					<text x="557.1" y="356.0" stroke="none">extends</text>
					<path d="M598.3 364.0 L605 364 L625 364 L625.0 364.0 " fill="none"></path>
					<path d="M598.3 358.7 L598.3 364.0 L598.3 369.3 L585.0 364.0 Z"></path>
					<text x="880.1" y="328.0" stroke="none">extends</text>
					<path d="M871.9 345.7 L928 336 L948 336 L948.0 336.0 " fill="none"></path>
					<path d="M871.0 340.5 L871.9 345.7 L872.8 351.0 L858.8 348.0 Z"></path>
					<text x="2473.0" y="357.9" stroke="none">uses</text>
					<path d="M1293.8 354.3 L1370 364 L1459.5 364 L1459.5 364 L1549 364 L1549 364 L1669.5 364 L1669.5 364 L1790 364 L1790 364 L1952 364 L1952 364 L2114 364 L2114 364 L2279.5 364 L2279.5 364 L2445 364 L2445 364 L2458.362438492938 365.25272860871297 L2458.4 365.3 " fill="none"></path>
					<path d="M2451.2 369.9 L2458.4 365.3 L2452.2 359.3 L2465.0 365.9 Z"></path>
					<g fill="#eee8d5">
						<path d="M1285.2 347.9 L1293.8 354.3 L1283.9 358.5 L1275.3 352.0 Z"></path>
					</g>
					<text x="1537.0" y="296.0" stroke="none">extends</text>
					<path d="M1542.3 276.0 L1549 276 L1653.4333333333334 172 L1653.4 172.0 " fill="none"></path>
					<path d="M1542.3 270.7 L1542.3 276.0 L1542.3 281.3 L1529.0 276.0 Z"></path>
					<text x="1906.0" y="60.0" stroke="none">implements</text>
					<g stroke-dasharray="6 6">
						<path d="M1703.4 132.4 L1790 72 L1898 40 L1898.0 40.0 " fill="none"></path>
					</g>
					<path d="M1700.3 128.0 L1703.4 132.4 L1706.4 136.8 L1692.5 140.0 Z"></path>
					<text x="2058.0" y="16.0" stroke="none">extends</text>
					<path d="M2063.3 24.0 L2114 24 L2147.1 28 L2147.1 28.0 " fill="none"></path>
					<path d="M2063.3 18.7 L2063.3 24.0 L2063.3 29.3 L2050.0 24.0 Z"></path>
					<text x="1742.1" y="196.0" stroke="none">extends</text>
					<path d="M1779.1 174.2 L1790 176 L1810 176 L1810.0 176.0 " fill="none"></path>
					<path d="M1779.9 168.9 L1779.1 174.2 L1778.2 179.4 L1765.9 172.0 Z"></path>
					<text x="2221.3" y="80.0" stroke="none">implements</text>
					<g stroke-dasharray="6 6">
						<path d="M1991.8 153.4 L2114 84 L2213.3 60 L2213.3 60.0 " fill="none"></path>
					</g>
					<path d="M1989.1 148.8 L1991.8 153.4 L1994.4 158.1 L1980.2 160.0 Z"></path>
					<text x="1459.7" y="312.0" stroke="none">extends</text>
					<path d="M1226.8 473.0 L1370 460 L1451.7173913043478 292 L1451.7 292.0 " fill="none"></path>
					<path d="M1226.3 467.6 L1226.8 473.0 L1227.3 478.3 L1213.5 474.2 Z"></path>
					<text x="2066.1" y="148.0" stroke="none">extends</text>
					<path d="M2081.6 160.0 L2114 156 L2120.6666666666665 156 L2120.7 156.0 " fill="none"></path>
					<path d="M2120.7 161.3 L2120.7 156.0 L2120.7 150.7 L2134.0 156.0 Z"></path>
					<text x="1956.1" y="212.0" stroke="none">extends</text>
					<path d="M2037.0 194.9 L2114 212 L2279.5 212 L2279.5 212 L2445 212 L2445 212 L2573 212 L2573 212 L2701 212 L2701 212 L2737.3 216 L2737.3 216.0 " fill="none"></path>
					<path d="M2038.2 189.7 L2037.0 194.9 L2035.9 200.1 L2024.0 192.0 Z"></path>
					<text x="776.2" y="400.0" stroke="none">uses</text>
					<path d="M838.2 385.3 L928 412 L1149 412 L1149 412 L1370 412 L1370 412 L1459.5 412 L1459.5 412 L1549 412 L1549 412 L1669.5 412 L1669.5 412 L1790 412 L1790 412 L1952 412 L1952 412 L2114 412 L2114 412 L2279.5 412 L2279.5 412 L2445 412 L2445 412 L2481.248993732307 401.80497051278854 L2481.2 401.8 " fill="none"></path>
					<path d="M2476.3 408.7 L2481.2 401.8 L2473.4 398.5 L2487.7 400.0 Z"></path>
					<g fill="#eee8d5">
						<path d="M830.8 377.5 L838.2 385.3 L827.8 387.8 L820.3 380.0 Z"></path>
					</g>
					<text x="2556.2" y="344.0" stroke="none">uses</text>
					<path d="M2003.0 199.9 L2114 252 L2279.5 252 L2279.5 252 L2445 252 L2445 252 L2543.437538299685 347.36136522781993 L2543.4 347.4 " fill="none"></path>
					<path d="M2534.9 346.6 L2543.4 347.4 L2542.4 338.9 L2548.2 352.0 Z"></path>
					<g fill="#eee8d5">
						<path d="M1996.8 191.1 L2003.0 199.9 L1992.3 200.8 L1986.1 192.0 Z"></path>
					</g>
					<text x="1021.8" y="500.0" stroke="none">returns</text>
					<path d="M329.0 369.7 L395 480 L500 480 L500 480 L605 480 L605 480 L766.5 480 L766.5 480 L928 480 L928 480 L1065.8333333333333 480 L1065.8 480.0 " fill="none"></path>
					<g fill="#eee8d5">
						<path d="M1075.2 485.3 L1065.8 480.0 L1075.2 474.7 L1084.5 480.0 Z"></path>
					</g>
					<path d="M337.0 372.7 L329.0 369.7 L327.8 378.2 L325.6 364.0 Z"></path>
					<text x="1654.5" y="560.0" stroke="none">returns</text>
					<path d="M1232.1 487.5 L1370 500 L1459.5 500 L1459.5 500 L1549 500 L1549 500 L1641.0786205373663 564.1875861007367 L1641.1 564.2 " fill="none"></path>
					<path d="M1632.6 564.8 L1641.1 564.2 L1638.7 556.0 L1646.5 568.0 Z"></path>
					<g fill="#eee8d5">
						<path d="M1223.3 481.4 L1232.1 487.5 L1222.3 492.0 L1213.5 485.8 Z"></path>
					</g>
					<text x="1938.1" y="500.0" stroke="none">extends</text>
					<path d="M2006.0 508.0 L2114 476 L2145.6666666666665 476 L2145.7 476.0 " fill="none"></path>
					<path d="M2145.7 481.3 L2145.7 476.0 L2145.7 470.7 L2159.0 476.0 Z"></path>
					<text x="1812.6" y="516.0" stroke="none">extends</text>
					<path d="M1701.6 568.0 L1790 524 L1867.1666666666667 524 L1867.2 524.0 " fill="none"></path>
					<path d="M1867.2 529.3 L1867.2 524.0 L1867.2 518.7 L1880.5 524.0 Z"></path>
					<text x="2168.6" y="568.0" stroke="none">extends</text>
					<path d="M2036.7 536.5 L2114 548 L2236.5 548 L2236.5 548.0 " fill="none"></path>
					<path d="M2037.5 531.3 L2036.7 536.5 L2035.9 541.8 L2023.5 534.6 Z"></path>
					<text x="2330.5" y="568.0" stroke="none">implements</text>
					<g stroke-dasharray="6 6">
						<path d="M2335.8 548.0 L2445 548 L2555.139534883721 400 L2555.1 400.0 " fill="none"></path>
					</g>
					<path d="M2335.8 542.7 L2335.8 548.0 L2335.8 553.3 L2322.5 548.0 Z"></path>
					<text x="2120.6" y="676.0" stroke="none">extends</text>
					<path d="M1707.7 606.8 L1790 656 L1952 656 L1952 656 L2114 656 L2114 656 L2188.5 656 L2188.5 656.0 " fill="none"></path>
					<path d="M1710.5 602.3 L1707.7 606.8 L1705.0 611.4 L1696.3 600.0 Z"></path>
					<text x="2262.5" y="632.0" stroke="none">extends</text>
					<path d="M2343.1 636.0 L2445 604 L2573 604 L2573 604 L2701 604 L2701 604 L2882.5 604 L2882.5 604 L3064 604 L3064 604 L3193.9074074074074 512 L3193.9 512.0 " fill="none"></path>
					<path d="M2341.5 630.9 L2343.1 636.0 L2344.7 641.1 L2330.4 640.0 Z"></path>
					<text x="3052.0" y="224.0" stroke="none">returns</text>
					<path d="M3062.7 232.0 L3064 232 L3203.9229382461845 474.227250472083 L3203.9 474.2 " fill="none"></path>
					<path d="M3196.0 471.1 L3203.9 474.2 L3205.2 465.8 L3207.3 480.0 Z"></path>
					<g fill="#eee8d5">
						<path d="M3053.3 226.7 L3062.7 232.0 L3053.3 237.3 L3044.0 232.0 Z"></path>
					</g>
					<text x="1617.5" y="614.0" stroke="none">uses</text>
					<path d="M322.9 370.4 L395 604 L500 604 L500 604 L605 604 L605 604 L766.5 604 L766.5 604 L928 604 L928 604 L1149 604 L1149 604 L1370 604 L1370 604 L1459.5 604 L1459.5 604 L1549 604 L1549 604 L1591.0852524628378 597.0148958567904 L1591.1 597.0 " fill="none"></path>
					<g fill="#eee8d5">
						<path d="M1601.2 600.7 L1591.1 597.0 L1599.4 590.2 L1609.5 594.0 Z"></path>
					</g>
					<path d="M330.0 375.2 L322.9 370.4 L319.8 378.3 L320.9 364.0 Z"></path>
					<text x="2388.4" y="680.0" stroke="none">implements</text>
					<g stroke-dasharray="6 6">
						<path d="M2383.8 658.5 L2445 660 L2484.5 660 L2484.5 660.0 " fill="none"></path>
					</g>
					<path d="M2384.0 653.2 L2383.8 658.5 L2383.7 663.9 L2370.5 658.2 Z"></path>
					<text x="2106.1" y="328.0" stroke="none">extends</text>
					<path d="M1971.6 192.0 L2114 308 L2160.6666666666665 308 L2160.7 308.0 " fill="none"></path>
					<path d="M2160.7 313.3 L2160.7 308.0 L2160.7 302.7 L2174.0 308.0 Z"></path>
					<text x="2393.0" y="300.0" stroke="none">uses</text>
					<path d="M2403.7 308.0 L2445 308 L2521.936091282049 348.87229849358835 L2521.9 348.9 " fill="none"></path>
					<path d="M2513.5 350.5 L2521.9 348.9 L2518.6 341.0 L2527.8 352.0 Z"></path>
					<g fill="#eee8d5">
						<path d="M2394.3 302.7 L2403.7 308.0 L2394.3 313.3 L2385.0 308.0 Z"></path>
					</g>
					<text x="3021.0" y="680.0" stroke="none">implements</text>
					<g stroke-dasharray="6 6">
						<path d="M3013.0 660.0 L3064 660 L3192.542421188273 521.7642159024473 L3192.5 521.8 " fill="none"></path>
					</g>
					<path d="M3196.4 525.4 L3192.5 521.8 L3188.6 518.1 L3201.6 512.0 Z"></path>
					<text x="2684.1" y="652.0" stroke="none">extends</text>
					<path d="M2674.8 660.0 L2701 660 L2752 660 L2752.0 660.0 " fill="none"></path>
					<path d="M2674.8 654.7 L2674.8 660.0 L2674.8 665.3 L2661.5 660.0 Z"></path>
					<text x="2745.3" y="268.0" stroke="none">uses</text>
					<path d="M2602.6 347.4 L2701 252 L2718.7456412312727 250.04455744008015 L2718.7 250.0 " fill="none"></path>
					<g fill="#eee8d5">
						<path d="M2728.6 254.3 L2718.7 250.0 L2727.4 243.7 L2737.3 248.0 Z"></path>
					</g>
					<path d="M2603.6 338.9 L2602.6 347.4 L2611.1 346.6 L2597.8 352.0 Z"></path>
					<text x="2555.2" y="420.0" stroke="none">has</text>
					<path d="M2594.4 405.4 L2701 552 L2882.5 552 L2882.5 552 L3064 552 L3064 552 L3155.4059770520157 518.4345264595878 L3155.4 518.4 " fill="none"></path>
					<g fill="#33322E">
						<path d="M3166.0 520.2 L3155.4 518.4 L3162.3 510.2 L3172.9 512.0 Z"></path>
					</g>
					<path d="M2602.6 407.6 L2594.4 405.4 L2594.0 413.9 L2590.5 400.0 Z"></path>
					<text x="2427.5" y="36.0" stroke="none">has</text>
					<path d="M2438.2 44.0 L2445 44 L2573 44 L2573 44 L2701 44 L2701 44 L2882.5 44 L2882.5 44 L3064 44 L3064 44 L3208.9705396038526 473.6831731209262 L3209.0 473.7 " fill="none"></path>
					<path d="M3201.8 469.1 L3209.0 473.7 L3211.9 465.7 L3211.1 480.0 Z"></path>
					<g fill="#33322E">
						<path d="M2428.8 38.7 L2438.2 44.0 L2428.8 49.3 L2419.5 44.0 Z"></path>
					</g>
					<g data-name="DataStrategy">
						<g fill="#C9DEEF" stroke="#33322E" data-name="DataStrategy">
							<rect x="1612.5" y="0.0" height="32.0" width="114.0" data-name="DataStrategy"></rect>
						</g>
						<g transform="translate(1612.5, 0)" font-family="Helvetica" font-size="12pt" font-weight="bold" font-style="normal" data-name="DataStrategy" data-compartment="0">
							<g transform="translate(8, 8)" fill="#33322E" text-align="center" data-name="DataStrategy" data-compartment="0">
								<text x="49.0" y="14.1" stroke="none" text-anchor="middle" data-name="DataStrategy" data-compartment="0">DataStrategy</text>
								
							</g>
						</g>
					</g>
					<g data-name="IEquatable&lt;INamedTestCase&gt;">
						<g fill="#DCE8CF" stroke="#33322E" data-name="IEquatable&lt;INamedTestCase&gt;">
							<rect x="2159.0" y="460.0" height="32.0" width="241.0" data-name="IEquatable&lt;INamedTestCase&gt;"></rect>
						</g>
						<g transform="translate(2159, 460)" font-family="Helvetica" font-size="12pt" font-weight="bold" font-style="italic" data-name="IEquatable&lt;INamedTestCase&gt;" data-compartment="0">
							<g transform="translate(8, 8)" fill="#33322E" text-align="center" data-name="IEquatable&lt;INamedTestCase&gt;" data-compartment="0">
								<text x="112.5" y="14.1" stroke="none" text-anchor="middle" data-name="IEquatable&lt;INamedTestCase&gt;" data-compartment="0">IEquatable&lt;INamedTestCase&gt;</text>
								
							</g>
						</g>
					</g>
					<g data-name="IEquatable&lt;IDataStrategy&gt;">
						<g fill="#DCE8CF" stroke="#33322E" data-name="IEquatable&lt;IDataStrategy&gt;">
							<rect x="0.0" y="332.0" height="32.0" width="217.0" data-name="IEquatable&lt;IDataStrategy&gt;"></rect>
						</g>
						<g transform="translate(0, 332)" font-family="Helvetica" font-size="12pt" font-weight="bold" font-style="italic" data-name="IEquatable&lt;IDataStrategy&gt;" data-compartment="0">
							<g transform="translate(8, 8)" fill="#33322E" text-align="center" data-name="IEquatable&lt;IDataStrategy&gt;" data-compartment="0">
								<text x="100.5" y="14.1" stroke="none" text-anchor="middle" data-name="IEquatable&lt;IDataStrategy&gt;" data-compartment="0">IEquatable&lt;IDataStrategy&gt;</text>
								
							</g>
						</g>
					</g>
					<g data-name="IDataStrategy">
						<g fill="#DCE8CF" stroke="#33322E" data-name="IDataStrategy">
							<rect x="257.0" y="332.0" height="32.0" width="118.0" data-name="IDataStrategy"></rect>
						</g>
						<g transform="translate(257, 332)" font-family="Helvetica" font-size="12pt" font-weight="bold" font-style="italic" data-name="IDataStrategy" data-compartment="0">
							<g transform="translate(8, 8)" fill="#33322E" text-align="center" data-name="IDataStrategy" data-compartment="0">
								<text x="51.0" y="14.1" stroke="none" text-anchor="middle" data-name="IDataStrategy" data-compartment="0">IDataStrategy</text>
								
							</g>
						</g>
					</g>
					<g data-name="DynamicDataSource">
						<g fill="#C9DEEF" stroke="#33322E" data-name="DynamicDataSource">
							<rect x="415.0" y="348.0" height="32.0" width="170.0" data-name="DynamicDataSource"></rect>
						</g>
						<g transform="translate(415, 348)" font-family="Helvetica" font-size="12pt" font-weight="bold" font-style="italic" data-name="DynamicDataSource" data-compartment="0">
							<g transform="translate(8, 8)" fill="#33322E" text-align="center" data-name="DynamicDataSource" data-compartment="0">
								<text x="77.0" y="14.1" stroke="none" text-anchor="middle" data-name="DynamicDataSource" data-compartment="0">DynamicDataSource</text>
								
							</g>
						</g>
					</g>
					<g data-name="DynamicDataSource&lt;TDataHolder&gt;">
						<g fill="#C9DEEF" stroke="#33322E" data-name="DynamicDataSource&lt;TDataHolder&gt;">
							<rect x="625.0" y="348.0" height="32.0" width="283.0" data-name="DynamicDataSource&lt;TDataHolder&gt;"></rect>
						</g>
						<g transform="translate(625, 348)" font-family="Helvetica" font-size="12pt" font-weight="bold" font-style="italic" data-name="DynamicDataSource&lt;TDataHolder&gt;" data-compartment="0">
							<g transform="translate(8, 8)" fill="#33322E" text-align="center" data-name="DynamicDataSource&lt;TDataHolder&gt;" data-compartment="0">
								<text x="133.5" y="14.1" stroke="none" text-anchor="middle" data-name="DynamicDataSource&lt;TDataHolder&gt;" data-compartment="0">DynamicDataSource&lt;TDataHolder&gt;</text>
								
							</g>
						</g>
					</g>
					<g data-name="DynamicDataRowSource&lt;TDataRowHolder, TRow&gt;">
						<g fill="#C9DEEF" stroke="#33322E" data-name="DynamicDataRowSource&lt;TDataRowHolder, TRow&gt;">
							<rect x="948.0" y="320.0" height="32.0" width="402.0" data-name="DynamicDataRowSource&lt;TDataRowHolder, TRow&gt;"></rect>
						</g>
						<g transform="translate(948, 320)" font-family="Helvetica" font-size="12pt" font-weight="bold" font-style="italic" data-name="DynamicDataRowSource&lt;TDataRowHolder, TRow&gt;" data-compartment="0">
							<g transform="translate(8, 8)" fill="#33322E" text-align="center" data-name="DynamicDataRowSource&lt;TDataRowHolder, TRow&gt;" data-compartment="0">
								<text x="193.0" y="14.1" stroke="none" text-anchor="middle" data-name="DynamicDataRowSource&lt;TDataRowHolder, TRow&gt;" data-compartment="0">DynamicDataRowSource&lt;TDataRowHolder, TRow&gt;</text>
								
							</g>
						</g>
					</g>
					<g data-name="IDataRowHolder&lt;TRow&gt;">
						<g fill="#DCE8CF" stroke="#33322E" data-name="IDataRowHolder&lt;TRow&gt;">
							<rect x="1569.0" y="140.0" height="32.0" width="201.0" data-name="IDataRowHolder&lt;TRow&gt;"></rect>
						</g>
						<g transform="translate(1569, 140)" font-family="Helvetica" font-size="12pt" font-weight="bold" font-style="italic" data-name="IDataRowHolder&lt;TRow&gt;" data-compartment="0">
							<g transform="translate(8, 8)" fill="#33322E" text-align="center" data-name="IDataRowHolder&lt;TRow&gt;" data-compartment="0">
								<text x="92.5" y="14.1" stroke="none" text-anchor="middle" data-name="IDataRowHolder&lt;TRow&gt;" data-compartment="0">IDataRowHolder&lt;TRow&gt;</text>
								
							</g>
						</g>
					</g>
					<g data-name="IAddTestData&lt;TTestData&gt;">
						<g fill="#DCE8CF" stroke="#33322E" data-name="IAddTestData&lt;TTestData&gt;">
							<rect x="2174.0" y="292.0" height="32.0" width="211.0" data-name="IAddTestData&lt;TTestData&gt;"></rect>
						</g>
						<g transform="translate(2174, 292)" font-family="Helvetica" font-size="12pt" font-weight="bold" font-style="italic" data-name="IAddTestData&lt;TTestData&gt;" data-compartment="0">
							<g transform="translate(8, 8)" fill="#33322E" text-align="center" data-name="IAddTestData&lt;TTestData&gt;" data-compartment="0">
								<text x="97.5" y="14.1" stroke="none" text-anchor="middle" data-name="IAddTestData&lt;TTestData&gt;" data-compartment="0">IAddTestData&lt;TTestData&gt;</text>
								
							</g>
						</g>
					</g>
					<g data-name="IDataRowHolder&lt;TRow, TTestData&gt;">
						<g fill="#DCE8CF" stroke="#33322E" data-name="IDataRowHolder&lt;TRow, TTestData&gt;">
							<rect x="1810.0" y="160.0" height="32.0" width="284.0" data-name="IDataRowHolder&lt;TRow, TTestData&gt;"></rect>
						</g>
						<g transform="translate(1810, 160)" font-family="Helvetica" font-size="12pt" font-weight="bold" font-style="italic" data-name="IDataRowHolder&lt;TRow, TTestData&gt;" data-compartment="0">
							<g transform="translate(8, 8)" fill="#33322E" text-align="center" data-name="IDataRowHolder&lt;TRow, TTestData&gt;" data-compartment="0">
								<text x="134.0" y="14.1" stroke="none" text-anchor="middle" data-name="IDataRowHolder&lt;TRow, TTestData&gt;" data-compartment="0">IDataRowHolder&lt;TRow, TTestData&gt;</text>
								
							</g>
						</g>
					</g>
					<g data-name="IDataRowHolder">
						<g fill="#DCE8CF" stroke="#33322E" data-name="IDataRowHolder">
							<rect x="1390.0" y="260.0" height="32.0" width="139.0" data-name="IDataRowHolder"></rect>
						</g>
						<g transform="translate(1390, 260)" font-family="Helvetica" font-size="12pt" font-weight="bold" font-style="italic" data-name="IDataRowHolder" data-compartment="0">
							<g transform="translate(8, 8)" fill="#33322E" text-align="center" data-name="IDataRowHolder" data-compartment="0">
								<text x="61.5" y="14.1" stroke="none" text-anchor="middle" data-name="IDataRowHolder" data-compartment="0">IDataRowHolder</text>
								
							</g>
						</g>
					</g>
					<g data-name="ITestDataRows">
						<g fill="#DCE8CF" stroke="#33322E" data-name="ITestDataRows">
							<rect x="1084.5" y="464.0" height="32.0" width="129.0" data-name="ITestDataRows"></rect>
						</g>
						<g transform="translate(1084.5, 464)" font-family="Helvetica" font-size="12pt" font-weight="bold" font-style="italic" data-name="ITestDataRows" data-compartment="0">
							<g transform="translate(8, 8)" fill="#33322E" text-align="center" data-name="ITestDataRows" data-compartment="0">
								<text x="56.5" y="14.1" stroke="none" text-anchor="middle" data-name="ITestDataRows" data-compartment="0">ITestDataRows</text>
								
							</g>
						</g>
					</g>
					<g data-name="ITestDataRow">
						<g fill="#DCE8CF" stroke="#33322E" data-name="ITestDataRow">
							<rect x="1609.5" y="568.0" height="32.0" width="120.0" data-name="ITestDataRow"></rect>
						</g>
						<g transform="translate(1609.5, 568)" font-family="Helvetica" font-size="12pt" font-weight="bold" font-style="italic" data-name="ITestDataRow" data-compartment="0">
							<g transform="translate(8, 8)" fill="#33322E" text-align="center" data-name="ITestDataRow" data-compartment="0">
								<text x="52.0" y="14.1" stroke="none" text-anchor="middle" data-name="ITestDataRow" data-compartment="0">ITestDataRow</text>
								
							</g>
						</g>
					</g>
					<g data-name="ITestDataRow&lt;TRow&gt;">
						<g fill="#DCE8CF" stroke="#33322E" data-name="ITestDataRow&lt;TRow&gt;">
							<rect x="2188.5" y="640.0" height="32.0" width="182.0" data-name="ITestDataRow&lt;TRow&gt;"></rect>
						</g>
						<g transform="translate(2188.5, 640)" font-family="Helvetica" font-size="12pt" font-weight="bold" font-style="italic" data-name="ITestDataRow&lt;TRow&gt;" data-compartment="0">
							<g transform="translate(8, 8)" fill="#33322E" text-align="center" data-name="ITestDataRow&lt;TRow&gt;" data-compartment="0">
								<text x="83.0" y="14.1" stroke="none" text-anchor="middle" data-name="ITestDataRow&lt;TRow&gt;" data-compartment="0">ITestDataRow&lt;TRow&gt;</text>
								
							</g>
						</g>
					</g>
					<g data-name="DataRowHolder&lt;TRow&gt;">
						<g fill="#C9DEEF" stroke="#33322E" data-name="DataRowHolder&lt;TRow&gt;">
							<rect x="1854.0" y="8.0" height="32.0" width="196.0" data-name="DataRowHolder&lt;TRow&gt;"></rect>
						</g>
						<g transform="translate(1854, 8)" font-family="Helvetica" font-size="12pt" font-weight="bold" font-style="italic" data-name="DataRowHolder&lt;TRow&gt;" data-compartment="0">
							<g transform="translate(8, 8)" fill="#33322E" text-align="center" data-name="DataRowHolder&lt;TRow&gt;" data-compartment="0">
								<text x="90.0" y="14.1" stroke="none" text-anchor="middle" data-name="DataRowHolder&lt;TRow&gt;" data-compartment="0">DataRowHolder&lt;TRow&gt;</text>
								
							</g>
						</g>
					</g>
					<g data-name="DataRowHolder&lt;TRow, TTestData&gt;">
						<g fill="#C9DEEF" stroke="#33322E" data-name="DataRowHolder&lt;TRow, TTestData&gt;">
							<rect x="2139.5" y="28.0" height="32.0" width="280.0" data-name="DataRowHolder&lt;TRow, TTestData&gt;"></rect>
						</g>
						<g transform="translate(2139.5, 28)" font-family="Helvetica" font-size="12pt" font-weight="bold" font-style="italic" data-name="DataRowHolder&lt;TRow, TTestData&gt;" data-compartment="0">
							<g transform="translate(8, 8)" fill="#33322E" text-align="center" data-name="DataRowHolder&lt;TRow, TTestData&gt;" data-compartment="0">
								<text x="132.0" y="14.1" stroke="none" text-anchor="middle" data-name="DataRowHolder&lt;TRow, TTestData&gt;" data-compartment="0">DataRowHolder&lt;TRow, TTestData&gt;</text>
								
							</g>
						</g>
					</g>
					<g data-name="IRows&lt;TRow&gt;">
						<g fill="#DCE8CF" stroke="#33322E" data-name="IRows&lt;TRow&gt;">
							<rect x="1397.0" y="64.0" height="32.0" width="125.0" data-name="IRows&lt;TRow&gt;"></rect>
						</g>
						<g transform="translate(1397, 64)" font-family="Helvetica" font-size="12pt" font-weight="bold" font-style="italic" data-name="IRows&lt;TRow&gt;" data-compartment="0">
							<g transform="translate(8, 8)" fill="#33322E" text-align="center" data-name="IRows&lt;TRow&gt;" data-compartment="0">
								<text x="54.5" y="14.1" stroke="none" text-anchor="middle" data-name="IRows&lt;TRow&gt;" data-compartment="0">IRows&lt;TRow&gt;</text>
								
							</g>
						</g>
					</g>
					<g data-name="ITestDataRowFactory&lt;TRow, TTestData&gt;">
						<g fill="#DCE8CF" stroke="#33322E" data-name="ITestDataRowFactory&lt;TRow, TTestData&gt;">
							<rect x="2721.0" y="216.0" height="32.0" width="323.0" data-name="ITestDataRowFactory&lt;TRow, TTestData&gt;"></rect>
						</g>
						<g transform="translate(2721, 216)" font-family="Helvetica" font-size="12pt" font-weight="bold" font-style="italic" data-name="ITestDataRowFactory&lt;TRow, TTestData&gt;" data-compartment="0">
							<g transform="translate(8, 8)" fill="#33322E" text-align="center" data-name="ITestDataRowFactory&lt;TRow, TTestData&gt;" data-compartment="0">
								<text x="153.5" y="14.1" stroke="none" text-anchor="middle" data-name="ITestDataRowFactory&lt;TRow, TTestData&gt;" data-compartment="0">ITestDataRowFactory&lt;TRow, TTestData&gt;</text>
								
							</g>
						</g>
					</g>
					<g data-name="ITestDataRow&lt;TRow, TTestData&gt;">
						<g fill="#DCE8CF" stroke="#33322E" data-name="ITestDataRow&lt;TRow, TTestData&gt;">
							<rect x="3084.0" y="480.0" height="32.0" width="265.0" data-name="ITestDataRow&lt;TRow, TTestData&gt;"></rect>
						</g>
						<g transform="translate(3084, 480)" font-family="Helvetica" font-size="12pt" font-weight="bold" font-style="italic" data-name="ITestDataRow&lt;TRow, TTestData&gt;" data-compartment="0">
							<g transform="translate(8, 8)" fill="#33322E" text-align="center" data-name="ITestDataRow&lt;TRow, TTestData&gt;" data-compartment="0">
								<text x="124.5" y="14.1" stroke="none" text-anchor="middle" data-name="ITestDataRow&lt;TRow, TTestData&gt;" data-compartment="0">ITestDataRow&lt;TRow, TTestData&gt;</text>
								
							</g>
						</g>
					</g>
					<g data-name="TestDataRow&lt;TRow&gt;">
						<g fill="#C9DEEF" stroke="#33322E" data-name="TestDataRow&lt;TRow&gt;">
							<rect x="2484.5" y="644.0" height="32.0" width="177.0" data-name="TestDataRow&lt;TRow&gt;"></rect>
						</g>
						<g transform="translate(2484.5, 644)" font-family="Helvetica" font-size="12pt" font-weight="bold" font-style="italic" data-name="TestDataRow&lt;TRow&gt;" data-compartment="0">
							<g transform="translate(8, 8)" fill="#33322E" text-align="center" data-name="TestDataRow&lt;TRow&gt;" data-compartment="0">
								<text x="80.5" y="14.1" stroke="none" text-anchor="middle" data-name="TestDataRow&lt;TRow&gt;" data-compartment="0">TestDataRow&lt;TRow&gt;</text>
								
							</g>
						</g>
					</g>
					<g data-name="TestDataRow&lt;TRow, TTestData&gt;">
						<g fill="#C9DEEF" stroke="#33322E" data-name="TestDataRow&lt;TRow, TTestData&gt;">
							<rect x="2752.0" y="644.0" height="32.0" width="261.0" data-name="TestDataRow&lt;TRow, TTestData&gt;"></rect>
						</g>
						<g transform="translate(2752, 644)" font-family="Helvetica" font-size="12pt" font-weight="bold" font-style="italic" data-name="TestDataRow&lt;TRow, TTestData&gt;" data-compartment="0">
							<g transform="translate(8, 8)" fill="#33322E" text-align="center" data-name="TestDataRow&lt;TRow, TTestData&gt;" data-compartment="0">
								<text x="122.5" y="14.1" stroke="none" text-anchor="middle" data-name="TestDataRow&lt;TRow, TTestData&gt;" data-compartment="0">TestDataRow&lt;TRow, TTestData&gt;</text>
								
							</g>
						</g>
					</g>
					<g data-name="INamedTestCase">
						<g fill="#DCE8CF" stroke="#33322E" data-name="INamedTestCase">
							<rect x="1880.5" y="508.0" height="32.0" width="143.0" data-name="INamedTestCase"></rect>
						</g>
						<g transform="translate(1880.5, 508)" font-family="Helvetica" font-size="12pt" font-weight="bold" font-style="italic" data-name="INamedTestCase" data-compartment="0">
							<g transform="translate(8, 8)" fill="#33322E" text-align="center" data-name="INamedTestCase" data-compartment="0">
								<text x="63.5" y="14.1" stroke="none" text-anchor="middle" data-name="INamedTestCase" data-compartment="0">INamedTestCase</text>
								
							</g>
						</g>
					</g>
					<g data-name="ITestData">
						<g fill="#DCE8CF" stroke="#33322E" data-name="ITestData">
							<rect x="2236.5" y="532.0" height="32.0" width="86.0" data-name="ITestData"></rect>
						</g>
						<g transform="translate(2236.5, 532)" font-family="Helvetica" font-size="12pt" font-weight="bold" font-style="italic" data-name="ITestData" data-compartment="0">
							<g transform="translate(8, 8)" fill="#33322E" text-align="center" data-name="ITestData" data-compartment="0">
								<text x="35.0" y="14.1" stroke="none" text-anchor="middle" data-name="ITestData" data-compartment="0">ITestData</text>
								
							</g>
						</g>
					</g>
					<g data-name="TTestData">
						<g fill="#C9DEEF" stroke="#33322E" data-name="TTestData">
							<rect x="2465.0" y="352.0" height="48.0" width="216.0" data-name="TTestData"></rect>
						</g>
						<g transform="translate(2465, 352)" font-family="Helvetica" font-size="12pt" font-weight="bold" font-style="normal" data-name="TTestData" data-compartment="0">
							<g transform="translate(8, 8)" fill="#33322E" text-align="center" data-name="TTestData" data-compartment="0">
								<text x="100.0" y="14.1" stroke="none" text-anchor="middle" data-name="TTestData" data-compartment="0">TTestData</text>
								<text x="100.0" y="30.3" stroke="none" text-anchor="middle" data-name="TTestData" data-compartment="0">(concrete generic records)</text>
								
							</g>
						</g>
					</g>
					<g data-name="IReadonlyCollection&lt;ITestDataRow&gt;">
						<g fill="#DCE8CF" stroke="#33322E" data-name="IReadonlyCollection&lt;ITestDataRow&gt;">
							<rect x="2134.0" y="140.0" height="32.0" width="291.0" data-name="IReadonlyCollection&lt;ITestDataRow&gt;"></rect>
						</g>
						<g transform="translate(2134, 140)" font-family="Helvetica" font-size="12pt" font-weight="bold" font-style="italic" data-name="IReadonlyCollection&lt;ITestDataRow&gt;" data-compartment="0">
							<g transform="translate(8, 8)" fill="#33322E" text-align="center" data-name="IReadonlyCollection&lt;ITestDataRow&gt;" data-compartment="0">
								<text x="137.5" y="14.1" stroke="none" text-anchor="middle" data-name="IReadonlyCollection&lt;ITestDataRow&gt;" data-compartment="0">IReadonlyCollection&lt;ITestDataRow&gt;</text>
								
							</g>
						</g>
					</g>
				</g>
			</g>
		</g>
	</g>
</svg>