<svg version="1.1" baseProfile="full" width="1816.3" height="1353.0" viewBox="0 0 1816.25 1353" xmlns="http://www.w3.org/2000/svg" xmlns:xlink="http://www.w3.org/1999/xlink" xmlns:ev="http://www.w3.org/2001/xml-events">
	<title >CsabaDu_DynamicTestData_Pattern_Composite</title>
	<desc >
	
	#title: CsabaDu_DynamicTestData_Pattern_Composite
	#direction: down
	#.contract: fill=#DCE8CF title=center,italic,bold body=left,italic visual=class
	#.concrete: fill=#C9DEEF title=center,bold body=left visual=class
	#.abstract: fill=#C9DEEF title=center,bold,italic body=left visual=class
	
	
	
	
	[&lt;contract&gt;
	ITestData |
	string Definition |
	object?array ToArgs(ArgsCode)
	object?array ToParams(ArgsCode, PropsCode)]
	
	[&lt;concrete&gt;
	DataStrategy |
	- static readonly HashSet&lt;DataStrategy&gt; DataStrategies |
	+ int GetHashCode()
	+ static IDataStrategy GetStoredDataStrategy(ArgsCode, PropsCode)
	+ static IDataStrategy GetStoredDataStrategy(IDataStrategy)
	+ static IDataStrategy GetStoredDataStrategy(ArgsCode?, IDataStrategy)]
	
	[&lt;contract&gt;
	IDataStrategy |
	ArgsCode ArgsCode
	PropsCode PropsCode]
	
	[&lt;abstract&gt;
	DynamicDataSource&lt;TDataHolder&gt; |
	&apos;# TDataRowHolde DataHolder |
	&apos;# abstract void Add&lt;TTestData&gt;(TTestData)]
	
	[&lt;abstract&gt;
	DynamicDataRowSource&lt;TDataRowHolder, TRow&gt; |
	&apos;# void Add&lt;T1...T9&gt;(string, string, T1?...T9?)
	&apos;# void AddReturns&lt;TStruct, T1...T9&gt;(string, TStruct, T1?...T9?)
	&apos;# void AddThrows&lt;TException, T1...T9&gt;(string, TException, T1?...T9?) |
	&apos;# abstract void InitDataHolder&lt;TTestData&gt;(TTestData)]
	
	[&lt;contract&gt;
	IAddTestData&lt;TTestData&gt; |
	void Add(TTestData)]
	
	[&lt;contract&gt;
	IDataRowHolder |
	IDataStrategy DataStrategy]
	
	[&lt;contract&gt;
	IDataRowHolder&lt;TRow&gt; |
	IDataRowHolder&lt;TRow&gt; GetDataRowHolder(IDataStrategy)]
	
	[&lt;contract&gt;
	IDataRowHolder&lt;TRow, TTestData&gt; |
	void Add(ITestDataRow&lt;TRow, TTestData&gt;)]
	
	[&lt;abstract&gt;
	DataRowHolder&lt;TRow, TTestData&gt; |
	- readonly List&lt;ITestDataRow&lt;TRow, TTestData&gt;&gt; testDataRows]
	
	[&lt;contract&gt;
	ITestDataRow&lt;TRow, TTestData&gt; |
	TTestData TestData]
	
	[&lt;contract&gt;
	ITestDataRow&lt;TRow&gt; |
	TRow Convert(IDataStrategy)]
	
	[&lt;abstract&gt;
	TestDataRow&lt;TRow, TTestData&gt;]
	
	[&lt;concrete&gt;
	TTestData
	(concrete generic records)]
	
	[&lt;contract&gt;
	IReadonlyCollection&lt;ITestDataRow&gt; |
	int Count |
	IEnumerator&lt;ITestDataRow&gt; GetEnumerator()
	IEnumerator GetEnumerator()]
	
	[&lt;contract&gt; ITestDataRow |
	object?array GetParams(IDataStrategy)
	ITestData GetTestData()]
	
	
	
	
	[TTestData] &lt;-+ has
	[ITestDataRow&lt;TRow, TTestData&gt;]
	[TTestData]
	
	
	[DynamicDataSource&lt;TDataHolder&gt;] uses o-&gt;
	[TTestData]
	[ITestDataRow]
	[ITestDataRow&lt;TRow, TTestData&gt;]
	[ITestDataRow&lt;TRow&gt;]
	[ITestDataRow] &lt;:- extends
	[ITestDataRow&lt;TRow&gt;] &lt;:- extends
	[ITestDataRow&lt;TRow, TTestData&gt;]
	
	
	[IDataStrategy] &lt;-o uses
	[ITestDataRow&lt;TRow&gt;]
	
	[IDataStrategy] &lt;-o uses
	[ITestDataRow]
	
	[IDataStrategy] &lt;:-- implements
	[DataStrategy]
	[IDataStrategy]
	
	[DataRowHolder&lt;TRow, TTestData&gt;]
	[DataStrategy] &lt;-o uses (as DataStrategy cache)
	[DataRowHolder&lt;TRow, TTestData&gt;]
	
	[DynamicDataRowSource&lt;TDataRowHolder, TRow&gt;] +-&gt; has
	(generic constraint)
	[IDataRowHolder&lt;TRow&gt;]
	
	[IDataStrategy] &lt;-+ has
	[IDataRowHolder] extends &lt;:-
	[IDataRowHolder&lt;TRow&gt;] extends &lt;:-
	[IDataRowHolder&lt;TRow, TTestData&gt;]
	
	[IDataStrategy] &lt;:-- implements
	[DynamicDataSource&lt;TDataHolder&gt;] &lt;:- extends
	[DynamicDataRowSource&lt;TDataRowHolder, TRow&gt;] uses o-&gt;
	[TTestData]
	
	[IDataStrategy] &lt;-o uses
	[IDataRowHolder&lt;TRow&gt;]
	
	[DataRowHolder&lt;TRow, TTestData&gt;] --:&gt; implements
	[IDataRowHolder&lt;TRow, TTestData&gt;]
	[DataRowHolder&lt;TRow, TTestData&gt;]
	
	[IDataRowHolder&lt;TRow, TTestData&gt;] -:&gt; extends
	[IReadonlyCollection&lt;ITestDataRow&gt;] uses (generic constraint) o-&gt;
	[ITestDataRow]
	[IDataRowHolder&lt;TRow, TTestData&gt;]
	
	[ITestDataRow]
	[IReadonlyCollection&lt;ITestDataRow&gt;]
	[ITestDataRow]
	
	[IDataRowHolder&lt;TRow, TTestData&gt;] o-&gt; uses
	[TTestData]
	
	[IAddTestData&lt;TTestData&gt;]
	[IDataRowHolder&lt;TRow, TTestData&gt;] extends -:&gt;
	[IAddTestData&lt;TTestData&gt;]
	
	[IAddTestData&lt;TTestData&gt;] uses o-&gt;
	[TTestData]
	
	[TestDataRow&lt;TRow, TTestData&gt;]
	[ITestDataRow&lt;TRow, TTestData&gt;] &lt;:-- implements
	[TestDataRow&lt;TRow, TTestData&gt;]
	
	[DataRowHolder&lt;TRow, TTestData&gt;] has +-&gt;
	[ITestDataRow&lt;TRow, TTestData&gt;]
	
	[ITestData] implements &lt;:--
	[TTestData]
	[ITestData]
	
	
	[ITestData]
	[ITestDataRow] returns o-&gt;
	[ITestData]
	</desc>
	<g stroke-width="1.0" text-align="left" font="12pt Helvetica, Arial, sans-serif" font-size="12pt" font-family="Helvetica" font-weight="normal" font-style="normal">
		<g font-family="Helvetica" font-size="12pt" font-weight="bold" font-style="normal" stroke-width="3.0" stroke-linejoin="round" stroke-linecap="round" stroke="#33322E">
			<g stroke="transparent" fill="transparent">
				<rect x="0.0" y="0.0" height="1353.0" width="1816.3" stroke="none"></rect>
			</g>
			<g transform="translate(8, 8)" fill="#33322E">
				<g transform="translate(20, 20)" fill="#33322E" font-family="Helvetica" font-size="12pt" font-weight="normal" font-style="normal">
					<text x="1503.3" y="1178.8" stroke="none">has</text>
					<path d="M515.0 1127.7 L515 1141 L1476.6036820798572 1185.9367705847249 L1476.6 1185.9 " fill="none"></path>
					<g fill="#33322E">
						<path d="M1485.7 1191.7 L1476.6 1185.9 L1486.2 1181.0 L1495.3 1186.8 Z"></path>
					</g>
					<path d="M520.3 1134.3 L515.0 1127.7 L509.7 1134.3 L515.0 1121.0 Z"></path>
					<text x="56.1" y="236.0" stroke="none">uses</text>
					<path d="M82.3 226.9 L69.75 236 L69.75 328.5 L69.75 328.5 L69.75 421 L69.75 421 L69.75 473 L69.75 473 L69.75 525 L69.75 525 L69.75 577 L69.75 577 L69.75 629 L69.75 629 L69.75 705 L69.75 705 L69.75 781 L69.75 781 L69.75 841 L69.75 841 L69.75 901 L69.75 901 L69.75 977 L69.75 977 L69.75 1053 L69.75 1053 L400.3656487337889 1085.6717317109192 L400.4 1085.7 " fill="none"></path>
					<path d="M393.2 1090.3 L400.4 1085.7 L394.3 1079.7 L407.0 1086.3 Z"></path>
					<g fill="#eee8d5">
						<path d="M93.0 225.8 L82.3 226.9 L86.8 217.1 L97.5 216.0 Z"></path>
					</g>
					<text x="1475.1" y="937.0" stroke="none">extends</text>
					<path d="M1296.9 884.8 L1351 901 L1467.078947368421 945 L1467.1 945.0 " fill="none"></path>
					<path d="M1298.5 879.7 L1296.9 884.8 L1295.4 889.9 L1284.2 881.0 Z"></path>
					<text x="1588.8" y="1153.0" stroke="none">extends</text>
					<path d="M1551.5 1022.3 L1551.5 1053 L1551.5 1097 L1551.5 1097 L1551.5 1141 L1551.5 1141 L1580.826923076923 1161 L1580.8 1161.0 " fill="none"></path>
					<path d="M1556.8 1022.3 L1551.5 1022.3 L1546.2 1022.3 L1551.5 1009.0 Z"></path>
					<text x="1583.2" y="937.0" stroke="none">uses</text>
					<path d="M1070.9 49.1 L1607.75 100 L1607.75 168 L1607.75 168 L1607.75 236 L1607.75 236 L1607.75 328.5 L1607.75 328.5 L1607.75 421 L1607.75 421 L1607.75 473 L1607.75 473 L1607.75 525 L1607.75 525 L1607.75 577 L1607.75 577 L1607.75 629 L1607.75 629 L1607.75 705 L1607.75 705 L1607.75 781 L1607.75 781 L1607.75 841 L1607.75 841 L1607.75 901 L1607.75 901 L1586.2892222555106 929.9958952636657 L1586.3 930.0 " fill="none"></path>
					<g fill="#eee8d5">
						<path d="M1576.4 934.3 L1586.3 930.0 L1585.0 940.7 L1575.2 945.0 Z"></path>
					</g>
					<path d="M1078.0 44.4 L1070.9 49.1 L1077.0 55.1 L1064.3 48.5 Z"></path>
					<text x="1054.7" y="793.0" stroke="none">uses</text>
					<path d="M990.2 86.3 L994.75 100 L994.75 168 L994.75 168 L994.75 236 L994.75 236 L994.75 328.5 L994.75 328.5 L994.75 421 L994.75 421 L994.75 473 L994.75 473 L994.75 525 L994.75 525 L994.75 577 L994.75 577 L994.75 629 L994.75 629 L994.75 705 L994.75 705 L994.75 781 L994.75 781 L1029.247820913734 794.2896902396407 L1029.2 794.3 " fill="none"></path>
					<g fill="#eee8d5">
						<path d="M1036.0 802.6 L1029.2 794.3 L1039.9 792.7 L1046.7 801.0 Z"></path>
					</g>
					<path d="M997.4 91.0 L990.2 86.3 L987.2 94.3 L988.1 80.0 Z"></path>
					<text x="1309.3" y="248.0" stroke="none">implements</text>
					<g stroke-dasharray="6 6">
						<path d="M1077.4 58.9 L1301.25 100 L1301.25 168 L1301.25 168 L1301.25 236 L1301.25 236 L1301.25 256 L1301.3 256.0 " fill="none"></path>
					</g>
					<path d="M1078.3 53.6 L1077.4 58.9 L1076.4 64.1 L1064.3 56.4 Z"></path>
					<text x="1084.6" y="433.0" stroke="none">uses (as DataStrategy cache)</text>
					<path d="M1301.3 407.7 L1301.25 421 L1301.25 422.3333333333333 L1301.3 422.3 " fill="none"></path>
					<g fill="#eee8d5">
						<path d="M1295.9 431.7 L1301.3 422.3 L1306.6 431.7 L1301.3 441.0 Z"></path>
					</g>
					<path d="M1306.6 414.3 L1301.3 407.7 L1295.9 414.3 L1301.3 401.0 Z"></path>
					<text x="588.3" y="433.0" stroke="none">has
					(generic constraint)</text>
					<path d="M477.4 403.6 L502.75 421 L573.8904724907215 439.3360821289592 L573.9 439.3 " fill="none"></path>
					<path d="M566.1 442.8 L573.9 439.3 L568.8 432.5 L580.3 441.0 Z"></path>
					<g fill="#33322E">
						<path d="M472.7 393.9 L477.4 403.6 L466.7 402.7 L462.0 393.0 Z"></path>
					</g>
					<text x="738.3" y="288.5" stroke="none">has</text>
					<path d="M878.9 68.3 L771.75 100 L771.75 168 L771.75 168 L771.75 236 L771.75 236 L771.75 277.8333333333333 L771.8 277.8 " fill="none"></path>
					<g fill="#33322E">
						<path d="M766.4 287.2 L771.8 277.8 L777.1 287.2 L771.8 296.5 Z"></path>
					</g>
					<path d="M874.0 75.3 L878.9 68.3 L871.0 65.1 L885.3 66.5 Z"></path>
					<text x="779.8" y="380.5" stroke="none">extends</text>
					<path d="M771.8 373.8 L771.75 421 L745.8846153846154 441 L745.9 441.0 " fill="none"></path>
					<path d="M777.1 373.8 L771.8 373.8 L766.4 373.8 L771.8 360.5 Z"></path>
					<text x="641.1" y="525.0" stroke="none">extends</text>
					<path d="M704.5 518.3 L704.5 525 L712.1923076923077 545 L712.2 545.0 " fill="none"></path>
					<path d="M709.8 518.3 L704.5 518.3 L699.2 518.3 L704.5 505.0 Z"></path>
					<text x="75.1" y="112.0" stroke="none">implements</text>
					<g stroke-dasharray="6 6">
						<path d="M872.0 47.6 L164 100 L164 120 L164.0 120.0 " fill="none"></path>
					</g>
					<path d="M872.3 52.9 L872.0 47.6 L871.6 42.3 L885.3 46.6 Z"></path>
					<text x="376.3" y="256.0" stroke="none">extends</text>
					<path d="M320.8 220.2 L368.25 236 L368.25 264 L368.3 264.0 " fill="none"></path>
					<path d="M322.5 215.2 L320.8 220.2 L319.1 225.3 L308.2 216.0 Z"></path>
					<text x="236.7" y="413.0" stroke="none">uses</text>
					<path d="M262.9 403.9 L239 421 L239 473 L239 473 L239 525 L239 525 L239 577 L239 577 L239 629 L239 629 L239 705 L239 705 L239 781 L239 781 L239 841 L239 841 L239 901 L239 901 L239 977 L239 977 L239 1053 L239 1053 L400.4164681015984 1078.733060132139 L400.4 1078.7 " fill="none"></path>
					<path d="M393.0 1083.0 L400.4 1078.7 L394.7 1072.4 L407.0 1079.8 Z"></path>
					<g fill="#eee8d5">
						<path d="M273.6 402.8 L262.9 403.9 L267.4 394.1 L278.1 393.0 Z"></path>
					</g>
					<text x="793.7" y="433.0" stroke="none">uses</text>
					<path d="M931.4 84.8 L916.75 100 L916.75 168 L916.75 168 L916.75 236 L916.75 236 L916.75 328.5 L916.75 328.5 L916.75 421 L916.75 421 L853.245864923153 436.55813910009914 L853.2 436.6 " fill="none"></path>
					<g fill="#eee8d5">
						<path d="M842.9 433.6 L853.2 436.6 L845.4 444.0 L835.1 441.0 Z"></path>
					</g>
					<path d="M930.7 93.3 L931.4 84.8 L923.0 85.9 L936.1 80.0 Z"></path>
					<text x="721.6" y="537.0" stroke="none">implements</text>
					<g stroke-dasharray="6 6">
						<path d="M1063.3 501.3 L864.25 525 L822.9962913474342 540.3502171730478 L823.0 540.4 " fill="none"></path>
					</g>
					<path d="M821.1 535.4 L823.0 540.4 L824.9 545.3 L810.5 545.0 Z"></path>
					<text x="1309.3" y="641.0" stroke="none">extends</text>
					<path d="M888.0 591.7 L1301.25 629 L1301.25 635.6666666666666 L1301.3 635.7 " fill="none"></path>
					<path d="M1295.9 635.7 L1301.3 635.7 L1306.6 635.7 L1301.3 649.0 Z"></path>
					<text x="1309.3" y="781.0" stroke="none">uses (generic constraint)</text>
					<path d="M1301.3 779.7 L1301.25 781 L1257.1940860154025 798.534692133173 L1257.2 798.5 " fill="none"></path>
					<path d="M1261.4 791.1 L1257.2 798.5 L1265.4 801.0 L1251.0 801.0 Z"></path>
					<g fill="#eee8d5">
						<path d="M1306.6 770.3 L1301.3 779.7 L1295.9 770.3 L1301.3 761.0 Z"></path>
					</g>
					<text x="367.6" y="1065.0" stroke="none">uses</text>
					<path d="M542.5 600.4 L320.75 629 L320.75 705 L320.75 705 L320.75 781 L320.75 781 L320.75 841 L320.75 841 L320.75 901 L320.75 901 L320.75 977 L320.75 977 L320.75 1053 L320.75 1053 L402.54350193269477 1071.5272282370067 L402.5 1071.5 " fill="none"></path>
					<path d="M394.9 1075.3 L402.5 1071.5 L397.2 1064.9 L409.0 1073.0 Z"></path>
					<g fill="#eee8d5">
						<path d="M552.4 604.5 L542.5 600.4 L551.1 594.0 L561.0 598.1 Z"></path>
					</g>
					<text x="732.5" y="629.0" stroke="none">extends</text>
					<path d="M724.5 609.0 L724.5 629 L724.5 705 L724.5 705 L724.5 781 L724.5 781 L724.5 841 L724.5 841 L724.5 901 L724.5 901 L724.5 931.6666666666666 L724.5 931.7 " fill="none"></path>
					<path d="M719.2 931.7 L724.5 931.7 L729.8 931.7 L724.5 945.0 Z"></path>
					<text x="732.5" y="1029.0" stroke="none">uses</text>
					<path d="M724.5 1027.7 L724.5 1053 L629.5243253239651 1072.9471584045132 L629.5 1072.9 " fill="none"></path>
					<path d="M635.0 1066.4 L629.5 1072.9 L637.1 1076.8 L623.0 1074.3 Z"></path>
					<g fill="#eee8d5">
						<path d="M729.8 1018.3 L724.5 1027.7 L719.2 1018.3 L724.5 1009.0 Z"></path>
					</g>
					<text x="1538.8" y="1257.0" stroke="none">implements</text>
					<g stroke-dasharray="6 6">
						<path d="M1627.8 1238.3 L1627.75 1245 L1627.75 1265 L1627.8 1265.0 " fill="none"></path>
					</g>
					<path d="M1633.1 1238.3 L1627.8 1238.3 L1622.4 1238.3 L1627.8 1225.0 Z"></path>
					<text x="1505.8" y="523.7" stroke="none">has</text>
					<path d="M1557.8 506.1 L1704 525 L1704 577 L1704 577 L1704 629 L1704 629 L1704 705 L1704 705 L1704 781 L1704 781 L1704 841 L1704 841 L1704 901 L1704 901 L1704 977 L1704 977 L1704 1053 L1704 1053 L1704 1097 L1704 1097 L1704 1141 L1704 1141 L1680.1808771271803 1157.2438608444147 L1680.2 1157.2 " fill="none"></path>
					<path d="M1682.7 1149.1 L1680.2 1157.2 L1688.7 1157.9 L1674.7 1161.0 Z"></path>
					<g fill="#33322E">
						<path d="M1549.2 499.6 L1557.8 506.1 L1547.8 510.2 L1539.3 503.7 Z"></path>
					</g>
					<text x="1052.0" y="1053.0" stroke="none">implements</text>
					<g stroke-dasharray="6 6">
						<path d="M1044.0 1046.3 L1044 1053 L623 1088.0170132325143 L623.0 1088.0 " fill="none"></path>
					</g>
					<path d="M1049.3 1046.3 L1044.0 1046.3 L1038.7 1046.3 L1044.0 1033.0 Z"></path>
					<text x="1087.5" y="901.0" stroke="none">returns</text>
					<path d="M1063.2 890.2 L1044 901 L1044 914.3333333333334 L1044.0 914.3 " fill="none"></path>
					<path d="M1038.7 907.7 L1044.0 914.3 L1049.3 907.7 L1044.0 921.0 Z"></path>
					<g fill="#eee8d5">
						<path d="M1074.0 890.2 L1063.2 890.2 L1068.8 880.9 L1079.5 881.0 Z"></path>
					</g>
					<g data-name="ITestData">
						<g fill="#DCE8CF" stroke="#33322E" data-name="ITestData">
							<rect x="870.0" y="921.0" height="112.0" width="348.0" data-name="ITestData"></rect>
							<path d="M870.0 953.0 L1218.0 953.0" fill="none" data-name="ITestData"></path>
							<path d="M870.0 985.0 L1218.0 985.0" fill="none" data-name="ITestData"></path>
						</g>
						<g transform="translate(870, 921)" font-family="Helvetica" font-size="12pt" font-weight="bold" font-style="italic" data-name="ITestData" data-compartment="0">
							<g transform="translate(8, 8)" fill="#33322E" text-align="center" data-name="ITestData" data-compartment="0">
								<text x="166.0" y="14.1" stroke="none" text-anchor="middle" data-name="ITestData" data-compartment="0">ITestData</text>
								
							</g>
						</g>
						<g transform="translate(870, 953)" font-family="Helvetica" font-size="12pt" font-weight="normal" font-style="italic" data-name="ITestData" data-compartment="1">
							<g transform="translate(8, 8)" fill="#33322E" text-align="left" data-name="ITestData" data-compartment="1">
								<text x="0.0" y="14.1" stroke="none" data-name="ITestData" data-compartment="1">string Definition</text>
								
							</g>
						</g>
						<g transform="translate(870, 985)" font-family="Helvetica" font-size="12pt" font-weight="normal" font-style="italic" data-name="ITestData" data-compartment="2">
							<g transform="translate(8, 8)" fill="#33322E" text-align="left" data-name="ITestData" data-compartment="2">
								<text x="0.0" y="14.1" stroke="none" data-name="ITestData" data-compartment="2">object?array ToArgs(ArgsCode)</text>
								<text x="0.0" y="30.3" stroke="none" data-name="ITestData" data-compartment="2">object?array ToParams(ArgsCode, PropsCode)</text>
								
							</g>
						</g>
					</g>
					<g data-name="DataStrategy">
						<g fill="#C9DEEF" stroke="#33322E" data-name="DataStrategy">
							<rect x="1034.8" y="256.0" height="145.0" width="533.0" data-name="DataStrategy"></rect>
							<path d="M1034.8 288.0 L1567.8 288.0" fill="none" data-name="DataStrategy"></path>
							<path d="M1034.8 320.0 L1567.8 320.0" fill="none" data-name="DataStrategy"></path>
						</g>
						<g transform="translate(1034.75, 256)" font-family="Helvetica" font-size="12pt" font-weight="bold" font-style="normal" data-name="DataStrategy" data-compartment="0">
							<g transform="translate(8, 8)" fill="#33322E" text-align="center" data-name="DataStrategy" data-compartment="0">
								<text x="258.5" y="14.1" stroke="none" text-anchor="middle" data-name="DataStrategy" data-compartment="0">DataStrategy</text>
								
							</g>
						</g>
						<g transform="translate(1034.75, 288)" font-family="Helvetica" font-size="12pt" font-weight="normal" font-style="normal" data-name="DataStrategy" data-compartment="1">
							<g transform="translate(8, 8)" fill="#33322E" text-align="left" data-name="DataStrategy" data-compartment="1">
								<text x="0.0" y="14.1" stroke="none" data-name="DataStrategy" data-compartment="1">- static readonly HashSet&lt;DataStrategy&gt; DataStrategies</text>
								
							</g>
						</g>
						<g transform="translate(1034.75, 320)" font-family="Helvetica" font-size="12pt" font-weight="normal" font-style="normal" data-name="DataStrategy" data-compartment="2">
							<g transform="translate(8, 8)" fill="#33322E" text-align="left" data-name="DataStrategy" data-compartment="2">
								<text x="0.0" y="14.1" stroke="none" data-name="DataStrategy" data-compartment="2">+ int GetHashCode()</text>
								<text x="0.0" y="30.3" stroke="none" data-name="DataStrategy" data-compartment="2">+ static IDataStrategy GetStoredDataStrategy(ArgsCode, PropsCode)</text>
								<text x="0.0" y="46.5" stroke="none" data-name="DataStrategy" data-compartment="2">+ static IDataStrategy GetStoredDataStrategy(IDataStrategy)</text>
								<text x="0.0" y="62.7" stroke="none" data-name="DataStrategy" data-compartment="2">+ static IDataStrategy GetStoredDataStrategy(ArgsCode?, IDataStrategy)</text>
								
							</g>
						</g>
					</g>
					<g data-name="IDataStrategy">
						<g fill="#DCE8CF" stroke="#33322E" data-name="IDataStrategy">
							<rect x="885.3" y="0.0" height="80.0" width="179.0" data-name="IDataStrategy"></rect>
							<path d="M885.3 32.0 L1064.3 32.0" fill="none" data-name="IDataStrategy"></path>
						</g>
						<g transform="translate(885.25, 0)" font-family="Helvetica" font-size="12pt" font-weight="bold" font-style="italic" data-name="IDataStrategy" data-compartment="0">
							<g transform="translate(8, 8)" fill="#33322E" text-align="center" data-name="IDataStrategy" data-compartment="0">
								<text x="81.5" y="14.1" stroke="none" text-anchor="middle" data-name="IDataStrategy" data-compartment="0">IDataStrategy</text>
								
							</g>
						</g>
						<g transform="translate(885.25, 32)" font-family="Helvetica" font-size="12pt" font-weight="normal" font-style="italic" data-name="IDataStrategy" data-compartment="1">
							<g transform="translate(8, 8)" fill="#33322E" text-align="left" data-name="IDataStrategy" data-compartment="1">
								<text x="0.0" y="14.1" stroke="none" data-name="IDataStrategy" data-compartment="1">ArgsCode ArgsCode</text>
								<text x="0.0" y="30.3" stroke="none" data-name="IDataStrategy" data-compartment="1">PropsCode PropsCode</text>
								
							</g>
						</g>
					</g>
					<g data-name="DynamicDataSource&lt;TDataHolder&gt;">
						<g fill="#C9DEEF" stroke="#33322E" data-name="DynamicDataSource&lt;TDataHolder&gt;">
							<rect x="0.0" y="120.0" height="96.0" width="328.0" data-name="DynamicDataSource&lt;TDataHolder&gt;"></rect>
							<path d="M0.0 152.0 L328.0 152.0" fill="none" data-name="DynamicDataSource&lt;TDataHolder&gt;"></path>
							<path d="M0.0 184.0 L328.0 184.0" fill="none" data-name="DynamicDataSource&lt;TDataHolder&gt;"></path>
						</g>
						<g transform="translate(0, 120)" font-family="Helvetica" font-size="12pt" font-weight="bold" font-style="italic" data-name="DynamicDataSource&lt;TDataHolder&gt;" data-compartment="0">
							<g transform="translate(8, 8)" fill="#33322E" text-align="center" data-name="DynamicDataSource&lt;TDataHolder&gt;" data-compartment="0">
								<text x="156.0" y="14.1" stroke="none" text-anchor="middle" data-name="DynamicDataSource&lt;TDataHolder&gt;" data-compartment="0">DynamicDataSource&lt;TDataHolder&gt;</text>
								
							</g>
						</g>
						<g transform="translate(0, 152)" font-family="Helvetica" font-size="12pt" font-weight="normal" font-style="normal" data-name="DynamicDataSource&lt;TDataHolder&gt;" data-compartment="1">
							<g transform="translate(8, 8)" fill="#33322E" text-align="left" data-name="DynamicDataSource&lt;TDataHolder&gt;" data-compartment="1">
								<text x="0.0" y="14.1" stroke="none" data-name="DynamicDataSource&lt;TDataHolder&gt;" data-compartment="1"># TDataRowHolde DataHolder</text>
								
							</g>
						</g>
						<g transform="translate(0, 184)" font-family="Helvetica" font-size="12pt" font-weight="normal" font-style="normal" data-name="DynamicDataSource&lt;TDataHolder&gt;" data-compartment="2">
							<g transform="translate(8, 8)" fill="#33322E" text-align="left" data-name="DynamicDataSource&lt;TDataHolder&gt;" data-compartment="2">
								<text x="0.0" y="14.1" stroke="none" data-name="DynamicDataSource&lt;TDataHolder&gt;" data-compartment="2"># abstract void Add&lt;TTestData&gt;(TTestData)</text>
								
							</g>
						</g>
					</g>
					<g data-name="DynamicDataRowSource&lt;TDataRowHolder, TRow&gt;">
						<g fill="#C9DEEF" stroke="#33322E" data-name="DynamicDataRowSource&lt;TDataRowHolder, TRow&gt;">
							<rect x="109.8" y="264.0" height="129.0" width="517.0" data-name="DynamicDataRowSource&lt;TDataRowHolder, TRow&gt;"></rect>
							<path d="M109.8 296.0 L626.8 296.0" fill="none" data-name="DynamicDataRowSource&lt;TDataRowHolder, TRow&gt;"></path>
							<path d="M109.8 361.0 L626.8 361.0" fill="none" data-name="DynamicDataRowSource&lt;TDataRowHolder, TRow&gt;"></path>
						</g>
						<g transform="translate(109.75, 264)" font-family="Helvetica" font-size="12pt" font-weight="bold" font-style="italic" data-name="DynamicDataRowSource&lt;TDataRowHolder, TRow&gt;" data-compartment="0">
							<g transform="translate(8, 8)" fill="#33322E" text-align="center" data-name="DynamicDataRowSource&lt;TDataRowHolder, TRow&gt;" data-compartment="0">
								<text x="250.5" y="14.1" stroke="none" text-anchor="middle" data-name="DynamicDataRowSource&lt;TDataRowHolder, TRow&gt;" data-compartment="0">DynamicDataRowSource&lt;TDataRowHolder, TRow&gt;</text>
								
							</g>
						</g>
						<g transform="translate(109.75, 296)" font-family="Helvetica" font-size="12pt" font-weight="normal" font-style="normal" data-name="DynamicDataRowSource&lt;TDataRowHolder, TRow&gt;" data-compartment="1">
							<g transform="translate(8, 8)" fill="#33322E" text-align="left" data-name="DynamicDataRowSource&lt;TDataRowHolder, TRow&gt;" data-compartment="1">
								<text x="0.0" y="14.1" stroke="none" data-name="DynamicDataRowSource&lt;TDataRowHolder, TRow&gt;" data-compartment="1"># void Add&lt;T1...T9&gt;(string, string, T1?...T9?)</text>
								<text x="0.0" y="30.3" stroke="none" data-name="DynamicDataRowSource&lt;TDataRowHolder, TRow&gt;" data-compartment="1"># void AddReturns&lt;TStruct, T1...T9&gt;(string, TStruct, T1?...T9?)</text>
								<text x="0.0" y="46.5" stroke="none" data-name="DynamicDataRowSource&lt;TDataRowHolder, TRow&gt;" data-compartment="1"># void AddThrows&lt;TException, T1...T9&gt;(string, TException, T1?...T9?)</text>
								
							</g>
						</g>
						<g transform="translate(109.75, 361)" font-family="Helvetica" font-size="12pt" font-weight="normal" font-style="normal" data-name="DynamicDataRowSource&lt;TDataRowHolder, TRow&gt;" data-compartment="2">
							<g transform="translate(8, 8)" fill="#33322E" text-align="left" data-name="DynamicDataRowSource&lt;TDataRowHolder, TRow&gt;" data-compartment="2">
								<text x="0.0" y="14.1" stroke="none" data-name="DynamicDataRowSource&lt;TDataRowHolder, TRow&gt;" data-compartment="2"># abstract void InitDataHolder&lt;TTestData&gt;(TTestData)</text>
								
							</g>
						</g>
					</g>
					<g data-name="IAddTestData&lt;TTestData&gt;">
						<g fill="#DCE8CF" stroke="#33322E" data-name="IAddTestData&lt;TTestData&gt;">
							<rect x="619.0" y="945.0" height="64.0" width="211.0" data-name="IAddTestData&lt;TTestData&gt;"></rect>
							<path d="M619.0 977.0 L830.0 977.0" fill="none" data-name="IAddTestData&lt;TTestData&gt;"></path>
						</g>
						<g transform="translate(619, 945)" font-family="Helvetica" font-size="12pt" font-weight="bold" font-style="italic" data-name="IAddTestData&lt;TTestData&gt;" data-compartment="0">
							<g transform="translate(8, 8)" fill="#33322E" text-align="center" data-name="IAddTestData&lt;TTestData&gt;" data-compartment="0">
								<text x="97.5" y="14.1" stroke="none" text-anchor="middle" data-name="IAddTestData&lt;TTestData&gt;" data-compartment="0">IAddTestData&lt;TTestData&gt;</text>
								
							</g>
						</g>
						<g transform="translate(619, 977)" font-family="Helvetica" font-size="12pt" font-weight="normal" font-style="italic" data-name="IAddTestData&lt;TTestData&gt;" data-compartment="1">
							<g transform="translate(8, 8)" fill="#33322E" text-align="left" data-name="IAddTestData&lt;TTestData&gt;" data-compartment="1">
								<text x="0.0" y="14.1" stroke="none" data-name="IAddTestData&lt;TTestData&gt;" data-compartment="1">void Add(TTestData)</text>
								
							</g>
						</g>
					</g>
					<g data-name="IDataRowHolder">
						<g fill="#DCE8CF" stroke="#33322E" data-name="IDataRowHolder">
							<rect x="666.8" y="296.5" height="64.0" width="210.0" data-name="IDataRowHolder"></rect>
							<path d="M666.8 328.5 L876.8 328.5" fill="none" data-name="IDataRowHolder"></path>
						</g>
						<g transform="translate(666.75, 296.5)" font-family="Helvetica" font-size="12pt" font-weight="bold" font-style="italic" data-name="IDataRowHolder" data-compartment="0">
							<g transform="translate(8, 8)" fill="#33322E" text-align="center" data-name="IDataRowHolder" data-compartment="0">
								<text x="97.0" y="14.1" stroke="none" text-anchor="middle" data-name="IDataRowHolder" data-compartment="0">IDataRowHolder</text>
								
							</g>
						</g>
						<g transform="translate(666.75, 328.5)" font-family="Helvetica" font-size="12pt" font-weight="normal" font-style="italic" data-name="IDataRowHolder" data-compartment="1">
							<g transform="translate(8, 8)" fill="#33322E" text-align="left" data-name="IDataRowHolder" data-compartment="1">
								<text x="0.0" y="14.1" stroke="none" data-name="IDataRowHolder" data-compartment="1">IDataStrategy DataStrategy</text>
								
							</g>
						</g>
					</g>
					<g data-name="IDataRowHolder&lt;TRow&gt;">
						<g fill="#DCE8CF" stroke="#33322E" data-name="IDataRowHolder&lt;TRow&gt;">
							<rect x="483.5" y="441.0" height="64.0" width="442.0" data-name="IDataRowHolder&lt;TRow&gt;"></rect>
							<path d="M483.5 473.0 L925.5 473.0" fill="none" data-name="IDataRowHolder&lt;TRow&gt;"></path>
						</g>
						<g transform="translate(483.5, 441)" font-family="Helvetica" font-size="12pt" font-weight="bold" font-style="italic" data-name="IDataRowHolder&lt;TRow&gt;" data-compartment="0">
							<g transform="translate(8, 8)" fill="#33322E" text-align="center" data-name="IDataRowHolder&lt;TRow&gt;" data-compartment="0">
								<text x="213.0" y="14.1" stroke="none" text-anchor="middle" data-name="IDataRowHolder&lt;TRow&gt;" data-compartment="0">IDataRowHolder&lt;TRow&gt;</text>
								
							</g>
						</g>
						<g transform="translate(483.5, 473)" font-family="Helvetica" font-size="12pt" font-weight="normal" font-style="italic" data-name="IDataRowHolder&lt;TRow&gt;" data-compartment="1">
							<g transform="translate(8, 8)" fill="#33322E" text-align="left" data-name="IDataRowHolder&lt;TRow&gt;" data-compartment="1">
								<text x="0.0" y="14.1" stroke="none" data-name="IDataRowHolder&lt;TRow&gt;" data-compartment="1">IDataRowHolder&lt;TRow&gt; GetDataRowHolder(IDataStrategy)</text>
								
							</g>
						</g>
					</g>
					<g data-name="IDataRowHolder&lt;TRow, TTestData&gt;">
						<g fill="#DCE8CF" stroke="#33322E" data-name="IDataRowHolder&lt;TRow, TTestData&gt;">
							<rect x="561.0" y="545.0" height="64.0" width="327.0" data-name="IDataRowHolder&lt;TRow, TTestData&gt;"></rect>
							<path d="M561.0 577.0 L888.0 577.0" fill="none" data-name="IDataRowHolder&lt;TRow, TTestData&gt;"></path>
						</g>
						<g transform="translate(561, 545)" font-family="Helvetica" font-size="12pt" font-weight="bold" font-style="italic" data-name="IDataRowHolder&lt;TRow, TTestData&gt;" data-compartment="0">
							<g transform="translate(8, 8)" fill="#33322E" text-align="center" data-name="IDataRowHolder&lt;TRow, TTestData&gt;" data-compartment="0">
								<text x="155.5" y="14.1" stroke="none" text-anchor="middle" data-name="IDataRowHolder&lt;TRow, TTestData&gt;" data-compartment="0">IDataRowHolder&lt;TRow, TTestData&gt;</text>
								
							</g>
						</g>
						<g transform="translate(561, 577)" font-family="Helvetica" font-size="12pt" font-weight="normal" font-style="italic" data-name="IDataRowHolder&lt;TRow, TTestData&gt;" data-compartment="1">
							<g transform="translate(8, 8)" fill="#33322E" text-align="left" data-name="IDataRowHolder&lt;TRow, TTestData&gt;" data-compartment="1">
								<text x="0.0" y="14.1" stroke="none" data-name="IDataRowHolder&lt;TRow, TTestData&gt;" data-compartment="1">void Add(ITestDataRow&lt;TRow, TTestData&gt;)</text>
								
							</g>
						</g>
					</g>
					<g data-name="DataRowHolder&lt;TRow, TTestData&gt;">
						<g fill="#C9DEEF" stroke="#33322E" data-name="DataRowHolder&lt;TRow, TTestData&gt;">
							<rect x="1063.3" y="441.0" height="64.0" width="476.0" data-name="DataRowHolder&lt;TRow, TTestData&gt;"></rect>
							<path d="M1063.3 473.0 L1539.3 473.0" fill="none" data-name="DataRowHolder&lt;TRow, TTestData&gt;"></path>
						</g>
						<g transform="translate(1063.25, 441)" font-family="Helvetica" font-size="12pt" font-weight="bold" font-style="italic" data-name="DataRowHolder&lt;TRow, TTestData&gt;" data-compartment="0">
							<g transform="translate(8, 8)" fill="#33322E" text-align="center" data-name="DataRowHolder&lt;TRow, TTestData&gt;" data-compartment="0">
								<text x="230.0" y="14.1" stroke="none" text-anchor="middle" data-name="DataRowHolder&lt;TRow, TTestData&gt;" data-compartment="0">DataRowHolder&lt;TRow, TTestData&gt;</text>
								
							</g>
						</g>
						<g transform="translate(1063.25, 473)" font-family="Helvetica" font-size="12pt" font-weight="normal" font-style="normal" data-name="DataRowHolder&lt;TRow, TTestData&gt;" data-compartment="1">
							<g transform="translate(8, 8)" fill="#33322E" text-align="left" data-name="DataRowHolder&lt;TRow, TTestData&gt;" data-compartment="1">
								<text x="0.0" y="14.1" stroke="none" data-name="DataRowHolder&lt;TRow, TTestData&gt;" data-compartment="1">- readonly List&lt;ITestDataRow&lt;TRow, TTestData&gt;&gt; testDataRows</text>
								
							</g>
						</g>
					</g>
					<g data-name="ITestDataRow&lt;TRow, TTestData&gt;">
						<g fill="#DCE8CF" stroke="#33322E" data-name="ITestDataRow&lt;TRow, TTestData&gt;">
							<rect x="1495.3" y="1161.0" height="64.0" width="265.0" data-name="ITestDataRow&lt;TRow, TTestData&gt;"></rect>
							<path d="M1495.3 1193.0 L1760.3 1193.0" fill="none" data-name="ITestDataRow&lt;TRow, TTestData&gt;"></path>
						</g>
						<g transform="translate(1495.25, 1161)" font-family="Helvetica" font-size="12pt" font-weight="bold" font-style="italic" data-name="ITestDataRow&lt;TRow, TTestData&gt;" data-compartment="0">
							<g transform="translate(8, 8)" fill="#33322E" text-align="center" data-name="ITestDataRow&lt;TRow, TTestData&gt;" data-compartment="0">
								<text x="124.5" y="14.1" stroke="none" text-anchor="middle" data-name="ITestDataRow&lt;TRow, TTestData&gt;" data-compartment="0">ITestDataRow&lt;TRow, TTestData&gt;</text>
								
							</g>
						</g>
						<g transform="translate(1495.25, 1193)" font-family="Helvetica" font-size="12pt" font-weight="normal" font-style="italic" data-name="ITestDataRow&lt;TRow, TTestData&gt;" data-compartment="1">
							<g transform="translate(8, 8)" fill="#33322E" text-align="left" data-name="ITestDataRow&lt;TRow, TTestData&gt;" data-compartment="1">
								<text x="0.0" y="14.1" stroke="none" data-name="ITestDataRow&lt;TRow, TTestData&gt;" data-compartment="1">TTestData TestData</text>
								
							</g>
						</g>
					</g>
					<g data-name="ITestDataRow&lt;TRow&gt;">
						<g fill="#DCE8CF" stroke="#33322E" data-name="ITestDataRow&lt;TRow&gt;">
							<rect x="1439.0" y="945.0" height="64.0" width="225.0" data-name="ITestDataRow&lt;TRow&gt;"></rect>
							<path d="M1439.0 977.0 L1664.0 977.0" fill="none" data-name="ITestDataRow&lt;TRow&gt;"></path>
						</g>
						<g transform="translate(1439, 945)" font-family="Helvetica" font-size="12pt" font-weight="bold" font-style="italic" data-name="ITestDataRow&lt;TRow&gt;" data-compartment="0">
							<g transform="translate(8, 8)" fill="#33322E" text-align="center" data-name="ITestDataRow&lt;TRow&gt;" data-compartment="0">
								<text x="104.5" y="14.1" stroke="none" text-anchor="middle" data-name="ITestDataRow&lt;TRow&gt;" data-compartment="0">ITestDataRow&lt;TRow&gt;</text>
								
							</g>
						</g>
						<g transform="translate(1439, 977)" font-family="Helvetica" font-size="12pt" font-weight="normal" font-style="italic" data-name="ITestDataRow&lt;TRow&gt;" data-compartment="1">
							<g transform="translate(8, 8)" fill="#33322E" text-align="left" data-name="ITestDataRow&lt;TRow&gt;" data-compartment="1">
								<text x="0.0" y="14.1" stroke="none" data-name="ITestDataRow&lt;TRow&gt;" data-compartment="1">TRow Convert(IDataStrategy)</text>
								
							</g>
						</g>
					</g>
					<g data-name="TestDataRow&lt;TRow, TTestData&gt;">
						<g fill="#C9DEEF" stroke="#33322E" data-name="TestDataRow&lt;TRow, TTestData&gt;">
							<rect x="1497.3" y="1265.0" height="32.0" width="261.0" data-name="TestDataRow&lt;TRow, TTestData&gt;"></rect>
						</g>
						<g transform="translate(1497.25, 1265)" font-family="Helvetica" font-size="12pt" font-weight="bold" font-style="italic" data-name="TestDataRow&lt;TRow, TTestData&gt;" data-compartment="0">
							<g transform="translate(8, 8)" fill="#33322E" text-align="center" data-name="TestDataRow&lt;TRow, TTestData&gt;" data-compartment="0">
								<text x="122.5" y="14.1" stroke="none" text-anchor="middle" data-name="TestDataRow&lt;TRow, TTestData&gt;" data-compartment="0">TestDataRow&lt;TRow, TTestData&gt;</text>
								
							</g>
						</g>
					</g>
					<g data-name="TTestData">
						<g fill="#C9DEEF" stroke="#33322E" data-name="TTestData">
							<rect x="407.0" y="1073.0" height="48.0" width="216.0" data-name="TTestData"></rect>
						</g>
						<g transform="translate(407, 1073)" font-family="Helvetica" font-size="12pt" font-weight="bold" font-style="normal" data-name="TTestData" data-compartment="0">
							<g transform="translate(8, 8)" fill="#33322E" text-align="center" data-name="TTestData" data-compartment="0">
								<text x="100.0" y="14.1" stroke="none" text-anchor="middle" data-name="TTestData" data-compartment="0">TTestData</text>
								<text x="100.0" y="30.3" stroke="none" text-anchor="middle" data-name="TTestData" data-compartment="0">(concrete generic records)</text>
								
							</g>
						</g>
					</g>
					<g data-name="IReadonlyCollection&lt;ITestDataRow&gt;">
						<g fill="#DCE8CF" stroke="#33322E" data-name="IReadonlyCollection&lt;ITestDataRow&gt;">
							<rect x="1129.3" y="649.0" height="112.0" width="344.0" data-name="IReadonlyCollection&lt;ITestDataRow&gt;"></rect>
							<path d="M1129.3 681.0 L1473.3 681.0" fill="none" data-name="IReadonlyCollection&lt;ITestDataRow&gt;"></path>
							<path d="M1129.3 713.0 L1473.3 713.0" fill="none" data-name="IReadonlyCollection&lt;ITestDataRow&gt;"></path>
						</g>
						<g transform="translate(1129.25, 649)" font-family="Helvetica" font-size="12pt" font-weight="bold" font-style="italic" data-name="IReadonlyCollection&lt;ITestDataRow&gt;" data-compartment="0">
							<g transform="translate(8, 8)" fill="#33322E" text-align="center" data-name="IReadonlyCollection&lt;ITestDataRow&gt;" data-compartment="0">
								<text x="164.0" y="14.1" stroke="none" text-anchor="middle" data-name="IReadonlyCollection&lt;ITestDataRow&gt;" data-compartment="0">IReadonlyCollection&lt;ITestDataRow&gt;</text>
								
							</g>
						</g>
						<g transform="translate(1129.25, 681)" font-family="Helvetica" font-size="12pt" font-weight="normal" font-style="italic" data-name="IReadonlyCollection&lt;ITestDataRow&gt;" data-compartment="1">
							<g transform="translate(8, 8)" fill="#33322E" text-align="left" data-name="IReadonlyCollection&lt;ITestDataRow&gt;" data-compartment="1">
								<text x="0.0" y="14.1" stroke="none" data-name="IReadonlyCollection&lt;ITestDataRow&gt;" data-compartment="1">int Count</text>
								
							</g>
						</g>
						<g transform="translate(1129.25, 713)" font-family="Helvetica" font-size="12pt" font-weight="normal" font-style="italic" data-name="IReadonlyCollection&lt;ITestDataRow&gt;" data-compartment="2">
							<g transform="translate(8, 8)" fill="#33322E" text-align="left" data-name="IReadonlyCollection&lt;ITestDataRow&gt;" data-compartment="2">
								<text x="0.0" y="14.1" stroke="none" data-name="IReadonlyCollection&lt;ITestDataRow&gt;" data-compartment="2">IEnumerator&lt;ITestDataRow&gt; GetEnumerator()</text>
								<text x="0.0" y="30.3" stroke="none" data-name="IReadonlyCollection&lt;ITestDataRow&gt;" data-compartment="2">IEnumerator GetEnumerator()</text>
								
							</g>
						</g>
					</g>
					<g data-name="ITestDataRow">
						<g fill="#DCE8CF" stroke="#33322E" data-name="ITestDataRow">
							<rect x="1003.0" y="801.0" height="80.0" width="295.0" data-name="ITestDataRow"></rect>
							<path d="M1003.0 833.0 L1298.0 833.0" fill="none" data-name="ITestDataRow"></path>
						</g>
						<g transform="translate(1003, 801)" font-family="Helvetica" font-size="12pt" font-weight="bold" font-style="italic" data-name="ITestDataRow" data-compartment="0">
							<g transform="translate(8, 8)" fill="#33322E" text-align="center" data-name="ITestDataRow" data-compartment="0">
								<text x="139.5" y="14.1" stroke="none" text-anchor="middle" data-name="ITestDataRow" data-compartment="0">ITestDataRow</text>
								
							</g>
						</g>
						<g transform="translate(1003, 833)" font-family="Helvetica" font-size="12pt" font-weight="normal" font-style="italic" data-name="ITestDataRow" data-compartment="1">
							<g transform="translate(8, 8)" fill="#33322E" text-align="left" data-name="ITestDataRow" data-compartment="1">
								<text x="0.0" y="14.1" stroke="none" data-name="ITestDataRow" data-compartment="1">object?array GetParams(IDataStrategy)</text>
								<text x="0.0" y="30.3" stroke="none" data-name="ITestDataRow" data-compartment="1">ITestData GetTestData()</text>
								
							</g>
						</g>
					</g>
				</g>
			</g>
		</g>
	</g>
</svg>