<svg version="1.1" baseProfile="full" width="1743.0" height="793.0" viewBox="0 0 1743 793" xmlns="http://www.w3.org/2000/svg" xmlns:xlink="http://www.w3.org/1999/xlink" xmlns:ev="http://www.w3.org/2001/xml-events">
	<title >CsabaDu_DynamicTestData_Pattern-_Composite</title>
	<desc >
	
	#title: CsabaDu_DynamicTestData_Pattern-_Composite
	#direction: down
	#.contract: fill=#DCE8CF title=center,italic,bold body=left,italic visual=class
	#.concrete: fill=#C9DEEF title=center,bold body=left visual=class
	#.abstract: fill=#C9DEEF title=center,bold,italic body=left visual=class
	
	
	[&lt;concrete&gt;
	DataStrategy |
	- static readonly HashSet&lt;DataStrategy&gt; DataStrategies |
	+ int GetHashCode()
	+ static IDataStrategy GetStoredDataStrategy(ArgsCode, PropsCode)
	+ static IDataStrategy GetStoredDataStrategy(IDataStrategy)
	+ static IDataStrategy GetStoredDataStrategy(ArgsCode?, IDataStrategy)]
	
	[&lt;contract&gt;
	IDataStrategy |
	ArgsCode ArgsCode
	PropsCode PropsCode]
	
	[&lt;abstract&gt;
	DynamicDataRowSource&lt;TDataRowHolder, TRow&gt; |
	&apos;# TDataRowHolde DataHolder |
	
	&apos;# void InitDataHolder&lt;TTestData&gt;(TTestData)]
	
	[&lt;contract&gt;
	IAddTestData&lt;TTestData&gt; |
	void Add(TTestData)]
	
	[&lt;contract&gt;
	IDataRowHolder&lt;TRow, TTestData&gt; |
	IDataRowHolder&lt;TRow&gt; GetDataRowHolder(IDataStrategy)]
	
	[&lt;abstract&gt;
	DataRowHolder&lt;TRow, TTestData&gt; |
	- readonly List&lt;ITestDataRow&lt;TRow, TTestData&gt;&gt; testDataRows]
	
	[&lt;contract&gt;
	ITestDataRow&lt;TRow, TTestData&gt; |
	TTestData TestData]
	
	[&lt;abstract&gt;
	TestDataRow&lt;TRow, TTestData&gt;]
	
	[&lt;concrete&gt;
	TTestData
	(concrete generic records)]
	
	[&lt;contract&gt;
	IReadonlyCollection&lt;ITestDataRow&gt; |
	int Count |
	IEnumerator&lt;ITestDataRow&gt; GetEnumerator()
	IEnumerator GetEnumerator()]
	
	
	
	
	
	[IDataStrategy] &lt;-o returns, uses
	[DataRowHolder&lt;TRow, TTestData&gt;]
	[IDataStrategy]
	
	[IDataStrategy] &lt;-- implements
	[DataStrategy] uses (as DataStrategy cache) &lt;-o
	[IDataRowHolder&lt;TRow, TTestData&gt;]
	
	[DynamicDataRowSource&lt;TDataRowHolder, TRow&gt;] has
	(generic constraint) +-&gt;
	[IDataRowHolder&lt;TRow, TTestData&gt;]
	
	[IDataStrategy] &lt;-+ has
	[IDataRowHolder&lt;TRow, TTestData&gt;]
	
	[IDataStrategy] &lt;:-- implements
	[DynamicDataRowSource&lt;TDataRowHolder, TRow&gt;] o-&gt; uses
	[TTestData]
	
	[IDataRowHolder&lt;TRow, TTestData&gt;] &lt;:-- implements
	[DataRowHolder&lt;TRow, TTestData&gt;]
	
	[IReadonlyCollection&lt;ITestDataRow&gt;] &lt;:- extends
	[IDataRowHolder&lt;TRow, TTestData&gt;]
	[IReadonlyCollection&lt;ITestDataRow&gt;]
	
	[IDataRowHolder&lt;TRow, TTestData&gt;] uses o-&gt;
	[TTestData]
	
	[IAddTestData&lt;TTestData&gt;]
	[IDataRowHolder&lt;TRow, TTestData&gt;] -:&gt; extends
	[IAddTestData&lt;TTestData&gt;]
	
	[IAddTestData&lt;TTestData&gt;] uses o-&gt;
	[TTestData]
	
	[TestDataRow&lt;TRow, TTestData&gt;]
	[ITestDataRow&lt;TRow, TTestData&gt;] &lt;:-- implements
	[TestDataRow&lt;TRow, TTestData&gt;]
	
	[TTestData] has &lt;-+
	[ITestDataRow&lt;TRow, TTestData&gt;]
	[TTestData]
	
	[DataRowHolder&lt;TRow, TTestData&gt;] has +-&gt;
	[ITestDataRow&lt;TRow, TTestData&gt;]
	
	
	</desc>
	<g stroke-width="1.0" text-align="left" font="12pt Helvetica, Arial, sans-serif" font-size="12pt" font-family="Helvetica" font-weight="normal" font-style="normal">
		<g font-family="Helvetica" font-size="12pt" font-weight="bold" font-style="normal" stroke-width="3.0" stroke-linejoin="round" stroke-linecap="round" stroke="#33322E">
			<g stroke="transparent" fill="transparent">
				<rect x="0.0" y="0.0" height="793.0" width="1743.0" stroke="none"></rect>
			</g>
			<g transform="translate(8, 8)" fill="#33322E">
				<g transform="translate(20, 20)" fill="#33322E" font-family="Helvetica" font-size="12pt" font-weight="normal" font-style="normal">
					<text x="138.5" y="401.0" stroke="none">returns, uses</text>
					<path d="M758.6 49.4 L238 100 L238 192.5 L238 192.5 L238 285 L238 285 L238 337 L238 337 L238 389 L238 389 L238 390.3333333333333 L238.0 390.3 " fill="none"></path>
					<g fill="#eee8d5">
						<path d="M232.7 399.7 L238.0 390.3 L243.3 399.7 L238.0 409.0 Z"></path>
					</g>
					<path d="M752.5 55.3 L758.6 49.4 L751.5 44.7 L765.3 48.7 Z"></path>
					<text x="455.6" y="112.0" stroke="none">implements</text>
					<g stroke-dasharray="6 6">
						<path d="M758.7 58.6 L544.5 100 L544.5 120 L544.5 120.0 " fill="none"></path>
					</g>
					<path d="M753.2 65.1 L758.7 58.6 L751.1 54.6 L765.3 57.3 Z"></path>
					<text x="327.9" y="285.0" stroke="none">uses (as DataStrategy cache)</text>
					<path d="M544.5 271.7 L544.5 285 L874.4106638185865 315.12353734603425 L874.4 315.1 " fill="none"></path>
					<g fill="#eee8d5">
						<path d="M883.2 321.3 L874.4 315.1 L884.2 310.7 L893.0 316.8 Z"></path>
					</g>
					<path d="M549.8 278.3 L544.5 271.7 L539.2 278.3 L544.5 265.0 Z"></path>
					<text x="1436.7" y="260.5" stroke="none">has
					(generic constraint)</text>
					<path d="M1414.3 252.5 L1375.5 285 L1281.4617200084551 303.69977269430336 L1281.5 303.7 " fill="none"></path>
					<path d="M1287.0 297.2 L1281.5 303.7 L1289.0 307.6 L1274.9 305.0 Z"></path>
					<g fill="#33322E">
						<path d="M1424.9 250.6 L1414.3 252.5 L1418.1 242.4 L1428.7 240.5 Z"></path>
					</g>
					<text x="1196.5" y="297.0" stroke="none">has</text>
					<path d="M950.8 55.2 L1235 100 L1235 192.5 L1235 192.5 L1235 285 L1235 285 L1205.6115726646735 297.62973736724774 L1205.6 297.6 " fill="none"></path>
					<g fill="#33322E">
						<path d="M1194.9 296.4 L1205.6 297.6 L1199.1 306.2 L1188.5 305.0 Z"></path>
					</g>
					<path d="M958.3 50.9 L950.8 55.2 L956.6 61.5 L944.3 54.1 Z"></path>
					<text x="1494.0" y="136.5" stroke="none">implements</text>
					<g stroke-dasharray="6 6">
						<path d="M957.5 49.8 L1486 100 L1486 144.5 L1486.0 144.5 " fill="none"></path>
					</g>
					<path d="M958.0 44.5 L957.5 49.8 L957.0 55.1 L944.3 48.5 Z"></path>
					<text x="1369.3" y="505.6" stroke="none">uses</text>
					<path d="M1500.3 258.7 L1506 285 L1506 337 L1506 337 L1506 389 L1506 389 L1506 441 L1506 441 L1506 493 L1506 493 L1417.2657362888574 512.2093855020431 L1417.3 512.2 " fill="none"></path>
					<path d="M1422.7 505.6 L1417.3 512.2 L1424.9 516.0 L1410.8 513.6 Z"></path>
					<g fill="#eee8d5">
						<path d="M1503.6 248.5 L1500.3 258.7 L1493.1 250.7 L1496.4 240.5 Z"></path>
					</g>
					<text x="243.4" y="401.0" stroke="none">implements</text>
					<g stroke-dasharray="6 6">
						<path d="M879.7 353.9 L391.25 389 L332.3076923076923 409 L332.3 409.0 " fill="none"></path>
					</g>
					<path d="M880.1 359.2 L879.7 353.9 L879.3 348.5 L893.0 352.9 Z"></path>
					<text x="1066.0" y="297.0" stroke="none">extends</text>
					<path d="M1023.0 261.8 L1023 285 L1058 305 L1058.0 305.0 " fill="none"></path>
					<path d="M1028.3 261.8 L1023.0 261.8 L1017.7 261.8 L1023.0 248.5 Z"></path>
					<text x="928.9" y="389.0" stroke="none">uses</text>
					<path d="M952.1 373.1 L880.5 389 L880.5 441 L880.5 441 L880.5 493 L880.5 493 L1188.119235896415 525.0550535925216 L1188.1 525.1 " fill="none"></path>
					<path d="M1180.9 529.7 L1188.1 525.1 L1182.0 519.1 L1194.8 525.7 Z"></path>
					<g fill="#eee8d5">
						<path d="M962.4 376.2 L952.1 373.1 L960.0 365.8 L970.3 369.0 Z"></path>
					</g>
					<text x="1368.5" y="401.0" stroke="none">extends</text>
					<path d="M1265.7 369.0 L1360.5 389 L1360.5 395.6666666666667 L1360.5 395.7 " fill="none"></path>
					<path d="M1355.2 395.7 L1360.5 395.7 L1365.8 395.7 L1360.5 409.0 Z"></path>
					<text x="1368.5" y="493.0" stroke="none">uses</text>
					<path d="M1360.5 491.7 L1360.5 493 L1339.55287813355 508.95971189824763 L1339.6 509.0 " fill="none"></path>
					<path d="M1341.6 500.7 L1339.6 509.0 L1348.1 509.2 L1334.3 513.0 Z"></path>
					<g fill="#eee8d5">
						<path d="M1365.8 482.3 L1360.5 491.7 L1355.2 482.3 L1360.5 473.0 Z"></path>
					</g>
					<text x="647.6" y="697.0" stroke="none">implements</text>
					<g stroke-dasharray="6 6">
						<path d="M736.5 678.3 L736.5 685 L736.5 705 L736.5 705.0 " fill="none"></path>
					</g>
					<path d="M741.8 678.3 L736.5 678.3 L731.2 678.3 L736.5 665.0 Z"></path>
					<text x="1310.8" y="581.0" stroke="none">has</text>
					<path d="M1302.8 567.7 L1302.75 581 L887.588451542561 619.1252106309702 L887.6 619.1 " fill="none"></path>
					<g fill="#33322E">
						<path d="M877.8 614.7 L887.6 619.1 L878.8 625.3 L869.0 620.8 Z"></path>
					</g>
					<path d="M1308.1 574.3 L1302.8 567.7 L1297.4 574.3 L1302.8 561.0 Z"></path>
					<text x="204.5" y="493.0" stroke="none">has</text>
					<path d="M238.0 491.7 L238 493 L238 537 L238 537 L238 581 L238 581 L597.3693106220448 618.4868689114269 L597.4 618.5 " fill="none"></path>
					<path d="M590.2 623.1 L597.4 618.5 L591.3 612.5 L604.0 619.2 Z"></path>
					<g fill="#33322E">
						<path d="M243.3 482.3 L238.0 491.7 L232.7 482.3 L238.0 473.0 Z"></path>
					</g>
					<g data-name="DataStrategy">
						<g fill="#C9DEEF" stroke="#33322E" data-name="DataStrategy">
							<rect x="278.0" y="120.0" height="145.0" width="533.0" data-name="DataStrategy"></rect>
							<path d="M278.0 152.0 L811.0 152.0" fill="none" data-name="DataStrategy"></path>
							<path d="M278.0 184.0 L811.0 184.0" fill="none" data-name="DataStrategy"></path>
						</g>
						<g transform="translate(278, 120)" font-family="Helvetica" font-size="12pt" font-weight="bold" font-style="normal" data-name="DataStrategy" data-compartment="0">
							<g transform="translate(8, 8)" fill="#33322E" text-align="center" data-name="DataStrategy" data-compartment="0">
								<text x="258.5" y="14.1" stroke="none" text-anchor="middle" data-name="DataStrategy" data-compartment="0">DataStrategy</text>
								
							</g>
						</g>
						<g transform="translate(278, 152)" font-family="Helvetica" font-size="12pt" font-weight="normal" font-style="normal" data-name="DataStrategy" data-compartment="1">
							<g transform="translate(8, 8)" fill="#33322E" text-align="left" data-name="DataStrategy" data-compartment="1">
								<text x="0.0" y="14.1" stroke="none" data-name="DataStrategy" data-compartment="1">- static readonly HashSet&lt;DataStrategy&gt; DataStrategies</text>
								
							</g>
						</g>
						<g transform="translate(278, 184)" font-family="Helvetica" font-size="12pt" font-weight="normal" font-style="normal" data-name="DataStrategy" data-compartment="2">
							<g transform="translate(8, 8)" fill="#33322E" text-align="left" data-name="DataStrategy" data-compartment="2">
								<text x="0.0" y="14.1" stroke="none" data-name="DataStrategy" data-compartment="2">+ int GetHashCode()</text>
								<text x="0.0" y="30.3" stroke="none" data-name="DataStrategy" data-compartment="2">+ static IDataStrategy GetStoredDataStrategy(ArgsCode, PropsCode)</text>
								<text x="0.0" y="46.5" stroke="none" data-name="DataStrategy" data-compartment="2">+ static IDataStrategy GetStoredDataStrategy(IDataStrategy)</text>
								<text x="0.0" y="62.7" stroke="none" data-name="DataStrategy" data-compartment="2">+ static IDataStrategy GetStoredDataStrategy(ArgsCode?, IDataStrategy)</text>
								
							</g>
						</g>
					</g>
					<g data-name="IDataStrategy">
						<g fill="#DCE8CF" stroke="#33322E" data-name="IDataStrategy">
							<rect x="765.3" y="0.0" height="80.0" width="179.0" data-name="IDataStrategy"></rect>
							<path d="M765.3 32.0 L944.3 32.0" fill="none" data-name="IDataStrategy"></path>
						</g>
						<g transform="translate(765.25, 0)" font-family="Helvetica" font-size="12pt" font-weight="bold" font-style="italic" data-name="IDataStrategy" data-compartment="0">
							<g transform="translate(8, 8)" fill="#33322E" text-align="center" data-name="IDataStrategy" data-compartment="0">
								<text x="81.5" y="14.1" stroke="none" text-anchor="middle" data-name="IDataStrategy" data-compartment="0">IDataStrategy</text>
								
							</g>
						</g>
						<g transform="translate(765.25, 32)" font-family="Helvetica" font-size="12pt" font-weight="normal" font-style="italic" data-name="IDataStrategy" data-compartment="1">
							<g transform="translate(8, 8)" fill="#33322E" text-align="left" data-name="IDataStrategy" data-compartment="1">
								<text x="0.0" y="14.1" stroke="none" data-name="IDataStrategy" data-compartment="1">ArgsCode ArgsCode</text>
								<text x="0.0" y="30.3" stroke="none" data-name="IDataStrategy" data-compartment="1">PropsCode PropsCode</text>
								
							</g>
						</g>
					</g>
					<g data-name="DynamicDataRowSource&lt;TDataRowHolder, TRow&gt;">
						<g fill="#C9DEEF" stroke="#33322E" data-name="DynamicDataRowSource&lt;TDataRowHolder, TRow&gt;">
							<rect x="1285.0" y="144.5" height="96.0" width="402.0" data-name="DynamicDataRowSource&lt;TDataRowHolder, TRow&gt;"></rect>
							<path d="M1285.0 176.5 L1687.0 176.5" fill="none" data-name="DynamicDataRowSource&lt;TDataRowHolder, TRow&gt;"></path>
							<path d="M1285.0 208.5 L1687.0 208.5" fill="none" data-name="DynamicDataRowSource&lt;TDataRowHolder, TRow&gt;"></path>
						</g>
						<g transform="translate(1285, 144.5)" font-family="Helvetica" font-size="12pt" font-weight="bold" font-style="italic" data-name="DynamicDataRowSource&lt;TDataRowHolder, TRow&gt;" data-compartment="0">
							<g transform="translate(8, 8)" fill="#33322E" text-align="center" data-name="DynamicDataRowSource&lt;TDataRowHolder, TRow&gt;" data-compartment="0">
								<text x="193.0" y="14.1" stroke="none" text-anchor="middle" data-name="DynamicDataRowSource&lt;TDataRowHolder, TRow&gt;" data-compartment="0">DynamicDataRowSource&lt;TDataRowHolder, TRow&gt;</text>
								
							</g>
						</g>
						<g transform="translate(1285, 176.5)" font-family="Helvetica" font-size="12pt" font-weight="normal" font-style="normal" data-name="DynamicDataRowSource&lt;TDataRowHolder, TRow&gt;" data-compartment="1">
							<g transform="translate(8, 8)" fill="#33322E" text-align="left" data-name="DynamicDataRowSource&lt;TDataRowHolder, TRow&gt;" data-compartment="1">
								<text x="0.0" y="14.1" stroke="none" data-name="DynamicDataRowSource&lt;TDataRowHolder, TRow&gt;" data-compartment="1"># TDataRowHolde DataHolder</text>
								
							</g>
						</g>
						<g transform="translate(1285, 208.5)" font-family="Helvetica" font-size="12pt" font-weight="normal" font-style="normal" data-name="DynamicDataRowSource&lt;TDataRowHolder, TRow&gt;" data-compartment="2">
							<g transform="translate(8, 8)" fill="#33322E" text-align="left" data-name="DynamicDataRowSource&lt;TDataRowHolder, TRow&gt;" data-compartment="2">
								<text x="0.0" y="14.1" stroke="none" data-name="DynamicDataRowSource&lt;TDataRowHolder, TRow&gt;" data-compartment="2"># void InitDataHolder&lt;TTestData&gt;(TTestData)</text>
								
							</g>
						</g>
					</g>
					<g data-name="IAddTestData&lt;TTestData&gt;">
						<g fill="#DCE8CF" stroke="#33322E" data-name="IAddTestData&lt;TTestData&gt;">
							<rect x="1255.0" y="409.0" height="64.0" width="211.0" data-name="IAddTestData&lt;TTestData&gt;"></rect>
							<path d="M1255.0 441.0 L1466.0 441.0" fill="none" data-name="IAddTestData&lt;TTestData&gt;"></path>
						</g>
						<g transform="translate(1255, 409)" font-family="Helvetica" font-size="12pt" font-weight="bold" font-style="italic" data-name="IAddTestData&lt;TTestData&gt;" data-compartment="0">
							<g transform="translate(8, 8)" fill="#33322E" text-align="center" data-name="IAddTestData&lt;TTestData&gt;" data-compartment="0">
								<text x="97.5" y="14.1" stroke="none" text-anchor="middle" data-name="IAddTestData&lt;TTestData&gt;" data-compartment="0">IAddTestData&lt;TTestData&gt;</text>
								
							</g>
						</g>
						<g transform="translate(1255, 441)" font-family="Helvetica" font-size="12pt" font-weight="normal" font-style="italic" data-name="IAddTestData&lt;TTestData&gt;" data-compartment="1">
							<g transform="translate(8, 8)" fill="#33322E" text-align="left" data-name="IAddTestData&lt;TTestData&gt;" data-compartment="1">
								<text x="0.0" y="14.1" stroke="none" data-name="IAddTestData&lt;TTestData&gt;" data-compartment="1">void Add(TTestData)</text>
								
							</g>
						</g>
					</g>
					<g data-name="IDataRowHolder&lt;TRow, TTestData&gt;">
						<g fill="#DCE8CF" stroke="#33322E" data-name="IDataRowHolder&lt;TRow, TTestData&gt;">
							<rect x="893.0" y="305.0" height="64.0" width="442.0" data-name="IDataRowHolder&lt;TRow, TTestData&gt;"></rect>
							<path d="M893.0 337.0 L1335.0 337.0" fill="none" data-name="IDataRowHolder&lt;TRow, TTestData&gt;"></path>
						</g>
						<g transform="translate(893, 305)" font-family="Helvetica" font-size="12pt" font-weight="bold" font-style="italic" data-name="IDataRowHolder&lt;TRow, TTestData&gt;" data-compartment="0">
							<g transform="translate(8, 8)" fill="#33322E" text-align="center" data-name="IDataRowHolder&lt;TRow, TTestData&gt;" data-compartment="0">
								<text x="213.0" y="14.1" stroke="none" text-anchor="middle" data-name="IDataRowHolder&lt;TRow, TTestData&gt;" data-compartment="0">IDataRowHolder&lt;TRow, TTestData&gt;</text>
								
							</g>
						</g>
						<g transform="translate(893, 337)" font-family="Helvetica" font-size="12pt" font-weight="normal" font-style="italic" data-name="IDataRowHolder&lt;TRow, TTestData&gt;" data-compartment="1">
							<g transform="translate(8, 8)" fill="#33322E" text-align="left" data-name="IDataRowHolder&lt;TRow, TTestData&gt;" data-compartment="1">
								<text x="0.0" y="14.1" stroke="none" data-name="IDataRowHolder&lt;TRow, TTestData&gt;" data-compartment="1">IDataRowHolder&lt;TRow&gt; GetDataRowHolder(IDataStrategy)</text>
								
							</g>
						</g>
					</g>
					<g data-name="DataRowHolder&lt;TRow, TTestData&gt;">
						<g fill="#C9DEEF" stroke="#33322E" data-name="DataRowHolder&lt;TRow, TTestData&gt;">
							<rect x="0.0" y="409.0" height="64.0" width="476.0" data-name="DataRowHolder&lt;TRow, TTestData&gt;"></rect>
							<path d="M0.0 441.0 L476.0 441.0" fill="none" data-name="DataRowHolder&lt;TRow, TTestData&gt;"></path>
						</g>
						<g transform="translate(0, 409)" font-family="Helvetica" font-size="12pt" font-weight="bold" font-style="italic" data-name="DataRowHolder&lt;TRow, TTestData&gt;" data-compartment="0">
							<g transform="translate(8, 8)" fill="#33322E" text-align="center" data-name="DataRowHolder&lt;TRow, TTestData&gt;" data-compartment="0">
								<text x="230.0" y="14.1" stroke="none" text-anchor="middle" data-name="DataRowHolder&lt;TRow, TTestData&gt;" data-compartment="0">DataRowHolder&lt;TRow, TTestData&gt;</text>
								
							</g>
						</g>
						<g transform="translate(0, 441)" font-family="Helvetica" font-size="12pt" font-weight="normal" font-style="normal" data-name="DataRowHolder&lt;TRow, TTestData&gt;" data-compartment="1">
							<g transform="translate(8, 8)" fill="#33322E" text-align="left" data-name="DataRowHolder&lt;TRow, TTestData&gt;" data-compartment="1">
								<text x="0.0" y="14.1" stroke="none" data-name="DataRowHolder&lt;TRow, TTestData&gt;" data-compartment="1">- readonly List&lt;ITestDataRow&lt;TRow, TTestData&gt;&gt; testDataRows</text>
								
							</g>
						</g>
					</g>
					<g data-name="ITestDataRow&lt;TRow, TTestData&gt;">
						<g fill="#DCE8CF" stroke="#33322E" data-name="ITestDataRow&lt;TRow, TTestData&gt;">
							<rect x="604.0" y="601.0" height="64.0" width="265.0" data-name="ITestDataRow&lt;TRow, TTestData&gt;"></rect>
							<path d="M604.0 633.0 L869.0 633.0" fill="none" data-name="ITestDataRow&lt;TRow, TTestData&gt;"></path>
						</g>
						<g transform="translate(604, 601)" font-family="Helvetica" font-size="12pt" font-weight="bold" font-style="italic" data-name="ITestDataRow&lt;TRow, TTestData&gt;" data-compartment="0">
							<g transform="translate(8, 8)" fill="#33322E" text-align="center" data-name="ITestDataRow&lt;TRow, TTestData&gt;" data-compartment="0">
								<text x="124.5" y="14.1" stroke="none" text-anchor="middle" data-name="ITestDataRow&lt;TRow, TTestData&gt;" data-compartment="0">ITestDataRow&lt;TRow, TTestData&gt;</text>
								
							</g>
						</g>
						<g transform="translate(604, 633)" font-family="Helvetica" font-size="12pt" font-weight="normal" font-style="italic" data-name="ITestDataRow&lt;TRow, TTestData&gt;" data-compartment="1">
							<g transform="translate(8, 8)" fill="#33322E" text-align="left" data-name="ITestDataRow&lt;TRow, TTestData&gt;" data-compartment="1">
								<text x="0.0" y="14.1" stroke="none" data-name="ITestDataRow&lt;TRow, TTestData&gt;" data-compartment="1">TTestData TestData</text>
								
							</g>
						</g>
					</g>
					<g data-name="TestDataRow&lt;TRow, TTestData&gt;">
						<g fill="#C9DEEF" stroke="#33322E" data-name="TestDataRow&lt;TRow, TTestData&gt;">
							<rect x="606.0" y="705.0" height="32.0" width="261.0" data-name="TestDataRow&lt;TRow, TTestData&gt;"></rect>
						</g>
						<g transform="translate(606, 705)" font-family="Helvetica" font-size="12pt" font-weight="bold" font-style="italic" data-name="TestDataRow&lt;TRow, TTestData&gt;" data-compartment="0">
							<g transform="translate(8, 8)" fill="#33322E" text-align="center" data-name="TestDataRow&lt;TRow, TTestData&gt;" data-compartment="0">
								<text x="122.5" y="14.1" stroke="none" text-anchor="middle" data-name="TestDataRow&lt;TRow, TTestData&gt;" data-compartment="0">TestDataRow&lt;TRow, TTestData&gt;</text>
								
							</g>
						</g>
					</g>
					<g data-name="TTestData">
						<g fill="#C9DEEF" stroke="#33322E" data-name="TTestData">
							<rect x="1194.8" y="513.0" height="48.0" width="216.0" data-name="TTestData"></rect>
						</g>
						<g transform="translate(1194.75, 513)" font-family="Helvetica" font-size="12pt" font-weight="bold" font-style="normal" data-name="TTestData" data-compartment="0">
							<g transform="translate(8, 8)" fill="#33322E" text-align="center" data-name="TTestData" data-compartment="0">
								<text x="100.0" y="14.1" stroke="none" text-anchor="middle" data-name="TTestData" data-compartment="0">TTestData</text>
								<text x="100.0" y="30.3" stroke="none" text-anchor="middle" data-name="TTestData" data-compartment="0">(concrete generic records)</text>
								
							</g>
						</g>
					</g>
					<g data-name="IReadonlyCollection&lt;ITestDataRow&gt;">
						<g fill="#DCE8CF" stroke="#33322E" data-name="IReadonlyCollection&lt;ITestDataRow&gt;">
							<rect x="851.0" y="136.5" height="112.0" width="344.0" data-name="IReadonlyCollection&lt;ITestDataRow&gt;"></rect>
							<path d="M851.0 168.5 L1195.0 168.5" fill="none" data-name="IReadonlyCollection&lt;ITestDataRow&gt;"></path>
							<path d="M851.0 200.5 L1195.0 200.5" fill="none" data-name="IReadonlyCollection&lt;ITestDataRow&gt;"></path>
						</g>
						<g transform="translate(851, 136.5)" font-family="Helvetica" font-size="12pt" font-weight="bold" font-style="italic" data-name="IReadonlyCollection&lt;ITestDataRow&gt;" data-compartment="0">
							<g transform="translate(8, 8)" fill="#33322E" text-align="center" data-name="IReadonlyCollection&lt;ITestDataRow&gt;" data-compartment="0">
								<text x="164.0" y="14.1" stroke="none" text-anchor="middle" data-name="IReadonlyCollection&lt;ITestDataRow&gt;" data-compartment="0">IReadonlyCollection&lt;ITestDataRow&gt;</text>
								
							</g>
						</g>
						<g transform="translate(851, 168.5)" font-family="Helvetica" font-size="12pt" font-weight="normal" font-style="italic" data-name="IReadonlyCollection&lt;ITestDataRow&gt;" data-compartment="1">
							<g transform="translate(8, 8)" fill="#33322E" text-align="left" data-name="IReadonlyCollection&lt;ITestDataRow&gt;" data-compartment="1">
								<text x="0.0" y="14.1" stroke="none" data-name="IReadonlyCollection&lt;ITestDataRow&gt;" data-compartment="1">int Count</text>
								
							</g>
						</g>
						<g transform="translate(851, 200.5)" font-family="Helvetica" font-size="12pt" font-weight="normal" font-style="italic" data-name="IReadonlyCollection&lt;ITestDataRow&gt;" data-compartment="2">
							<g transform="translate(8, 8)" fill="#33322E" text-align="left" data-name="IReadonlyCollection&lt;ITestDataRow&gt;" data-compartment="2">
								<text x="0.0" y="14.1" stroke="none" data-name="IReadonlyCollection&lt;ITestDataRow&gt;" data-compartment="2">IEnumerator&lt;ITestDataRow&gt; GetEnumerator()</text>
								<text x="0.0" y="30.3" stroke="none" data-name="IReadonlyCollection&lt;ITestDataRow&gt;" data-compartment="2">IEnumerator GetEnumerator()</text>
								
							</g>
						</g>
					</g>
				</g>
			</g>
		</g>
	</g>
</svg>