<svg version="1.1" baseProfile="full" width="3556.3" height="1016.0" viewBox="0 0 3556.25 1016" xmlns="http://www.w3.org/2000/svg" xmlns:xlink="http://www.w3.org/1999/xlink" xmlns:ev="http://www.w3.org/2001/xml-events">
	<title >CsabaDu_DynamicTestData_ExtensionPoints_simplified_horizontal</title>
	<desc >#title: CsabaDu_DynamicTestData_ExtensionPoints_simplified_horizontal
	#direction: right
	#.contract: fill=#DCE8CF title=center,italic,bold body=left,italic visual=class
	#.concrete: fill=#C9DEEF title=center,bold body=left visual=class
	#.abstract: fill=#C9DEEF title=center,bold,italic body=left visual=class
	
	
	
	[&lt;contract&gt;
	ITestDataRows]
	
	[&lt;abstract&gt;
	DynamicNamedDataRowSource&lt;TRow&gt;]
	
	[&lt;abstract&gt;
	DynamicDataSource]
	
	[&lt;contract&gt;
	ITestDataRow&lt;TRow, TTestData&gt;]
	
	[&lt;contract&gt;
	INamedTestDataRow&lt;TRow&gt;]
	
	[&lt;abstract&gt;
	TestDataRow&lt;TRow, TTestData&gt;]
	
	[&lt;contract&gt;
	ITestDataRow&lt;TRow&gt;]
	
	[&lt;abstract&gt;
	DynamicDataRowSource&lt;TRow&gt;]
	
	[&lt;abstract&gt;
	DynamicDataRowSource&lt;TDataRowHolder, TRow&gt;]
	
	[&lt;contract&gt;
	IDataRowHolder]
	
	[&lt;contract&gt;
	INamedDataRowHolder&lt;TRow&gt;]
	
	[&lt;contract&gt;
	IDataRowHolder&lt;TRow, TTestData&gt;]
	
	[&lt;contract&gt;
	IReadonlyCollection&lt;ITestDataRow&gt;]
	
	[&lt;abstract&gt;
	NamedDataRowHolder&lt;TRow, TTestData&gt;]
	
	[&lt;abstract&gt;
	DataRowHolder&lt;TRow, TTestData&gt;]
	
	[&lt;contract&gt;
	IDataRowHolder&lt;TRow&gt;]
	
	[&lt;contract&gt;
	ITestDataRow]
	
	[&lt;contract&gt;
	IRows&lt;TRow&gt;]
	
	[&lt;abstract&gt;
	DynamicExpectedObjectArrayRowSource]
	
	[&lt;abstract&gt;
	DynamicDataSource&lt;TDataHolder&gt;]
	
	[&lt;contract&gt;
	INamedRows&lt;TRow&gt;]
	
	[&lt;abstract&gt;
	DynamicDataSource |
	[&lt;concrete&gt;DataStrategyMemento]]
	
	[&lt;abstract&gt;
	DynamicObjectArrayRowSource]
	
	[&lt;abstract&gt;
	DynamicObjectArraySource]
	
	[&lt;abstract&gt;
	DynamicExpectedObjectArraySource]
	
	[&lt;concrete&gt;
	ObjectArrayRowHolder&lt;TTestData&gt;]
	
	[&lt;concrete&gt;
	ObjectArrayRow&lt;TTestData&gt;]
	
	[&lt;abstract&gt;
	NamedTestDataRow&lt;TRow, TTestData&gt;]
	
	
	
	[ITestDataRows] &lt;:--
	[DynamicDataRowSource&lt;TDataRowHolder, TRow&gt;]
	
	[DynamicDataRowSource&lt;TRow&gt;] &lt;:-
	[DynamicObjectArrayRowSource]
	
	[DynamicDataRowSource&lt;TRow&gt;]-&gt;
	[&lt;usecase&gt; 7]
	
	[ITestDataRow] &lt;-o
	[IReadonlyCollection&lt;ITestDataRow&gt;]
	
	[ITestDataRows] &lt;:-
	[IDataRowHolder]
	
	[ITestDataRow] &lt;:-
	[ITestDataRow&lt;TRow&gt;]
	
	
	
	[INamedRows&lt;TRow&gt;] &lt;:--
	[DynamicNamedDataRowSource&lt;TRow&gt;] -:&gt;
	[DynamicDataRowSource&lt;TDataRowHolder, TRow&gt;]
	
	[DynamicDataSource&lt;TDataHolder&gt;] -&gt;
	[&lt;usecase&gt; 4]
	
	[DynamicDataRowSource&lt;TDataRowHolder, TRow&gt;] -:&gt;
	[DynamicDataSource&lt;TDataHolder&gt;] -:&gt;
	[DynamicDataSource]
	
	[DynamicDataSource] -&gt;
	[&lt;usecase&gt; 3]
	
	[DynamicObjectArraySource] -&gt;
	[&lt;usecase&gt; 2]
	
	[DynamicObjectArraySource] &lt;:-
	[DynamicExpectedObjectArraySource]
	
	[DynamicExpectedObjectArraySource] -&gt;
	[&lt;usecase&gt; 1]
	
	
	[ITestDataRows] o-&gt;
	[ITestDataRow]
	
	[DynamicDataRowSource&lt;TDataRowHolder, TRow&gt;] &lt;:-
	[DynamicDataRowSource&lt;TRow&gt;]
	
	[DynamicNamedDataRowSource&lt;TRow&gt;] -&gt;
	[&lt;usecase&gt; 8]
	
	[IDataRowHolder&lt;TRow&gt;] -:&gt;
	[IRows&lt;TRow&gt;]
	
	[IDataRowHolder] &lt;:-
	[IDataRowHolder&lt;TRow&gt;]
	
	[IDataRowHolder&lt;TRow&gt;] &lt;-+
	[DynamicDataRowSource&lt;TDataRowHolder, TRow&gt;]
	
	[IDataRowHolder&lt;TRow&gt;] -&gt;
	[&lt;usecase&gt; 16]
	
	[IDataRowHolder&lt;TRow&gt;] &lt;:-
	[INamedDataRowHolder&lt;TRow&gt;] 
	
	[DynamicDataSource] &lt;:-
	[DynamicObjectArraySource]
	
	[INamedDataRowHolder&lt;TRow&gt;] -:&gt;
	[INamedRows&lt;TRow&gt;]
	
	[IDataRowHolder&lt;TRow&gt;] &lt;:-
	[IDataRowHolder&lt;TRow, TTestData&gt;]
	
	[INamedDataRowHolder&lt;TRow&gt;] -&gt;
	[&lt;usecase&gt; 17]
	
	[INamedDataRowHolder&lt;TRow&gt;] &lt;:--
	[NamedDataRowHolder&lt;TRow, TTestData&gt;]
	
	[NamedDataRowHolder&lt;TRow, TTestData&gt;] -&gt;
	[&lt;usecase&gt; 11]
	
	[DataRowHolder&lt;TRow, TTestData&gt;] &lt;:-
	[NamedDataRowHolder&lt;TRow, TTestData&gt;]
	
	[DataRowHolder&lt;TRow, TTestData&gt;] -&gt;
	[&lt;usecase&gt; 10]
	
	[DataRowHolder&lt;TRow, TTestData&gt;] &lt;:-
	[ObjectArrayRowHolder&lt;TTestData&gt;] -&gt;
	[&lt;usecase&gt; 9]
	
	[IReadonlyCollection&lt;ITestDataRow&gt;] &lt;:-
	[IDataRowHolder&lt;TRow, TTestData&gt;]
	
	[IDataRowHolder&lt;TRow, TTestData&gt;] &lt;:--
	[DataRowHolder&lt;TRow, TTestData&gt;]
	
	[ITestDataRow&lt;TRow, TTestData&gt;] &lt;-+
	[DataRowHolder&lt;TRow, TTestData&gt;]
	
	[ITestDataRow&lt;TRow&gt;] &lt;:-
	[ITestDataRow&lt;TRow, TTestData&gt;]&lt;:--
	[TestDataRow&lt;TRow, TTestData&gt;] &lt;:-
	[ObjectArrayRow&lt;TTestData&gt;]
	
	[TestDataRow&lt;TRow, TTestData&gt;] -&gt;
	[&lt;usecase&gt; 13]
	
	[ObjectArrayRow&lt;TTestData&gt;] -&gt;
	[&lt;usecase&gt; 12]
	
	[TestDataRow&lt;TRow, TTestData&gt;] &lt;:-
	[NamedTestDataRow&lt;TRow, TTestData&gt;]
	
	[INamedTestDataRow&lt;TRow&gt;] &lt;:--
	[NamedTestDataRow&lt;TRow, TTestData&gt;]
	
	[IRows&lt;TRow&gt;] &lt;:--
	[DynamicDataRowSource&lt;TDataRowHolder, TRow&gt;]
	
	[ITestDataRow&lt;TRow&gt;] &lt;:-
	[INamedTestDataRow&lt;TRow&gt;]
	
	[NamedTestDataRow&lt;TRow, TTestData&gt;] -&gt;
	[&lt;usecase&gt; 14]
	
	[DynamicObjectArrayRowSource] &lt;:-
	[DynamicExpectedObjectArrayRowSource] -&gt;
	[&lt;usecase&gt; 5]
	
	[DynamicObjectArrayRowSource] -&gt;
	[&lt;usecase&gt; 6]
	
	[INamedTestDataRow&lt;TRow&gt;] -&gt;
	[&lt;usecase&gt; 15]
	</desc>
	<g stroke-width="1.0" text-align="left" font="12pt Helvetica, Arial, sans-serif" font-size="12pt" font-family="Helvetica" font-weight="bold" font-style="normal">
		<g font-family="Helvetica" font-size="12pt" font-weight="bold" font-style="normal" stroke-width="3.0" stroke-linejoin="round" stroke-linecap="round" stroke="#33322E">
			<g stroke="transparent" fill="transparent">
				<rect x="0.0" y="0.0" height="1016.0" width="3556.3" stroke="none"></rect>
			</g>
			<g transform="translate(8, 8)" fill="#33322E">
				<g transform="translate(20, 20)" fill="#33322E" font-family="Helvetica" font-size="12pt" font-weight="normal" font-style="normal">
					<g stroke-dasharray="6 6">
						<path d="M79.7 262.3 L149 136 L238.5 136 L238.5 136 L328 136 L328 136 L493.5 136 L493.5 136 L659 136 L659 136 L821 136 L821 136 L983 136 L983 136 L1143 136 L1143 136 L1303 136 L1303 136 L1489.5 136 L1489.5 136 L1676 136 L1676 136 L1854.904761904762 204 L1854.9 204.0 " fill="none"></path>
					</g>
					<path d="M75.0 259.7 L79.7 262.3 L84.4 264.9 L73.3 274.0 Z"></path>
					<path d="M2360.5 348.9 L2441 330 L2461 330 L2461.0 330.0 " fill="none"></path>
					<path d="M2359.3 343.8 L2360.5 348.9 L2361.7 354.1 L2347.5 352.0 Z"></path>
					<path d="M2347.5 384.0 L2441 406 L2568.7083333333335 406 L2568.7 406.0 " fill="none"></path>
					<path d="M2562.0 411.3 L2568.7 406.0 L2562.0 400.7 L2575.4 406.0 Z"></path>
					<path d="M248.2 791.9 L328 610 L329.3333333333333 610 L329.3 610.0 " fill="none"></path>
					<g fill="#eee8d5">
						<path d="M338.7 615.3 L329.3 610.0 L338.7 604.7 L348.0 610.0 Z"></path>
					</g>
					<path d="M246.0 783.6 L248.2 791.9 L255.8 787.9 L245.5 798.0 Z"></path>
					<path d="M142.3 290.0 L149 290 L169 290 L169.0 290.0 " fill="none"></path>
					<path d="M142.3 284.7 L142.3 290.0 L142.3 295.3 L129.0 290.0 Z"></path>
					<path d="M290.6 835.0 L328 850 L402.5 850 L402.5 850.0 " fill="none"></path>
					<path d="M292.6 830.0 L290.6 835.0 L288.7 839.9 L278.3 830.0 Z"></path>
					<g stroke-dasharray="6 6">
						<path d="M1245.3 318.0 L1303 318 L1330 318 L1330.0 318.0 " fill="none"></path>
					</g>
					<path d="M1245.3 312.7 L1245.3 318.0 L1245.3 323.3 L1232.0 318.0 Z"></path>
					<path d="M1638.7 302.0 L1676 298 L1839.093462218895 240.43760156980184 L1839.1 240.4 " fill="none"></path>
					<path d="M1840.9 245.5 L1839.1 240.4 L1837.3 235.4 L1851.7 236.0 Z"></path>
					<path d="M2322.6 64.0 L2441 20 L2568.7083333333335 20 L2568.7 20.0 " fill="none"></path>
					<path d="M2562.0 25.3 L2568.7 20.0 L2562.0 14.7 L2575.4 20.0 Z"></path>
					<path d="M1922.3 204.0 L2118 80 L2124.6666666666665 80 L2124.7 80.0 " fill="none"></path>
					<path d="M2124.7 85.3 L2124.7 80.0 L2124.7 74.7 L2138.0 80.0 Z"></path>
					<path d="M2322.6 96.0 L2441 140 L2457.6666666666665 140 L2457.7 140.0 " fill="none"></path>
					<path d="M2457.7 145.3 L2457.7 140.0 L2457.7 134.7 L2471.0 140.0 Z"></path>
					<path d="M2711.0 109.6 L2741 102 L2904.2083333333335 102 L2904.2 102.0 " fill="none"></path>
					<path d="M2897.5 107.3 L2904.2 102.0 L2897.5 96.7 L2910.9 102.0 Z"></path>
					<path d="M3004.6 162.0 L3112 140 L3258.2083333333335 140 L3258.2 140.0 " fill="none"></path>
					<path d="M3251.5 145.3 L3258.2 140.0 L3251.5 134.7 L3264.9 140.0 Z"></path>
					<path d="M3017.7 196.7 L3112 216 L3132 216 L3132.0 216.0 " fill="none"></path>
					<path d="M3018.7 191.5 L3017.7 196.7 L3016.6 201.9 L3004.6 194.0 Z"></path>
					<path d="M3429.0 216.0 L3449 216 L3462.3333333333335 216 L3462.3 216.0 " fill="none"></path>
					<path d="M3455.7 221.3 L3462.3 216.0 L3455.7 210.7 L3469.0 216.0 Z"></path>
					<path d="M70.1 324.4 L149 814 L171.83333333333334 814 L171.8 814.0 " fill="none"></path>
					<path d="M165.2 819.3 L171.8 814.0 L165.2 808.7 L178.5 814.0 Z"></path>
					<g fill="#eee8d5">
						<path d="M73.8 314.4 L70.1 324.4 L63.3 316.1 L67.1 306.0 Z"></path>
					</g>
					<path d="M1932.0 243.4 L2118 368 L2146.5 368 L2146.5 368.0 " fill="none"></path>
					<path d="M1934.9 239.0 L1932.0 243.4 L1929.0 247.9 L1920.9 236.0 Z"></path>
					<path d="M1596.1 334.0 L1676 346 L1874.7083333333333 346 L1874.7 346.0 " fill="none"></path>
					<path d="M1868.0 351.3 L1874.7 346.0 L1868.0 340.7 L1881.4 346.0 Z"></path>
					<path d="M520.5 274.0 L659 192 L821 192 L821 192 L983 192 L983 192 L1143 192 L1143 192 L1303 192 L1303 192 L1413.6666666666667 192 L1413.7 192.0 " fill="none"></path>
					<path d="M1413.7 197.3 L1413.7 192.0 L1413.7 186.7 L1427.0 192.0 Z"></path>
					<path d="M321.3 290.0 L328 290 L393 290 L393.0 290.0 " fill="none"></path>
					<path d="M321.3 284.7 L321.3 290.0 L321.3 295.3 L308.0 290.0 Z"></path>
					<path d="M563.0 272.4 L659 248 L821 248 L821 248 L983 248 L983 248 L1143 248 L1143 248 L1303 248 L1303 248 L1489.5 248 L1489.5 248 L1676 248 L1676 248 L1752.1956586367048 238.34625139444464 L1752.2 238.3 " fill="none"></path>
					<g fill="#33322E">
						<path d="M1762.1 242.5 L1752.2 238.3 L1760.8 231.9 L1770.7 236.0 Z"></path>
					</g>
					<path d="M568.2 265.6 L563.0 272.4 L570.8 275.9 L556.5 274.0 Z"></path>
					<path d="M594.0 300.9 L659 308 L793.0833333333334 308 L793.1 308.0 " fill="none"></path>
					<path d="M786.4 313.3 L793.1 308.0 L786.4 302.7 L799.8 308.0 Z"></path>
					<path d="M525.9 313.9 L659 412 L694 412 L694.0 412.0 " fill="none"></path>
					<path d="M529.1 309.6 L525.9 313.9 L522.8 318.2 L515.2 306.0 Z"></path>
					<path d="M2723.9 173.7 L2741 178 L2813 178 L2813.0 178.0 " fill="none"></path>
					<path d="M2725.2 168.5 L2723.9 173.7 L2722.6 178.8 L2711.0 170.4 Z"></path>
					<path d="M848.6 396.0 L983 318 L1040.6666666666667 318 L1040.7 318.0 " fill="none"></path>
					<path d="M1040.7 323.3 L1040.7 318.0 L1040.7 312.7 L1054.0 318.0 Z"></path>
					<path d="M513.2 316.7 L659 514 L749 534 L749.0 534.0 " fill="none"></path>
					<path d="M517.5 313.6 L513.2 316.7 L509.0 319.9 L505.3 306.0 Z"></path>
					<path d="M948.0 397.9 L983 394 L1115.0833333333333 394 L1115.1 394.0 " fill="none"></path>
					<path d="M1108.4 399.3 L1115.1 394.0 L1108.4 388.7 L1121.8 394.0 Z"></path>
					<g stroke-dasharray="6 6">
						<path d="M895.6 431.3 L983 454 L1143 454 L1143 454 L1303 454 L1303 454 L1353.8636363636365 460 L1353.9 460.0 " fill="none"></path>
					</g>
					<path d="M897.0 426.2 L895.6 431.3 L894.3 436.5 L882.7 428.0 Z"></path>
					<path d="M1656.0 476.0 L1676 476 L1869.7083333333333 476 L1869.7 476.0 " fill="none"></path>
					<path d="M1863.0 481.3 L1869.7 476.0 L1863.0 470.7 L1876.4 476.0 Z"></path>
					<path d="M1185.3 555.8 L1303 494 L1323.7222222222222 492 L1323.7 492.0 " fill="none"></path>
					<path d="M1182.8 551.1 L1185.3 555.8 L1187.8 560.5 L1173.5 562.0 Z"></path>
					<path d="M1241.5 562.0 L1303 552 L1461.5833333333333 552 L1461.6 552.0 " fill="none"></path>
					<path d="M1454.9 557.3 L1461.6 552.0 L1454.9 546.7 L1468.3 552.0 Z"></path>
					<path d="M1206.9 598.0 L1303 628 L1347 628 L1347.0 628.0 " fill="none"></path>
					<path d="M1208.5 592.9 L1206.9 598.0 L1205.3 603.1 L1194.2 594.0 Z"></path>
					<path d="M1632.0 628.0 L1676 628 L1874.7083333333333 628 L1874.7 628.0 " fill="none"></path>
					<path d="M1868.0 633.3 L1874.7 628.0 L1868.0 622.7 L1881.4 628.0 Z"></path>
					<path d="M652.3 610.0 L659 610 L777.8 566 L777.8 566.0 " fill="none"></path>
					<path d="M652.3 604.7 L652.3 610.0 L652.3 615.3 L639.0 610.0 Z"></path>
					<g stroke-dasharray="6 6">
						<path d="M976.3 550.0 L983 550 L1051.5714285714287 562 L1051.6 562.0 " fill="none"></path>
					</g>
					<path d="M976.3 544.7 L976.3 550.0 L976.3 555.3 L963.0 550.0 Z"></path>
					<path d="M857.0 752.9 L983 686 L1103.8244543802175 604.4434932933532 L1103.8 604.4 " fill="none"></path>
					<g fill="#33322E">
						<path d="M1114.5 603.6 L1103.8 604.4 L1108.6 594.8 L1119.3 594.0 Z"></path>
					</g>
					<path d="M860.4 745.0 L857.0 752.9 L865.4 754.5 L851.1 756.0 Z"></path>
					<path d="M539.5 828.3 L659 772 L688.5 772 L688.5 772.0 " fill="none"></path>
					<path d="M537.2 823.5 L539.5 828.3 L541.8 833.1 L527.4 834.0 Z"></path>
					<g stroke-dasharray="6 6">
						<path d="M963.8 789.6 L983 792 L1012.5 792 L1012.5 792.0 " fill="none"></path>
					</g>
					<path d="M964.5 784.3 L963.8 789.6 L963.2 794.9 L950.6 788.0 Z"></path>
					<path d="M1185.3 769.8 L1303 708 L1372 708 L1372.0 708.0 " fill="none"></path>
					<path d="M1182.8 765.1 L1185.3 769.8 L1187.8 774.5 L1173.5 776.0 Z"></path>
					<path d="M1273.5 785.5 L1303 784 L1461.5833333333333 784 L1461.6 784.0 " fill="none"></path>
					<path d="M1454.9 789.3 L1461.6 784.0 L1454.9 778.7 L1468.3 784.0 Z"></path>
					<path d="M1607.0 708.0 L1676 708 L1869.0833333333333 708 L1869.1 708.0 " fill="none"></path>
					<path d="M1862.4 713.3 L1869.1 708.0 L1862.4 702.7 L1875.8 708.0 Z"></path>
					<path d="M1206.9 812.0 L1303 842 L1353.8636363636365 848 L1353.9 848.0 " fill="none"></path>
					<path d="M1208.5 806.9 L1206.9 812.0 L1205.3 817.1 L1194.2 808.0 Z"></path>
					<g stroke-dasharray="6 6">
						<path d="M1199.7 919.5 L1303 882 L1332.5 879.1528150134048 L1332.5 879.2 " fill="none"></path>
					</g>
					<path d="M1197.9 914.4 L1199.7 919.5 L1201.5 924.5 L1187.1 924.0 Z"></path>
					<g stroke-dasharray="6 6">
						<path d="M1565.3 192.0 L1676 192 L1770.7142857142858 204 L1770.7 204.0 " fill="none"></path>
					</g>
					<path d="M1565.3 186.7 L1565.3 192.0 L1565.3 197.3 L1552.0 192.0 Z"></path>
					<path d="M534.6 872.4 L659 940 L821 940 L821 940 L983 940 L983 940 L1025.5 940 L1025.5 940.0 " fill="none"></path>
					<path d="M537.2 867.7 L534.6 872.4 L532.1 877.1 L522.9 866.0 Z"></path>
					<path d="M1646.5 864.0 L1676 864 L1869.0833333333333 864 L1869.1 864.0 " fill="none"></path>
					<path d="M1862.4 869.3 L1869.1 864.0 L1862.4 858.7 L1875.8 864.0 Z"></path>
					<path d="M2667.1 310.7 L2741 292 L2761 292 L2761.0 292.0 " fill="none"></path>
					<path d="M2665.8 305.6 L2667.1 310.7 L2668.4 315.9 L2654.2 314.0 Z"></path>
					<path d="M3092.0 292.0 L3112 292 L3258.2083333333335 292 L3258.2 292.0 " fill="none"></path>
					<path d="M3251.5 297.3 L3258.2 292.0 L3251.5 286.7 L3264.9 292.0 Z"></path>
					<path d="M2654.2 346.0 L2741 368 L2904.2083333333335 368 L2904.2 368.0 " fill="none"></path>
					<path d="M2897.5 373.3 L2904.2 368.0 L2897.5 362.7 L2910.9 368.0 Z"></path>
					<path d="M1260.5 940.0 L1303 940 L1461.5833333333333 940 L1461.6 940.0 " fill="none"></path>
					<path d="M1454.9 945.3 L1461.6 940.0 L1454.9 934.7 L1468.3 940.0 Z"></path>
					<g data-name="ITestDataRows">
						<g fill="#DCE8CF" stroke="#33322E" data-name="ITestDataRows">
							<rect x="0.0" y="274.0" height="32.0" width="129.0" data-name="ITestDataRows"></rect>
						</g>
						<g transform="translate(0, 274)" font-family="Helvetica" font-size="12pt" font-weight="bold" font-style="italic" data-name="ITestDataRows" data-compartment="0">
							<g transform="translate(8, 8)" fill="#33322E" text-align="center" data-name="ITestDataRows" data-compartment="0">
								<text x="56.5" y="14.1" stroke="none" text-anchor="middle" data-name="ITestDataRows" data-compartment="0">ITestDataRows</text>
								
							</g>
						</g>
					</g>
					<g data-name="DynamicNamedDataRowSource&lt;TRow&gt;">
						<g fill="#C9DEEF" stroke="#33322E" data-name="DynamicNamedDataRowSource&lt;TRow&gt;">
							<rect x="1330.0" y="302.0" height="32.0" width="319.0" data-name="DynamicNamedDataRowSource&lt;TRow&gt;"></rect>
						</g>
						<g transform="translate(1330, 302)" font-family="Helvetica" font-size="12pt" font-weight="bold" font-style="italic" data-name="DynamicNamedDataRowSource&lt;TRow&gt;" data-compartment="0">
							<g transform="translate(8, 8)" fill="#33322E" text-align="center" data-name="DynamicNamedDataRowSource&lt;TRow&gt;" data-compartment="0">
								<text x="151.5" y="14.1" stroke="none" text-anchor="middle" data-name="DynamicNamedDataRowSource&lt;TRow&gt;" data-compartment="0">DynamicNamedDataRowSource&lt;TRow&gt;</text>
								
							</g>
						</g>
					</g>
					<g data-name="DynamicDataSource">
						<g fill="#C9DEEF" stroke="#33322E" data-name="DynamicDataSource">
							<rect x="2471.0" y="80.0" height="120.0" width="240.0" data-name="DynamicDataSource"></rect>
							<path d="M2471.0 112.0 L2711.0 112.0" fill="none" data-name="DynamicDataSource"></path>
						</g>
						<g transform="translate(2471, 80)" font-family="Helvetica" font-size="12pt" font-weight="bold" font-style="italic" data-name="DynamicDataSource" data-compartment="0">
							<g transform="translate(8, 8)" fill="#33322E" text-align="center" data-name="DynamicDataSource" data-compartment="0">
								<text x="112.0" y="14.1" stroke="none" text-anchor="middle" data-name="DynamicDataSource" data-compartment="0">DynamicDataSource</text>
								
							</g>
						</g>
						<g transform="translate(2471, 112)" font-family="Helvetica" font-size="12pt" font-weight="normal" font-style="normal" data-name="DynamicDataSource" data-compartment="1">
							<g transform="translate(8, 8)" fill="#33322E" data-name="DynamicDataSource" data-compartment="1">
								<g transform="translate(20, 20)" data-name="DynamicDataSource" data-compartment="1">
									<g data-name="DataStrategyMemento">
										<g fill="#C9DEEF" stroke="#33322E" data-name="DataStrategyMemento">
											<rect x="0.0" y="0.0" height="32.0" width="184.0" data-name="DataStrategyMemento"></rect>
										</g>
										<g transform="translate(0, 0)" font-family="Helvetica" font-size="12pt" font-weight="bold" font-style="normal" data-name="DataStrategyMemento" data-compartment="0">
											<g transform="translate(8, 8)" fill="#33322E" text-align="center" data-name="DataStrategyMemento" data-compartment="0">
												<text x="84.0" y="14.1" stroke="none" text-anchor="middle" data-name="DataStrategyMemento" data-compartment="0">DataStrategyMemento</text>
												
											</g>
										</g>
									</g>
								</g>
							</g>
						</g>
					</g>
					<g data-name="ITestDataRow&lt;TRow, TTestData&gt;">
						<g fill="#DCE8CF" stroke="#33322E" data-name="ITestDataRow&lt;TRow, TTestData&gt;">
							<rect x="688.5" y="756.0" height="32.0" width="265.0" data-name="ITestDataRow&lt;TRow, TTestData&gt;"></rect>
						</g>
						<g transform="translate(688.5, 756)" font-family="Helvetica" font-size="12pt" font-weight="bold" font-style="italic" data-name="ITestDataRow&lt;TRow, TTestData&gt;" data-compartment="0">
							<g transform="translate(8, 8)" fill="#33322E" text-align="center" data-name="ITestDataRow&lt;TRow, TTestData&gt;" data-compartment="0">
								<text x="124.5" y="14.1" stroke="none" text-anchor="middle" data-name="ITestDataRow&lt;TRow, TTestData&gt;" data-compartment="0">ITestDataRow&lt;TRow, TTestData&gt;</text>
								
							</g>
						</g>
					</g>
					<g data-name="INamedTestDataRow&lt;TRow&gt;">
						<g fill="#DCE8CF" stroke="#33322E" data-name="INamedTestDataRow&lt;TRow&gt;">
							<rect x="1025.5" y="924.0" height="32.0" width="235.0" data-name="INamedTestDataRow&lt;TRow&gt;"></rect>
						</g>
						<g transform="translate(1025.5, 924)" font-family="Helvetica" font-size="12pt" font-weight="bold" font-style="italic" data-name="INamedTestDataRow&lt;TRow&gt;" data-compartment="0">
							<g transform="translate(8, 8)" fill="#33322E" text-align="center" data-name="INamedTestDataRow&lt;TRow&gt;" data-compartment="0">
								<text x="109.5" y="14.1" stroke="none" text-anchor="middle" data-name="INamedTestDataRow&lt;TRow&gt;" data-compartment="0">INamedTestDataRow&lt;TRow&gt;</text>
								
							</g>
						</g>
					</g>
					<g data-name="TestDataRow&lt;TRow, TTestData&gt;">
						<g fill="#C9DEEF" stroke="#33322E" data-name="TestDataRow&lt;TRow, TTestData&gt;">
							<rect x="1012.5" y="776.0" height="32.0" width="261.0" data-name="TestDataRow&lt;TRow, TTestData&gt;"></rect>
						</g>
						<g transform="translate(1012.5, 776)" font-family="Helvetica" font-size="12pt" font-weight="bold" font-style="italic" data-name="TestDataRow&lt;TRow, TTestData&gt;" data-compartment="0">
							<g transform="translate(8, 8)" fill="#33322E" text-align="center" data-name="TestDataRow&lt;TRow, TTestData&gt;" data-compartment="0">
								<text x="122.5" y="14.1" stroke="none" text-anchor="middle" data-name="TestDataRow&lt;TRow, TTestData&gt;" data-compartment="0">TestDataRow&lt;TRow, TTestData&gt;</text>
								
							</g>
						</g>
					</g>
					<g data-name="ITestDataRow&lt;TRow&gt;">
						<g fill="#DCE8CF" stroke="#33322E" data-name="ITestDataRow&lt;TRow&gt;">
							<rect x="402.5" y="834.0" height="32.0" width="182.0" data-name="ITestDataRow&lt;TRow&gt;"></rect>
						</g>
						<g transform="translate(402.5, 834)" font-family="Helvetica" font-size="12pt" font-weight="bold" font-style="italic" data-name="ITestDataRow&lt;TRow&gt;" data-compartment="0">
							<g transform="translate(8, 8)" fill="#33322E" text-align="center" data-name="ITestDataRow&lt;TRow&gt;" data-compartment="0">
								<text x="83.0" y="14.1" stroke="none" text-anchor="middle" data-name="ITestDataRow&lt;TRow&gt;" data-compartment="0">ITestDataRow&lt;TRow&gt;</text>
								
							</g>
						</g>
					</g>
					<g data-name="DynamicDataRowSource&lt;TRow&gt;">
						<g fill="#C9DEEF" stroke="#33322E" data-name="DynamicDataRowSource&lt;TRow&gt;">
							<rect x="2146.5" y="352.0" height="32.0" width="266.0" data-name="DynamicDataRowSource&lt;TRow&gt;"></rect>
						</g>
						<g transform="translate(2146.5, 352)" font-family="Helvetica" font-size="12pt" font-weight="bold" font-style="italic" data-name="DynamicDataRowSource&lt;TRow&gt;" data-compartment="0">
							<g transform="translate(8, 8)" fill="#33322E" text-align="center" data-name="DynamicDataRowSource&lt;TRow&gt;" data-compartment="0">
								<text x="125.0" y="14.1" stroke="none" text-anchor="middle" data-name="DynamicDataRowSource&lt;TRow&gt;" data-compartment="0">DynamicDataRowSource&lt;TRow&gt;</text>
								
							</g>
						</g>
					</g>
					<g data-name="DynamicDataRowSource&lt;TDataRowHolder, TRow&gt;">
						<g fill="#C9DEEF" stroke="#33322E" data-name="DynamicDataRowSource&lt;TDataRowHolder, TRow&gt;">
							<rect x="1696.0" y="204.0" height="32.0" width="402.0" data-name="DynamicDataRowSource&lt;TDataRowHolder, TRow&gt;"></rect>
						</g>
						<g transform="translate(1696, 204)" font-family="Helvetica" font-size="12pt" font-weight="bold" font-style="italic" data-name="DynamicDataRowSource&lt;TDataRowHolder, TRow&gt;" data-compartment="0">
							<g transform="translate(8, 8)" fill="#33322E" text-align="center" data-name="DynamicDataRowSource&lt;TDataRowHolder, TRow&gt;" data-compartment="0">
								<text x="193.0" y="14.1" stroke="none" text-anchor="middle" data-name="DynamicDataRowSource&lt;TDataRowHolder, TRow&gt;" data-compartment="0">DynamicDataRowSource&lt;TDataRowHolder, TRow&gt;</text>
								
							</g>
						</g>
					</g>
					<g data-name="IDataRowHolder">
						<g fill="#DCE8CF" stroke="#33322E" data-name="IDataRowHolder">
							<rect x="169.0" y="274.0" height="32.0" width="139.0" data-name="IDataRowHolder"></rect>
						</g>
						<g transform="translate(169, 274)" font-family="Helvetica" font-size="12pt" font-weight="bold" font-style="italic" data-name="IDataRowHolder" data-compartment="0">
							<g transform="translate(8, 8)" fill="#33322E" text-align="center" data-name="IDataRowHolder" data-compartment="0">
								<text x="61.5" y="14.1" stroke="none" text-anchor="middle" data-name="IDataRowHolder" data-compartment="0">IDataRowHolder</text>
								
							</g>
						</g>
					</g>
					<g data-name="INamedDataRowHolder&lt;TRow&gt;">
						<g fill="#DCE8CF" stroke="#33322E" data-name="INamedDataRowHolder&lt;TRow&gt;">
							<rect x="694.0" y="396.0" height="32.0" width="254.0" data-name="INamedDataRowHolder&lt;TRow&gt;"></rect>
						</g>
						<g transform="translate(694, 396)" font-family="Helvetica" font-size="12pt" font-weight="bold" font-style="italic" data-name="INamedDataRowHolder&lt;TRow&gt;" data-compartment="0">
							<g transform="translate(8, 8)" fill="#33322E" text-align="center" data-name="INamedDataRowHolder&lt;TRow&gt;" data-compartment="0">
								<text x="119.0" y="14.1" stroke="none" text-anchor="middle" data-name="INamedDataRowHolder&lt;TRow&gt;" data-compartment="0">INamedDataRowHolder&lt;TRow&gt;</text>
								
							</g>
						</g>
					</g>
					<g data-name="IDataRowHolder&lt;TRow, TTestData&gt;">
						<g fill="#DCE8CF" stroke="#33322E" data-name="IDataRowHolder&lt;TRow, TTestData&gt;">
							<rect x="679.0" y="534.0" height="32.0" width="284.0" data-name="IDataRowHolder&lt;TRow, TTestData&gt;"></rect>
						</g>
						<g transform="translate(679, 534)" font-family="Helvetica" font-size="12pt" font-weight="bold" font-style="italic" data-name="IDataRowHolder&lt;TRow, TTestData&gt;" data-compartment="0">
							<g transform="translate(8, 8)" fill="#33322E" text-align="center" data-name="IDataRowHolder&lt;TRow, TTestData&gt;" data-compartment="0">
								<text x="134.0" y="14.1" stroke="none" text-anchor="middle" data-name="IDataRowHolder&lt;TRow, TTestData&gt;" data-compartment="0">IDataRowHolder&lt;TRow, TTestData&gt;</text>
								
							</g>
						</g>
					</g>
					<g data-name="IReadonlyCollection&lt;ITestDataRow&gt;">
						<g fill="#DCE8CF" stroke="#33322E" data-name="IReadonlyCollection&lt;ITestDataRow&gt;">
							<rect x="348.0" y="594.0" height="32.0" width="291.0" data-name="IReadonlyCollection&lt;ITestDataRow&gt;"></rect>
						</g>
						<g transform="translate(348, 594)" font-family="Helvetica" font-size="12pt" font-weight="bold" font-style="italic" data-name="IReadonlyCollection&lt;ITestDataRow&gt;" data-compartment="0">
							<g transform="translate(8, 8)" fill="#33322E" text-align="center" data-name="IReadonlyCollection&lt;ITestDataRow&gt;" data-compartment="0">
								<text x="137.5" y="14.1" stroke="none" text-anchor="middle" data-name="IReadonlyCollection&lt;ITestDataRow&gt;" data-compartment="0">IReadonlyCollection&lt;ITestDataRow&gt;</text>
								
							</g>
						</g>
					</g>
					<g data-name="NamedDataRowHolder&lt;TRow, TTestData&gt;">
						<g fill="#C9DEEF" stroke="#33322E" data-name="NamedDataRowHolder&lt;TRow, TTestData&gt;">
							<rect x="1323.0" y="460.0" height="32.0" width="333.0" data-name="NamedDataRowHolder&lt;TRow, TTestData&gt;"></rect>
						</g>
						<g transform="translate(1323, 460)" font-family="Helvetica" font-size="12pt" font-weight="bold" font-style="italic" data-name="NamedDataRowHolder&lt;TRow, TTestData&gt;" data-compartment="0">
							<g transform="translate(8, 8)" fill="#33322E" text-align="center" data-name="NamedDataRowHolder&lt;TRow, TTestData&gt;" data-compartment="0">
								<text x="158.5" y="14.1" stroke="none" text-anchor="middle" data-name="NamedDataRowHolder&lt;TRow, TTestData&gt;" data-compartment="0">NamedDataRowHolder&lt;TRow, TTestData&gt;</text>
								
							</g>
						</g>
					</g>
					<g data-name="DataRowHolder&lt;TRow, TTestData&gt;">
						<g fill="#C9DEEF" stroke="#33322E" data-name="DataRowHolder&lt;TRow, TTestData&gt;">
							<rect x="1003.0" y="562.0" height="32.0" width="280.0" data-name="DataRowHolder&lt;TRow, TTestData&gt;"></rect>
						</g>
						<g transform="translate(1003, 562)" font-family="Helvetica" font-size="12pt" font-weight="bold" font-style="italic" data-name="DataRowHolder&lt;TRow, TTestData&gt;" data-compartment="0">
							<g transform="translate(8, 8)" fill="#33322E" text-align="center" data-name="DataRowHolder&lt;TRow, TTestData&gt;" data-compartment="0">
								<text x="132.0" y="14.1" stroke="none" text-anchor="middle" data-name="DataRowHolder&lt;TRow, TTestData&gt;" data-compartment="0">DataRowHolder&lt;TRow, TTestData&gt;</text>
								
							</g>
						</g>
					</g>
					<g data-name="IDataRowHolder&lt;TRow&gt;">
						<g fill="#DCE8CF" stroke="#33322E" data-name="IDataRowHolder&lt;TRow&gt;">
							<rect x="393.0" y="274.0" height="32.0" width="201.0" data-name="IDataRowHolder&lt;TRow&gt;"></rect>
						</g>
						<g transform="translate(393, 274)" font-family="Helvetica" font-size="12pt" font-weight="bold" font-style="italic" data-name="IDataRowHolder&lt;TRow&gt;" data-compartment="0">
							<g transform="translate(8, 8)" fill="#33322E" text-align="center" data-name="IDataRowHolder&lt;TRow&gt;" data-compartment="0">
								<text x="92.5" y="14.1" stroke="none" text-anchor="middle" data-name="IDataRowHolder&lt;TRow&gt;" data-compartment="0">IDataRowHolder&lt;TRow&gt;</text>
								
							</g>
						</g>
					</g>
					<g data-name="ITestDataRow">
						<g fill="#DCE8CF" stroke="#33322E" data-name="ITestDataRow">
							<rect x="178.5" y="798.0" height="32.0" width="120.0" data-name="ITestDataRow"></rect>
						</g>
						<g transform="translate(178.5, 798)" font-family="Helvetica" font-size="12pt" font-weight="bold" font-style="italic" data-name="ITestDataRow" data-compartment="0">
							<g transform="translate(8, 8)" fill="#33322E" text-align="center" data-name="ITestDataRow" data-compartment="0">
								<text x="52.0" y="14.1" stroke="none" text-anchor="middle" data-name="ITestDataRow" data-compartment="0">ITestDataRow</text>
								
							</g>
						</g>
					</g>
					<g data-name="IRows&lt;TRow&gt;">
						<g fill="#DCE8CF" stroke="#33322E" data-name="IRows&lt;TRow&gt;">
							<rect x="1427.0" y="176.0" height="32.0" width="125.0" data-name="IRows&lt;TRow&gt;"></rect>
						</g>
						<g transform="translate(1427, 176)" font-family="Helvetica" font-size="12pt" font-weight="bold" font-style="italic" data-name="IRows&lt;TRow&gt;" data-compartment="0">
							<g transform="translate(8, 8)" fill="#33322E" text-align="center" data-name="IRows&lt;TRow&gt;" data-compartment="0">
								<text x="54.5" y="14.1" stroke="none" text-anchor="middle" data-name="IRows&lt;TRow&gt;" data-compartment="0">IRows&lt;TRow&gt;</text>
								
							</g>
						</g>
					</g>
					<g data-name="DynamicExpectedObjectArrayRowSource">
						<g fill="#C9DEEF" stroke="#33322E" data-name="DynamicExpectedObjectArrayRowSource">
							<rect x="2761.0" y="276.0" height="32.0" width="331.0" data-name="DynamicExpectedObjectArrayRowSource"></rect>
						</g>
						<g transform="translate(2761, 276)" font-family="Helvetica" font-size="12pt" font-weight="bold" font-style="italic" data-name="DynamicExpectedObjectArrayRowSource" data-compartment="0">
							<g transform="translate(8, 8)" fill="#33322E" text-align="center" data-name="DynamicExpectedObjectArrayRowSource" data-compartment="0">
								<text x="157.5" y="14.1" stroke="none" text-anchor="middle" data-name="DynamicExpectedObjectArrayRowSource" data-compartment="0">DynamicExpectedObjectArrayRowSource</text>
								
							</g>
						</g>
					</g>
					<g data-name="DynamicDataSource&lt;TDataHolder&gt;">
						<g fill="#C9DEEF" stroke="#33322E" data-name="DynamicDataSource&lt;TDataHolder&gt;">
							<rect x="2138.0" y="64.0" height="32.0" width="283.0" data-name="DynamicDataSource&lt;TDataHolder&gt;"></rect>
						</g>
						<g transform="translate(2138, 64)" font-family="Helvetica" font-size="12pt" font-weight="bold" font-style="italic" data-name="DynamicDataSource&lt;TDataHolder&gt;" data-compartment="0">
							<g transform="translate(8, 8)" fill="#33322E" text-align="center" data-name="DynamicDataSource&lt;TDataHolder&gt;" data-compartment="0">
								<text x="133.5" y="14.1" stroke="none" text-anchor="middle" data-name="DynamicDataSource&lt;TDataHolder&gt;" data-compartment="0">DynamicDataSource&lt;TDataHolder&gt;</text>
								
							</g>
						</g>
					</g>
					<g data-name="INamedRows&lt;TRow&gt;">
						<g fill="#DCE8CF" stroke="#33322E" data-name="INamedRows&lt;TRow&gt;">
							<rect x="1054.0" y="302.0" height="32.0" width="178.0" data-name="INamedRows&lt;TRow&gt;"></rect>
						</g>
						<g transform="translate(1054, 302)" font-family="Helvetica" font-size="12pt" font-weight="bold" font-style="italic" data-name="INamedRows&lt;TRow&gt;" data-compartment="0">
							<g transform="translate(8, 8)" fill="#33322E" text-align="center" data-name="INamedRows&lt;TRow&gt;" data-compartment="0">
								<text x="81.0" y="14.1" stroke="none" text-anchor="middle" data-name="INamedRows&lt;TRow&gt;" data-compartment="0">INamedRows&lt;TRow&gt;</text>
								
							</g>
						</g>
					</g>
					<g data-name="DynamicObjectArrayRowSource">
						<g fill="#C9DEEF" stroke="#33322E" data-name="DynamicObjectArrayRowSource">
							<rect x="2461.0" y="314.0" height="32.0" width="260.0" data-name="DynamicObjectArrayRowSource"></rect>
						</g>
						<g transform="translate(2461, 314)" font-family="Helvetica" font-size="12pt" font-weight="bold" font-style="italic" data-name="DynamicObjectArrayRowSource" data-compartment="0">
							<g transform="translate(8, 8)" fill="#33322E" text-align="center" data-name="DynamicObjectArrayRowSource" data-compartment="0">
								<text x="122.0" y="14.1" stroke="none" text-anchor="middle" data-name="DynamicObjectArrayRowSource" data-compartment="0">DynamicObjectArrayRowSource</text>
								
							</g>
						</g>
					</g>
					<g data-name="DynamicObjectArraySource">
						<g fill="#C9DEEF" stroke="#33322E" data-name="DynamicObjectArraySource">
							<rect x="2813.0" y="162.0" height="32.0" width="227.0" data-name="DynamicObjectArraySource"></rect>
						</g>
						<g transform="translate(2813, 162)" font-family="Helvetica" font-size="12pt" font-weight="bold" font-style="italic" data-name="DynamicObjectArraySource" data-compartment="0">
							<g transform="translate(8, 8)" fill="#33322E" text-align="center" data-name="DynamicObjectArraySource" data-compartment="0">
								<text x="105.5" y="14.1" stroke="none" text-anchor="middle" data-name="DynamicObjectArraySource" data-compartment="0">DynamicObjectArraySource</text>
								
							</g>
						</g>
					</g>
					<g data-name="DynamicExpectedObjectArraySource">
						<g fill="#C9DEEF" stroke="#33322E" data-name="DynamicExpectedObjectArraySource">
							<rect x="3132.0" y="200.0" height="32.0" width="297.0" data-name="DynamicExpectedObjectArraySource"></rect>
						</g>
						<g transform="translate(3132, 200)" font-family="Helvetica" font-size="12pt" font-weight="bold" font-style="italic" data-name="DynamicExpectedObjectArraySource" data-compartment="0">
							<g transform="translate(8, 8)" fill="#33322E" text-align="center" data-name="DynamicExpectedObjectArraySource" data-compartment="0">
								<text x="140.5" y="14.1" stroke="none" text-anchor="middle" data-name="DynamicExpectedObjectArraySource" data-compartment="0">DynamicExpectedObjectArraySource</text>
								
							</g>
						</g>
					</g>
					<g data-name="ObjectArrayRowHolder&lt;TTestData&gt;">
						<g fill="#C9DEEF" stroke="#33322E" data-name="ObjectArrayRowHolder&lt;TTestData&gt;">
							<rect x="1347.0" y="612.0" height="32.0" width="285.0" data-name="ObjectArrayRowHolder&lt;TTestData&gt;"></rect>
						</g>
						<g transform="translate(1347, 612)" font-family="Helvetica" font-size="12pt" font-weight="bold" font-style="normal" data-name="ObjectArrayRowHolder&lt;TTestData&gt;" data-compartment="0">
							<g transform="translate(8, 8)" fill="#33322E" text-align="center" data-name="ObjectArrayRowHolder&lt;TTestData&gt;" data-compartment="0">
								<text x="134.5" y="14.1" stroke="none" text-anchor="middle" data-name="ObjectArrayRowHolder&lt;TTestData&gt;" data-compartment="0">ObjectArrayRowHolder&lt;TTestData&gt;</text>
								
							</g>
						</g>
					</g>
					<g data-name="ObjectArrayRow&lt;TTestData&gt;">
						<g fill="#C9DEEF" stroke="#33322E" data-name="ObjectArrayRow&lt;TTestData&gt;">
							<rect x="1372.0" y="692.0" height="32.0" width="235.0" data-name="ObjectArrayRow&lt;TTestData&gt;"></rect>
						</g>
						<g transform="translate(1372, 692)" font-family="Helvetica" font-size="12pt" font-weight="bold" font-style="normal" data-name="ObjectArrayRow&lt;TTestData&gt;" data-compartment="0">
							<g transform="translate(8, 8)" fill="#33322E" text-align="center" data-name="ObjectArrayRow&lt;TTestData&gt;" data-compartment="0">
								<text x="109.5" y="14.1" stroke="none" text-anchor="middle" data-name="ObjectArrayRow&lt;TTestData&gt;" data-compartment="0">ObjectArrayRow&lt;TTestData&gt;</text>
								
							</g>
						</g>
					</g>
					<g data-name="NamedTestDataRow&lt;TRow, TTestData&gt;">
						<g fill="#C9DEEF" stroke="#33322E" data-name="NamedTestDataRow&lt;TRow, TTestData&gt;">
							<rect x="1332.5" y="848.0" height="32.0" width="314.0" data-name="NamedTestDataRow&lt;TRow, TTestData&gt;"></rect>
						</g>
						<g transform="translate(1332.5, 848)" font-family="Helvetica" font-size="12pt" font-weight="bold" font-style="italic" data-name="NamedTestDataRow&lt;TRow, TTestData&gt;" data-compartment="0">
							<g transform="translate(8, 8)" fill="#33322E" text-align="center" data-name="NamedTestDataRow&lt;TRow, TTestData&gt;" data-compartment="0">
								<text x="149.0" y="14.1" stroke="none" text-anchor="middle" data-name="NamedTestDataRow&lt;TRow, TTestData&gt;" data-compartment="0">NamedTestDataRow&lt;TRow, TTestData&gt;</text>
								
							</g>
						</g>
					</g>
					<g data-name="7">
						<g fill="#eee8d5" stroke="#33322E" data-name="7">
							<ellipse cx="2591.0" cy="406.0" rx="15.6" ry="20.0" data-name="7"></ellipse>
						</g>
						<g transform="translate(2578.5, 390)" font-family="Helvetica" font-size="12pt" font-weight="normal" font-style="normal" data-name="7" data-compartment="0">
							<g transform="translate(8, 8)" fill="#33322E" text-align="center" data-name="7" data-compartment="0">
								<text x="4.5" y="14.1" stroke="none" text-anchor="middle" data-name="7" data-compartment="0">7</text>
								
							</g>
						</g>
					</g>
					<g data-name="4">
						<g fill="#eee8d5" stroke="#33322E" data-name="4">
							<ellipse cx="2591.0" cy="20.0" rx="15.6" ry="20.0" data-name="4"></ellipse>
						</g>
						<g transform="translate(2578.5, 4)" font-family="Helvetica" font-size="12pt" font-weight="normal" font-style="normal" data-name="4" data-compartment="0">
							<g transform="translate(8, 8)" fill="#33322E" text-align="center" data-name="4" data-compartment="0">
								<text x="4.5" y="14.1" stroke="none" text-anchor="middle" data-name="4" data-compartment="0">4</text>
								
							</g>
						</g>
					</g>
					<g data-name="3">
						<g fill="#eee8d5" stroke="#33322E" data-name="3">
							<ellipse cx="2926.5" cy="102.0" rx="15.6" ry="20.0" data-name="3"></ellipse>
						</g>
						<g transform="translate(2914, 86)" font-family="Helvetica" font-size="12pt" font-weight="normal" font-style="normal" data-name="3" data-compartment="0">
							<g transform="translate(8, 8)" fill="#33322E" text-align="center" data-name="3" data-compartment="0">
								<text x="4.5" y="14.1" stroke="none" text-anchor="middle" data-name="3" data-compartment="0">3</text>
								
							</g>
						</g>
					</g>
					<g data-name="2">
						<g fill="#eee8d5" stroke="#33322E" data-name="2">
							<ellipse cx="3280.5" cy="140.0" rx="15.6" ry="20.0" data-name="2"></ellipse>
						</g>
						<g transform="translate(3268, 124)" font-family="Helvetica" font-size="12pt" font-weight="normal" font-style="normal" data-name="2" data-compartment="0">
							<g transform="translate(8, 8)" fill="#33322E" text-align="center" data-name="2" data-compartment="0">
								<text x="4.5" y="14.1" stroke="none" text-anchor="middle" data-name="2" data-compartment="0">2</text>
								
							</g>
						</g>
					</g>
					<g data-name="1">
						<g fill="#eee8d5" stroke="#33322E" data-name="1">
							<ellipse cx="3484.6" cy="216.0" rx="15.6" ry="20.0" data-name="1"></ellipse>
						</g>
						<g transform="translate(3472.125, 200)" font-family="Helvetica" font-size="12pt" font-weight="normal" font-style="normal" data-name="1" data-compartment="0">
							<g transform="translate(8, 8)" fill="#33322E" text-align="center" data-name="1" data-compartment="0">
								<text x="4.5" y="14.1" stroke="none" text-anchor="middle" data-name="1" data-compartment="0">1</text>
								
							</g>
						</g>
					</g>
					<g data-name="8">
						<g fill="#eee8d5" stroke="#33322E" data-name="8">
							<ellipse cx="1897.0" cy="346.0" rx="15.6" ry="20.0" data-name="8"></ellipse>
						</g>
						<g transform="translate(1884.5, 330)" font-family="Helvetica" font-size="12pt" font-weight="normal" font-style="normal" data-name="8" data-compartment="0">
							<g transform="translate(8, 8)" fill="#33322E" text-align="center" data-name="8" data-compartment="0">
								<text x="4.5" y="14.1" stroke="none" text-anchor="middle" data-name="8" data-compartment="0">8</text>
								
							</g>
						</g>
					</g>
					<g data-name="16">
						<g fill="#eee8d5" stroke="#33322E" data-name="16">
							<ellipse cx="821.0" cy="308.0" rx="21.3" ry="20.0" data-name="16"></ellipse>
						</g>
						<g transform="translate(804, 292)" font-family="Helvetica" font-size="12pt" font-weight="normal" font-style="normal" data-name="16" data-compartment="0">
							<g transform="translate(8, 8)" fill="#33322E" text-align="center" data-name="16" data-compartment="0">
								<text x="9.0" y="14.1" stroke="none" text-anchor="middle" data-name="16" data-compartment="0">16</text>
								
							</g>
						</g>
					</g>
					<g data-name="17">
						<g fill="#eee8d5" stroke="#33322E" data-name="17">
							<ellipse cx="1143.0" cy="394.0" rx="21.3" ry="20.0" data-name="17"></ellipse>
						</g>
						<g transform="translate(1126, 378)" font-family="Helvetica" font-size="12pt" font-weight="normal" font-style="normal" data-name="17" data-compartment="0">
							<g transform="translate(8, 8)" fill="#33322E" text-align="center" data-name="17" data-compartment="0">
								<text x="9.0" y="14.1" stroke="none" text-anchor="middle" data-name="17" data-compartment="0">17</text>
								
							</g>
						</g>
					</g>
					<g data-name="11">
						<g fill="#eee8d5" stroke="#33322E" data-name="11">
							<ellipse cx="1897.0" cy="476.0" rx="20.6" ry="20.0" data-name="11"></ellipse>
						</g>
						<g transform="translate(1880.5, 460)" font-family="Helvetica" font-size="12pt" font-weight="normal" font-style="normal" data-name="11" data-compartment="0">
							<g transform="translate(8, 8)" fill="#33322E" text-align="center" data-name="11" data-compartment="0">
								<text x="8.5" y="14.1" stroke="none" text-anchor="middle" data-name="11" data-compartment="0">11</text>
								
							</g>
						</g>
					</g>
					<g data-name="10">
						<g fill="#eee8d5" stroke="#33322E" data-name="10">
							<ellipse cx="1489.5" cy="552.0" rx="21.3" ry="20.0" data-name="10"></ellipse>
						</g>
						<g transform="translate(1472.5, 536)" font-family="Helvetica" font-size="12pt" font-weight="normal" font-style="normal" data-name="10" data-compartment="0">
							<g transform="translate(8, 8)" fill="#33322E" text-align="center" data-name="10" data-compartment="0">
								<text x="9.0" y="14.1" stroke="none" text-anchor="middle" data-name="10" data-compartment="0">10</text>
								
							</g>
						</g>
					</g>
					<g data-name="9">
						<g fill="#eee8d5" stroke="#33322E" data-name="9">
							<ellipse cx="1897.0" cy="628.0" rx="15.6" ry="20.0" data-name="9"></ellipse>
						</g>
						<g transform="translate(1884.5, 612)" font-family="Helvetica" font-size="12pt" font-weight="normal" font-style="normal" data-name="9" data-compartment="0">
							<g transform="translate(8, 8)" fill="#33322E" text-align="center" data-name="9" data-compartment="0">
								<text x="4.5" y="14.1" stroke="none" text-anchor="middle" data-name="9" data-compartment="0">9</text>
								
							</g>
						</g>
					</g>
					<g data-name="13">
						<g fill="#eee8d5" stroke="#33322E" data-name="13">
							<ellipse cx="1489.5" cy="784.0" rx="21.3" ry="20.0" data-name="13"></ellipse>
						</g>
						<g transform="translate(1472.5, 768)" font-family="Helvetica" font-size="12pt" font-weight="normal" font-style="normal" data-name="13" data-compartment="0">
							<g transform="translate(8, 8)" fill="#33322E" text-align="center" data-name="13" data-compartment="0">
								<text x="9.0" y="14.1" stroke="none" text-anchor="middle" data-name="13" data-compartment="0">13</text>
								
							</g>
						</g>
					</g>
					<g data-name="12">
						<g fill="#eee8d5" stroke="#33322E" data-name="12">
							<ellipse cx="1897.0" cy="708.0" rx="21.3" ry="20.0" data-name="12"></ellipse>
						</g>
						<g transform="translate(1880, 692)" font-family="Helvetica" font-size="12pt" font-weight="normal" font-style="normal" data-name="12" data-compartment="0">
							<g transform="translate(8, 8)" fill="#33322E" text-align="center" data-name="12" data-compartment="0">
								<text x="9.0" y="14.1" stroke="none" text-anchor="middle" data-name="12" data-compartment="0">12</text>
								
							</g>
						</g>
					</g>
					<g data-name="14">
						<g fill="#eee8d5" stroke="#33322E" data-name="14">
							<ellipse cx="1897.0" cy="864.0" rx="21.3" ry="20.0" data-name="14"></ellipse>
						</g>
						<g transform="translate(1880, 848)" font-family="Helvetica" font-size="12pt" font-weight="normal" font-style="normal" data-name="14" data-compartment="0">
							<g transform="translate(8, 8)" fill="#33322E" text-align="center" data-name="14" data-compartment="0">
								<text x="9.0" y="14.1" stroke="none" text-anchor="middle" data-name="14" data-compartment="0">14</text>
								
							</g>
						</g>
					</g>
					<g data-name="5">
						<g fill="#eee8d5" stroke="#33322E" data-name="5">
							<ellipse cx="3280.5" cy="292.0" rx="15.6" ry="20.0" data-name="5"></ellipse>
						</g>
						<g transform="translate(3268, 276)" font-family="Helvetica" font-size="12pt" font-weight="normal" font-style="normal" data-name="5" data-compartment="0">
							<g transform="translate(8, 8)" fill="#33322E" text-align="center" data-name="5" data-compartment="0">
								<text x="4.5" y="14.1" stroke="none" text-anchor="middle" data-name="5" data-compartment="0">5</text>
								
							</g>
						</g>
					</g>
					<g data-name="6">
						<g fill="#eee8d5" stroke="#33322E" data-name="6">
							<ellipse cx="2926.5" cy="368.0" rx="15.6" ry="20.0" data-name="6"></ellipse>
						</g>
						<g transform="translate(2914, 352)" font-family="Helvetica" font-size="12pt" font-weight="normal" font-style="normal" data-name="6" data-compartment="0">
							<g transform="translate(8, 8)" fill="#33322E" text-align="center" data-name="6" data-compartment="0">
								<text x="4.5" y="14.1" stroke="none" text-anchor="middle" data-name="6" data-compartment="0">6</text>
								
							</g>
						</g>
					</g>
					<g data-name="15">
						<g fill="#eee8d5" stroke="#33322E" data-name="15">
							<ellipse cx="1489.5" cy="940.0" rx="21.3" ry="20.0" data-name="15"></ellipse>
						</g>
						<g transform="translate(1472.5, 924)" font-family="Helvetica" font-size="12pt" font-weight="normal" font-style="normal" data-name="15" data-compartment="0">
							<g transform="translate(8, 8)" fill="#33322E" text-align="center" data-name="15" data-compartment="0">
								<text x="9.0" y="14.1" stroke="none" text-anchor="middle" data-name="15" data-compartment="0">15</text>
								
							</g>
						</g>
					</g>
				</g>
			</g>
		</g>
	</g>
</svg>