<svg version="1.1" baseProfile="full" width="2745.2" height="1024.0" viewBox="0 0 2745.1875 1024" xmlns="http://www.w3.org/2000/svg" xmlns:xlink="http://www.w3.org/1999/xlink" xmlns:ev="http://www.w3.org/2001/xml-events">
	<title >CsabaDu_DynamicTestData_ExtensionPoints_simplified</title>
	<desc >#title: CsabaDu_DynamicTestData_ExtensionPoints_simplified
	#direction: down
	#.contract: fill=#DCE8CF title=center,italic,bold body=left,italic visual=class
	#.concrete: fill=#C9DEEF title=center,bold body=left visual=class
	#.abstract: fill=#C9DEEF title=center,bold,italic body=left visual=class
	
	
	
	[&lt;contract&gt;
	ITestDataRows]
	
	[&lt;abstract&gt;
	DynamicNamedDataRowSource&lt;TRow&gt;]
	
	[&lt;abstract&gt;
	DynamicDataSource]
	
	[&lt;contract&gt;
	ITestDataRow&lt;TRow, TTestData&gt;]
	
	[&lt;contract&gt;
	INamedTestDataRow&lt;TRow&gt;]
	
	[&lt;abstract&gt;
	TestDataRow&lt;TRow, TTestData&gt;]
	
	[&lt;contract&gt;
	ITestDataRow&lt;TRow&gt;]
	
	[&lt;abstract&gt;
	DynamicDataRowSource&lt;TRow&gt;]
	
	[&lt;abstract&gt;
	DynamicDataRowSource&lt;TDataRowHolder, TRow&gt;]
	
	[&lt;contract&gt;
	IDataRowHolder]
	
	[&lt;contract&gt;
	INamedDataRowHolder&lt;TRow&gt;]
	
	[&lt;contract&gt;
	IDataRowHolder&lt;TRow, TTestData&gt;]
	
	[&lt;contract&gt;
	IReadonlyCollection&lt;ITestDataRow&gt;]
	
	[&lt;abstract&gt;
	NamedDataRowHolder&lt;TRow, TTestData&gt;]
	
	[&lt;abstract&gt;
	DataRowHolder&lt;TRow, TTestData&gt;]
	
	[&lt;contract&gt;
	IDataRowHolder&lt;TRow&gt;]
	
	[&lt;contract&gt;
	ITestDataRow]
	
	[&lt;contract&gt;
	IRows&lt;TRow&gt;]
	
	[&lt;abstract&gt;
	DynamicExpectedObjectArrayRowSource]
	
	[&lt;abstract&gt;
	DynamicDataSource&lt;TDataHolder&gt;]
	
	[&lt;contract&gt;
	INamedRows&lt;TRow&gt;]
	
	[&lt;abstract&gt;
	DynamicDataSource |
	[&lt;concrete&gt;DataStrategyMemento]]
	
	[&lt;abstract&gt;
	DynamicObjectArrayRowSource]
	
	[&lt;abstract&gt;
	DynamicObjectArraySource]
	
	[&lt;abstract&gt;
	DynamicExpectedObjectArraySource]
	
	[&lt;concrete&gt;
	ObjectArrayRowHolder&lt;TTestData&gt;]
	
	[&lt;concrete&gt;
	ObjectArrayRow&lt;TTestData&gt;]
	
	[&lt;abstract&gt;
	NamedTestDataRow&lt;TRow, TTestData&gt;]
	
	
	
	[ITestDataRows] &lt;:--
	[DynamicDataRowSource&lt;TDataRowHolder, TRow&gt;]
	
	[DynamicDataRowSource&lt;TRow&gt;] &lt;:-
	[DynamicObjectArrayRowSource]
	
	[DynamicDataRowSource&lt;TRow&gt;]-&gt;
	[&lt;usecase&gt; 7]
	
	[ITestDataRow] &lt;-o
	[IReadonlyCollection&lt;ITestDataRow&gt;]
	
	[ITestDataRows] &lt;:-
	[IDataRowHolder]
	
	[ITestDataRow] &lt;:-
	[ITestDataRow&lt;TRow&gt;]
	
	
	
	[INamedRows&lt;TRow&gt;] &lt;:--
	[DynamicNamedDataRowSource&lt;TRow&gt;] -:&gt;
	[DynamicDataRowSource&lt;TDataRowHolder, TRow&gt;]
	
	[DynamicDataSource&lt;TDataHolder&gt;] -&gt;
	[&lt;usecase&gt; 4]
	
	[DynamicDataRowSource&lt;TDataRowHolder, TRow&gt;] -:&gt;
	[DynamicDataSource&lt;TDataHolder&gt;] -:&gt;
	[DynamicDataSource]
	
	[DynamicDataSource] -&gt;
	[&lt;usecase&gt; 3]
	
	[DynamicObjectArraySource] -&gt;
	[&lt;usecase&gt; 2]
	
	[DynamicObjectArraySource] &lt;:-
	[DynamicExpectedObjectArraySource]
	
	[DynamicExpectedObjectArraySource] -&gt;
	[&lt;usecase&gt; 1]
	
	
	[ITestDataRows] o-&gt;
	[ITestDataRow]
	
	[DynamicDataRowSource&lt;TDataRowHolder, TRow&gt;] &lt;:-
	[DynamicDataRowSource&lt;TRow&gt;]
	
	[DynamicNamedDataRowSource&lt;TRow&gt;] -&gt;
	[&lt;usecase&gt; 8]
	
	[IDataRowHolder&lt;TRow&gt;] -:&gt;
	[IRows&lt;TRow&gt;]
	
	[IDataRowHolder] &lt;:-
	[IDataRowHolder&lt;TRow&gt;]
	
	[IDataRowHolder&lt;TRow&gt;] &lt;-+
	[DynamicDataRowSource&lt;TDataRowHolder, TRow&gt;]
	
	[IDataRowHolder&lt;TRow&gt;] -&gt;
	[&lt;usecase&gt; 16]
	
	[IDataRowHolder&lt;TRow&gt;] &lt;:-
	[INamedDataRowHolder&lt;TRow&gt;] 
	
	[DynamicDataSource] &lt;:-
	[DynamicObjectArraySource]
	
	[INamedDataRowHolder&lt;TRow&gt;] -:&gt;
	[INamedRows&lt;TRow&gt;]
	
	[IDataRowHolder&lt;TRow&gt;] &lt;:-
	[IDataRowHolder&lt;TRow, TTestData&gt;]
	
	[INamedDataRowHolder&lt;TRow&gt;] -&gt;
	[&lt;usecase&gt; 17]
	
	[INamedDataRowHolder&lt;TRow&gt;] &lt;:--
	[NamedDataRowHolder&lt;TRow, TTestData&gt;]
	
	[NamedDataRowHolder&lt;TRow, TTestData&gt;] -&gt;
	[&lt;usecase&gt; 11]
	
	[DataRowHolder&lt;TRow, TTestData&gt;] &lt;:-
	[NamedDataRowHolder&lt;TRow, TTestData&gt;]
	
	[DataRowHolder&lt;TRow, TTestData&gt;] -&gt;
	[&lt;usecase&gt; 10]
	
	[DataRowHolder&lt;TRow, TTestData&gt;] &lt;:-
	[ObjectArrayRowHolder&lt;TTestData&gt;] -&gt;
	[&lt;usecase&gt; 9]
	
	[IReadonlyCollection&lt;ITestDataRow&gt;] &lt;:-
	[IDataRowHolder&lt;TRow, TTestData&gt;]
	
	[IDataRowHolder&lt;TRow, TTestData&gt;] &lt;:--
	[DataRowHolder&lt;TRow, TTestData&gt;]
	
	[ITestDataRow&lt;TRow, TTestData&gt;] &lt;-+
	[DataRowHolder&lt;TRow, TTestData&gt;]
	
	[ITestDataRow&lt;TRow&gt;] &lt;:-
	[ITestDataRow&lt;TRow, TTestData&gt;]&lt;:--
	[TestDataRow&lt;TRow, TTestData&gt;] &lt;:-
	[ObjectArrayRow&lt;TTestData&gt;]
	
	[TestDataRow&lt;TRow, TTestData&gt;] -&gt;
	[&lt;usecase&gt; 13]
	
	[ObjectArrayRow&lt;TTestData&gt;] -&gt;
	[&lt;usecase&gt; 12]
	
	[TestDataRow&lt;TRow, TTestData&gt;] &lt;:-
	[NamedTestDataRow&lt;TRow, TTestData&gt;]
	
	[INamedTestDataRow&lt;TRow&gt;] &lt;:--
	[NamedTestDataRow&lt;TRow, TTestData&gt;]
	
	[IRows&lt;TRow&gt;] &lt;:--
	[DynamicDataRowSource&lt;TDataRowHolder, TRow&gt;]
	
	[ITestDataRow&lt;TRow&gt;] &lt;:-
	[INamedTestDataRow&lt;TRow&gt;]
	
	[NamedTestDataRow&lt;TRow, TTestData&gt;] -&gt;
	[&lt;usecase&gt; 14]
	
	[DynamicObjectArrayRowSource] &lt;:-
	[DynamicExpectedObjectArrayRowSource] -&gt;
	[&lt;usecase&gt; 5]
	
	[DynamicObjectArrayRowSource] -&gt;
	[&lt;usecase&gt; 6]
	
	[INamedTestDataRow&lt;TRow&gt;] -&gt;
	[&lt;usecase&gt; 15]
	</desc>
	<g stroke-width="1.0" text-align="left" font="12pt Helvetica, Arial, sans-serif" font-size="12pt" font-family="Helvetica" font-weight="bold" font-style="normal">
		<g font-family="Helvetica" font-size="12pt" font-weight="bold" font-style="normal" stroke-width="3.0" stroke-linejoin="round" stroke-linecap="round" stroke="#33322E">
			<g stroke="transparent" fill="transparent">
				<rect x="0.0" y="0.0" height="1024.0" width="2745.2" stroke="none"></rect>
			</g>
			<g transform="translate(8, 8)" fill="#33322E">
				<g transform="translate(20, 20)" fill="#33322E" font-family="Helvetica" font-size="12pt" font-weight="normal" font-style="normal">
					<g stroke-dasharray="6 6">
						<path d="M687.7 23.4 L386.4375 52 L386.4375 88 L386.4375 88 L386.4375 124 L386.4375 124 L386.4375 160 L386.4375 160 L386.4375 196 L386.4375 196 L386.4375 236 L386.4375 236 L386.4375 276 L386.4375 276 L386.4375 316 L386.4375 316 L386.4375 356 L386.4375 356 L386.4375 396 L386.4375 396 L386.4375 436 L386.4375 436 L499.35 460 L499.4 460.0 " fill="none"></path>
					</g>
					<path d="M688.2 28.7 L687.7 23.4 L687.2 18.1 L701.0 22.1 Z"></path>
					<path d="M827.2 572.8 L788.0625 588 L788.0625 652 L788.1 652.0 " fill="none"></path>
					<path d="M829.1 577.8 L827.2 572.8 L825.3 567.8 L839.6 568.0 Z"></path>
					<path d="M922.1 568.0 L973.6875 588 L973.6875 641.3333333333334 L973.7 641.3 " fill="none"></path>
					<path d="M968.4 634.7 L973.7 641.3 L979.0 634.7 L973.7 648.0 Z"></path>
					<path d="M2104.5 91.8 L1538.1875 124 L1538.1875 125.33333333333334 L1538.2 125.3 " fill="none"></path>
					<g fill="#eee8d5">
						<path d="M1532.9 134.7 L1538.2 125.3 L1543.5 134.7 L1538.2 144.0 Z"></path>
					</g>
					<path d="M2098.2 97.5 L2104.5 91.8 L2097.6 86.8 L2111.2 91.4 Z"></path>
					<path d="M765.5 45.3 L765.5 52 L765.5 72 L765.5 72.0 " fill="none"></path>
					<path d="M770.8 45.3 L765.5 45.3 L760.2 45.3 L765.5 32.0 Z"></path>
					<path d="M2244.1 107.0 L2309.4375 124 L2309.4375 144 L2309.4 144.0 " fill="none"></path>
					<path d="M2245.4 101.8 L2244.1 107.0 L2242.7 112.1 L2231.2 103.6 Z"></path>
					<g stroke-dasharray="6 6">
						<path d="M878.9 345.3 L878.9375 356 L878.9375 380 L878.9 380.0 " fill="none"></path>
					</g>
					<path d="M884.3 345.3 L878.9 345.3 L873.6 345.3 L878.9 332.0 Z"></path>
					<path d="M818.0 412.0 L726.625 436 L648.319327163502 456.60675600960474 L648.3 456.6 " fill="none"></path>
					<path d="M647.0 451.4 L648.3 456.6 L649.7 461.8 L635.4 460.0 Z"></path>
					<path d="M102.5 568.0 L53.6875 588 L53.6875 641.3333333333334 L53.7 641.3 " fill="none"></path>
					<path d="M48.4 634.7 L53.7 641.3 L59.0 634.7 L53.7 648.0 Z"></path>
					<path d="M401.4 492.0 L141.5 516 L141.5 522.6666666666666 L141.5 522.7 " fill="none"></path>
					<path d="M136.2 522.7 L141.5 522.7 L146.8 522.7 L141.5 536.0 Z"></path>
					<path d="M180.5 568.0 L229.3125 588 L229.3125 594.6666666666666 L229.3 594.7 " fill="none"></path>
					<path d="M224.0 594.7 L229.3 594.7 L234.6 594.7 L229.3 608.0 Z"></path>
					<path d="M165.9 728.0 L144.75 748 L144.75 761.3333333333334 L144.8 761.3 " fill="none"></path>
					<path d="M139.4 754.7 L144.8 761.3 L150.1 754.7 L144.8 768.0 Z"></path>
					<path d="M273.1 804.0 L211.8125 828 L211.8125 841.3333333333334 L211.8 841.3 " fill="none"></path>
					<path d="M206.5 834.7 L211.8 841.3 L217.1 834.7 L211.8 848.0 Z"></path>
					<path d="M367.1 808.9 L415.9375 828 L415.9375 852 L415.9 852.0 " fill="none"></path>
					<path d="M369.1 803.9 L367.1 808.9 L365.2 813.8 L354.7 804.0 Z"></path>
					<path d="M415.9 884.0 L415.9375 908 L415.9375 921.3333333333334 L415.9 921.3 " fill="none"></path>
					<path d="M410.6 914.7 L415.9 921.3 L421.3 914.7 L415.9 928.0 Z"></path>
					<path d="M848.7 18.1 L2171.1875 52 L2171.1875 65.33333333333333 L2171.2 65.3 " fill="none"></path>
					<path d="M2165.9 58.7 L2171.2 65.3 L2176.5 58.7 L2171.2 72.0 Z"></path>
					<g fill="#eee8d5">
						<path d="M839.5 12.6 L848.7 18.1 L839.2 23.2 L830.0 17.7 Z"></path>
					</g>
					<path d="M710.3 493.7 L880.875 516 L880.875 536 L880.9 536.0 " fill="none"></path>
					<path d="M711.0 488.4 L710.3 493.7 L709.7 499.0 L697.1 492.0 Z"></path>
					<path d="M919.3 412.0 L979.8125 436 L979.8125 449.3333333333333 L979.8 449.3 " fill="none"></path>
					<path d="M974.5 442.7 L979.8 449.3 L985.1 442.7 L979.8 456.0 Z"></path>
					<path d="M665.0 173.9 L504.375 196 L504.375 236 L504.375 236 L504.375 276 L504.375 276 L504.375 316 L504.375 316 L504.375 356 L504.375 356 L504.375 366.6666666666667 L504.4 366.7 " fill="none"></path>
					<path d="M499.0 366.7 L504.4 366.7 L509.7 366.7 L504.4 380.0 Z"></path>
					<path d="M765.5 117.3 L765.5 124 L765.5 144 L765.5 144.0 " fill="none"></path>
					<path d="M770.8 117.3 L765.5 117.3 L760.2 117.3 L765.5 104.0 Z"></path>
					<path d="M688.5 177.5 L606.875 196 L606.875 236 L606.875 236 L606.875 276 L606.875 276 L606.875 316 L606.875 316 L606.875 356 L606.875 356 L606.875 396 L606.875 396 L606.875 436 L606.875 436 L599.2412704235386 445.46819172274286 L599.2 445.5 " fill="none"></path>
					<g fill="#33322E">
						<path d="M589.2 449.4 L599.2 445.5 L597.5 456.1 L587.5 460.0 Z"></path>
					</g>
					<path d="M683.2 184.2 L688.5 177.5 L680.8 173.7 L695.0 176.0 Z"></path>
					<path d="M730.7 176.0 L687.125 196 L687.125 209.33333333333334 L687.1 209.3 " fill="none"></path>
					<path d="M681.8 202.7 L687.1 209.3 L692.5 202.7 L687.1 216.0 Z"></path>
					<path d="M879.2 174.3 L1052.4375 196 L1052.4375 220 L1052.4 220.0 " fill="none"></path>
					<path d="M879.9 169.0 L879.2 174.3 L878.6 179.6 L866.0 172.6 Z"></path>
					<path d="M302.4 737.2 L313.875 748 L313.875 772 L313.9 772.0 " fill="none"></path>
					<path d="M306.1 733.3 L302.4 737.2 L298.8 741.0 L292.7 728.0 Z"></path>
					<path d="M983.0 252.0 L878.9375 276 L878.9375 286.6666666666667 L878.9 286.7 " fill="none"></path>
					<path d="M873.6 286.7 L878.9 286.7 L884.3 286.7 L878.9 300.0 Z"></path>
					<path d="M879.3 168.3 L1257.5625 196 L1343.3625 220 L1343.4 220.0 " fill="none"></path>
					<path d="M879.7 163.0 L879.3 168.3 L878.9 173.6 L866.0 167.4 Z"></path>
					<path d="M1052.4 252.0 L1052.4375 276 L1052.4375 289.3333333333333 L1052.4 289.3 " fill="none"></path>
					<path d="M1047.1 282.7 L1052.4 289.3 L1057.8 282.7 L1052.4 296.0 Z"></path>
					<g stroke-dasharray="6 6">
						<path d="M1092.6 258.5 L1123.6875 276 L1123.6875 316 L1123.6875 316 L1123.6875 356 L1123.6875 356 L1196.4375 380 L1196.4 380.0 " fill="none"></path>
					</g>
					<path d="M1095.2 253.9 L1092.6 258.5 L1090.0 263.2 L1080.9 252.0 Z"></path>
					<path d="M1244.9 412.0 L1244.9375 436 L1244.9375 449.3333333333333 L1244.9 449.3 " fill="none"></path>
					<path d="M1239.6 442.7 L1244.9 449.3 L1250.3 442.7 L1244.9 456.0 Z"></path>
					<path d="M1376.6 335.3 L1294.8125 356 L1264.8875 380 L1264.9 380.0 " fill="none"></path>
					<path d="M1377.9 340.4 L1376.6 335.3 L1375.3 330.1 L1389.5 332.0 Z"></path>
					<path d="M1460.7 332.0 L1472.6875 356 L1472.6875 369.3333333333333 L1472.7 369.3 " fill="none"></path>
					<path d="M1467.4 362.7 L1472.7 369.3 L1478.0 362.7 L1472.7 376.0 Z"></path>
					<path d="M1555.3 334.3 L1676.4375 356 L1676.4375 380 L1676.4 380.0 " fill="none"></path>
					<path d="M1556.3 329.1 L1555.3 334.3 L1554.4 339.6 L1542.2 332.0 Z"></path>
					<path d="M1676.4 412.0 L1676.4375 436 L1676.4375 449.3333333333333 L1676.4 449.3 " fill="none"></path>
					<path d="M1671.1 442.7 L1676.4 449.3 L1681.8 442.7 L1676.4 456.0 Z"></path>
					<path d="M1538.2 189.3 L1538.1875 196 L1455.6125 220 L1455.6 220.0 " fill="none"></path>
					<path d="M1543.5 189.3 L1538.2 189.3 L1532.9 189.3 L1538.2 176.0 Z"></path>
					<g stroke-dasharray="6 6">
						<path d="M1400.6 265.3 L1400.5625 276 L1431.8375 300 L1431.8 300.0 " fill="none"></path>
					</g>
					<path d="M1405.9 265.3 L1400.6 265.3 L1395.2 265.3 L1400.6 252.0 Z"></path>
					<path d="M1970.7 252.9 L1806.4375 276 L1611.2359650336223 298.07225837075646 L1611.2 298.1 " fill="none"></path>
					<g fill="#33322E">
						<path d="M1601.4 293.8 L1611.2 298.1 L1602.6 304.4 L1592.7 300.2 Z"></path>
					</g>
					<path d="M1964.8 259.1 L1970.7 252.9 L1963.3 248.6 L1977.3 252.0 Z"></path>
					<path d="M2205.3 177.2 L2091.1875 196 L2091.1875 220 L2091.2 220.0 " fill="none"></path>
					<path d="M2206.1 182.4 L2205.3 177.2 L2204.4 171.9 L2218.4 175.0 Z"></path>
					<g stroke-dasharray="6 6">
						<path d="M2105.2 263.9 L2111.1875 276 L2111.1875 300 L2111.2 300.0 " fill="none"></path>
					</g>
					<path d="M2109.9 261.5 L2105.2 263.9 L2100.4 266.3 L2099.2 252.0 Z"></path>
					<path d="M2044.5 335.8 L1976.4375 356 L1976.4375 380 L1976.4 380.0 " fill="none"></path>
					<path d="M2046.0 340.9 L2044.5 335.8 L2043.0 330.7 L2057.3 332.0 Z"></path>
					<path d="M2128.8 332.0 L2155.1875 356 L2155.1875 369.3333333333333 L2155.2 369.3 " fill="none"></path>
					<path d="M2149.9 362.7 L2155.2 369.3 L2160.5 362.7 L2155.2 376.0 Z"></path>
					<path d="M1976.4 412.0 L1976.4375 436 L1976.4375 449.3333333333333 L1976.4 449.3 " fill="none"></path>
					<path d="M1971.1 442.7 L1976.4 449.3 L1981.8 442.7 L1976.4 456.0 Z"></path>
					<path d="M2175.6 335.9 L2240.3125 356 L2320.1875 380 L2320.2 380.0 " fill="none"></path>
					<path d="M2177.2 330.9 L2175.6 335.9 L2174.0 341.0 L2162.8 332.0 Z"></path>
					<g stroke-dasharray="6 6">
						<path d="M2497.5 335.4 L2418.5625 356 L2391.4875 380 L2391.5 380.0 " fill="none"></path>
					</g>
					<path d="M2498.9 340.5 L2497.5 335.4 L2496.2 330.2 L2510.4 332.0 Z"></path>
					<g stroke-dasharray="6 6">
						<path d="M504.4 425.3 L504.375 436 L546.525 460 L546.5 460.0 " fill="none"></path>
					</g>
					<path d="M509.7 425.3 L504.4 425.3 L499.0 425.3 L504.4 412.0 Z"></path>
					<path d="M2413.6 174.3 L2571.6875 196 L2571.6875 236 L2571.6875 236 L2571.6875 276 L2571.6875 276 L2571.6875 300 L2571.7 300.0 " fill="none"></path>
					<path d="M2414.4 169.0 L2413.6 174.3 L2412.9 179.6 L2400.4 172.5 Z"></path>
					<path d="M2373.4 412.0 L2373.4375 436 L2373.4375 449.3333333333333 L2373.4 449.3 " fill="none"></path>
					<path d="M2368.1 442.7 L2373.4 449.3 L2378.8 442.7 L2373.4 456.0 Z"></path>
					<path d="M755.1 691.8 L677.5 748 L677.5 772 L677.5 772.0 " fill="none"></path>
					<path d="M758.3 696.1 L755.1 691.8 L752.0 687.5 L766.0 684.0 Z"></path>
					<path d="M677.5 804.0 L677.5 828 L677.5 841.3333333333334 L677.5 841.3 " fill="none"></path>
					<path d="M672.2 834.7 L677.5 841.3 L682.8 834.7 L677.5 848.0 Z"></path>
					<path d="M810.2 684.0 L898.625 748 L898.625 761.3333333333334 L898.6 761.3 " fill="none"></path>
					<path d="M893.3 754.7 L898.6 761.3 L904.0 754.7 L898.6 768.0 Z"></path>
					<path d="M2579.7 332.0 L2591.6875 356 L2591.6875 369.3333333333333 L2591.7 369.3 " fill="none"></path>
					<path d="M2586.4 362.7 L2591.7 369.3 L2597.0 362.7 L2591.7 376.0 Z"></path>
					<g data-name="ITestDataRows">
						<g fill="#DCE8CF" stroke="#33322E" data-name="ITestDataRows">
							<rect x="701.0" y="0.0" height="32.0" width="129.0" data-name="ITestDataRows"></rect>
						</g>
						<g transform="translate(701, 0)" font-family="Helvetica" font-size="12pt" font-weight="bold" font-style="italic" data-name="ITestDataRows" data-compartment="0">
							<g transform="translate(8, 8)" fill="#33322E" text-align="center" data-name="ITestDataRows" data-compartment="0">
								<text x="56.5" y="14.1" stroke="none" text-anchor="middle" data-name="ITestDataRows" data-compartment="0">ITestDataRows</text>
								
							</g>
						</g>
					</g>
					<g data-name="DynamicNamedDataRowSource&lt;TRow&gt;">
						<g fill="#C9DEEF" stroke="#33322E" data-name="DynamicNamedDataRowSource&lt;TRow&gt;">
							<rect x="719.4" y="380.0" height="32.0" width="319.0" data-name="DynamicNamedDataRowSource&lt;TRow&gt;"></rect>
						</g>
						<g transform="translate(719.4375, 380)" font-family="Helvetica" font-size="12pt" font-weight="bold" font-style="italic" data-name="DynamicNamedDataRowSource&lt;TRow&gt;" data-compartment="0">
							<g transform="translate(8, 8)" fill="#33322E" text-align="center" data-name="DynamicNamedDataRowSource&lt;TRow&gt;" data-compartment="0">
								<text x="151.5" y="14.1" stroke="none" text-anchor="middle" data-name="DynamicNamedDataRowSource&lt;TRow&gt;" data-compartment="0">DynamicNamedDataRowSource&lt;TRow&gt;</text>
								
							</g>
						</g>
					</g>
					<g data-name="DynamicDataSource">
						<g fill="#C9DEEF" stroke="#33322E" data-name="DynamicDataSource">
							<rect x="109.3" y="608.0" height="120.0" width="240.0" data-name="DynamicDataSource"></rect>
							<path d="M109.3 640.0 L349.3 640.0" fill="none" data-name="DynamicDataSource"></path>
						</g>
						<g transform="translate(109.3125, 608)" font-family="Helvetica" font-size="12pt" font-weight="bold" font-style="italic" data-name="DynamicDataSource" data-compartment="0">
							<g transform="translate(8, 8)" fill="#33322E" text-align="center" data-name="DynamicDataSource" data-compartment="0">
								<text x="112.0" y="14.1" stroke="none" text-anchor="middle" data-name="DynamicDataSource" data-compartment="0">DynamicDataSource</text>
								
							</g>
						</g>
						<g transform="translate(109.3125, 640)" font-family="Helvetica" font-size="12pt" font-weight="normal" font-style="normal" data-name="DynamicDataSource" data-compartment="1">
							<g transform="translate(8, 8)" fill="#33322E" data-name="DynamicDataSource" data-compartment="1">
								<g transform="translate(20, 20)" data-name="DynamicDataSource" data-compartment="1">
									<g data-name="DataStrategyMemento">
										<g fill="#C9DEEF" stroke="#33322E" data-name="DataStrategyMemento">
											<rect x="0.0" y="0.0" height="32.0" width="184.0" data-name="DataStrategyMemento"></rect>
										</g>
										<g transform="translate(0, 0)" font-family="Helvetica" font-size="12pt" font-weight="bold" font-style="normal" data-name="DataStrategyMemento" data-compartment="0">
											<g transform="translate(8, 8)" fill="#33322E" text-align="center" data-name="DataStrategyMemento" data-compartment="0">
												<text x="84.0" y="14.1" stroke="none" text-anchor="middle" data-name="DataStrategyMemento" data-compartment="0">DataStrategyMemento</text>
												
											</g>
										</g>
									</g>
								</g>
							</g>
						</g>
					</g>
					<g data-name="ITestDataRow&lt;TRow, TTestData&gt;">
						<g fill="#DCE8CF" stroke="#33322E" data-name="ITestDataRow&lt;TRow, TTestData&gt;">
							<rect x="1958.7" y="220.0" height="32.0" width="265.0" data-name="ITestDataRow&lt;TRow, TTestData&gt;"></rect>
						</g>
						<g transform="translate(1958.6875, 220)" font-family="Helvetica" font-size="12pt" font-weight="bold" font-style="italic" data-name="ITestDataRow&lt;TRow, TTestData&gt;" data-compartment="0">
							<g transform="translate(8, 8)" fill="#33322E" text-align="center" data-name="ITestDataRow&lt;TRow, TTestData&gt;" data-compartment="0">
								<text x="124.5" y="14.1" stroke="none" text-anchor="middle" data-name="ITestDataRow&lt;TRow, TTestData&gt;" data-compartment="0">ITestDataRow&lt;TRow, TTestData&gt;</text>
								
							</g>
						</g>
					</g>
					<g data-name="INamedTestDataRow&lt;TRow&gt;">
						<g fill="#DCE8CF" stroke="#33322E" data-name="INamedTestDataRow&lt;TRow&gt;">
							<rect x="2454.2" y="300.0" height="32.0" width="235.0" data-name="INamedTestDataRow&lt;TRow&gt;"></rect>
						</g>
						<g transform="translate(2454.1875, 300)" font-family="Helvetica" font-size="12pt" font-weight="bold" font-style="italic" data-name="INamedTestDataRow&lt;TRow&gt;" data-compartment="0">
							<g transform="translate(8, 8)" fill="#33322E" text-align="center" data-name="INamedTestDataRow&lt;TRow&gt;" data-compartment="0">
								<text x="109.5" y="14.1" stroke="none" text-anchor="middle" data-name="INamedTestDataRow&lt;TRow&gt;" data-compartment="0">INamedTestDataRow&lt;TRow&gt;</text>
								
							</g>
						</g>
					</g>
					<g data-name="TestDataRow&lt;TRow, TTestData&gt;">
						<g fill="#C9DEEF" stroke="#33322E" data-name="TestDataRow&lt;TRow, TTestData&gt;">
							<rect x="1980.7" y="300.0" height="32.0" width="261.0" data-name="TestDataRow&lt;TRow, TTestData&gt;"></rect>
						</g>
						<g transform="translate(1980.6875, 300)" font-family="Helvetica" font-size="12pt" font-weight="bold" font-style="italic" data-name="TestDataRow&lt;TRow, TTestData&gt;" data-compartment="0">
							<g transform="translate(8, 8)" fill="#33322E" text-align="center" data-name="TestDataRow&lt;TRow, TTestData&gt;" data-compartment="0">
								<text x="122.5" y="14.1" stroke="none" text-anchor="middle" data-name="TestDataRow&lt;TRow, TTestData&gt;" data-compartment="0">TestDataRow&lt;TRow, TTestData&gt;</text>
								
							</g>
						</g>
					</g>
					<g data-name="ITestDataRow&lt;TRow&gt;">
						<g fill="#DCE8CF" stroke="#33322E" data-name="ITestDataRow&lt;TRow&gt;">
							<rect x="2218.4" y="144.0" height="32.0" width="182.0" data-name="ITestDataRow&lt;TRow&gt;"></rect>
						</g>
						<g transform="translate(2218.4375, 144)" font-family="Helvetica" font-size="12pt" font-weight="bold" font-style="italic" data-name="ITestDataRow&lt;TRow&gt;" data-compartment="0">
							<g transform="translate(8, 8)" fill="#33322E" text-align="center" data-name="ITestDataRow&lt;TRow&gt;" data-compartment="0">
								<text x="83.0" y="14.1" stroke="none" text-anchor="middle" data-name="ITestDataRow&lt;TRow&gt;" data-compartment="0">ITestDataRow&lt;TRow&gt;</text>
								
							</g>
						</g>
					</g>
					<g data-name="DynamicDataRowSource&lt;TRow&gt;">
						<g fill="#C9DEEF" stroke="#33322E" data-name="DynamicDataRowSource&lt;TRow&gt;">
							<rect x="747.9" y="536.0" height="32.0" width="266.0" data-name="DynamicDataRowSource&lt;TRow&gt;"></rect>
						</g>
						<g transform="translate(747.875, 536)" font-family="Helvetica" font-size="12pt" font-weight="bold" font-style="italic" data-name="DynamicDataRowSource&lt;TRow&gt;" data-compartment="0">
							<g transform="translate(8, 8)" fill="#33322E" text-align="center" data-name="DynamicDataRowSource&lt;TRow&gt;" data-compartment="0">
								<text x="125.0" y="14.1" stroke="none" text-anchor="middle" data-name="DynamicDataRowSource&lt;TRow&gt;" data-compartment="0">DynamicDataRowSource&lt;TRow&gt;</text>
								
							</g>
						</g>
					</g>
					<g data-name="DynamicDataRowSource&lt;TDataRowHolder, TRow&gt;">
						<g fill="#C9DEEF" stroke="#33322E" data-name="DynamicDataRowSource&lt;TDataRowHolder, TRow&gt;">
							<rect x="373.6" y="460.0" height="32.0" width="402.0" data-name="DynamicDataRowSource&lt;TDataRowHolder, TRow&gt;"></rect>
						</g>
						<g transform="translate(373.625, 460)" font-family="Helvetica" font-size="12pt" font-weight="bold" font-style="italic" data-name="DynamicDataRowSource&lt;TDataRowHolder, TRow&gt;" data-compartment="0">
							<g transform="translate(8, 8)" fill="#33322E" text-align="center" data-name="DynamicDataRowSource&lt;TDataRowHolder, TRow&gt;" data-compartment="0">
								<text x="193.0" y="14.1" stroke="none" text-anchor="middle" data-name="DynamicDataRowSource&lt;TDataRowHolder, TRow&gt;" data-compartment="0">DynamicDataRowSource&lt;TDataRowHolder, TRow&gt;</text>
								
							</g>
						</g>
					</g>
					<g data-name="IDataRowHolder">
						<g fill="#DCE8CF" stroke="#33322E" data-name="IDataRowHolder">
							<rect x="696.0" y="72.0" height="32.0" width="139.0" data-name="IDataRowHolder"></rect>
						</g>
						<g transform="translate(696, 72)" font-family="Helvetica" font-size="12pt" font-weight="bold" font-style="italic" data-name="IDataRowHolder" data-compartment="0">
							<g transform="translate(8, 8)" fill="#33322E" text-align="center" data-name="IDataRowHolder" data-compartment="0">
								<text x="61.5" y="14.1" stroke="none" text-anchor="middle" data-name="IDataRowHolder" data-compartment="0">IDataRowHolder</text>
								
							</g>
						</g>
					</g>
					<g data-name="INamedDataRowHolder&lt;TRow&gt;">
						<g fill="#DCE8CF" stroke="#33322E" data-name="INamedDataRowHolder&lt;TRow&gt;">
							<rect x="925.4" y="220.0" height="32.0" width="254.0" data-name="INamedDataRowHolder&lt;TRow&gt;"></rect>
						</g>
						<g transform="translate(925.4375, 220)" font-family="Helvetica" font-size="12pt" font-weight="bold" font-style="italic" data-name="INamedDataRowHolder&lt;TRow&gt;" data-compartment="0">
							<g transform="translate(8, 8)" fill="#33322E" text-align="center" data-name="INamedDataRowHolder&lt;TRow&gt;" data-compartment="0">
								<text x="119.0" y="14.1" stroke="none" text-anchor="middle" data-name="INamedDataRowHolder&lt;TRow&gt;" data-compartment="0">INamedDataRowHolder&lt;TRow&gt;</text>
								
							</g>
						</g>
					</g>
					<g data-name="IDataRowHolder&lt;TRow, TTestData&gt;">
						<g fill="#DCE8CF" stroke="#33322E" data-name="IDataRowHolder&lt;TRow, TTestData&gt;">
							<rect x="1258.6" y="220.0" height="32.0" width="284.0" data-name="IDataRowHolder&lt;TRow, TTestData&gt;"></rect>
						</g>
						<g transform="translate(1258.5625, 220)" font-family="Helvetica" font-size="12pt" font-weight="bold" font-style="italic" data-name="IDataRowHolder&lt;TRow, TTestData&gt;" data-compartment="0">
							<g transform="translate(8, 8)" fill="#33322E" text-align="center" data-name="IDataRowHolder&lt;TRow, TTestData&gt;" data-compartment="0">
								<text x="134.0" y="14.1" stroke="none" text-anchor="middle" data-name="IDataRowHolder&lt;TRow, TTestData&gt;" data-compartment="0">IDataRowHolder&lt;TRow, TTestData&gt;</text>
								
							</g>
						</g>
					</g>
					<g data-name="IReadonlyCollection&lt;ITestDataRow&gt;">
						<g fill="#DCE8CF" stroke="#33322E" data-name="IReadonlyCollection&lt;ITestDataRow&gt;">
							<rect x="1392.7" y="144.0" height="32.0" width="291.0" data-name="IReadonlyCollection&lt;ITestDataRow&gt;"></rect>
						</g>
						<g transform="translate(1392.6875, 144)" font-family="Helvetica" font-size="12pt" font-weight="bold" font-style="italic" data-name="IReadonlyCollection&lt;ITestDataRow&gt;" data-compartment="0">
							<g transform="translate(8, 8)" fill="#33322E" text-align="center" data-name="IReadonlyCollection&lt;ITestDataRow&gt;" data-compartment="0">
								<text x="137.5" y="14.1" stroke="none" text-anchor="middle" data-name="IReadonlyCollection&lt;ITestDataRow&gt;" data-compartment="0">IReadonlyCollection&lt;ITestDataRow&gt;</text>
								
							</g>
						</g>
					</g>
					<g data-name="NamedDataRowHolder&lt;TRow, TTestData&gt;">
						<g fill="#C9DEEF" stroke="#33322E" data-name="NamedDataRowHolder&lt;TRow, TTestData&gt;">
							<rect x="1078.4" y="380.0" height="32.0" width="333.0" data-name="NamedDataRowHolder&lt;TRow, TTestData&gt;"></rect>
						</g>
						<g transform="translate(1078.4375, 380)" font-family="Helvetica" font-size="12pt" font-weight="bold" font-style="italic" data-name="NamedDataRowHolder&lt;TRow, TTestData&gt;" data-compartment="0">
							<g transform="translate(8, 8)" fill="#33322E" text-align="center" data-name="NamedDataRowHolder&lt;TRow, TTestData&gt;" data-compartment="0">
								<text x="158.5" y="14.1" stroke="none" text-anchor="middle" data-name="NamedDataRowHolder&lt;TRow, TTestData&gt;" data-compartment="0">NamedDataRowHolder&lt;TRow, TTestData&gt;</text>
								
							</g>
						</g>
					</g>
					<g data-name="DataRowHolder&lt;TRow, TTestData&gt;">
						<g fill="#C9DEEF" stroke="#33322E" data-name="DataRowHolder&lt;TRow, TTestData&gt;">
							<rect x="1312.7" y="300.0" height="32.0" width="280.0" data-name="DataRowHolder&lt;TRow, TTestData&gt;"></rect>
						</g>
						<g transform="translate(1312.6875, 300)" font-family="Helvetica" font-size="12pt" font-weight="bold" font-style="italic" data-name="DataRowHolder&lt;TRow, TTestData&gt;" data-compartment="0">
							<g transform="translate(8, 8)" fill="#33322E" text-align="center" data-name="DataRowHolder&lt;TRow, TTestData&gt;" data-compartment="0">
								<text x="132.0" y="14.1" stroke="none" text-anchor="middle" data-name="DataRowHolder&lt;TRow, TTestData&gt;" data-compartment="0">DataRowHolder&lt;TRow, TTestData&gt;</text>
								
							</g>
						</g>
					</g>
					<g data-name="IDataRowHolder&lt;TRow&gt;">
						<g fill="#DCE8CF" stroke="#33322E" data-name="IDataRowHolder&lt;TRow&gt;">
							<rect x="665.0" y="144.0" height="32.0" width="201.0" data-name="IDataRowHolder&lt;TRow&gt;"></rect>
						</g>
						<g transform="translate(665, 144)" font-family="Helvetica" font-size="12pt" font-weight="bold" font-style="italic" data-name="IDataRowHolder&lt;TRow&gt;" data-compartment="0">
							<g transform="translate(8, 8)" fill="#33322E" text-align="center" data-name="IDataRowHolder&lt;TRow&gt;" data-compartment="0">
								<text x="92.5" y="14.1" stroke="none" text-anchor="middle" data-name="IDataRowHolder&lt;TRow&gt;" data-compartment="0">IDataRowHolder&lt;TRow&gt;</text>
								
							</g>
						</g>
					</g>
					<g data-name="ITestDataRow">
						<g fill="#DCE8CF" stroke="#33322E" data-name="ITestDataRow">
							<rect x="2111.2" y="72.0" height="32.0" width="120.0" data-name="ITestDataRow"></rect>
						</g>
						<g transform="translate(2111.1875, 72)" font-family="Helvetica" font-size="12pt" font-weight="bold" font-style="italic" data-name="ITestDataRow" data-compartment="0">
							<g transform="translate(8, 8)" fill="#33322E" text-align="center" data-name="ITestDataRow" data-compartment="0">
								<text x="52.0" y="14.1" stroke="none" text-anchor="middle" data-name="ITestDataRow" data-compartment="0">ITestDataRow</text>
								
							</g>
						</g>
					</g>
					<g data-name="IRows&lt;TRow&gt;">
						<g fill="#DCE8CF" stroke="#33322E" data-name="IRows&lt;TRow&gt;">
							<rect x="441.9" y="380.0" height="32.0" width="125.0" data-name="IRows&lt;TRow&gt;"></rect>
						</g>
						<g transform="translate(441.875, 380)" font-family="Helvetica" font-size="12pt" font-weight="bold" font-style="italic" data-name="IRows&lt;TRow&gt;" data-compartment="0">
							<g transform="translate(8, 8)" fill="#33322E" text-align="center" data-name="IRows&lt;TRow&gt;" data-compartment="0">
								<text x="54.5" y="14.1" stroke="none" text-anchor="middle" data-name="IRows&lt;TRow&gt;" data-compartment="0">IRows&lt;TRow&gt;</text>
								
							</g>
						</g>
					</g>
					<g data-name="DynamicExpectedObjectArrayRowSource">
						<g fill="#C9DEEF" stroke="#33322E" data-name="DynamicExpectedObjectArrayRowSource">
							<rect x="512.0" y="772.0" height="32.0" width="331.0" data-name="DynamicExpectedObjectArrayRowSource"></rect>
						</g>
						<g transform="translate(512, 772)" font-family="Helvetica" font-size="12pt" font-weight="bold" font-style="italic" data-name="DynamicExpectedObjectArrayRowSource" data-compartment="0">
							<g transform="translate(8, 8)" fill="#33322E" text-align="center" data-name="DynamicExpectedObjectArrayRowSource" data-compartment="0">
								<text x="157.5" y="14.1" stroke="none" text-anchor="middle" data-name="DynamicExpectedObjectArrayRowSource" data-compartment="0">DynamicExpectedObjectArrayRowSource</text>
								
							</g>
						</g>
					</g>
					<g data-name="DynamicDataSource&lt;TDataHolder&gt;">
						<g fill="#C9DEEF" stroke="#33322E" data-name="DynamicDataSource&lt;TDataHolder&gt;">
							<rect x="0.0" y="536.0" height="32.0" width="283.0" data-name="DynamicDataSource&lt;TDataHolder&gt;"></rect>
						</g>
						<g transform="translate(0, 536)" font-family="Helvetica" font-size="12pt" font-weight="bold" font-style="italic" data-name="DynamicDataSource&lt;TDataHolder&gt;" data-compartment="0">
							<g transform="translate(8, 8)" fill="#33322E" text-align="center" data-name="DynamicDataSource&lt;TDataHolder&gt;" data-compartment="0">
								<text x="133.5" y="14.1" stroke="none" text-anchor="middle" data-name="DynamicDataSource&lt;TDataHolder&gt;" data-compartment="0">DynamicDataSource&lt;TDataHolder&gt;</text>
								
							</g>
						</g>
					</g>
					<g data-name="INamedRows&lt;TRow&gt;">
						<g fill="#DCE8CF" stroke="#33322E" data-name="INamedRows&lt;TRow&gt;">
							<rect x="789.9" y="300.0" height="32.0" width="178.0" data-name="INamedRows&lt;TRow&gt;"></rect>
						</g>
						<g transform="translate(789.9375, 300)" font-family="Helvetica" font-size="12pt" font-weight="bold" font-style="italic" data-name="INamedRows&lt;TRow&gt;" data-compartment="0">
							<g transform="translate(8, 8)" fill="#33322E" text-align="center" data-name="INamedRows&lt;TRow&gt;" data-compartment="0">
								<text x="81.0" y="14.1" stroke="none" text-anchor="middle" data-name="INamedRows&lt;TRow&gt;" data-compartment="0">INamedRows&lt;TRow&gt;</text>
								
							</g>
						</g>
					</g>
					<g data-name="DynamicObjectArrayRowSource">
						<g fill="#C9DEEF" stroke="#33322E" data-name="DynamicObjectArrayRowSource">
							<rect x="658.1" y="652.0" height="32.0" width="260.0" data-name="DynamicObjectArrayRowSource"></rect>
						</g>
						<g transform="translate(658.0625, 652)" font-family="Helvetica" font-size="12pt" font-weight="bold" font-style="italic" data-name="DynamicObjectArrayRowSource" data-compartment="0">
							<g transform="translate(8, 8)" fill="#33322E" text-align="center" data-name="DynamicObjectArrayRowSource" data-compartment="0">
								<text x="122.0" y="14.1" stroke="none" text-anchor="middle" data-name="DynamicObjectArrayRowSource" data-compartment="0">DynamicObjectArrayRowSource</text>
								
							</g>
						</g>
					</g>
					<g data-name="DynamicObjectArraySource">
						<g fill="#C9DEEF" stroke="#33322E" data-name="DynamicObjectArraySource">
							<rect x="200.4" y="772.0" height="32.0" width="227.0" data-name="DynamicObjectArraySource"></rect>
						</g>
						<g transform="translate(200.375, 772)" font-family="Helvetica" font-size="12pt" font-weight="bold" font-style="italic" data-name="DynamicObjectArraySource" data-compartment="0">
							<g transform="translate(8, 8)" fill="#33322E" text-align="center" data-name="DynamicObjectArraySource" data-compartment="0">
								<text x="105.5" y="14.1" stroke="none" text-anchor="middle" data-name="DynamicObjectArraySource" data-compartment="0">DynamicObjectArraySource</text>
								
							</g>
						</g>
					</g>
					<g data-name="DynamicExpectedObjectArraySource">
						<g fill="#C9DEEF" stroke="#33322E" data-name="DynamicExpectedObjectArraySource">
							<rect x="267.4" y="852.0" height="32.0" width="297.0" data-name="DynamicExpectedObjectArraySource"></rect>
						</g>
						<g transform="translate(267.4375, 852)" font-family="Helvetica" font-size="12pt" font-weight="bold" font-style="italic" data-name="DynamicExpectedObjectArraySource" data-compartment="0">
							<g transform="translate(8, 8)" fill="#33322E" text-align="center" data-name="DynamicExpectedObjectArraySource" data-compartment="0">
								<text x="140.5" y="14.1" stroke="none" text-anchor="middle" data-name="DynamicExpectedObjectArraySource" data-compartment="0">DynamicExpectedObjectArraySource</text>
								
							</g>
						</g>
					</g>
					<g data-name="ObjectArrayRowHolder&lt;TTestData&gt;">
						<g fill="#C9DEEF" stroke="#33322E" data-name="ObjectArrayRowHolder&lt;TTestData&gt;">
							<rect x="1533.9" y="380.0" height="32.0" width="285.0" data-name="ObjectArrayRowHolder&lt;TTestData&gt;"></rect>
						</g>
						<g transform="translate(1533.9375, 380)" font-family="Helvetica" font-size="12pt" font-weight="bold" font-style="normal" data-name="ObjectArrayRowHolder&lt;TTestData&gt;" data-compartment="0">
							<g transform="translate(8, 8)" fill="#33322E" text-align="center" data-name="ObjectArrayRowHolder&lt;TTestData&gt;" data-compartment="0">
								<text x="134.5" y="14.1" stroke="none" text-anchor="middle" data-name="ObjectArrayRowHolder&lt;TTestData&gt;" data-compartment="0">ObjectArrayRowHolder&lt;TTestData&gt;</text>
								
							</g>
						</g>
					</g>
					<g data-name="ObjectArrayRow&lt;TTestData&gt;">
						<g fill="#C9DEEF" stroke="#33322E" data-name="ObjectArrayRow&lt;TTestData&gt;">
							<rect x="1858.9" y="380.0" height="32.0" width="235.0" data-name="ObjectArrayRow&lt;TTestData&gt;"></rect>
						</g>
						<g transform="translate(1858.9375, 380)" font-family="Helvetica" font-size="12pt" font-weight="bold" font-style="normal" data-name="ObjectArrayRow&lt;TTestData&gt;" data-compartment="0">
							<g transform="translate(8, 8)" fill="#33322E" text-align="center" data-name="ObjectArrayRow&lt;TTestData&gt;" data-compartment="0">
								<text x="109.5" y="14.1" stroke="none" text-anchor="middle" data-name="ObjectArrayRow&lt;TTestData&gt;" data-compartment="0">ObjectArrayRow&lt;TTestData&gt;</text>
								
							</g>
						</g>
					</g>
					<g data-name="NamedTestDataRow&lt;TRow, TTestData&gt;">
						<g fill="#C9DEEF" stroke="#33322E" data-name="NamedTestDataRow&lt;TRow, TTestData&gt;">
							<rect x="2216.4" y="380.0" height="32.0" width="314.0" data-name="NamedTestDataRow&lt;TRow, TTestData&gt;"></rect>
						</g>
						<g transform="translate(2216.4375, 380)" font-family="Helvetica" font-size="12pt" font-weight="bold" font-style="italic" data-name="NamedTestDataRow&lt;TRow, TTestData&gt;" data-compartment="0">
							<g transform="translate(8, 8)" fill="#33322E" text-align="center" data-name="NamedTestDataRow&lt;TRow, TTestData&gt;" data-compartment="0">
								<text x="149.0" y="14.1" stroke="none" text-anchor="middle" data-name="NamedTestDataRow&lt;TRow, TTestData&gt;" data-compartment="0">NamedTestDataRow&lt;TRow, TTestData&gt;</text>
								
							</g>
						</g>
					</g>
					<g data-name="7">
						<g fill="#eee8d5" stroke="#33322E" data-name="7">
							<ellipse cx="973.7" cy="668.0" rx="15.6" ry="20.0" data-name="7"></ellipse>
						</g>
						<g transform="translate(961.1875, 652)" font-family="Helvetica" font-size="12pt" font-weight="normal" font-style="normal" data-name="7" data-compartment="0">
							<g transform="translate(8, 8)" fill="#33322E" text-align="center" data-name="7" data-compartment="0">
								<text x="4.5" y="14.1" stroke="none" text-anchor="middle" data-name="7" data-compartment="0">7</text>
								
							</g>
						</g>
					</g>
					<g data-name="4">
						<g fill="#eee8d5" stroke="#33322E" data-name="4">
							<ellipse cx="53.7" cy="668.0" rx="15.6" ry="20.0" data-name="4"></ellipse>
						</g>
						<g transform="translate(41.1875, 652)" font-family="Helvetica" font-size="12pt" font-weight="normal" font-style="normal" data-name="4" data-compartment="0">
							<g transform="translate(8, 8)" fill="#33322E" text-align="center" data-name="4" data-compartment="0">
								<text x="4.5" y="14.1" stroke="none" text-anchor="middle" data-name="4" data-compartment="0">4</text>
								
							</g>
						</g>
					</g>
					<g data-name="3">
						<g fill="#eee8d5" stroke="#33322E" data-name="3">
							<ellipse cx="144.8" cy="788.0" rx="15.6" ry="20.0" data-name="3"></ellipse>
						</g>
						<g transform="translate(132.25, 772)" font-family="Helvetica" font-size="12pt" font-weight="normal" font-style="normal" data-name="3" data-compartment="0">
							<g transform="translate(8, 8)" fill="#33322E" text-align="center" data-name="3" data-compartment="0">
								<text x="4.5" y="14.1" stroke="none" text-anchor="middle" data-name="3" data-compartment="0">3</text>
								
							</g>
						</g>
					</g>
					<g data-name="2">
						<g fill="#eee8d5" stroke="#33322E" data-name="2">
							<ellipse cx="211.8" cy="868.0" rx="15.6" ry="20.0" data-name="2"></ellipse>
						</g>
						<g transform="translate(199.3125, 852)" font-family="Helvetica" font-size="12pt" font-weight="normal" font-style="normal" data-name="2" data-compartment="0">
							<g transform="translate(8, 8)" fill="#33322E" text-align="center" data-name="2" data-compartment="0">
								<text x="4.5" y="14.1" stroke="none" text-anchor="middle" data-name="2" data-compartment="0">2</text>
								
							</g>
						</g>
					</g>
					<g data-name="1">
						<g fill="#eee8d5" stroke="#33322E" data-name="1">
							<ellipse cx="415.9" cy="948.0" rx="15.6" ry="20.0" data-name="1"></ellipse>
						</g>
						<g transform="translate(403.4375, 932)" font-family="Helvetica" font-size="12pt" font-weight="normal" font-style="normal" data-name="1" data-compartment="0">
							<g transform="translate(8, 8)" fill="#33322E" text-align="center" data-name="1" data-compartment="0">
								<text x="4.5" y="14.1" stroke="none" text-anchor="middle" data-name="1" data-compartment="0">1</text>
								
							</g>
						</g>
					</g>
					<g data-name="8">
						<g fill="#eee8d5" stroke="#33322E" data-name="8">
							<ellipse cx="979.8" cy="476.0" rx="15.6" ry="20.0" data-name="8"></ellipse>
						</g>
						<g transform="translate(967.3125, 460)" font-family="Helvetica" font-size="12pt" font-weight="normal" font-style="normal" data-name="8" data-compartment="0">
							<g transform="translate(8, 8)" fill="#33322E" text-align="center" data-name="8" data-compartment="0">
								<text x="4.5" y="14.1" stroke="none" text-anchor="middle" data-name="8" data-compartment="0">8</text>
								
							</g>
						</g>
					</g>
					<g data-name="16">
						<g fill="#eee8d5" stroke="#33322E" data-name="16">
							<ellipse cx="687.1" cy="236.0" rx="21.3" ry="20.0" data-name="16"></ellipse>
						</g>
						<g transform="translate(670.125, 220)" font-family="Helvetica" font-size="12pt" font-weight="normal" font-style="normal" data-name="16" data-compartment="0">
							<g transform="translate(8, 8)" fill="#33322E" text-align="center" data-name="16" data-compartment="0">
								<text x="9.0" y="14.1" stroke="none" text-anchor="middle" data-name="16" data-compartment="0">16</text>
								
							</g>
						</g>
					</g>
					<g data-name="17">
						<g fill="#eee8d5" stroke="#33322E" data-name="17">
							<ellipse cx="1052.4" cy="316.0" rx="21.3" ry="20.0" data-name="17"></ellipse>
						</g>
						<g transform="translate(1035.4375, 300)" font-family="Helvetica" font-size="12pt" font-weight="normal" font-style="normal" data-name="17" data-compartment="0">
							<g transform="translate(8, 8)" fill="#33322E" text-align="center" data-name="17" data-compartment="0">
								<text x="9.0" y="14.1" stroke="none" text-anchor="middle" data-name="17" data-compartment="0">17</text>
								
							</g>
						</g>
					</g>
					<g data-name="11">
						<g fill="#eee8d5" stroke="#33322E" data-name="11">
							<ellipse cx="1244.9" cy="476.0" rx="20.6" ry="20.0" data-name="11"></ellipse>
						</g>
						<g transform="translate(1228.4375, 460)" font-family="Helvetica" font-size="12pt" font-weight="normal" font-style="normal" data-name="11" data-compartment="0">
							<g transform="translate(8, 8)" fill="#33322E" text-align="center" data-name="11" data-compartment="0">
								<text x="8.5" y="14.1" stroke="none" text-anchor="middle" data-name="11" data-compartment="0">11</text>
								
							</g>
						</g>
					</g>
					<g data-name="10">
						<g fill="#eee8d5" stroke="#33322E" data-name="10">
							<ellipse cx="1472.7" cy="396.0" rx="21.3" ry="20.0" data-name="10"></ellipse>
						</g>
						<g transform="translate(1455.6875, 380)" font-family="Helvetica" font-size="12pt" font-weight="normal" font-style="normal" data-name="10" data-compartment="0">
							<g transform="translate(8, 8)" fill="#33322E" text-align="center" data-name="10" data-compartment="0">
								<text x="9.0" y="14.1" stroke="none" text-anchor="middle" data-name="10" data-compartment="0">10</text>
								
							</g>
						</g>
					</g>
					<g data-name="9">
						<g fill="#eee8d5" stroke="#33322E" data-name="9">
							<ellipse cx="1676.4" cy="476.0" rx="15.6" ry="20.0" data-name="9"></ellipse>
						</g>
						<g transform="translate(1663.9375, 460)" font-family="Helvetica" font-size="12pt" font-weight="normal" font-style="normal" data-name="9" data-compartment="0">
							<g transform="translate(8, 8)" fill="#33322E" text-align="center" data-name="9" data-compartment="0">
								<text x="4.5" y="14.1" stroke="none" text-anchor="middle" data-name="9" data-compartment="0">9</text>
								
							</g>
						</g>
					</g>
					<g data-name="13">
						<g fill="#eee8d5" stroke="#33322E" data-name="13">
							<ellipse cx="2155.2" cy="396.0" rx="21.3" ry="20.0" data-name="13"></ellipse>
						</g>
						<g transform="translate(2138.1875, 380)" font-family="Helvetica" font-size="12pt" font-weight="normal" font-style="normal" data-name="13" data-compartment="0">
							<g transform="translate(8, 8)" fill="#33322E" text-align="center" data-name="13" data-compartment="0">
								<text x="9.0" y="14.1" stroke="none" text-anchor="middle" data-name="13" data-compartment="0">13</text>
								
							</g>
						</g>
					</g>
					<g data-name="12">
						<g fill="#eee8d5" stroke="#33322E" data-name="12">
							<ellipse cx="1976.4" cy="476.0" rx="21.3" ry="20.0" data-name="12"></ellipse>
						</g>
						<g transform="translate(1959.4375, 460)" font-family="Helvetica" font-size="12pt" font-weight="normal" font-style="normal" data-name="12" data-compartment="0">
							<g transform="translate(8, 8)" fill="#33322E" text-align="center" data-name="12" data-compartment="0">
								<text x="9.0" y="14.1" stroke="none" text-anchor="middle" data-name="12" data-compartment="0">12</text>
								
							</g>
						</g>
					</g>
					<g data-name="14">
						<g fill="#eee8d5" stroke="#33322E" data-name="14">
							<ellipse cx="2373.4" cy="476.0" rx="21.3" ry="20.0" data-name="14"></ellipse>
						</g>
						<g transform="translate(2356.4375, 460)" font-family="Helvetica" font-size="12pt" font-weight="normal" font-style="normal" data-name="14" data-compartment="0">
							<g transform="translate(8, 8)" fill="#33322E" text-align="center" data-name="14" data-compartment="0">
								<text x="9.0" y="14.1" stroke="none" text-anchor="middle" data-name="14" data-compartment="0">14</text>
								
							</g>
						</g>
					</g>
					<g data-name="5">
						<g fill="#eee8d5" stroke="#33322E" data-name="5">
							<ellipse cx="677.5" cy="868.0" rx="15.6" ry="20.0" data-name="5"></ellipse>
						</g>
						<g transform="translate(665, 852)" font-family="Helvetica" font-size="12pt" font-weight="normal" font-style="normal" data-name="5" data-compartment="0">
							<g transform="translate(8, 8)" fill="#33322E" text-align="center" data-name="5" data-compartment="0">
								<text x="4.5" y="14.1" stroke="none" text-anchor="middle" data-name="5" data-compartment="0">5</text>
								
							</g>
						</g>
					</g>
					<g data-name="6">
						<g fill="#eee8d5" stroke="#33322E" data-name="6">
							<ellipse cx="898.6" cy="788.0" rx="15.6" ry="20.0" data-name="6"></ellipse>
						</g>
						<g transform="translate(886.125, 772)" font-family="Helvetica" font-size="12pt" font-weight="normal" font-style="normal" data-name="6" data-compartment="0">
							<g transform="translate(8, 8)" fill="#33322E" text-align="center" data-name="6" data-compartment="0">
								<text x="4.5" y="14.1" stroke="none" text-anchor="middle" data-name="6" data-compartment="0">6</text>
								
							</g>
						</g>
					</g>
					<g data-name="15">
						<g fill="#eee8d5" stroke="#33322E" data-name="15">
							<ellipse cx="2591.7" cy="396.0" rx="21.3" ry="20.0" data-name="15"></ellipse>
						</g>
						<g transform="translate(2574.6875, 380)" font-family="Helvetica" font-size="12pt" font-weight="normal" font-style="normal" data-name="15" data-compartment="0">
							<g transform="translate(8, 8)" fill="#33322E" text-align="center" data-name="15" data-compartment="0">
								<text x="9.0" y="14.1" stroke="none" text-anchor="middle" data-name="15" data-compartment="0">15</text>
								
							</g>
						</g>
					</g>
				</g>
			</g>
		</g>
	</g>
</svg>