<svg version="1.1" baseProfile="full" width="2025.0" height="1353.0" viewBox="0 0 2025 1353" xmlns="http://www.w3.org/2000/svg" xmlns:xlink="http://www.w3.org/1999/xlink" xmlns:ev="http://www.w3.org/2001/xml-events">
	<title >CsabaDu_DynamicTestData_Pattern_Composite</title>
	<desc >
	
	#title: CsabaDu_DynamicTestData_Pattern_Composite
	#direction: down
	#.contract: fill=#DCE8CF title=center,italic,bold body=left,italic visual=class
	#.concrete: fill=#C9DEEF title=center,bold body=left visual=class
	#.abstract: fill=#C9DEEF title=center,bold,italic body=left visual=class
	
	
	
	
	[&lt;contract&gt;
	ITestDataRow&lt;TRow, TTestData&gt; |
	TTestData TestData]
	
	[&lt;abstract&gt;
	TestDataRow&lt;TRow, TTestData&gt;]
	
	[&lt;contract&gt;
	ITestData |
	string Definition |
	object?array ToArgs(ArgsCode)
	object?array ToParams(ArgsCode, PropsCode)]
	
	[&lt;concrete&gt;
	DataStrategy |
	- static readonly HashSet&lt;DataStrategy&gt; DataStrategies |
	+ int GetHashCode()
	+ static IDataStrategy GetStoredDataStrategy(ArgsCode, PropsCode)
	+ static IDataStrategy GetStoredDataStrategy(IDataStrategy)
	+ static IDataStrategy GetStoredDataStrategy(ArgsCode?, IDataStrategy)]
	
	[&lt;contract&gt;
	IDataStrategy |
	ArgsCode ArgsCode
	PropsCode PropsCode]
	
	[&lt;abstract&gt;
	DynamicDataSource&lt;TDataHolder&gt; |
	&apos;# TDataRowHolde DataHolder |
	&apos;# abstract void Add&lt;TTestData&gt;(TTestData)]
	
	[&lt;abstract&gt;
	DynamicDataRowSource&lt;TDataRowHolder, TRow&gt; |
	&apos;# void Add&lt;T1...T9&gt;(string, string, T1?...T9?)
	&apos;# void AddReturns&lt;TStruct, T1...T9&gt;(string, TStruct, T1?...T9?)
	&apos;# void AddThrows&lt;TException, T1...T9&gt;(string, TException, T1?...T9?) |
	&apos;# abstract void InitDataHolder&lt;TTestData&gt;(TTestData)]
	
	
	[&lt;contract&gt;
	IReadonlyCollection&lt;ITestDataRow&gt; |
	int Count |
	IEnumerator&lt;ITestDataRow&gt; GetEnumerator()
	IEnumerator GetEnumerator()]
	
	[&lt;contract&gt;
	IAddTestData&lt;TTestData&gt; |
	void Add(TTestData)]
	
	[&lt;contract&gt;
	IDataRowHolder |
	IDataStrategy DataStrategy]
	
	[&lt;contract&gt;
	IDataRowHolder&lt;TRow&gt; |
	IDataRowHolder&lt;TRow&gt; GetDataRowHolder(IDataStrategy)]
	
	[&lt;contract&gt;
	IDataRowHolder&lt;TRow, TTestData&gt; |
	void Add(ITestDataRow&lt;TRow, TTestData&gt;)]
	
	[&lt;abstract&gt;
	DataRowHolder&lt;TRow, TTestData&gt; |
	- readonly List&lt;ITestDataRow&lt;TRow, TTestData&gt;&gt; testDataRows]
	
	[&lt;contract&gt;
	ITestDataRow&lt;TRow&gt; |
	TRow Convert(IDataStrategy)]
	
	[&lt;concrete&gt;
	TTestData
	(concrete generic records)]
	
	[&lt;contract&gt; ITestDataRow |
	object?array GetParams(IDataStrategy)
	ITestData GetTestData()]
	
	
	
	
	[IDataRowHolder&lt;TRow, TTestData&gt;] -:&gt; extends
	[IReadonlyCollection&lt;ITestDataRow&gt;] uses (generic constraint) o-&gt;
	[ITestDataRow]
	
	[TTestData] &lt;-+ has
	[ITestDataRow&lt;TRow, TTestData&gt;]
	
	[DataRowHolder&lt;TRow, TTestData&gt;] has +-&gt;
	[ITestDataRow&lt;TRow, TTestData&gt;]
	
	
	[DynamicDataSource&lt;TDataHolder&gt;] uses o-&gt;
	[TTestData]
	
	[ITestDataRow] extends &lt;:-
	[ITestDataRow&lt;TRow&gt;] &lt;:- extends
	[ITestDataRow&lt;TRow, TTestData&gt;]
	
	
	[IDataStrategy] &lt;-o uses
	[ITestDataRow&lt;TRow&gt;]
	
	[IDataStrategy] &lt;-o uses
	[ITestDataRow]
	
	[IDataStrategy] &lt;:-- implements
	[DataStrategy]
	
	[DataStrategy] &lt;-o uses (as DataStrategy cache)
	[DataRowHolder&lt;TRow, TTestData&gt;]
	
	[IDataRowHolder&lt;TRow&gt;]
	[DynamicDataRowSource&lt;TDataRowHolder, TRow&gt;] has
	(generic constraint) +-&gt;
	[IDataRowHolder&lt;TRow&gt;]
	
	[IDataStrategy] &lt;-+ has
	[IDataRowHolder] &lt;:- extends
	[IDataRowHolder&lt;TRow&gt;] extends &lt;:-
	[IDataRowHolder&lt;TRow, TTestData&gt;]
	
	[IDataStrategy] &lt;:-- implements
	[DynamicDataSource&lt;TDataHolder&gt;] &lt;:- extends
	[DynamicDataRowSource&lt;TDataRowHolder, TRow&gt;] uses o-&gt;
	[TTestData]
	
	[IDataStrategy] &lt;-o uses
	[IDataRowHolder&lt;TRow&gt;]
	
	[DataRowHolder&lt;TRow, TTestData&gt;] --:&gt; implements
	[IDataRowHolder&lt;TRow, TTestData&gt;]
	
	[IDataRowHolder&lt;TRow, TTestData&gt;] o-&gt; uses
	[TTestData]
	
	[IDataRowHolder&lt;TRow, TTestData&gt;] extends -:&gt;
	[IAddTestData&lt;TTestData&gt;]
	
	[IAddTestData&lt;TTestData&gt;] uses o-&gt;
	[TTestData]
	
	[ITestDataRow&lt;TRow, TTestData&gt;] &lt;:-- implements
	[TestDataRow&lt;TRow, TTestData&gt;]
	
	[ITestData] implements &lt;:--
	[TTestData]
	
	[ITestDataRow] returns o-&gt;
	[ITestData]
	</desc>
	<g stroke-width="1.0" text-align="left" font="12pt Helvetica, Arial, sans-serif" font-size="12pt" font-family="Helvetica" font-weight="normal" font-style="normal">
		<g font-family="Helvetica" font-size="12pt" font-weight="bold" font-style="normal" stroke-width="3.0" stroke-linejoin="round" stroke-linecap="round" stroke="#33322E">
			<g stroke="transparent" fill="transparent">
				<rect x="0.0" y="0.0" height="1353.0" width="2025.0" stroke="none"></rect>
			</g>
			<g transform="translate(8, 8)" fill="#33322E">
				<g transform="translate(20, 20)" fill="#33322E" font-family="Helvetica" font-size="12pt" font-weight="normal" font-style="normal">
					<text x="1353.0" y="641.0" stroke="none">extends</text>
					<path d="M1129.5 599.4 L1345 629 L1345 635.6666666666666 L1345.0 635.7 " fill="none"></path>
					<path d="M1339.7 635.7 L1345.0 635.7 L1350.3 635.7 L1345.0 649.0 Z"></path>
					<text x="1163.7" y="781.0" stroke="none">uses (generic constraint)</text>
					<path d="M1345.0 779.7 L1345 781 L1382.1989864938153 798.2018434653481 L1382.2 798.2 " fill="none"></path>
					<path d="M1373.9 800.2 L1382.2 798.2 L1378.4 790.6 L1388.3 801.0 Z"></path>
					<g fill="#eee8d5">
						<path d="M1350.3 770.3 L1345.0 779.7 L1339.7 770.3 L1345.0 761.0 Z"></path>
					</g>
					<text x="1583.3" y="1179.2" stroke="none">has</text>
					<path d="M515.0 1127.7 L515 1141 L1556.6010477176537 1186.4103999004972 L1556.6 1186.4 " fill="none"></path>
					<g fill="#33322E">
						<path d="M1565.7 1192.1 L1556.6 1186.4 L1566.2 1181.5 L1575.3 1187.2 Z"></path>
					</g>
					<path d="M520.3 1134.3 L515.0 1127.7 L509.7 1134.3 L515.0 1121.0 Z"></path>
					<text x="1455.0" y="520.3" stroke="none">has</text>
					<path d="M1507.0 502.4 L1704 525 L1704 577 L1704 577 L1704 629 L1704 629 L1704 705 L1704 705 L1704 781 L1704 781 L1704 841 L1704 841 L1704 901 L1704 901 L1704 977 L1704 977 L1704 1053 L1704 1053 L1704 1097 L1704 1097 L1704 1141 L1704 1141 L1704.9627837575258 1154.3506014376926 L1705.0 1154.4 " fill="none"></path>
					<path d="M1699.2 1148.1 L1705.0 1154.4 L1709.8 1147.3 L1705.4 1161.0 Z"></path>
					<g fill="#33322E">
						<path d="M1498.4 496.1 L1507.0 502.4 L1497.2 506.7 L1488.5 500.3 Z"></path>
					</g>
					<text x="58.5" y="236.0" stroke="none">uses</text>
					<path d="M85.0 227.2 L73.25 236 L73.25 328.5 L73.25 328.5 L73.25 421 L73.25 421 L73.25 473 L73.25 473 L73.25 525 L73.25 525 L73.25 577 L73.25 577 L73.25 629 L73.25 629 L73.25 705 L73.25 705 L73.25 781 L73.25 781 L73.25 841 L73.25 841 L73.25 901 L73.25 901 L73.25 977 L73.25 977 L73.25 1053 L73.25 1053 L400.36615904351163 1085.5820282918269 L400.4 1085.6 " fill="none"></path>
					<path d="M393.2 1090.2 L400.4 1085.6 L394.3 1079.6 L407.0 1086.2 Z"></path>
					<g fill="#eee8d5">
						<path d="M95.7 225.9 L85.0 227.2 L89.3 217.3 L99.9 216.0 Z"></path>
					</g>
					<text x="1558.8" y="890.0" stroke="none">extends</text>
					<path d="M1635.3 872.5 L1780.25 901 L1824.3947368421052 945 L1824.4 945.0 " fill="none"></path>
					<path d="M1636.4 867.3 L1635.3 872.5 L1634.3 877.8 L1622.3 870.0 Z"></path>
					<text x="1735.9" y="1153.0" stroke="none">extends</text>
					<path d="M1856.5 1022.3 L1856.5 1053 L1856.5 1097 L1856.5 1097 L1856.5 1141 L1856.5 1141 L1799.2884615384614 1161 L1799.3 1161.0 " fill="none"></path>
					<path d="M1861.8 1022.3 L1856.5 1022.3 L1851.2 1022.3 L1856.5 1009.0 Z"></path>
					<text x="1864.5" y="937.0" stroke="none">uses</text>
					<path d="M1134.6 47.1 L1856.5 100 L1856.5 168 L1856.5 168 L1856.5 236 L1856.5 236 L1856.5 328.5 L1856.5 328.5 L1856.5 421 L1856.5 421 L1856.5 473 L1856.5 473 L1856.5 525 L1856.5 525 L1856.5 577 L1856.5 577 L1856.5 629 L1856.5 629 L1856.5 705 L1856.5 705 L1856.5 781 L1856.5 781 L1856.5 841 L1856.5 841 L1856.5 901 L1856.5 901 L1856.5 926.3333333333334 L1856.5 926.3 " fill="none"></path>
					<g fill="#eee8d5">
						<path d="M1851.2 935.7 L1856.5 926.3 L1861.8 935.7 L1856.5 945.0 Z"></path>
					</g>
					<path d="M1141.7 42.2 L1134.6 47.1 L1140.9 52.9 L1128.0 46.6 Z"></path>
					<text x="1537.6" y="793.0" stroke="none">uses</text>
					<path d="M1134.6 51.1 L1557 100 L1557 168 L1557 168 L1557 236 L1557 236 L1557 328.5 L1557 328.5 L1557 421 L1557 421 L1557 473 L1557 473 L1557 525 L1557 525 L1557 577 L1557 577 L1557 629 L1557 629 L1557 705 L1557 705 L1557 781 L1557 781 L1544.6638672012136 789.9990026495706 L1544.7 790.0 " fill="none"></path>
					<g fill="#eee8d5">
						<path d="M1534.0 791.2 L1544.7 790.0 L1540.3 799.8 L1529.6 801.0 Z"></path>
					</g>
					<path d="M1141.9 46.6 L1134.6 51.1 L1140.6 57.2 L1128.0 50.4 Z"></path>
					<text x="1258.5" y="248.0" stroke="none">implements</text>
					<g stroke-dasharray="6 6">
						<path d="M1140.8 69.0 L1250.5 100 L1250.5 168 L1250.5 168 L1250.5 236 L1250.5 236 L1250.5 256 L1250.5 256.0 " fill="none"></path>
					</g>
					<path d="M1142.3 63.8 L1140.8 69.0 L1139.4 74.1 L1128.0 65.3 Z"></path>
					<text x="1033.9" y="433.0" stroke="none">uses (as DataStrategy cache)</text>
					<path d="M1250.5 407.7 L1250.5 421 L1250.5 422.3333333333333 L1250.5 422.3 " fill="none"></path>
					<g fill="#eee8d5">
						<path d="M1245.2 431.7 L1250.5 422.3 L1255.8 431.7 L1250.5 441.0 Z"></path>
					</g>
					<path d="M1255.8 414.3 L1250.5 407.7 L1245.2 414.3 L1250.5 401.0 Z"></path>
					<text x="322.5" y="413.0" stroke="none">has
					(generic constraint)</text>
					<path d="M512.4 401.6 L549.75 421 L620.8904724907215 439.3360821289592 L620.9 439.3 " fill="none"></path>
					<path d="M613.1 442.8 L620.9 439.3 L615.8 432.5 L627.3 441.0 Z"></path>
					<g fill="#33322E">
						<path d="M506.6 392.6 L512.4 401.6 L501.7 402.0 L495.9 393.0 Z"></path>
					</g>
					<text x="741.8" y="288.5" stroke="none">has</text>
					<path d="M942.5 61.9 L775.25 100 L775.25 168 L775.25 168 L775.25 236 L775.25 236 L775.25 277.8333333333333 L775.3 277.8 " fill="none"></path>
					<g fill="#33322E">
						<path d="M769.9 287.2 L775.3 277.8 L780.6 287.2 L775.3 296.5 Z"></path>
					</g>
					<path d="M937.2 68.6 L942.5 61.9 L934.8 58.2 L949.0 60.4 Z"></path>
					<text x="702.7" y="433.0" stroke="none">extends</text>
					<path d="M775.3 373.8 L775.25 421 L766.1153846153846 441 L766.1 441.0 " fill="none"></path>
					<path d="M780.6 373.8 L775.3 373.8 L769.9 373.8 L775.3 360.5 Z"></path>
					<text x="688.1" y="525.0" stroke="none">extends</text>
					<path d="M751.5 518.3 L751.5 525 L834 545 L834.0 545.0 " fill="none"></path>
					<path d="M756.8 518.3 L751.5 518.3 L746.2 518.3 L751.5 505.0 Z"></path>
					<text x="75.1" y="112.0" stroke="none">implements</text>
					<g stroke-dasharray="6 6">
						<path d="M935.7 47.1 L164 100 L164 120 L164.0 120.0 " fill="none"></path>
					</g>
					<path d="M936.1 52.4 L935.7 47.1 L935.3 41.7 L949.0 46.1 Z"></path>
					<text x="379.8" y="256.0" stroke="none">extends</text>
					<path d="M323.3 220.1 L371.75 236 L371.75 264 L371.8 264.0 " fill="none"></path>
					<path d="M325.0 215.1 L323.3 220.1 L321.7 225.2 L310.6 216.0 Z"></path>
					<text x="240.2" y="413.0" stroke="none">uses</text>
					<path d="M266.4 403.9 L242.5 421 L242.5 473 L242.5 473 L242.5 525 L242.5 525 L242.5 577 L242.5 577 L242.5 629 L242.5 629 L242.5 705 L242.5 705 L242.5 781 L242.5 781 L242.5 841 L242.5 841 L242.5 901 L242.5 901 L242.5 977 L242.5 977 L242.5 1053 L242.5 1053 L400.4185763392112 1078.4987792988084 L400.4 1078.5 " fill="none"></path>
					<path d="M393.0 1082.7 L400.4 1078.5 L394.7 1072.2 L407.0 1079.6 Z"></path>
					<g fill="#eee8d5">
						<path d="M277.1 402.8 L266.4 403.9 L270.9 394.1 L281.6 393.0 Z"></path>
					</g>
					<text x="813.9" y="433.0" stroke="none">uses</text>
					<path d="M953.7 83.0 L920.25 100 L920.25 168 L920.25 168 L920.25 236 L920.25 236 L920.25 328.5 L920.25 328.5 L920.25 421 L920.25 421 L873.1850747949549 435.50296954466575 L873.2 435.5 " fill="none"></path>
					<g fill="#eee8d5">
						<path d="M862.7 433.2 L873.2 435.5 L865.8 443.3 L855.3 441.0 Z"></path>
					</g>
					<path d="M950.2 90.8 L953.7 83.0 L945.4 81.3 L959.7 80.0 Z"></path>
					<text x="1040.6" y="539.1" stroke="none">implements</text>
					<g stroke-dasharray="6 6">
						<path d="M1250.5 505.0 L1250.5 525 L1142.6160469212614 544.7186838667642 L1142.6 544.7 " fill="none"></path>
					</g>
					<path d="M1141.7 539.5 L1142.6 544.7 L1143.6 550.0 L1129.5 547.1 Z"></path>
					<text x="393.3" y="1065.0" stroke="none">uses</text>
					<path d="M783.9 592.8 L367.75 629 L367.75 705 L367.75 705 L367.75 781 L367.75 781 L367.75 841 L367.75 841 L367.75 901 L367.75 901 L367.75 977 L367.75 977 L367.75 1053 L367.75 1053 L428.29422404432984 1071.0913131269983 L428.3 1071.1 " fill="none"></path>
					<path d="M420.4 1074.3 L428.3 1071.1 L423.4 1064.1 L434.7 1073.0 Z"></path>
					<g fill="#eee8d5">
						<path d="M793.7 597.3 L783.9 592.8 L792.7 586.7 L802.5 591.2 Z"></path>
					</g>
					<text x="959.4" y="629.0" stroke="none">extends</text>
					<path d="M951.4 609.0 L942.25 629 L942.25 705 L942.25 705 L942.25 781 L942.25 781 L942.25 841 L942.25 841 L942.25 901 L942.25 901 L942.25 931.6666666666666 L942.3 931.7 " fill="none"></path>
					<path d="M936.9 931.7 L942.3 931.7 L947.6 931.7 L942.3 945.0 Z"></path>
					<text x="950.3" y="1029.0" stroke="none">uses</text>
					<path d="M942.3 1027.7 L942.25 1053 L629.6315929230815 1085.1947569605252 L629.6 1085.2 " fill="none"></path>
					<path d="M635.7 1079.2 L629.6 1085.2 L636.8 1089.8 L623.0 1085.9 Z"></path>
					<g fill="#eee8d5">
						<path d="M947.6 1018.3 L942.3 1027.7 L936.9 1018.3 L942.3 1009.0 Z"></path>
					</g>
					<text x="1618.8" y="1257.0" stroke="none">implements</text>
					<g stroke-dasharray="6 6">
						<path d="M1707.8 1238.3 L1707.75 1245 L1707.75 1265 L1707.8 1265.0 " fill="none"></path>
					</g>
					<path d="M1713.1 1238.3 L1707.8 1238.3 L1702.4 1238.3 L1707.8 1225.0 Z"></path>
					<text x="1482.8" y="1053.0" stroke="none">implements</text>
					<g stroke-dasharray="6 6">
						<path d="M1474.8 1046.3 L1474.75 1053 L623 1092.0487106017192 L623.0 1092.0 " fill="none"></path>
					</g>
					<path d="M1480.1 1046.3 L1474.8 1046.3 L1469.4 1046.3 L1474.8 1033.0 Z"></path>
					<text x="1482.8" y="901.0" stroke="none">returns</text>
					<path d="M1474.8 899.7 L1474.75 901 L1474.75 914.3333333333334 L1474.8 914.3 " fill="none"></path>
					<path d="M1469.4 907.7 L1474.8 914.3 L1480.1 907.7 L1474.8 921.0 Z"></path>
					<g fill="#eee8d5">
						<path d="M1480.1 890.3 L1474.8 899.7 L1469.4 890.3 L1474.8 881.0 Z"></path>
					</g>
					<g data-name="ITestDataRow&lt;TRow, TTestData&gt;">
						<g fill="#DCE8CF" stroke="#33322E" data-name="ITestDataRow&lt;TRow, TTestData&gt;">
							<rect x="1575.3" y="1161.0" height="64.0" width="265.0" data-name="ITestDataRow&lt;TRow, TTestData&gt;"></rect>
							<path d="M1575.3 1193.0 L1840.3 1193.0" fill="none" data-name="ITestDataRow&lt;TRow, TTestData&gt;"></path>
						</g>
						<g transform="translate(1575.25, 1161)" font-family="Helvetica" font-size="12pt" font-weight="bold" font-style="italic" data-name="ITestDataRow&lt;TRow, TTestData&gt;" data-compartment="0">
							<g transform="translate(8, 8)" fill="#33322E" text-align="center" data-name="ITestDataRow&lt;TRow, TTestData&gt;" data-compartment="0">
								<text x="124.5" y="14.1" stroke="none" text-anchor="middle" data-name="ITestDataRow&lt;TRow, TTestData&gt;" data-compartment="0">ITestDataRow&lt;TRow, TTestData&gt;</text>
								
							</g>
						</g>
						<g transform="translate(1575.25, 1193)" font-family="Helvetica" font-size="12pt" font-weight="normal" font-style="italic" data-name="ITestDataRow&lt;TRow, TTestData&gt;" data-compartment="1">
							<g transform="translate(8, 8)" fill="#33322E" text-align="left" data-name="ITestDataRow&lt;TRow, TTestData&gt;" data-compartment="1">
								<text x="0.0" y="14.1" stroke="none" data-name="ITestDataRow&lt;TRow, TTestData&gt;" data-compartment="1">TTestData TestData</text>
								
							</g>
						</g>
					</g>
					<g data-name="TestDataRow&lt;TRow, TTestData&gt;">
						<g fill="#C9DEEF" stroke="#33322E" data-name="TestDataRow&lt;TRow, TTestData&gt;">
							<rect x="1577.3" y="1265.0" height="32.0" width="261.0" data-name="TestDataRow&lt;TRow, TTestData&gt;"></rect>
						</g>
						<g transform="translate(1577.25, 1265)" font-family="Helvetica" font-size="12pt" font-weight="bold" font-style="italic" data-name="TestDataRow&lt;TRow, TTestData&gt;" data-compartment="0">
							<g transform="translate(8, 8)" fill="#33322E" text-align="center" data-name="TestDataRow&lt;TRow, TTestData&gt;" data-compartment="0">
								<text x="122.5" y="14.1" stroke="none" text-anchor="middle" data-name="TestDataRow&lt;TRow, TTestData&gt;" data-compartment="0">TestDataRow&lt;TRow, TTestData&gt;</text>
								
							</g>
						</g>
					</g>
					<g data-name="ITestData">
						<g fill="#DCE8CF" stroke="#33322E" data-name="ITestData">
							<rect x="1300.8" y="921.0" height="112.0" width="348.0" data-name="ITestData"></rect>
							<path d="M1300.8 953.0 L1648.8 953.0" fill="none" data-name="ITestData"></path>
							<path d="M1300.8 985.0 L1648.8 985.0" fill="none" data-name="ITestData"></path>
						</g>
						<g transform="translate(1300.75, 921)" font-family="Helvetica" font-size="12pt" font-weight="bold" font-style="italic" data-name="ITestData" data-compartment="0">
							<g transform="translate(8, 8)" fill="#33322E" text-align="center" data-name="ITestData" data-compartment="0">
								<text x="166.0" y="14.1" stroke="none" text-anchor="middle" data-name="ITestData" data-compartment="0">ITestData</text>
								
							</g>
						</g>
						<g transform="translate(1300.75, 953)" font-family="Helvetica" font-size="12pt" font-weight="normal" font-style="italic" data-name="ITestData" data-compartment="1">
							<g transform="translate(8, 8)" fill="#33322E" text-align="left" data-name="ITestData" data-compartment="1">
								<text x="0.0" y="14.1" stroke="none" data-name="ITestData" data-compartment="1">string Definition</text>
								
							</g>
						</g>
						<g transform="translate(1300.75, 985)" font-family="Helvetica" font-size="12pt" font-weight="normal" font-style="italic" data-name="ITestData" data-compartment="2">
							<g transform="translate(8, 8)" fill="#33322E" text-align="left" data-name="ITestData" data-compartment="2">
								<text x="0.0" y="14.1" stroke="none" data-name="ITestData" data-compartment="2">object?array ToArgs(ArgsCode)</text>
								<text x="0.0" y="30.3" stroke="none" data-name="ITestData" data-compartment="2">object?array ToParams(ArgsCode, PropsCode)</text>
								
							</g>
						</g>
					</g>
					<g data-name="DataStrategy">
						<g fill="#C9DEEF" stroke="#33322E" data-name="DataStrategy">
							<rect x="984.0" y="256.0" height="145.0" width="533.0" data-name="DataStrategy"></rect>
							<path d="M984.0 288.0 L1517.0 288.0" fill="none" data-name="DataStrategy"></path>
							<path d="M984.0 320.0 L1517.0 320.0" fill="none" data-name="DataStrategy"></path>
						</g>
						<g transform="translate(984, 256)" font-family="Helvetica" font-size="12pt" font-weight="bold" font-style="normal" data-name="DataStrategy" data-compartment="0">
							<g transform="translate(8, 8)" fill="#33322E" text-align="center" data-name="DataStrategy" data-compartment="0">
								<text x="258.5" y="14.1" stroke="none" text-anchor="middle" data-name="DataStrategy" data-compartment="0">DataStrategy</text>
								
							</g>
						</g>
						<g transform="translate(984, 288)" font-family="Helvetica" font-size="12pt" font-weight="normal" font-style="normal" data-name="DataStrategy" data-compartment="1">
							<g transform="translate(8, 8)" fill="#33322E" text-align="left" data-name="DataStrategy" data-compartment="1">
								<text x="0.0" y="14.1" stroke="none" data-name="DataStrategy" data-compartment="1">- static readonly HashSet&lt;DataStrategy&gt; DataStrategies</text>
								
							</g>
						</g>
						<g transform="translate(984, 320)" font-family="Helvetica" font-size="12pt" font-weight="normal" font-style="normal" data-name="DataStrategy" data-compartment="2">
							<g transform="translate(8, 8)" fill="#33322E" text-align="left" data-name="DataStrategy" data-compartment="2">
								<text x="0.0" y="14.1" stroke="none" data-name="DataStrategy" data-compartment="2">+ int GetHashCode()</text>
								<text x="0.0" y="30.3" stroke="none" data-name="DataStrategy" data-compartment="2">+ static IDataStrategy GetStoredDataStrategy(ArgsCode, PropsCode)</text>
								<text x="0.0" y="46.5" stroke="none" data-name="DataStrategy" data-compartment="2">+ static IDataStrategy GetStoredDataStrategy(IDataStrategy)</text>
								<text x="0.0" y="62.7" stroke="none" data-name="DataStrategy" data-compartment="2">+ static IDataStrategy GetStoredDataStrategy(ArgsCode?, IDataStrategy)</text>
								
							</g>
						</g>
					</g>
					<g data-name="IDataStrategy">
						<g fill="#DCE8CF" stroke="#33322E" data-name="IDataStrategy">
							<rect x="949.0" y="0.0" height="80.0" width="179.0" data-name="IDataStrategy"></rect>
							<path d="M949.0 32.0 L1128.0 32.0" fill="none" data-name="IDataStrategy"></path>
						</g>
						<g transform="translate(949, 0)" font-family="Helvetica" font-size="12pt" font-weight="bold" font-style="italic" data-name="IDataStrategy" data-compartment="0">
							<g transform="translate(8, 8)" fill="#33322E" text-align="center" data-name="IDataStrategy" data-compartment="0">
								<text x="81.5" y="14.1" stroke="none" text-anchor="middle" data-name="IDataStrategy" data-compartment="0">IDataStrategy</text>
								
							</g>
						</g>
						<g transform="translate(949, 32)" font-family="Helvetica" font-size="12pt" font-weight="normal" font-style="italic" data-name="IDataStrategy" data-compartment="1">
							<g transform="translate(8, 8)" fill="#33322E" text-align="left" data-name="IDataStrategy" data-compartment="1">
								<text x="0.0" y="14.1" stroke="none" data-name="IDataStrategy" data-compartment="1">ArgsCode ArgsCode</text>
								<text x="0.0" y="30.3" stroke="none" data-name="IDataStrategy" data-compartment="1">PropsCode PropsCode</text>
								
							</g>
						</g>
					</g>
					<g data-name="DynamicDataSource&lt;TDataHolder&gt;">
						<g fill="#C9DEEF" stroke="#33322E" data-name="DynamicDataSource&lt;TDataHolder&gt;">
							<rect x="0.0" y="120.0" height="96.0" width="328.0" data-name="DynamicDataSource&lt;TDataHolder&gt;"></rect>
							<path d="M0.0 152.0 L328.0 152.0" fill="none" data-name="DynamicDataSource&lt;TDataHolder&gt;"></path>
							<path d="M0.0 184.0 L328.0 184.0" fill="none" data-name="DynamicDataSource&lt;TDataHolder&gt;"></path>
						</g>
						<g transform="translate(0, 120)" font-family="Helvetica" font-size="12pt" font-weight="bold" font-style="italic" data-name="DynamicDataSource&lt;TDataHolder&gt;" data-compartment="0">
							<g transform="translate(8, 8)" fill="#33322E" text-align="center" data-name="DynamicDataSource&lt;TDataHolder&gt;" data-compartment="0">
								<text x="156.0" y="14.1" stroke="none" text-anchor="middle" data-name="DynamicDataSource&lt;TDataHolder&gt;" data-compartment="0">DynamicDataSource&lt;TDataHolder&gt;</text>
								
							</g>
						</g>
						<g transform="translate(0, 152)" font-family="Helvetica" font-size="12pt" font-weight="normal" font-style="normal" data-name="DynamicDataSource&lt;TDataHolder&gt;" data-compartment="1">
							<g transform="translate(8, 8)" fill="#33322E" text-align="left" data-name="DynamicDataSource&lt;TDataHolder&gt;" data-compartment="1">
								<text x="0.0" y="14.1" stroke="none" data-name="DynamicDataSource&lt;TDataHolder&gt;" data-compartment="1"># TDataRowHolde DataHolder</text>
								
							</g>
						</g>
						<g transform="translate(0, 184)" font-family="Helvetica" font-size="12pt" font-weight="normal" font-style="normal" data-name="DynamicDataSource&lt;TDataHolder&gt;" data-compartment="2">
							<g transform="translate(8, 8)" fill="#33322E" text-align="left" data-name="DynamicDataSource&lt;TDataHolder&gt;" data-compartment="2">
								<text x="0.0" y="14.1" stroke="none" data-name="DynamicDataSource&lt;TDataHolder&gt;" data-compartment="2"># abstract void Add&lt;TTestData&gt;(TTestData)</text>
								
							</g>
						</g>
					</g>
					<g data-name="DynamicDataRowSource&lt;TDataRowHolder, TRow&gt;">
						<g fill="#C9DEEF" stroke="#33322E" data-name="DynamicDataRowSource&lt;TDataRowHolder, TRow&gt;">
							<rect x="113.3" y="264.0" height="129.0" width="517.0" data-name="DynamicDataRowSource&lt;TDataRowHolder, TRow&gt;"></rect>
							<path d="M113.3 296.0 L630.3 296.0" fill="none" data-name="DynamicDataRowSource&lt;TDataRowHolder, TRow&gt;"></path>
							<path d="M113.3 361.0 L630.3 361.0" fill="none" data-name="DynamicDataRowSource&lt;TDataRowHolder, TRow&gt;"></path>
						</g>
						<g transform="translate(113.25, 264)" font-family="Helvetica" font-size="12pt" font-weight="bold" font-style="italic" data-name="DynamicDataRowSource&lt;TDataRowHolder, TRow&gt;" data-compartment="0">
							<g transform="translate(8, 8)" fill="#33322E" text-align="center" data-name="DynamicDataRowSource&lt;TDataRowHolder, TRow&gt;" data-compartment="0">
								<text x="250.5" y="14.1" stroke="none" text-anchor="middle" data-name="DynamicDataRowSource&lt;TDataRowHolder, TRow&gt;" data-compartment="0">DynamicDataRowSource&lt;TDataRowHolder, TRow&gt;</text>
								
							</g>
						</g>
						<g transform="translate(113.25, 296)" font-family="Helvetica" font-size="12pt" font-weight="normal" font-style="normal" data-name="DynamicDataRowSource&lt;TDataRowHolder, TRow&gt;" data-compartment="1">
							<g transform="translate(8, 8)" fill="#33322E" text-align="left" data-name="DynamicDataRowSource&lt;TDataRowHolder, TRow&gt;" data-compartment="1">
								<text x="0.0" y="14.1" stroke="none" data-name="DynamicDataRowSource&lt;TDataRowHolder, TRow&gt;" data-compartment="1"># void Add&lt;T1...T9&gt;(string, string, T1?...T9?)</text>
								<text x="0.0" y="30.3" stroke="none" data-name="DynamicDataRowSource&lt;TDataRowHolder, TRow&gt;" data-compartment="1"># void AddReturns&lt;TStruct, T1...T9&gt;(string, TStruct, T1?...T9?)</text>
								<text x="0.0" y="46.5" stroke="none" data-name="DynamicDataRowSource&lt;TDataRowHolder, TRow&gt;" data-compartment="1"># void AddThrows&lt;TException, T1...T9&gt;(string, TException, T1?...T9?)</text>
								
							</g>
						</g>
						<g transform="translate(113.25, 361)" font-family="Helvetica" font-size="12pt" font-weight="normal" font-style="normal" data-name="DynamicDataRowSource&lt;TDataRowHolder, TRow&gt;" data-compartment="2">
							<g transform="translate(8, 8)" fill="#33322E" text-align="left" data-name="DynamicDataRowSource&lt;TDataRowHolder, TRow&gt;" data-compartment="2">
								<text x="0.0" y="14.1" stroke="none" data-name="DynamicDataRowSource&lt;TDataRowHolder, TRow&gt;" data-compartment="2"># abstract void InitDataHolder&lt;TTestData&gt;(TTestData)</text>
								
							</g>
						</g>
					</g>
					<g data-name="IReadonlyCollection&lt;ITestDataRow&gt;">
						<g fill="#DCE8CF" stroke="#33322E" data-name="IReadonlyCollection&lt;ITestDataRow&gt;">
							<rect x="1173.0" y="649.0" height="112.0" width="344.0" data-name="IReadonlyCollection&lt;ITestDataRow&gt;"></rect>
							<path d="M1173.0 681.0 L1517.0 681.0" fill="none" data-name="IReadonlyCollection&lt;ITestDataRow&gt;"></path>
							<path d="M1173.0 713.0 L1517.0 713.0" fill="none" data-name="IReadonlyCollection&lt;ITestDataRow&gt;"></path>
						</g>
						<g transform="translate(1173, 649)" font-family="Helvetica" font-size="12pt" font-weight="bold" font-style="italic" data-name="IReadonlyCollection&lt;ITestDataRow&gt;" data-compartment="0">
							<g transform="translate(8, 8)" fill="#33322E" text-align="center" data-name="IReadonlyCollection&lt;ITestDataRow&gt;" data-compartment="0">
								<text x="164.0" y="14.1" stroke="none" text-anchor="middle" data-name="IReadonlyCollection&lt;ITestDataRow&gt;" data-compartment="0">IReadonlyCollection&lt;ITestDataRow&gt;</text>
								
							</g>
						</g>
						<g transform="translate(1173, 681)" font-family="Helvetica" font-size="12pt" font-weight="normal" font-style="italic" data-name="IReadonlyCollection&lt;ITestDataRow&gt;" data-compartment="1">
							<g transform="translate(8, 8)" fill="#33322E" text-align="left" data-name="IReadonlyCollection&lt;ITestDataRow&gt;" data-compartment="1">
								<text x="0.0" y="14.1" stroke="none" data-name="IReadonlyCollection&lt;ITestDataRow&gt;" data-compartment="1">int Count</text>
								
							</g>
						</g>
						<g transform="translate(1173, 713)" font-family="Helvetica" font-size="12pt" font-weight="normal" font-style="italic" data-name="IReadonlyCollection&lt;ITestDataRow&gt;" data-compartment="2">
							<g transform="translate(8, 8)" fill="#33322E" text-align="left" data-name="IReadonlyCollection&lt;ITestDataRow&gt;" data-compartment="2">
								<text x="0.0" y="14.1" stroke="none" data-name="IReadonlyCollection&lt;ITestDataRow&gt;" data-compartment="2">IEnumerator&lt;ITestDataRow&gt; GetEnumerator()</text>
								<text x="0.0" y="30.3" stroke="none" data-name="IReadonlyCollection&lt;ITestDataRow&gt;" data-compartment="2">IEnumerator GetEnumerator()</text>
								
							</g>
						</g>
					</g>
					<g data-name="IAddTestData&lt;TTestData&gt;">
						<g fill="#DCE8CF" stroke="#33322E" data-name="IAddTestData&lt;TTestData&gt;">
							<rect x="836.8" y="945.0" height="64.0" width="211.0" data-name="IAddTestData&lt;TTestData&gt;"></rect>
							<path d="M836.8 977.0 L1047.8 977.0" fill="none" data-name="IAddTestData&lt;TTestData&gt;"></path>
						</g>
						<g transform="translate(836.75, 945)" font-family="Helvetica" font-size="12pt" font-weight="bold" font-style="italic" data-name="IAddTestData&lt;TTestData&gt;" data-compartment="0">
							<g transform="translate(8, 8)" fill="#33322E" text-align="center" data-name="IAddTestData&lt;TTestData&gt;" data-compartment="0">
								<text x="97.5" y="14.1" stroke="none" text-anchor="middle" data-name="IAddTestData&lt;TTestData&gt;" data-compartment="0">IAddTestData&lt;TTestData&gt;</text>
								
							</g>
						</g>
						<g transform="translate(836.75, 977)" font-family="Helvetica" font-size="12pt" font-weight="normal" font-style="italic" data-name="IAddTestData&lt;TTestData&gt;" data-compartment="1">
							<g transform="translate(8, 8)" fill="#33322E" text-align="left" data-name="IAddTestData&lt;TTestData&gt;" data-compartment="1">
								<text x="0.0" y="14.1" stroke="none" data-name="IAddTestData&lt;TTestData&gt;" data-compartment="1">void Add(TTestData)</text>
								
							</g>
						</g>
					</g>
					<g data-name="IDataRowHolder">
						<g fill="#DCE8CF" stroke="#33322E" data-name="IDataRowHolder">
							<rect x="670.3" y="296.5" height="64.0" width="210.0" data-name="IDataRowHolder"></rect>
							<path d="M670.3 328.5 L880.3 328.5" fill="none" data-name="IDataRowHolder"></path>
						</g>
						<g transform="translate(670.25, 296.5)" font-family="Helvetica" font-size="12pt" font-weight="bold" font-style="italic" data-name="IDataRowHolder" data-compartment="0">
							<g transform="translate(8, 8)" fill="#33322E" text-align="center" data-name="IDataRowHolder" data-compartment="0">
								<text x="97.0" y="14.1" stroke="none" text-anchor="middle" data-name="IDataRowHolder" data-compartment="0">IDataRowHolder</text>
								
							</g>
						</g>
						<g transform="translate(670.25, 328.5)" font-family="Helvetica" font-size="12pt" font-weight="normal" font-style="italic" data-name="IDataRowHolder" data-compartment="1">
							<g transform="translate(8, 8)" fill="#33322E" text-align="left" data-name="IDataRowHolder" data-compartment="1">
								<text x="0.0" y="14.1" stroke="none" data-name="IDataRowHolder" data-compartment="1">IDataStrategy DataStrategy</text>
								
							</g>
						</g>
					</g>
					<g data-name="IDataRowHolder&lt;TRow&gt;">
						<g fill="#DCE8CF" stroke="#33322E" data-name="IDataRowHolder&lt;TRow&gt;">
							<rect x="530.5" y="441.0" height="64.0" width="442.0" data-name="IDataRowHolder&lt;TRow&gt;"></rect>
							<path d="M530.5 473.0 L972.5 473.0" fill="none" data-name="IDataRowHolder&lt;TRow&gt;"></path>
						</g>
						<g transform="translate(530.5, 441)" font-family="Helvetica" font-size="12pt" font-weight="bold" font-style="italic" data-name="IDataRowHolder&lt;TRow&gt;" data-compartment="0">
							<g transform="translate(8, 8)" fill="#33322E" text-align="center" data-name="IDataRowHolder&lt;TRow&gt;" data-compartment="0">
								<text x="213.0" y="14.1" stroke="none" text-anchor="middle" data-name="IDataRowHolder&lt;TRow&gt;" data-compartment="0">IDataRowHolder&lt;TRow&gt;</text>
								
							</g>
						</g>
						<g transform="translate(530.5, 473)" font-family="Helvetica" font-size="12pt" font-weight="normal" font-style="italic" data-name="IDataRowHolder&lt;TRow&gt;" data-compartment="1">
							<g transform="translate(8, 8)" fill="#33322E" text-align="left" data-name="IDataRowHolder&lt;TRow&gt;" data-compartment="1">
								<text x="0.0" y="14.1" stroke="none" data-name="IDataRowHolder&lt;TRow&gt;" data-compartment="1">IDataRowHolder&lt;TRow&gt; GetDataRowHolder(IDataStrategy)</text>
								
							</g>
						</g>
					</g>
					<g data-name="IDataRowHolder&lt;TRow, TTestData&gt;">
						<g fill="#DCE8CF" stroke="#33322E" data-name="IDataRowHolder&lt;TRow, TTestData&gt;">
							<rect x="802.5" y="545.0" height="64.0" width="327.0" data-name="IDataRowHolder&lt;TRow, TTestData&gt;"></rect>
							<path d="M802.5 577.0 L1129.5 577.0" fill="none" data-name="IDataRowHolder&lt;TRow, TTestData&gt;"></path>
						</g>
						<g transform="translate(802.5, 545)" font-family="Helvetica" font-size="12pt" font-weight="bold" font-style="italic" data-name="IDataRowHolder&lt;TRow, TTestData&gt;" data-compartment="0">
							<g transform="translate(8, 8)" fill="#33322E" text-align="center" data-name="IDataRowHolder&lt;TRow, TTestData&gt;" data-compartment="0">
								<text x="155.5" y="14.1" stroke="none" text-anchor="middle" data-name="IDataRowHolder&lt;TRow, TTestData&gt;" data-compartment="0">IDataRowHolder&lt;TRow, TTestData&gt;</text>
								
							</g>
						</g>
						<g transform="translate(802.5, 577)" font-family="Helvetica" font-size="12pt" font-weight="normal" font-style="italic" data-name="IDataRowHolder&lt;TRow, TTestData&gt;" data-compartment="1">
							<g transform="translate(8, 8)" fill="#33322E" text-align="left" data-name="IDataRowHolder&lt;TRow, TTestData&gt;" data-compartment="1">
								<text x="0.0" y="14.1" stroke="none" data-name="IDataRowHolder&lt;TRow, TTestData&gt;" data-compartment="1">void Add(ITestDataRow&lt;TRow, TTestData&gt;)</text>
								
							</g>
						</g>
					</g>
					<g data-name="DataRowHolder&lt;TRow, TTestData&gt;">
						<g fill="#C9DEEF" stroke="#33322E" data-name="DataRowHolder&lt;TRow, TTestData&gt;">
							<rect x="1012.5" y="441.0" height="64.0" width="476.0" data-name="DataRowHolder&lt;TRow, TTestData&gt;"></rect>
							<path d="M1012.5 473.0 L1488.5 473.0" fill="none" data-name="DataRowHolder&lt;TRow, TTestData&gt;"></path>
						</g>
						<g transform="translate(1012.5, 441)" font-family="Helvetica" font-size="12pt" font-weight="bold" font-style="italic" data-name="DataRowHolder&lt;TRow, TTestData&gt;" data-compartment="0">
							<g transform="translate(8, 8)" fill="#33322E" text-align="center" data-name="DataRowHolder&lt;TRow, TTestData&gt;" data-compartment="0">
								<text x="230.0" y="14.1" stroke="none" text-anchor="middle" data-name="DataRowHolder&lt;TRow, TTestData&gt;" data-compartment="0">DataRowHolder&lt;TRow, TTestData&gt;</text>
								
							</g>
						</g>
						<g transform="translate(1012.5, 473)" font-family="Helvetica" font-size="12pt" font-weight="normal" font-style="normal" data-name="DataRowHolder&lt;TRow, TTestData&gt;" data-compartment="1">
							<g transform="translate(8, 8)" fill="#33322E" text-align="left" data-name="DataRowHolder&lt;TRow, TTestData&gt;" data-compartment="1">
								<text x="0.0" y="14.1" stroke="none" data-name="DataRowHolder&lt;TRow, TTestData&gt;" data-compartment="1">- readonly List&lt;ITestDataRow&lt;TRow, TTestData&gt;&gt; testDataRows</text>
								
							</g>
						</g>
					</g>
					<g data-name="ITestDataRow&lt;TRow&gt;">
						<g fill="#DCE8CF" stroke="#33322E" data-name="ITestDataRow&lt;TRow&gt;">
							<rect x="1744.0" y="945.0" height="64.0" width="225.0" data-name="ITestDataRow&lt;TRow&gt;"></rect>
							<path d="M1744.0 977.0 L1969.0 977.0" fill="none" data-name="ITestDataRow&lt;TRow&gt;"></path>
						</g>
						<g transform="translate(1744, 945)" font-family="Helvetica" font-size="12pt" font-weight="bold" font-style="italic" data-name="ITestDataRow&lt;TRow&gt;" data-compartment="0">
							<g transform="translate(8, 8)" fill="#33322E" text-align="center" data-name="ITestDataRow&lt;TRow&gt;" data-compartment="0">
								<text x="104.5" y="14.1" stroke="none" text-anchor="middle" data-name="ITestDataRow&lt;TRow&gt;" data-compartment="0">ITestDataRow&lt;TRow&gt;</text>
								
							</g>
						</g>
						<g transform="translate(1744, 977)" font-family="Helvetica" font-size="12pt" font-weight="normal" font-style="italic" data-name="ITestDataRow&lt;TRow&gt;" data-compartment="1">
							<g transform="translate(8, 8)" fill="#33322E" text-align="left" data-name="ITestDataRow&lt;TRow&gt;" data-compartment="1">
								<text x="0.0" y="14.1" stroke="none" data-name="ITestDataRow&lt;TRow&gt;" data-compartment="1">TRow Convert(IDataStrategy)</text>
								
							</g>
						</g>
					</g>
					<g data-name="TTestData">
						<g fill="#C9DEEF" stroke="#33322E" data-name="TTestData">
							<rect x="407.0" y="1073.0" height="48.0" width="216.0" data-name="TTestData"></rect>
						</g>
						<g transform="translate(407, 1073)" font-family="Helvetica" font-size="12pt" font-weight="bold" font-style="normal" data-name="TTestData" data-compartment="0">
							<g transform="translate(8, 8)" fill="#33322E" text-align="center" data-name="TTestData" data-compartment="0">
								<text x="100.0" y="14.1" stroke="none" text-anchor="middle" data-name="TTestData" data-compartment="0">TTestData</text>
								<text x="100.0" y="30.3" stroke="none" text-anchor="middle" data-name="TTestData" data-compartment="0">(concrete generic records)</text>
								
							</g>
						</g>
					</g>
					<g data-name="ITestDataRow">
						<g fill="#DCE8CF" stroke="#33322E" data-name="ITestDataRow">
							<rect x="1327.3" y="801.0" height="80.0" width="295.0" data-name="ITestDataRow"></rect>
							<path d="M1327.3 833.0 L1622.3 833.0" fill="none" data-name="ITestDataRow"></path>
						</g>
						<g transform="translate(1327.25, 801)" font-family="Helvetica" font-size="12pt" font-weight="bold" font-style="italic" data-name="ITestDataRow" data-compartment="0">
							<g transform="translate(8, 8)" fill="#33322E" text-align="center" data-name="ITestDataRow" data-compartment="0">
								<text x="139.5" y="14.1" stroke="none" text-anchor="middle" data-name="ITestDataRow" data-compartment="0">ITestDataRow</text>
								
							</g>
						</g>
						<g transform="translate(1327.25, 833)" font-family="Helvetica" font-size="12pt" font-weight="normal" font-style="italic" data-name="ITestDataRow" data-compartment="1">
							<g transform="translate(8, 8)" fill="#33322E" text-align="left" data-name="ITestDataRow" data-compartment="1">
								<text x="0.0" y="14.1" stroke="none" data-name="ITestDataRow" data-compartment="1">object?array GetParams(IDataStrategy)</text>
								<text x="0.0" y="30.3" stroke="none" data-name="ITestDataRow" data-compartment="1">ITestData GetTestData()</text>
								
							</g>
						</g>
					</g>
				</g>
			</g>
		</g>
	</g>
</svg>