<svg version="1.1" baseProfile="full" width="1453.3" height="1256.0" viewBox="0 0 1453.25 1256" xmlns="http://www.w3.org/2000/svg" xmlns:xlink="http://www.w3.org/1999/xlink" xmlns:ev="http://www.w3.org/2001/xml-events">
	<title >CsabaDu_DynamicTestData_Pattern_Composite_Structural</title>
	<desc >
	
	#title: CsabaDu_DynamicTestData_Pattern_Composite_Structural
	#direction: down
	#.contract: fill=#DCE8CF title=center,italic,bold body=left,italic visual=class
	#.concrete: fill=#C9DEEF title=center,bold body=left visual=class
	#.abstract: fill=#C9DEEF title=center,bold,italic body=left visual=class
	
	
	[&lt;contract&gt;
	ITestData |
	string Definition |
	object?array ToArgs(ArgsCode)
	object?array ToParams(ArgsCode, PropsCode)]
	
	[&lt;contract&gt;
	IDataStrategy |
	ArgsCode ArgsCode
	PropsCode PropsCode]
	
	[&lt;contract&gt;
	IEquatable&lt;INamedTestCase&gt; |
	bool Equals(INamedTestCase?)]
	
	[&lt;contract&gt;
	INamedTestCase |
	string GetTestCaseName()]
	
	[&lt;contract&gt;
	IAddTestData&lt;TTestData&gt; |
	void Add(TTestData)]
	
	[&lt;contract&gt;
	IDataRowHolder |
	IDataStrategy DataStrategy]
	
	[&lt;contract&gt;
	IDataRowHolder&lt;TRow&gt; |
	IDataRowHolder&lt;TRow&gt; GetDataRowHolder(IDataStrategy)]
	
	[&lt;contract&gt;
	IDataRowHolder&lt;TRow, TTestData&gt; |
	void Add(ITestDataRow&lt;TRow, TTestData&gt;)]
	
	[&lt;abstract&gt;
	DataRowHolder&lt;TRow, TTestData&gt; |
	- readonly List&lt;ITestDataRow&lt;TRow, TTestData&gt;&gt; testDataRows]
	
	[&lt;contract&gt;
	ITestDataRow&lt;TRow, TTestData&gt; |
	TTestData TestData]
	
	[&lt;contract&gt;
	ITestDataRow&lt;TRow&gt; |
	TRow Convert(IDataStrategy)]
	
	[&lt;abstract&gt;
	TestDataRow&lt;TRow, TTestData&gt;]
	
	[&lt;concrete&gt;
	TTestData
	(concrete generic records)]
	
	[&lt;contract&gt;
	IReadonlyCollection&lt;ITestDataRow&gt; |
	int Count |
	IEnumerator&lt;ITestDataRow&gt; GetEnumerator()
	IEnumerator GetEnumerator()]
	
	[&lt;contract&gt; ITestDataRow |
	object?array GetParams(IDataStrategy)
	ITestData GetTestData()]
	
	
	[IEquatable&lt;INamedTestCase&gt;] extends &lt;:-
	[INamedTestCase]
	
	[ITestDataRow] extends -:&gt;
	[INamedTestCase] extends &lt;:-
	[ITestData]
	
	[DataRowHolder&lt;TRow, TTestData&gt;] has +-&gt;
	[ITestDataRow&lt;TRow, TTestData&gt;]
	
	[TTestData] &lt;-+ has
	[ITestDataRow&lt;TRow, TTestData&gt;]
	
	[ITestDataRow] extends &lt;:-
	[ITestDataRow&lt;TRow&gt;] &lt;:- extends
	[ITestDataRow&lt;TRow, TTestData&gt;]
	
	[IDataStrategy] &lt;-o uses
	[ITestDataRow&lt;TRow&gt;]
	
	[IDataRowHolder&lt;TRow, TTestData&gt;] &lt;:-- implements
	[DataRowHolder&lt;TRow, TTestData&gt;]
	
	[IDataRowHolder&lt;TRow, TTestData&gt;] -:&gt; extends
	[IReadonlyCollection&lt;ITestDataRow&gt;] uses (generic constraint) o-&gt;
	[ITestDataRow]
	
	[IDataRowHolder&lt;TRow, TTestData&gt;] -:&gt; extends
	[IAddTestData&lt;TTestData&gt;]
	
	[IAddTestData&lt;TTestData&gt;] uses o-&gt;
	[TTestData]
	
	[IDataRowHolder&lt;TRow, TTestData&gt;] uses o-&gt;
	[TTestData]
	
	[ITestDataRow&lt;TRow, TTestData&gt;] &lt;:-- implements
	[TestDataRow&lt;TRow, TTestData&gt;]
	
	[ITestData] implements &lt;:--
	[TTestData]
	
	[ITestDataRow] o-&gt; returns
	[ITestData]
	
	
	[IDataStrategy] &lt;-+ has
	[IDataRowHolder] &lt;:- extends
	[IDataRowHolder&lt;TRow&gt;] &lt;:- extends
	[IDataRowHolder&lt;TRow, TTestData&gt;]
	
	[IDataStrategy] &lt;-o uses
	[IDataRowHolder&lt;TRow&gt;]
	
	[IDataStrategy] &lt;-o uses
	[ITestDataRow]
	
	</desc>
	<g stroke-width="1.0" text-align="left" font="12pt Helvetica, Arial, sans-serif" font-size="12pt" font-family="Helvetica" font-weight="normal" font-style="normal">
		<g font-family="Helvetica" font-size="12pt" font-weight="bold" font-style="normal" stroke-width="3.0" stroke-linejoin="round" stroke-linecap="round" stroke="#33322E">
			<g stroke="transparent" fill="transparent">
				<rect x="0.0" y="0.0" height="1256.0" width="1453.3" stroke="none"></rect>
			</g>
			<g transform="translate(8, 8)" fill="#33322E">
				<g transform="translate(20, 20)" fill="#33322E" font-family="Helvetica" font-size="12pt" font-weight="normal" font-style="normal">
					<text x="711.3" y="676.0" stroke="none">extends</text>
					<path d="M774.8 669.3 L774.75 684 L782.4423076923077 704 L782.4 704.0 " fill="none"></path>
					<path d="M780.1 669.3 L774.8 669.3 L769.4 669.3 L774.8 656.0 Z"></path>
					<text x="1002.2" y="684.0" stroke="none">extends</text>
					<path d="M994.2 664.0 L948.75 684 L902.1518396699017 699.7344437478254 L902.2 699.7 " fill="none"></path>
					<path d="M900.4 694.7 L902.2 699.7 L903.9 704.8 L889.5 704.0 Z"></path>
					<text x="731.3" y="788.0" stroke="none">extends</text>
					<path d="M794.8 781.3 L794.75 788 L832.578947368421 808 L832.6 808.0 " fill="none"></path>
					<path d="M800.1 781.3 L794.8 781.3 L789.4 781.3 L794.8 768.0 Z"></path>
					<text x="204.5" y="1044.0" stroke="none">has</text>
					<path d="M238.0 1042.7 L238 1044 L448.4059193290287 1075.305029485292 L448.4 1075.3 " fill="none"></path>
					<path d="M441.0 1079.6 L448.4 1075.3 L442.6 1069.0 L455.0 1076.3 Z"></path>
					<g fill="#33322E">
						<path d="M243.3 1033.3 L238.0 1042.7 L232.7 1033.3 L238.0 1024.0 Z"></path>
					</g>
					<text x="576.5" y="1056.0" stroke="none">has</text>
					<path d="M624.0 1022.7 L624 1044 L620.6858792890315 1048.721487040284 L620.7 1048.7 " fill="none"></path>
					<g fill="#33322E">
						<path d="M611.0 1053.3 L620.7 1048.7 L619.7 1059.4 L610.0 1064.0 Z"></path>
					</g>
					<path d="M629.3 1029.3 L624.0 1022.7 L618.7 1029.3 L624.0 1016.0 Z"></path>
					<text x="1096.8" y="684.0" stroke="none">extends</text>
					<path d="M1171.9 670.3 L1197.75 684 L1231.2115384615386 704 L1231.2 704.0 " fill="none"></path>
					<path d="M1174.4 665.6 L1171.9 670.3 L1169.4 675.0 L1160.2 664.0 Z"></path>
					<text x="656.6" y="1078.1" stroke="none">extends</text>
					<path d="M1284.8 781.3 L1284.75 788 L1284.75 864 L1284.75 864 L1284.75 940 L1284.75 940 L1284.75 992 L1284.75 992 L1284.75 1044 L1284.75 1044 L720 1086.118321979204 L720.0 1086.1 " fill="none"></path>
					<path d="M1290.1 781.3 L1284.8 781.3 L1279.4 781.3 L1284.8 768.0 Z"></path>
					<text x="1305.1" y="696.0" stroke="none">uses</text>
					<path d="M1200.4 68.7 L1304.75 100 L1304.75 152 L1304.75 152 L1304.75 204 L1304.75 204 L1304.75 256 L1304.75 256 L1304.75 308 L1304.75 308 L1304.75 360 L1304.75 360 L1304.75 412 L1304.75 412 L1304.75 488 L1304.75 488 L1304.75 564 L1304.75 564 L1304.75 624 L1304.75 624 L1304.75 684 L1304.75 684 L1303.758635121458 686.5775486842095 L1303.8 686.6 " fill="none"></path>
					<g fill="#eee8d5">
						<path d="M1295.4 693.4 L1303.8 686.6 L1305.4 697.2 L1297.1 704.0 Z"></path>
					</g>
					<path d="M1208.3 65.5 L1200.4 68.7 L1205.2 75.8 L1194.0 66.8 Z"></path>
					<text x="149.1" y="952.0" stroke="none">implements</text>
					<g stroke-dasharray="6 6">
						<path d="M399.8 387.1 L238 412 L238 488 L238 488 L238 564 L238 564 L238 624 L238 624 L238 684 L238 684 L238 736 L238 736 L238 788 L238 788 L238 864 L238 864 L238 940 L238 940 L238 960 L238.0 960.0 " fill="none"></path>
					</g>
					<path d="M400.6 392.4 L399.8 387.1 L399.0 381.9 L413.0 385.1 Z"></path>
					<text x="962.5" y="424.0" stroke="none">extends</text>
					<path d="M740.0 382.5 L954.5 412 L954.5 418.6666666666667 L954.5 418.7 " fill="none"></path>
					<path d="M949.2 418.7 L954.5 418.7 L959.8 418.7 L954.5 432.0 Z"></path>
					<text x="773.2" y="564.0" stroke="none">uses (generic constraint)</text>
					<path d="M954.5 562.7 L954.5 564 L991.9428684313444 581.2151119224571 L991.9 581.2 " fill="none"></path>
					<path d="M983.7 583.3 L991.9 581.2 L988.1 573.6 L998.0 584.0 Z"></path>
					<g fill="#eee8d5">
						<path d="M959.8 553.3 L954.5 562.7 L949.2 553.3 L954.5 544.0 Z"></path>
					</g>
					<text x="367.6" y="824.0" stroke="none">extends</text>
					<path d="M487.0 392.0 L431 412 L431 488 L431 488 L431 564 L431 564 L431 624 L431 624 L431 684 L431 684 L431 736 L431 736 L431 788 L431 788 L431 818.6666666666666 L431.0 818.7 " fill="none"></path>
					<path d="M425.7 818.7 L431.0 818.7 L436.3 818.7 L431.0 832.0 Z"></path>
					<text x="389.6" y="916.0" stroke="none">uses</text>
					<path d="M431.0 914.7 L431 940 L528.4859606723877 966.2656474350474 L528.5 966.3 " fill="none"></path>
					<path d="M520.7 969.7 L528.5 966.3 L523.4 959.4 L534.9 968.0 Z"></path>
					<g fill="#eee8d5">
						<path d="M436.3 905.3 L431.0 914.7 L425.7 905.3 L431.0 896.0 Z"></path>
					</g>
					<text x="541.9" y="412.0" stroke="none">uses</text>
					<path d="M587.1 410.3 L587.5 412 L587.5 488 L587.5 488 L587.5 564 L587.5 564 L587.5 624 L587.5 624 L587.5 684 L587.5 684 L587.5 736 L587.5 736 L587.5 788 L587.5 788 L587.5 864 L587.5 864 L587.5 940 L587.5 940 L603.3237244297416 962.5433882286728 L603.3 962.5 " fill="none"></path>
					<path d="M595.1 960.2 L603.3 962.5 L603.9 954.0 L607.2 968.0 Z"></path>
					<g fill="#eee8d5">
						<path d="M590.4 400.0 L587.1 410.3 L580.0 402.2 L583.3 392.0 Z"></path>
					</g>
					<text x="498.6" y="1160.0" stroke="none">implements</text>
					<g stroke-dasharray="6 6">
						<path d="M587.5 1141.3 L587.5 1148 L587.5 1168 L587.5 1168.0 " fill="none"></path>
					</g>
					<path d="M592.8 1141.3 L587.5 1141.3 L582.2 1141.3 L587.5 1128.0 Z"></path>
					<text x="946.5" y="940.0" stroke="none">implements</text>
					<g stroke-dasharray="6 6">
						<path d="M938.5 933.3 L938.5 940 L732 974.1430842607314 L732.0 974.1 " fill="none"></path>
					</g>
					<path d="M943.8 933.3 L938.5 933.3 L933.2 933.3 L938.5 920.0 Z"></path>
					<text x="1001.3" y="800.0" stroke="none">returns</text>
					<path d="M1100.9 682.0 L1101.5 684 L1101.5 736 L1101.5 736 L1101.5 788 L1101.5 788 L1064.6474307561705 805.1827930216629 L1064.6 805.2 " fill="none"></path>
					<path d="M1068.4 797.5 L1064.6 805.2 L1072.9 807.2 L1058.6 808.0 Z"></path>
					<g fill="#eee8d5">
						<path d="M1103.6 671.6 L1100.9 682.0 L1093.3 674.4 L1096.0 664.0 Z"></path>
					</g>
					<text x="467.5" y="112.0" stroke="none">has</text>
					<path d="M1008.4 49.6 L501 100 L501 101.33333333333334 L501.0 101.3 " fill="none"></path>
					<g fill="#33322E">
						<path d="M495.7 110.7 L501.0 101.3 L506.3 110.7 L501.0 120.0 Z"></path>
					</g>
					<path d="M1002.3 55.5 L1008.4 49.6 L1001.2 44.9 L1015.0 48.9 Z"></path>
					<text x="538.0" y="216.0" stroke="none">extends</text>
					<path d="M501.0 197.3 L501 204 L530.0384615384615 224 L530.0 224.0 " fill="none"></path>
					<path d="M506.3 197.3 L501.0 197.3 L495.7 197.3 L501.0 184.0 Z"></path>
					<text x="513.1" y="320.0" stroke="none">extends</text>
					<path d="M576.5 301.3 L576.5 308 L576.5 328 L576.5 328.0 " fill="none"></path>
					<path d="M581.8 301.3 L576.5 301.3 L571.2 301.3 L576.5 288.0 Z"></path>
					<text x="756.1" y="223.2" stroke="none">uses</text>
					<path d="M1057.0 84.6 L1040.5 100 L1040.5 152 L1040.5 152 L1040.5 204 L1040.5 204 L816.0505378530684 229.15381903370783 L816.1 229.2 " fill="none"></path>
					<g fill="#eee8d5">
						<path d="M806.2 224.9 L816.1 229.2 L807.4 235.5 L797.5 231.2 Z"></path>
					</g>
					<path d="M1055.8 93.0 L1057.0 84.6 L1048.5 85.2 L1061.8 80.0 Z"></path>
					<text x="1114.3" y="576.0" stroke="none">uses</text>
					<path d="M1167.6 83.8 L1191 100 L1191 152 L1191 152 L1191 204 L1191 204 L1191 256 L1191 256 L1191 308 L1191 308 L1191 360 L1191 360 L1191 412 L1191 412 L1191 488 L1191 488 L1191 564 L1191 564 L1171.9114612946673 574.8048332294336 L1171.9 574.8 " fill="none"></path>
					<g fill="#eee8d5">
						<path d="M1161.2 574.8 L1171.9 574.8 L1166.4 584.0 L1155.7 584.0 Z"></path>
					</g>
					<path d="M1176.2 83.2 L1167.6 83.8 L1170.1 92.0 L1162.2 80.0 Z"></path>
					<g data-name="ITestData">
						<g fill="#DCE8CF" stroke="#33322E" data-name="ITestData">
							<rect x="764.5" y="808.0" height="112.0" width="348.0" data-name="ITestData"></rect>
							<path d="M764.5 840.0 L1112.5 840.0" fill="none" data-name="ITestData"></path>
							<path d="M764.5 872.0 L1112.5 872.0" fill="none" data-name="ITestData"></path>
						</g>
						<g transform="translate(764.5, 808)" font-family="Helvetica" font-size="12pt" font-weight="bold" font-style="italic" data-name="ITestData" data-compartment="0">
							<g transform="translate(8, 8)" fill="#33322E" text-align="center" data-name="ITestData" data-compartment="0">
								<text x="166.0" y="14.1" stroke="none" text-anchor="middle" data-name="ITestData" data-compartment="0">ITestData</text>
								
							</g>
						</g>
						<g transform="translate(764.5, 840)" font-family="Helvetica" font-size="12pt" font-weight="normal" font-style="italic" data-name="ITestData" data-compartment="1">
							<g transform="translate(8, 8)" fill="#33322E" text-align="left" data-name="ITestData" data-compartment="1">
								<text x="0.0" y="14.1" stroke="none" data-name="ITestData" data-compartment="1">string Definition</text>
								
							</g>
						</g>
						<g transform="translate(764.5, 872)" font-family="Helvetica" font-size="12pt" font-weight="normal" font-style="italic" data-name="ITestData" data-compartment="2">
							<g transform="translate(8, 8)" fill="#33322E" text-align="left" data-name="ITestData" data-compartment="2">
								<text x="0.0" y="14.1" stroke="none" data-name="ITestData" data-compartment="2">object?array ToArgs(ArgsCode)</text>
								<text x="0.0" y="30.3" stroke="none" data-name="ITestData" data-compartment="2">object?array ToParams(ArgsCode, PropsCode)</text>
								
							</g>
						</g>
					</g>
					<g data-name="IDataStrategy">
						<g fill="#DCE8CF" stroke="#33322E" data-name="IDataStrategy">
							<rect x="1015.0" y="0.0" height="80.0" width="179.0" data-name="IDataStrategy"></rect>
							<path d="M1015.0 32.0 L1194.0 32.0" fill="none" data-name="IDataStrategy"></path>
						</g>
						<g transform="translate(1015, 0)" font-family="Helvetica" font-size="12pt" font-weight="bold" font-style="italic" data-name="IDataStrategy" data-compartment="0">
							<g transform="translate(8, 8)" fill="#33322E" text-align="center" data-name="IDataStrategy" data-compartment="0">
								<text x="81.5" y="14.1" stroke="none" text-anchor="middle" data-name="IDataStrategy" data-compartment="0">IDataStrategy</text>
								
							</g>
						</g>
						<g transform="translate(1015, 32)" font-family="Helvetica" font-size="12pt" font-weight="normal" font-style="italic" data-name="IDataStrategy" data-compartment="1">
							<g transform="translate(8, 8)" fill="#33322E" text-align="left" data-name="IDataStrategy" data-compartment="1">
								<text x="0.0" y="14.1" stroke="none" data-name="IDataStrategy" data-compartment="1">ArgsCode ArgsCode</text>
								<text x="0.0" y="30.3" stroke="none" data-name="IDataStrategy" data-compartment="1">PropsCode PropsCode</text>
								
							</g>
						</g>
					</g>
					<g data-name="IEquatable&lt;INamedTestCase&gt;">
						<g fill="#DCE8CF" stroke="#33322E" data-name="IEquatable&lt;INamedTestCase&gt;">
							<rect x="654.3" y="592.0" height="64.0" width="241.0" data-name="IEquatable&lt;INamedTestCase&gt;"></rect>
							<path d="M654.3 624.0 L895.3 624.0" fill="none" data-name="IEquatable&lt;INamedTestCase&gt;"></path>
						</g>
						<g transform="translate(654.25, 592)" font-family="Helvetica" font-size="12pt" font-weight="bold" font-style="italic" data-name="IEquatable&lt;INamedTestCase&gt;" data-compartment="0">
							<g transform="translate(8, 8)" fill="#33322E" text-align="center" data-name="IEquatable&lt;INamedTestCase&gt;" data-compartment="0">
								<text x="112.5" y="14.1" stroke="none" text-anchor="middle" data-name="IEquatable&lt;INamedTestCase&gt;" data-compartment="0">IEquatable&lt;INamedTestCase&gt;</text>
								
							</g>
						</g>
						<g transform="translate(654.25, 624)" font-family="Helvetica" font-size="12pt" font-weight="normal" font-style="italic" data-name="IEquatable&lt;INamedTestCase&gt;" data-compartment="1">
							<g transform="translate(8, 8)" fill="#33322E" text-align="left" data-name="IEquatable&lt;INamedTestCase&gt;" data-compartment="1">
								<text x="0.0" y="14.1" stroke="none" data-name="IEquatable&lt;INamedTestCase&gt;" data-compartment="1">bool Equals(INamedTestCase?)</text>
								
							</g>
						</g>
					</g>
					<g data-name="INamedTestCase">
						<g fill="#DCE8CF" stroke="#33322E" data-name="INamedTestCase">
							<rect x="692.8" y="704.0" height="64.0" width="204.0" data-name="INamedTestCase"></rect>
							<path d="M692.8 736.0 L896.8 736.0" fill="none" data-name="INamedTestCase"></path>
						</g>
						<g transform="translate(692.75, 704)" font-family="Helvetica" font-size="12pt" font-weight="bold" font-style="italic" data-name="INamedTestCase" data-compartment="0">
							<g transform="translate(8, 8)" fill="#33322E" text-align="center" data-name="INamedTestCase" data-compartment="0">
								<text x="94.0" y="14.1" stroke="none" text-anchor="middle" data-name="INamedTestCase" data-compartment="0">INamedTestCase</text>
								
							</g>
						</g>
						<g transform="translate(692.75, 736)" font-family="Helvetica" font-size="12pt" font-weight="normal" font-style="italic" data-name="INamedTestCase" data-compartment="1">
							<g transform="translate(8, 8)" fill="#33322E" text-align="left" data-name="INamedTestCase" data-compartment="1">
								<text x="0.0" y="14.1" stroke="none" data-name="INamedTestCase" data-compartment="1">string GetTestCaseName()</text>
								
							</g>
						</g>
					</g>
					<g data-name="IAddTestData&lt;TTestData&gt;">
						<g fill="#DCE8CF" stroke="#33322E" data-name="IAddTestData&lt;TTestData&gt;">
							<rect x="325.5" y="832.0" height="64.0" width="211.0" data-name="IAddTestData&lt;TTestData&gt;"></rect>
							<path d="M325.5 864.0 L536.5 864.0" fill="none" data-name="IAddTestData&lt;TTestData&gt;"></path>
						</g>
						<g transform="translate(325.5, 832)" font-family="Helvetica" font-size="12pt" font-weight="bold" font-style="italic" data-name="IAddTestData&lt;TTestData&gt;" data-compartment="0">
							<g transform="translate(8, 8)" fill="#33322E" text-align="center" data-name="IAddTestData&lt;TTestData&gt;" data-compartment="0">
								<text x="97.5" y="14.1" stroke="none" text-anchor="middle" data-name="IAddTestData&lt;TTestData&gt;" data-compartment="0">IAddTestData&lt;TTestData&gt;</text>
								
							</g>
						</g>
						<g transform="translate(325.5, 864)" font-family="Helvetica" font-size="12pt" font-weight="normal" font-style="italic" data-name="IAddTestData&lt;TTestData&gt;" data-compartment="1">
							<g transform="translate(8, 8)" fill="#33322E" text-align="left" data-name="IAddTestData&lt;TTestData&gt;" data-compartment="1">
								<text x="0.0" y="14.1" stroke="none" data-name="IAddTestData&lt;TTestData&gt;" data-compartment="1">void Add(TTestData)</text>
								
							</g>
						</g>
					</g>
					<g data-name="IDataRowHolder">
						<g fill="#DCE8CF" stroke="#33322E" data-name="IDataRowHolder">
							<rect x="396.0" y="120.0" height="64.0" width="210.0" data-name="IDataRowHolder"></rect>
							<path d="M396.0 152.0 L606.0 152.0" fill="none" data-name="IDataRowHolder"></path>
						</g>
						<g transform="translate(396, 120)" font-family="Helvetica" font-size="12pt" font-weight="bold" font-style="italic" data-name="IDataRowHolder" data-compartment="0">
							<g transform="translate(8, 8)" fill="#33322E" text-align="center" data-name="IDataRowHolder" data-compartment="0">
								<text x="97.0" y="14.1" stroke="none" text-anchor="middle" data-name="IDataRowHolder" data-compartment="0">IDataRowHolder</text>
								
							</g>
						</g>
						<g transform="translate(396, 152)" font-family="Helvetica" font-size="12pt" font-weight="normal" font-style="italic" data-name="IDataRowHolder" data-compartment="1">
							<g transform="translate(8, 8)" fill="#33322E" text-align="left" data-name="IDataRowHolder" data-compartment="1">
								<text x="0.0" y="14.1" stroke="none" data-name="IDataRowHolder" data-compartment="1">IDataStrategy DataStrategy</text>
								
							</g>
						</g>
					</g>
					<g data-name="IDataRowHolder&lt;TRow&gt;">
						<g fill="#DCE8CF" stroke="#33322E" data-name="IDataRowHolder&lt;TRow&gt;">
							<rect x="355.5" y="224.0" height="64.0" width="442.0" data-name="IDataRowHolder&lt;TRow&gt;"></rect>
							<path d="M355.5 256.0 L797.5 256.0" fill="none" data-name="IDataRowHolder&lt;TRow&gt;"></path>
						</g>
						<g transform="translate(355.5, 224)" font-family="Helvetica" font-size="12pt" font-weight="bold" font-style="italic" data-name="IDataRowHolder&lt;TRow&gt;" data-compartment="0">
							<g transform="translate(8, 8)" fill="#33322E" text-align="center" data-name="IDataRowHolder&lt;TRow&gt;" data-compartment="0">
								<text x="213.0" y="14.1" stroke="none" text-anchor="middle" data-name="IDataRowHolder&lt;TRow&gt;" data-compartment="0">IDataRowHolder&lt;TRow&gt;</text>
								
							</g>
						</g>
						<g transform="translate(355.5, 256)" font-family="Helvetica" font-size="12pt" font-weight="normal" font-style="italic" data-name="IDataRowHolder&lt;TRow&gt;" data-compartment="1">
							<g transform="translate(8, 8)" fill="#33322E" text-align="left" data-name="IDataRowHolder&lt;TRow&gt;" data-compartment="1">
								<text x="0.0" y="14.1" stroke="none" data-name="IDataRowHolder&lt;TRow&gt;" data-compartment="1">IDataRowHolder&lt;TRow&gt; GetDataRowHolder(IDataStrategy)</text>
								
							</g>
						</g>
					</g>
					<g data-name="IDataRowHolder&lt;TRow, TTestData&gt;">
						<g fill="#DCE8CF" stroke="#33322E" data-name="IDataRowHolder&lt;TRow, TTestData&gt;">
							<rect x="413.0" y="328.0" height="64.0" width="327.0" data-name="IDataRowHolder&lt;TRow, TTestData&gt;"></rect>
							<path d="M413.0 360.0 L740.0 360.0" fill="none" data-name="IDataRowHolder&lt;TRow, TTestData&gt;"></path>
						</g>
						<g transform="translate(413, 328)" font-family="Helvetica" font-size="12pt" font-weight="bold" font-style="italic" data-name="IDataRowHolder&lt;TRow, TTestData&gt;" data-compartment="0">
							<g transform="translate(8, 8)" fill="#33322E" text-align="center" data-name="IDataRowHolder&lt;TRow, TTestData&gt;" data-compartment="0">
								<text x="155.5" y="14.1" stroke="none" text-anchor="middle" data-name="IDataRowHolder&lt;TRow, TTestData&gt;" data-compartment="0">IDataRowHolder&lt;TRow, TTestData&gt;</text>
								
							</g>
						</g>
						<g transform="translate(413, 360)" font-family="Helvetica" font-size="12pt" font-weight="normal" font-style="italic" data-name="IDataRowHolder&lt;TRow, TTestData&gt;" data-compartment="1">
							<g transform="translate(8, 8)" fill="#33322E" text-align="left" data-name="IDataRowHolder&lt;TRow, TTestData&gt;" data-compartment="1">
								<text x="0.0" y="14.1" stroke="none" data-name="IDataRowHolder&lt;TRow, TTestData&gt;" data-compartment="1">void Add(ITestDataRow&lt;TRow, TTestData&gt;)</text>
								
							</g>
						</g>
					</g>
					<g data-name="DataRowHolder&lt;TRow, TTestData&gt;">
						<g fill="#C9DEEF" stroke="#33322E" data-name="DataRowHolder&lt;TRow, TTestData&gt;">
							<rect x="0.0" y="960.0" height="64.0" width="476.0" data-name="DataRowHolder&lt;TRow, TTestData&gt;"></rect>
							<path d="M0.0 992.0 L476.0 992.0" fill="none" data-name="DataRowHolder&lt;TRow, TTestData&gt;"></path>
						</g>
						<g transform="translate(0, 960)" font-family="Helvetica" font-size="12pt" font-weight="bold" font-style="italic" data-name="DataRowHolder&lt;TRow, TTestData&gt;" data-compartment="0">
							<g transform="translate(8, 8)" fill="#33322E" text-align="center" data-name="DataRowHolder&lt;TRow, TTestData&gt;" data-compartment="0">
								<text x="230.0" y="14.1" stroke="none" text-anchor="middle" data-name="DataRowHolder&lt;TRow, TTestData&gt;" data-compartment="0">DataRowHolder&lt;TRow, TTestData&gt;</text>
								
							</g>
						</g>
						<g transform="translate(0, 992)" font-family="Helvetica" font-size="12pt" font-weight="normal" font-style="normal" data-name="DataRowHolder&lt;TRow, TTestData&gt;" data-compartment="1">
							<g transform="translate(8, 8)" fill="#33322E" text-align="left" data-name="DataRowHolder&lt;TRow, TTestData&gt;" data-compartment="1">
								<text x="0.0" y="14.1" stroke="none" data-name="DataRowHolder&lt;TRow, TTestData&gt;" data-compartment="1">- readonly List&lt;ITestDataRow&lt;TRow, TTestData&gt;&gt; testDataRows</text>
								
							</g>
						</g>
					</g>
					<g data-name="ITestDataRow&lt;TRow, TTestData&gt;">
						<g fill="#DCE8CF" stroke="#33322E" data-name="ITestDataRow&lt;TRow, TTestData&gt;">
							<rect x="455.0" y="1064.0" height="64.0" width="265.0" data-name="ITestDataRow&lt;TRow, TTestData&gt;"></rect>
							<path d="M455.0 1096.0 L720.0 1096.0" fill="none" data-name="ITestDataRow&lt;TRow, TTestData&gt;"></path>
						</g>
						<g transform="translate(455, 1064)" font-family="Helvetica" font-size="12pt" font-weight="bold" font-style="italic" data-name="ITestDataRow&lt;TRow, TTestData&gt;" data-compartment="0">
							<g transform="translate(8, 8)" fill="#33322E" text-align="center" data-name="ITestDataRow&lt;TRow, TTestData&gt;" data-compartment="0">
								<text x="124.5" y="14.1" stroke="none" text-anchor="middle" data-name="ITestDataRow&lt;TRow, TTestData&gt;" data-compartment="0">ITestDataRow&lt;TRow, TTestData&gt;</text>
								
							</g>
						</g>
						<g transform="translate(455, 1096)" font-family="Helvetica" font-size="12pt" font-weight="normal" font-style="italic" data-name="ITestDataRow&lt;TRow, TTestData&gt;" data-compartment="1">
							<g transform="translate(8, 8)" fill="#33322E" text-align="left" data-name="ITestDataRow&lt;TRow, TTestData&gt;" data-compartment="1">
								<text x="0.0" y="14.1" stroke="none" data-name="ITestDataRow&lt;TRow, TTestData&gt;" data-compartment="1">TTestData TestData</text>
								
							</g>
						</g>
					</g>
					<g data-name="ITestDataRow&lt;TRow&gt;">
						<g fill="#DCE8CF" stroke="#33322E" data-name="ITestDataRow&lt;TRow&gt;">
							<rect x="1172.3" y="704.0" height="64.0" width="225.0" data-name="ITestDataRow&lt;TRow&gt;"></rect>
							<path d="M1172.3 736.0 L1397.3 736.0" fill="none" data-name="ITestDataRow&lt;TRow&gt;"></path>
						</g>
						<g transform="translate(1172.25, 704)" font-family="Helvetica" font-size="12pt" font-weight="bold" font-style="italic" data-name="ITestDataRow&lt;TRow&gt;" data-compartment="0">
							<g transform="translate(8, 8)" fill="#33322E" text-align="center" data-name="ITestDataRow&lt;TRow&gt;" data-compartment="0">
								<text x="104.5" y="14.1" stroke="none" text-anchor="middle" data-name="ITestDataRow&lt;TRow&gt;" data-compartment="0">ITestDataRow&lt;TRow&gt;</text>
								
							</g>
						</g>
						<g transform="translate(1172.25, 736)" font-family="Helvetica" font-size="12pt" font-weight="normal" font-style="italic" data-name="ITestDataRow&lt;TRow&gt;" data-compartment="1">
							<g transform="translate(8, 8)" fill="#33322E" text-align="left" data-name="ITestDataRow&lt;TRow&gt;" data-compartment="1">
								<text x="0.0" y="14.1" stroke="none" data-name="ITestDataRow&lt;TRow&gt;" data-compartment="1">TRow Convert(IDataStrategy)</text>
								
							</g>
						</g>
					</g>
					<g data-name="TestDataRow&lt;TRow, TTestData&gt;">
						<g fill="#C9DEEF" stroke="#33322E" data-name="TestDataRow&lt;TRow, TTestData&gt;">
							<rect x="457.0" y="1168.0" height="32.0" width="261.0" data-name="TestDataRow&lt;TRow, TTestData&gt;"></rect>
						</g>
						<g transform="translate(457, 1168)" font-family="Helvetica" font-size="12pt" font-weight="bold" font-style="italic" data-name="TestDataRow&lt;TRow, TTestData&gt;" data-compartment="0">
							<g transform="translate(8, 8)" fill="#33322E" text-align="center" data-name="TestDataRow&lt;TRow, TTestData&gt;" data-compartment="0">
								<text x="122.5" y="14.1" stroke="none" text-anchor="middle" data-name="TestDataRow&lt;TRow, TTestData&gt;" data-compartment="0">TestDataRow&lt;TRow, TTestData&gt;</text>
								
							</g>
						</g>
					</g>
					<g data-name="TTestData">
						<g fill="#C9DEEF" stroke="#33322E" data-name="TTestData">
							<rect x="516.0" y="968.0" height="48.0" width="216.0" data-name="TTestData"></rect>
						</g>
						<g transform="translate(516, 968)" font-family="Helvetica" font-size="12pt" font-weight="bold" font-style="normal" data-name="TTestData" data-compartment="0">
							<g transform="translate(8, 8)" fill="#33322E" text-align="center" data-name="TTestData" data-compartment="0">
								<text x="100.0" y="14.1" stroke="none" text-anchor="middle" data-name="TTestData" data-compartment="0">TTestData</text>
								<text x="100.0" y="30.3" stroke="none" text-anchor="middle" data-name="TTestData" data-compartment="0">(concrete generic records)</text>
								
							</g>
						</g>
					</g>
					<g data-name="IReadonlyCollection&lt;ITestDataRow&gt;">
						<g fill="#DCE8CF" stroke="#33322E" data-name="IReadonlyCollection&lt;ITestDataRow&gt;">
							<rect x="782.5" y="432.0" height="112.0" width="344.0" data-name="IReadonlyCollection&lt;ITestDataRow&gt;"></rect>
							<path d="M782.5 464.0 L1126.5 464.0" fill="none" data-name="IReadonlyCollection&lt;ITestDataRow&gt;"></path>
							<path d="M782.5 496.0 L1126.5 496.0" fill="none" data-name="IReadonlyCollection&lt;ITestDataRow&gt;"></path>
						</g>
						<g transform="translate(782.5, 432)" font-family="Helvetica" font-size="12pt" font-weight="bold" font-style="italic" data-name="IReadonlyCollection&lt;ITestDataRow&gt;" data-compartment="0">
							<g transform="translate(8, 8)" fill="#33322E" text-align="center" data-name="IReadonlyCollection&lt;ITestDataRow&gt;" data-compartment="0">
								<text x="164.0" y="14.1" stroke="none" text-anchor="middle" data-name="IReadonlyCollection&lt;ITestDataRow&gt;" data-compartment="0">IReadonlyCollection&lt;ITestDataRow&gt;</text>
								
							</g>
						</g>
						<g transform="translate(782.5, 464)" font-family="Helvetica" font-size="12pt" font-weight="normal" font-style="italic" data-name="IReadonlyCollection&lt;ITestDataRow&gt;" data-compartment="1">
							<g transform="translate(8, 8)" fill="#33322E" text-align="left" data-name="IReadonlyCollection&lt;ITestDataRow&gt;" data-compartment="1">
								<text x="0.0" y="14.1" stroke="none" data-name="IReadonlyCollection&lt;ITestDataRow&gt;" data-compartment="1">int Count</text>
								
							</g>
						</g>
						<g transform="translate(782.5, 496)" font-family="Helvetica" font-size="12pt" font-weight="normal" font-style="italic" data-name="IReadonlyCollection&lt;ITestDataRow&gt;" data-compartment="2">
							<g transform="translate(8, 8)" fill="#33322E" text-align="left" data-name="IReadonlyCollection&lt;ITestDataRow&gt;" data-compartment="2">
								<text x="0.0" y="14.1" stroke="none" data-name="IReadonlyCollection&lt;ITestDataRow&gt;" data-compartment="2">IEnumerator&lt;ITestDataRow&gt; GetEnumerator()</text>
								<text x="0.0" y="30.3" stroke="none" data-name="IReadonlyCollection&lt;ITestDataRow&gt;" data-compartment="2">IEnumerator GetEnumerator()</text>
								
							</g>
						</g>
					</g>
					<g data-name="ITestDataRow">
						<g fill="#DCE8CF" stroke="#33322E" data-name="ITestDataRow">
							<rect x="937.5" y="584.0" height="80.0" width="295.0" data-name="ITestDataRow"></rect>
							<path d="M937.5 616.0 L1232.5 616.0" fill="none" data-name="ITestDataRow"></path>
						</g>
						<g transform="translate(937.5, 584)" font-family="Helvetica" font-size="12pt" font-weight="bold" font-style="italic" data-name="ITestDataRow" data-compartment="0">
							<g transform="translate(8, 8)" fill="#33322E" text-align="center" data-name="ITestDataRow" data-compartment="0">
								<text x="139.5" y="14.1" stroke="none" text-anchor="middle" data-name="ITestDataRow" data-compartment="0">ITestDataRow</text>
								
							</g>
						</g>
						<g transform="translate(937.5, 616)" font-family="Helvetica" font-size="12pt" font-weight="normal" font-style="italic" data-name="ITestDataRow" data-compartment="1">
							<g transform="translate(8, 8)" fill="#33322E" text-align="left" data-name="ITestDataRow" data-compartment="1">
								<text x="0.0" y="14.1" stroke="none" data-name="ITestDataRow" data-compartment="1">object?array GetParams(IDataStrategy)</text>
								<text x="0.0" y="30.3" stroke="none" data-name="ITestDataRow" data-compartment="1">ITestData GetTestData()</text>
								
							</g>
						</g>
					</g>
				</g>
			</g>
		</g>
	</g>
</svg>